<svg width="188" height="61" viewBox="0 0 188 61" fill="none" xmlns="http://www.w3.org/2000/svg">
<g filter="url(#filter0_i_745_54)">
<path d="M102.741 22.154L83 61H188C188 61 186.835 39.3329 179.989 35.1027C176.164 32.7388 169.403 35.1027 169.403 35.1027L157.673 16.9745C157.673 16.9745 155.186 2.6799 150.234 0.572892C139.076 -4.17544 102.741 22.154 102.741 22.154Z" fill="url(#paint0_linear_745_54)"/>
</g>
<g filter="url(#filter1_i_745_54)">
<path d="M56.7411 38.0745L37 61H142C142 61 140.835 48.2129 133.989 45.7163C130.164 44.3212 123.403 45.7163 123.403 45.7163L111.673 35.0178C111.673 35.0178 109.186 26.5816 104.234 25.3381C93.0763 22.5358 56.7411 38.0745 56.7411 38.0745Z" fill="url(#paint1_linear_745_54)"/>
</g>
<g filter="url(#filter2_i_745_54)">
<path d="M6.76839 53.3582L0 61H36C36 61 35.6006 56.7376 33.2534 55.9054C31.9418 55.4404 29.624 55.9054 29.624 55.9054L25.6022 52.3393C25.6022 52.3393 24.7493 49.5272 23.0518 49.1127C19.2262 48.1786 6.76839 53.3582 6.76839 53.3582Z" fill="url(#paint2_linear_745_54)"/>
</g>
<defs>
<filter id="filter0_i_745_54" x="83" y="0" width="105" height="65" filterUnits="userSpaceOnUse" color-interpolation-filters="sRGB">
<feFlood flood-opacity="0" result="BackgroundImageFix"/>
<feBlend mode="normal" in="SourceGraphic" in2="BackgroundImageFix" result="shape"/>
<feColorMatrix in="SourceAlpha" type="matrix" values="0 0 0 0 0 0 0 0 0 0 0 0 0 0 0 0 0 0 127 0" result="hardAlpha"/>
<feOffset dy="4"/>
<feGaussianBlur stdDeviation="2"/>
<feComposite in2="hardAlpha" operator="arithmetic" k2="-1" k3="1"/>
<feColorMatrix type="matrix" values="0 0 0 0 0 0 0 0 0 0 0 0 0 0 0 0 0 0 0.25 0"/>
<feBlend mode="normal" in2="shape" result="effect1_innerShadow_745_54"/>
</filter>
<filter id="filter1_i_745_54" x="37" y="25" width="105" height="40" filterUnits="userSpaceOnUse" color-interpolation-filters="sRGB">
<feFlood flood-opacity="0" result="BackgroundImageFix"/>
<feBlend mode="normal" in="SourceGraphic" in2="BackgroundImageFix" result="shape"/>
<feColorMatrix in="SourceAlpha" type="matrix" values="0 0 0 0 0 0 0 0 0 0 0 0 0 0 0 0 0 0 127 0" result="hardAlpha"/>
<feOffset dy="4"/>
<feGaussianBlur stdDeviation="2"/>
<feComposite in2="hardAlpha" operator="arithmetic" k2="-1" k3="1"/>
<feColorMatrix type="matrix" values="0 0 0 0 0 0 0 0 0 0 0 0 0 0 0 0 0 0 0.25 0"/>
<feBlend mode="normal" in2="shape" result="effect1_innerShadow_745_54"/>
</filter>
<filter id="filter2_i_745_54" x="0" y="49" width="36" height="16" filterUnits="userSpaceOnUse" color-interpolation-filters="sRGB">
<feFlood flood-opacity="0" result="BackgroundImageFix"/>
<feBlend mode="normal" in="SourceGraphic" in2="BackgroundImageFix" result="shape"/>
<feColorMatrix in="SourceAlpha" type="matrix" values="0 0 0 0 0 0 0 0 0 0 0 0 0 0 0 0 0 0 127 0" result="hardAlpha"/>
<feOffset dy="4"/>
<feGaussianBlur stdDeviation="2"/>
<feComposite in2="hardAlpha" operator="arithmetic" k2="-1" k3="1"/>
<feColorMatrix type="matrix" values="0 0 0 0 0 0 0 0 0 0 0 0 0 0 0 0 0 0 0.25 0"/>
<feBlend mode="normal" in2="shape" result="effect1_innerShadow_745_54"/>
</filter>
<linearGradient id="paint0_linear_745_54" x1="135.5" y1="0" x2="135.5" y2="61" gradientUnits="userSpaceOnUse">
<stop stop-color="#D9D9D9"/>
<stop offset="0.5" stop-color="#8B8B8B"/>
<stop offset="1" stop-color="#737373"/>
</linearGradient>
<linearGradient id="paint1_linear_745_54" x1="89.5" y1="25" x2="89.5" y2="61" gradientUnits="userSpaceOnUse">
<stop stop-color="#D9D9D9"/>
<stop offset="1" stop-color="#737373"/>
</linearGradient>
<linearGradient id="paint2_linear_745_54" x1="18" y1="49" x2="18" y2="61" gradientUnits="userSpaceOnUse">
<stop stop-color="#D9D9D9"/>
<stop offset="1" stop-color="#737373"/>
</linearGradient>
</defs>
</svg>
