<svg width="1245" height="579" viewBox="0 0 1245 579" fill="none" xmlns="http://www.w3.org/2000/svg">
<path d="M756 214.5V145C881 115.998 847.495 94.7619 926 62.4983C962.5 47.4977 1016.14 41.4847 1035 44C1102.5 53.0001 1158.76 122.845 1208 111.5C1303.5 89.4986 1337.5 103 1337.5 103V214.5H756Z" fill="#125149"/>
<path d="M0 204V0C6.00557 2.53102 25.0232 -4.55583 68.0631 16.7047C72.0205 18.6595 135.626 62.7692 135.626 102.253C135.626 102.253 162.997 96.4 180.167 99.2159C194.692 101.598 216.201 113.39 216.201 113.39C216.201 113.39 242.238 97.4346 260.241 90.1042C279.467 82.2759 303 73.9057 309.787 73.9057C351.569 73.9057 405.381 90.5633 456.924 122.501C477.756 135.41 487.795 145.155 506.97 160.467C525.988 175.653 539 204 539 204H0Z" fill="#336F51"/>
<path d="M1312 353V48C1305.52 51.7841 1284.98 41.1886 1238.51 72.9752C1234.23 75.8978 1165.55 141.846 1165.55 200.878C1165.55 200.878 1136 192.127 1117.46 196.337C1101.78 199.899 1078.55 217.529 1078.55 217.529C1078.55 217.529 1050.44 193.674 1031 182.715C1010.24 171.011 984.827 158.496 977.499 158.496C932.383 158.496 874.279 183.401 818.624 231.151C796.13 250.451 785.29 265.021 764.585 287.913C744.05 310.618 730 353 730 353H1312Z" fill="#4B814E"/>
<path d="M-27.6697 342C-27.6697 342 -64.4129 209.135 -27.6697 167.064C9.93846 124.003 45.868 186.149 62.5683 193.977C76.0769 200.31 93.3188 204.365 112.821 200.31C179.824 186.378 253.956 229.837 285.732 233.556C396.044 246.465 486.02 305.588 517 342H-27.6697Z" fill="#125149"/>
<ellipse cx="622.5" cy="664.5" rx="748.5" ry="583.5" fill="#669554"/>
<path fill-rule="evenodd" clip-rule="evenodd" d="M466.717 184.48C464.39 185.769 458.677 189.855 458.677 189.855C458.677 189.855 460.726 193.724 462.697 195.643C464.744 197.636 466.09 198.589 468.504 200.191C473.258 203.347 476.336 204.234 481.904 206.393C487.377 208.515 496.769 211.137 496.769 211.137L508.258 214.249C508.258 214.249 509.592 209.36 510.938 206.393C512.479 202.995 513.17 200.746 515.851 198.124C519.285 194.766 522.552 192.325 527.464 193.163C531.034 193.772 532.825 196.057 535.058 198.124C538.39 201.209 539.525 203.499 544.438 205.153C548.208 206.422 552.031 207.634 555.158 206.393C556.519 205.854 557.75 203.86 559.178 203.499C564.092 202.259 568.383 208.858 575.705 210.465C587.403 213.031 593.662 216.106 605.632 217.143C620.979 218.474 629.542 214.492 644.939 213.836C660.796 213.16 670.009 216.663 685.586 213.836C695.492 212.038 700.696 209.661 710.153 206.393C716.501 204.2 719.62 201.727 726.234 200.365C728.989 199.797 730.579 199.046 733.38 199.365C736.633 199.734 738.294 201.018 740.974 202.672C743.731 204.374 748.649 203.884 751.694 202.672C751.694 202.672 755.005 200.984 756.607 199.365C758.61 197.34 760.023 194.372 762.414 192.749C769.114 188.201 784.958 200.191 784.958 200.191C787.115 198.614 789.405 196.815 791.001 195.23C794.266 191.986 797.701 186.961 797.701 186.961C797.701 186.961 789.226 181.54 783.408 178.691C777.677 175.886 774.219 174.765 768.221 172.49L740.974 165.047C740.974 165.047 726.562 161.768 719.087 160.499C692.286 155.951 673.473 152.543 641.812 151.816C610.152 151.09 556.945 156.778 556.945 156.778C544.941 158 538.289 159.45 526.571 162.153C515.06 164.808 508.579 166.407 497.537 170.422C490.779 172.88 487.46 173.948 481.011 177.038C474.342 180.232 473.16 180.91 466.717 184.48ZM527.911 186.134C528.05 183.842 530.466 182.705 532.825 181.999C534.816 181.403 536.845 181.586 538.185 181.999C540.435 182.694 541.758 184.48 541.758 186.547C541.758 188.518 540.186 189.183 538.185 189.855C535.561 190.735 531.931 190.268 530.144 189.441C528.538 188.698 527.81 187.794 527.911 186.134Z" fill="#43270F"/>
<path d="M458.23 167.941C456.626 171.781 455.952 174.162 455.997 178.278C456.023 180.721 456.314 182.095 456.89 184.48C457.408 186.623 458.677 189.855 458.677 189.855C458.677 189.855 464.39 185.769 466.717 184.48C473.16 180.91 474.342 180.232 481.011 177.038C487.46 173.948 490.779 172.88 497.537 170.422C508.579 166.407 515.06 164.808 526.571 162.153C538.289 159.45 544.941 158 556.945 156.778C556.945 156.778 610.152 151.09 641.812 151.816C673.473 152.543 692.286 155.951 719.087 160.499C726.562 161.768 740.974 165.047 740.974 165.047L768.221 172.49C774.219 174.765 777.677 175.886 783.408 178.691C789.226 181.54 797.701 186.961 797.701 186.961C797.701 186.961 801.424 181.442 802.168 177.451C802.702 174.587 802.477 172.901 802.168 170.009C801.959 168.054 801.827 166.944 801.274 165.047C800.157 161.213 798.843 158.759 796.361 155.951C793.072 152.23 787.449 149.344 782.068 147.268C760.627 138.999 736.06 134.451 736.06 134.451C736.06 134.451 718.374 132.121 707.027 130.73C693.085 129.021 685.331 127.38 671.293 126.595C658.06 125.855 650.601 126.364 637.346 126.595L636.872 126.604C613.765 127.007 600.612 127.237 577.492 129.49C560.49 131.146 535.951 135.278 535.951 135.278C535.951 135.278 523.215 136.69 515.404 138.172C507.156 139.737 503.805 140.447 495.751 142.72C490.262 144.269 486.15 145.32 481.011 147.682C474.943 150.47 471.51 152.16 466.717 156.778C462.795 160.556 460.272 163.054 458.23 167.941Z" fill="#5E3716"/>
<path fill-rule="evenodd" clip-rule="evenodd" d="M810.655 176.211C810.208 174.557 815.568 164.634 817.355 158.845C817.801 157.398 818.121 150.824 816.015 146.028C815.47 144.788 811.548 138.999 807.081 136.105C803.233 133.612 801.831 132.296 798.148 130.316C787.554 124.623 780.699 122.827 768.221 119.566C755.742 116.306 745.311 114.555 731.594 112.538C714.794 110.067 688.266 108.403 688.266 108.403C688.266 108.403 659.961 106.768 641.812 106.749C617.55 106.724 612.573 107.037 579.725 109.23C555.167 110.869 528.394 114.764 511.384 117.913C491.284 121.634 464.484 133.624 455.55 141.893C445.277 151.403 442.15 160.499 442.15 160.499C442.15 160.499 437.22 159.258 433.663 160.086C431.015 160.702 426.963 162.153 426.963 162.153C426.963 162.153 422.691 159.323 418.476 159.259C414.102 159.192 409.347 159.973 406.416 162.98C405.054 164.378 403.736 167.115 403.736 167.115C403.736 167.115 408.985 170.351 411.776 170.836C414.567 171.32 417.677 169.454 418.476 170.009C420.263 171.249 417.384 175.534 418.476 178.278C419.5 180.849 420.263 180.759 422.497 181.586C424.124 182.188 425.892 181.984 427.41 181.172C429.044 180.299 429.774 179.155 430.09 178.278C430.537 177.038 429.952 175.262 430.983 173.73C432.51 171.461 436.343 169.595 437.683 170.836C439.263 172.297 436.573 176.006 436.343 179.105C436.164 181.521 435.994 183.046 436.343 185.307C436.692 187.567 436.962 188.77 438.13 190.682C439.587 193.067 440.637 193.272 443.49 195.643C445.584 197.384 448.071 198.748 448.85 200.191C449.743 201.845 445.689 203.649 445.723 206.393C445.747 208.283 445.86 209.283 447.063 210.941C448.172 212.47 448.787 213.161 450.637 213.836C453.4 214.844 455.55 214.663 458.23 213.836C461.647 212.782 464.037 209.288 466.27 209.288C468.504 209.288 469.332 209.806 470.737 211.355C472.156 212.919 471.943 214.209 472.97 216.316C475.112 220.707 477.998 223.137 482.797 224.999C486.236 226.334 488.036 226.461 492.177 226.653C501.111 227.066 504.684 222.932 506.024 223.759C507.627 224.748 506.059 226.71 506.918 228.307C507.913 230.158 508.883 230.802 510.938 231.615C513.509 232.632 515.346 232.555 518.084 232.028C521.22 231.425 523.444 229.547 525.678 228.307C526.419 227.895 527.489 228.122 528.335 228.302L528.358 228.307C529.82 228.617 531.485 230.374 531.485 230.374L541.758 240.711C541.758 240.711 546.182 243.15 549.351 243.605C551.42 243.902 552.632 243.83 554.711 243.605C559.376 243.099 562.13 242.09 565.878 239.47C567.847 238.094 567.92 234.919 570.345 235.336C572.168 235.649 571.713 238.101 573.472 238.643C576.152 239.47 578.411 239.54 581.512 239.057C583.688 238.718 584.89 238.256 586.872 237.403C588.575 236.669 589.061 234.499 590.892 234.922C592.679 235.336 593.894 237.593 596.252 239.057C600.238 241.531 603.095 242.701 607.865 243.191C619.926 244.432 626.179 244.018 640.026 241.951C644.726 241.249 649.406 236.483 650.746 236.576C652.086 236.669 655.584 240.048 659.233 241.124C662.904 242.207 665.27 242.597 669.06 241.951C671.831 241.479 673.31 240.76 675.76 239.47C678.247 238.161 678.723 235.039 681.566 235.336C683.441 235.531 683.9 236.84 685.586 237.816C689.048 239.822 695.413 241.538 695.413 241.538C695.413 241.538 701.454 243.647 706.133 244.018C710.492 244.364 713.28 244.432 717.747 243.605C721.189 242.968 723.322 241.748 726.234 239.933C728.086 238.777 729.838 236.358 731.147 236.625C732.934 236.99 731.515 240.125 732.934 241.951C734.381 243.814 735.064 245.059 737.847 245.672C740.61 246.28 742.76 246.499 744.994 244.845C746.158 243.984 747.142 243.191 747.026 241.573C746.952 240.554 747.227 239.332 747.674 239.057C748.567 238.506 749.58 239.481 751.694 239.884C756.335 240.768 759.031 241.124 763.754 241.124C765.987 241.124 769.999 241.26 771.794 239.057C772.594 238.075 773.071 237.463 773.134 236.163C773.183 235.142 772.444 234.094 771.794 233.268C771.053 232.327 769.189 231.81 767.774 231.201C765.718 230.315 763.754 231.493 763.754 229.961C763.754 229.134 766.424 228.152 767.327 226.653C768.134 225.315 768.221 224.464 768.221 222.932C768.221 222.105 767.945 221.386 768.221 220.451C768.426 219.754 768.591 219.362 769.114 218.797L769.172 218.734C769.669 218.197 770.086 217.745 770.901 217.557C772.687 217.143 775.092 219.677 778.941 220.865C780.281 221.278 783.991 221.386 786.088 220.451C788.321 219.455 790.076 218.859 791.001 216.73C791.717 215.082 791.001 212.182 791.001 212.182C791.001 212.182 797.567 212.441 801.274 210.941C804.024 209.829 807.528 206.807 807.528 206.807C807.528 206.807 807.755 210.057 808.868 211.768C810.147 213.734 811.636 214.34 813.781 215.49C815.884 216.616 817.059 217.315 819.588 217.557C822.117 217.799 824.471 217.862 826.735 216.316C828.807 214.901 829.515 214.32 829.415 211.768C829.353 210.179 829.537 209.33 828.521 208.047C827.793 207.126 827.667 206.746 826.288 205.98C825.342 205.455 824.75 204.975 823.608 204.74C822.586 204.529 821.345 204.712 820.481 203.913C819.618 203.113 819.649 202.504 820.035 201.432C820.481 200.191 822.665 200.608 824.948 200.191C827.03 199.812 829.275 199.774 831.202 198.951C832.564 198.369 833.892 198.256 834.328 196.884C834.764 195.511 833.379 194.093 834.328 192.336C834.775 191.509 836.424 192.017 838.348 191.922C840.672 191.808 841.978 191.856 844.155 191.095C845.323 190.687 845.925 190.339 847.058 189.855L849.962 188.615C849.962 188.615 847.728 186.134 846.835 185.307C845.423 183.999 841.359 182.054 836.115 182.826C830.736 183.619 826.735 187.788 824.948 187.374C823.161 186.961 819.639 183.32 816.461 180.759C813.473 178.35 810.987 177.44 810.655 176.211ZM455.997 178.278C455.952 174.162 456.626 171.781 458.23 167.941C460.272 163.054 462.795 160.556 466.717 156.778C471.51 152.16 474.943 150.47 481.011 147.682C486.15 145.32 490.262 144.269 495.751 142.72C503.805 140.447 507.156 139.737 515.404 138.172C523.215 136.69 535.951 135.278 535.951 135.278C535.951 135.278 560.49 131.146 577.492 129.49C600.612 127.237 613.765 127.007 636.872 126.604L637.346 126.595C650.601 126.364 658.06 125.855 671.293 126.595C685.331 127.38 693.085 129.021 707.027 130.73C718.374 132.121 736.06 134.451 736.06 134.451C736.06 134.451 760.627 138.999 782.068 147.268C787.449 149.344 793.072 152.23 796.361 155.951C798.843 158.759 800.157 161.213 801.274 165.047C801.827 166.944 801.959 168.054 802.168 170.009C802.477 172.901 802.702 174.587 802.168 177.451C801.424 181.442 797.701 186.961 797.701 186.961C797.701 186.961 794.266 191.986 791.001 195.23C789.405 196.815 787.115 198.614 784.958 200.191C781.807 202.495 778.941 204.326 778.941 204.326C770.671 209.377 757.501 213.836 757.501 213.836C757.501 213.836 744.545 217.986 733.38 220.451C717.59 223.937 704.625 225.78 688.266 227.48C671.429 229.23 661.901 229.288 644.939 229.547C625.908 229.838 613.437 229.726 594.465 228.307C571.692 226.603 560.511 226.183 538.185 221.691C526.359 219.312 508.258 214.249 508.258 214.249L496.769 211.137C496.769 211.137 487.377 208.515 481.904 206.393C476.336 204.234 473.258 203.347 468.504 200.191C466.09 198.589 464.744 197.636 462.697 195.643C460.726 193.724 458.677 189.855 458.677 189.855C458.677 189.855 457.408 186.623 456.89 184.48C456.314 182.095 456.023 180.721 455.997 178.278Z" fill="#804B1E"/>
<path d="M733.38 220.451C744.545 217.986 757.501 213.836 757.501 213.836C757.501 213.836 770.671 209.377 778.941 204.326C778.941 204.326 781.807 202.495 784.958 200.191C784.958 200.191 769.114 188.201 762.414 192.749C760.023 194.372 758.61 197.34 756.607 199.365C755.005 200.984 751.694 202.672 751.694 202.672C748.649 203.884 743.731 204.374 740.974 202.672C738.294 201.018 736.633 199.734 733.38 199.365C730.579 199.046 728.989 199.797 726.234 200.365C719.62 201.727 716.501 204.2 710.153 206.393C700.696 209.661 695.492 212.038 685.586 213.836C670.009 216.663 660.796 213.16 644.939 213.836C629.542 214.492 620.979 218.474 605.632 217.143C593.662 216.106 587.403 213.031 575.705 210.465C568.383 208.858 564.092 202.259 559.178 203.499C557.75 203.86 556.519 205.854 555.158 206.393C552.031 207.634 548.208 206.422 544.438 205.153C539.525 203.499 538.39 201.209 535.058 198.124C532.825 196.057 531.034 193.772 527.464 193.163C522.552 192.325 519.285 194.766 515.851 198.124C513.17 200.746 512.479 202.995 510.938 206.393C509.592 209.36 508.258 214.249 508.258 214.249C508.258 214.249 526.359 219.312 538.185 221.691C560.511 226.183 571.692 226.603 594.465 228.307C613.437 229.726 625.908 229.838 644.939 229.547C661.901 229.288 671.429 229.23 688.266 227.48C704.625 225.78 717.59 223.937 733.38 220.451Z" fill="#33200F"/>
<path d="M532.825 181.999C530.466 182.705 528.05 183.842 527.911 186.134C527.81 187.794 528.538 188.698 530.144 189.441C531.931 190.268 535.561 190.735 538.185 189.855C540.186 189.183 541.758 188.518 541.758 186.547C541.758 184.48 540.435 182.694 538.185 181.999C536.845 181.586 534.816 181.403 532.825 181.999Z" fill="#2F1A08"/>
<path d="M399.716 188.201C403.935 189.503 409.096 188.615 410.883 190.268C411.321 190.674 409.632 191.333 408.65 193.163C407.631 195.061 407.227 196.188 407.756 198.124C408.272 200.009 409.225 200.664 410.883 201.432C414.456 203.086 418.742 203.115 422.943 203.086C426.796 203.059 431.43 201.845 431.43 201.845C429.643 206.393 431.877 218.384 457.784 224.172C449.743 229.547 447.331 239.718 485.924 239.057C487.562 242.502 498.431 247.834 524.338 242.365C524.338 242.365 527.379 247.069 531.485 249.807C535.175 252.269 538.185 252.873 548.011 254.768C555.351 256.184 565.009 257.11 575.705 255.595C585.902 254.152 600.719 247.74 600.719 247.74C600.719 247.74 602.098 251.481 603.845 253.528C605.23 255.15 609.347 257.35 611.439 258.076C617.692 260.247 620.372 259.73 627.519 259.316C634.206 258.93 641.812 252.701 641.812 252.701C641.812 252.701 647.159 254.18 650.746 254.768C654.332 255.357 657.267 255.727 661.466 255.595C667.518 255.405 676.206 251.874 676.206 251.874C676.206 251.874 679.925 255.417 682.46 256.422C688.713 258.903 689.466 258.677 694.966 259.316C700.162 259.921 704.48 260.026 709.707 259.73C714.459 259.46 716.882 259.259 721.32 257.663C724.527 256.509 729.36 253.941 729.36 253.941C729.36 253.941 734.26 256.421 737.847 257.663C744.391 259.928 748.716 259.727 755.714 259.316C761.211 258.994 764.497 258.217 769.561 256.836C774.352 255.528 776.261 255.182 780.728 252.701C785.961 249.795 789.899 247.408 788.321 241.951C787.039 237.517 778.941 233.268 778.941 233.268C778.941 233.268 789.214 233.682 795.468 233.268C798.456 233.071 801.78 232.693 805.741 231.201C808.928 230.001 814.675 226.653 814.675 226.653C814.675 226.653 821.641 227.74 824.948 227.48C828.255 227.219 834.986 225.824 837.902 222.105C839.991 219.439 838.795 215.49 838.795 215.49C838.795 215.49 844.062 215.968 847.728 215.903C850.17 215.86 852.531 215.296 854.875 214.663C857.523 213.948 861.129 211.768 861.575 209.701C861.891 208.241 861.575 207.22 860.682 205.98C859.412 204.217 853.535 201.845 853.535 201.845C853.088 198.124 853.514 194.919 852.642 192.336C851.77 189.752 849.962 188.615 849.962 188.615L847.058 189.855C845.925 190.339 845.323 190.687 844.155 191.095C841.978 191.856 840.672 191.808 838.348 191.922C836.424 192.017 834.775 191.509 834.328 192.336C833.379 194.093 834.764 195.511 834.328 196.884C833.892 198.256 832.564 198.369 831.202 198.951C829.275 199.774 827.03 199.812 824.948 200.191C822.665 200.608 820.481 200.191 820.035 201.432C819.649 202.504 819.618 203.113 820.481 203.913C821.345 204.712 822.586 204.529 823.608 204.74C824.75 204.975 825.342 205.455 826.288 205.98C827.667 206.746 827.793 207.126 828.521 208.047C829.537 209.33 829.353 210.179 829.415 211.768C829.515 214.32 828.807 214.901 826.735 216.316C824.471 217.862 822.117 217.799 819.588 217.557C817.059 217.315 815.884 216.616 813.781 215.49C811.636 214.34 810.147 213.734 808.868 211.768C807.755 210.057 807.528 206.807 807.528 206.807C807.528 206.807 804.024 209.829 801.274 210.941C797.567 212.441 791.001 212.182 791.001 212.182C791.001 212.182 791.717 215.082 791.001 216.73C790.076 218.859 788.321 219.455 786.088 220.451C783.991 221.386 780.281 221.278 778.941 220.865C775.092 219.677 772.687 217.143 770.901 217.557C770.086 217.745 769.669 218.197 769.172 218.734L769.114 218.797C768.591 219.362 768.426 219.754 768.221 220.451C767.945 221.386 768.221 222.105 768.221 222.932C768.221 224.464 768.134 225.315 767.327 226.653C766.424 228.152 763.754 229.134 763.754 229.961C763.754 231.493 765.718 230.315 767.774 231.201C769.189 231.81 771.053 232.327 771.794 233.268C772.444 234.094 773.183 235.142 773.134 236.163C773.071 237.463 772.594 238.075 771.794 239.057C769.999 241.26 765.987 241.124 763.754 241.124C759.031 241.124 756.335 240.768 751.694 239.884C749.58 239.481 748.567 238.506 747.674 239.057C747.227 239.332 746.952 240.554 747.026 241.573C747.142 243.191 746.158 243.984 744.994 244.845C742.76 246.499 740.61 246.28 737.847 245.672C735.064 245.059 734.381 243.814 732.934 241.951C731.515 240.125 732.934 236.99 731.147 236.625C729.838 236.358 728.086 238.777 726.234 239.933C723.322 241.748 721.189 242.968 717.747 243.605C713.28 244.432 710.492 244.364 706.133 244.018C701.454 243.647 695.413 241.538 695.413 241.538C695.413 241.538 689.048 239.822 685.586 237.816C683.9 236.84 683.441 235.531 681.566 235.336C678.723 235.039 678.247 238.161 675.76 239.47C673.31 240.76 671.831 241.479 669.06 241.951C665.27 242.597 662.904 242.207 659.233 241.124C655.584 240.048 652.086 236.669 650.746 236.576C649.406 236.483 644.726 241.249 640.026 241.951C626.179 244.018 619.926 244.432 607.865 243.191C603.095 242.701 600.238 241.531 596.252 239.057C593.894 237.593 592.679 235.336 590.892 234.922C589.061 234.499 588.575 236.669 586.872 237.403C584.89 238.256 583.688 238.718 581.512 239.057C578.411 239.54 576.152 239.47 573.472 238.643C571.713 238.101 572.168 235.649 570.345 235.336C567.92 234.919 567.847 238.094 565.878 239.47C562.13 242.09 559.376 243.099 554.711 243.605C552.632 243.83 551.42 243.902 549.351 243.605C546.182 243.15 541.758 240.711 541.758 240.711L531.485 230.374C531.485 230.374 529.82 228.617 528.358 228.307L528.335 228.302C527.489 228.122 526.419 227.895 525.678 228.307C523.444 229.547 521.22 231.425 518.084 232.028C515.346 232.555 513.509 232.632 510.938 231.615C508.883 230.802 507.913 230.158 506.918 228.307C506.059 226.71 507.627 224.748 506.024 223.759C504.684 222.932 501.111 227.066 492.177 226.653C488.036 226.461 486.236 226.334 482.797 224.999C477.998 223.137 475.112 220.707 472.97 216.316C471.943 214.209 472.156 212.919 470.737 211.355C469.332 209.806 468.504 209.288 466.27 209.288C464.037 209.288 461.647 212.782 458.23 213.836C455.55 214.663 453.4 214.844 450.637 213.836C448.787 213.161 448.172 212.47 447.063 210.941C445.86 209.283 445.747 208.283 445.723 206.393C445.689 203.649 449.743 201.845 448.85 200.191C448.071 198.748 445.584 197.384 443.49 195.643C440.637 193.272 439.587 193.067 438.13 190.682C436.962 188.77 436.692 187.567 436.343 185.307C435.994 183.046 436.164 181.521 436.343 179.105C436.573 176.006 439.263 172.297 437.683 170.836C436.343 169.595 432.51 171.461 430.983 173.73C429.952 175.262 430.537 177.038 430.09 178.278C429.774 179.155 429.044 180.299 427.41 181.172C425.892 181.984 424.124 182.188 422.497 181.586C420.263 180.759 419.5 180.849 418.476 178.278C417.384 175.534 420.263 171.249 418.476 170.009C417.677 169.454 414.567 171.32 411.776 170.836C408.985 170.351 403.736 167.115 403.736 167.115C403.736 167.115 402.396 168.768 401.95 172.076C401.66 174.219 401.503 177.038 401.503 177.038C401.503 177.038 395.391 179.913 395.25 183.24C395.127 186.112 398.376 187.788 399.716 188.201Z" fill="#633916"/>
<path d="M371.129 197.297C371.129 198.105 370.838 198.603 371.129 199.365C371.42 200.126 372.919 200.802 374.256 201.432C375.593 202.062 383.116 202.387 384.976 201.845C386.836 201.303 388.577 201.18 389.443 199.778C390.308 198.376 389.994 197.175 389.443 195.643C388.891 194.112 385.963 191.965 384.976 191.509C383.989 191.052 383.373 190.902 382.296 190.682C381.219 190.462 377.383 190.268 376.043 191.095C374.703 191.922 374.355 191.886 373.363 192.749C372.37 193.613 371.807 194.451 371.576 195.23C371.345 196.008 371.129 196.49 371.129 197.297Z" fill="#804B1E"/>
<path d="M415.35 135.278C413.546 136.054 412.137 136.885 411.33 138.172C410.522 139.46 409.928 140.481 410.436 141.893C410.945 143.306 412.19 143.599 413.563 144.374C414.936 145.15 425.59 145.15 426.963 144.374C428.336 143.599 429.62 143.317 430.09 141.893C430.553 140.488 429.472 139.177 428.348 137.814L428.303 137.759C427.164 136.376 425.834 135.548 423.837 134.865C421.839 134.181 417.153 134.502 415.35 135.278Z" fill="#43270F"/>
<path d="M393.909 211.355C393.596 212.251 393.332 213.888 393.909 214.663C394.487 215.438 395.208 215.533 396.143 215.903C397.078 216.273 400.817 216.673 402.396 216.316C403.975 215.96 405.32 215.728 406.155 214.663C406.991 213.597 406.965 212.197 406.863 211.355C406.761 210.513 406.636 210.008 406.155 209.288C405.674 208.567 404.986 207.988 404.183 207.634C403.38 207.279 402.836 207.292 401.95 207.22C401.063 207.149 399.099 207.205 397.93 207.634C396.76 208.062 395.934 208.591 395.25 209.288C394.565 209.984 394.223 210.459 393.909 211.355Z" fill="#633916"/>
<path d="M472.97 244.018C474.697 243.789 476.415 244.016 477.437 244.432C478.46 244.848 478.798 245.44 479.671 246.086C480.543 246.732 480.92 246.833 481.457 247.74C481.994 248.646 482.345 249.817 481.904 250.634C481.463 251.451 480.463 251.33 479.671 251.874C478.878 252.418 470.976 252.382 469.844 251.874C468.712 251.367 467.731 251.221 467.164 250.22C466.596 249.22 466.889 248.792 467.164 247.74C467.438 246.687 468.129 246.444 468.95 245.672C469.771 244.9 471.244 244.248 472.97 244.018Z" fill="#5E3716"/>
<path d="M662.806 264.278C662.302 265.483 662.138 266.283 662.806 267.172C663.474 268.061 664.146 267.999 665.039 267.999H671.293C672.633 267.999 674.874 267.638 675.313 266.759C675.752 265.879 675.588 265.213 675.313 264.278C675.038 263.343 673.835 262.728 673.08 262.211C672.324 261.694 672.202 261.191 671.293 260.97C670.384 260.75 668.198 260.404 666.379 260.97C664.561 261.536 663.31 263.073 662.806 264.278Z" fill="#43270F"/>
<path d="M815.121 241.538C814.813 242.583 814.517 244.501 815.121 245.259C815.725 246.016 816.432 246.102 817.355 246.499C818.277 246.896 818.961 247.092 820.035 247.326C821.109 247.56 825.589 247.532 827.181 247.326C828.774 247.12 830.056 246.98 831.202 246.499C832.347 246.018 833.314 245.846 833.882 244.845C834.449 243.845 834.23 243.034 833.882 241.951C833.533 240.868 832.885 240.377 832.095 239.47C831.305 238.564 830.222 237.434 829.415 236.99C828.608 236.545 828.087 236.394 827.181 236.163C826.276 235.931 822.452 235.943 821.375 236.163C820.297 236.382 819.641 236.464 818.695 236.99C817.749 237.515 817.141 238.175 816.461 239.057C815.781 239.938 815.429 240.493 815.121 241.538Z" fill="#804B1E"/>
<path d="M830.755 160.499C829.772 161.373 829.329 161.35 828.968 162.566C828.737 163.345 828.681 163.871 828.968 164.634C829.417 165.824 830.286 166.288 831.648 166.288H834.775C836.335 166.288 836.562 165.874 838.795 165.047C839.94 164.623 840.038 162.834 839.688 161.74C839.371 160.748 839.162 160.794 838.348 160.086C838.348 160.086 837.186 159.139 836.115 158.845C834.932 158.521 832.988 158.845 832.988 158.845C831.958 159.245 831.56 159.783 830.755 160.499Z" fill="#5E3716"/>
<path d="M870.509 197.711C869.653 198.376 869.615 198.951 869.169 199.365C868.17 200.289 868.204 201.719 868.722 202.259L868.797 202.337C869.301 202.863 869.91 203.499 870.509 203.499H874.975C874.975 203.499 876.771 203.516 877.655 202.672C878.423 201.939 879.06 201.211 878.995 200.191C878.94 199.323 878.549 198.951 878.102 198.538C877.396 197.884 876.899 196.87 875.869 196.47C874.421 195.909 873.28 195.874 871.849 196.47C871.275 196.709 870.99 197.336 870.509 197.711Z" fill="#804B1E"/>
<path d="M853.088 224.999C851.591 225.434 850.295 226.74 849.515 227.48C848.735 228.22 848.064 228.629 847.728 229.547C847.393 230.465 847.29 231.148 847.728 232.028C848.147 232.868 848.886 233.199 849.826 233.621L849.962 233.682C850.966 234.134 852.678 234.007 854.428 234.095C856.179 234.183 858.615 234.516 859.789 234.095C860.962 233.675 861.845 233.452 862.469 232.441C863.093 231.431 862.698 229.824 862.469 229.134C862.239 228.444 862.019 228.074 861.575 227.48C861.131 226.886 860.621 226.316 859.789 225.826C858.956 225.336 858.192 225.191 857.109 224.999C856.025 224.807 854.586 224.564 853.088 224.999Z" fill="#43270F"/>
<path d="M701.22 83.7116C702.717 84.514 704.793 86.1923 704.793 86.1923L706.133 86.3474C706.133 86.3474 708.237 84.4451 709.707 83.7116C711.177 82.978 712.126 82.5433 713.727 82.4712C715.328 82.399 716.531 83.0988 717.747 83.2981C718.962 83.4974 719.933 83.3796 720.874 83.7116C721.814 84.0435 723.107 84.9519 723.107 84.9519L721.32 82.4712C721.32 82.4712 719.165 80.4304 717.747 79.1635C715.7 77.3345 714.93 75.6496 712.387 74.6154C709.317 73.3668 707.147 73.9513 703.9 74.6154C700.95 75.2187 699.218 75.7797 696.753 77.5096C694.95 78.7752 692.733 81.4671 692.733 81.4671C692.733 81.4671 698.198 82.0922 701.22 83.7116Z" fill="#814C1D"/>
<path d="M673.08 84.125L704.793 86.1923C704.793 86.1923 702.717 84.514 701.22 83.7116C698.198 82.0922 692.733 81.4671 692.733 81.4671L691.84 81.2308C691.84 81.2308 689.518 79.6452 687.82 79.1635C685.47 78.497 683.958 78.6679 681.566 79.1635C677.807 79.9425 673.08 84.125 673.08 84.125Z" fill="#5E3716"/>
<path d="M727.127 85.7789C725.59 85.3239 723.107 84.9519 723.107 84.9519C723.107 84.9519 721.814 84.0435 720.874 83.7116C719.933 83.3796 718.962 83.4974 717.747 83.2981C716.531 83.0988 715.328 82.399 713.727 82.4712C712.126 82.5433 711.177 82.978 709.707 83.7116C708.237 84.4451 706.133 86.3474 706.133 86.3474C706.133 86.3474 733.866 90.1749 733.38 89.5C732.895 88.8252 732.648 88.4136 732.04 87.8462C731.433 87.2788 728.664 86.2339 727.127 85.7789Z" fill="#5E3716"/>
<path d="M666.379 68.8269C665.935 70.0619 665.294 74.0215 666.379 74.2019C667.465 74.3823 668.076 73.8368 669.06 73.375C670.044 72.9132 672.127 71.5221 672.633 70.4808C673.139 69.4394 673.355 68.3525 673.08 67.5866C672.804 66.8207 672.47 66.3742 671.74 65.9327C671.009 65.4913 669.375 65.2869 668.166 65.9327C666.958 66.5786 666.824 67.592 666.379 68.8269Z" fill="#5E3716"/>
<path d="M679.78 58.9039C679.542 59.745 679.314 62.5121 679.78 63.4519L679.826 63.5451C680.267 64.4372 680.59 65.0922 681.566 65.5192C682.576 65.9611 685.657 62.2648 686.033 61.7981C686.409 61.3313 686.677 61.0921 686.926 60.5577C687.176 60.0233 687.551 58.261 686.926 57.25C686.302 56.2391 685.489 55.7793 684.246 55.5962C683.004 55.413 681.276 56.1695 680.673 56.8365C680.07 57.5036 680.018 58.0627 679.78 58.9039Z" fill="#814C1D"/>
<path d="M601.165 59.2008C600.307 58.6953 598.641 58.7417 598.039 59.2008C597.436 59.6598 597.408 60.1746 597.145 60.8546C596.883 61.5346 596.379 62.8945 596.699 64.1623C597.018 65.4301 600.617 68.3526 601.612 67.8835C602.607 67.4144 602.994 66.7799 603.399 65.8162C603.803 64.8524 602.918 62.1288 602.505 61.2681C602.093 60.4074 602.023 59.7062 601.165 59.2008Z" fill="#5E3716"/>
<path d="M612.779 72.0181C611.487 72.4189 610.696 72.9521 610.099 74.0854C609.501 75.2187 609.328 76.3973 610.099 77.5443C610.869 78.6914 612.198 78.6578 613.672 79.0469C615.146 79.4361 617.172 80.6611 618.586 79.4604C620 78.2597 619.025 76.0033 618.586 74.9123C618.146 73.8213 617.837 73.0885 616.799 72.4315C615.76 71.7746 614.071 71.6172 612.779 72.0181Z" fill="#814C1D"/>
<path d="M582.405 70.7778C579.369 71.0131 574.812 72.845 574.812 72.845H565.432C563.198 72.845 560.026 73.2965 557.392 75.3258L557.246 75.4377C555.568 76.7295 554.92 77.2287 554.265 79.047C553.371 81.5278 553.371 84.8355 553.371 84.8355L596.252 82.3546C596.252 82.3546 596.36 80.8375 596.252 79.8739C596.144 78.9102 596.071 76.6505 594.912 74.9124C594.197 73.8392 593.125 72.8451 592.232 72.4316C590.081 71.4359 586.072 70.4935 582.405 70.7778Z" fill="#5E3716"/>
<path d="M536.398 79.8739C535.554 81.9951 535.951 85.6623 535.951 85.6623L553.371 84.8355C553.371 84.8355 553.371 81.5278 554.265 79.047C554.92 77.2287 555.568 76.7295 557.246 75.4377L557.392 75.3258C560.026 73.2965 563.198 72.845 565.432 72.845H574.812C574.812 72.845 573.025 70.7597 568.558 68.7104C567.223 68.0978 566.433 67.7958 564.985 67.4701C563.45 67.1249 560.965 67.0565 560.965 67.0565C560.965 67.0565 555.601 67.0588 552.925 68.7104C550.245 70.3643 549.351 73.2585 547.118 74.9123C546.028 75.7192 544.94 74.9123 543.545 74.9123C542.149 74.9123 539.525 75.7393 539.078 76.1528C537.291 77.8067 537.17 77.9336 536.398 79.8739Z" fill="#814C1D"/>
<path d="M811.101 233.268C810.114 233.753 809.452 234.455 809.315 234.922C809.177 235.39 809.12 235.743 809.315 236.163C809.509 236.582 809.777 236.768 810.208 236.99C810.639 237.211 811.569 236.99 812.441 236.99H814.675C814.675 236.99 815.979 236.897 816.015 236.576C816.05 236.255 816.674 234.921 816.461 234.509C816.248 234.097 816.404 233.962 816.015 233.682C815.625 233.401 814.894 233.153 814.228 232.855C813.561 232.557 812.088 232.784 811.101 233.268Z" fill="#33200F"/>
</svg>
