<svg width="389" height="663" viewBox="0 0 389 663" fill="none" xmlns="http://www.w3.org/2000/svg">
<path d="M0 509.194V663H388C388 663 375.847 614.863 374.406 608.777C372.964 602.69 371.007 596.785 371.007 596.785C371.007 596.785 361.887 603.1 355.714 606.691C344.174 613.405 337.109 616.341 324.561 621.29C311.635 626.387 290.575 632.239 290.575 632.239C290.575 632.239 262.218 640.489 243.562 643.188C230.168 645.125 222.52 645.789 209.01 645.795C193.28 645.801 183.084 646.026 167.095 643.709C152.944 641.659 146.241 640.268 132.543 636.41C118.754 632.526 110.453 630.675 97.9912 624.418L97.7576 624.301C94.2479 622.54 90.6277 620.723 90.6277 618.683C90.6277 610.325 94.7172 597.633 97.9912 584.272C102.371 566.398 104.729 557.556 111.019 538.912C115.915 524.4 118.422 516.044 124.047 501.894C127.054 494.33 128.657 490.056 131.977 482.603C133.894 478.299 137.074 471.654 137.074 471.654L151.235 435.158C151.235 435.158 154.742 425.184 158.032 418.995C160.3 414.73 164.263 409.695 164.263 408.046C164.263 407.004 160.776 405.165 158.032 403.354C154.464 400.998 152.165 399.348 148.969 396.576C146.693 394.601 143.305 391.884 143.305 391.884C143.305 391.884 137.417 393.966 133.676 395.533C130.118 397.024 123.48 399.183 123.48 399.183L84.3971 422.645C84.3971 422.645 71.6711 431.206 64.0058 437.243C56.396 443.237 45.3139 453.406 45.3139 453.406C45.3139 453.406 40.0542 458.422 36.8175 461.748C24.8043 474.094 18.8907 481.75 9.06277 495.638C5.37687 500.846 0 509.194 0 509.194Z" fill="#36A6DD"/>
<path d="M167.095 314.72L163.13 304.292L160.298 297.514L163.13 308.463V317.848C163.13 317.848 162.135 326.134 160.298 330.361C158.032 335.575 159.165 334.011 155.2 338.703C152.856 341.478 149.385 342.697 145.571 342.874C144.024 342.946 141.606 342.874 141.606 342.874V341.831L135.942 362.165L141.606 372.071L146.704 378.929C146.704 378.929 149.561 382 150.669 383.02C155.2 387.191 157.978 389.116 163.696 390.841C167.503 391.989 171.626 391.884 172.759 391.362C173.892 390.841 175.287 388.869 176.158 386.148C177.112 383.165 177.111 381.085 177.291 377.806C177.592 372.301 176.82 368.165 176.158 362.686C175.365 356.132 174.713 353.454 173.892 347.567L173.808 346.965C172.943 340.762 172.365 336.61 171.06 330.361C170.159 326.045 169.533 323.387 168.228 319.412C167.478 317.131 167.095 314.72 167.095 314.72Z" fill="#2286C0"/>
<path d="M157.466 292.3C154.974 287.321 153.538 284.883 150.669 280.309C147.784 275.711 145.366 272.865 141.606 268.838C137.617 264.568 135.406 262.734 130.844 259.454C126.686 256.464 123.986 254.644 118.949 253.197C116.171 252.4 115.061 252.183 112.152 252.154C109.024 252.123 107.729 251.76 104.788 252.676C101.766 253.616 99.9359 255.036 97.4248 256.847C92.0021 260.758 89.5843 263.891 86.0964 269.36C82.4484 275.079 80.9717 278.68 79.2993 285.001C77.3514 292.363 76.6597 296.502 77.6 304.292C78.1664 308.985 79.2993 311.07 81.565 314.198C86.1066 320.469 94.5927 330.361 94.5927 330.361C94.5927 330.361 98.5032 320.76 100.823 320.455C104.788 319.933 116.117 326.19 116.117 326.19L133.109 335.575C133.109 335.575 136.248 337.763 138.207 339.224C139.55 340.226 141.606 341.831 141.606 341.831V342.874C141.606 342.874 144.024 342.946 145.571 342.874C149.385 342.697 152.856 341.478 155.2 338.703C159.165 334.011 158.032 335.575 160.298 330.361C162.135 326.134 163.13 317.848 163.13 317.848V308.463L160.298 297.514C160.298 297.514 158.735 294.838 157.466 292.3Z" fill="#36A6DD"/>
<path d="M235.632 235.47C232.781 233.204 227.702 229.735 227.702 229.735C227.702 229.735 227.322 233.404 227.136 234.428C226.949 235.451 226.855 236.03 226.569 237.034C226.284 238.039 225.666 241.102 224.87 242.77C224.074 244.437 223.684 244.888 222.038 245.898C220.197 247.027 218.586 246.941 216.374 246.941C214.604 246.941 212.46 246.658 210.709 246.419C208.634 246.136 208.103 246.146 206.178 245.376C203.081 244.138 199.947 241.727 199.947 241.727C199.947 241.727 193.593 237.242 190.318 234.949C185.809 231.791 183.267 230.273 179.556 227.128C177.715 225.568 176.158 224 176.158 224C176.158 224 173.827 225.999 172.759 227.65C171.846 229.06 171.13 229.816 171.06 231.821C170.961 234.648 172.993 236.014 174.458 238.599C175.88 241.106 176.574 242.806 177.857 245.376C178.938 247.542 179.135 248.536 180.123 251.112C181.249 254.049 181.967 256.164 182.955 259.454C183.683 261.881 184.22 263.224 184.654 265.71C185.637 271.343 184.088 280.309 184.088 280.309C184.088 280.309 187.01 283.653 189.185 285.523C193.266 289.03 196.101 290.497 201.08 292.822C205.513 294.892 208.136 296.469 212.975 297.514C215.808 298.126 217.456 298.119 220.339 298.036C224.155 297.926 226.943 297.666 230.534 296.471C233.606 295.45 235.313 294.659 237.898 292.822C241.077 290.562 242.406 288.712 244.593 285.665L244.695 285.523C246.223 283.394 247.027 280.64 247.527 278.223C249.793 267.274 247.527 250.069 247.527 250.069C247.527 250.069 247.112 247.134 246.394 245.376C245.604 243.442 242.429 240.684 242.429 240.684C242.429 240.684 241.398 240.01 240.163 239.12C238.312 237.785 237.412 236.885 235.632 235.47Z" fill="#36A6DD"/>
<path d="M273.016 302.207C271.538 309.237 270.75 337.66 270.75 337.66C270.75 337.66 277.491 335.332 282.079 332.968C286.667 330.604 292.16 327.722 296.806 323.062C301.452 318.401 304.616 313.819 307.001 309.506C309.387 305.193 310.948 302.841 312.099 298.036C313.25 293.231 313.018 289.51 312.666 285.001L312.66 284.931C312.311 280.459 312.065 277.31 310.966 273.531C309.862 269.732 308.974 267.284 307.001 264.146C305.029 261.008 303.652 259.319 300.771 256.847C297.89 254.375 293.278 251.676 291.142 251.112C289.005 250.547 288.192 250.594 286.044 250.069C283.895 249.544 277.547 245.376 277.547 245.376C277.547 245.376 279.663 256.134 279.813 263.103C279.964 270.072 278.974 277.44 277.547 284.48C276.121 291.52 274.494 295.176 273.016 302.207Z" fill="#36A6DD"/>
<path d="M347.784 509.715C342.342 497.199 339.325 490.066 331.924 478.432C324.523 466.799 315.41 457.012 305.869 446.107C296.327 435.202 288.693 426.648 280.38 418.995C268.485 408.046 260.555 403.354 258.855 402.311C257.043 401.199 252.058 399.183 252.058 399.183V388.234L258.289 377.285L262.82 365.815L267.352 351.216L270.75 337.66C270.75 337.66 271.538 309.237 273.016 302.207C274.494 295.176 276.121 291.52 277.547 284.48C278.974 277.44 279.964 270.072 279.813 263.103C279.663 256.134 277.547 245.376 277.547 245.376C277.547 245.376 275.301 240.86 272.45 239.641C271.23 239.12 266.619 240.327 262.82 240.684C259.022 241.041 251.886 241.341 249.226 241.205C246.567 241.07 242.429 240.684 242.429 240.684C242.429 240.684 245.604 243.442 246.394 245.376C247.112 247.134 247.527 250.069 247.527 250.069C247.527 250.069 249.793 267.274 247.527 278.223C247.027 280.64 246.223 283.394 244.695 285.523L244.593 285.665C242.406 288.712 241.077 290.562 237.898 292.822C235.313 294.659 233.606 295.45 230.534 296.471C226.943 297.666 224.155 297.926 220.339 298.036C217.456 298.119 215.808 298.126 212.975 297.514C208.136 296.469 205.513 294.892 201.08 292.822C196.101 290.497 193.266 289.03 189.185 285.523C187.01 283.653 184.088 280.309 184.088 280.309C184.088 280.309 181.387 290.426 178.423 296.471C176.02 301.375 174.741 303.911 171.626 308.463C169.926 310.948 167.095 314.72 167.095 314.72C167.095 314.72 167.478 317.131 168.228 319.412C169.533 323.387 170.159 326.045 171.06 330.361C172.365 336.61 172.943 340.762 173.808 346.965L173.892 347.567C174.713 353.454 175.365 356.132 176.158 362.686C176.82 368.165 177.592 372.301 177.291 377.806C177.111 381.085 177.112 383.165 176.158 386.148C175.287 388.869 173.892 390.841 172.759 391.362C171.626 391.884 167.503 391.989 163.696 390.841C157.978 389.116 155.2 387.191 150.669 383.02C149.561 382 146.704 378.929 146.704 378.929L143.305 391.884C143.305 391.884 146.693 394.601 148.969 396.576C152.165 399.348 154.464 400.998 158.032 403.354C160.776 405.165 164.263 407.004 164.263 408.046C164.263 409.695 160.3 414.73 158.032 418.995C154.742 425.184 151.235 435.158 151.235 435.158L137.074 471.654C137.074 471.654 133.894 478.299 131.977 482.603C128.657 490.056 127.054 494.33 124.047 501.894C118.422 516.044 115.915 524.4 111.019 538.912C104.729 557.556 102.371 566.398 97.9912 584.272C94.7172 597.633 90.6277 610.325 90.6277 618.683C90.6277 620.723 94.2479 622.54 97.7576 624.301L97.9912 624.418C110.453 630.675 118.754 632.526 132.543 636.41C146.241 640.268 152.944 641.659 167.095 643.709C183.084 646.026 193.28 645.801 209.01 645.795C222.52 645.789 230.168 645.125 243.562 643.188C262.218 640.489 290.575 632.239 290.575 632.239C290.575 632.239 311.635 626.387 324.561 621.29C337.109 616.341 344.174 613.405 355.714 606.691C361.887 603.1 371.007 596.785 371.007 596.785C371.007 596.785 358.437 534.22 347.784 509.715Z" fill="#F7E9C0"/>
<path d="M270.75 337.66L267.352 351.216L262.82 365.815L258.289 377.285L252.058 388.234V399.183C252.058 399.183 257.043 401.199 258.855 402.311C260.555 403.354 268.485 408.046 280.38 418.995C288.693 426.648 296.327 435.202 305.869 446.107C315.41 457.012 324.523 466.799 331.924 478.432C339.325 490.066 342.342 497.199 347.784 509.715C358.437 534.22 371.007 596.785 371.007 596.785M270.75 337.66C270.75 337.66 271.538 309.237 273.016 302.207C274.494 295.176 276.121 291.52 277.547 284.48C278.974 277.44 279.963 270.072 279.813 263.103C279.663 256.134 277.547 245.376 277.547 245.376M270.75 337.66C270.75 337.66 277.491 335.332 282.079 332.968C286.667 330.604 292.16 327.722 296.806 323.062C301.452 318.401 304.616 313.819 307.001 309.506C309.387 305.193 310.948 302.841 312.099 298.036C313.25 293.231 313.018 289.51 312.666 285.001M277.547 245.376C277.547 245.376 275.301 240.86 272.45 239.641C271.23 239.12 266.619 240.327 262.82 240.684C259.022 241.041 251.886 241.341 249.226 241.205C246.567 241.07 242.429 240.684 242.429 240.684M277.547 245.376C277.547 245.376 283.895 249.544 286.044 250.069C288.192 250.594 289.005 250.547 291.142 251.112C293.278 251.676 297.89 254.375 300.771 256.847C303.652 259.319 305.029 261.008 307.001 264.146C308.974 267.284 309.862 269.732 310.966 273.531C312.065 277.31 312.311 280.459 312.66 284.931M184.088 280.309C184.088 280.309 185.637 271.343 184.654 265.71C184.22 263.224 183.683 261.881 182.955 259.454C181.967 256.164 181.249 254.049 180.123 251.112C179.135 248.536 178.938 247.542 177.857 245.376C176.574 242.806 175.88 241.106 174.458 238.599C172.993 236.014 170.961 234.648 171.06 231.821C171.13 229.816 171.846 229.06 172.759 227.65C173.827 225.999 176.158 224 176.158 224C176.158 224 177.715 225.568 179.556 227.128C183.267 230.273 185.809 231.791 190.318 234.949C193.593 237.242 199.947 241.727 199.947 241.727C199.947 241.727 203.081 244.138 206.178 245.376C208.103 246.146 208.634 246.136 210.709 246.419C212.46 246.658 214.604 246.941 216.374 246.941C218.586 246.941 220.197 247.027 222.038 245.898C223.684 244.888 224.074 244.437 224.87 242.77C225.666 241.102 226.284 238.039 226.569 237.034C226.855 236.03 226.949 235.451 227.136 234.428C227.322 233.404 227.702 229.735 227.702 229.735C227.702 229.735 232.781 233.204 235.632 235.47C237.412 236.885 238.312 237.785 240.163 239.12C241.398 240.01 242.429 240.684 242.429 240.684M184.088 280.309C184.088 280.309 181.387 290.426 178.423 296.471C176.02 301.375 174.741 303.911 171.626 308.463C169.926 310.948 167.095 314.72 167.095 314.72M184.088 280.309C184.088 280.309 187.01 283.653 189.185 285.523C193.266 289.03 196.101 290.497 201.08 292.822C205.513 294.892 208.136 296.469 212.975 297.514C215.808 298.126 217.456 298.119 220.339 298.036C224.155 297.926 226.943 297.666 230.534 296.471C233.606 295.45 235.313 294.659 237.898 292.822C241.077 290.562 242.406 288.712 244.593 285.665M167.095 314.72L163.13 304.292L160.298 297.514M167.095 314.72C167.095 314.72 167.478 317.131 168.228 319.412C169.533 323.387 170.159 326.045 171.06 330.361C172.365 336.61 172.943 340.762 173.808 346.965M160.298 297.514C160.298 297.514 158.735 294.838 157.466 292.3C154.974 287.321 153.538 284.883 150.669 280.309C147.784 275.711 145.366 272.865 141.606 268.838C137.617 264.568 135.406 262.734 130.844 259.454C126.686 256.464 123.986 254.644 118.949 253.197C116.171 252.4 115.061 252.183 112.152 252.154C109.024 252.123 107.729 251.76 104.788 252.676C101.766 253.616 99.9359 255.036 97.4248 256.847C92.0021 260.758 89.5843 263.891 86.0964 269.36C82.4484 275.079 80.9717 278.68 79.2993 285.001C77.3514 292.363 76.6597 296.502 77.6 304.292C78.1664 308.985 79.2993 311.07 81.565 314.198C86.1066 320.469 94.5927 330.361 94.5927 330.361C94.5927 330.361 98.5032 320.76 100.823 320.455C104.788 319.933 116.117 326.19 116.117 326.19L133.109 335.575C133.109 335.575 136.248 337.763 138.207 339.224C139.55 340.226 141.606 341.831 141.606 341.831M160.298 297.514L163.13 308.463V317.848C163.13 317.848 162.135 326.134 160.298 330.361C158.032 335.575 159.165 334.011 155.2 338.703C152.856 341.478 149.385 342.697 145.571 342.874C144.024 342.946 141.606 342.874 141.606 342.874V341.831M173.892 347.567C174.713 353.454 175.365 356.132 176.158 362.686C176.82 368.165 177.592 372.301 177.291 377.806C177.111 381.085 177.112 383.165 176.158 386.148C175.287 388.869 173.892 390.841 172.759 391.362C171.626 391.884 167.503 391.989 163.696 390.841C157.978 389.116 155.2 387.191 150.669 383.02C149.561 382 146.704 378.929 146.704 378.929M173.892 347.567L173.808 346.965M173.892 347.567C173.864 347.364 173.836 347.163 173.808 346.965M141.606 341.831L135.942 362.165L141.606 372.071L146.704 378.929M146.704 378.929L143.305 391.884M143.305 391.884C143.305 391.884 146.693 394.601 148.969 396.576C152.165 399.348 154.464 400.998 158.032 403.354C160.776 405.165 164.263 407.004 164.263 408.046C164.263 409.695 160.3 414.73 158.032 418.995C154.742 425.184 151.235 435.158 151.235 435.158L137.074 471.654C137.074 471.654 133.894 478.299 131.977 482.603C128.657 490.056 127.054 494.33 124.047 501.894C118.422 516.044 115.915 524.4 111.019 538.912C104.729 557.556 102.371 566.398 97.9912 584.272C94.7172 597.633 90.6277 610.325 90.6277 618.683C90.6277 620.723 94.2479 622.54 97.7576 624.301M143.305 391.884C143.305 391.884 137.417 393.966 133.676 395.533C130.118 397.024 123.48 399.183 123.48 399.183L84.3971 422.645C84.3971 422.645 71.6711 431.206 64.0058 437.243C56.396 443.237 45.3139 453.406 45.3139 453.406C45.3139 453.406 40.0542 458.422 36.8175 461.748C24.8043 474.094 18.8907 481.75 9.06277 495.638C5.37687 500.846 0 509.194 0 509.194V663H388C388 663 375.847 614.863 374.406 608.777C372.964 602.69 371.007 596.785 371.007 596.785M312.666 285.001L312.66 284.931M312.666 285.001C312.664 284.978 312.662 284.954 312.66 284.931M244.695 285.523C246.223 283.394 247.027 280.64 247.527 278.223C249.793 267.274 247.527 250.069 247.527 250.069C247.527 250.069 247.112 247.134 246.394 245.376C245.604 243.442 242.429 240.684 242.429 240.684M244.695 285.523L244.593 285.665M244.695 285.523C244.661 285.57 244.627 285.618 244.593 285.665M97.9912 624.418C110.453 630.675 118.754 632.526 132.543 636.41C146.241 640.268 152.944 641.659 167.095 643.709C183.084 646.026 193.28 645.801 209.01 645.795C222.52 645.789 230.168 645.125 243.562 643.188C262.218 640.489 290.575 632.239 290.575 632.239C290.575 632.239 311.635 626.387 324.561 621.29C337.109 616.341 344.174 613.405 355.714 606.691C361.887 603.1 371.007 596.785 371.007 596.785M97.9912 624.418L97.7576 624.301M97.9912 624.418C97.9134 624.379 97.8355 624.34 97.7576 624.301" stroke="#2286C0" stroke-linecap="round"/>
<path d="M57.9663 222.982C12.6571 281.017 28.6756 340.843 90.2065 347L91.3311 341.789L92.4621 336.578L94.1586 330.846L90.2065 326.157L83.9798 319.383L78.8904 313.129L76.6284 304.271V296.976L77.7594 287.075L82.2833 275.09L87.3727 265.711L96.986 256.331L106.599 251.12L116.778 252.014L118.475 252.163L127.522 256.331L136.57 263.105L145.618 272.485L152.404 281.864L155.797 288.117L160.886 298.018L167.107 314.172L172.196 307.398L176.72 298.018L182.375 283.428L184.071 275.09L184.637 267.795L181.809 258.937L178.982 251.12L176.155 243.304L172.762 238.093L170.5 233.925V231.84V229.756L175.024 224.024L176.155 219.334L177.286 207.87L176.155 199.012L175.024 191.196L172.196 183.38H168.238L162.017 181.295L155.797 174.521L151.839 167.747L151.273 163.578L152.404 159.931L156.362 158.889L160.321 160.452H167.107L172.762 158.367L179.548 153.678L188.03 141.693L191.988 135.44L194.25 127.102L197.078 118.765L201.602 112.512C222.271 103.357 242.658 86.129 251.623 62.4879C252.639 59.8073 253.502 57.0286 254.192 54.1506C255.138 46.3045 253.997 40.7598 251.455 36.9548C243.362 24.8397 221.062 30.362 206.691 35.3916L194.25 39.0392C183.506 41.1235 131.481 81.247 146.184 142.735H138.267C133.366 122.413 127.522 80.2048 161.452 48.4187C127.522 51.7536 109.615 82.2892 104.903 96.8795L93.5931 146.904L85.6826 179.211C77.1934 192.759 66.1548 212.494 57.9663 222.982Z" fill="#EBB544"/>
<path d="M251.455 36.9548C253.997 40.7598 255.138 46.3045 254.192 54.1506C253.502 57.0286 252.639 59.8073 251.623 62.4879L252.496 63.009L253.627 63.5301L255.323 64.0512L260.978 66.6566L265.502 70.8253L270.026 75.5151L273.984 80.2048L276.812 83.3313L278.508 86.4578L279.639 89.0632L281.336 93.753L285.86 105.738C311.646 47.7934 268.895 27.5753 251.455 36.9548Z" fill="#EBB544"/>
<path d="M272.853 215.166L269.46 218.813L263.24 222.982L256.454 224.024L242.317 222.982L230.442 219.855L228.18 221.419V229.756L242.317 240.699C250.234 241.046 267.085 241.324 271.157 239.657H272.853L274.55 240.699L277.943 244.867C280.205 246.778 286.538 250.912 293.776 252.163C294.907 246.778 292.306 231.84 272.853 215.166Z" fill="#EBB544"/>
<path d="M132.046 36.4337C138.973 44.4434 161.452 48.4187 161.452 48.4187C127.522 80.2048 133.366 122.413 138.267 142.735H146.184C131.481 81.247 183.506 41.1235 194.25 39.0392L201.602 26.5331C214.269 8.19097 204.995 1 199.34 1C185.499 1 174.835 26.1857 172.762 36.9548H171.065C166.089 26.1163 154.666 20.6275 149.577 19.238C113.838 7.98254 122.433 25.3173 132.046 36.4337Z" fill="black"/>
<path d="M161.452 48.4187C127.522 51.7536 109.615 82.2892 104.903 96.8795L93.5931 146.904L85.6826 179.211C77.1934 192.759 66.1548 212.494 57.9663 222.982C12.6571 281.017 28.6756 340.843 90.2065 347L91.3311 341.789L92.4621 336.578L94.1586 330.846L90.2065 326.157L83.9798 319.383L78.8904 313.13L76.6284 304.271V296.976L77.7594 287.075L82.2833 275.09L87.3727 265.711L96.986 256.331L106.599 251.12L116.778 252.014M161.452 48.4187C161.452 48.4187 138.973 44.4434 132.046 36.4337C122.433 25.3173 113.838 7.98254 149.577 19.238C154.666 20.6275 166.089 26.1163 171.065 36.9548H172.762C174.835 26.1857 185.499 1 199.34 1C204.995 1 214.269 8.19097 201.602 26.5331L194.25 39.0392M161.452 48.4187C127.522 80.2048 133.366 122.413 138.267 142.735H146.184C131.481 81.247 183.506 41.1235 194.25 39.0392M194.25 39.0392L206.691 35.3916C221.062 30.362 243.362 24.8397 251.455 36.9548M156.928 120.328C166.635 121.819 184.302 120.175 201.602 112.512M251.455 36.9548C253.997 40.7598 255.138 46.3045 254.192 54.1506C253.502 57.0286 252.639 59.8073 251.623 62.4879M251.455 36.9548C268.895 27.5753 311.646 47.7934 285.86 105.738L281.336 93.753L279.639 89.0632L278.508 86.4578L276.812 83.3313L273.984 80.2048L270.026 75.5151L265.502 70.8253L260.978 66.6566L255.323 64.0512L253.627 63.5301L252.496 63.009L251.623 62.4879M251.623 62.4879C242.658 86.129 222.271 103.357 201.602 112.512M201.602 112.512L197.078 118.765L194.25 127.102L191.988 135.44L188.03 141.693L179.548 153.678L172.762 158.367L167.107 160.452H160.321L156.362 158.889L152.404 159.931L151.273 163.578L151.839 167.747L155.797 174.521L162.017 181.295L168.238 183.38H172.196L175.024 191.196L176.155 199.012L177.286 207.87L176.155 219.334L175.024 224.024L170.5 229.756V231.84M116.778 252.014L118.475 252.163L127.522 256.331L136.57 263.105L145.618 272.485L152.404 281.864L155.797 288.117L160.886 298.018L167.107 314.172L172.196 307.398L176.72 298.018L182.375 283.428L184.071 275.09L184.637 267.795L181.809 258.937L178.982 251.12L176.155 243.304L172.762 238.093L170.5 233.925V231.84M116.778 252.014C106.788 246.679 90.7656 224.649 106.599 179.211M170.5 231.84C166.73 229.061 156.476 218.605 145.618 199.012M272.853 215.166L269.46 218.813L263.24 222.982L256.454 224.024L242.317 222.982L230.442 219.855L228.18 221.419V229.756L242.317 240.699C250.234 241.046 267.085 241.324 271.157 239.657H272.853L274.55 240.699L277.943 244.867C280.205 246.778 286.538 250.912 293.776 252.163C294.907 246.778 292.306 231.84 272.853 215.166Z" stroke="#CD9733"/>
<path d="M185.374 266.174C185.191 265.967 184.875 265.948 184.668 266.131C184.462 266.315 184.443 266.631 184.626 266.837L185 266.506L185.374 266.174ZM221 254L221.442 253.766L220.984 252.899L220.551 253.779L221 254ZM185 266.506L184.626 266.837C188.267 270.945 193.768 275.384 200.291 274.92C206.842 274.454 214.146 269.07 221.449 254.221L221 254L220.551 253.779C213.292 268.542 206.218 273.496 200.22 273.922C194.192 274.351 188.975 270.236 185.374 266.174L185 266.506ZM221 254L220.558 254.234C223.231 259.294 228.649 265.785 234.28 268.797C237.1 270.305 240.05 270.981 242.755 270.061C245.47 269.139 247.795 266.659 249.468 262.179L249 262.004L248.532 261.829C246.917 266.152 244.758 268.324 242.433 269.115C240.097 269.908 237.449 269.358 234.751 267.915C229.347 265.025 224.053 258.71 221.442 253.766L221 254Z" fill="#2286C0"/>
<path d="M136.82 414.796C140.549 419.904 141.881 422.896 145.89 427.822C147.827 430.201 149 431.473 150.992 433.813C152.984 436.153 154.097 437.468 156.094 439.805C162.031 446.752 165.049 450.889 171.399 457.52C177.089 463.461 180.232 466.889 186.705 472.109C190.733 475.357 189.539 474.714 193.507 477.84C194.412 478.553 196.341 479.924 197.475 480.445C198.609 480.966 203.711 480.966 207.112 480.966C213.31 480.966 216.813 480.429 222.984 480.966C226.101 481.237 227.865 481.902 230.92 482.529C235.978 483.567 238.573 484.422 243.391 486.176C248.094 487.888 251.087 488.287 255.295 490.865C262.098 495.034 266.073 498.898 271.168 505.454C273.057 507.885 275.363 512.644 269.467 512.227C265.82 511.349 263.8 509.3 260.964 507.017C259.429 505.781 258.64 505.003 256.996 503.891C255.314 502.753 252.461 501.286 252.461 501.286L255.579 504.933L258.697 508.58L259.055 508.968C261.255 511.352 262.183 512.357 263.798 514.832C265.492 517.426 267.026 519.926 267.767 522.648C268.333 524.732 267.346 530.015 263.232 526.295C261.391 524.631 259.655 522.999 258.13 521.085C256.555 519.108 256.112 518.587 254.162 516.917L251.894 514.832C253.178 516.563 253.916 518.221 254.729 520.564C255.295 523.516 254.986 528.541 249.06 525.253C247.452 524.361 246.481 523.289 245.092 522.127C243.813 521.057 242.942 520.618 241.691 519.522C241.237 519.125 239.924 518.304 239.423 517.959C237.839 516.867 242.599 520.98 243.391 522.648C243.868 523.652 244.308 524.176 244.525 525.253C244.727 526.253 244.897 526.9 244.525 527.858C244.257 528.549 244.021 528.971 243.391 529.421C242.168 530.296 240.795 530.083 239.423 529.421C238.01 528.739 236.732 527.175 235.455 526.295C233.188 524.732 232.288 524.128 229.22 522.648C226.764 521.463 225.494 520.607 222.984 519.522C219.561 518.041 217.533 517.408 213.914 516.396C210.216 515.36 208.034 515.153 204.278 514.311C201.617 513.715 200.076 513.535 197.475 512.748C194.742 511.921 193.077 511.597 190.673 510.143C188.057 508.562 187.218 506.968 185.004 504.933L178.769 499.202C177.219 497.777 175.902 496.34 174.234 495.034C171.429 492.837 169.417 492.147 166.297 490.344C162.344 488.06 159.956 487.026 156.094 484.613C150.747 481.272 148.08 478.976 143.056 475.235C141.053 473.743 139.946 472.887 137.954 471.383C127.549 463.527 121.056 459.808 111.311 451.268C104.057 444.91 100.058 441.224 93.7385 434.074C89.2437 428.988 86.3179 426.311 82.9681 420.527C81.1513 417.391 79 412.191 79 412.191V401.249L82.9681 382.493L89.7705 351.231C89.7705 351.231 91.4419 337.491 94.3054 330.911C95.4391 328.306 97.7066 324.659 97.7066 324.659L100.541 321.012L104.509 321.533L109.044 323.096L115.846 326.222L131.719 334.558L137.954 338.727L140.788 341.853C140.788 341.853 139.162 347.462 137.954 351.231C136.678 355.212 135.938 358.866 134.553 363.736C132.215 371.959 126.846 383.316 124.349 390.829C122.61 396.064 123.216 398.644 123.216 399.165C123.216 399.686 125.483 401.77 126.05 402.291C128.317 404.376 129.656 405.993 131.719 408.544C133.623 410.899 135.042 412.359 136.82 414.796Z" fill="#F9C58B"/>
<path d="M297.81 323.096L290.441 329.348L279.671 335.079L270.601 338.206L266.633 354.878L277.403 375.198C277.403 375.198 284.045 389.669 289.874 398.123C293.69 403.658 296.139 406.593 300.645 411.67C306.189 417.917 309.264 421.561 315.95 426.78C318.718 428.94 320.493 429.895 323.319 431.99C326.254 434.165 327.843 435.449 330.689 437.721C335.658 441.688 338.256 444.106 343.16 448.142C348.652 452.661 351.704 455.227 357.331 459.604C362.135 463.34 364.906 465.349 369.803 468.982C373.111 471.438 374.305 473.908 378.306 475.235C389.967 479.101 384.012 456.173 378.306 446.057C376.267 442.445 374.215 440.938 371.503 437.721C367.839 433.376 365.485 431.157 361.866 426.78C357.927 422.015 356.097 419.089 352.23 414.275C346.89 407.628 343.445 404.217 338.058 397.602C334.449 393.171 332.509 390.63 328.988 386.14C325.648 381.88 323.506 379.655 320.485 375.198C318.336 372.028 317.202 370.202 315.383 366.862C312.495 361.557 311.28 358.394 309.148 352.794C307.089 347.386 306.639 344.145 304.613 338.727C302.288 332.509 297.81 323.096 297.81 323.096Z" fill="#F9C58B"/>
<path d="M175.934 224.102C175.367 224.102 175.934 219.933 176.501 216.807C177.702 210.184 177.064 206.308 176.501 199.613C176.209 196.141 176.121 194.169 175.367 190.756C174.651 187.508 172.857 182.748 172.571 181.999C171.608 182.009 170.557 181.989 169.699 181.899C167.671 181.686 166.47 181.603 164.597 180.857C161.996 179.821 160.895 178.566 158.928 176.688C156.84 174.695 155.756 173.425 154.393 170.957C153.126 168.662 152.126 165.226 152.126 165.226C152.126 165.226 151.827 163.497 152.126 162.1C152.45 160.579 153.228 159.917 154.393 159.495C156.092 158.88 157.144 159.661 158.928 160.016C161.561 160.538 163.039 160.627 165.731 160.537C168.952 160.429 170.784 159.257 173.667 157.932C175.556 157.063 178.984 154.776 179.902 153.763C182.737 150.637 185.76 145.601 188.405 142.301C192.356 137.373 192.258 133.428 194.641 127.712C196.671 122.842 196.433 119.444 199.743 115.208C201.783 112.596 204.64 111.722 207.112 110.519C209.932 109.145 212.422 107.511 215.615 105.308C224.525 99.16 230.04 94.9523 237.156 87.0725C241.744 81.9919 243.888 79.3065 247.359 73.5259C249.848 69.3825 250.761 64.6685 252.461 63.1054C253.028 62.5844 256.464 64.1081 258.697 65.1895C261.743 66.665 263.163 68.0745 265.499 70.3998C268.057 72.9452 269.396 74.455 271.735 77.1731C274.289 80.1419 276.055 81.6378 277.97 84.9884C279.826 88.2357 279.848 90.4553 281.371 93.8458C282.392 96.1183 283.303 98.8257 284.206 101.14C285.057 103.324 284.921 104.584 285.339 106.871C286.037 110.684 285.906 111.863 285.906 115.729C285.906 119.595 286.412 121.269 285.906 125.107C285.525 127.999 284.156 129.489 284.206 132.401C284.252 135.116 284.397 136.466 284.206 139.175C284.056 141.295 284.423 142.27 284.206 144.385C284.102 145.398 284.097 145.978 284.206 146.99C284.625 150.885 287.775 152.196 289.307 155.848C290.467 158.612 291.012 160.225 291.575 163.142C292.192 166.337 292.174 168.197 292.142 171.427L292.142 171.478C292.11 174.74 291.672 175.983 291.008 178.773C290.076 182.688 288.742 184.461 287.04 188.151C284.441 193.787 283.639 197.008 280.804 201.698C279.276 204.226 277.378 206.023 275.703 208.471C274.385 210.397 274.237 211.785 272.868 213.681C271.222 215.962 270.008 217.089 267.767 218.891C265.733 220.527 263.798 221.496 262.098 222.017C259.409 222.841 257.259 222.646 254.162 222.538C249.495 222.376 246.865 222.195 242.258 221.496C237.542 220.781 230.353 218.891 230.353 218.891C230.353 218.891 229.211 219.409 228.653 219.933C227.225 221.274 227.711 222.755 227.519 224.623C227.373 226.041 227.519 226.845 227.519 228.27C227.519 230.711 226.952 233.48 226.952 233.48L226.385 237.127C226.385 237.127 225.818 241.295 224.118 243.9C221.612 247.739 216.182 247.027 211.08 246.506C204.363 245.82 201.889 243.28 196.341 239.732C179.335 227.749 176.501 224.102 175.934 224.102Z" fill="#F9C58B"/>
<path d="M258.697 508.58L255.579 504.933L252.461 501.286C252.461 501.286 255.314 502.753 256.996 503.891C258.64 505.003 259.429 505.781 260.964 507.017C263.8 509.3 265.82 511.349 269.467 512.227C275.363 512.644 273.057 507.885 271.168 505.454C266.073 498.898 262.098 495.034 255.295 490.865C251.087 488.287 248.094 487.888 243.391 486.176C238.573 484.422 235.978 483.567 230.92 482.529C227.865 481.902 226.101 481.237 222.984 480.966C216.813 480.429 213.31 480.966 207.112 480.966C203.711 480.966 198.609 480.966 197.475 480.445C196.341 479.924 194.412 478.553 193.507 477.84C189.539 474.714 190.733 475.357 186.705 472.109C180.232 466.889 177.089 463.461 171.399 457.52C165.049 450.889 162.031 446.752 156.094 439.805C154.097 437.468 152.984 436.153 150.992 433.813C149 431.473 147.827 430.201 145.89 427.822C141.881 422.896 140.549 419.904 136.82 414.796C135.042 412.359 133.623 410.899 131.719 408.544C129.656 405.993 128.317 404.376 126.05 402.291C125.483 401.77 123.216 399.686 123.216 399.165C123.216 398.644 122.61 396.064 124.349 390.829C126.846 383.316 132.215 371.959 134.553 363.736C135.938 358.866 136.678 355.212 137.954 351.231C139.162 347.462 140.788 341.853 140.788 341.853L137.954 338.727L131.719 334.558L115.846 326.222L109.044 323.096L104.509 321.533L100.541 321.012L97.7066 324.659C97.7066 324.659 95.4391 328.306 94.3054 330.911C91.4419 337.491 89.7705 351.231 89.7705 351.231L82.9681 382.493L79 401.249V412.191C79 412.191 81.1513 417.391 82.9681 420.527C86.3179 426.311 89.2437 428.988 93.7385 434.074C100.058 441.224 104.057 444.91 111.311 451.268C121.056 459.808 127.549 463.527 137.954 471.383C139.946 472.887 141.053 473.743 143.056 475.235C148.08 478.976 150.747 481.272 156.094 484.613C159.956 487.026 162.344 488.06 166.297 490.344C169.417 492.147 171.429 492.837 174.234 495.034C175.902 496.34 177.219 497.777 178.769 499.202M258.697 508.58L259.055 508.968M258.697 508.58C258.82 508.714 258.939 508.843 259.055 508.968M185.004 504.933C187.218 506.968 188.057 508.562 190.673 510.143C193.077 511.597 194.742 511.921 197.475 512.748C200.076 513.535 201.617 513.715 204.278 514.311C208.034 515.153 210.216 515.36 213.914 516.396C217.533 517.408 219.561 518.041 222.984 519.522C225.494 520.607 226.764 521.463 229.22 522.648C232.288 524.128 233.188 524.732 235.455 526.295C236.732 527.175 238.01 528.739 239.423 529.421C240.795 530.083 242.168 530.296 243.391 529.421C244.021 528.971 244.257 528.549 244.525 527.858C244.897 526.9 244.727 526.253 244.525 525.253C244.308 524.176 243.868 523.652 243.391 522.648C242.599 520.98 237.839 516.867 239.423 517.959C239.924 518.304 241.237 519.125 241.691 519.522C242.942 520.618 243.813 521.057 245.092 522.127C246.481 523.289 247.452 524.361 249.06 525.253C254.986 528.541 255.295 523.516 254.729 520.564C253.916 518.221 253.178 516.563 251.894 514.832L254.162 516.917C256.112 518.587 256.555 519.108 258.13 521.085C259.655 522.999 261.391 524.631 263.232 526.295C267.346 530.015 268.333 524.732 267.767 522.648C267.026 519.926 265.492 517.426 263.798 514.832C262.183 512.357 261.255 511.352 259.055 508.968M185.004 504.933C182.348 502.491 181.425 501.643 178.769 499.202M185.004 504.933L178.769 499.202M172.533 181.899C172.533 181.899 172.546 181.933 172.571 181.999M175.367 181.899C175.367 181.899 174.077 181.985 172.571 181.999M292.142 171.478C292.11 174.74 291.672 175.983 291.008 178.773C290.076 182.688 288.742 184.461 287.04 188.151C284.441 193.787 283.639 197.008 280.804 201.698C279.276 204.226 277.378 206.023 275.703 208.471C274.385 210.397 274.237 211.785 272.868 213.681C271.222 215.962 270.008 217.089 267.767 218.891C265.733 220.527 263.798 221.496 262.098 222.017C259.409 222.841 257.259 222.646 254.162 222.538C249.495 222.376 246.865 222.195 242.258 221.496C237.542 220.781 230.353 218.891 230.353 218.891M292.142 171.478L292.142 171.427M292.142 171.478C292.142 171.461 292.142 171.444 292.142 171.427M230.353 218.891C230.353 218.891 222.93 216.013 218.449 213.681C211.821 210.231 202.577 203.261 202.577 203.261M230.353 218.891C230.353 218.891 229.211 219.409 228.653 219.933C227.225 221.274 227.711 222.755 227.519 224.623C227.373 226.041 227.519 226.845 227.519 228.27C227.519 230.711 226.952 233.48 226.952 233.48L226.385 237.127C226.385 237.127 225.818 241.295 224.118 243.9C221.612 247.739 216.182 247.027 211.08 246.506C204.363 245.82 201.889 243.28 196.341 239.732C179.335 227.749 176.501 224.102 175.934 224.102C175.367 224.102 175.934 219.933 176.501 216.807C177.702 210.184 177.064 206.308 176.501 199.613C176.209 196.141 176.121 194.169 175.367 190.756C174.651 187.508 172.857 182.748 172.571 181.999M172.571 181.999C171.608 182.009 170.557 181.989 169.699 181.899C167.671 181.686 166.47 181.603 164.597 180.857C161.996 179.821 160.895 178.566 158.928 176.688C156.84 174.695 155.756 173.425 154.393 170.957C153.126 168.662 152.126 165.226 152.126 165.226C152.126 165.226 151.827 163.497 152.126 162.1C152.45 160.579 153.228 159.917 154.393 159.495C156.092 158.88 157.144 159.661 158.928 160.016C161.561 160.538 163.039 160.627 165.731 160.537C168.952 160.429 170.784 159.257 173.667 157.932C175.556 157.063 178.984 154.776 179.902 153.763C182.737 150.637 185.76 145.601 188.405 142.301C192.356 137.373 192.258 133.428 194.641 127.712C196.671 122.842 196.433 119.444 199.743 115.208C201.783 112.596 204.64 111.722 207.112 110.519C209.932 109.145 212.422 107.511 215.615 105.308C224.525 99.16 230.04 94.9523 237.156 87.0725C241.744 81.9919 243.888 79.3065 247.359 73.5259C249.848 69.3825 250.761 64.6685 252.461 63.1054C253.028 62.5844 256.464 64.1081 258.697 65.1895C261.743 66.665 263.163 68.0745 265.499 70.3998C268.057 72.9452 269.396 74.455 271.735 77.1731C274.289 80.1419 276.055 81.6378 277.97 84.9884C279.826 88.2357 279.848 90.4553 281.371 93.8458C282.392 96.1183 283.303 98.8257 284.206 101.14C285.057 103.324 284.921 104.584 285.339 106.871C286.037 110.684 285.906 111.863 285.906 115.729C285.906 119.595 286.412 121.269 285.906 125.107C285.525 127.999 284.156 129.489 284.206 132.401C284.252 135.116 284.397 136.466 284.206 139.175C284.056 141.295 284.423 142.27 284.206 144.385C284.102 145.398 284.097 145.978 284.206 146.99C284.625 150.885 287.775 152.196 289.307 155.848C290.467 158.612 291.012 160.225 291.575 163.142C292.192 166.337 292.174 168.197 292.142 171.427M297.81 323.096L290.441 329.348L279.671 335.079L270.601 338.206L266.633 354.878L277.403 375.198C277.403 375.198 284.045 389.669 289.874 398.123C293.69 403.658 296.139 406.593 300.645 411.67C306.189 417.917 309.264 421.561 315.95 426.78C318.718 428.94 320.493 429.895 323.319 431.99C326.254 434.165 327.843 435.449 330.689 437.721C335.658 441.688 338.256 444.106 343.16 448.142C348.652 452.661 351.704 455.227 357.331 459.604C362.135 463.34 364.906 465.349 369.803 468.982C373.111 471.438 374.305 473.908 378.306 475.235C389.967 479.101 384.012 456.173 378.306 446.057C376.267 442.445 374.215 440.938 371.503 437.721C367.839 433.376 365.485 431.157 361.866 426.78C357.927 422.015 356.097 419.089 352.23 414.275C346.89 407.628 343.445 404.217 338.058 397.602C334.449 393.171 332.509 390.63 328.988 386.14C325.648 381.88 323.506 379.655 320.485 375.198C318.336 372.028 317.202 370.202 315.383 366.862C312.495 361.557 311.28 358.394 309.148 352.794C307.089 347.386 306.639 344.145 304.613 338.727C302.288 332.509 297.81 323.096 297.81 323.096Z" stroke="#D9A161" stroke-linecap="round"/>
<path d="M269.769 185.01C268.362 185.145 267.954 187.419 266.567 187.676C265.4 187.892 264.364 187.17 263.175 187.143C262.265 187.121 262.273 187.256 261.479 187.676C260.663 188.108 260.446 188.651 259.784 189.275C259.121 189.9 258.335 190.426 257.528 190.875C256.371 191.517 253 191.941 253 191.941C253 191.941 256.996 193.648 259.224 194.073C261.398 194.489 262.722 194.037 264.877 193.54C266.709 193.118 267.604 192.487 269.399 191.941C270.71 191.542 272.785 191.408 272.785 191.408C272.785 191.408 274.378 189.281 273.916 187.973C273.572 186.999 272.785 186.374 272.22 185.841C271.62 185.481 270.727 184.918 269.769 185.01Z" fill="#CF7143"/>
<path d="M256.392 197.037C257.708 198.869 259.091 199.909 260.914 200.769C262.045 201.302 262.411 201.449 263.881 201.746C265.836 202.142 268.823 202.132 269.959 201.302C270.703 200.757 271.266 200.322 271.66 199.405C272.22 198.103 272.785 193.718 272.785 191.408C272.785 191.408 270.71 191.542 269.399 191.941C267.604 192.487 266.709 193.118 264.877 193.54C262.722 194.037 261.398 194.489 259.224 194.073C256.996 193.648 253 191.941 253 191.941C253 191.941 254.69 194.668 256.392 197.037Z" fill="#CF7143"/>
<path d="M272.785 191.408C272.785 193.718 272.22 198.103 271.66 199.405C271.266 200.322 270.703 200.757 269.959 201.302C268.823 202.132 265.836 202.142 263.881 201.746C262.411 201.449 262.045 201.302 260.914 200.769C259.091 199.909 257.708 198.869 256.392 197.037C254.69 194.668 253 191.941 253 191.941M272.785 191.408C272.785 191.408 270.71 191.542 269.399 191.941C267.604 192.487 266.709 193.118 264.877 193.54C262.722 194.037 261.398 194.489 259.224 194.073C256.996 193.648 253 191.941 253 191.941M272.785 191.408C272.785 191.408 274.378 189.281 273.916 187.973C273.572 186.999 272.785 186.374 272.22 185.841C271.62 185.481 270.727 184.918 269.769 185.01C268.362 185.145 267.954 187.419 266.567 187.676C265.4 187.892 264.364 187.17 263.175 187.143C262.265 187.121 262.273 187.256 261.479 187.676C260.663 188.108 260.446 188.651 259.784 189.275C259.121 189.9 258.335 190.426 257.528 190.875C256.371 191.517 253 191.941 253 191.941" stroke="#B25726" stroke-linecap="round"/>
<path d="M272 151C273.749 152.342 275.582 153.962 277.441 155.222C282.39 158.577 286.193 161.943 279.073 170" stroke="#BE7835" stroke-linecap="round"/>
<path d="M271 171H274V172" stroke="#BE7835" stroke-linecap="round"/>
<path d="M245 108.116C238.661 107.41 223.186 109.598 212 124" stroke="#A2611E" stroke-width="2" stroke-linecap="round"/>
<path d="M272.606 134.766C274.979 132.592 275.336 130.736 278.447 129.526C279.109 129.268 279.479 128.974 280.2 129.002C281.34 129.046 282.027 129.659 282.537 130.574C283.121 131.622 283.861 133.712 284.289 135.813C284.987 139.235 285.458 141.577 284.289 144.721C283.779 146.094 281.955 147.209 281.368 147.341C279.034 147.865 276.762 148.516 274.359 147.341C272.943 146.648 272.159 146.015 271.438 144.721C270.854 143.673 270.854 139.481 271.438 136.861C271.627 136.01 271.929 135.386 272.606 134.766Z" fill="#F9E9CD"/>
<path d="M222.338 152.243C222.338 152.243 219.572 150.294 220.057 148.604C220.376 147.494 221.095 146.815 221.767 146.006C224.162 143.126 225.18 141.519 228.039 139.248C230.46 137.326 232.598 135.61 234.879 135.09C234.879 135.09 236.853 134.887 238.3 135.09C239.747 135.293 240.579 135.61 240.579 135.61C240.579 135.61 242.498 136.375 242.859 137.689C243.429 139.768 244 142.095 244 144.966V150.164C244 151.203 243.461 153.759 242.29 155.362C241.417 156.556 239.44 157.96 239.44 157.96C239.44 157.96 237.157 159 235.448 159C234.094 159 232.157 158.913 230.889 158.48C229.386 157.967 228.756 157.275 227.469 156.401C225.318 154.942 222.338 152.243 222.338 152.243Z" fill="#D9D9D9"/>
<path d="M222.338 152.243C222.338 152.243 219.572 150.294 220.057 148.604C220.376 147.494 221.095 146.815 221.767 146.006C224.162 143.126 225.18 141.519 228.039 139.248C230.46 137.326 232.598 135.61 234.879 135.09C234.879 135.09 236.853 134.887 238.3 135.09C239.747 135.293 240.579 135.61 240.579 135.61C240.579 135.61 242.498 136.375 242.859 137.689C243.429 139.768 244 142.095 244 144.966V150.164C244 151.203 243.461 153.759 242.29 155.362C241.417 156.556 239.44 157.96 239.44 157.96C239.44 157.96 237.157 159 235.448 159C234.094 159 232.157 158.913 230.889 158.48C229.386 157.967 228.756 157.275 227.469 156.401C225.318 154.942 222.338 152.243 222.338 152.243Z" fill="#F9E9CD"/>
<path d="M237 140.5C238.177 140.5 239.291 141.167 240.129 142.341C240.966 143.513 241.5 145.159 241.5 147C241.5 148.841 240.966 150.487 240.129 151.659C239.291 152.833 238.177 153.5 237 153.5C235.823 153.5 234.709 152.833 233.871 151.659C233.034 150.487 232.5 148.841 232.5 147C232.5 145.159 233.034 143.513 233.871 142.341C234.709 141.167 235.823 140.5 237 140.5Z" fill="#25759F" stroke="#23237A"/>
<path d="M280 133.5C280.885 133.5 281.748 134.039 282.412 135.035C283.074 136.028 283.5 137.428 283.5 139C283.5 140.572 283.074 141.972 282.412 142.965C281.748 143.961 280.885 144.5 280 144.5C279.115 144.5 278.252 143.961 277.588 142.965C276.926 141.972 276.5 140.572 276.5 139C276.5 137.428 276.926 136.028 277.588 135.035C278.252 134.039 279.115 133.5 280 133.5Z" fill="#25759F" stroke="#23237A"/>
<path d="M220 148C223.81 141.829 233.486 130.72 241.714 135.657L244 130" stroke="black" stroke-width="2" stroke-linecap="round"/>
<path d="M270.286 137.359C272.444 133.796 277.58 126.657 282.878 129.136L284.105 125.909" stroke="black" stroke-width="2" stroke-linecap="round"/>
<path d="M274.236 103.354C273.88 103.776 273.933 104.407 274.354 104.764C274.776 105.12 275.407 105.067 275.764 104.646L275 104L274.236 103.354ZM275 104L275.764 104.646C276.489 103.787 277.937 102.672 279.564 102.212C281.126 101.77 282.798 101.933 284.271 103.502L285 102.817L285.729 102.132C283.646 99.9152 281.151 99.6843 279.019 100.287C276.952 100.872 275.177 102.241 274.236 103.354L275 104Z" fill="#A2611E"/>
<path d="M295.865 310.503C296.142 310.025 295.98 309.413 295.503 309.135C295.025 308.858 294.413 309.02 294.135 309.497L295 310L295.865 310.503ZM271 330L271.462 330.887C274.465 329.324 279.262 326.448 283.946 322.872C288.612 319.309 293.26 314.983 295.865 310.503L295 310L294.135 309.497C291.731 313.633 287.336 317.767 282.732 321.282C278.147 324.783 273.448 327.599 270.538 329.113L271 330Z" fill="#2286C0"/>
</svg>
