<svg width="142" height="119" viewBox="0 0 142 119" fill="none" xmlns="http://www.w3.org/2000/svg">
<path d="M72 1.5C104.321 1.5 130.5 27.4793 130.5 59.5C130.5 91.5207 104.321 117.5 72 117.5C39.6795 117.5 13.5 91.5207 13.5 59.5C13.5 27.4793 39.6795 1.5 72 1.5Z" fill="url(#paint0_radial_330_16)" stroke="#25759F" stroke-width="3"/>
<mask id="path-2-outside-1_330_16" maskUnits="userSpaceOnUse" x="48" y="24" width="45" height="63" fill="black">
<rect fill="white" x="48" y="24" width="45" height="63"/>
<path d="M52.0741 84V76.88C52.0741 73.8933 52.4474 71.36 53.1941 69.28C53.9407 67.1467 55.1674 65.2533 56.8741 63.6C58.5807 61.8933 60.7941 60.2133 63.5141 58.56L71.1941 53.84C74.3407 51.92 76.6074 50.1333 77.9941 48.48C79.4341 46.8267 80.1541 44.9067 80.1541 42.72C80.1541 40.3733 79.3541 38.5067 77.7541 37.12C76.1541 35.7333 73.8074 35.04 70.7141 35.04C68.4741 35.04 66.3407 35.2533 64.3141 35.68C62.3407 36.1067 60.1541 36.72 57.7541 37.52L54.2341 38.72L51.9941 32.88L55.3541 31.28C58.2874 29.8933 61.1674 28.88 63.9941 28.24C66.8207 27.5467 69.5674 27.2 72.2341 27.2C75.7007 27.2 78.6607 27.7867 81.1141 28.96C83.6207 30.1333 85.5407 31.84 86.8741 34.08C88.2607 36.32 88.9541 39.0667 88.9541 42.32C88.9541 44.8267 88.4474 47.12 87.4341 49.2C86.4741 51.28 85.0607 53.2 83.1941 54.96C81.3274 56.72 79.0607 58.4 76.3941 60L67.9941 65.04C65.5407 66.48 63.6741 67.9733 62.3941 69.52C61.1674 71.0667 60.5541 73.2267 60.5541 76V78.08L59.5141 76H89.8341V84H52.0741Z"/>
</mask>
<path d="M52.0741 84V76.88C52.0741 73.8933 52.4474 71.36 53.1941 69.28C53.9407 67.1467 55.1674 65.2533 56.8741 63.6C58.5807 61.8933 60.7941 60.2133 63.5141 58.56L71.1941 53.84C74.3407 51.92 76.6074 50.1333 77.9941 48.48C79.4341 46.8267 80.1541 44.9067 80.1541 42.72C80.1541 40.3733 79.3541 38.5067 77.7541 37.12C76.1541 35.7333 73.8074 35.04 70.7141 35.04C68.4741 35.04 66.3407 35.2533 64.3141 35.68C62.3407 36.1067 60.1541 36.72 57.7541 37.52L54.2341 38.72L51.9941 32.88L55.3541 31.28C58.2874 29.8933 61.1674 28.88 63.9941 28.24C66.8207 27.5467 69.5674 27.2 72.2341 27.2C75.7007 27.2 78.6607 27.7867 81.1141 28.96C83.6207 30.1333 85.5407 31.84 86.8741 34.08C88.2607 36.32 88.9541 39.0667 88.9541 42.32C88.9541 44.8267 88.4474 47.12 87.4341 49.2C86.4741 51.28 85.0607 53.2 83.1941 54.96C81.3274 56.72 79.0607 58.4 76.3941 60L67.9941 65.04C65.5407 66.48 63.6741 67.9733 62.3941 69.52C61.1674 71.0667 60.5541 73.2267 60.5541 76V78.08L59.5141 76H89.8341V84H52.0741Z" fill="white"/>
<path d="M52.0741 84H49.0741V87H52.0741V84ZM53.1941 69.28L56.0176 70.2936L56.0217 70.2823L56.0256 70.271L53.1941 69.28ZM56.8741 63.6L58.9614 65.7547L58.9785 65.7382L58.9954 65.7213L56.8741 63.6ZM63.5141 58.56L65.0723 61.1236L65.0786 61.1197L65.0849 61.1159L63.5141 58.56ZM71.1941 53.84L69.6315 51.2791L69.6233 51.2841L71.1941 53.84ZM77.9941 48.48L75.7318 46.5097L75.7135 46.5307L75.6955 46.5522L77.9941 48.48ZM64.3141 35.68L63.696 32.7443L63.688 32.746L63.6801 32.7478L64.3141 35.68ZM57.7541 37.52L56.8054 34.6739L56.7957 34.6772L56.786 34.6805L57.7541 37.52ZM54.2341 38.72L51.433 39.7944L52.4676 42.4917L55.2021 41.5595L54.2341 38.72ZM51.9941 32.88L50.7043 30.1714L48.1995 31.3641L49.193 33.9544L51.9941 32.88ZM55.3541 31.28L54.0719 28.5678L54.0643 28.5714L55.3541 31.28ZM63.9941 28.24L64.6565 31.1659L64.6827 31.16L64.7087 31.1536L63.9941 28.24ZM81.1141 28.96L79.8197 31.6664L79.8309 31.6718L79.8422 31.6771L81.1141 28.96ZM86.8741 34.08L84.2962 35.6145L84.3095 35.6369L84.3233 35.6591L86.8741 34.08ZM87.4341 49.2L84.7371 47.8861L84.7233 47.9143L84.7102 47.9428L87.4341 49.2ZM83.1941 54.96L85.2521 57.1428L83.1941 54.96ZM76.3941 60L74.8506 57.4275L76.3941 60ZM67.9941 65.04L69.5127 67.6272L69.5251 67.6199L69.5376 67.6125L67.9941 65.04ZM62.3941 69.52L60.0829 67.6073L60.063 67.6314L60.0436 67.6558L62.3941 69.52ZM60.5541 78.08L57.8708 79.4216L63.5541 78.08H60.5541ZM59.5141 76V73H54.66L56.8308 77.3416L59.5141 76ZM89.8341 76H92.8341V73H89.8341V76ZM89.8341 84V87H92.8341V84H89.8341ZM52.0741 84H55.0741V76.88H52.0741H49.0741V84H52.0741ZM52.0741 76.88H55.0741C55.0741 74.1254 55.4207 71.9565 56.0176 70.2936L53.1941 69.28L50.3705 68.2664C49.4741 70.7635 49.0741 73.6613 49.0741 76.88H52.0741ZM53.1941 69.28L56.0256 70.271C56.6102 68.6009 57.5723 67.1005 58.9614 65.7547L56.8741 63.6L54.7867 61.4453C52.7625 63.4062 51.2713 65.6925 50.3625 68.2889L53.1941 69.28ZM56.8741 63.6L58.9954 65.7213C60.4889 64.2279 62.4962 62.6894 65.0723 61.1236L63.5141 58.56L61.9558 55.9964C59.0919 57.7372 56.6726 59.5588 54.7527 61.4787L56.8741 63.6ZM63.5141 58.56L65.0849 61.1159L72.7649 56.3959L71.1941 53.84L69.6233 51.2841L61.9433 56.0041L63.5141 58.56ZM71.1941 53.84L72.7567 56.4009C76.0138 54.4135 78.5996 52.4264 80.2926 50.4078L77.9941 48.48L75.6955 46.5522C74.6152 47.8403 72.6677 49.4265 69.6315 51.2791L71.1941 53.84ZM77.9941 48.48L80.2563 50.4503C82.1706 48.2524 83.1541 45.6331 83.1541 42.72H80.1541H77.1541C77.1541 44.1802 76.6975 45.4009 75.7318 46.5097L77.9941 48.48ZM80.1541 42.72H83.1541C83.1541 39.6091 82.0523 36.8752 79.7189 34.8529L77.7541 37.12L75.7893 39.3871C76.6558 40.1381 77.1541 41.1376 77.1541 42.72H80.1541ZM77.7541 37.12L79.7189 34.8529C77.3696 32.8169 74.2037 32.04 70.7141 32.04V35.04V38.04C73.4111 38.04 74.9386 38.6498 75.7893 39.3871L77.7541 37.12ZM70.7141 35.04V32.04C68.2831 32.04 65.9417 32.2716 63.696 32.7443L64.3141 35.68L64.9321 38.6156C66.7398 38.2351 68.665 38.04 70.7141 38.04V35.04ZM64.3141 35.68L63.6801 32.7478C61.5777 33.2023 59.2841 33.8477 56.8054 34.6739L57.7541 37.52L58.7027 40.366C61.024 39.5923 63.1037 39.011 64.9481 38.6122L64.3141 35.68ZM57.7541 37.52L56.786 34.6805L53.266 35.8805L54.2341 38.72L55.2021 41.5595L58.7221 40.3595L57.7541 37.52ZM54.2341 38.72L57.0351 37.6456L54.7951 31.8056L51.9941 32.88L49.193 33.9544L51.433 39.7944L54.2341 38.72ZM51.9941 32.88L53.2839 35.5886L56.6439 33.9886L55.3541 31.28L54.0643 28.5714L50.7043 30.1714L51.9941 32.88ZM55.3541 31.28L56.6362 33.9922C59.3946 32.6882 62.0672 31.7522 64.6565 31.1659L63.9941 28.24L63.3316 25.3141C60.2675 26.0078 57.1802 27.0984 54.0719 28.5678L55.3541 31.28ZM63.9941 28.24L64.7087 31.1536C67.3226 30.5125 69.829 30.2 72.2341 30.2V27.2V24.2C69.3058 24.2 66.3188 24.5808 63.2794 25.3264L63.9941 28.24ZM72.2341 27.2V30.2C75.3719 30.2 77.8657 30.7319 79.8197 31.6664L81.1141 28.96L82.4084 26.2536C79.4558 24.8414 76.0296 24.2 72.2341 24.2V27.2ZM81.1141 28.96L79.8422 31.6771C81.8404 32.6124 83.2894 33.9231 84.2962 35.6145L86.8741 34.08L89.4519 32.5455C87.7921 29.7569 85.4011 27.6543 82.3859 26.2429L81.1141 28.96ZM86.8741 34.08L84.3233 35.6591C85.3543 37.3246 85.9541 39.4937 85.9541 42.32H88.9541H91.9541C91.9541 38.6396 91.1672 35.3154 89.4249 32.5009L86.8741 34.08ZM88.9541 42.32H85.9541C85.9541 44.41 85.5348 46.2488 84.7371 47.8861L87.4341 49.2L90.131 50.5139C91.36 47.9912 91.9541 45.2433 91.9541 42.32H88.9541ZM87.4341 49.2L84.7102 47.9428C83.9291 49.6352 82.757 51.2489 81.136 52.7772L83.1941 54.96L85.2521 57.1428C87.3645 55.1511 89.019 52.9248 90.1579 50.4572L87.4341 49.2ZM83.1941 54.96L81.136 52.7772C79.4553 54.3619 77.3697 55.916 74.8506 57.4275L76.3941 60L77.9376 62.5725C80.7517 60.884 83.1995 59.0781 85.2521 57.1428L83.1941 54.96ZM76.3941 60L74.8506 57.4275L66.4506 62.4675L67.9941 65.04L69.5376 67.6125L77.9376 62.5725L76.3941 60ZM67.9941 65.04L66.4755 62.4528C63.8362 64.0019 61.6576 65.7045 60.0829 67.6073L62.3941 69.52L64.7052 71.4327C65.6905 70.2422 67.2453 68.9581 69.5127 67.6272L67.9941 65.04ZM62.3941 69.52L60.0436 67.6558C58.2551 69.9108 57.5541 72.8187 57.5541 76H60.5541H63.5541C63.5541 73.6346 64.0797 72.2225 64.7446 71.3842L62.3941 69.52ZM60.5541 76H57.5541V78.08H60.5541H63.5541V76H60.5541ZM60.5541 78.08L63.2373 76.7384L62.1973 74.6584L59.5141 76L56.8308 77.3416L57.8708 79.4216L60.5541 78.08ZM59.5141 76V79H89.8341V76V73H59.5141V76ZM89.8341 76H86.8341V84H89.8341H92.8341V76H89.8341ZM89.8341 84V81H52.0741V84V87H89.8341V84Z" fill="white" mask="url(#path-2-outside-1_330_16)"/>
<defs>
<radialGradient id="paint0_radial_330_16" cx="0" cy="0" r="1" gradientTransform="matrix(0.472441 129.5 -130.588 0.533613 72 59.5)" gradientUnits="userSpaceOnUse">
<stop offset="0.0913462" stop-color="#6AADCC"/>
<stop offset="1" stop-color="#175460"/>
</radialGradient>
</defs>
</svg>
