<svg width="326" height="280" viewBox="0 0 326 280" fill="none" xmlns="http://www.w3.org/2000/svg">
<g filter="url(#filter0_d_207_35)">
<path d="M178.885 26.92C156.182 22.5149 164.015 49.5997 164.015 49.5997C164.015 49.5997 148.981 51.1833 139.91 55.7878C130.839 60.3924 118.547 71.4557 118.547 71.4557L214.798 91.4092C214.798 91.4092 210.558 75.8601 204.236 68.2689C197.915 60.6777 181.673 53.0258 181.673 53.0258C181.673 53.0258 197.805 30.5909 178.885 26.92Z" fill="#FE94D7"/>
<path d="M99.1239 77.5858C98.6403 82.2268 102.738 85.523 106.692 87.5953C110.181 89.1453 113.581 90.305 113.581 90.305L216.377 110.25C216.377 110.25 231.139 111.741 229.488 100.012L225.769 94.1771L214.798 91.4092L118.547 71.4557L104.191 71.2479L100.504 73.7069C100.504 73.7069 99.6268 75.4622 99.1239 77.5858Z" fill="#A31E6C"/>
<path d="M37.3775 60L29 73.7069C29 73.7069 45.1585 95.5638 37.3775 122.176C24.988 164.549 67.6469 188.766 67.6469 188.766C67.6469 188.766 71.0875 201.448 75.772 207.598C80.4564 213.749 91.6374 220.264 91.6374 220.264L78.7322 226.068C78.7322 226.068 92.8158 240.944 139.526 250.007C167.906 255.514 197.208 252.891 197.208 252.891L193.869 246.491L191.808 241.936L211.448 230.089C219.118 225.462 230.56 215.901 230.56 215.901C230.56 215.901 228.183 225.224 233.335 228.583C241.205 233.714 249.381 209.966 249.381 209.966C249.381 209.966 266.433 204.225 277.442 196.876C288.451 189.528 305.403 174.18 305.403 174.18C305.403 174.18 332.775 130.917 294.053 111.261C259.502 93.7214 225.351 138.196 225.351 138.196L216.377 110.25L113.581 90.305C113.581 90.305 100.452 109.794 91.6868 115.457C82.9215 121.119 90.606 120.679 84.2346 120.138C67.1146 118.683 70.3853 101.365 61.9172 80.0164C57.5229 68.9378 37.3775 60 37.3775 60Z" fill="#FE94D7"/>
<path d="M113.581 90.305C113.581 90.305 100.452 109.794 91.6868 115.457C82.9215 121.119 90.6061 120.679 84.2346 120.138C67.1146 118.683 70.3853 101.365 61.9172 80.0164C57.5229 68.9378 37.3775 60 37.3775 60L29 73.7069C29 73.7069 45.1585 95.5638 37.3775 122.176C24.988 164.549 67.6469 188.766 67.6469 188.766C67.6469 188.766 71.0875 201.448 75.772 207.598C80.4564 213.749 91.6374 220.264 91.6374 220.264M113.581 90.305L216.377 110.25M113.581 90.305C113.581 90.305 110.181 89.1453 106.692 87.5953M113.581 90.305C113.581 90.305 110.193 89.4297 106.692 87.5953M100.504 73.7069C103.715 68.2976 118.547 71.4557 118.547 71.4557M100.504 73.7069L104.191 71.2479L118.547 71.4557M100.504 73.7069C100.504 73.7069 99.6268 75.4622 99.1239 77.5858M100.504 73.7069C99.6817 75.0915 99.2492 76.3837 99.1239 77.5858M118.547 71.4557C118.547 71.4557 130.839 60.3924 139.91 55.7878C148.981 51.1833 164.015 49.5997 164.015 49.5997C164.015 49.5997 156.182 22.5149 178.885 26.92C197.805 30.5909 181.673 53.0258 181.673 53.0258C181.673 53.0258 197.915 60.6777 204.236 68.2689C210.558 75.8601 214.798 91.4092 214.798 91.4092M118.547 71.4557L214.798 91.4092M214.798 91.4092C214.798 91.4092 228.212 90.9431 229.488 100.012M214.798 91.4092L225.769 94.1771L229.488 100.012M229.488 100.012C231.139 111.741 216.377 110.25 216.377 110.25M216.377 110.25L225.351 138.196C225.351 138.196 259.502 93.7214 294.053 111.261C332.775 130.917 305.403 174.18 305.403 174.18C305.403 174.18 288.451 189.528 277.442 196.876C266.433 204.225 249.381 209.966 249.381 209.966C249.381 209.966 241.205 233.714 233.335 228.583C228.183 225.224 230.56 215.901 230.56 215.901C230.56 215.901 219.118 225.462 211.448 230.089M191.808 241.936C191.808 241.936 203.778 234.715 211.448 230.089M191.808 241.936L211.448 230.089M191.808 241.936L91.6374 220.264M191.808 241.936L193.869 246.491M91.6374 220.264L78.7322 226.068C78.7322 226.068 92.8158 240.944 139.526 250.007C167.906 255.514 197.208 252.891 197.208 252.891L193.869 246.491M91.6374 220.264L85.9018 222.843L193.869 246.491M99.1239 77.5858C98.6403 82.2268 102.738 85.523 106.692 87.5953M99.1239 77.5858C98.6375 79.6396 98.5009 82.0378 99.8455 83.5258C101.06 84.8699 103.905 86.3571 106.692 87.5953" stroke="#A31E6C"/>
<g filter="url(#filter1_i_207_35)">
<path d="M284.244 124.381C334.979 156.324 240.09 200.178 240.09 200.178C240.09 200.178 244.328 182.784 243.729 174.68C243.129 166.577 238.246 155.721 238.246 155.721C238.246 155.721 265.22 112.403 284.244 124.381Z" fill="#FBFEFF"/>
</g>
<path d="M284.244 124.381C334.979 156.324 240.09 200.178 240.09 200.178C240.09 200.178 244.328 182.784 243.729 174.68C243.129 166.577 238.246 155.721 238.246 155.721C238.246 155.721 265.22 112.403 284.244 124.381Z" stroke="#318DBB"/>
<path d="M91.9998 219.5L86.9998 222.5L194.5 246.5L191.5 241L91.9998 219.5Z" fill="#A31E6C"/>
</g>
<defs>
<filter id="filter0_d_207_35" x="24.3977" y="25.9357" width="294.896" height="236.079" filterUnits="userSpaceOnUse" color-interpolation-filters="sRGB">
<feFlood flood-opacity="0" result="BackgroundImageFix"/>
<feColorMatrix in="SourceAlpha" type="matrix" values="0 0 0 0 0 0 0 0 0 0 0 0 0 0 0 0 0 0 127 0" result="hardAlpha"/>
<feOffset dy="4"/>
<feGaussianBlur stdDeviation="2"/>
<feComposite in2="hardAlpha" operator="out"/>
<feColorMatrix type="matrix" values="0 0 0 0 0 0 0 0 0 0 0 0 0 0 0 0 0 0 0.25 0"/>
<feBlend mode="normal" in2="BackgroundImageFix" result="effect1_dropShadow_207_35"/>
<feBlend mode="normal" in="SourceGraphic" in2="effect1_dropShadow_207_35" result="shape"/>
</filter>
<filter id="filter1_i_207_35" x="237.68" y="121.787" width="61.9883" height="83.2797" filterUnits="userSpaceOnUse" color-interpolation-filters="sRGB">
<feFlood flood-opacity="0" result="BackgroundImageFix"/>
<feBlend mode="normal" in="SourceGraphic" in2="BackgroundImageFix" result="shape"/>
<feColorMatrix in="SourceAlpha" type="matrix" values="0 0 0 0 0 0 0 0 0 0 0 0 0 0 0 0 0 0 127 0" result="hardAlpha"/>
<feOffset dy="4"/>
<feGaussianBlur stdDeviation="2"/>
<feComposite in2="hardAlpha" operator="arithmetic" k2="-1" k3="1"/>
<feColorMatrix type="matrix" values="0 0 0 0 0 0 0 0 0 0 0 0 0 0 0 0 0 0 0.25 0"/>
<feBlend mode="normal" in2="shape" result="effect1_innerShadow_207_35"/>
</filter>
</defs>
</svg>
