<svg width="267" height="266" viewBox="0 0 267 266" fill="none" xmlns="http://www.w3.org/2000/svg">
<path d="M33.497 139.028L62.5643 158.867C62.5643 158.867 61.9163 160.618 76.4884 139.033C91.0606 117.448 87.9175 119.036 91.0866 121.148L118.153 147.069C118.153 147.069 137.303 128.439 153.216 121.202C169.128 113.966 199.645 110.008 199.645 110.008L213.603 149.261C213.603 149.261 233.283 130.447 233.926 149.73C234.198 157.882 218.944 164.283 218.944 164.283C218.944 164.283 199.644 166.729 177.337 164.569C163.253 163.205 145.219 172.991 145.219 172.991C145.219 172.991 142.56 174.757 138.95 177.301C135.029 180.083 129.772 183.963 124.688 188.189C115.461 196.223 105.733 211.298 105.733 211.298C101.898 220.415 102.299 228.079 107.145 237.243C110.011 242.663 111.327 248.01 117.709 248.857C124.092 249.705 149.735 235.719 149.735 235.719L170.238 217.733C170.238 217.733 153.291 223.444 147.91 223.775C142.53 224.105 142.683 219.424 142.683 219.424C142.683 219.424 141.014 214.734 145.831 209.609C150.647 204.484 167.349 193.178 167.349 193.178C167.349 193.178 182.928 184.439 193.931 183.592C199.499 183.164 208.207 184.426 208.207 184.426L246.311 159.559C246.311 159.559 247.438 132.877 235.376 129.081C225.209 125.88 210.579 140.487 210.579 140.487C210.579 140.487 190.095 79.8207 189.721 47.2268C189.431 21.9769 147.2 21.8773 123.727 31.186C95.743 42.2834 77.5642 52.7957 52.5437 77.6397C19.213 110.735 33.497 139.028 33.497 139.028Z" fill="#7EA063"/>
<path d="M118.153 147.069L145.219 172.991C145.219 172.991 163.253 163.205 177.337 164.569C199.644 166.729 218.944 164.283 218.944 164.283L213.603 149.261L199.645 110.008C199.645 110.008 169.128 113.966 153.216 121.202C137.303 128.439 118.153 147.069 118.153 147.069Z" fill="#2D564E"/>
<path d="M213.603 149.261L218.944 164.283C218.944 164.283 234.198 157.882 233.926 149.73C233.283 130.447 213.603 149.261 213.603 149.261Z" fill="#6C7E5C"/>
<path d="M170.238 217.733L208.207 184.426C208.207 184.426 199.499 183.164 193.931 183.592C182.928 184.439 167.349 193.178 167.349 193.178C167.349 193.178 150.647 204.484 145.831 209.609C141.014 214.734 142.683 219.424 142.683 219.424C142.683 219.424 142.53 224.105 147.91 223.775C153.291 223.444 170.238 217.733 170.238 217.733Z" fill="#29391F"/>
<path d="M91.0866 121.148C87.9175 119.036 91.0606 117.448 76.4884 139.033C61.9163 160.618 62.5643 158.867 62.5643 158.867C62.5643 158.867 52.7393 184.981 54.0878 188.878C55.4363 192.774 105.733 211.298 105.733 211.298C106.694 209.012 107.921 206.635 109.411 204.121C112.303 199.241 118.362 193.447 124.688 188.189C128.82 184.592 134.581 180.378 138.95 177.301C142.692 174.645 145.219 172.991 145.219 172.991L118.153 147.069L91.0866 121.148Z" fill="#FFF9E8"/>
<path d="M62.5643 158.867L33.497 139.028C33.497 139.028 19.213 110.735 52.5437 77.6397C77.5642 52.7957 95.743 42.2834 123.727 31.186C147.2 21.8773 189.431 21.9769 189.721 47.2268C190.095 79.8207 210.579 140.487 210.579 140.487C210.579 140.487 225.209 125.88 235.376 129.081C247.438 132.877 246.311 159.559 246.311 159.559L208.207 184.426M62.5643 158.867C62.5643 158.867 52.7393 184.981 54.0878 188.878C55.4363 192.774 105.733 211.298 105.733 211.298M62.5643 158.867C62.5643 158.867 61.9163 160.618 76.4884 139.033C91.0606 117.448 87.9175 119.036 91.0866 121.148L118.153 147.069M145.219 172.991L118.153 147.069M145.219 172.991C145.219 172.991 163.253 163.205 177.337 164.569C199.644 166.729 218.944 164.283 218.944 164.283M145.219 172.991C145.219 172.991 142.56 174.757 138.95 177.301M145.219 172.991C145.219 172.991 142.692 174.645 138.95 177.301M208.207 184.426L170.238 217.733M208.207 184.426C208.207 184.426 199.499 183.164 193.931 183.592C182.928 184.439 167.349 193.178 167.349 193.178C167.349 193.178 150.647 204.484 145.831 209.609C141.014 214.734 142.683 219.424 142.683 219.424C142.683 219.424 142.53 224.105 147.91 223.775C153.291 223.444 170.238 217.733 170.238 217.733M109.411 204.121C107.921 206.635 106.694 209.012 105.733 211.298M109.411 204.121C114.627 195.318 130.15 183.544 138.95 177.301M109.411 204.121C112.303 199.241 118.362 193.447 124.688 188.189M170.238 217.733L149.735 235.719C149.735 235.719 124.092 249.705 117.709 248.857C111.327 248.01 110.011 242.663 107.145 237.243C102.299 228.079 101.898 220.415 105.733 211.298M118.153 147.069C118.153 147.069 137.303 128.439 153.216 121.202C169.128 113.966 199.645 110.008 199.645 110.008L213.603 149.261M218.944 164.283L213.603 149.261M218.944 164.283C218.944 164.283 234.198 157.882 233.926 149.73C233.283 130.447 213.603 149.261 213.603 149.261M105.733 211.298C105.733 211.298 115.461 196.223 124.688 188.189M124.688 188.189C129.772 183.963 135.029 180.083 138.95 177.301M124.688 188.189C128.82 184.592 134.581 180.378 138.95 177.301" stroke="#164516" stroke-width="3"/>
<line x1="83.3575" y1="144.07" x2="113.707" y2="188.746" stroke="black" stroke-width="3"/>
<path d="M102.423 153.155C102.423 153.155 102.889 161.96 105.759 166.501C108.011 170.065 113.591 173.928 113.591 173.928M113.591 173.928C113.591 173.928 119.008 175.44 120.947 173.307C123.498 170.502 121.221 164.191 117.43 164.258C115.283 164.296 113.854 165.379 112.824 167.264C111.568 169.563 113.591 173.928 113.591 173.928Z" stroke="black" stroke-width="2"/>
<path d="M73.6796 185.048L70.4005 180.023L98.1369 194.164L100.649 192.524L98.7935 197.914L98.4101 194.582" stroke="black" stroke-width="2"/>
<path d="M86.5347 182.181C80.9846 179.2 73.8476 175.547 74.2248 170.344C74.626 164.81 83.1072 168.859 88.988 172.142C94.5007 175.219 101.703 179.47 100.83 184.414C99.9356 189.476 92.2006 185.224 86.5347 182.181Z" stroke="black" stroke-width="2"/>
</svg>
