<svg width="246" height="280" viewBox="0 0 246 280" fill="none" xmlns="http://www.w3.org/2000/svg">
<g filter="url(#filter0_d_177_69)">
<ellipse cx="113.821" cy="168.816" rx="91.8043" ry="87.7844" transform="rotate(17.366 113.821 168.816)" fill="#F4BD5D"/>
<ellipse cx="113.436" cy="168.138" rx="79.8298" ry="72.3556" transform="rotate(17.366 113.436 168.138)" fill="#FEF0D9"/>
<path fill-rule="evenodd" clip-rule="evenodd" d="M141.42 90.8693L146.407 80.3751C146.407 80.3751 136.276 56.1771 147.972 45.82C161.596 33.7552 183.718 34.6842 198.318 48.3859C211.305 60.5749 214.119 79.3336 203.329 91.1751C194.007 101.406 168.963 93.6024 168.963 93.6024L163.976 104.097L141.42 90.8693ZM177.246 48.5871C150.587 40.3164 152.275 68.029 152.275 68.029C152.275 68.029 159.903 51.9794 175.268 61.9464C190.407 71.7664 179.542 87.894 179.542 87.894C179.542 87.894 186.036 89.3482 194.464 80.4028C202.892 71.4575 195.527 54.2585 177.246 48.5871Z" fill="#F4BA62" stroke="#E2B061"/>
<path d="M85.716 229.742C86.2829 220.759 94.7377 206.453 94.9025 211.313C95.0111 214.515 94.7426 216.963 93.2718 220.601C91.4644 225.073 85.4566 233.851 85.716 229.742Z" fill="#F88B53" stroke="#DB7E52"/>
<path d="M133.058 122.599C135.131 112.849 145.63 103.403 144.958 109.059C144.514 112.785 143.841 115.349 141.818 118.299C139.333 121.924 132.109 127.059 133.058 122.599Z" fill="#F88B53" stroke="#DB7E52"/>
<path d="M157.858 144.055C162.284 137.978 173.245 133.847 171.095 137.482C169.678 139.876 168.413 141.448 165.977 142.998C162.984 144.903 155.833 146.835 157.858 144.055Z" fill="#F88B53" stroke="#DB7E52"/>
<path d="M163.118 164.387C170.318 161.457 182.191 163.338 178.32 165.333C175.77 166.647 173.802 167.346 170.819 167.457C167.153 167.593 159.824 165.728 163.118 164.387Z" fill="#F88B53" stroke="#DB7E52"/>
<path d="M161.954 191.708C169.568 189.81 181.096 193.283 176.939 194.716C174.199 195.66 172.134 196.079 169.148 195.78C165.479 195.413 158.47 192.576 161.954 191.708Z" fill="#F88B53" stroke="#DB7E52"/>
<path d="M147.02 214.74C154.567 217.402 162.101 226.464 157.737 225.324C154.862 224.574 152.873 223.775 150.554 221.905C147.703 219.606 143.567 213.522 147.02 214.74Z" fill="#F88B53" stroke="#DB7E52"/>
<path d="M125.297 220.49C128.495 227.487 126.659 238.584 124.496 234.795C123.071 232.298 122.305 230.393 122.148 227.566C121.956 224.092 123.835 217.289 125.297 220.49Z" fill="#F88B53" stroke="#DB7E52"/>
<path d="M108.666 115.293C108.491 107.777 101.836 98.1369 101.533 102.349C101.333 105.125 101.477 107.137 102.596 109.799C103.971 113.069 108.746 118.731 108.666 115.293Z" fill="#F88B53" stroke="#DB7E52"/>
<path d="M78.3319 125.609C74.084 119.099 63.2547 113.88 65.2993 117.724C66.6466 120.257 67.8652 121.953 70.2538 123.743C73.189 125.944 80.2752 128.587 78.3319 125.609Z" fill="#F88B53" stroke="#DB7E52"/>
<path d="M63.7219 147.61C58.5459 141.711 47.0929 137.998 49.6931 141.544C51.4064 143.881 52.865 145.402 55.4892 146.857C58.7138 148.646 66.0898 150.308 63.7219 147.61Z" fill="#F88B53" stroke="#DB7E52"/>
<path d="M57.3157 175.538C49.5963 173.426 38.242 176.581 42.4775 178.131C45.2683 179.152 47.3571 179.629 50.3295 179.413C53.9821 179.148 60.8471 176.504 57.3157 175.538Z" fill="#F88B53" stroke="#DB7E52"/>
<path d="M67.3941 195.692C60.7794 199.621 55.966 209.787 59.9022 207.905C62.4959 206.665 64.2116 205.536 65.9506 203.302C68.0877 200.557 70.4201 193.895 67.3941 195.692Z" fill="#F88B53" stroke="#DB7E52"/>
<ellipse cx="113.594" cy="167.63" rx="7.98298" ry="7.9804" transform="rotate(17.366 113.594 167.63)" fill="#442724"/>
<path d="M130.152 133.788L116.644 164.387" stroke="#442724" stroke-width="3" stroke-linecap="round"/>
<path d="M136.27 179.181L111.172 167.736" stroke="#442724" stroke-width="3" stroke-linecap="round"/>
</g>
<defs>
<filter id="filter0_d_177_69" x="18.3435" y="36.8993" width="196.141" height="228.09" filterUnits="userSpaceOnUse" color-interpolation-filters="sRGB">
<feFlood flood-opacity="0" result="BackgroundImageFix"/>
<feColorMatrix in="SourceAlpha" type="matrix" values="0 0 0 0 0 0 0 0 0 0 0 0 0 0 0 0 0 0 127 0" result="hardAlpha"/>
<feOffset dy="4"/>
<feGaussianBlur stdDeviation="2"/>
<feComposite in2="hardAlpha" operator="out"/>
<feColorMatrix type="matrix" values="0 0 0 0 0 0 0 0 0 0 0 0 0 0 0 0 0 0 0.25 0"/>
<feBlend mode="normal" in2="BackgroundImageFix" result="effect1_dropShadow_177_69"/>
<feBlend mode="normal" in="SourceGraphic" in2="effect1_dropShadow_177_69" result="shape"/>
</filter>
</defs>
</svg>
