<svg width="329" height="313" viewBox="0 0 329 313" fill="none" xmlns="http://www.w3.org/2000/svg">
<path d="M211.578 301.174L199.269 303.536C199.269 303.536 201.97 302.315 202.952 300.681C203.934 299.046 204.211 295.243 204.211 295.243C204.211 295.243 205.027 298.006 206.498 299.155C208.052 300.369 211.578 301.174 211.578 301.174Z" fill="#111110" stroke="#353333"/>
<g filter="url(#filter0_d_263_64)">
<path d="M219.701 208.291C217.68 212.425 168.254 237.15 168.254 237.15L157.773 219.453C157.773 219.453 149.211 206.419 151.986 202.654C154.76 198.888 175.082 187.871 175.082 187.871L200.631 174.753L211.847 190.947C211.847 190.947 221.722 204.157 219.701 208.291Z" fill="#FDF9EF"/>
<path d="M219.701 208.291C217.68 212.425 168.254 237.15 168.254 237.15L157.773 219.453C157.773 219.453 149.211 206.419 151.986 202.654C154.76 198.888 175.082 187.871 175.082 187.871L200.631 174.753L211.847 190.947C211.847 190.947 221.722 204.157 219.701 208.291Z" stroke="#FDFAEF"/>
</g>
<path d="M174.109 213.006L178.047 198.986L196.376 199.68L189.617 213.502L174.109 213.006Z" fill="#E25236" stroke="#EA4027"/>
<path d="M191.444 185.269C191.125 184.815 190.957 184.356 190.938 183.893C190.913 183.435 191.089 183.074 191.465 182.811C191.735 182.622 191.972 182.552 192.175 182.6C192.371 182.653 192.504 182.729 192.574 182.829C192.614 182.885 192.631 182.948 192.625 183.015C192.617 183.094 192.594 183.19 192.556 183.301C192.507 183.473 192.497 183.707 192.526 184.005C192.547 184.307 192.68 184.632 192.924 184.979C193.188 185.355 193.484 185.603 193.812 185.723C194.144 185.85 194.46 185.809 194.758 185.6C194.993 185.436 195.13 185.24 195.17 185.011C195.215 184.789 195.216 184.571 195.173 184.358C195.099 184.072 194.98 183.774 194.816 183.466C194.783 183.404 194.763 183.344 194.754 183.287C194.753 183.224 194.782 183.146 194.842 183.051C194.94 182.887 195.059 182.756 195.201 182.657C195.279 182.602 195.358 182.579 195.438 182.587C195.517 182.594 195.6 182.621 195.685 182.667C195.849 182.765 196.042 182.867 196.266 182.975C196.502 183.085 196.743 183.149 196.989 183.167C197.24 183.193 197.479 183.126 197.706 182.967C197.969 182.783 198.086 182.564 198.056 182.31C198.038 182.059 197.949 181.819 197.789 181.592C197.63 181.365 197.447 181.187 197.239 181.057C197.038 180.922 196.875 180.825 196.748 180.766C196.574 180.698 196.464 180.632 196.419 180.568C196.349 180.469 196.353 180.36 196.429 180.243C196.506 180.126 196.59 180.035 196.683 179.971C196.803 179.886 196.943 179.836 197.101 179.821C197.272 179.807 197.468 179.845 197.689 179.933C198.012 180.046 198.289 180.207 198.52 180.415C198.756 180.631 198.954 180.852 199.113 181.079C199.482 181.604 199.637 182.104 199.578 182.578C199.526 183.048 199.291 183.429 198.872 183.722C198.517 183.971 198.117 184.102 197.672 184.117C197.227 184.132 196.823 184.061 196.458 183.904C196.618 184.342 196.632 184.755 196.502 185.142C196.376 185.537 196.104 185.88 195.685 186.173C195.223 186.496 194.729 186.667 194.203 186.687C193.674 186.718 193.17 186.611 192.69 186.365C192.203 186.123 191.787 185.758 191.444 185.269Z" fill="#EE4E2C"/>
<path d="M177.455 228.238C177.774 228.692 177.942 229.15 177.96 229.613C177.986 230.072 177.81 230.432 177.434 230.696C177.164 230.884 176.927 230.955 176.724 230.907C176.528 230.853 176.395 230.777 176.325 230.678C176.285 230.621 176.268 230.559 176.274 230.492C176.282 230.412 176.305 230.317 176.343 230.205C176.392 230.034 176.402 229.799 176.373 229.502C176.352 229.2 176.219 228.875 175.975 228.527C175.711 228.152 175.415 227.904 175.087 227.784C174.755 227.657 174.439 227.698 174.141 227.906C173.906 228.07 173.769 228.267 173.729 228.496C173.683 228.718 173.683 228.936 173.726 229.148C173.8 229.435 173.919 229.732 174.083 230.041C174.116 230.103 174.136 230.162 174.145 230.22C174.146 230.282 174.117 230.361 174.057 230.456C173.959 230.619 173.84 230.75 173.698 230.85C173.62 230.904 173.541 230.928 173.461 230.92C173.382 230.912 173.299 230.885 173.214 230.839C173.05 230.742 172.856 230.64 172.633 230.532C172.397 230.422 172.156 230.358 171.91 230.339C171.659 230.314 171.42 230.381 171.192 230.54C170.93 230.723 170.813 230.942 170.843 231.196C170.861 231.448 170.95 231.687 171.109 231.914C171.269 232.141 171.452 232.32 171.66 232.449C171.86 232.584 172.024 232.681 172.151 232.741C172.325 232.809 172.435 232.875 172.48 232.939C172.55 233.038 172.546 233.146 172.47 233.263C172.393 233.38 172.309 233.471 172.216 233.536C172.095 233.62 171.956 233.67 171.797 233.686C171.627 233.699 171.431 233.662 171.21 233.573C170.887 233.46 170.61 233.3 170.379 233.091C170.143 232.876 169.945 232.654 169.786 232.427C169.417 231.903 169.262 231.403 169.321 230.928C169.372 230.459 169.608 230.077 170.027 229.784C170.382 229.536 170.782 229.404 171.227 229.389C171.671 229.374 172.076 229.446 172.441 229.603C172.281 229.165 172.267 228.752 172.397 228.364C172.523 227.97 172.795 227.626 173.214 227.333C173.676 227.01 174.17 226.839 174.696 226.82C175.225 226.789 175.729 226.896 176.209 227.142C176.696 227.383 177.111 227.748 177.455 228.238Z" fill="#EE4E2C"/>
<g filter="url(#filter1_d_263_64)">
<path d="M221.278 93.3064C217.609 100.811 127.937 145.731 127.937 145.731L108.939 113.616C108.939 113.616 93.42 89.9654 98.4557 83.1285C103.491 76.2915 140.361 56.277 140.361 56.277L186.714 32.4457L207.046 61.8312C207.046 61.8312 224.948 85.8014 221.278 93.3064Z" fill="#FDF9EF"/>
<path d="M221.278 93.3064C217.609 100.811 127.937 145.731 127.937 145.731L108.939 113.616C108.939 113.616 93.42 89.9654 98.4557 83.1285C103.491 76.2915 140.361 56.277 140.361 56.277L186.714 32.4457L207.046 61.8312C207.046 61.8312 224.948 85.8014 221.278 93.3064Z" stroke="#FDFAEF"/>
</g>
<path d="M171.75 52.025C170.981 50.8201 170.404 49.7582 170.021 48.8394C169.63 47.9501 169.553 47.2537 169.788 46.7503C169.85 46.6097 169.967 46.4348 170.137 46.2256C170.307 46.0164 170.482 45.8546 170.662 45.7402C171.22 45.3856 171.744 45.3938 172.234 45.765C173.147 46.3226 174.06 46.8418 174.974 47.3226C175.888 47.8034 176.825 48.1812 177.785 48.456C179.44 48.9468 180.627 48.9634 181.347 48.5058C181.707 48.277 181.904 47.9501 181.936 47.5251C181.969 47.1001 181.813 46.6178 181.469 46.0783C181.205 45.6646 180.864 45.2494 180.446 44.8324C180.039 44.4335 179.622 44.1171 179.195 43.8832C178.931 43.7475 178.697 43.6183 178.492 43.4957C178.317 43.3796 178.183 43.2496 178.091 43.1057C177.942 42.8719 177.944 42.6177 178.098 42.3431C178.252 42.0685 178.464 41.8454 178.734 41.6739C179.04 41.4794 179.389 41.3716 179.78 41.3504C180.201 41.3358 180.699 41.4617 181.274 41.7283C181.879 42.0014 182.472 42.3955 183.053 42.9105C183.665 43.4321 184.2 44.0526 184.659 44.772C185.382 45.905 185.688 46.9995 185.577 48.0555C185.496 49.118 184.978 49.9524 184.024 50.5587C183.412 50.9476 182.731 51.1902 181.983 51.2865C181.253 51.3714 180.521 51.3557 179.789 51.2395C178.679 51.0856 177.581 50.7724 176.494 50.2997C175.408 49.8271 174.438 49.3185 173.585 48.774C173.762 49.0911 173.985 49.4802 174.254 49.9413C174.541 50.3909 174.77 50.7505 174.942 51.0203C175.619 52.0814 176.191 52.7795 176.658 53.1147C177.143 53.4385 177.586 53.6372 177.988 53.7108C178.36 53.7779 178.591 53.8834 178.683 54.0273C178.809 54.2251 178.792 54.5144 178.63 54.8953C178.497 55.2827 178.188 55.6308 177.702 55.9397C176.765 56.5345 175.825 56.4877 174.879 55.7993C173.963 55.1175 172.92 53.8594 171.75 52.025Z" fill="#E25236"/>
<path d="M141.78 128.422C141.023 127.21 140.312 126.233 139.647 125.49C139.012 124.755 138.416 124.384 137.859 124.379C137.706 124.374 137.497 124.403 137.235 124.465C136.972 124.528 136.75 124.616 136.569 124.729C136.007 125.078 135.788 125.553 135.912 126.154C136.022 127.216 136.097 128.262 136.136 129.293C136.176 130.323 136.113 131.329 135.946 132.312C135.675 134.012 135.177 135.088 134.452 135.538C134.09 135.764 133.71 135.799 133.312 135.645C132.913 135.49 132.545 135.142 132.206 134.599C131.946 134.182 131.718 133.696 131.522 133.14C131.337 132.602 131.231 132.09 131.204 131.604C131.195 131.308 131.18 131.042 131.157 130.804C131.128 130.596 131.068 130.42 130.978 130.275C130.831 130.04 130.6 129.932 130.286 129.952C129.971 129.972 129.678 130.066 129.406 130.235C129.098 130.426 128.85 130.694 128.662 131.037C128.467 131.409 128.365 131.912 128.358 132.544C128.344 133.206 128.444 133.91 128.658 134.656C128.865 135.431 129.195 136.181 129.647 136.905C130.359 138.045 131.216 138.793 132.218 139.15C133.213 139.536 134.191 139.431 135.152 138.834C135.768 138.451 136.281 137.944 136.691 137.312C137.084 136.691 137.385 136.026 137.596 135.317C137.937 134.252 138.128 133.128 138.17 131.947C138.212 130.765 138.172 129.673 138.048 128.669C138.259 128.966 138.514 129.334 138.814 129.776C139.097 130.228 139.323 130.59 139.492 130.861C140.159 131.929 140.543 132.745 140.644 133.31C140.727 133.887 140.715 134.371 140.609 134.764C140.509 135.128 140.504 135.382 140.594 135.527C140.718 135.726 140.988 135.835 141.402 135.854C141.809 135.902 142.257 135.774 142.747 135.47C143.689 134.884 144.053 134.017 143.839 132.869C143.619 131.751 142.932 130.268 141.78 128.422Z" fill="#E25236"/>
<g filter="url(#filter2_d_263_64)">
<path d="M180.233 272.697C178.211 276.831 189.049 331.023 189.049 331.023L209.453 328.427C209.453 328.427 224.997 327.18 226.265 322.678C227.533 318.176 223.749 295.372 223.749 295.372L218.413 267.152L198.744 268.245C198.744 268.245 182.254 268.563 180.233 272.697Z" fill="#FDF9EF"/>
<path d="M180.233 272.697C178.211 276.831 189.049 331.023 189.049 331.023L209.453 328.427C209.453 328.427 224.997 327.18 226.265 322.678C227.533 318.176 223.749 295.372 223.749 295.372L218.413 267.152L198.744 268.245C198.744 268.245 182.254 268.563 180.233 272.697Z" stroke="#FDFAEF"/>
</g>
<path d="M215.68 280.91C215.433 280.93 215.213 280.843 215.021 280.65C214.836 280.448 214.643 280.11 214.444 279.637C214.344 279.404 214.258 279.178 214.184 278.959C214.117 278.732 214.062 278.512 214.021 278.298C213.93 278.466 213.843 278.581 213.76 278.644C213.684 278.698 213.567 278.732 213.407 278.745C213.017 278.776 212.602 278.805 212.162 278.832C211.722 278.852 211.331 278.871 210.987 278.89C210.983 279.035 210.979 279.184 210.976 279.337C210.979 279.481 210.987 279.625 210.999 279.768C211.01 279.896 211.024 280.023 211.042 280.15C211.069 280.276 211.091 280.399 211.109 280.518C211.151 280.739 211.078 280.926 210.89 281.077C210.702 281.229 210.46 281.316 210.165 281.34C209.91 281.36 209.773 281.259 209.755 281.036C209.743 280.9 209.763 280.694 209.812 280.417C209.837 280.231 209.856 280.072 209.87 279.943C209.882 279.806 209.885 279.697 209.879 279.617C209.861 279.394 209.78 279.248 209.638 279.179C209.521 279.124 209.459 279.045 209.45 278.941C209.442 278.846 209.453 278.728 209.481 278.59C209.518 278.45 209.568 278.322 209.63 278.205C209.692 278.079 209.753 277.99 209.813 277.937C209.866 277.901 209.932 277.867 210.01 277.837C210.087 277.807 210.186 277.783 210.305 277.765C210.542 276.847 210.826 276.05 211.156 275.374C211.493 274.689 211.866 274.153 212.276 273.767C212.685 273.373 213.117 273.158 213.572 273.122C213.851 273.099 214.062 273.179 214.205 273.36C214.348 273.533 214.437 273.839 214.473 274.277L214.518 274.815C214.584 275.621 214.704 276.357 214.88 277.026C215.055 277.694 215.248 278.232 215.458 278.641C215.67 279.073 215.943 279.42 216.278 279.682C216.38 279.754 216.45 279.821 216.487 279.882C216.523 279.936 216.544 279.994 216.549 280.058C216.559 280.178 216.521 280.301 216.435 280.428C216.357 280.555 216.25 280.664 216.113 280.755C215.976 280.846 215.832 280.898 215.68 280.91ZM211.244 277.618C211.633 277.571 211.975 277.531 212.27 277.5C212.563 277.46 212.81 277.432 213.009 277.416L213.847 277.349C213.812 277.127 213.777 276.893 213.741 276.647C213.713 276.401 213.687 276.142 213.665 275.871L213.608 275.177C213.589 274.946 213.549 274.797 213.487 274.729C213.433 274.654 213.334 274.621 213.19 274.633C212.799 274.664 212.43 274.951 212.081 275.492C211.732 276.034 211.453 276.742 211.244 277.618Z" fill="#171717"/>
<path d="M199.643 298.731C202.412 298.341 204.017 294.902 204.017 294.902C204.017 294.902 206.476 297.414 209.848 297.296C213.426 297.171 214.368 292.718 212.633 290.287C209.321 285.649 200.707 282.323 200.707 282.323C200.707 282.323 194.609 289.986 194.873 294.486C195.036 297.26 195.932 299.253 199.643 298.731Z" fill="#111110" stroke="#353333"/>
<g filter="url(#filter3_d_263_64)">
<path d="M247.46 131.39C245.939 134.5 253.76 175.108 253.76 175.108L268.939 173.072C268.939 173.072 280.5 172.069 281.463 168.686C282.425 165.303 279.711 148.211 279.711 148.211L275.868 127.064L261.241 127.97C261.241 127.97 248.98 128.281 247.46 131.39Z" fill="#FDF9EF"/>
<path d="M247.46 131.39C245.939 134.5 253.76 175.108 253.76 175.108L268.939 173.072C268.939 173.072 280.5 172.069 281.463 168.686C282.425 165.303 279.711 148.211 279.711 148.211L275.868 127.064L261.241 127.97C261.241 127.97 248.98 128.281 247.46 131.39Z" stroke="#FDFAEF"/>
</g>
<path d="M274.775 141.87C274.528 141.892 274.309 141.806 274.118 141.614C273.934 141.413 273.744 141.076 273.548 140.604C273.45 140.371 273.365 140.146 273.292 139.927C273.227 139.7 273.174 139.48 273.134 139.266C273.043 139.435 272.955 139.551 272.872 139.614C272.795 139.669 272.678 139.703 272.518 139.717C272.128 139.751 271.713 139.783 271.274 139.813C270.835 139.835 270.443 139.857 270.1 139.879C270.095 140.024 270.09 140.173 270.085 140.326C270.088 140.47 270.095 140.614 270.106 140.757C270.116 140.885 270.129 141.012 270.147 141.139C270.173 141.265 270.194 141.388 270.211 141.507C270.252 141.728 270.178 141.915 269.989 142.068C269.8 142.221 269.558 142.31 269.263 142.336C269.008 142.358 268.872 142.257 268.855 142.034C268.845 141.898 268.865 141.692 268.916 141.414C268.942 141.228 268.962 141.069 268.977 140.94C268.99 140.802 268.994 140.693 268.988 140.613C268.971 140.39 268.892 140.244 268.75 140.176C268.634 140.122 268.572 140.043 268.564 139.939C268.557 139.844 268.568 139.726 268.598 139.587C268.635 139.448 268.686 139.319 268.749 139.201C268.812 139.075 268.873 138.985 268.933 138.932C268.987 138.895 269.052 138.861 269.13 138.831C269.208 138.8 269.306 138.775 269.425 138.757C269.669 137.836 269.957 137.037 270.291 136.357C270.632 135.669 271.008 135.131 271.42 134.742C271.831 134.345 272.264 134.127 272.719 134.087C272.997 134.063 273.208 134.141 273.35 134.322C273.491 134.494 273.579 134.8 273.612 135.238L273.652 135.777C273.713 136.582 273.829 137.319 274 137.987C274.171 138.655 274.36 139.192 274.567 139.6C274.776 140.031 275.047 140.377 275.38 140.637C275.481 140.709 275.551 140.775 275.587 140.836C275.623 140.889 275.644 140.948 275.649 141.012C275.658 141.131 275.619 141.255 275.532 141.383C275.454 141.51 275.346 141.62 275.208 141.712C275.071 141.804 274.926 141.857 274.775 141.87ZM270.364 138.603C270.754 138.553 271.096 138.512 271.39 138.478C271.683 138.437 271.93 138.407 272.129 138.39L272.966 138.317C272.933 138.095 272.9 137.861 272.865 137.616C272.838 137.369 272.815 137.11 272.794 136.839L272.742 136.145C272.724 135.913 272.685 135.764 272.624 135.697C272.57 135.622 272.471 135.59 272.328 135.603C271.937 135.636 271.566 135.926 271.214 136.47C270.862 137.014 270.579 137.725 270.364 138.603Z" fill="#171717"/>
<path d="M260.161 161.841C259.913 161.855 259.706 161.97 259.539 162.188C259.381 162.413 259.233 162.774 259.095 163.27C259.026 163.514 258.969 163.75 258.923 163.977C258.885 164.211 258.859 164.437 258.845 164.654C258.734 164.5 258.633 164.397 258.543 164.346C258.461 164.303 258.34 164.285 258.18 164.294C257.789 164.316 257.374 164.343 256.935 164.375C256.496 164.415 256.105 164.449 255.762 164.476C255.74 164.333 255.717 164.186 255.694 164.035C255.68 163.892 255.67 163.748 255.663 163.604C255.657 163.476 255.656 163.348 255.658 163.22C255.668 163.091 255.675 162.967 255.677 162.846C255.691 162.621 255.595 162.446 255.39 162.321C255.184 162.197 254.933 162.142 254.638 162.159C254.382 162.173 254.259 162.292 254.269 162.516C254.275 162.652 254.32 162.853 254.404 163.121C254.452 163.303 254.491 163.457 254.521 163.583C254.551 163.718 254.568 163.825 254.571 163.905C254.581 164.129 254.52 164.284 254.388 164.372C254.279 164.442 254.227 164.529 254.232 164.633C254.236 164.729 254.261 164.844 254.307 164.977C254.361 165.11 254.427 165.231 254.503 165.339C254.581 165.455 254.652 165.535 254.718 165.579C254.776 165.608 254.845 165.632 254.926 165.652C255.007 165.672 255.107 165.682 255.228 165.683C255.579 166.561 255.961 167.313 256.373 167.939C256.794 168.573 257.232 169.054 257.687 169.381C258.142 169.716 258.598 169.871 259.053 169.846C259.333 169.831 259.532 169.723 259.651 169.524C259.771 169.334 259.821 169.018 259.801 168.579L259.777 168.039C259.741 167.232 259.768 166.486 259.857 165.8C259.947 165.114 260.07 164.554 260.226 164.121C260.382 163.663 260.609 163.282 260.908 162.977C261 162.892 261.061 162.817 261.09 162.751C261.12 162.693 261.133 162.632 261.13 162.568C261.125 162.449 261.071 162.331 260.97 162.217C260.877 162.102 260.757 162.008 260.609 161.936C260.462 161.864 260.312 161.833 260.161 161.841ZM256.177 165.703C256.569 165.697 256.913 165.69 257.209 165.682C257.506 165.681 257.754 165.676 257.953 165.665L258.792 165.618C258.786 165.843 258.781 166.08 258.776 166.328C258.779 166.576 258.786 166.836 258.799 167.108L258.83 167.803C258.84 168.035 258.819 168.189 258.766 168.264C258.722 168.346 258.628 168.391 258.484 168.399C258.093 168.421 257.69 168.187 257.275 167.697C256.861 167.207 256.495 166.543 256.177 165.703Z" fill="#050505"/>
<path d="M262.542 154.772C264.602 154.468 265.811 151.88 265.811 151.88C265.811 151.88 267.628 153.754 270.135 153.651C272.796 153.541 273.515 150.197 272.236 148.381C269.794 144.915 263.405 142.458 263.405 142.458C263.405 142.458 258.838 148.234 259.015 151.609C259.124 153.689 259.782 155.18 262.542 154.772Z" fill="#111110" stroke="#353333"/>
<g filter="url(#filter4_d_263_64)">
<path d="M38.698 167.007C35.0283 174.512 54.6436 272.869 54.6436 272.869L91.6558 268.141C91.6558 268.141 119.852 265.865 122.155 257.692C124.459 249.519 117.614 208.13 117.614 208.13L107.957 156.912L72.2791 158.911C72.2791 158.911 42.3677 159.502 38.698 167.007Z" fill="#FDF9EF"/>
<path d="M38.698 167.007C35.0283 174.512 54.6436 272.869 54.6436 272.869L91.6558 268.141C91.6558 268.141 119.852 265.865 122.155 257.692C124.459 249.519 117.614 208.13 117.614 208.13L107.957 156.912L72.2791 158.911C72.2791 158.911 42.3677 159.502 38.698 167.007Z" stroke="#FDFAEF"/>
</g>
<path d="M102.69 180.022C103.045 179.961 103.254 179.843 103.319 179.67C103.383 179.496 103.364 179.27 103.261 178.99C102.894 178.052 102.538 177.024 102.194 175.906C101.849 174.789 101.576 173.652 101.374 172.496C101.236 171.708 101.146 171 101.104 170.371C101.049 169.745 101.138 169.134 101.373 168.539C101.412 168.451 101.445 168.371 101.473 168.298C101.485 168.215 101.487 168.147 101.478 168.094C101.448 167.924 101.327 167.775 101.116 167.649C100.889 167.513 100.634 167.408 100.35 167.335C100.067 167.262 99.8068 167.246 99.5703 167.287C99.255 167.341 99.05 167.485 98.9553 167.718C98.8475 167.953 98.8081 168.23 98.8369 168.55C98.8634 168.857 98.9042 169.168 98.9593 169.483C99.0144 169.798 99.0961 170.149 99.2044 170.537C99.2973 170.913 99.4036 171.328 99.5234 171.78C99.6947 172.373 99.8763 173.025 100.068 173.736C100.258 174.434 100.421 175.171 100.556 175.945C100.71 176.825 100.803 177.554 100.836 178.13C100.867 178.693 100.884 179.062 100.888 179.237C100.887 179.467 100.986 179.646 101.185 179.774C101.383 179.902 101.62 179.983 101.897 180.017C102.176 180.063 102.44 180.065 102.69 180.022ZM95.1739 181.279C95.6995 181.188 96.1824 180.969 96.6226 180.623C97.0497 180.278 97.4367 179.86 97.7837 179.367C98.1307 178.874 98.4314 178.349 98.6857 177.79C98.927 177.235 99.1299 176.692 99.2946 176.163C99.4462 175.636 99.5489 175.179 99.6029 174.791C99.6592 174.416 99.6643 174.097 99.6184 173.834C99.5679 173.545 99.402 173.215 99.1206 172.844C98.8947 172.559 98.5784 172.221 98.1719 171.831C97.7654 171.441 97.3094 171.04 96.804 170.626C96.2855 170.215 95.7595 169.839 95.2262 169.498C94.6797 169.159 94.147 168.9 93.6281 168.718C93.1091 168.537 92.646 168.482 92.2387 168.552C91.8708 168.616 91.6276 168.773 91.5089 169.023C91.3748 169.263 91.3319 169.521 91.3801 169.797C91.4192 170.02 91.5065 170.248 91.6421 170.482C91.7777 170.716 91.9392 170.904 92.1267 171.048C92.3143 171.191 92.5131 171.245 92.7234 171.209C92.8547 171.186 92.9773 171.151 93.0909 171.105C93.1892 171.047 93.3237 171.004 93.4945 170.974C93.6653 170.945 93.8747 170.942 94.1227 170.967C94.3575 170.994 94.629 171.076 94.937 171.212C95.1879 171.331 95.5052 171.52 95.8888 171.779C96.27 172.024 96.6659 172.314 97.0764 172.649C97.4869 172.984 97.8757 173.35 98.2429 173.747C98.137 174.225 97.9665 174.721 97.7316 175.236C97.4943 175.737 97.2393 176.213 96.9665 176.666C96.473 177.482 95.9724 178.103 95.4648 178.529C94.9441 178.957 94.2699 179.243 93.4421 179.386C93.2713 179.415 93.1665 179.474 93.1277 179.562C93.0758 179.652 93.0648 179.782 93.0946 179.953C93.1612 180.334 93.37 180.677 93.7211 180.981C94.059 181.288 94.5433 181.387 95.1739 181.279Z" fill="#050505"/>
<path d="M62.9033 251.868C63.2591 251.814 63.4955 251.859 63.6123 252.003C63.7291 252.147 63.7836 252.368 63.7759 252.665C63.7296 253.671 63.7229 254.758 63.7559 255.926C63.7889 257.094 63.8954 258.258 64.0754 259.418C64.1981 260.208 64.3405 260.908 64.5026 261.517C64.6514 262.129 64.9325 262.679 65.3459 263.169C65.4109 263.24 65.4683 263.305 65.518 263.365C65.5567 263.44 65.5801 263.504 65.5883 263.557C65.6149 263.728 65.5482 263.907 65.3882 264.093C65.2171 264.295 65.009 264.475 64.7638 264.634C64.5186 264.793 64.2774 264.89 64.0401 264.927C63.7238 264.975 63.4834 264.904 63.3189 264.713C63.1412 264.525 63.0146 264.274 62.9391 263.962C62.8657 263.663 62.8045 263.356 62.7554 263.039C62.7063 262.723 62.6708 262.364 62.649 261.963C62.616 261.577 62.5835 261.15 62.5515 260.683C62.5233 260.067 62.4859 259.391 62.4393 258.657C62.3947 257.935 62.3121 257.186 62.1914 256.408C62.0543 255.526 61.9089 254.806 61.755 254.25C61.6032 253.706 61.5008 253.351 61.4479 253.184C61.3735 252.966 61.4098 252.765 61.5566 252.58C61.7034 252.396 61.9024 252.244 62.1537 252.125C62.403 251.992 62.6529 251.907 62.9033 251.868ZM55.3772 253.061C55.9044 252.98 56.4322 253.034 56.9608 253.223C57.4762 253.414 57.9775 253.688 58.4647 254.045C58.9519 254.402 59.4057 254.805 59.8261 255.253C60.2333 255.703 60.6 256.153 60.9261 256.602C61.239 257.053 61.4834 257.454 61.6593 257.805C61.8332 258.143 61.9406 258.443 61.9815 258.707C62.0265 258.996 61.9753 259.362 61.8278 259.802C61.7056 260.145 61.5145 260.565 61.2545 261.064C60.9946 261.562 60.6916 262.087 60.3455 262.639C59.9863 263.193 59.6087 263.717 59.2129 264.209C58.8039 264.703 58.3826 265.118 57.949 265.454C57.5155 265.791 57.0944 265.99 56.6858 266.053C56.3168 266.109 56.0358 266.037 55.8429 265.838C55.6388 265.653 55.5153 265.422 55.4723 265.146C55.4376 264.922 55.4469 264.678 55.5003 264.413C55.5536 264.149 55.6461 263.919 55.7777 263.723C55.9093 263.528 56.0805 263.414 56.2914 263.381C56.4232 263.361 56.5504 263.355 56.6731 263.363C56.7847 263.387 56.9261 263.385 57.0975 263.359C57.2688 263.333 57.468 263.269 57.695 263.167C57.9088 263.066 58.1398 262.903 58.3879 262.676C58.5875 262.484 58.8274 262.204 59.1078 261.837C59.3903 261.484 59.6721 261.083 59.9534 260.636C60.2347 260.188 60.4856 259.718 60.706 259.226C60.4519 258.806 60.131 258.39 59.743 257.977C59.3572 257.577 58.9622 257.206 58.5582 256.863C57.8283 256.247 57.1544 255.817 56.5365 255.574C55.9055 255.334 55.1748 255.277 54.3444 255.404C54.1731 255.43 54.0549 255.408 53.9899 255.337C53.9118 255.268 53.8594 255.148 53.8328 254.977C53.7735 254.595 53.8612 254.204 54.0959 253.803C54.3174 253.405 54.7445 253.158 55.3772 253.061Z" fill="#050505"/>
<path d="M61.2119 227.305C62.7251 231.912 67.0727 233.869 71.8951 233.37C71.8951 233.37 76.1521 232.403 77.9485 231.083C79.8917 229.655 80.421 225.688 80.421 225.688L80.9978 228.572L81.5746 231.456C81.5746 231.456 81.0991 233.982 80.0311 235.577C78.9632 237.172 76.2101 240.148 76.2101 240.148L85.3203 238.347L93.861 236.658C93.861 236.658 91.0688 235.323 89.2461 234.3C87.4705 233.303 84.4215 230.893 84.4215 230.893L82.6986 225.237C82.6986 225.237 84.9018 227.596 86.8489 228.233C89.0028 228.936 90.484 228.599 92.7525 228.156C95.9914 227.522 99.831 226.598 101.443 224.257C103.055 221.916 103.223 219.006 102.148 215.941C101.219 213.292 99.8018 211.566 97.473 210.324C95.1441 209.081 89.0821 209.802 89.0821 209.802C89.0821 209.802 88.3323 202.148 85.9508 200.064C83.5694 197.98 79.7676 197.376 76.1066 198.195C72.6448 198.969 70.1568 200.632 68.8693 203.441C67.5819 206.251 70.2925 213.517 70.2925 213.517C70.2925 213.517 63.4798 215.248 61.7067 217.94C59.9336 220.633 60.1496 224.071 61.2119 227.305Z" fill="#111110" stroke="#353333"/>
<path d="M166.622 71.0112C171.269 76.2592 167.346 84.194 167.346 84.194C167.346 84.194 178.909 84.994 179.854 94.2153C180.551 101.015 175.79 103.462 169.053 104.937C160.525 106.803 144.617 98.7147 144.617 98.7147C144.617 98.7147 144.576 75.3186 153.778 69.9377C158.826 66.9856 162.608 66.4793 166.622 71.0112Z" fill="#E25236" stroke="#EA4027"/>
<g filter="url(#filter5_d_263_64)">
<path d="M288.919 198.231C282.951 202.161 256.013 285.076 256.013 285.076L286.05 298.698C286.05 298.698 308.368 310.071 313.586 305.006C318.803 299.941 331.206 265.703 331.206 265.703L345.656 222.785L317.789 207.734C317.789 207.734 294.887 194.301 288.919 198.231Z" fill="#FDF9EF" stroke="#FDFAEF"/>
<path d="M284.402 251.292C283.421 255.129 285.624 258.417 289.257 260.232C289.257 260.232 292.697 261.474 294.555 261.372C296.565 261.263 298.706 258.778 298.706 258.778L297.829 261.015L296.953 263.251C296.953 263.251 295.492 264.771 294.027 265.387C292.562 266.003 289.29 266.812 289.29 266.812L296.534 269.654L303.325 272.317C303.325 272.317 301.945 270.152 301.112 268.635C300.3 267.156 299.217 264.139 299.217 264.139L300.517 259.489C300.517 259.489 301.024 262.093 302.118 263.4C303.328 264.847 304.525 265.279 306.327 265.99C308.899 267.004 312.025 268.089 314.208 267.204C316.39 266.32 317.804 264.399 318.408 261.816C318.931 259.584 318.697 257.766 317.604 255.871C316.51 253.977 311.903 251.759 311.903 251.759C311.903 251.759 314.78 246.173 314.024 243.678C313.268 241.183 310.849 239.067 307.895 237.991C305.103 236.973 302.603 237 300.442 238.351C298.281 239.701 296.962 245.898 296.962 245.898C296.962 245.898 291.374 244.037 288.922 245.09C286.469 246.143 285.091 248.598 284.402 251.292Z" fill="#E25236" stroke="#EA4027"/>
<path d="M293.235 217.615C292.839 217.305 292.538 216.922 292.334 216.465C292.131 216.021 291.997 215.553 291.93 215.061C291.865 214.582 291.831 214.126 291.827 213.695C291.683 213.626 291.541 213.548 291.4 213.46C291.266 213.377 291.138 213.288 291.015 213.192C290.578 212.85 290.255 212.461 290.047 212.023C289.839 211.586 289.756 211.136 289.798 210.674C289.847 210.218 290.022 209.783 290.324 209.37C290.744 208.819 291.303 208.492 292.001 208.388C292.589 208.298 293.023 208.363 293.303 208.582C293.447 208.694 293.516 208.83 293.511 208.992C293.511 209.146 293.479 209.356 293.413 209.624C293.304 210.1 293.22 210.6 293.161 211.126C293.115 211.65 293.092 212.193 293.093 212.754C293.639 212.928 294.204 212.924 294.787 212.742C295.37 212.56 295.871 212.188 296.29 211.625C296.646 211.156 296.848 210.693 296.897 210.236C296.946 209.78 296.876 209.357 296.686 208.966C296.508 208.574 296.242 208.24 295.886 207.962C295.511 207.668 295.12 207.484 294.716 207.41C294.324 207.335 293.948 207.322 293.59 207.371C293.237 207.414 292.936 207.476 292.686 207.555C292.627 207.575 292.568 207.573 292.509 207.549C292.451 207.525 292.405 207.5 292.37 207.473C292.268 207.393 292.228 207.296 292.251 207.183C292.281 207.074 292.344 206.958 292.44 206.836C292.615 206.598 292.863 206.408 293.185 206.264C293.52 206.118 293.893 206.036 294.304 206.016C294.722 206.003 295.153 206.064 295.596 206.202C296.039 206.339 296.469 206.571 296.886 206.896C297.726 207.553 298.177 208.328 298.237 209.222C298.297 210.115 297.979 211.021 297.282 211.939C296.703 212.707 296.039 213.259 295.29 213.597C294.548 213.941 293.798 214.075 293.042 214.001C293.08 214.317 293.157 214.641 293.272 214.972C293.382 215.311 293.531 215.626 293.722 215.917C293.912 216.209 294.13 216.451 294.376 216.643C294.56 216.787 294.737 216.892 294.906 216.958C295.081 217.029 295.183 217.075 295.21 217.097C295.265 217.139 295.268 217.219 295.221 217.336C295.175 217.465 295.114 217.577 295.04 217.673C294.81 217.966 294.528 218.087 294.195 218.035C293.862 217.995 293.542 217.855 293.235 217.615ZM292.002 212.1C291.998 211.613 292.031 211.177 292.101 210.792C292.171 210.407 292.264 210.001 292.378 209.574C292.394 209.454 292.372 209.371 292.31 209.323C292.214 209.248 292.071 209.241 291.881 209.301C291.691 209.361 291.527 209.486 291.39 209.675C291.151 209.994 291.087 210.379 291.198 210.828C291.315 211.283 291.583 211.707 292.002 212.1Z" fill="#EE4E2C"/>
<path d="M295.632 286.615C296.028 286.925 296.329 287.308 296.533 287.765C296.736 288.209 296.87 288.677 296.937 289.169C297.002 289.648 297.036 290.104 297.04 290.535C297.184 290.604 297.327 290.682 297.467 290.77C297.601 290.853 297.729 290.942 297.852 291.038C298.289 291.38 298.612 291.769 298.82 292.207C299.028 292.644 299.111 293.094 299.069 293.556C299.02 294.012 298.845 294.447 298.543 294.86C298.123 295.411 297.564 295.738 296.866 295.842C296.278 295.932 295.844 295.867 295.564 295.648C295.421 295.536 295.351 295.399 295.356 295.238C295.356 295.084 295.389 294.874 295.455 294.606C295.563 294.13 295.647 293.63 295.706 293.104C295.753 292.58 295.776 292.037 295.775 291.476C295.228 291.302 294.664 291.306 294.08 291.488C293.497 291.67 292.997 292.042 292.578 292.605C292.221 293.074 292.019 293.537 291.97 293.994C291.921 294.45 291.991 294.873 292.181 295.264C292.359 295.655 292.626 295.99 292.981 296.268C293.357 296.562 293.747 296.745 294.151 296.82C294.543 296.895 294.919 296.908 295.277 296.859C295.63 296.816 295.931 296.754 296.181 296.675C296.24 296.655 296.299 296.657 296.358 296.681C296.416 296.705 296.463 296.73 296.497 296.757C296.599 296.837 296.639 296.934 296.616 297.047C296.586 297.156 296.523 297.272 296.427 297.394C296.252 297.632 296.004 297.822 295.682 297.966C295.347 298.112 294.975 298.194 294.563 298.214C294.145 298.227 293.714 298.166 293.271 298.028C292.828 297.891 292.398 297.659 291.981 297.334C291.141 296.677 290.691 295.902 290.63 295.008C290.57 294.114 290.888 293.209 291.585 292.291C292.164 291.523 292.828 290.971 293.577 290.633C294.319 290.289 295.069 290.155 295.826 290.229C295.787 289.913 295.71 289.589 295.595 289.258C295.486 288.919 295.336 288.604 295.146 288.313C294.955 288.021 294.737 287.779 294.491 287.587C294.307 287.443 294.13 287.338 293.962 287.272C293.786 287.201 293.685 287.155 293.657 287.133C293.603 287.091 293.599 287.011 293.646 286.894C293.692 286.765 293.753 286.653 293.827 286.557C294.057 286.264 294.339 286.143 294.673 286.195C295.005 286.235 295.325 286.375 295.632 286.615ZM296.865 292.13C296.869 292.617 296.836 293.053 296.766 293.438C296.696 293.823 296.604 294.229 296.489 294.656C296.473 294.776 296.496 294.859 296.557 294.907C296.653 294.982 296.796 294.989 296.986 294.929C297.176 294.869 297.34 294.744 297.477 294.555C297.716 294.236 297.78 293.851 297.67 293.402C297.552 292.947 297.284 292.523 296.865 292.13Z" fill="#EE4E2C"/>
</g>
<defs>
<filter id="filter0_d_263_64" x="146.932" y="174.108" width="77.541" height="71.6978" filterUnits="userSpaceOnUse" color-interpolation-filters="sRGB">
<feFlood flood-opacity="0" result="BackgroundImageFix"/>
<feColorMatrix in="SourceAlpha" type="matrix" values="0 0 0 0 0 0 0 0 0 0 0 0 0 0 0 0 0 0 127 0" result="hardAlpha"/>
<feOffset dy="4"/>
<feGaussianBlur stdDeviation="2"/>
<feComposite in2="hardAlpha" operator="out"/>
<feColorMatrix type="matrix" values="0 0 0 0 0 0 0 0 0 0 0 0 0 0 0 0 0 0 0.25 0"/>
<feBlend mode="normal" in2="BackgroundImageFix" result="effect1_dropShadow_263_64"/>
<feBlend mode="normal" in="SourceGraphic" in2="effect1_dropShadow_263_64" result="shape"/>
</filter>
<filter id="filter1_d_263_64" x="92.9504" y="31.8004" width="133.324" height="122.586" filterUnits="userSpaceOnUse" color-interpolation-filters="sRGB">
<feFlood flood-opacity="0" result="BackgroundImageFix"/>
<feColorMatrix in="SourceAlpha" type="matrix" values="0 0 0 0 0 0 0 0 0 0 0 0 0 0 0 0 0 0 127 0" result="hardAlpha"/>
<feOffset dy="4"/>
<feGaussianBlur stdDeviation="2"/>
<feComposite in2="hardAlpha" operator="out"/>
<feColorMatrix type="matrix" values="0 0 0 0 0 0 0 0 0 0 0 0 0 0 0 0 0 0 0.25 0"/>
<feBlend mode="normal" in2="BackgroundImageFix" result="effect1_dropShadow_263_64"/>
<feBlend mode="normal" in="SourceGraphic" in2="effect1_dropShadow_263_64" result="shape"/>
</filter>
<filter id="filter2_d_263_64" x="175.481" y="266.629" width="55.5437" height="72.9487" filterUnits="userSpaceOnUse" color-interpolation-filters="sRGB">
<feFlood flood-opacity="0" result="BackgroundImageFix"/>
<feColorMatrix in="SourceAlpha" type="matrix" values="0 0 0 0 0 0 0 0 0 0 0 0 0 0 0 0 0 0 127 0" result="hardAlpha"/>
<feOffset dy="4"/>
<feGaussianBlur stdDeviation="2"/>
<feComposite in2="hardAlpha" operator="out"/>
<feColorMatrix type="matrix" values="0 0 0 0 0.740385 0 0 0 0 0.621685 0 0 0 0 0.434264 0 0 0 0.42 0"/>
<feBlend mode="normal" in2="BackgroundImageFix" result="effect1_dropShadow_263_64"/>
<feBlend mode="normal" in="SourceGraphic" in2="effect1_dropShadow_263_64" result="shape"/>
</filter>
<filter id="filter3_d_263_64" x="242.763" y="126.538" width="43.4058" height="57.1292" filterUnits="userSpaceOnUse" color-interpolation-filters="sRGB">
<feFlood flood-opacity="0" result="BackgroundImageFix"/>
<feColorMatrix in="SourceAlpha" type="matrix" values="0 0 0 0 0 0 0 0 0 0 0 0 0 0 0 0 0 0 127 0" result="hardAlpha"/>
<feOffset dy="4"/>
<feGaussianBlur stdDeviation="2"/>
<feComposite in2="hardAlpha" operator="out"/>
<feColorMatrix type="matrix" values="0 0 0 0 0.740385 0 0 0 0 0.621685 0 0 0 0 0.434264 0 0 0 0.42 0"/>
<feBlend mode="normal" in2="BackgroundImageFix" result="effect1_dropShadow_263_64"/>
<feBlend mode="normal" in="SourceGraphic" in2="effect1_dropShadow_263_64" result="shape"/>
</filter>
<filter id="filter4_d_263_64" x="33.7405" y="156.388" width="93.3887" height="125.036" filterUnits="userSpaceOnUse" color-interpolation-filters="sRGB">
<feFlood flood-opacity="0" result="BackgroundImageFix"/>
<feColorMatrix in="SourceAlpha" type="matrix" values="0 0 0 0 0 0 0 0 0 0 0 0 0 0 0 0 0 0 127 0" result="hardAlpha"/>
<feOffset dy="4"/>
<feGaussianBlur stdDeviation="2"/>
<feComposite in2="hardAlpha" operator="out"/>
<feColorMatrix type="matrix" values="0 0 0 0 0 0 0 0 0 0 0 0 0 0 0 0 0 0 0.25 0"/>
<feBlend mode="normal" in2="BackgroundImageFix" result="effect1_dropShadow_263_64"/>
<feBlend mode="normal" in="SourceGraphic" in2="effect1_dropShadow_263_64" result="shape"/>
</filter>
<filter id="filter5_d_263_64" x="251.398" y="197.011" width="98.8662" height="117.794" filterUnits="userSpaceOnUse" color-interpolation-filters="sRGB">
<feFlood flood-opacity="0" result="BackgroundImageFix"/>
<feColorMatrix in="SourceAlpha" type="matrix" values="0 0 0 0 0 0 0 0 0 0 0 0 0 0 0 0 0 0 127 0" result="hardAlpha"/>
<feOffset dy="4"/>
<feGaussianBlur stdDeviation="2"/>
<feComposite in2="hardAlpha" operator="out"/>
<feColorMatrix type="matrix" values="0 0 0 0 0 0 0 0 0 0 0 0 0 0 0 0 0 0 0.25 0"/>
<feBlend mode="normal" in2="BackgroundImageFix" result="effect1_dropShadow_263_64"/>
<feBlend mode="normal" in="SourceGraphic" in2="effect1_dropShadow_263_64" result="shape"/>
</filter>
</defs>
</svg>
