<svg width="393" height="364" viewBox="0 0 393 364" fill="none" xmlns="http://www.w3.org/2000/svg">
<path d="M117.482 243.023L103.679 247.097C103.679 247.097 106.773 245.327 108.006 243.2C109.24 241.072 109.894 236.307 109.894 236.307C109.894 236.307 110.542 239.676 112.06 240.973C113.663 242.343 117.482 243.023 117.482 243.023Z" fill="#111110" stroke="#353333"/>
<g filter="url(#filter0_d_263_102)">
<path d="M134.966 126.507C132.356 131.845 75.5378 167.197 75.5378 167.197L65.5931 146.1C65.5931 146.1 57.3394 130.64 60.747 125.692C64.1547 120.744 87.5938 105.148 87.5938 105.148L116.995 86.4535L127.889 105.61C127.889 105.61 137.576 121.169 134.966 126.507Z" fill="#FDF9EF"/>
<path d="M134.966 126.507C132.356 131.845 75.5378 167.197 75.5378 167.197L65.5931 146.1C65.5931 146.1 57.3394 130.64 60.747 125.692C64.1547 120.744 87.5938 105.148 87.5938 105.148L116.995 86.4535L127.889 105.61C127.889 105.61 137.576 121.169 134.966 126.507Z" stroke="#FDFAEF"/>
</g>
<path d="M84.2146 136.565L89.8473 118.729L110.013 117.913L101.286 135.761L84.2146 136.565Z" fill="#E25236" stroke="#EA4027"/>
<path d="M109.81 97.3208C109.533 96.8406 109.393 96.3517 109.392 95.8541C109.384 95.3621 109.557 94.9699 109.911 94.6776C110.165 94.468 110.385 94.3866 110.57 94.4334C110.748 94.4857 110.868 94.5644 110.928 94.6695C110.963 94.7295 110.977 94.7958 110.969 94.8684C110.96 94.954 110.935 95.0572 110.897 95.1779C110.846 95.3636 110.829 95.616 110.845 95.9348C110.855 96.2592 110.966 96.6052 111.179 96.9728C111.409 97.3705 111.672 97.6297 111.969 97.7505C112.27 97.8787 112.561 97.827 112.842 97.5954C113.063 97.4134 113.195 97.1987 113.24 96.9514C113.289 96.7115 113.297 96.4777 113.264 96.25C113.205 95.9437 113.106 95.6267 112.966 95.299C112.938 95.2335 112.921 95.1699 112.915 95.1084C112.916 95.0413 112.945 94.9559 113.004 94.8522C113.099 94.6744 113.213 94.5303 113.346 94.42C113.42 94.3593 113.493 94.3322 113.566 94.3386C113.639 94.345 113.714 94.372 113.79 94.4194C113.937 94.5199 114.112 94.6252 114.314 94.7356C114.527 94.848 114.746 94.911 114.971 94.9247C115.201 94.9459 115.422 94.8683 115.636 94.6918C115.884 94.4878 115.998 94.2496 115.979 93.9773C115.97 93.707 115.897 93.4518 115.758 93.2117C115.619 92.9716 115.457 92.7843 115.27 92.6499C115.091 92.51 114.944 92.4096 114.83 92.3486C114.671 92.2798 114.573 92.2116 114.534 92.144C114.473 92.039 114.48 91.9226 114.554 91.7948C114.628 91.6671 114.709 91.5674 114.796 91.4957C114.909 91.4019 115.039 91.3447 115.185 91.324C115.342 91.3052 115.521 91.3408 115.721 91.4306C116.013 91.5439 116.262 91.7098 116.468 91.9282C116.677 92.1542 116.851 92.3873 116.99 92.6274C117.311 93.1826 117.437 93.7161 117.367 94.2278C117.305 94.7339 117.076 95.1497 116.682 95.4751C116.347 95.7509 115.976 95.9023 115.567 95.9294C115.158 95.9564 114.789 95.8898 114.459 95.7296C114.591 96.197 114.591 96.6405 114.458 97.0602C114.33 97.4873 114.068 97.8636 113.674 98.189C113.239 98.5475 112.78 98.7436 112.296 98.7773C111.81 98.8239 111.35 98.7209 110.918 98.4682C110.479 98.221 110.109 97.8385 109.81 97.3208Z" fill="#EE4E2C"/>
<path d="M82.5915 158.326C82.8691 158.807 83.0085 159.296 83.0099 159.793C83.0179 160.285 82.8447 160.677 82.4904 160.97C82.2363 161.179 82.0168 161.261 81.8318 161.214C81.6534 161.161 81.5339 161.083 81.4731 160.978C81.4384 160.918 81.4248 160.851 81.4322 160.779C81.4419 160.693 81.4662 160.59 81.5051 160.469C81.5556 160.284 81.5727 160.031 81.5562 159.712C81.5464 159.388 81.4353 159.042 81.2227 158.674C80.9928 158.277 80.7294 158.017 80.4325 157.897C80.1313 157.768 79.8403 157.82 79.5595 158.052C79.3389 158.234 79.2063 158.448 79.1617 158.696C79.1127 158.936 79.1047 159.169 79.1376 159.397C79.1962 159.703 79.2955 160.02 79.4356 160.348C79.4636 160.414 79.4806 160.477 79.4866 160.539C79.4859 160.606 79.4562 160.691 79.3977 160.795C79.303 160.973 79.1888 161.117 79.0551 161.227C78.9816 161.288 78.9084 161.315 78.8356 161.309C78.7628 161.302 78.688 161.275 78.6112 161.228C78.4642 161.127 78.2898 161.022 78.0877 160.912C77.8747 160.799 77.6556 160.736 77.4304 160.722C77.2009 160.701 76.9792 160.779 76.7653 160.955C76.5179 161.159 76.4039 161.398 76.423 161.67C76.4312 161.94 76.5047 162.195 76.6435 162.436C76.7823 162.676 76.9448 162.863 77.1311 162.997C77.3108 163.137 77.4577 163.238 77.5719 163.299C77.7302 163.367 77.8289 163.436 77.8679 163.503C77.9286 163.608 77.9219 163.725 77.8476 163.852C77.7734 163.98 77.6928 164.08 77.6059 164.152C77.4922 164.245 77.3624 164.303 77.2164 164.323C77.0594 164.342 76.8808 164.306 76.6808 164.217C76.3882 164.103 76.1393 163.937 75.934 163.719C75.7244 163.493 75.5502 163.26 75.4114 163.02C75.0904 162.465 74.9646 161.931 75.0342 161.419C75.097 160.913 75.3256 160.497 75.7201 160.172C76.0543 159.896 76.4259 159.745 76.8348 159.718C77.2438 159.691 77.613 159.757 77.9426 159.918C77.8107 159.45 77.811 159.007 77.9436 158.587C78.0718 158.16 78.3332 157.784 78.7276 157.458C79.1622 157.1 79.6215 156.904 80.1056 156.87C80.592 156.823 81.0514 156.926 81.4839 157.179C81.923 157.426 82.2922 157.809 82.5915 158.326Z" fill="#EE4E2C"/>
<g filter="url(#filter1_d_263_102)">
<path d="M147.254 -16.9575C142.516 -7.26651 39.4257 56.947 39.4257 56.947L21.404 18.6611C21.404 18.6611 6.44528 -9.39405 12.6303 -18.3777C18.8152 -27.3614 61.3435 -55.6898 61.3435 -55.6898L114.689 -89.6454L134.433 -54.8835C134.433 -54.8835 151.993 -26.6484 147.254 -16.9575Z" fill="#FDF9EF"/>
<path d="M147.254 -16.9575C142.516 -7.26651 39.4257 56.947 39.4257 56.947L21.404 18.6611C21.404 18.6611 6.44528 -9.39405 12.6303 -18.3777C18.8152 -27.3614 61.3435 -55.6898 61.3435 -55.6898L114.689 -89.6454L134.433 -54.8835C134.433 -54.8835 151.993 -26.6484 147.254 -16.9575Z" stroke="#FDFAEF"/>
</g>
<path d="M51.8523 37.5278C51.2107 36.2506 50.6013 35.2245 50.024 34.4497C49.4735 33.6811 48.9431 33.3038 48.4329 33.3176C48.292 33.318 48.0999 33.3565 47.8564 33.4334C47.613 33.5103 47.4058 33.6125 47.2348 33.7401C46.7048 34.1357 46.4836 34.6547 46.5712 35.297C46.626 36.4356 46.6493 37.5584 46.6412 38.6653C46.6331 39.7722 46.5316 40.8571 46.3368 41.9199C46.0148 43.7591 45.5119 44.9339 44.8281 45.4443C44.4861 45.6996 44.136 45.7512 43.7776 45.5993C43.4193 45.4474 43.0965 45.0856 42.8092 44.5136C42.5889 44.0752 42.4008 43.5603 42.2449 42.969C42.0985 42.3968 42.0236 41.8499 42.0201 41.3283C42.0249 41.0102 42.0221 40.7239 42.0118 40.4695C41.994 40.2468 41.9468 40.0593 41.8702 39.9068C41.7458 39.6589 41.5389 39.5513 41.2496 39.5837C40.9603 39.6162 40.6875 39.7281 40.431 39.9195C40.1404 40.1364 39.9014 40.4328 39.714 40.8085C39.5192 41.2161 39.4047 41.7602 39.3705 42.441C39.3288 43.1536 39.3901 43.9073 39.5543 44.7021C39.711 45.5288 39.9808 46.3234 40.3638 47.0859C40.9671 48.2869 41.7204 49.0614 42.6239 49.4093C43.5198 49.789 44.4208 49.6407 45.3269 48.9644C45.9081 48.5305 46.4005 47.9664 46.8039 47.2721C47.1903 46.5906 47.4955 45.8647 47.7198 45.0944C48.0781 43.9359 48.302 42.7203 48.3915 41.4478C48.4809 40.1753 48.4908 39.0016 48.4209 37.9266C48.6008 38.2379 48.819 38.6255 49.0755 39.0893C49.3149 39.5659 49.5064 39.9472 49.65 40.2331C50.215 41.3579 50.5317 42.2224 50.6001 42.8266C50.6515 43.4435 50.6197 43.9652 50.5048 44.3917C50.3975 44.7864 50.3821 45.0599 50.4587 45.2125C50.5641 45.4222 50.8062 45.5298 51.185 45.5353C51.5564 45.5726 51.9729 45.419 52.4345 45.0745C53.3234 44.4109 53.6947 43.4654 53.5483 42.238C53.3943 41.0423 52.829 39.4723 51.8523 37.5278Z" fill="#E25236"/>
<g filter="url(#filter2_d_263_102)">
<path d="M85.4981 210.404C82.8881 215.742 89.8791 282.294 89.8791 282.294L112.637 277.187C112.637 277.187 129.907 274.207 131.719 268.479C133.531 262.752 131.447 234.675 131.447 234.675L128.146 199.991L106.337 203.156C106.337 203.156 88.1082 205.066 85.4981 210.404Z" fill="#FDF9EF"/>
<path d="M85.4981 210.404C82.8881 215.742 89.8791 282.294 89.8791 282.294L112.637 277.187C112.637 277.187 129.907 274.207 131.719 268.479C133.531 262.752 131.447 234.675 131.447 234.675L128.146 199.991L106.337 203.156C106.337 203.156 88.1082 205.066 85.4981 210.404Z" stroke="#FDFAEF"/>
</g>
<path d="M123.557 213.187C123.313 213.23 123.104 213.162 122.931 212.983C122.765 212.796 122.604 212.472 122.447 212.011C122.368 211.785 122.301 211.564 122.246 211.35C122.199 211.126 122.164 210.908 122.14 210.696C122.038 210.874 121.943 210.998 121.856 211.069C121.777 211.131 121.659 211.175 121.502 211.202C121.115 211.269 120.705 211.335 120.272 211.402C119.838 211.461 119.452 211.516 119.113 211.566C119.097 211.713 119.081 211.864 119.065 212.018C119.057 212.164 119.053 212.308 119.053 212.452C119.053 212.58 119.057 212.708 119.064 212.834C119.08 212.96 119.092 213.081 119.1 213.2C119.123 213.42 119.036 213.615 118.839 213.785C118.642 213.955 118.397 214.065 118.106 214.115C117.853 214.159 117.727 214.069 117.727 213.845C117.728 213.709 117.763 213.499 117.834 213.214C117.874 213.024 117.906 212.862 117.929 212.73C117.953 212.59 117.965 212.48 117.965 212.4C117.965 212.176 117.898 212.035 117.765 211.979C117.654 211.934 117.599 211.859 117.599 211.755C117.599 211.659 117.619 211.54 117.659 211.397C117.706 211.253 117.765 211.119 117.836 210.994C117.907 210.862 117.975 210.767 118.038 210.708C118.093 210.666 118.16 210.627 118.239 210.589C118.318 210.551 118.416 210.518 118.534 210.49C118.843 209.541 119.186 208.71 119.565 207.997C119.952 207.274 120.363 206.699 120.796 206.273C121.23 205.838 121.672 205.582 122.121 205.504C122.397 205.457 122.598 205.518 122.724 205.688C122.85 205.85 122.913 206.152 122.913 206.592L122.912 207.132C122.911 207.94 122.97 208.673 123.088 209.333C123.205 209.993 123.351 210.519 123.524 210.914C123.697 211.332 123.937 211.658 124.244 211.893C124.339 211.957 124.402 212.018 124.433 212.077C124.464 212.127 124.48 212.184 124.48 212.248C124.48 212.368 124.433 212.497 124.338 212.633C124.251 212.768 124.137 212.887 123.995 212.992C123.853 213.096 123.707 213.162 123.557 213.187ZM119.469 210.257C119.855 210.174 120.194 210.104 120.486 210.046C120.777 209.979 121.022 209.929 121.219 209.895L122.047 209.752C122.031 209.531 122.016 209.298 122 209.053C121.992 208.806 121.989 208.547 121.989 208.275L121.99 207.579C121.99 207.347 121.962 207.199 121.907 207.137C121.86 207.065 121.765 207.041 121.623 207.066C121.237 207.132 120.851 207.455 120.464 208.034C120.077 208.612 119.745 209.353 119.469 210.257Z" fill="#171717"/>
<path d="M99.2652 271.576C99.0195 271.61 98.8065 271.743 98.6262 271.975C98.4536 272.214 98.2811 272.588 98.1087 273.098C98.0226 273.348 97.9486 273.59 97.8867 273.821C97.8326 274.06 97.7905 274.288 97.7606 274.508C97.6621 274.362 97.5701 274.267 97.4845 274.223C97.4066 274.186 97.2884 274.178 97.1299 274.2C96.7416 274.254 96.3294 274.315 95.8933 274.383C95.457 274.459 95.0683 274.525 94.7273 274.58C94.7156 274.438 94.704 274.292 94.6924 274.142C94.6886 273.999 94.6888 273.856 94.6929 273.712C94.6965 273.584 94.7042 273.456 94.7157 273.327C94.7352 273.197 94.7507 273.071 94.762 272.95C94.7922 272.723 94.7102 272.555 94.5159 272.446C94.3217 272.338 94.0779 272.303 93.7847 272.344C93.5311 272.379 93.4011 272.508 93.3947 272.732C93.3908 272.868 93.4207 273.067 93.4842 273.329C93.5186 273.508 93.5459 273.659 93.566 273.784C93.5859 273.917 93.5947 274.023 93.5924 274.103C93.586 274.327 93.5143 274.488 93.3773 274.587C93.2645 274.666 93.2066 274.757 93.2037 274.861C93.2009 274.957 93.2174 275.071 93.2532 275.201C93.2968 275.33 93.3527 275.446 93.4209 275.548C93.4888 275.658 93.5537 275.733 93.6158 275.772C93.6703 275.797 93.7369 275.815 93.8154 275.828C93.894 275.842 93.9926 275.844 94.1113 275.835C94.3948 276.688 94.7175 277.413 95.0793 278.008C95.4489 278.61 95.8467 279.057 96.2725 279.349C96.6981 279.648 97.1367 279.767 97.5885 279.705C97.8658 279.667 98.0707 279.543 98.2029 279.333C98.335 279.132 98.4073 278.811 98.4199 278.371L98.4353 277.832C98.4583 277.024 98.539 276.272 98.6773 275.576C98.8156 274.88 98.978 274.308 99.1644 273.86C99.3515 273.388 99.6038 272.987 99.9211 272.656C100.018 272.563 100.084 272.483 100.117 272.414C100.151 272.354 100.168 272.292 100.17 272.228C100.174 272.108 100.129 271.994 100.038 271.888C99.954 271.78 99.8419 271.696 99.7016 271.635C99.5612 271.575 99.4157 271.555 99.2652 271.576ZM95.0483 275.778C95.4362 275.74 95.7766 275.705 96.0696 275.673C96.3624 275.648 96.6078 275.622 96.8059 275.595L97.6381 275.48C97.6158 275.706 97.5932 275.945 97.5703 276.195C97.5553 276.444 97.5439 276.704 97.5361 276.976L97.5163 277.672C97.5096 277.904 97.4776 278.059 97.42 278.139C97.3702 278.225 97.274 278.279 97.1313 278.298C96.743 278.352 96.362 278.15 95.9883 277.691C95.6146 277.233 95.3012 276.595 95.0483 275.778Z" fill="#050505"/>
<path d="M104.533 241.073C107.625 240.333 109.712 235.899 109.712 235.899C109.712 235.899 112.196 238.804 115.928 238.348C119.889 237.864 121.336 232.227 119.644 229.357C116.414 223.879 107.213 220.523 107.213 220.523C107.213 220.523 99.7798 230.635 99.6583 236.219C99.5834 239.662 100.39 242.063 104.533 241.073Z" fill="#111110" stroke="#353333"/>
<g filter="url(#filter3_d_263_102)">
<path d="M172.657 28.1101C170.693 32.126 175.6 82.0232 175.6 82.0232L192.54 78.0927C192.54 78.0927 205.392 75.7819 206.765 71.4769C208.137 67.172 206.71 46.1179 206.71 46.1179L204.407 20.112L188.181 22.5822C188.181 22.5822 174.62 24.0943 172.657 28.1101Z" fill="#FDF9EF"/>
<path d="M172.657 28.1101C170.693 32.126 175.6 82.0232 175.6 82.0232L192.54 78.0927C192.54 78.0927 205.392 75.7819 206.765 71.4769C208.137 67.172 206.71 46.1179 206.71 46.1179L204.407 20.112L188.181 22.5822C188.181 22.5822 174.62 24.0943 172.657 28.1101Z" stroke="#FDFAEF"/>
</g>
<path d="M201.554 34.445C201.31 34.4889 201.102 34.4224 200.93 34.2455C200.766 34.0592 200.607 33.7362 200.453 33.2765C200.376 33.0507 200.311 32.8307 200.257 32.6166C200.211 32.3931 200.177 32.1755 200.155 31.9637C200.052 32.1421 199.957 32.2671 199.87 32.3387C199.79 32.4008 199.672 32.446 199.515 32.4743C199.129 32.5437 198.72 32.6132 198.286 32.6831C197.854 32.7449 197.468 32.8022 197.129 32.855C197.113 33.0019 197.096 33.1527 197.079 33.3075C197.07 33.4529 197.065 33.5976 197.064 33.7416C197.063 33.8696 197.067 33.9969 197.074 34.1235C197.088 34.2487 197.099 34.3705 197.107 34.4891C197.129 34.7089 197.041 34.9044 196.843 35.0758C196.645 35.2472 196.401 35.359 196.109 35.4114C195.857 35.4567 195.732 35.3673 195.734 35.1433C195.735 35.0073 195.771 34.797 195.844 34.5122C195.885 34.3212 195.917 34.1595 195.942 34.0273C195.966 33.887 195.979 33.7769 195.979 33.6969C195.981 33.4729 195.915 33.3329 195.782 33.277C195.672 33.2328 195.617 33.1587 195.618 33.0547C195.619 32.9587 195.639 32.8392 195.679 32.6961C195.728 32.5516 195.787 32.417 195.859 32.2923C195.931 32.1595 195.998 32.0635 196.061 32.0042C196.117 31.9623 196.184 31.9223 196.263 31.8841C196.342 31.846 196.44 31.8123 196.558 31.7831C196.872 30.8319 197.219 29.9984 197.601 29.2825C197.992 28.5572 198.405 27.9796 198.84 27.5498C199.275 27.112 199.718 26.8527 200.166 26.7721C200.442 26.7226 200.642 26.7825 200.767 26.9518C200.892 27.1132 200.952 27.4139 200.949 27.8539L200.946 28.3939C200.94 29.2018 200.995 29.9352 201.108 30.594C201.222 31.2527 201.364 31.7785 201.534 32.1714C201.704 32.5883 201.942 32.9131 202.247 33.1459C202.341 33.2089 202.404 33.2696 202.435 33.328C202.466 33.3783 202.481 33.4355 202.481 33.4995C202.48 33.6195 202.432 33.748 202.336 33.8849C202.249 34.0205 202.134 34.141 201.992 34.2465C201.85 34.3519 201.704 34.4181 201.554 34.445ZM197.492 31.5434C197.878 31.4581 198.217 31.3852 198.508 31.3249C198.799 31.2565 199.044 31.2047 199.24 31.1693L200.067 31.0207C200.053 30.7996 200.039 30.5664 200.025 30.3212C200.018 30.0747 200.016 29.8154 200.018 29.5434L200.023 28.8474C200.024 28.6154 199.998 28.4684 199.943 28.4063C199.896 28.3348 199.802 28.3117 199.66 28.3372C199.275 28.4065 198.887 28.7319 198.498 29.3132C198.109 29.8945 197.773 30.6379 197.492 31.5434Z" fill="#171717"/>
<path d="M183.43 69.325C183.184 69.3606 182.971 69.495 182.789 69.7281C182.616 69.9681 182.442 70.3434 182.267 70.8541C182.179 71.1054 182.104 71.347 182.041 71.5789C181.986 71.8177 181.942 72.0467 181.911 72.266C181.814 72.121 181.722 72.0269 181.637 71.9835C181.56 71.947 181.442 71.9403 181.283 71.9632C180.895 72.0195 180.484 72.0831 180.048 72.1542C179.612 72.2334 179.223 72.3016 178.883 72.3589C178.872 72.2173 178.861 72.0717 178.85 71.9221C178.847 71.7793 178.848 71.636 178.853 71.492C178.858 71.3641 178.866 71.2356 178.878 71.1066C178.898 70.9763 178.915 70.8507 178.927 70.7296C178.958 70.5023 178.877 70.335 178.684 70.2278C178.49 70.1206 178.247 70.0882 177.954 70.1306C177.701 70.1674 177.57 70.2977 177.563 70.5215C177.558 70.6575 177.587 70.8562 177.649 71.1177C177.682 71.2958 177.709 71.4472 177.728 71.5716C177.747 71.7041 177.755 71.8103 177.752 71.8903C177.745 72.1142 177.672 72.2758 177.535 72.3753C177.422 72.4553 177.364 72.5473 177.36 72.6512C177.357 72.7472 177.373 72.8603 177.408 72.9904C177.451 73.1195 177.506 73.2348 177.573 73.3364C177.64 73.446 177.705 73.5202 177.766 73.559C177.821 73.5829 177.887 73.6012 177.965 73.6137C178.044 73.6262 178.142 73.6278 178.261 73.6186C178.539 74.4693 178.857 75.1909 179.215 75.7835C179.581 76.3829 179.975 76.8269 180.399 77.1156C180.822 77.4122 181.259 77.5279 181.71 77.4624C181.987 77.4223 182.193 77.2971 182.326 77.0868C182.459 76.8846 182.533 76.5636 182.548 76.1238L182.566 75.5841C182.594 74.7766 182.678 74.0244 182.82 73.3276C182.962 72.6308 183.128 72.0579 183.316 71.6089C183.506 71.1359 183.76 70.7331 184.078 70.4005C184.176 70.3068 184.242 70.2256 184.276 70.1571C184.309 70.0965 184.327 70.0343 184.329 69.9703C184.333 69.8504 184.29 69.7373 184.199 69.6312C184.116 69.5239 184.005 69.4406 183.865 69.3813C183.725 69.322 183.58 69.3032 183.43 69.325ZM179.196 73.5546C179.584 73.5143 179.924 73.477 180.217 73.4425C180.509 73.416 180.754 73.3884 180.952 73.3597L181.783 73.2392C181.76 73.4654 181.736 73.7036 181.712 73.9537C181.695 74.2027 181.683 74.4631 181.673 74.735L181.65 75.4306C181.642 75.6624 181.609 75.8184 181.551 75.8984C181.501 75.9852 181.404 76.0389 181.262 76.0596C180.874 76.1158 180.495 75.9162 180.124 75.4608C179.754 75.0053 179.444 74.3699 179.196 73.5546Z" fill="#050505"/>
<path d="M187.159 55.8699C189.46 55.3019 191.032 51.9659 191.032 51.9659C191.032 51.9659 192.865 54.1347 195.642 53.7761C198.588 53.3956 199.689 49.1607 198.444 47.0149C196.066 42.9194 189.241 40.4423 189.241 40.4423C189.241 40.4423 183.671 48.0601 183.556 52.2504C183.485 54.8334 184.074 56.6313 187.159 55.8699Z" fill="#111110" stroke="#353333"/>
<g filter="url(#filter4_d_263_102)">
<path d="M-61.0174 91.6515C-65.756 101.342 -53.1285 222.138 -53.1285 222.138L-11.8451 212.85C-11.8451 212.85 19.4831 207.427 22.7751 197.029C26.0672 186.631 22.3085 135.67 22.3085 135.67L16.3485 72.716L-23.2119 78.4799C-23.2119 78.4799 -56.2788 81.9606 -61.0174 91.6515Z" fill="#FDF9EF"/>
<path d="M-61.0174 91.6515C-65.756 101.342 -53.1285 222.138 -53.1285 222.138L-11.8451 212.85C-11.8451 212.85 19.4831 207.427 22.7751 197.029C26.0672 186.631 22.3085 135.67 22.3085 135.67L16.3485 72.716L-23.2119 78.4799C-23.2119 78.4799 -56.2788 81.9606 -61.0174 91.6515Z" stroke="#FDFAEF"/>
</g>
<path d="M7.51454 97.798C7.86174 97.7028 8.07378 97.5631 8.15068 97.379C8.22758 97.1949 8.22828 96.9637 8.1528 96.6854C7.87903 95.755 7.62387 94.7311 7.38733 93.6137C7.15078 92.4964 6.98442 91.3531 6.88823 90.1837C6.82264 89.3864 6.79631 88.6666 6.80924 88.0244C6.8093 87.3858 6.94766 86.75 7.22432 86.117C7.2692 86.0232 7.3082 85.9378 7.34131 85.8608C7.36047 85.774 7.36786 85.704 7.36349 85.6509C7.34928 85.4781 7.2456 85.3367 7.05246 85.2266C6.84537 85.1067 6.60831 85.0222 6.34129 84.9731C6.07427 84.924 5.82503 84.9312 5.59357 84.9946C5.28495 85.0792 5.07509 85.2454 4.96399 85.4933C4.84003 85.7447 4.7783 86.0333 4.77882 86.3593C4.77824 86.672 4.79107 86.9878 4.8173 87.3067C4.84354 87.6256 4.89234 87.9791 4.9637 88.3672C5.02112 88.7455 5.08825 89.162 5.16508 89.6165C5.27965 90.2101 5.39915 90.8636 5.52356 91.5768C5.64688 92.2768 5.74079 93.0188 5.80528 93.8028C5.87851 94.6931 5.90648 95.4328 5.88918 96.0218C5.8708 96.5975 5.85585 96.9753 5.84434 97.1551C5.82435 97.3916 5.90449 97.5667 6.08477 97.6803C6.26506 97.7939 6.48707 97.8554 6.75081 97.8646C7.01564 97.8871 7.27022 97.8649 7.51454 97.798ZM0.16231 99.7724C0.676672 99.6314 1.16082 99.3628 1.61474 98.9666C2.05581 98.574 2.46459 98.1086 2.84111 97.5706C3.21762 97.0326 3.55228 96.4653 3.84508 95.8687C4.12502 95.2756 4.36693 94.6998 4.57081 94.1411C4.76183 93.586 4.8999 93.1066 4.98503 92.7028C5.07125 92.3123 5.10342 91.9841 5.08156 91.7183C5.05752 91.426 4.92568 91.1021 4.68605 90.7465C4.49265 90.4734 4.21663 90.155 3.85799 89.7913C3.49935 89.4276 3.09406 89.0563 2.64213 88.6774C2.17734 88.3021 1.70242 87.9635 1.21738 87.6616C0.719472 87.3632 0.228126 87.1446 -0.25666 87.0057C-0.741448 86.8669 -1.18316 86.852 -1.58179 86.9613C-1.94184 87.06 -2.18973 87.2434 -2.32546 87.5116C-2.47514 87.7701 -2.5385 88.0388 -2.51555 88.3179C-2.49696 88.5438 -2.43228 88.7706 -2.3215 88.9984C-2.21072 89.2262 -2.07107 89.4054 -1.90255 89.5358C-1.73403 89.6663 -1.5469 89.7033 -1.34116 89.6469C-1.21257 89.6117 -1.0915 89.5649 -0.977954 89.5066C-0.87836 89.4385 -0.744979 89.3816 -0.577811 89.3358C-0.410644 89.29 -0.208596 89.2686 0.0283325 89.2716C0.252402 89.2781 0.507107 89.3374 0.79245 89.4494C1.02417 89.5489 1.31389 89.7141 1.6616 89.9449C2.00821 90.1624 2.36508 90.4247 2.73221 90.7317C3.09934 91.0387 3.44293 91.3794 3.763 91.7536C3.62013 92.2548 3.41352 92.7802 3.14316 93.3299C2.8717 93.8663 2.58521 94.3796 2.28366 94.8699C1.73831 95.7532 1.20283 96.4367 0.677214 96.9204C0.138741 97.4077 -0.535555 97.7624 -1.34568 97.9844C-1.51284 98.0302 -1.61887 98.1001 -1.66374 98.1939C-1.72148 98.2913 -1.74324 98.4263 -1.72904 98.5991C-1.69734 98.9844 -1.52528 99.3177 -1.21287 99.599C-0.913319 99.8838 -0.454925 99.9415 0.16231 99.7724Z" fill="#050505"/>
<path d="M-41.6996 164.744C-40.452 170.347 -35.8331 172.388 -30.465 171.323C-30.465 171.323 -25.6779 169.727 -23.5741 167.917C-21.2985 165.959 -20.3504 160.966 -20.3504 160.966L-19.9784 164.508L-19.6063 168.05C-19.6063 168.05 -20.3629 171.242 -21.6878 173.328C-23.0128 175.413 -26.3243 179.376 -26.3243 179.376L-16.1043 176.295L-6.52316 173.407C-6.52316 173.407 -9.48241 171.999 -11.4002 170.891C-13.2685 169.811 -16.4126 167.087 -16.4126 167.087L-17.7954 160.196C-17.7954 160.196 -15.5802 162.934 -13.4895 163.548C-11.1768 164.228 -9.51115 163.672 -6.96669 162.911C-3.33385 161.824 0.988585 160.32 2.98264 157.254C4.9767 154.188 5.42823 150.545 4.52299 146.824C3.74065 143.608 2.33513 141.587 -0.121209 140.252C-2.57755 138.916 -9.3342 140.371 -9.3342 140.371C-9.3342 140.371 -9.45965 130.899 -11.8969 128.521C-14.3342 126.142 -18.4746 125.737 -22.5904 127.094C-26.4822 128.376 -29.3807 130.678 -31.0593 134.297C-32.7379 137.916 -30.4128 146.725 -30.4128 146.725C-30.4128 146.725 -38.0906 149.508 -40.2945 153.026C-42.4984 156.544 -42.5754 160.81 -41.6996 164.744Z" fill="#111110" stroke="#353333"/>
<path d="M88.9754 -39.7334C93.6233 -33.6184 88.5658 -23.3684 88.5658 -23.3684C88.5658 -23.3684 101.255 -23.432 101.452 -12.0249C101.597 -3.6133 96.1178 -0.127048 88.5474 2.32891C78.9641 5.4379 62.1487 -3.18475 62.1487 -3.18475C62.1487 -3.18475 64.2488 -32.3424 74.8981 -39.8932C80.7408 -44.036 84.9617 -45.0139 88.9754 -39.7334Z" fill="#E25236" stroke="#EA4027"/>
<g filter="url(#filter5_d_263_102)">
<path d="M212.284 107.619C205.337 113.065 168 218.883 168 218.883L199.902 233.106C199.902 233.106 223.491 245.234 229.714 238.443C235.937 231.651 252.766 187.839 252.766 187.839L272.651 133.019L243.276 116.815C243.276 116.815 219.231 102.173 212.284 107.619Z" fill="#FDF9EF" stroke="#FDFAEF"/>
<path d="M202.432 174.169C200.997 179.042 203.127 182.938 206.969 184.867C206.969 184.867 210.653 186.099 212.713 185.802C214.941 185.481 217.531 182.189 217.531 182.189L216.359 185.056L215.187 187.924C215.187 187.924 213.435 189.952 211.762 190.855C210.088 191.757 206.403 193.066 206.403 193.066L214.137 195.943L221.388 198.64C221.388 198.64 220.063 196.068 219.283 194.253C218.523 192.485 217.604 188.823 217.604 188.823L219.465 182.908C219.465 182.908 219.786 186.107 220.874 187.637C222.076 189.329 223.358 189.757 225.281 190.478C228.027 191.507 231.378 192.572 233.868 191.269C236.358 189.967 238.094 187.443 238.998 184.167C239.78 181.337 239.689 179.093 238.656 176.832C237.622 174.571 232.741 172.229 232.741 172.229C232.741 172.229 236.429 165.003 235.823 161.962C235.217 158.922 232.742 156.507 229.581 155.436C226.592 154.423 223.83 154.686 221.321 156.568C218.812 158.45 216.789 166.295 216.789 166.295C216.789 166.295 210.792 164.487 207.989 166.025C205.185 167.562 203.439 170.749 202.432 174.169Z" fill="#E25236" stroke="#EA4027"/>
<path d="M217.774 127.135C217.411 126.825 217.142 126.435 216.967 125.965C216.792 125.508 216.683 125.024 216.638 124.513C216.595 124.014 216.58 123.539 216.592 123.089C216.459 123.022 216.327 122.945 216.198 122.858C216.075 122.776 215.957 122.688 215.845 122.591C215.445 122.249 215.155 121.854 214.975 121.404C214.795 120.954 214.733 120.487 214.79 120.004C214.854 119.525 215.036 119.065 215.336 118.623C215.753 118.034 216.293 117.673 216.956 117.541C217.514 117.427 217.922 117.479 218.178 117.698C218.309 117.811 218.369 117.951 218.359 118.119C218.353 118.28 218.314 118.501 218.242 118.783C218.122 119.284 218.024 119.809 217.948 120.36C217.884 120.909 217.842 121.477 217.822 122.063C218.331 122.226 218.865 122.203 219.422 121.993C219.979 121.783 220.466 121.377 220.883 120.774C221.237 120.272 221.445 119.782 221.509 119.304C221.572 118.825 221.522 118.385 221.357 117.984C221.204 117.581 220.965 117.241 220.64 116.963C220.296 116.669 219.935 116.49 219.556 116.426C219.188 116.361 218.834 116.36 218.494 116.424C218.159 116.481 217.873 116.556 217.634 116.647C217.577 116.67 217.522 116.67 217.467 116.647C217.413 116.624 217.37 116.599 217.339 116.573C217.245 116.493 217.211 116.393 217.237 116.273C217.27 116.158 217.334 116.036 217.429 115.904C217.603 115.65 217.844 115.443 218.154 115.281C218.475 115.118 218.83 115.019 219.219 114.985C219.615 114.956 220.019 115.006 220.432 115.134C220.845 115.263 221.242 115.49 221.623 115.816C222.392 116.473 222.788 117.267 222.811 118.198C222.835 119.129 222.5 120.086 221.808 121.069C221.233 121.89 220.585 122.49 219.865 122.869C219.151 123.253 218.439 123.419 217.727 123.367C217.752 123.696 217.812 124.031 217.908 124.374C217.999 124.723 218.129 125.047 218.297 125.345C218.466 125.643 218.663 125.888 218.887 126.081C219.056 126.225 219.219 126.329 219.376 126.392C219.539 126.46 219.633 126.505 219.658 126.526C219.708 126.569 219.708 126.652 219.659 126.776C219.611 126.912 219.55 127.031 219.475 127.134C219.248 127.448 218.977 127.583 218.664 127.541C218.352 127.51 218.055 127.375 217.774 127.135ZM216.818 121.417C216.832 120.909 216.879 120.452 216.96 120.048C217.041 119.643 217.143 119.216 217.267 118.766C217.287 118.641 217.269 118.554 217.212 118.506C217.125 118.431 216.99 118.429 216.808 118.498C216.627 118.567 216.467 118.703 216.33 118.906C216.093 119.247 216.018 119.651 216.106 120.116C216.2 120.587 216.437 121.021 216.818 121.417Z" fill="#EE4E2C"/>
<path d="M209.082 221.415C209.444 221.725 209.713 222.115 209.889 222.585C210.063 223.042 210.173 223.526 210.217 224.037C210.261 224.536 210.276 225.011 210.263 225.461C210.397 225.528 210.528 225.605 210.658 225.692C210.781 225.774 210.898 225.862 211.011 225.959C211.411 226.301 211.701 226.696 211.881 227.146C212.061 227.596 212.122 228.063 212.065 228.547C212.002 229.025 211.82 229.485 211.52 229.927C211.102 230.516 210.562 230.877 209.9 231.009C209.341 231.123 208.934 231.071 208.678 230.852C208.546 230.74 208.486 230.599 208.497 230.431C208.502 230.27 208.541 230.049 208.614 229.767C208.734 229.266 208.832 228.741 208.907 228.19C208.971 227.641 209.013 227.073 209.033 226.487C208.524 226.324 207.991 226.347 207.434 226.557C206.876 226.767 206.389 227.173 205.973 227.776C205.619 228.278 205.41 228.768 205.347 229.247C205.283 229.725 205.334 230.165 205.499 230.566C205.652 230.969 205.891 231.309 206.216 231.587C206.559 231.881 206.921 232.06 207.3 232.124C207.667 232.189 208.021 232.19 208.361 232.126C208.696 232.069 208.983 231.994 209.222 231.903C209.278 231.88 209.334 231.88 209.388 231.903C209.443 231.926 209.485 231.951 209.517 231.977C209.61 232.058 209.644 232.157 209.618 232.277C209.586 232.392 209.522 232.515 209.427 232.646C209.253 232.9 209.011 233.107 208.702 233.269C208.381 233.432 208.025 233.531 207.636 233.565C207.241 233.594 206.837 233.544 206.423 233.416C206.01 233.288 205.613 233.06 205.232 232.734C204.463 232.077 204.067 231.283 204.044 230.352C204.021 229.421 204.355 228.464 205.047 227.482C205.623 226.66 206.271 226.06 206.991 225.681C207.704 225.297 208.417 225.131 209.128 225.183C209.103 224.854 209.043 224.519 208.947 224.176C208.857 223.827 208.727 223.503 208.558 223.205C208.39 222.907 208.193 222.662 207.968 222.469C207.799 222.325 207.637 222.221 207.48 222.158C207.317 222.09 207.223 222.045 207.198 222.024C207.148 221.981 207.147 221.898 207.196 221.774C207.245 221.638 207.306 221.519 207.38 221.416C207.608 221.102 207.878 220.967 208.191 221.009C208.504 221.04 208.8 221.175 209.082 221.415ZM210.038 227.133C210.024 227.641 209.976 228.098 209.895 228.502C209.815 228.907 209.712 229.334 209.588 229.784C209.569 229.909 209.587 229.996 209.643 230.044C209.73 230.119 209.865 230.121 210.047 230.052C210.229 229.983 210.388 229.847 210.525 229.644C210.763 229.303 210.837 228.899 210.75 228.434C210.656 227.963 210.419 227.529 210.038 227.133Z" fill="#EE4E2C"/>
</g>
<defs>
<filter id="filter0_d_263_102" x="55.4222" y="85.7498" width="84.4902" height="90.1682" filterUnits="userSpaceOnUse" color-interpolation-filters="sRGB">
<feFlood flood-opacity="0" result="BackgroundImageFix"/>
<feColorMatrix in="SourceAlpha" type="matrix" values="0 0 0 0 0 0 0 0 0 0 0 0 0 0 0 0 0 0 127 0" result="hardAlpha"/>
<feOffset dy="4"/>
<feGaussianBlur stdDeviation="2"/>
<feComposite in2="hardAlpha" operator="out"/>
<feColorMatrix type="matrix" values="0 0 0 0 0 0 0 0 0 0 0 0 0 0 0 0 0 0 0.25 0"/>
<feBlend mode="normal" in2="BackgroundImageFix" result="effect1_dropShadow_263_102"/>
<feBlend mode="normal" in="SourceGraphic" in2="effect1_dropShadow_263_102" result="shape"/>
</filter>
<filter id="filter1_d_263_102" x="6.63159" y="-90.3495" width="145.934" height="156.018" filterUnits="userSpaceOnUse" color-interpolation-filters="sRGB">
<feFlood flood-opacity="0" result="BackgroundImageFix"/>
<feColorMatrix in="SourceAlpha" type="matrix" values="0 0 0 0 0 0 0 0 0 0 0 0 0 0 0 0 0 0 127 0" result="hardAlpha"/>
<feOffset dy="4"/>
<feGaussianBlur stdDeviation="2"/>
<feComposite in2="hardAlpha" operator="out"/>
<feColorMatrix type="matrix" values="0 0 0 0 0 0 0 0 0 0 0 0 0 0 0 0 0 0 0.25 0"/>
<feBlend mode="normal" in2="BackgroundImageFix" result="effect1_dropShadow_263_102"/>
<feBlend mode="normal" in="SourceGraphic" in2="effect1_dropShadow_263_102" result="shape"/>
</filter>
<filter id="filter2_d_263_102" x="80.4146" y="199.42" width="56.5449" height="91.4843" filterUnits="userSpaceOnUse" color-interpolation-filters="sRGB">
<feFlood flood-opacity="0" result="BackgroundImageFix"/>
<feColorMatrix in="SourceAlpha" type="matrix" values="0 0 0 0 0 0 0 0 0 0 0 0 0 0 0 0 0 0 127 0" result="hardAlpha"/>
<feOffset dy="4"/>
<feGaussianBlur stdDeviation="2"/>
<feComposite in2="hardAlpha" operator="out"/>
<feColorMatrix type="matrix" values="0 0 0 0 0.740385 0 0 0 0 0.621685 0 0 0 0 0.434264 0 0 0 0.42 0"/>
<feBlend mode="normal" in2="BackgroundImageFix" result="effect1_dropShadow_263_102"/>
<feBlend mode="normal" in="SourceGraphic" in2="effect1_dropShadow_263_102" result="shape"/>
</filter>
<filter id="filter3_d_263_102" x="167.693" y="19.5376" width="44.1676" height="71.1013" filterUnits="userSpaceOnUse" color-interpolation-filters="sRGB">
<feFlood flood-opacity="0" result="BackgroundImageFix"/>
<feColorMatrix in="SourceAlpha" type="matrix" values="0 0 0 0 0 0 0 0 0 0 0 0 0 0 0 0 0 0 127 0" result="hardAlpha"/>
<feOffset dy="4"/>
<feGaussianBlur stdDeviation="2"/>
<feComposite in2="hardAlpha" operator="out"/>
<feColorMatrix type="matrix" values="0 0 0 0 0.740385 0 0 0 0 0.621685 0 0 0 0 0.434264 0 0 0 0.42 0"/>
<feBlend mode="normal" in2="BackgroundImageFix" result="effect1_dropShadow_263_102"/>
<feBlend mode="normal" in="SourceGraphic" in2="effect1_dropShadow_263_102" result="shape"/>
</filter>
<filter id="filter4_d_263_102" x="-66.5812" y="72.1455" width="95.2075" height="158.603" filterUnits="userSpaceOnUse" color-interpolation-filters="sRGB">
<feFlood flood-opacity="0" result="BackgroundImageFix"/>
<feColorMatrix in="SourceAlpha" type="matrix" values="0 0 0 0 0 0 0 0 0 0 0 0 0 0 0 0 0 0 127 0" result="hardAlpha"/>
<feOffset dy="4"/>
<feGaussianBlur stdDeviation="2"/>
<feComposite in2="hardAlpha" operator="out"/>
<feColorMatrix type="matrix" values="0 0 0 0 0 0 0 0 0 0 0 0 0 0 0 0 0 0 0.25 0"/>
<feBlend mode="normal" in2="BackgroundImageFix" result="effect1_dropShadow_263_102"/>
<feBlend mode="normal" in="SourceGraphic" in2="effect1_dropShadow_263_102" result="shape"/>
</filter>
<filter id="filter5_d_263_102" x="163.405" y="105.877" width="113.834" height="143.16" filterUnits="userSpaceOnUse" color-interpolation-filters="sRGB">
<feFlood flood-opacity="0" result="BackgroundImageFix"/>
<feColorMatrix in="SourceAlpha" type="matrix" values="0 0 0 0 0 0 0 0 0 0 0 0 0 0 0 0 0 0 127 0" result="hardAlpha"/>
<feOffset dy="4"/>
<feGaussianBlur stdDeviation="2"/>
<feComposite in2="hardAlpha" operator="out"/>
<feColorMatrix type="matrix" values="0 0 0 0 0 0 0 0 0 0 0 0 0 0 0 0 0 0 0.25 0"/>
<feBlend mode="normal" in2="BackgroundImageFix" result="effect1_dropShadow_263_102"/>
<feBlend mode="normal" in="SourceGraphic" in2="effect1_dropShadow_263_102" result="shape"/>
</filter>
</defs>
</svg>
