<svg width="454" height="384" viewBox="0 0 454 384" fill="none" xmlns="http://www.w3.org/2000/svg">
<g filter="url(#filter0_n_271_251)">
<path fill-rule="evenodd" clip-rule="evenodd" d="M200.222 349.002C200.222 349.002 196.71 347.494 191.908 347.889L191.21 353.566C186.527 356.448 176.284 353.048 175.826 351.964L176.391 347.37L172.887 348.002C172.343 348.1 171.803 348.236 171.292 348.441C166.614 350.319 166.398 352.932 169.977 356.577C166.647 358.833 166.148 360.575 165.422 363.108C165.208 363.852 164.976 364.665 164.646 365.579L162.799 374.153C166.945 378.459 170.291 380.223 178.186 382.18L182.728 381.751L187.388 380.363C194.517 389.165 200.482 392.182 212.359 396.354C213.758 396.678 215.122 396.995 216.453 397.305C237.488 402.2 250.471 405.221 270.995 400.569C276.854 402.265 286.844 402.69 289.952 401.031C293.431 399.468 293.943 397.951 292.13 394.057C286.774 389.978 283.445 389.522 273.997 389.036C262.259 381.939 240.051 370.873 240.051 370.873L240.039 370.87L235.713 369.641C231.413 368.419 222.57 366.142 214.646 364.488L207.91 361.653C210.017 362.71 212.166 363.625 214.433 364.444C207.068 366.587 203.673 367.857 200.759 370.412L195.113 366.932L189.467 363.452C194.235 360.38 197.051 359.108 202.235 358.408C201.748 358.095 201.26 357.773 200.769 357.44C200.177 356.114 200.35 355.265 201.216 353.806C202.598 350.566 200.222 349.002 200.222 349.002Z" fill="url(#paint0_linear_271_251)"/>
<path d="M189.467 363.452C194.235 360.38 197.051 359.108 202.235 358.408C204.131 359.627 206.003 360.698 207.91 361.653C202.798 363.668 199.972 364.813 195.113 366.932L189.467 363.452Z" fill="url(#paint1_linear_271_251)"/>
<path d="M214.433 364.444C207.068 366.587 203.673 367.857 200.759 370.412L195.113 366.932C199.972 364.813 202.798 363.668 207.91 361.653C210.017 362.71 212.166 363.625 214.433 364.444Z" fill="#630E0E"/>
<path d="M235.713 369.641C231.413 368.419 222.57 366.142 214.646 364.488M235.713 369.641L240.039 370.87M235.713 369.641C239.452 370.704 239.968 370.85 240.039 370.87M273.997 389.036C283.445 389.522 286.774 389.978 292.13 394.057C293.943 397.951 293.431 399.468 289.952 401.031C286.844 402.69 276.854 402.265 270.995 400.569M273.997 389.036C262.259 381.939 240.051 370.873 240.051 370.873M273.997 389.036C248.434 393.985 248.577 396.956 276.402 397.401C268.375 398.592 267.725 399.29 270.995 400.569M270.995 400.569C250.471 405.221 237.488 402.2 216.453 397.305C215.122 396.995 213.758 396.678 212.359 396.354C200.482 392.182 194.517 389.165 187.388 380.363M179.064 375.033L164.646 365.579M179.064 375.033L187.388 380.363M179.064 375.033L178.186 382.18M164.646 365.579L162.799 374.153C166.945 378.459 170.291 380.223 178.186 382.18M164.646 365.579C164.975 364.665 165.208 363.852 165.422 363.108C166.148 360.575 166.647 358.833 169.977 356.577C166.398 352.932 166.614 350.319 171.292 348.441M187.388 380.363L182.728 381.751L178.186 382.18M240.051 370.873L240.039 370.87M240.051 370.873C240.047 370.872 240.043 370.871 240.039 370.87M240.051 370.873C240.051 370.873 240.051 370.873 240.039 370.87M205.045 378.51C209.672 369.671 236.162 369.776 240.039 370.87M214.433 364.444C207.068 366.587 203.673 367.857 200.759 370.412L195.113 366.932M214.433 364.444C212.166 363.625 210.017 362.71 207.91 361.653M214.433 364.444C214.504 364.459 214.575 364.473 214.646 364.488M202.235 358.408C201.748 358.095 201.26 357.773 200.769 357.44C200.177 356.114 200.35 355.265 201.216 353.806C202.598 350.566 200.222 349.002 200.222 349.002C200.222 349.002 196.71 347.494 191.908 347.889L191.21 353.566C186.527 356.448 176.284 353.048 175.826 351.964L176.391 347.37L172.887 348.002M202.235 358.408C197.051 359.108 194.235 360.38 189.467 363.452L195.113 366.932M202.235 358.408C204.131 359.627 206.003 360.698 207.91 361.653M195.113 366.932C199.972 364.813 202.798 363.668 207.91 361.653M207.91 361.653L214.646 364.488M172.887 348.002C172.343 348.1 171.803 348.236 171.292 348.441M172.887 348.002C172.343 348.1 171.804 348.235 171.292 348.441" stroke="black" stroke-width="3"/>
</g>
<path d="M28.9984 184.338C32.7654 139.006 54.2897 68.4313 54.2897 68.4313C54.2897 68.4313 38.1123 73.8416 29.4943 79.2976C20.8762 84.7535 -37.4534 118.459 -37.4534 118.459L-48.8593 106.558C-48.8593 106.558 16.1813 73.8383 27.5106 66.3616C38.84 58.8849 44.1102 51.1865 57.2651 48.2512C80.1624 43.1421 114.79 68.431 114.79 68.431C114.79 68.431 120.894 81.3397 127.188 84.4718C133.482 87.6039 145.537 86.5417 145.537 86.5417C145.537 86.5417 153.806 94.8697 159.422 96.8904C165.039 98.9111 174.299 96.8904 174.299 96.8904L308.195 134.146V147.082L212.98 134.146C212.98 134.146 195.378 143.889 195.128 168.815C194.646 216.824 233.803 270.941 241.743 304.384C249.683 337.827 241.743 368.029 241.743 368.029C241.743 368.029 148.868 355.743 100.161 354.834C51.4546 353.925 -15.1375 357.163 -15.1375 357.163C-15.1375 357.163 20.3803 296.735 28.9984 262.989C37.6164 229.242 26.4555 214.938 28.9984 184.338Z" fill="url(#paint2_linear_271_251)" stroke="#111110" stroke-opacity="0.55"/>
<path d="M141.86 174.86C127.541 174.859 120.903 190.929 120.903 190.929C120.903 190.929 115.13 181.188 108.679 179.292C100.365 176.849 87.7224 186.496 87.7224 186.496C87.7224 186.496 83.6695 203.061 87.7224 210.323C97.6185 228.054 129.053 245.231 129.053 245.231C129.053 245.231 152.92 221.959 158.741 199.24C161.58 188.162 162.816 174.86 141.86 174.86Z" fill="#A41717" stroke="#630E0E"/>
<path d="M194.737 306.485C199.479 306.389 201.577 300.953 201.577 300.953C201.577 300.953 203.55 304.182 205.699 304.774C208.468 305.537 210.938 304.672 212.594 302.216C214.308 299.674 213.832 296.631 212.445 294.222C209.056 288.34 198.536 282.79 198.536 282.79C198.536 282.79 190.778 290.759 188.993 298.42C188.122 302.156 187.796 306.627 194.737 306.485Z" fill="#A41717" stroke="#630E0E"/>
<path d="M74.3973 132.297C69.659 132.073 67.2284 137.356 67.2284 137.356C67.2284 137.356 65.4596 134 63.3524 133.264C60.6366 132.315 58.1175 133.011 56.3125 135.351C54.4445 137.772 54.7302 140.84 55.9657 143.337C58.9825 149.436 69.1349 155.686 69.1349 155.686C69.1349 155.686 77.3718 148.258 79.6289 140.734C80.7295 137.064 81.3322 132.625 74.3973 132.297Z" fill="#A41717" stroke="#630E0E"/>
<g filter="url(#filter1_n_271_251)">
<path d="M163.915 115.762C158.453 113.03 147.106 106.043 145.415 99.9533C145.415 99.9533 117.724 101.272 112.642 85.9007C106.688 67.8941 134.843 37.8879 134.843 37.8879C134.843 37.8879 146.916 26.354 156.515 19.1512C166.114 11.9484 184.002 1 184.002 1C184.002 1 189.532 22.2974 190.874 36.1313C192.216 49.9653 190.874 71.8482 190.874 71.8482C190.874 71.8482 180.979 124.298 163.915 115.762Z" fill="#900606"/>
<path d="M163.915 115.762C158.453 113.03 147.106 106.043 145.415 99.9533C145.415 99.9533 117.724 101.272 112.642 85.9007C106.688 67.8941 134.843 37.8879 134.843 37.8879C134.843 37.8879 146.916 26.354 156.515 19.1512C166.114 11.9484 184.002 1 184.002 1C184.002 1 189.532 22.2974 190.874 36.1313C192.216 49.9653 190.874 71.8482 190.874 71.8482C190.874 71.8482 180.979 124.298 163.915 115.762Z" stroke="#111110" stroke-opacity="0.55"/>
</g>
<path d="M152.814 29.6911C167.521 27.8473 175.016 45.5016 175.016 45.5016C175.016 45.5016 183.367 37.4233 188.23 40.2319C193.293 43.1552 192.021 48.4932 191.402 56.039C190.783 63.5848 189.722 71.1053 185.059 78.8764C179.848 87.561 173.977 91.3818 166.03 95.269C158.082 99.1562 144.357 98.7842 144.357 98.7842C144.357 98.7842 124.799 33.2035 152.814 29.6911Z" fill="#D49781" stroke="#111110" stroke-opacity="0.55"/>
<path d="M165.501 40.8156C169.943 38.7071 175.016 47.2565 175.016 47.2565C175.016 47.2565 180.302 43.7434 182.416 45.4999C187.251 49.5163 185.059 58.9669 180.124 64.2367C174.972 69.7388 165.501 74.1905 165.501 74.1905C165.501 74.1905 160.215 64.2366 159.158 54.8683C158.87 52.3189 159.158 48.4273 159.158 48.4273C159.158 48.4273 158.101 44.3287 165.501 40.8156Z" fill="#900606" stroke="#111110" stroke-opacity="0.55"/>
<path d="M155.986 78.8738C160.744 77.1178 160.321 81.4501 160.744 82.3869C160.744 82.3869 165.518 80.1509 166.558 82.3869C167.581 84.5857 160.744 89.4138 160.744 89.4138L153.872 90.5842C153.872 90.5842 151.992 80.3482 155.986 78.8738Z" fill="#900606" stroke="#111110" stroke-opacity="0.55"/>
<path d="M82.1421 69.9452C74.0364 64.4178 68.1673 47.57 68.1673 47.57C68.1673 47.57 81.0607 47.9975 94.4502 53.7793C105.36 58.4904 118.254 67.7497 118.254 67.7497C118.254 67.7497 93.0037 77.3519 82.1421 69.9452Z" fill="#900606" stroke="#630E0E"/>
<path d="M196.439 121.656C188.755 116.147 183.218 99.314 183.218 99.314C183.218 99.314 195.004 100.959 208.157 105.463C220.419 109.662 228.849 112.767 228.849 112.767C228.849 112.767 206.735 129.037 196.439 121.656Z" fill="#900606" stroke="#630E0E"/>
<line x1="4.5" y1="-4.5" x2="169.843" y2="-4.5" transform="matrix(0.963828 -0.266525 0.264068 0.964504 -153 254.442)" stroke="#900606" stroke-width="9" stroke-linecap="round"/>
<g filter="url(#filter2_i_271_251)">
<path d="M379.353 58.4266C364.957 62.4414 354.554 71.0389 358.264 82.1046C361.554 91.9179 366.502 90.9006 366.502 90.9006L364.957 97.1103C364.957 97.1103 380.404 132.814 422.07 99.3155C434.896 89.0041 453 64.9688 453 64.9688L416.863 58.4266C416.863 58.4266 391.802 54.9544 379.353 58.4266Z" fill="#D9D9D9"/>
</g>
<path d="M379.353 58.4266C364.957 62.4414 354.554 71.0389 358.264 82.1046C361.554 91.9179 366.502 90.9006 366.502 90.9006L364.957 97.1103C364.957 97.1103 380.404 132.814 422.07 99.3155C434.896 89.0041 453 64.9688 453 64.9688L416.863 58.4266C416.863 58.4266 391.802 54.9544 379.353 58.4266Z" stroke="#C3BEC3"/>
<g filter="url(#filter3_i_271_251)">
<path d="M371.979 102.065C370.499 97.662 372.634 94.8216 372.634 94.8216C372.634 94.8216 250.587 133.005 177.499 158.467C104.41 183.928 -1.67542 225.216 -1.67542 225.216C-1.67542 225.216 -13.8799 218.633 -16.0917 211.763C-18.3034 204.892 -16.0918 192.1 -16.0918 192.1C-16.0918 192.1 95.0787 165.839 169.776 145.531C244.473 125.222 366.455 88.0948 366.455 88.0948C366.455 88.0948 362.506 85.5653 361.307 80.8504C358.886 71.3357 368.928 66.5654 378.297 63.7752C392.199 59.6354 400.541 62.0329 413.308 62.7401C426.076 63.4474 445.745 67.3973 445.745 67.3973C445.745 67.3973 425.135 91.3708 411.764 98.4433C398.393 105.516 376.537 115.632 371.979 102.065Z" fill="#900606"/>
</g>
<path d="M371.979 102.065C370.499 97.662 372.634 94.8216 372.634 94.8216C372.634 94.8216 250.587 133.005 177.499 158.467C104.41 183.928 -1.67542 225.216 -1.67542 225.216C-1.67542 225.216 -13.8799 218.633 -16.0917 211.763C-18.3034 204.892 -16.0918 192.1 -16.0918 192.1C-16.0918 192.1 95.0787 165.839 169.776 145.531C244.473 125.222 366.455 88.0948 366.455 88.0948C366.455 88.0948 362.506 85.5653 361.307 80.8504C358.886 71.3357 368.928 66.5654 378.297 63.7752C392.199 59.6354 400.541 62.0329 413.308 62.7401C426.076 63.4474 445.745 67.3973 445.745 67.3973C445.745 67.3973 425.135 91.3708 411.764 98.4433C398.393 105.516 376.537 115.632 371.979 102.065Z" stroke="#630E0E"/>
<g filter="url(#filter4_n_271_251)">
<path d="M315.591 103.09C315.591 103.09 315.774 94.531 319.071 91.1843C322.011 88.1992 328.887 87.8798 328.887 87.8798L334.171 86.864L342.944 91.049C342.944 91.049 343.158 86.2688 344.473 83.669C348.173 76.3507 352.128 103.051 352.128 103.051C352.128 103.051 344.385 112.795 337.704 116.352C331.024 119.91 317.914 121.27 317.914 121.27L305.495 171.439C305.495 171.439 288.472 165.224 284.084 157.232C279.696 149.24 281.241 131.762 281.241 131.762L315.591 103.09Z" fill="url(#paint3_linear_271_251)"/>
<path d="M315.591 103.09C315.591 103.09 315.774 94.531 319.071 91.1843C322.011 88.1992 328.887 87.8798 328.887 87.8798L334.171 86.864L342.944 91.049C342.944 91.049 343.158 86.2688 344.473 83.669C348.173 76.3507 352.128 103.051 352.128 103.051C352.128 103.051 344.385 112.795 337.704 116.352C331.024 119.91 317.914 121.27 317.914 121.27L305.495 171.439C305.495 171.439 288.472 165.224 284.084 157.232C279.696 149.24 281.241 131.762 281.241 131.762L315.591 103.09Z" stroke="#630E0E"/>
</g>
<g filter="url(#filter5_f_271_251)">
<line y1="-0.5" x2="12.4581" y2="-0.5" transform="matrix(0.0796122 0.996826 -0.996241 0.0866246 342.908 95.174)" stroke="#6D0F0F"/>
</g>
<g filter="url(#filter6_f_271_251)">
<line y1="-0.5" x2="12.4581" y2="-0.5" transform="matrix(0.0796122 0.996826 -0.996241 0.0866246 342.908 95.174)" stroke="#6D0F0F"/>
</g>
<g filter="url(#filter7_f_271_251)">
<line y1="-0.5" x2="12.4581" y2="-0.5" transform="matrix(0.0796122 0.996826 -0.996241 0.0866246 342.908 95.174)" stroke="#6D0F0F"/>
</g>
<g filter="url(#filter8_f_271_251)">
<line y1="-0.5" x2="12.4581" y2="-0.5" transform="matrix(0.0796122 0.996826 -0.996241 0.0866246 342.908 95.174)" stroke="#6D0F0F"/>
</g>
<g filter="url(#filter9_f_271_251)">
<line y1="-0.5" x2="12.4581" y2="-0.5" transform="matrix(0.0796122 0.996826 -0.996241 0.0866246 342.908 95.174)" stroke="#6D0F0F"/>
</g>
<g filter="url(#filter10_f_271_251)">
<line y1="-0.5" x2="12.4581" y2="-0.5" transform="matrix(0.0796122 0.996826 -0.996241 0.0866246 342.908 95.174)" stroke="#6D0F0F"/>
</g>
<g filter="url(#filter11_f_271_251)">
<line y1="-0.5" x2="12.4581" y2="-0.5" transform="matrix(0.0796122 0.996826 -0.996241 0.0866246 342.908 95.174)" stroke="#6D0F0F"/>
</g>
<g filter="url(#filter12_f_271_251)">
<line y1="-0.5" x2="12.4581" y2="-0.5" transform="matrix(0.0796122 0.996826 -0.996241 0.0866246 342.908 95.174)" stroke="#6D0F0F"/>
</g>
<g filter="url(#filter13_f_271_251)">
<line y1="-0.5" x2="12.4581" y2="-0.5" transform="matrix(0.0796122 0.996826 -0.996241 0.0866246 342.908 95.174)" stroke="#6D0F0F"/>
</g>
<g filter="url(#filter14_f_271_251)">
<line y1="-0.5" x2="12.4581" y2="-0.5" transform="matrix(0.0796122 0.996826 -0.996241 0.0866246 342.908 95.174)" stroke="#6D0F0F"/>
</g>
<g filter="url(#filter15_f_271_251)">
<line y1="-0.5" x2="12.4581" y2="-0.5" transform="matrix(0.0796122 0.996826 -0.996241 0.0866246 342.908 95.174)" stroke="#6D0F0F"/>
</g>
<g filter="url(#filter16_f_271_251)">
<line y1="-0.5" x2="12.4581" y2="-0.5" transform="matrix(0.0796122 0.996826 -0.996241 0.0866246 342.908 95.174)" stroke="#6D0F0F"/>
</g>
<g filter="url(#filter17_f_271_251)">
<line y1="-0.5" x2="12.4581" y2="-0.5" transform="matrix(0.0796122 0.996826 -0.996241 0.0866246 342.908 95.174)" stroke="#6D0F0F"/>
</g>
<g filter="url(#filter18_f_271_251)">
<line y1="-0.5" x2="19.7504" y2="-0.5" transform="matrix(-0.127604 0.991825 -0.990332 -0.138716 332.535 91.1083)" stroke="#6D0F0F"/>
</g>
<g filter="url(#filter19_f_271_251)">
<line y1="-0.5" x2="19.7504" y2="-0.5" transform="matrix(-0.127604 0.991825 -0.990332 -0.138716 332.535 91.1083)" stroke="#6D0F0F"/>
</g>
<g filter="url(#filter20_f_271_251)">
<line y1="-0.5" x2="19.7504" y2="-0.5" transform="matrix(-0.127604 0.991825 -0.990332 -0.138716 332.535 91.1083)" stroke="#6D0F0F"/>
</g>
<g filter="url(#filter21_f_271_251)">
<line y1="-0.5" x2="19.7504" y2="-0.5" transform="matrix(-0.127604 0.991825 -0.990332 -0.138716 332.535 91.1083)" stroke="#6D0F0F"/>
</g>
<g filter="url(#filter22_f_271_251)">
<line y1="-0.5" x2="19.7504" y2="-0.5" transform="matrix(-0.127604 0.991825 -0.990332 -0.138716 332.535 91.1083)" stroke="#6D0F0F"/>
</g>
<g filter="url(#filter23_f_271_251)">
<line y1="-0.5" x2="19.7504" y2="-0.5" transform="matrix(-0.127604 0.991825 -0.990332 -0.138716 332.535 91.1083)" stroke="#6D0F0F"/>
</g>
<g filter="url(#filter24_f_271_251)">
<line y1="-0.5" x2="19.7504" y2="-0.5" transform="matrix(-0.127604 0.991825 -0.990332 -0.138716 332.535 91.1083)" stroke="#6D0F0F"/>
</g>
<g filter="url(#filter25_f_271_251)">
<line y1="-0.5" x2="19.7504" y2="-0.5" transform="matrix(-0.127604 0.991825 -0.990332 -0.138716 332.535 91.1083)" stroke="#6D0F0F"/>
</g>
<g filter="url(#filter26_f_271_251)">
<line y1="-0.5" x2="19.7504" y2="-0.5" transform="matrix(-0.127604 0.991825 -0.990332 -0.138716 332.535 91.1083)" stroke="#6D0F0F"/>
</g>
<g filter="url(#filter27_f_271_251)">
<line y1="-0.5" x2="19.7504" y2="-0.5" transform="matrix(-0.127604 0.991825 -0.990332 -0.138716 332.535 91.1083)" stroke="#6D0F0F"/>
</g>
<g filter="url(#filter28_f_271_251)">
<line y1="-0.5" x2="19.7504" y2="-0.5" transform="matrix(-0.127604 0.991825 -0.990332 -0.138716 332.535 91.1083)" stroke="#6D0F0F"/>
</g>
<g filter="url(#filter29_f_271_251)">
<line y1="-0.5" x2="19.7504" y2="-0.5" transform="matrix(-0.127604 0.991825 -0.990332 -0.138716 332.535 91.1083)" stroke="#6D0F0F"/>
</g>
<g filter="url(#filter30_f_271_251)">
<line y1="-0.5" x2="19.7504" y2="-0.5" transform="matrix(-0.127604 0.991825 -0.990332 -0.138716 332.535 91.1083)" stroke="#6D0F0F"/>
</g>
<g filter="url(#filter31_f_271_251)">
<line y1="-0.5" x2="19.7504" y2="-0.5" transform="matrix(-0.127604 0.991825 -0.990332 -0.138716 332.535 91.1083)" stroke="#6D0F0F"/>
</g>
<g filter="url(#filter32_f_271_251)">
<line y1="-0.5" x2="19.7504" y2="-0.5" transform="matrix(-0.127604 0.991825 -0.990332 -0.138716 332.535 91.1083)" stroke="#6D0F0F"/>
</g>
<path d="M219.408 309.392C218.158 309.825 217.258 310.723 216.707 312.087C216.209 313.478 215.951 315.553 215.933 318.313C215.918 319.672 215.95 320.97 216.029 322.206C216.162 323.469 216.342 324.671 216.57 325.81C215.788 325.178 215.13 324.797 214.596 324.666C214.115 324.561 213.471 324.649 212.665 324.928C210.689 325.611 208.599 326.357 206.394 327.165C204.202 328.014 202.246 328.758 200.525 329.399C200.212 328.695 199.892 327.971 199.566 327.226C199.293 326.508 199.04 325.783 198.807 325.051C198.601 324.401 198.414 323.743 198.248 323.078C198.122 322.4 197.982 321.749 197.828 321.125C197.587 319.944 196.853 319.183 195.625 318.841C194.397 318.498 193.038 318.585 191.546 319.101C190.256 319.548 189.791 320.34 190.153 321.479C190.373 322.17 190.884 323.144 191.686 324.401C192.185 325.266 192.598 326.004 192.926 326.612C193.267 327.262 193.502 327.79 193.631 328.196C193.993 329.335 193.896 330.226 193.339 330.87C192.878 331.391 192.732 331.915 192.9 332.444C193.055 332.932 193.343 333.486 193.764 334.108C194.226 334.715 194.729 335.241 195.272 335.685C195.829 336.169 196.308 336.478 196.708 336.61C197.042 336.675 197.43 336.699 197.872 336.681C198.314 336.664 198.843 336.57 199.461 336.402C202.481 340.412 205.482 343.729 208.464 346.353C211.5 349.004 214.411 350.84 217.197 351.862C219.996 352.924 222.545 353.058 224.843 352.262C226.254 351.774 227.128 350.93 227.463 349.731C227.81 348.573 227.629 346.875 226.918 344.639L226.046 341.894C224.741 337.787 223.841 333.901 223.348 330.235C222.854 326.57 222.708 323.506 222.91 321.044C223.074 318.46 223.709 316.164 224.816 314.156C225.171 313.582 225.377 313.104 225.435 312.723C225.506 312.383 225.489 312.05 225.386 311.725C225.192 311.115 224.756 310.589 224.079 310.146C223.441 309.69 222.695 309.384 221.84 309.228C220.985 309.073 220.175 309.127 219.408 309.392ZM204.356 335.115C206.357 334.512 208.11 333.973 209.615 333.498C211.133 333.063 212.396 332.671 213.404 332.322L217.637 330.857C217.919 332.024 218.219 333.251 218.539 334.54C218.9 335.814 219.299 337.143 219.739 338.525L220.863 342.063C221.238 343.242 221.342 344.063 221.176 344.527C221.064 345.017 220.644 345.388 219.919 345.639C217.943 346.323 215.554 345.705 212.751 343.787C209.948 341.868 207.15 338.977 204.356 335.115Z" fill="#720505"/>
<path d="M53.0343 125.865C54.3564 125.904 55.5016 125.383 56.47 124.302C57.3969 123.177 58.3221 121.326 59.2458 118.75C59.707 117.483 60.1031 116.256 60.4341 115.071C60.7236 113.842 60.9479 112.653 61.1072 111.505C61.6384 112.375 62.1346 112.966 62.5956 113.278C63.0151 113.547 63.6513 113.694 64.5043 113.719C66.5941 113.781 68.8123 113.825 71.1591 113.852C73.5071 113.836 75.5986 113.833 77.4336 113.845C77.498 114.615 77.5619 115.407 77.6252 116.22C77.647 116.989 77.6475 117.757 77.6266 118.525C77.6081 119.207 77.5682 119.889 77.507 120.57C77.4032 121.25 77.3213 121.909 77.2612 122.548C77.1008 123.738 77.5439 124.712 78.5904 125.468C79.6369 126.225 80.9491 126.627 82.5271 126.673C83.8919 126.714 84.5905 126.137 84.6229 124.942C84.6426 124.217 84.4802 123.124 84.1358 121.663C83.9492 120.675 83.8012 119.839 83.6918 119.152C83.5835 118.424 83.5352 117.846 83.5468 117.419C83.5792 116.225 83.9637 115.425 84.7003 115.02C85.3067 114.697 85.6174 114.258 85.6325 113.703C85.6464 113.192 85.5565 112.57 85.363 111.839C85.1268 111.106 84.8249 110.435 84.4573 109.827C84.0908 109.176 83.7405 108.717 83.4063 108.451C83.1124 108.272 82.7539 108.112 82.3309 107.971C81.9079 107.831 81.3771 107.73 80.7386 107.668C79.205 102.842 77.4617 98.6713 75.5084 95.156C73.5137 91.5969 71.3689 88.8443 69.0743 86.8983C66.7808 84.9096 64.4186 83.8793 61.9876 83.8074C60.4949 83.7633 59.3935 84.2429 58.6833 85.2464C57.9743 86.2071 57.588 87.8604 57.5242 90.2062L57.446 93.0852C57.329 97.3929 56.9014 101.35 56.1632 104.956C55.425 108.563 54.5561 111.482 53.5564 113.715C52.5533 116.076 51.1992 117.999 49.4942 119.486C48.9709 119.897 48.6192 120.271 48.4394 120.607C48.2607 120.9 48.1667 121.218 48.1574 121.559C48.14 122.199 48.3786 122.846 48.873 123.501C49.3247 124.155 49.9286 124.706 50.6847 125.155C51.4408 125.604 52.224 125.841 53.0343 125.865ZM75.6952 107.135C73.6078 106.988 71.7756 106.869 70.1988 106.78C68.6231 106.648 67.3022 106.566 66.236 106.535L61.758 106.402C61.8757 105.211 61.9952 103.955 62.1164 102.635C62.195 101.314 62.2539 99.929 62.2933 98.4788L62.3941 94.7682C62.4277 93.5313 62.599 92.7254 62.908 92.3503C63.1755 91.9314 63.693 91.7333 64.4607 91.756C66.5504 91.8178 68.6031 93.2444 70.6187 96.0359C72.6343 98.8273 74.3265 102.527 75.6952 107.135Z" fill="#720505"/>
<g>
<path d="M-65.1284 175.716L-72.6628 88.9647C-72.6628 88.9647 -56.9135 98.9192 -47.6368 107.861C-38.3602 116.803 -28.4259 132.67 -28.4259 132.67C-28.4259 132.67 -39.4691 165.689 -40.5524 183.355C-41.3678 196.654 -21.724 208.861 -21.724 208.861L-31.3034 210.125C-31.3034 210.125 -35.7555 206.168 -37.5938 209.216C-43.7238 219.38 -39.0015 224.776 -31.5788 224.61C-29.643 224.567 -25.5865 218.974 -25.5865 218.974L-29.9124 238.733L-43.9048 228.899C-43.9048 228.899 -56.1993 233.119 -62.1815 229.09C-65.8483 226.62 -68.7939 219.941 -68.7939 219.941L-65.1284 175.716Z" fill="#770808"/>
</g>
<path d="M-65.1284 175.716L-72.6628 88.9647C-72.6628 88.9647 -56.9135 98.9192 -47.6368 107.861C-38.3602 116.803 -28.4259 132.67 -28.4259 132.67C-28.4259 132.67 -39.4691 165.689 -40.5524 183.355C-41.3678 196.654 -21.724 208.861 -21.724 208.861L-31.3034 210.125C-31.3034 210.125 -35.7555 206.168 -37.5938 209.216C-43.7238 219.38 -39.0015 224.776 -31.5788 224.61C-29.643 224.567 -25.5865 218.974 -25.5865 218.974L-29.9124 238.733L-43.9048 228.899C-43.9048 228.899 -56.1993 233.119 -62.1815 229.09C-65.8483 226.62 -68.7939 219.941 -68.7939 219.941L-65.1284 175.716Z" stroke="#630E0E"/>
<g filter="url(#filter34_n_271_251)">
<path fill-rule="evenodd" clip-rule="evenodd" d="M2.38758 344.327C2.38758 344.327 0.403303 342.924 -2.52073 343.483L-3.42739 349.227C-6.49334 352.289 -12.3662 349.204 -12.549 348.128L-11.8151 343.478L-13.9783 344.233C-14.314 344.35 -14.6506 344.504 -14.9755 344.728C-17.952 346.777 -18.3062 349.418 -16.4645 352.972C-18.6625 355.357 -19.1124 357.129 -19.7665 359.706C-19.9587 360.463 -20.1685 361.29 -20.4454 362.222L-22.2919 370.926C-20.1658 375.126 -18.3036 376.792 -13.7199 378.501L-10.9493 377.916L-8.02577 376.362C-4.48962 384.995 -1.1584 387.836 5.63164 391.644C6.44633 391.923 7.23974 392.197 8.01438 392.465C20.2548 396.695 27.8091 399.306 40.5606 393.932C43.9414 395.446 49.9171 395.54 51.9305 393.764C54.1581 392.073 54.5963 390.527 53.8391 386.662C50.9654 382.73 49.0008 382.382 43.3566 382.208C36.9003 375.448 24.4831 365.038 24.4831 365.038L24.4765 365.035L21.978 363.941C19.4952 362.853 14.3679 360.854 9.74063 359.452L5.92961 356.82C7.10744 357.814 8.32208 358.665 9.61627 359.414C4.99999 361.82 2.84819 363.214 0.875009 365.886L-2.22469 362.567L-5.32439 359.249C-2.19098 355.993 -0.38745 354.618 2.7924 353.739C2.52637 353.44 2.26024 353.131 1.99347 352.812C1.75044 351.496 1.92792 350.635 2.57392 349.135C3.68375 345.824 2.38758 344.327 2.38758 344.327Z" fill="url(#paint4_linear_271_251)"/>
<path d="M-5.32439 359.249C-2.19098 355.993 -0.38745 354.618 2.7924 353.739C3.82911 354.904 4.8643 355.921 5.92961 356.82C2.68046 359.021 0.881685 360.27 -2.22469 362.567L-5.32439 359.249Z" fill="url(#paint5_linear_271_251)"/>
<path d="M9.61627 359.414C4.99999 361.82 2.84819 363.214 0.875009 365.886L-2.22469 362.567C0.881685 360.27 2.68046 359.021 5.92961 356.82C7.10744 357.814 8.32208 358.665 9.61627 359.414Z" fill="#630E0E"/>
<path d="M21.978 363.941C19.4952 362.853 14.3679 360.854 9.74063 359.452M21.978 363.941L24.4765 365.035M21.978 363.941C24.1376 364.887 24.4355 365.017 24.4765 365.035M43.3566 382.208C49.0008 382.382 50.9654 382.73 53.8391 386.662C54.5963 390.527 54.1581 392.073 51.9305 393.764C49.9171 395.54 43.9414 395.446 40.5606 393.932M43.3566 382.208C36.9003 375.448 24.4831 365.038 24.4831 365.038M43.3566 382.208C27.5468 388.05 27.3783 391.04 44.0866 390.558C39.153 392.027 38.702 392.752 40.5606 393.932M40.5606 393.932C27.8091 399.306 20.2548 396.695 8.01438 392.465C7.23974 392.197 6.44633 391.923 5.63165 391.644C-1.1584 387.836 -4.48962 384.995 -8.02577 376.362M-12.5782 371.268L-20.4454 362.222M-12.5782 371.268L-8.02577 376.362M-12.5782 371.268L-13.7199 378.501M-20.4454 362.222L-22.292 370.926C-20.1658 375.126 -18.3036 376.792 -13.7199 378.501M-20.4454 362.222C-20.1685 361.29 -19.9587 360.463 -19.7665 359.706C-19.1124 357.129 -18.6625 355.357 -16.4645 352.972C-18.3062 349.418 -17.952 346.777 -14.9755 344.728M-8.02577 376.362L-10.9493 377.916L-13.7199 378.501M24.4831 365.038L24.4765 365.035M24.4831 365.038C24.4809 365.037 24.4787 365.036 24.4765 365.035M24.4831 365.038C24.4831 365.038 24.4831 365.038 24.4765 365.035M2.76021 373.904C6.30264 364.842 22.2366 364.062 24.4765 365.035M9.61627 359.414C4.99999 361.82 2.84818 363.214 0.875008 365.886L-2.22469 362.567M9.61627 359.414C8.32208 358.665 7.10744 357.814 5.92961 356.82M9.61627 359.414C9.65768 359.427 9.69914 359.439 9.74063 359.452M2.7924 353.739C2.52637 353.44 2.26024 353.131 1.99347 352.812C1.75044 351.496 1.92793 350.635 2.57393 349.135C3.68375 345.824 2.38758 344.327 2.38758 344.327C2.38758 344.327 0.403304 342.924 -2.52072 343.483L-3.42738 349.227C-6.49334 352.289 -12.3662 349.204 -12.549 348.128L-11.8151 343.478L-13.9783 344.233M2.7924 353.739C-0.387451 354.618 -2.19098 355.993 -5.32439 359.249L-2.22469 362.567M2.7924 353.739C3.8291 354.904 4.8643 355.921 5.92961 356.82M-2.22469 362.567C0.881684 360.27 2.68046 359.021 5.92961 356.82M5.92961 356.82L9.74063 359.452M-13.9783 344.233C-14.314 344.35 -14.6506 344.504 -14.9755 344.728M-13.9783 344.233C-14.3136 344.35 -14.6379 344.498 -14.9312 344.698C-14.946 344.708 -14.9608 344.718 -14.9755 344.728" stroke="black" stroke-width="3"/>
</g>
<defs>
<filter id="filter0_n_271_251" x="161.166" y="345.527" width="133.487" height="58.8572" filterUnits="userSpaceOnUse" color-interpolation-filters="sRGB">
<feFlood flood-opacity="0" result="BackgroundImageFix"/>
<feBlend mode="normal" in="SourceGraphic" in2="BackgroundImageFix" result="shape"/>
<feTurbulence type="fractalNoise" baseFrequency="2 2" stitchTiles="stitch" numOctaves="3" result="noise" seed="6382" />
<feColorMatrix in="noise" type="luminanceToAlpha" result="alphaNoise" />
<feComponentTransfer in="alphaNoise" result="coloredNoise1">
<feFuncA type="discrete" tableValues="0 0 0 0 0 0 0 0 0 0 0 0 1 1 1 1 1 1 1 1 1 1 1 1 1 1 1 1 1 1 1 1 1 1 1 1 1 1 0 0 0 0 0 0 0 0 0 0 0 0 0 0 0 0 0 0 0 0 0 0 0 0 0 0 0 0 0 0 0 0 0 0 0 0 0 0 0 0 0 0 0 0 0 0 0 0 0 0 0 0 0 0 0 0 0 0 0 0 0 0 "/>
</feComponentTransfer>
<feComposite operator="in" in2="shape" in="coloredNoise1" result="noise1Clipped" />
<feFlood flood-color="rgba(0, 0, 0, 0.25)" result="color1Flood" />
<feComposite operator="in" in2="noise1Clipped" in="color1Flood" result="color1" />
<feMerge result="effect1_noise_271_251">
<feMergeNode in="shape" />
<feMergeNode in="color1" />
</feMerge>
</filter>
<filter id="filter1_n_271_251" x="111.315" y="0.221313" width="80.655" height="116.98" filterUnits="userSpaceOnUse" color-interpolation-filters="sRGB">
<feFlood flood-opacity="0" result="BackgroundImageFix"/>
<feBlend mode="normal" in="SourceGraphic" in2="BackgroundImageFix" result="shape"/>
<feTurbulence type="fractalNoise" baseFrequency="2 2" stitchTiles="stitch" numOctaves="3" result="noise" seed="7642" />
<feColorMatrix in="noise" type="luminanceToAlpha" result="alphaNoise" />
<feComponentTransfer in="alphaNoise" result="coloredNoise1">
<feFuncA type="discrete" tableValues="1 1 1 1 1 1 1 1 1 1 1 1 1 1 1 1 1 1 1 1 1 1 1 1 1 1 1 1 1 1 1 1 1 1 1 1 1 1 1 1 1 1 1 1 1 1 1 1 1 1 1 0 0 0 0 0 0 0 0 0 0 0 0 0 0 0 0 0 0 0 0 0 0 0 0 0 0 0 0 0 0 0 0 0 0 0 0 0 0 0 0 0 0 0 0 0 0 0 0 0 "/>
</feComponentTransfer>
<feComposite operator="in" in2="shape" in="coloredNoise1" result="noise1Clipped" />
<feFlood flood-color="rgba(0, 0, 0, 0.25)" result="color1Flood" />
<feComposite operator="in" in2="noise1Clipped" in="color1Flood" result="color1" />
<feMerge result="effect1_noise_271_251">
<feMergeNode in="shape" />
<feMergeNode in="color1" />
</feMerge>
</filter>
<filter id="filter2_i_271_251" x="357.007" y="56.3833" width="96.8802" height="61.7693" filterUnits="userSpaceOnUse" color-interpolation-filters="sRGB">
<feFlood flood-opacity="0" result="BackgroundImageFix"/>
<feBlend mode="normal" in="SourceGraphic" in2="BackgroundImageFix" result="shape"/>
<feColorMatrix in="SourceAlpha" type="matrix" values="0 0 0 0 0 0 0 0 0 0 0 0 0 0 0 0 0 0 127 0" result="hardAlpha"/>
<feOffset dy="4"/>
<feGaussianBlur stdDeviation="2"/>
<feComposite in2="hardAlpha" operator="arithmetic" k2="-1" k3="1"/>
<feColorMatrix type="matrix" values="0 0 0 0 0 0 0 0 0 0 0 0 0 0 0 0 0 0 0.25 0"/>
<feBlend mode="normal" in2="shape" result="effect1_innerShadow_271_251"/>
</filter>
<filter id="filter3_i_271_251" x="-17.5748" y="60.9071" width="464.256" height="168.859" filterUnits="userSpaceOnUse" color-interpolation-filters="sRGB">
<feFlood flood-opacity="0" result="BackgroundImageFix"/>
<feBlend mode="normal" in="SourceGraphic" in2="BackgroundImageFix" result="shape"/>
<feColorMatrix in="SourceAlpha" type="matrix" values="0 0 0 0 0 0 0 0 0 0 0 0 0 0 0 0 0 0 127 0" result="hardAlpha"/>
<feOffset dy="4"/>
<feGaussianBlur stdDeviation="2"/>
<feComposite in2="hardAlpha" operator="arithmetic" k2="-1" k3="1"/>
<feColorMatrix type="matrix" values="0 0 0 0 0 0 0 0 0 0 0 0 0 0 0 0 0 0 0.25 0"/>
<feBlend mode="normal" in2="shape" result="effect1_innerShadow_271_251"/>
</filter>
<filter id="filter4_n_271_251" x="280.479" y="81.8972" width="72.1733" height="90.2017" filterUnits="userSpaceOnUse" color-interpolation-filters="sRGB">
<feFlood flood-opacity="0" result="BackgroundImageFix"/>
<feBlend mode="normal" in="SourceGraphic" in2="BackgroundImageFix" result="shape"/>
<feTurbulence type="fractalNoise" baseFrequency="2 2" stitchTiles="stitch" numOctaves="3" result="noise" seed="4429" />
<feColorMatrix in="noise" type="luminanceToAlpha" result="alphaNoise" />
<feComponentTransfer in="alphaNoise" result="coloredNoise1">
<feFuncA type="discrete" tableValues="1 1 1 1 1 1 1 1 1 1 1 1 1 1 1 1 1 1 1 1 1 1 1 1 1 1 1 1 1 1 1 1 1 1 1 1 1 1 1 1 1 1 1 1 1 1 1 1 1 1 1 0 0 0 0 0 0 0 0 0 0 0 0 0 0 0 0 0 0 0 0 0 0 0 0 0 0 0 0 0 0 0 0 0 0 0 0 0 0 0 0 0 0 0 0 0 0 0 0 0 "/>
</feComponentTransfer>
<feComposite operator="in" in2="shape" in="coloredNoise1" result="noise1Clipped" />
<feFlood flood-color="rgba(0, 0, 0, 0.25)" result="color1Flood" />
<feComposite operator="in" in2="noise1Clipped" in="color1Flood" result="color1" />
<feMerge result="effect1_noise_271_251">
<feMergeNode in="shape" />
<feMergeNode in="color1" />
</feMerge>
</filter>
<filter id="filter5_f_271_251" x="338.908" y="91.0873" width="9.98804" height="20.5052" filterUnits="userSpaceOnUse" color-interpolation-filters="sRGB">
<feFlood flood-opacity="0" result="BackgroundImageFix"/>
<feBlend mode="normal" in="SourceGraphic" in2="BackgroundImageFix" result="shape"/>
<feGaussianBlur stdDeviation="2" result="effect1_foregroundBlur_271_251"/>
</filter>
<filter id="filter6_f_271_251" x="338.908" y="91.0873" width="9.98804" height="20.5052" filterUnits="userSpaceOnUse" color-interpolation-filters="sRGB">
<feFlood flood-opacity="0" result="BackgroundImageFix"/>
<feBlend mode="normal" in="SourceGraphic" in2="BackgroundImageFix" result="shape"/>
<feGaussianBlur stdDeviation="2" result="effect1_foregroundBlur_271_251"/>
</filter>
<filter id="filter7_f_271_251" x="338.908" y="91.0873" width="9.98804" height="20.5052" filterUnits="userSpaceOnUse" color-interpolation-filters="sRGB">
<feFlood flood-opacity="0" result="BackgroundImageFix"/>
<feBlend mode="normal" in="SourceGraphic" in2="BackgroundImageFix" result="shape"/>
<feGaussianBlur stdDeviation="2" result="effect1_foregroundBlur_271_251"/>
</filter>
<filter id="filter8_f_271_251" x="338.908" y="91.0873" width="9.98804" height="20.5052" filterUnits="userSpaceOnUse" color-interpolation-filters="sRGB">
<feFlood flood-opacity="0" result="BackgroundImageFix"/>
<feBlend mode="normal" in="SourceGraphic" in2="BackgroundImageFix" result="shape"/>
<feGaussianBlur stdDeviation="2" result="effect1_foregroundBlur_271_251"/>
</filter>
<filter id="filter9_f_271_251" x="338.908" y="91.0873" width="9.98804" height="20.5052" filterUnits="userSpaceOnUse" color-interpolation-filters="sRGB">
<feFlood flood-opacity="0" result="BackgroundImageFix"/>
<feBlend mode="normal" in="SourceGraphic" in2="BackgroundImageFix" result="shape"/>
<feGaussianBlur stdDeviation="2" result="effect1_foregroundBlur_271_251"/>
</filter>
<filter id="filter10_f_271_251" x="338.908" y="91.0873" width="9.98804" height="20.5052" filterUnits="userSpaceOnUse" color-interpolation-filters="sRGB">
<feFlood flood-opacity="0" result="BackgroundImageFix"/>
<feBlend mode="normal" in="SourceGraphic" in2="BackgroundImageFix" result="shape"/>
<feGaussianBlur stdDeviation="2" result="effect1_foregroundBlur_271_251"/>
</filter>
<filter id="filter11_f_271_251" x="338.908" y="91.0873" width="9.98804" height="20.5052" filterUnits="userSpaceOnUse" color-interpolation-filters="sRGB">
<feFlood flood-opacity="0" result="BackgroundImageFix"/>
<feBlend mode="normal" in="SourceGraphic" in2="BackgroundImageFix" result="shape"/>
<feGaussianBlur stdDeviation="2" result="effect1_foregroundBlur_271_251"/>
</filter>
<filter id="filter12_f_271_251" x="338.908" y="91.0873" width="9.98804" height="20.5052" filterUnits="userSpaceOnUse" color-interpolation-filters="sRGB">
<feFlood flood-opacity="0" result="BackgroundImageFix"/>
<feBlend mode="normal" in="SourceGraphic" in2="BackgroundImageFix" result="shape"/>
<feGaussianBlur stdDeviation="2" result="effect1_foregroundBlur_271_251"/>
</filter>
<filter id="filter13_f_271_251" x="338.908" y="91.0873" width="9.98804" height="20.5052" filterUnits="userSpaceOnUse" color-interpolation-filters="sRGB">
<feFlood flood-opacity="0" result="BackgroundImageFix"/>
<feBlend mode="normal" in="SourceGraphic" in2="BackgroundImageFix" result="shape"/>
<feGaussianBlur stdDeviation="2" result="effect1_foregroundBlur_271_251"/>
</filter>
<filter id="filter14_f_271_251" x="338.908" y="91.0873" width="9.98804" height="20.5052" filterUnits="userSpaceOnUse" color-interpolation-filters="sRGB">
<feFlood flood-opacity="0" result="BackgroundImageFix"/>
<feBlend mode="normal" in="SourceGraphic" in2="BackgroundImageFix" result="shape"/>
<feGaussianBlur stdDeviation="2" result="effect1_foregroundBlur_271_251"/>
</filter>
<filter id="filter15_f_271_251" x="338.908" y="91.0873" width="9.98804" height="20.5052" filterUnits="userSpaceOnUse" color-interpolation-filters="sRGB">
<feFlood flood-opacity="0" result="BackgroundImageFix"/>
<feBlend mode="normal" in="SourceGraphic" in2="BackgroundImageFix" result="shape"/>
<feGaussianBlur stdDeviation="2" result="effect1_foregroundBlur_271_251"/>
</filter>
<filter id="filter16_f_271_251" x="338.908" y="91.0873" width="9.98804" height="20.5052" filterUnits="userSpaceOnUse" color-interpolation-filters="sRGB">
<feFlood flood-opacity="0" result="BackgroundImageFix"/>
<feBlend mode="normal" in="SourceGraphic" in2="BackgroundImageFix" result="shape"/>
<feGaussianBlur stdDeviation="2" result="effect1_foregroundBlur_271_251"/>
</filter>
<filter id="filter17_f_271_251" x="338.908" y="91.0873" width="9.98804" height="20.5052" filterUnits="userSpaceOnUse" color-interpolation-filters="sRGB">
<feFlood flood-opacity="0" result="BackgroundImageFix"/>
<feBlend mode="normal" in="SourceGraphic" in2="BackgroundImageFix" result="shape"/>
<feGaussianBlur stdDeviation="2" result="effect1_foregroundBlur_271_251"/>
</filter>
<filter id="filter18_f_271_251" x="326.015" y="87.1083" width="11.5106" height="27.7277" filterUnits="userSpaceOnUse" color-interpolation-filters="sRGB">
<feFlood flood-opacity="0" result="BackgroundImageFix"/>
<feBlend mode="normal" in="SourceGraphic" in2="BackgroundImageFix" result="shape"/>
<feGaussianBlur stdDeviation="2" result="effect1_foregroundBlur_271_251"/>
</filter>
<filter id="filter19_f_271_251" x="326.015" y="87.1083" width="11.5106" height="27.7277" filterUnits="userSpaceOnUse" color-interpolation-filters="sRGB">
<feFlood flood-opacity="0" result="BackgroundImageFix"/>
<feBlend mode="normal" in="SourceGraphic" in2="BackgroundImageFix" result="shape"/>
<feGaussianBlur stdDeviation="2" result="effect1_foregroundBlur_271_251"/>
</filter>
<filter id="filter20_f_271_251" x="326.015" y="87.1083" width="11.5106" height="27.7277" filterUnits="userSpaceOnUse" color-interpolation-filters="sRGB">
<feFlood flood-opacity="0" result="BackgroundImageFix"/>
<feBlend mode="normal" in="SourceGraphic" in2="BackgroundImageFix" result="shape"/>
<feGaussianBlur stdDeviation="2" result="effect1_foregroundBlur_271_251"/>
</filter>
<filter id="filter21_f_271_251" x="326.015" y="87.1083" width="11.5106" height="27.7277" filterUnits="userSpaceOnUse" color-interpolation-filters="sRGB">
<feFlood flood-opacity="0" result="BackgroundImageFix"/>
<feBlend mode="normal" in="SourceGraphic" in2="BackgroundImageFix" result="shape"/>
<feGaussianBlur stdDeviation="2" result="effect1_foregroundBlur_271_251"/>
</filter>
<filter id="filter22_f_271_251" x="326.015" y="87.1083" width="11.5106" height="27.7277" filterUnits="userSpaceOnUse" color-interpolation-filters="sRGB">
<feFlood flood-opacity="0" result="BackgroundImageFix"/>
<feBlend mode="normal" in="SourceGraphic" in2="BackgroundImageFix" result="shape"/>
<feGaussianBlur stdDeviation="2" result="effect1_foregroundBlur_271_251"/>
</filter>
<filter id="filter23_f_271_251" x="326.015" y="87.1083" width="11.5106" height="27.7277" filterUnits="userSpaceOnUse" color-interpolation-filters="sRGB">
<feFlood flood-opacity="0" result="BackgroundImageFix"/>
<feBlend mode="normal" in="SourceGraphic" in2="BackgroundImageFix" result="shape"/>
<feGaussianBlur stdDeviation="2" result="effect1_foregroundBlur_271_251"/>
</filter>
<filter id="filter24_f_271_251" x="326.015" y="87.1083" width="11.5106" height="27.7277" filterUnits="userSpaceOnUse" color-interpolation-filters="sRGB">
<feFlood flood-opacity="0" result="BackgroundImageFix"/>
<feBlend mode="normal" in="SourceGraphic" in2="BackgroundImageFix" result="shape"/>
<feGaussianBlur stdDeviation="2" result="effect1_foregroundBlur_271_251"/>
</filter>
<filter id="filter25_f_271_251" x="326.015" y="87.1083" width="11.5106" height="27.7277" filterUnits="userSpaceOnUse" color-interpolation-filters="sRGB">
<feFlood flood-opacity="0" result="BackgroundImageFix"/>
<feBlend mode="normal" in="SourceGraphic" in2="BackgroundImageFix" result="shape"/>
<feGaussianBlur stdDeviation="2" result="effect1_foregroundBlur_271_251"/>
</filter>
<filter id="filter26_f_271_251" x="326.015" y="87.1083" width="11.5106" height="27.7277" filterUnits="userSpaceOnUse" color-interpolation-filters="sRGB">
<feFlood flood-opacity="0" result="BackgroundImageFix"/>
<feBlend mode="normal" in="SourceGraphic" in2="BackgroundImageFix" result="shape"/>
<feGaussianBlur stdDeviation="2" result="effect1_foregroundBlur_271_251"/>
</filter>
<filter id="filter27_f_271_251" x="326.015" y="87.1083" width="11.5106" height="27.7277" filterUnits="userSpaceOnUse" color-interpolation-filters="sRGB">
<feFlood flood-opacity="0" result="BackgroundImageFix"/>
<feBlend mode="normal" in="SourceGraphic" in2="BackgroundImageFix" result="shape"/>
<feGaussianBlur stdDeviation="2" result="effect1_foregroundBlur_271_251"/>
</filter>
<filter id="filter28_f_271_251" x="326.015" y="87.1083" width="11.5106" height="27.7277" filterUnits="userSpaceOnUse" color-interpolation-filters="sRGB">
<feFlood flood-opacity="0" result="BackgroundImageFix"/>
<feBlend mode="normal" in="SourceGraphic" in2="BackgroundImageFix" result="shape"/>
<feGaussianBlur stdDeviation="2" result="effect1_foregroundBlur_271_251"/>
</filter>
<filter id="filter29_f_271_251" x="326.015" y="87.1083" width="11.5106" height="27.7277" filterUnits="userSpaceOnUse" color-interpolation-filters="sRGB">
<feFlood flood-opacity="0" result="BackgroundImageFix"/>
<feBlend mode="normal" in="SourceGraphic" in2="BackgroundImageFix" result="shape"/>
<feGaussianBlur stdDeviation="2" result="effect1_foregroundBlur_271_251"/>
</filter>
<filter id="filter30_f_271_251" x="326.015" y="87.1083" width="11.5106" height="27.7277" filterUnits="userSpaceOnUse" color-interpolation-filters="sRGB">
<feFlood flood-opacity="0" result="BackgroundImageFix"/>
<feBlend mode="normal" in="SourceGraphic" in2="BackgroundImageFix" result="shape"/>
<feGaussianBlur stdDeviation="2" result="effect1_foregroundBlur_271_251"/>
</filter>
<filter id="filter31_f_271_251" x="326.015" y="87.1083" width="11.5106" height="27.7277" filterUnits="userSpaceOnUse" color-interpolation-filters="sRGB">
<feFlood flood-opacity="0" result="BackgroundImageFix"/>
<feBlend mode="normal" in="SourceGraphic" in2="BackgroundImageFix" result="shape"/>
<feGaussianBlur stdDeviation="2" result="effect1_foregroundBlur_271_251"/>
</filter>
<filter id="filter32_f_271_251" x="326.015" y="87.1083" width="11.5106" height="27.7277" filterUnits="userSpaceOnUse" color-interpolation-filters="sRGB">
<feFlood flood-opacity="0" result="BackgroundImageFix"/>
<feBlend mode="normal" in="SourceGraphic" in2="BackgroundImageFix" result="shape"/>
<feGaussianBlur stdDeviation="2" result="effect1_foregroundBlur_271_251"/>
</filter>
<filter id="filter34_n_271_251" x="-23.8665" y="341.227" width="79.5449" height="57.2324" filterUnits="userSpaceOnUse" color-interpolation-filters="sRGB">
<feFlood flood-opacity="0" result="BackgroundImageFix"/>
<feBlend mode="normal" in="SourceGraphic" in2="BackgroundImageFix" result="shape"/>
<feTurbulence type="fractalNoise" baseFrequency="2 2" stitchTiles="stitch" numOctaves="3" result="noise" seed="6382" />
<feColorMatrix in="noise" type="luminanceToAlpha" result="alphaNoise" />
<feComponentTransfer in="alphaNoise" result="coloredNoise1">
<feFuncA type="discrete" tableValues="0 0 0 0 0 0 0 0 0 0 0 0 1 1 1 1 1 1 1 1 1 1 1 1 1 1 1 1 1 1 1 1 1 1 1 1 1 1 0 0 0 0 0 0 0 0 0 0 0 0 0 0 0 0 0 0 0 0 0 0 0 0 0 0 0 0 0 0 0 0 0 0 0 0 0 0 0 0 0 0 0 0 0 0 0 0 0 0 0 0 0 0 0 0 0 0 0 0 0 0 "/>
</feComponentTransfer>
<feComposite operator="in" in2="shape" in="coloredNoise1" result="noise1Clipped" />
<feFlood flood-color="rgba(0, 0, 0, 0.25)" result="color1Flood" />
<feComposite operator="in" in2="noise1Clipped" in="color1Flood" result="color1" />
<feMerge result="effect1_noise_271_251">
<feMergeNode in="shape" />
<feMergeNode in="color1" />
</feMerge>
</filter>
<linearGradient id="paint0_linear_271_251" x1="195.455" y1="357.705" x2="260.364" y2="397.228" gradientUnits="userSpaceOnUse">
<stop stop-color="#900606"/>
<stop offset="1" stop-color="#630E0E"/>
</linearGradient>
<linearGradient id="paint1_linear_271_251" x1="195.455" y1="357.705" x2="260.364" y2="397.228" gradientUnits="userSpaceOnUse">
<stop stop-color="#630E0E"/>
</linearGradient>
<linearGradient id="paint2_linear_271_251" x1="133.883" y1="47.5696" x2="133.883" y2="368.029" gradientUnits="userSpaceOnUse">
<stop offset="0.245578" stop-color="white"/>
<stop offset="1" stop-color="#999999"/>
</linearGradient>
<linearGradient id="paint3_linear_271_251" x1="324.914" y1="77.6672" x2="303.856" y2="171.07" gradientUnits="userSpaceOnUse">
<stop stop-color="#900606"/>
<stop offset="1" stop-color="#630E0E"/>
</linearGradient>
<linearGradient id="paint4_linear_271_251" x1="-1.22773" y1="353.257" x2="42.5459" y2="372.51" gradientUnits="userSpaceOnUse">
<stop stop-color="#900606"/>
<stop offset="1" stop-color="#630E0E"/>
</linearGradient>
<linearGradient id="paint5_linear_271_251" x1="-1.22771" y1="353.257" x2="42.5459" y2="372.51" gradientUnits="userSpaceOnUse">
<stop stop-color="#630E0E"/>
</linearGradient>
</defs>
</svg>
