<svg width="438" height="330" viewBox="0 0 438 330" fill="none" xmlns="http://www.w3.org/2000/svg">
<path d="M256.5 276.5L244.55 285.5C244.55 285.5 246.804 282.771 247 280.5C247.196 278.229 245.5 274 245.5 274C245.5 274 247.822 276.539 250 277C252.3 277.487 256.5 276.5 256.5 276.5Z" fill="#111110" stroke="#353333"/>
<path d="M216.545 172.5C216.545 178 176.545 230.5 176.545 230.5L156.045 217C156.045 217 140.045 207.5 141.045 202C142.045 196.5 158.045 174 158.045 174L178.545 146.5L199.045 158C199.045 158 216.545 167 216.545 172.5Z" fill="#FDF9EF" stroke="#FDFAEF"/>
<path d="M170.17 201.5L167.045 184.378L187.045 175.5V193.89L170.17 201.5Z" fill="#E25236" stroke="#EA4027"/>
<path d="M176.339 159.166C175.853 158.898 175.501 158.56 175.281 158.151C175.057 157.75 175.056 157.349 175.278 156.947C175.437 156.658 175.619 156.491 175.822 156.445C176.022 156.407 176.175 156.417 176.281 156.476C176.341 156.509 176.384 156.558 176.409 156.621C176.437 156.696 176.458 156.792 176.472 156.909C176.504 157.084 176.598 157.3 176.754 157.554C176.906 157.817 177.168 158.05 177.54 158.256C177.942 158.478 178.316 158.571 178.663 158.535C179.017 158.503 179.283 158.327 179.459 158.009C179.597 157.759 179.634 157.521 179.569 157.298C179.512 157.078 179.418 156.882 179.285 156.71C179.093 156.485 178.855 156.269 178.573 156.064C178.516 156.023 178.472 155.978 178.439 155.93C178.41 155.875 178.402 155.791 178.414 155.679C178.43 155.49 178.479 155.319 178.563 155.167C178.609 155.084 178.67 155.028 178.745 155C178.819 154.972 178.905 154.96 179.002 154.964C179.191 154.98 179.41 154.987 179.659 154.986C179.919 154.981 180.163 154.933 180.392 154.841C180.628 154.754 180.814 154.589 180.948 154.346C181.103 154.065 181.111 153.818 180.972 153.602C180.846 153.384 180.661 153.207 180.418 153.073C180.175 152.939 179.932 152.859 179.689 152.834C179.45 152.801 179.26 152.785 179.121 152.787C178.934 152.803 178.806 152.792 178.738 152.754C178.632 152.695 178.587 152.597 178.605 152.458C178.622 152.319 178.658 152.2 178.712 152.101C178.784 151.972 178.887 151.866 179.022 151.782C179.169 151.695 179.362 151.643 179.599 151.626C179.938 151.585 180.257 151.608 180.556 151.694C180.863 151.784 181.138 151.897 181.38 152.031C181.942 152.341 182.3 152.722 182.456 153.175C182.616 153.62 182.573 154.066 182.326 154.513C182.116 154.893 181.815 155.187 181.422 155.396C181.03 155.604 180.635 155.718 180.239 155.737C180.575 156.061 180.769 156.426 180.822 156.831C180.883 157.241 180.79 157.67 180.542 158.117C180.27 158.611 179.902 158.981 179.438 159.23C178.977 159.49 178.477 159.615 177.938 159.605C177.395 159.602 176.862 159.456 176.339 159.166Z" fill="#EE4E2C"/>
<path d="M179.607 219.548C180.092 219.816 180.445 220.155 180.665 220.563C180.889 220.964 180.89 221.366 180.668 221.768C180.508 222.056 180.327 222.223 180.123 222.269C179.924 222.307 179.771 222.297 179.665 222.238C179.604 222.205 179.562 222.157 179.537 222.094C179.509 222.019 179.488 221.923 179.473 221.806C179.442 221.63 179.348 221.415 179.191 221.16C179.039 220.898 178.777 220.664 178.406 220.459C178.004 220.236 177.629 220.143 177.283 220.18C176.928 220.212 176.663 220.387 176.487 220.705C176.349 220.956 176.312 221.193 176.376 221.417C176.433 221.636 176.528 221.832 176.661 222.004C176.853 222.23 177.09 222.445 177.373 222.65C177.429 222.692 177.474 222.736 177.507 222.784C177.536 222.839 177.544 222.923 177.532 223.035C177.516 223.225 177.466 223.395 177.383 223.547C177.337 223.63 177.276 223.686 177.201 223.714C177.126 223.742 177.04 223.754 176.944 223.75C176.754 223.734 176.535 223.727 176.287 223.729C176.027 223.734 175.783 223.782 175.554 223.873C175.317 223.96 175.132 224.125 174.998 224.368C174.843 224.649 174.835 224.897 174.973 225.112C175.1 225.331 175.285 225.507 175.528 225.641C175.77 225.775 176.013 225.855 176.257 225.88C176.496 225.914 176.685 225.929 176.825 225.927C177.012 225.912 177.139 225.923 177.208 225.96C177.314 226.019 177.358 226.118 177.341 226.257C177.324 226.396 177.288 226.514 177.233 226.613C177.162 226.742 177.059 226.848 176.923 226.932C176.776 227.019 176.584 227.071 176.347 227.089C176.008 227.129 175.688 227.106 175.389 227.02C175.083 226.93 174.808 226.818 174.565 226.684C174.004 226.374 173.645 225.992 173.489 225.54C173.329 225.095 173.373 224.649 173.62 224.201C173.83 223.822 174.131 223.528 174.523 223.319C174.916 223.11 175.311 222.996 175.707 222.978C175.371 222.653 175.177 222.289 175.124 221.883C175.063 221.473 175.156 221.044 175.403 220.597C175.676 220.104 176.044 219.733 176.508 219.484C176.969 219.224 177.469 219.099 178.007 219.11C178.55 219.113 179.083 219.259 179.607 219.548Z" fill="#EE4E2C"/>
<path d="M158 48.2035C158 58.1889 85.4604 153.504 85.4604 153.504L48.2839 128.994C48.2839 128.994 19.2681 111.747 21.0816 101.761C22.8951 91.776 51.9109 50.9268 51.9109 50.9268L89.0875 1L126.264 21.8785C126.264 21.8785 158 38.2182 158 48.2035Z" fill="#FDF9EF" stroke="#FDFAEF"/>
<path d="M85.8923 25.9208C84.6731 25.1749 83.6894 24.4731 82.9414 23.8153C82.2005 23.1869 81.8251 22.5946 81.8152 22.0384C81.8093 21.8847 81.8367 21.6764 81.8975 21.4135C81.9583 21.1506 82.0444 20.9281 82.1557 20.7461C82.5008 20.182 82.9747 19.9593 83.5774 20.0779C84.6413 20.1786 85.6889 20.2443 86.7204 20.2752C87.7519 20.3061 88.7587 20.2343 89.7408 20.0598C91.4409 19.7745 92.5137 19.2679 92.959 18.54C93.1817 18.176 93.2142 17.7958 93.0567 17.3993C92.8991 17.0028 92.5474 16.6375 92.0014 16.3035C91.5829 16.0474 91.0945 15.8237 90.5364 15.6323C89.9965 15.452 89.4833 15.3506 88.9969 15.3281C88.7006 15.3219 88.4336 15.3086 88.1959 15.2882C87.9876 15.2608 87.8107 15.2026 87.6651 15.1135C87.4285 14.9688 87.3189 14.7392 87.3363 14.4246C87.3536 14.1101 87.4458 13.8164 87.6128 13.5434C87.8021 13.2341 88.0677 12.9839 88.4096 12.793C88.7808 12.5949 89.283 12.4895 89.9161 12.4767C90.5785 12.4568 91.2838 12.5507 92.0321 12.7584C92.8097 12.959 93.5624 13.282 94.2903 13.7274C95.4368 14.4288 96.1923 15.2787 96.5568 16.277C96.9507 17.2683 96.8526 18.2462 96.2626 19.2106C95.884 19.8294 95.3801 20.3464 94.7509 20.7617C94.1328 21.1588 93.4697 21.4659 92.7617 21.683C91.6976 22.0323 90.5745 22.233 89.3923 22.285C88.21 22.337 87.1163 22.3056 86.1112 22.1908C86.4094 22.3983 86.7804 22.6503 87.2242 22.9468C87.6791 23.2251 88.0431 23.4478 88.3161 23.6148C89.3897 24.2717 90.2097 24.6483 90.776 24.7447C91.3534 24.8228 91.8383 24.8069 92.2307 24.6969C92.5939 24.5939 92.8482 24.587 92.9938 24.676C93.194 24.7985 93.3051 25.0666 93.3271 25.4802C93.3785 25.8868 93.2538 26.3357 92.9532 26.827C92.3743 27.7733 91.5094 28.1445 90.3587 27.9407C89.2373 27.7297 87.7485 27.0565 85.8923 25.9208Z" fill="#E25236"/>
<path d="M88.8334 131.727C87.6216 130.969 86.5545 130.402 85.632 130.027C84.7389 129.644 84.0413 129.573 83.5392 129.812C83.3989 129.875 83.2248 129.993 83.0167 130.165C82.8086 130.337 82.648 130.513 82.5348 130.694C82.1842 131.254 82.1964 131.778 82.5716 132.264C83.1367 133.171 83.6633 134.079 84.1514 134.989C84.6396 135.898 85.0248 136.831 85.3072 137.787C85.8109 139.436 85.8365 140.622 85.384 141.346C85.1577 141.707 84.832 141.906 84.4069 141.942C83.9818 141.978 83.4979 141.827 82.9553 141.487C82.5393 141.227 82.121 140.89 81.7006 140.476C81.2982 140.073 80.9784 139.659 80.7411 139.234C80.6032 138.972 80.4721 138.739 80.3478 138.535C80.2303 138.361 80.0992 138.229 79.9545 138.138C79.7193 137.991 79.4649 137.996 79.1913 138.152C78.9176 138.308 78.6959 138.521 78.5262 138.793C78.3339 139.1 78.2286 139.449 78.2104 139.841C78.199 140.261 78.3288 140.758 78.6 141.33C78.878 141.931 79.2769 142.521 79.7968 143.097C80.3235 143.704 80.9486 144.233 81.6721 144.685C82.8115 145.398 83.9093 145.695 84.9654 145.575C86.0282 145.485 86.8594 144.961 87.459 144.002C87.8436 143.387 88.0813 142.706 88.172 141.957C88.2514 141.227 88.2302 140.496 88.1083 139.766C87.9458 138.658 87.624 137.563 87.1427 136.482C86.6613 135.401 86.145 134.436 85.5935 133.588C85.9123 133.762 86.3034 133.982 86.7669 134.247C87.2191 134.529 87.5808 134.756 87.8521 134.925C88.9192 135.593 89.6223 136.158 89.9614 136.622C90.2891 137.104 90.4913 137.545 90.5681 137.945C90.6381 138.316 90.7454 138.547 90.8901 138.637C91.089 138.762 91.3785 138.741 91.7585 138.576C92.1452 138.441 92.4913 138.129 92.7967 137.641C93.385 136.7 93.331 135.76 92.6348 134.822C91.9454 133.913 90.6783 132.881 88.8334 131.727Z" fill="#E25236"/>
<g filter="url(#filter0_d_219_23)">
<path d="M208 262.38C208 267.88 248 320.38 248 320.38L268.5 306.88C268.5 306.88 284.5 297.38 283.5 291.88C282.5 286.38 266.5 263.88 266.5 263.88L246 236.38L225.5 247.88C225.5 247.88 208 256.88 208 262.38Z" fill="#FDF9EF"/>
<path d="M208 262.38C208 267.88 248 320.38 248 320.38L268.5 306.88C268.5 306.88 284.5 297.38 283.5 291.88C282.5 286.38 266.5 263.88 266.5 263.88L246 236.38L225.5 247.88C225.5 247.88 208 256.88 208 262.38Z" stroke="#FDFAEF"/>
</g>
<path d="M248.051 249.808C247.837 249.935 247.602 249.954 247.344 249.865C247.09 249.765 246.769 249.546 246.382 249.208C246.191 249.042 246.014 248.877 245.852 248.713C245.692 248.538 245.547 248.364 245.416 248.19C245.408 248.381 245.381 248.523 245.333 248.616C245.289 248.698 245.198 248.78 245.061 248.862C244.724 249.062 244.364 249.271 243.981 249.489C243.595 249.699 243.252 249.889 242.952 250.058C243.011 250.19 243.073 250.325 243.137 250.464C243.204 250.592 243.274 250.718 243.347 250.842C243.413 250.952 243.481 251.06 243.554 251.166C243.633 251.268 243.706 251.368 243.774 251.467C243.909 251.648 243.926 251.847 243.823 252.066C243.721 252.285 243.542 252.471 243.287 252.622C243.067 252.752 242.9 252.721 242.786 252.529C242.716 252.412 242.643 252.218 242.566 251.947C242.507 251.769 242.455 251.618 242.41 251.496C242.361 251.367 242.316 251.268 242.275 251.199C242.161 251.006 242.025 250.91 241.867 250.911C241.738 250.913 241.647 250.869 241.594 250.78C241.545 250.697 241.503 250.587 241.468 250.45C241.44 250.309 241.428 250.171 241.433 250.038C241.434 249.898 241.449 249.791 241.48 249.718C241.512 249.661 241.556 249.603 241.612 249.541C241.669 249.48 241.747 249.415 241.846 249.347C241.657 248.417 241.562 247.576 241.561 246.822C241.564 246.058 241.664 245.412 241.863 244.885C242.057 244.351 242.351 243.967 242.743 243.735C242.984 243.592 243.208 243.57 243.416 243.67C243.62 243.763 243.834 243.998 244.059 244.377L244.335 244.841C244.747 245.536 245.178 246.145 245.629 246.669C246.079 247.192 246.488 247.591 246.856 247.866C247.236 248.161 247.633 248.353 248.049 248.442C248.172 248.461 248.264 248.491 248.324 248.529C248.38 248.561 248.425 248.605 248.457 248.66C248.519 248.763 248.539 248.891 248.517 249.043C248.503 249.191 248.454 249.336 248.371 249.478C248.288 249.621 248.181 249.731 248.051 249.808ZM242.624 248.801C242.953 248.587 243.243 248.401 243.493 248.243C243.74 248.078 243.949 247.945 244.121 247.843L244.843 247.414C244.715 247.23 244.581 247.035 244.44 246.83C244.307 246.621 244.171 246.399 244.032 246.165L243.677 245.567C243.558 245.367 243.457 245.251 243.372 245.217C243.29 245.173 243.187 245.188 243.063 245.261C242.726 245.461 242.519 245.882 242.444 246.522C242.368 247.162 242.428 247.922 242.624 248.801Z" fill="#171717"/>
<path d="M251.716 307.147C251.499 307.267 251.364 307.46 251.31 307.727C251.268 307.998 251.294 308.385 251.39 308.89C251.436 309.138 251.489 309.374 251.548 309.598C251.619 309.824 251.695 310.037 251.779 310.238C251.61 310.148 251.474 310.1 251.37 310.094C251.277 310.09 251.16 310.127 251.02 310.205C250.677 310.394 250.315 310.599 249.934 310.819C249.556 311.046 249.219 311.246 248.922 311.419C248.838 311.301 248.752 311.179 248.665 311.054C248.588 310.931 248.515 310.807 248.446 310.681C248.384 310.569 248.325 310.455 248.27 310.339C248.222 310.22 248.173 310.105 248.122 309.996C248.035 309.789 247.871 309.674 247.63 309.651C247.389 309.629 247.139 309.689 246.88 309.833C246.656 309.956 246.598 310.116 246.706 310.312C246.772 310.431 246.902 310.593 247.097 310.796C247.221 310.937 247.324 311.059 247.407 311.159C247.494 311.266 247.557 311.355 247.595 311.425C247.704 311.621 247.718 311.787 247.637 311.923C247.57 312.033 247.562 312.134 247.612 312.225C247.658 312.309 247.732 312.401 247.833 312.5C247.941 312.596 248.053 312.676 248.17 312.739C248.291 312.809 248.391 312.85 248.471 312.861C248.535 312.862 248.608 312.853 248.69 312.836C248.772 312.818 248.867 312.784 248.976 312.733C249.682 313.366 250.36 313.873 251.01 314.255C251.67 314.64 252.278 314.88 252.833 314.975C253.392 315.077 253.871 315.018 254.271 314.798C254.516 314.662 254.648 314.48 254.667 314.25C254.69 314.027 254.595 313.723 254.382 313.337L254.121 312.865C253.731 312.158 253.423 311.477 253.199 310.824C252.976 310.171 252.838 309.616 252.787 309.16C252.725 308.683 252.76 308.243 252.894 307.84C252.939 307.723 252.961 307.629 252.958 307.558C252.959 307.493 252.944 307.433 252.913 307.377C252.855 307.272 252.755 307.19 252.613 307.131C252.477 307.069 252.328 307.038 252.163 307.037C251.998 307.037 251.849 307.073 251.716 307.147ZM249.84 312.337C250.191 312.162 250.498 312.006 250.761 311.87C251.028 311.741 251.249 311.628 251.424 311.531L252.159 311.125C252.253 311.328 252.354 311.543 252.459 311.768C252.572 311.989 252.695 312.218 252.826 312.456L253.163 313.065C253.275 313.268 253.324 313.415 253.31 313.505C253.306 313.598 253.242 313.68 253.116 313.749C252.773 313.939 252.306 313.904 251.715 313.646C251.124 313.387 250.499 312.951 249.84 312.337Z" fill="#050505"/>
<path d="M242.433 280.143C245.196 278.271 245.114 273.735 245.114 273.735C245.114 273.735 249.064 275.141 252.615 273.244C256.383 271.231 255.059 265.955 251.927 264.257C245.948 261.015 234.978 261.966 234.978 261.966C234.978 261.966 232.46 273.396 235.1 278.09C236.727 280.983 238.731 282.652 242.433 280.143Z" fill="#111110" stroke="#353333"/>
<g filter="url(#filter1_d_219_23)">
<path d="M206 75.3513C206 79.4891 235.651 118.987 235.651 118.987L250.847 108.83C250.847 108.83 262.708 101.683 261.967 97.5452C261.225 93.4074 249.365 76.4798 249.365 76.4798L234.169 55.7905L218.972 64.4424C218.972 64.4424 206 71.2134 206 75.3513Z" fill="#FDF9EF"/>
<path d="M206 75.3513C206 79.4891 235.651 118.987 235.651 118.987L250.847 108.83C250.847 108.83 262.708 101.683 261.967 97.5452C261.225 93.4074 249.365 76.4798 249.365 76.4798L234.169 55.7905L218.972 64.4424C218.972 64.4424 206 71.2134 206 75.3513Z" stroke="#FDFAEF"/>
</g>
<path d="M238.547 69.4741C238.334 69.602 238.1 69.6217 237.844 69.5329C237.591 69.4332 237.273 69.214 236.89 68.8753C236.7 68.7094 236.525 68.5443 236.364 68.3798C236.205 68.2043 236.061 68.0295 235.932 67.8555C235.924 68.0473 235.896 68.19 235.849 68.2838C235.804 68.3665 235.714 68.4491 235.577 68.5317C235.241 68.734 234.883 68.9452 234.502 69.1654C234.117 69.3786 233.775 69.5706 233.476 69.7412C233.535 69.8737 233.596 70.0097 233.659 70.1492C233.725 70.2776 233.794 70.404 233.867 70.5283C233.932 70.6388 234 70.7472 234.071 70.8536C234.15 70.9558 234.222 71.0566 234.29 71.1561C234.424 71.3371 234.439 71.5379 234.336 71.7585C234.234 71.9791 234.056 72.1657 233.802 72.3185C233.583 72.4506 233.417 72.42 233.304 72.2266C233.235 72.1092 233.163 71.9146 233.087 71.6426C233.028 71.4631 232.977 71.312 232.933 71.1891C232.885 71.0593 232.841 70.9599 232.8 70.8908C232.687 70.6975 232.552 70.6014 232.395 70.6025C232.267 70.6051 232.177 70.5614 232.124 70.4717C232.076 70.3888 232.034 70.2784 232 70.1403C231.972 69.9982 231.961 69.8602 231.966 69.7263C231.967 69.5856 231.983 69.478 232.014 69.4035C232.046 69.347 232.09 69.2877 232.146 69.2257C232.202 69.1637 232.28 69.0983 232.379 69.0295C232.194 68.0951 232.102 67.2491 232.104 66.4916C232.108 65.723 232.21 65.0733 232.409 64.5424C232.605 64.0046 232.897 63.618 233.288 63.3827C233.528 63.2382 233.751 63.2158 233.958 63.3155C234.16 63.4083 234.372 63.6445 234.595 64.0244L234.867 64.4905C235.275 65.1879 235.702 65.7992 236.148 66.3242C236.594 66.8493 237 67.2494 237.365 67.5246C237.742 67.8204 238.136 68.0122 238.549 68.0998C238.672 68.1193 238.763 68.1484 238.823 68.1871C238.878 68.219 238.922 68.2625 238.955 68.3177C239.015 68.4213 239.035 68.5497 239.013 68.7028C238.998 68.8518 238.949 68.998 238.866 69.1413C238.783 69.2847 238.677 69.3956 238.547 69.4741ZM233.154 68.4781C233.482 68.262 233.771 68.0741 234.02 67.9145C234.266 67.7479 234.474 67.613 234.645 67.5098L235.365 67.0763C235.238 66.8912 235.105 66.6958 234.966 66.49C234.834 66.28 234.7 66.0577 234.562 65.8229L234.211 65.2221C234.094 65.0218 233.993 64.9051 233.909 64.8718C233.827 64.8275 233.725 64.8426 233.601 64.9169C233.266 65.1192 233.059 65.5424 232.982 66.1867C232.905 66.8309 232.962 67.5947 233.154 68.4781Z" fill="#171717"/>
<path d="M236.812 104.723C236.596 104.845 236.461 105.04 236.407 105.308C236.363 105.58 236.389 105.97 236.482 106.476C236.527 106.726 236.579 106.963 236.637 107.188C236.706 107.415 236.782 107.629 236.864 107.831C236.697 107.741 236.562 107.693 236.458 107.687C236.365 107.684 236.249 107.721 236.11 107.8C235.768 107.991 235.407 108.198 235.027 108.421C234.651 108.65 234.315 108.852 234.018 109.027C233.936 108.909 233.851 108.787 233.764 108.661C233.688 108.538 233.616 108.414 233.547 108.287C233.486 108.175 233.428 108.061 233.374 107.944C233.327 107.824 233.278 107.709 233.228 107.6C233.141 107.391 232.979 107.276 232.739 107.255C232.5 107.233 232.251 107.295 231.993 107.439C231.769 107.565 231.711 107.726 231.818 107.922C231.883 108.042 232.012 108.203 232.205 108.407C232.328 108.549 232.431 108.67 232.513 108.771C232.599 108.879 232.661 108.968 232.699 109.038C232.806 109.235 232.819 109.402 232.739 109.538C232.672 109.649 232.663 109.751 232.713 109.842C232.759 109.926 232.832 110.018 232.932 110.118C233.039 110.214 233.15 110.294 233.267 110.357C233.387 110.427 233.486 110.468 233.565 110.478C233.629 110.479 233.702 110.471 233.783 110.452C233.864 110.434 233.959 110.4 234.068 110.348C234.768 110.982 235.441 111.49 236.086 111.871C236.741 112.256 237.345 112.495 237.897 112.589C238.453 112.69 238.93 112.629 239.328 112.406C239.572 112.269 239.704 112.085 239.724 111.854C239.747 111.629 239.654 111.324 239.444 110.938L239.185 110.463C238.799 109.754 238.496 109.071 238.275 108.415C238.055 107.759 237.92 107.202 237.871 106.743C237.81 106.264 237.847 105.821 237.981 105.416C238.027 105.299 238.048 105.204 238.046 105.132C238.047 105.067 238.032 105.007 238.001 104.951C237.944 104.845 237.845 104.763 237.704 104.705C237.57 104.642 237.421 104.611 237.257 104.612C237.093 104.612 236.945 104.649 236.812 104.723ZM234.929 109.947C235.279 109.77 235.584 109.612 235.846 109.474C236.112 109.344 236.332 109.229 236.507 109.132L237.239 108.721C237.333 108.925 237.432 109.14 237.536 109.366C237.648 109.588 237.769 109.818 237.899 110.057L238.231 110.668C238.342 110.872 238.391 111.019 238.376 111.11C238.373 111.204 238.308 111.286 238.182 111.356C237.84 111.548 237.376 111.515 236.789 111.257C236.203 110.999 235.583 110.562 234.929 109.947Z" fill="#050505"/>
<path d="M234.408 92.5387C236.455 91.1305 236.395 87.7176 236.395 87.7176C236.395 87.7176 239.323 88.7755 241.955 87.3484C244.748 85.8339 243.767 81.8647 241.445 80.5867C237.013 78.1477 228.881 78.8632 228.881 78.8632C228.881 78.8632 227.014 87.4627 228.971 90.9938C230.178 93.1705 231.663 94.4261 234.408 92.5387Z" fill="#111110" stroke="#353333"/>
<path d="M1 223.204C0.999908 233.189 73.5396 328.504 73.5396 328.504L110.716 303.994C110.716 303.994 139.732 286.747 137.918 276.761C136.105 266.776 107.089 225.927 107.089 225.927L69.9125 176L32.736 196.878C32.736 196.878 1.00011 213.218 1 223.204Z" fill="#FDF9EF" stroke="#FDFAEF"/>
<path d="M73.4578 200.842C73.7493 200.631 73.886 200.433 73.8677 200.249C73.8495 200.064 73.7327 199.869 73.5175 199.663C72.7768 198.981 72.0069 198.213 71.2077 197.36C70.4086 196.506 69.6649 195.604 68.9767 194.654C68.5075 194.006 68.1161 193.409 67.8025 192.862C67.4782 192.323 67.2907 191.735 67.24 191.096C67.2363 191 67.2311 190.914 67.2244 190.836C67.199 190.756 67.1707 190.694 67.1395 190.651C67.0378 190.51 66.8644 190.43 66.6194 190.41C66.3558 190.387 66.0807 190.405 65.7944 190.464C65.508 190.523 65.2676 190.623 65.0733 190.764C64.8141 190.952 64.6931 191.171 64.7102 191.422C64.7165 191.681 64.8027 191.948 64.9688 192.223C65.1271 192.487 65.3001 192.748 65.4878 193.007C65.6755 193.267 65.9028 193.546 66.1698 193.847C66.4182 194.144 66.6955 194.471 67.0016 194.825C67.4153 195.283 67.8642 195.789 68.3483 196.344C68.8246 196.888 69.2935 197.478 69.7549 198.116C70.2788 198.839 70.682 199.453 70.9642 199.956C71.2387 200.449 71.416 200.773 71.496 200.929C71.5966 201.136 71.764 201.254 71.9982 201.282C72.2324 201.309 72.481 201.278 72.7439 201.186C73.0146 201.105 73.2526 200.99 73.4578 200.842ZM67.2626 205.279C67.6946 204.966 68.0321 204.557 68.2753 204.052C68.5077 203.554 68.6715 203.007 68.7668 202.412C68.8621 201.816 68.9016 201.211 68.8852 200.597C68.858 199.991 68.8023 199.414 68.7182 198.866C68.6232 198.326 68.5148 197.869 68.393 197.497C68.2791 197.135 68.1439 196.846 67.9875 196.63C67.8154 196.392 67.5218 196.169 67.1066 195.959C66.7785 195.801 66.3465 195.637 65.8107 195.465C65.2748 195.294 64.6894 195.133 64.0545 194.984C63.4088 194.842 62.7718 194.736 62.1436 194.664C61.5046 194.6 60.9125 194.6 60.3673 194.666C59.8221 194.731 59.3821 194.885 59.0474 195.128C58.745 195.347 58.5955 195.595 58.5989 195.873C58.5836 196.147 58.6581 196.398 58.8223 196.624C58.9552 196.808 59.1338 196.975 59.358 197.125C59.5822 197.276 59.8099 197.374 60.0411 197.421C60.2724 197.467 60.4744 197.428 60.6472 197.303C60.7552 197.225 60.85 197.14 60.9315 197.048C60.9944 196.953 61.0961 196.854 61.2365 196.753C61.3769 196.651 61.5638 196.557 61.7973 196.47C62.02 196.391 62.2995 196.345 62.6357 196.332C62.9132 196.329 63.2807 196.359 63.7384 196.423C64.1882 196.475 64.6708 196.562 65.1862 196.683C65.7016 196.804 66.211 196.961 66.7145 197.157C66.8292 197.633 66.8938 198.154 66.9084 198.72C66.9151 199.275 66.8953 199.816 66.8492 200.343C66.7639 201.294 66.5869 202.072 66.318 202.679C66.0384 203.293 65.5584 203.846 64.878 204.339C64.7376 204.44 64.6693 204.539 64.673 204.635C64.666 204.739 64.7133 204.861 64.8149 205.002C65.0417 205.315 65.3795 205.531 65.8282 205.651C66.2661 205.778 66.7443 205.654 67.2626 205.279Z" fill="#050505"/>
<path d="M73.0107 305.276C73.3063 305.07 73.538 305.007 73.706 305.085C73.874 305.163 74.0198 305.337 74.1436 305.609C74.5428 306.533 75.0134 307.513 75.5554 308.549C76.0973 309.585 76.7033 310.585 77.3733 311.548C77.8301 312.205 78.2648 312.771 78.6774 313.248C79.079 313.732 79.5727 314.103 80.1585 314.361C80.248 314.396 80.3282 314.43 80.3991 314.462C80.4667 314.512 80.5157 314.559 80.5461 314.603C80.6451 314.746 80.6637 314.936 80.6018 315.174C80.5366 315.43 80.4288 315.684 80.2784 315.935C80.128 316.185 79.9543 316.379 79.7572 316.516C79.4945 316.699 79.2476 316.741 79.0163 316.642C78.7741 316.55 78.5506 316.381 78.346 316.134C78.149 315.897 77.9592 315.647 77.7764 315.385C77.5937 315.122 77.4046 314.815 77.209 314.464C77.0101 314.131 76.7938 313.762 76.5602 313.356C76.2647 312.814 75.9349 312.224 75.5709 311.583C75.2145 310.954 74.8117 310.317 74.3625 309.671C73.8524 308.938 73.4063 308.355 73.0241 307.922C72.6496 307.5 72.402 307.226 72.2811 307.099C72.1188 306.936 72.0632 306.739 72.1141 306.509C72.165 306.278 72.2771 306.054 72.4503 305.836C72.616 305.607 72.8028 305.421 73.0107 305.276ZM66.778 309.66C67.2159 309.355 67.7134 309.172 68.2707 309.109C68.817 309.054 69.3871 309.079 69.981 309.186C70.5749 309.293 71.1588 309.455 71.7327 309.673C72.2957 309.899 72.822 310.142 73.3117 310.402C73.7904 310.67 74.1856 310.923 74.4973 311.161C74.8014 311.388 75.0296 311.611 75.1818 311.83C75.3493 312.071 75.4635 312.422 75.5244 312.883C75.5649 313.244 75.5777 313.706 75.5629 314.269C75.5481 314.831 75.5064 315.437 75.4379 316.086C75.3584 316.742 75.2489 317.378 75.1094 317.995C74.959 318.619 74.7629 319.178 74.5211 319.671C74.2793 320.164 73.9888 320.529 73.6495 320.765C73.343 320.978 73.0594 321.037 72.7986 320.942C72.5345 320.866 72.3225 320.713 72.1626 320.483C72.0332 320.297 71.9344 320.074 71.8664 319.812C71.7983 319.551 71.7805 319.304 71.8129 319.07C71.8453 318.836 71.949 318.659 72.1241 318.537C72.2336 318.461 72.3452 318.399 72.4589 318.353C72.5693 318.324 72.6957 318.261 72.838 318.162C72.9803 318.063 73.1309 317.918 73.2899 317.726C73.4379 317.542 73.5735 317.293 73.6968 316.98C73.7915 316.719 73.8843 316.362 73.9752 315.909C74.0738 315.467 74.1511 314.983 74.2073 314.457C74.2635 313.93 74.2826 313.397 74.2645 312.858C73.8524 312.592 73.3818 312.359 72.8526 312.159C72.331 311.969 71.8138 311.809 71.3008 311.679C70.3752 311.446 69.5819 311.356 68.9209 311.41C68.2489 311.471 67.5681 311.742 66.8785 312.221C66.7362 312.32 66.6204 312.352 66.5309 312.317C66.4305 312.289 66.3308 312.204 66.2318 312.062C66.011 311.745 65.9183 311.354 65.9535 310.891C65.9778 310.436 66.2526 310.025 66.778 309.66Z" fill="#050505"/>
<path d="M56.708 276.13C60.7425 280.282 66.4256 280.101 71.3304 277.033C71.3304 277.033 75.3846 273.759 76.6177 271.399C77.9515 268.845 76.4404 264.307 76.4404 264.307L78.5692 267.101L80.698 269.896C80.698 269.896 81.5119 272.858 81.2032 275.131C80.8945 277.404 79.5043 282.046 79.5043 282.046L88.3209 275.328L96.5864 269.031C96.5864 269.031 92.8957 269.063 90.4069 268.922C87.9823 268.783 83.4532 267.796 83.4532 267.796L78.6446 262.628C78.6446 262.628 82.2408 264.004 84.6602 263.665C87.3363 263.29 88.7467 262.15 90.9447 260.483C94.0829 258.102 97.7123 255.094 98.2131 251.734C98.7138 248.373 97.3685 245.161 94.6114 242.434C92.2287 240.078 89.8066 238.968 86.6606 238.857C83.5146 238.745 77.3979 242.702 77.3979 242.702C77.3979 242.702 72.5848 234.877 68.9418 233.89C65.2988 232.903 60.9091 234.25 57.4159 237.051C54.1127 239.7 52.3184 242.793 52.4107 246.485C52.503 250.177 59.2137 256.557 59.2137 256.557C59.2137 256.557 52.8216 261.992 52.3323 265.814C51.8431 269.636 53.8756 273.215 56.708 276.13Z" fill="#111110" stroke="#353333"/>
<path d="M87.7638 52.9603C95.492 56.1554 95.4459 66.7354 95.4459 66.7354C95.4459 66.7354 108.253 61.5231 114.096 70.9288C118.405 77.8646 114.586 82.9914 108.141 88.1119C99.9824 94.5939 78.7021 94.2608 78.7021 94.2608C78.7021 94.2608 66.4015 69.1604 73.441 58.5513C77.3032 52.7306 81.0902 50.2012 87.7638 52.9603Z" fill="#E25236" stroke="#EA4027"/>
<path d="M285.432 125.356C281.097 132.709 295.672 235.885 295.672 235.885L334.988 234.742C334.988 234.742 364.857 235.235 367.793 227.057C370.729 218.879 366.082 175.604 366.082 175.604L359.081 121.932L321.34 120.402C321.34 120.402 289.767 118.003 285.432 125.356Z" fill="#FDF9EF" stroke="#FDFAEF"/>
<path d="M308.39 184.703C309.349 189.338 313.431 191.712 318.274 191.754C318.274 191.754 322.61 191.281 324.548 190.196C326.643 189.023 327.635 185.232 327.635 185.232L327.868 188.093L328.101 190.955C328.101 190.955 327.332 193.354 326.085 194.784C324.838 196.215 321.756 198.802 321.756 198.802L331.006 198.05L339.677 197.344C339.677 197.344 337.064 195.744 335.376 194.552C333.732 193.391 330.991 190.719 330.991 190.719L329.948 185.044C329.948 185.044 331.856 187.573 333.712 188.403C335.766 189.321 337.275 189.156 339.578 188.974C342.865 188.713 346.783 188.236 348.658 186.14C350.532 184.045 351.041 181.24 350.335 178.149C349.725 175.477 348.523 173.648 346.359 172.188C344.195 170.728 338.097 170.765 338.097 170.765C338.097 170.765 338.254 163.257 336.137 160.975C334.019 158.693 330.319 157.691 326.591 158.086C323.066 158.459 320.402 159.801 318.794 162.386C317.187 164.97 319.02 172.317 319.02 172.317C319.02 172.317 312.058 173.252 309.983 175.671C307.907 178.089 307.717 181.449 308.39 184.703Z" fill="#E25236" stroke="#EA4027"/>
<path d="M300.303 139.889C299.811 139.785 299.374 139.572 298.99 139.251C298.613 138.941 298.286 138.579 298.01 138.167C297.742 137.764 297.511 137.37 297.318 136.983C297.158 136.985 296.996 136.977 296.831 136.96C296.675 136.944 296.521 136.92 296.368 136.888C295.825 136.773 295.365 136.564 294.986 136.262C294.607 135.961 294.335 135.593 294.17 135.159C294.014 134.727 293.98 134.259 294.069 133.756C294.204 133.076 294.563 132.536 295.143 132.136C295.632 131.797 296.05 131.664 296.397 131.738C296.575 131.776 296.698 131.868 296.764 132.015C296.832 132.153 296.895 132.357 296.953 132.627C297.065 133.102 297.21 133.589 297.387 134.088C297.575 134.579 297.793 135.077 298.041 135.582C298.608 135.498 299.113 135.246 299.556 134.827C300 134.407 300.286 133.852 300.414 133.162C300.528 132.583 300.507 132.078 300.351 131.646C300.194 131.214 299.945 130.865 299.603 130.597C299.271 130.323 298.885 130.139 298.444 130.046C297.978 129.947 297.547 129.953 297.151 130.064C296.766 130.168 296.423 130.321 296.123 130.524C295.825 130.717 295.582 130.905 295.393 131.086C295.348 131.13 295.294 131.154 295.231 131.158C295.168 131.163 295.116 131.16 295.073 131.151C294.946 131.124 294.868 131.055 294.839 130.942C294.818 130.831 294.824 130.7 294.856 130.547C294.909 130.257 295.048 129.977 295.274 129.705C295.51 129.428 295.808 129.19 296.169 128.992C296.539 128.796 296.953 128.662 297.411 128.591C297.869 128.52 298.356 128.539 298.873 128.648C299.916 128.87 300.661 129.369 301.107 130.146C301.554 130.923 301.666 131.877 301.444 133.008C301.261 133.952 300.908 134.741 300.384 135.374C299.868 136.009 299.254 136.459 298.542 136.725C298.716 136.992 298.927 137.249 299.176 137.497C299.423 137.753 299.696 137.97 299.994 138.149C300.293 138.327 300.595 138.449 300.9 138.514C301.129 138.562 301.334 138.579 301.514 138.564C301.703 138.551 301.814 138.548 301.848 138.555C301.916 138.57 301.954 138.64 301.963 138.766C301.979 138.902 301.974 139.029 301.949 139.148C301.871 139.513 301.671 139.745 301.349 139.845C301.033 139.955 300.685 139.97 300.303 139.889ZM296.775 135.473C296.557 135.037 296.395 134.63 296.289 134.253C296.183 133.876 296.087 133.471 296.002 133.036C295.965 132.922 295.908 132.857 295.831 132.84C295.713 132.815 295.581 132.872 295.437 133.009C295.292 133.147 295.2 133.331 295.16 133.562C295.086 133.954 295.197 134.327 295.494 134.682C295.799 135.04 296.226 135.303 296.775 135.473Z" fill="#EE4E2C"/>
<path d="M338.833 220.751C339.324 220.855 339.762 221.068 340.146 221.388C340.523 221.699 340.85 222.06 341.125 222.473C341.394 222.876 341.625 223.27 341.818 223.657C341.977 223.655 342.14 223.663 342.304 223.68C342.461 223.695 342.615 223.719 342.768 223.752C343.31 223.867 343.771 224.075 344.15 224.377C344.529 224.679 344.801 225.047 344.966 225.48C345.122 225.912 345.156 226.38 345.067 226.884C344.931 227.564 344.573 228.104 343.992 228.503C343.504 228.843 343.086 228.975 342.738 228.902C342.56 228.864 342.438 228.772 342.372 228.625C342.304 228.486 342.241 228.282 342.183 228.013C342.071 227.538 341.926 227.051 341.748 226.552C341.56 226.06 341.343 225.562 341.095 225.058C340.528 225.142 340.023 225.393 339.579 225.813C339.136 226.233 338.85 226.788 338.721 227.478C338.607 228.056 338.629 228.562 338.785 228.993C338.942 229.425 339.191 229.775 339.533 230.042C339.864 230.316 340.251 230.5 340.692 230.594C341.158 230.693 341.589 230.687 341.984 230.576C342.37 230.471 342.712 230.318 343.012 230.116C343.31 229.922 343.554 229.735 343.743 229.553C343.788 229.51 343.841 229.486 343.904 229.481C343.967 229.477 344.02 229.479 344.062 229.488C344.19 229.515 344.268 229.585 344.297 229.698C344.318 229.808 344.312 229.94 344.28 230.093C344.227 230.383 344.088 230.663 343.862 230.934C343.626 231.212 343.327 231.45 342.966 231.648C342.597 231.844 342.183 231.978 341.725 232.049C341.267 232.12 340.779 232.101 340.262 231.991C339.219 231.77 338.475 231.271 338.028 230.494C337.582 229.717 337.47 228.763 337.692 227.632C337.875 226.687 338.228 225.898 338.752 225.265C339.268 224.631 339.881 224.18 340.593 223.915C340.42 223.648 340.209 223.39 339.96 223.143C339.713 222.887 339.44 222.669 339.141 222.491C338.843 222.312 338.541 222.191 338.235 222.126C338.006 222.077 337.802 222.06 337.621 222.075C337.433 222.088 337.321 222.091 337.287 222.084C337.22 222.07 337.181 222 337.173 221.874C337.157 221.738 337.162 221.61 337.187 221.491C337.264 221.127 337.464 220.895 337.787 220.795C338.103 220.685 338.451 220.67 338.833 220.751ZM342.361 225.167C342.579 225.603 342.74 226.01 342.847 226.386C342.953 226.763 343.048 227.169 343.133 227.603C343.171 227.718 343.228 227.783 343.304 227.799C343.423 227.824 343.555 227.768 343.699 227.63C343.843 227.493 343.936 227.309 343.976 227.078C344.05 226.686 343.939 226.312 343.642 225.957C343.337 225.6 342.91 225.337 342.361 225.167Z" fill="#EE4E2C"/>
<defs>
<filter id="filter0_d_219_23" x="203.5" y="235.729" width="84.5451" height="93.3252" filterUnits="userSpaceOnUse" color-interpolation-filters="sRGB">
<feFlood flood-opacity="0" result="BackgroundImageFix"/>
<feColorMatrix in="SourceAlpha" type="matrix" values="0 0 0 0 0 0 0 0 0 0 0 0 0 0 0 0 0 0 127 0" result="hardAlpha"/>
<feOffset dy="4"/>
<feGaussianBlur stdDeviation="2"/>
<feComposite in2="hardAlpha" operator="out"/>
<feColorMatrix type="matrix" values="0 0 0 0 0.740385 0 0 0 0 0.621685 0 0 0 0 0.434264 0 0 0 0.42 0"/>
<feBlend mode="normal" in2="BackgroundImageFix" result="effect1_dropShadow_219_23"/>
<feBlend mode="normal" in="SourceGraphic" in2="effect1_dropShadow_219_23" result="shape"/>
</filter>
<filter id="filter1_d_219_23" x="201.5" y="55.1357" width="65" height="72.5298" filterUnits="userSpaceOnUse" color-interpolation-filters="sRGB">
<feFlood flood-opacity="0" result="BackgroundImageFix"/>
<feColorMatrix in="SourceAlpha" type="matrix" values="0 0 0 0 0 0 0 0 0 0 0 0 0 0 0 0 0 0 127 0" result="hardAlpha"/>
<feOffset dy="4"/>
<feGaussianBlur stdDeviation="2"/>
<feComposite in2="hardAlpha" operator="out"/>
<feColorMatrix type="matrix" values="0 0 0 0 0.740385 0 0 0 0 0.621685 0 0 0 0 0.434264 0 0 0 0.42 0"/>
<feBlend mode="normal" in2="BackgroundImageFix" result="effect1_dropShadow_219_23"/>
<feBlend mode="normal" in="SourceGraphic" in2="effect1_dropShadow_219_23" result="shape"/>
</filter>
</defs>
</svg>
