<svg width="688" height="715" viewBox="0 0 688 715" fill="none" xmlns="http://www.w3.org/2000/svg">
<g filter="url(#filter0_d_877_652)">
<path d="M146.677 386.386C133.48 398.383 126.969 405.101 117.253 419.286C106.274 435.315 101.022 446.119 95.5067 463.878C94.5906 468.275 93.3172 475.94 93.3094 487.801C93.3063 492.634 95.4057 509.835 96.9113 514.964C97.5197 517.037 98.3224 518.395 100.082 519.524C101.731 520.583 105.635 520.091 105.635 520.091C105.635 520.091 104.904 517.054 106.17 515.728C108.607 513.178 111.497 512.617 115.148 511.667C119.084 510.643 121.409 510.551 125.462 510.178C128.189 509.927 133.147 510.009 136.518 510.777C139.89 511.545 142.17 512.413 143.619 514.436C143.619 514.436 146.54 514.984 146.793 513.066C147.441 508.154 147.188 500.589 148.28 495.138C149.207 490.511 151.082 487.519 153.407 483.345C156.572 477.662 160.295 470.31 160.295 470.31L178.221 448.174C178.221 448.174 183.025 472.23 186.675 486.21C190.326 500.191 196.917 519.771 196.917 519.771C196.917 519.771 200.898 533.372 204.439 541.72C207.242 548.329 212.35 557.704 212.35 557.704C212.35 557.704 213.627 558.904 214.827 560.71C217.272 564.392 219.326 568.981 221.573 572.467C226.826 580.614 233.758 591.291 237.576 590.94C243.031 590.438 248.919 582.955 255.487 576.374C258.774 573.081 260.82 570.205 263.427 567.017C266.033 563.83 268.786 559.515 268.786 559.515C268.786 559.515 277.771 543.592 279.62 521.858C280.105 516.153 280.45 512.805 280.473 507.223C280.496 501.642 279.689 492.74 279.689 492.74C278.06 481.029 277.272 472.476 271.727 460.048L246.004 443.548C233.664 434.981 226.356 434.468 225.88 434.08C225.404 433.693 227.122 429.653 226.528 429.169C226.356 429.029 224.627 428.314 221.967 427.432L221.84 427.39C218.852 426.4 214.895 425.088 213.244 422.305C210.343 417.416 212.919 413.671 211.915 407.872C210.847 401.708 209.039 397.204 206.025 391.702C204.895 389.64 202.595 386.088 202.595 386.088C202.595 386.088 200.157 382.852 197.851 380.594C195.605 378.396 193.58 376.754 190.764 375.317C186.75 373.268 184.648 372.873 180.056 372.529C175.361 372.177 168.056 373.634 168.056 373.634C168.056 373.634 161.416 376 157.492 378.381C152.992 381.111 150.558 382.858 146.677 386.386Z" fill="#B2362D"/>
<path d="M102.199 542.511C101.678 546.955 95.9865 554.638 100.403 558.85C105.608 563.814 116.623 549.808 116.623 549.808C116.623 549.808 107.299 568.342 115.319 571.493C122.329 574.247 130.787 556.051 130.787 556.051C130.787 556.051 129.211 572.503 134.357 575.131C140.953 578.499 143.374 567.291 145.027 559.592C145.854 555.741 145.289 538.542 145.289 538.542C145.289 538.542 156.895 542.143 158.925 537.287C160.543 533.416 154.717 527.431 154.717 527.431L143.619 514.436C142.17 512.413 139.89 511.545 136.518 510.777C133.147 510.009 128.189 509.927 125.462 510.178C121.409 510.551 119.084 510.643 115.148 511.667C111.497 512.617 108.607 513.178 106.17 515.728C104.904 517.054 105.635 520.091 105.635 520.091C105.635 520.091 104.374 527.541 103.829 532.118C103.284 536.694 102.72 538.067 102.199 542.511Z" fill="#FDF8E6"/>
<path d="M225.5 389.908C221.878 399.424 234.507 416.034 240.01 416.066C240.01 416.066 242.796 416.443 245.465 415.564C247.255 414.975 250.387 413.493 250.387 413.493C250.387 413.493 254.129 411.805 257.084 408.564C259.748 405.642 261.689 401.67 261.948 401.646C263.915 401.465 266.79 402.498 269.584 400.943C271.565 399.841 273.058 396.85 274.099 396.214C274.099 396.214 281.933 397.65 286.94 398.267C296.564 399.452 298.247 395.608 298.247 395.608C299.565 393.592 298.04 389.158 298.04 389.158C296.752 387.12 294.209 383.663 291.959 381.092C289.051 377.768 285.343 374.753 282.829 373.307C276.885 379.642 264.207 385.929 251.78 388.566C242.256 390.587 232.49 390.192 225.593 389.912L225.5 389.908Z" fill="#36A6DD"/>
<path d="M202.595 386.088C202.595 386.088 204.895 389.64 206.025 391.702C209.039 397.204 210.847 401.708 211.915 407.872C212.919 413.671 210.343 417.416 213.244 422.305C214.895 425.088 218.852 426.4 221.84 427.39L221.967 427.432C224.627 428.314 226.356 429.029 226.528 429.169C227.122 429.653 225.404 433.693 225.88 434.08C226.356 434.468 233.664 434.981 246.004 443.548L271.727 460.048L261.084 434.073L250.387 413.493C250.387 413.493 247.255 414.975 245.465 415.564C242.796 416.443 240.01 416.066 240.01 416.066C234.507 416.034 221.878 399.424 225.5 389.908C225.5 389.908 217.801 389.415 213.303 388.875C208.665 388.319 202.595 386.088 202.595 386.088Z" fill="#982A21"/>
<path d="M261.084 434.073L271.727 460.048C277.272 472.476 278.06 481.029 279.689 492.74C279.689 492.74 331.108 489.621 336.267 485.911C338.479 484.321 338.898 477.635 339.749 469.957C340.513 463.061 340.472 456.099 341.692 455.222C343.516 453.91 348.931 456.172 354.533 457.274C360.312 458.41 368.366 458.156 368.366 458.156C368.366 458.156 373.262 453.501 374.669 448.95C376.556 442.846 374.874 439.227 372.991 436.705C369.093 431.482 360.999 425.949 360.999 425.949C360.999 425.949 340.642 411.099 328.14 403.637C315.638 396.175 298.04 389.158 298.04 389.158C298.04 389.158 299.565 393.592 298.247 395.608C298.247 395.608 296.564 399.452 286.94 398.267C281.933 397.65 274.099 396.214 274.099 396.214C273.058 396.85 271.565 399.841 269.584 400.943C266.79 402.498 263.915 401.465 261.948 401.646C261.689 401.67 259.748 405.642 257.084 408.564C254.129 411.805 250.387 413.493 250.387 413.493L261.084 434.073Z" fill="#F5BD43"/>
<path d="M339.844 305.519C345.662 307.374 347.28 307.759 352.684 307.571C355.9 307.46 361.568 306.699 361.568 306.699C361.568 306.699 372.189 288.294 381.523 278.499C384.3 275.586 386.273 273.98 388.953 271.345C391.98 268.371 393.655 265.709 391.984 262.44C389.002 256.611 373.649 264.668 373.649 264.668C373.649 264.668 388.785 243.866 380.755 240.293C373.083 236.879 356.846 255.433 356.846 255.433C356.846 255.433 370.744 233.128 363.594 228.935C358.999 226.239 355.413 229.688 351.555 233.817C347.542 238.112 345.584 242.052 342.757 247.566C340.09 252.769 337.443 261.533 337.443 261.533C337.443 261.533 324.955 251.362 318.866 255.158C313.523 258.488 323.405 270.374 323.405 270.374C323.405 270.374 324.12 276.682 325.53 281.499C326.94 286.317 330.096 293.478 330.096 293.478L329.386 299.474C329.386 299.474 334.384 303.778 339.844 305.519Z" fill="#FCF7E7"/>
<path d="M474.311 479.667C485.134 478.285 496.276 479.261 501.583 477.155C504.767 475.892 508.534 463.037 508.534 463.037C508.534 463.037 509.837 458.135 510.572 455.302C512.914 446.275 514.177 440.579 513.86 431.278C513.638 424.763 512.383 415.241 512.383 415.241C512.383 415.241 511.814 410.011 509.561 408.493C506.042 406.121 501.437 402.39 495.535 399.541C483.081 393.53 475.197 391.872 461.577 389.191C451.918 387.29 448.142 386.655 438.176 385.955C438.176 385.955 433.763 385.822 430.491 386.124C427.709 386.38 423.483 386.713 420.176 387.613C411.76 389.904 408.006 392.702 400.139 397.006C390.065 402.517 375.832 413.801 375.832 413.801L360.999 425.949C360.999 425.949 369.093 431.482 372.991 436.705C374.874 439.227 376.556 442.846 374.669 448.95C373.262 453.501 368.366 458.156 368.366 458.156C368.366 458.156 369.945 469.332 373.812 469.515C380.376 469.825 396.346 466.287 410.903 466.099C419.342 465.99 426.014 466.047 432.471 467.347C438.927 468.647 441.334 469.517 446.152 472.556C450.477 475.284 455.765 481.375 455.765 481.375C455.765 481.375 460.757 481.03 463.947 480.621C467.766 480.132 473.767 479.736 474.311 479.667Z" fill="#36A6DD"/>
<path d="M533.124 467.242C533.124 467.242 539.813 474.173 545.662 477.948C549.406 480.364 553.245 482.64 559.839 482.572C561.154 482.559 566.305 481.106 573.881 467.801C580.036 456.991 582.624 451.016 586.692 439.666C590.913 427.889 592.722 421.026 594.844 408.725C597.372 394.066 597.742 374.494 596.852 370.802C595.962 367.11 593.19 362.96 589.966 361.732C583.125 359.128 575.058 362.759 570.129 367.333C563.034 373.917 554.197 391.443 554.197 391.443C554.197 391.443 551.356 396.861 550.026 399.914C548.667 403.033 547.492 408.234 547.492 408.234C547.492 408.234 547.662 421.226 547.181 428.749C546.73 435.799 546.436 439.977 543.897 446.842C542.132 451.615 540.719 454.143 538.386 458.671C536.666 462.008 533.124 467.242 533.124 467.242Z" fill="#111110"/>
<path d="M513.86 431.278C514.177 440.579 512.914 446.275 510.572 455.302C509.837 458.135 508.534 463.037 508.534 463.037C509.261 462.97 525.109 465.824 533.124 467.242C533.124 467.242 536.666 462.008 538.386 458.671C540.719 454.143 542.132 451.615 543.897 446.842C546.436 439.977 546.73 435.799 547.181 428.749C547.662 421.226 547.492 408.234 547.492 408.234C545.51 406.962 538.723 421.036 530.477 420.583C522.232 420.13 512.422 415.464 512.383 415.241C512.383 415.241 513.638 424.763 513.86 431.278Z" fill="#FDF8E6"/>
<path d="M268.786 559.515C268.786 559.515 273.353 563.182 276.468 565.277C282.817 569.545 286.447 571.157 293.606 573.941C301.205 576.897 314.092 579.602 314.092 579.602C314.092 579.602 326.446 581.383 334.569 580.951C342.692 580.519 347.622 579.574 355.694 577.388C368.354 573.96 375.47 570.827 386.94 564.267C391.326 561.759 398.447 557.817 398.447 557.817C398.447 557.817 404.94 564.986 409.943 569.157C414.946 573.328 419.722 576.259 425.257 580.146C431.658 584.642 435.912 588.33 440.522 590.601C443.403 592.02 446.532 588.969 446.969 588.929C447.405 588.889 454.667 585.374 459.82 580.873C462.215 578.781 473.112 568.191 479.567 554.658C479.567 554.658 482.464 548.333 483.541 544.049C484.385 540.689 485.331 536.337 484.935 535.295C482.757 529.566 480.84 526.108 478.052 520.295C473.362 510.513 471.045 504.828 465.326 495.59C461.657 489.662 455.765 481.375 455.765 481.375C455.765 481.375 450.477 475.284 446.152 472.556C441.334 469.517 438.927 468.647 432.471 467.347C426.014 466.047 419.342 465.99 410.903 466.099C396.346 466.287 380.376 469.825 373.812 469.515C369.945 469.332 368.366 458.156 368.366 458.156C368.366 458.156 360.312 458.41 354.533 457.274C348.931 456.172 343.516 453.91 341.692 455.222C340.472 456.099 340.513 463.061 339.749 469.957C338.898 477.635 338.479 484.321 336.267 485.911C331.108 489.621 279.689 492.74 279.689 492.74C279.689 492.74 280.496 501.642 280.473 507.223C280.45 512.805 280.105 516.153 279.62 521.858C277.771 543.592 268.786 559.515 268.786 559.515Z" fill="#36A6DD"/>
<path d="M454.056 594.207C454.056 594.207 458.411 605.666 462.614 611.209C465.974 615.641 468.582 618.409 474.021 619.862C477.345 620.751 482.846 620.128 482.846 620.128C482.846 620.128 492.068 616.897 508.687 608.044C512.357 606.089 524.468 598.754 533.588 591.734C539.766 586.979 546.538 581.378 552.391 574.907C562.135 564.135 565.293 559.702 569.611 552.835C573.271 547.014 573.289 539.018 571.308 535.427C568.195 529.783 558.221 530.702 556.585 530.853C551.931 531.281 542.488 534.464 532.581 538.994C525.071 542.428 516.76 546.381 511.006 549.606L490.571 560.653C490.571 560.653 487.721 571.048 481.684 577.645C476.874 582.901 473.293 585.689 467.396 589.743C463.775 592.233 454.056 594.207 454.056 594.207Z" fill="#111110"/>
<path d="M459.82 580.873C454.667 585.374 447.405 588.889 446.969 588.929C447.841 588.849 452.057 592.414 454.056 594.207C454.056 594.207 463.775 592.233 467.396 589.743C473.293 585.689 476.874 582.901 481.684 577.645C487.721 571.048 490.571 560.653 490.571 560.653L479.567 554.658C473.112 568.191 462.215 578.781 459.82 580.873Z" fill="#FDF8E6"/>
<path d="M160.295 470.31C160.295 470.31 164.19 485.133 166.579 490.757C172.309 504.246 171.701 502.831 176.828 512.456C181.869 521.919 184.894 527.264 191.254 535.926C197.692 544.695 207.592 553.829 210.566 556.251L212.35 557.704C212.35 557.704 207.242 548.329 204.439 541.72C200.898 533.372 196.917 519.771 196.917 519.771C196.917 519.771 190.326 500.191 186.675 486.21C183.025 472.23 178.221 448.174 178.221 448.174L160.295 470.31Z" fill="#982B21"/>
<path d="M360.999 425.949L375.832 413.801C375.832 413.801 358.837 396.497 350.56 390.251C342.723 384.336 337.625 381.199 337.625 381.199C337.625 381.199 324.287 374.893 315.319 371.932L293.831 362C290.31 366.609 286.383 370.466 282.829 373.307C285.343 374.753 289.051 377.768 291.959 381.092C294.209 383.663 296.752 387.12 298.04 389.158C298.04 389.158 315.638 396.175 328.14 403.637C340.642 411.099 360.999 425.949 360.999 425.949Z" fill="#B2362D"/>
<path d="M337.625 381.199C338.301 378.98 348.345 366.195 356.591 342.254C361.323 328.515 365.62 316.623 367.622 306.735C367.728 306.208 364.351 304.664 363.16 306.067L361.568 306.699C361.568 306.699 355.9 307.46 352.684 307.571C347.28 307.759 345.662 307.374 339.844 305.519C334.384 303.778 329.386 299.474 329.386 299.474C329.386 299.474 327.561 295.531 326.215 294.914C324.87 294.297 323.153 295.735 323.153 295.735C323.153 295.735 317.391 302.53 314.109 306.811C309.737 312.515 307.116 315.181 303.34 321.281L302.5 322.394C307.646 337.385 301.773 351.604 293.831 362L315.319 371.932C324.287 374.893 337.625 381.199 337.625 381.199Z" fill="#B2362D"/>
<path fill-rule="evenodd" clip-rule="evenodd" d="M99.8681 87.1776C90.5238 89.9584 90.0704 113.957 91.6459 131.063C92.7782 143.359 92.6772 148.093 94.3538 160.465C96.0303 172.838 97.0266 181.217 101.435 193.777C106.939 209.462 112.897 218.812 121.776 231.258C126.088 237.301 129.363 240.825 134.113 245.756C138.864 250.688 146.105 256.513 146.105 256.513C141 263.5 138.737 295.831 139.5 309.5C132.323 321 138.578 348.5 146.105 357.5C149.451 361.5 160.204 372.423 168.056 373.634C168.056 373.634 175.361 372.177 180.056 372.529C184.648 372.873 186.75 373.268 190.764 375.317C193.58 376.754 195.605 378.396 197.851 380.594C200.157 382.852 202.595 386.088 202.595 386.088C202.595 386.088 208.665 388.319 213.303 388.875C217.801 389.415 225.5 389.908 225.5 389.908L225.593 389.912C232.49 390.192 242.256 390.587 251.78 388.566C264.207 385.929 276.885 379.642 282.829 373.307C286.383 370.466 290.31 366.609 293.831 362C301.773 351.604 307.646 337.385 302.5 322.394C300.074 315.328 295.2 308.09 286.94 301L286.352 292.116C286.274 291.261 283.76 282.112 281.862 277.434C278.572 269.324 274.9 265.439 268.636 259.245C262.781 253.456 258.84 250.707 251.538 246.802C249.769 245.857 246.928 244.531 246.928 244.531C246.928 244.531 251.109 222.016 251.762 207.427C251.762 207.427 253.952 188.577 252.612 176.619C251.265 164.596 244.897 146.601 244.897 146.601C244.779 145.318 217.766 84.9452 198.13 86.7536C183.948 88.0597 183.972 131.129 188.475 159.344C188.475 159.344 191.349 181.107 194.389 195.459C197.43 209.811 204.046 232.847 204.046 232.847C204.046 232.847 196.493 232.687 191.836 233.432C187.179 234.177 180.194 236.661 180.194 236.661C180.194 236.661 176.26 213.634 172.88 199.057C170.145 187.258 168.356 179.798 165.004 169.054C161.651 158.309 160.28 153.414 155.711 144.032C146.668 125.464 139.056 115.764 123.758 101.69C115.767 94.3391 107.741 84.8348 99.8681 87.1776ZM105.653 169.667C99.409 145.784 94.9379 101.109 106.487 107.054C113.688 110.761 121.252 124.024 121.252 124.024C127.5 133.554 135.969 156.633 135.969 156.633C135.969 156.633 151.299 199.427 156.801 221.563C156.801 221.563 161.882 242.66 163.067 249.559C164.274 256.585 161.624 257.779 160.149 257.914C156.715 258.231 138.547 235.681 127.945 218.83C122.707 210.504 120.064 205.631 115.849 196.762C111.061 186.688 108.468 180.439 105.653 169.667Z" fill="#F9F5E9"/>
<path d="M106.487 107.054C94.9379 101.109 99.409 145.784 105.653 169.667C108.468 180.439 111.061 186.688 115.849 196.762C120.064 205.631 122.707 210.504 127.945 218.83C138.547 235.681 156.715 258.231 160.149 257.914C161.624 257.779 164.274 256.585 163.067 249.559C161.882 242.66 156.801 221.563 156.801 221.563C151.299 199.427 135.969 156.633 135.969 156.633C135.969 156.633 127.5 133.554 121.252 124.024C121.252 124.024 113.688 110.761 106.487 107.054Z" fill="#FBC4A4"/>
<path d="M198.398 296.142C187.593 296.142 183.703 318.857 198.398 321C211.749 322.947 213.581 296.142 198.398 296.142Z" fill="#202D36"/>
<path fill-rule="evenodd" clip-rule="evenodd" d="M208.339 322.594C217.415 319.044 215.686 289.285 197.534 291.428C192.03 292.078 182.147 298.028 186.297 314.143C186.533 314.841 186.906 315.748 187.4 316.714C188.712 319.279 190.881 322.263 193.644 322.902C199.556 321.876 204.491 322.029 208.339 322.594ZM198.398 296.142C187.593 296.142 183.703 318.857 198.398 321C211.749 322.947 213.581 296.142 198.398 296.142Z" fill="#865441"/>
<path d="M197.534 291.428C215.686 289.285 217.415 319.044 208.339 322.594C212.611 323.22 215.543 324.353 216.983 324.941C218.02 325.344 220.297 322.767 221.305 321.428C222.602 317.286 223.293 306.171 215.686 294.857C208.08 283.542 197.534 285.571 193.212 287.999C180.419 297.257 184.007 311 187.4 316.714C186.906 315.748 186.533 314.841 186.297 314.143C182.147 298.028 192.03 292.078 197.534 291.428Z" fill="#FCFCFC"/>
<path d="M223.898 318.857C221.478 283.542 200.559 280.878 192.348 285.428C178.611 293.04 180.714 309.011 186.297 317.631C188.091 320.402 190.245 322.413 192.348 323.143C192.785 323.056 193.217 322.976 193.644 322.902C190.881 322.263 188.712 319.279 187.4 316.714C184.007 311 180.419 297.257 193.212 287.999C197.534 285.571 208.08 283.542 215.686 294.857C223.293 306.171 222.602 317.286 221.305 321.428C220.297 322.767 218.02 325.344 216.983 324.941C217.394 325.108 217.683 325.231 217.847 325.286C218.885 325.629 223.553 323.915 225.195 322.286C225.627 321.857 223.996 320.284 223.898 318.857Z" fill="#A69D9D"/>
<path d="M278.788 293.571C276.368 283.285 270.864 284.714 268.415 286.714C268.415 296.404 270.327 303.252 272.116 307.13C275.348 306.896 280.805 302.142 278.788 293.571Z" fill="#202D36"/>
<path d="M269.879 281.999C269.186 283.604 268.699 285.306 268.415 286.714C270.864 284.714 276.368 283.285 278.788 293.571C280.805 302.142 275.348 306.896 272.116 307.13C272.55 308.072 272.978 308.839 273.369 309.428C279.618 311.726 283.975 303 281.814 290.999C280.085 281.399 273.137 280.999 269.879 281.999Z" fill="#865441"/>
<path d="M274.466 310.714C275.849 311.743 277.947 311.079 278.788 310.285C280.004 309.139 281.682 307.906 283.11 307.13C285.699 305.197 286.627 298.789 285.713 292.285C284.931 286.729 282.805 281.104 279.22 278.142C274.749 274.447 271.646 277.905 269.879 281.999C273.137 280.999 280.085 281.399 281.814 290.999C283.975 303 279.618 311.726 273.369 309.428C273.788 310.062 274.166 310.491 274.466 310.714Z" fill="#FCFCFC"/>
<path d="M268.415 286.714C268.699 285.306 269.186 283.604 269.879 281.999C271.646 277.905 274.749 274.447 279.22 278.142C282.805 281.104 284.931 286.729 285.713 292.285C285.277 284.856 282.073 271.199 272.737 275.999C271.198 277.428 268.178 281.571 268.415 286.714Z" fill="#A59D9D"/>
<path d="M273.206 339.831C276.663 335.211 282.452 325.365 277.959 322.939C272.342 319.907 256.789 327.27 256.789 333.767C256.789 338.965 267.734 339.976 273.206 339.831Z" fill="#F9C4A2"/>
<path d="M271.91 350.659C273.293 351.699 275.367 351.959 276.231 351.959C287.031 347.194 287.031 335.933 284.871 326.837C283.143 319.561 276.951 313.122 274.071 310.812C276.547 311.874 282.4 311.4 286 301M271.91 350.659C268.166 356.001 257.481 363.653 244.693 351.526M271.91 350.659C273.35 348.782 275.626 343.989 273.206 339.831M244.693 351.526C243.973 351.67 242.532 352.479 242.532 354.558M244.693 351.526C245.125 350.804 246.075 349.447 246.421 349.793M273.206 339.831C276.663 335.211 282.452 325.365 277.959 322.939C272.342 319.907 256.789 327.27 256.789 333.767C256.789 338.965 267.734 339.976 273.206 339.831ZM176 282.225C179.312 272.552 189.825 255.804 205.378 266.199M262.02 262.301C262.74 260.857 265.044 258.23 268.5 259.269M190 324.5C195 322.667 207.7 320.5 218.5 326.5" stroke="#A59D9D" stroke-linecap="round"/>
</g>
<defs>
<filter id="filter0_d_877_652" x="0.948425" y="0.713745" width="686.341" height="713.626" filterUnits="userSpaceOnUse" color-interpolation-filters="sRGB">
<feFlood flood-opacity="0" result="BackgroundImageFix"/>
<feColorMatrix in="SourceAlpha" type="matrix" values="0 0 0 0 0 0 0 0 0 0 0 0 0 0 0 0 0 0 127 0" result="hardAlpha"/>
<feOffset dy="4"/>
<feGaussianBlur stdDeviation="45"/>
<feComposite in2="hardAlpha" operator="out"/>
<feColorMatrix type="matrix" values="0 0 0 0 0 0 0 0 0 0 0 0 0 0 0 0 0 0 0.25 0"/>
<feBlend mode="normal" in2="BackgroundImageFix" result="effect1_dropShadow_877_652"/>
<feBlend mode="normal" in="SourceGraphic" in2="effect1_dropShadow_877_652" result="shape"/>
</filter>
</defs>
</svg>
