<svg width="497" height="593" viewBox="0 0 497 593" fill="none" xmlns="http://www.w3.org/2000/svg">
<path d="M153.675 518.207L144.572 524.104C146.19 525.086 149.548 527.052 150.034 527.052C150.64 527.052 154.281 528.821 154.888 528.821C155.374 528.821 159.541 529.607 161.564 530C163.207 530.319 164.313 530.139 165.811 529.41C167.305 528.685 168.76 527.511 170.046 526.473L170.059 526.462C172.185 524.746 172.486 524.693 174.307 522.924C175.161 522.094 175.489 521.216 175.521 519.976C175.545 519.027 175.39 518.447 174.914 517.618C174.081 516.168 172.681 515.611 171.273 514.669C169.593 513.546 167.025 512.311 167.025 512.311L163.817 510.542L153.675 518.207Z" fill="#FCF6E9"/>
<path d="M195.546 431.53L191.905 443.323C191.905 443.323 188.77 454.061 187.051 461.012C185.182 468.565 184.948 472.987 182.803 480.47C181.79 484.002 180.838 486.139 179.395 489.381L179.162 489.905L178.934 490.418C177.224 494.264 176.241 496.476 173.7 499.928C171.678 502.676 167.81 506.414 167.81 506.414C167.81 506.414 169.452 507.004 171.88 508.183C174.352 509.384 175.965 509.851 177.948 511.721C179.037 512.748 179.966 513.574 180.982 514.669C181.88 515.637 182.305 516.021 183.41 516.438C184.536 516.864 185.167 516.5 185.837 515.849C187.05 514.669 188.148 513.777 189.478 512.311C190.481 511.205 191.564 510.284 192.512 509.363C193.46 508.442 194.393 507.235 194.939 506.414C194.939 506.414 196.872 500.899 198.58 497.57C200.576 493.682 204.649 488.136 204.649 488.136L217.999 469.857C217.999 469.857 222.205 463.229 225.281 459.243C230.743 452.168 231.35 450.988 231.35 450.988L236.811 444.502L234.991 442.733C234.991 442.733 233.322 441.605 232.563 440.965C230.875 439.54 230.116 439.304 228.315 438.016C226.556 436.758 224.068 434.479 224.068 434.479C222.652 433.299 219.091 430.233 218.606 429.761C218.121 429.29 214.763 426.224 213.145 424.455C213.145 424.455 210.421 421.47 208.897 419.738C207.017 417.601 204.649 414.431 204.649 414.431C204.649 414.431 203.09 416.831 202.221 418.558C202.221 418.558 200.192 421.822 199.18 423.865C197.663 426.929 195.546 431.53 195.546 431.53Z" fill="#FBF7E9"/>
<path d="M144.572 524.104C144.572 524.104 138.966 526.391 136.076 528.821C132.743 531.624 130.071 533.432 129.401 537.665C129.039 539.953 129.416 541.95 130.008 543.562C130.6 545.174 132.435 545.92 132.435 545.92C134.963 547.148 145.531 549.644 152.683 548.012C159.905 546.363 164.406 544.108 170.666 540.613C175.969 537.653 178.546 536.552 183.41 532.948C187.029 530.266 190.361 529.825 192.512 525.872C194.079 522.994 194.593 521.487 194.939 518.207C195.424 513.62 194.939 509.952 194.939 506.414C194.393 507.235 193.46 508.442 192.512 509.363C191.564 510.284 190.481 511.205 189.478 512.311C188.148 513.777 187.05 514.669 185.837 515.849C185.167 516.5 184.536 516.864 183.41 516.438C182.305 516.021 181.88 515.637 180.982 514.669C179.966 513.574 179.037 512.748 177.948 511.721C175.965 509.851 174.352 509.384 171.88 508.183C169.452 507.004 167.81 506.414 167.81 506.414L164.598 509.952L163.817 510.542L167.025 512.311C167.025 512.311 169.593 513.546 171.273 514.669C172.681 515.611 174.081 516.168 174.914 517.618C175.39 518.447 175.545 519.027 175.521 519.976C175.489 521.216 175.161 522.094 174.307 522.924C172.486 524.693 172.185 524.746 170.059 526.462L170.046 526.473C168.76 527.511 167.305 528.685 165.811 529.41C164.313 530.139 163.207 530.319 161.564 530C159.541 529.607 155.374 528.821 154.888 528.821C154.281 528.821 150.64 527.052 150.034 527.052C149.548 527.052 146.19 525.086 144.572 524.104Z" fill="#111110"/>
<path d="M59.0082 436.837C58.3775 437.915 57.7946 439.135 57.7946 440.375C57.7946 444.502 57.6202 447.042 59.0082 450.988C60.5601 455.4 65.6834 461.012 65.6834 461.012C65.6834 461.012 73.3563 469.413 79.0338 473.984C84.1465 478.101 87.5295 481.65 92.9911 483.419C97.0379 484.729 101.487 485.777 103.914 483.419C105.01 482.354 107.491 480.463 108.762 478.701C110.311 476.554 110.562 474.601 110.589 474.574C111.196 473.984 111.196 469.857 110.589 467.498C110.589 467.498 109.235 465.593 108.162 464.55C107.212 463.627 106.534 463.16 105.533 462.471C105.486 462.439 105.437 462.405 105.388 462.372C105.304 462.313 105.217 462.254 105.128 462.192C104.432 461.71 103.307 461.012 103.307 461.012L101.487 461.602C101.487 461.602 99.6516 463.953 98.4525 463.371C98.4525 463.371 97.3429 463.242 96.632 462.781C95.9211 462.321 94.8116 461.012 94.8116 461.012L92.3842 457.474C91.5751 455.902 89.8355 452.639 89.35 452.168C88.8646 451.696 87.125 449.22 86.3159 448.04C85.185 446.392 84.588 445.614 83.2816 443.913C82.549 442.959 81.3073 441.554 80.663 440.835C79.5643 440.097 78.5444 439.393 77.2132 438.606C75.0233 437.312 74.0489 436.174 71.7518 435.068C69.9374 434.195 66.8971 433.299 66.8971 433.299C66.8971 433.299 64.5908 432.823 63.2561 433.299C62.1439 433.696 61.6666 433.664 60.8287 434.479C59.9909 435.293 59.5938 435.836 59.0082 436.837Z" fill="#111110"/>
<path d="M101.487 461.602L103.307 461.012C103.307 461.012 102.176 454.212 100.873 450.988C99.5695 447.765 96.632 444.502 96.632 444.502C95.4049 444.616 94.1894 444.779 92.984 444.89C92.984 444.89 95.5716 447.725 97.2319 450.988C98.8921 454.252 101.487 461.602 101.487 461.602Z" fill="black"/>
<path d="M116.651 337.778C115.402 342.933 116.664 347.254 117.264 351.34C117.871 355.467 118.81 357.506 120.299 361.363C122.119 366.081 123.328 368.693 125.76 373.156C128.099 377.449 129.553 379.801 132.435 383.77C135.06 387.384 136.325 389.665 139.717 392.614C140.848 393.597 142.752 394.973 142.752 394.973C142.752 394.973 145.648 391.329 147.606 389.076C148.538 388.005 149.117 387.239 149.714 386.45C150.296 385.681 150.895 384.889 151.854 383.77C152.37 383.168 152.945 382.569 153.527 381.964C154.523 380.927 155.537 379.872 156.298 378.754C156.901 377.869 157.986 376.831 159.049 375.816C160.048 374.862 161.026 373.927 161.563 373.156C163.068 371 163.384 369.618 163.384 369.618C163.384 369.147 162.17 367.849 161.564 367.26C161.564 367.26 158.896 364.936 156.709 363.722C154.951 362.746 153.148 361.432 151.24 360.774C149.122 360.043 148.583 360.058 146.386 359.594C144.288 359.152 140.931 359.005 140.931 359.005C140.931 359.005 148.203 350.478 153.061 348.981C157.919 347.484 164.591 351.34 164.591 351.34C164.591 351.34 154.849 340.387 146.386 335.419C138.047 330.525 121.505 327.164 121.505 327.164C118.543 330.734 117.791 333.066 116.651 337.778Z" fill="#2286C0"/>
<path d="M173.093 417.379C173.093 417.379 179.04 423.274 183.41 425.634C188.041 428.136 195.546 431.53 195.546 431.53C195.546 431.53 197.663 426.929 199.18 423.865C200.192 421.822 202.221 418.558 202.221 418.558C203.09 416.831 204.649 414.431 204.649 414.431L199.187 409.714L193.726 404.407L189.478 399.69C189.478 399.69 186.638 401.63 184.623 403.817C182.609 406.005 179.162 410.893 179.162 410.893L173.093 417.379Z" fill="#2286C0"/>
<path d="M180.982 389.666L189.478 399.69L193.726 404.407L199.187 409.714L204.649 414.431C204.649 414.431 207.017 417.601 208.897 419.738C210.421 421.47 213.145 424.455 213.145 424.455C214.763 426.224 218.121 429.29 218.606 429.761C219.091 430.233 222.652 433.299 224.068 434.479C224.068 434.479 226.556 436.758 228.315 438.016C230.116 439.304 230.875 439.54 232.563 440.965C233.322 441.605 234.991 442.733 234.991 442.733C233.349 441.09 231.013 438.279 230.743 438.016C230.743 438.016 226.979 434.484 224.674 432.12C222.481 429.871 221.277 428.585 219.213 426.224C216.482 423.099 214.654 421.29 211.931 417.969C209.768 415.331 208.607 413.769 206.616 411.091L206.469 410.893C203.775 407.269 199.794 401.459 199.794 401.459L194.939 394.383L190.692 387.897L185.837 378.463C185.837 378.463 183.412 373.7 181.589 370.798C179.637 367.69 178.269 366.12 176.128 363.132C174.474 360.826 173.725 359.401 171.88 357.236C169.742 354.728 167.327 353.22 164.591 351.34C164.591 351.34 157.919 347.484 153.061 348.981C148.203 350.478 140.931 359.005 140.931 359.005C140.931 359.005 144.288 359.152 146.386 359.594C148.583 360.058 149.122 360.043 151.24 360.774C153.148 361.432 154.951 362.746 156.709 363.722C158.896 364.936 161.564 367.26 161.564 367.26C162.17 367.849 163.384 369.147 163.384 369.618L165.811 371.387L171.273 377.284L176.734 383.77L180.982 389.666Z" fill="#F4E1C0"/>
<path d="M276.255 196.658H272.008H267.153H262.905H258.657C258.657 196.658 256.83 201.162 256.83 203.93C256.83 208.057 257.437 214.066 257.437 214.066L261.684 213.364L273.214 211.595C273.214 211.595 272.988 205.934 273.821 202.751C274.523 200.068 276.255 196.658 276.255 196.658Z" fill="#FBF7E9"/>
<path d="M258.657 196.658H256.223C254.836 196.658 254.059 196.531 252.679 196.658C249.41 196.957 247.673 197.447 244.693 199.213C241.713 200.978 238.018 206.289 238.018 206.289L233.777 212.185L229.529 218.671L228.922 219.261L255.623 214.365L257.437 214.066C257.437 214.066 256.83 208.057 256.83 203.93C256.83 201.162 258.657 196.658 258.657 196.658Z" fill="#36A6DD"/>
<path d="M318.12 192.727C319.52 190.785 320.555 188.01 320.555 188.01L318.734 186.241L317.52 183.293L316.913 179.755V175.038L316.327 163.087L313.9 157.78C313.9 157.78 313.9 158.37 312.686 163.677C312.272 165.489 310.259 167.804 310.259 167.804C310.259 167.804 307.89 170.309 306.004 171.932C303.618 173.986 302.368 175.236 299.936 177.239C297.621 179.145 295.82 180.36 293.268 181.956C290.715 183.551 288.915 184.292 285.986 185.493C284.12 186.259 282 184.314 282 184.314L282.931 190.368V194.496C282.931 195.675 282.808 196.298 282.924 197.444C283.041 198.613 283.066 199.308 283.53 200.392C284.241 202.053 284.976 202.417 286.565 203.34C288.609 204.528 295.667 204.52 295.667 204.52C295.667 204.52 301.935 204.605 305.377 203.34C308.842 202.067 310.531 200.53 313.258 198.047L313.272 198.034C315.111 196.36 316.674 194.731 318.12 192.727Z" fill="#FDC5AA"/>
<path d="M276.255 196.658L278.069 195.675C278.069 195.675 279.655 194.717 280.496 193.906C281.71 192.735 282.931 190.368 282.931 190.368L282 184.314C282 184.314 270.501 187.666 265.346 184.314C264.943 184.052 259.487 180.383 256.857 177.828C254.344 175.386 253.319 173.657 251.396 170.753C249.895 168.486 248.632 165.016 247.979 163.033C247.672 162.103 247.5 161.5 247.5 161.5L248.941 162.066C248.941 162.066 248.569 162.43 247.979 163.033C246.442 164.601 243.428 167.78 241.659 170.321C238.933 174.235 236.804 177.986 234.984 184.472C234.36 186.693 234.384 190.368 234.384 190.368C234.384 190.368 234.26 195.469 234.984 198.623C235.702 201.754 238.018 206.289 238.018 206.289C238.018 206.289 241.713 200.978 244.693 199.213C247.673 197.447 249.41 196.957 252.679 196.658C254.059 196.531 254.836 196.658 256.223 196.658H258.657H262.905H267.153H272.008H276.255Z" fill="#F5BD43"/>
<path fill-rule="evenodd" clip-rule="evenodd" d="M321.182 147.167C319.766 148.936 316.239 152.566 315.753 153.038C315.753 153.038 317.23 152.313 318.181 151.859C319.361 151.294 319.595 150.761 320.575 150.115C321.719 149.362 322.446 149.071 323.609 148.346C324.329 147.898 325.232 147.446 326.037 147.167C327.153 146.78 327.428 146.608 328.464 147.167C329.05 147.483 329.007 148.346 329.678 148.346C329.678 148.346 330.627 147.766 330.891 147.167C331.171 146.532 330.891 145.398 330.891 145.398C330.398 144.72 329.956 144.16 329.142 143.907C328.24 143.626 327.601 143.439 326.643 143.629C325.806 143.795 325.705 143.648 324.823 144.219C323.429 145.122 322.318 145.747 321.182 147.167ZM322.396 151.294C321.65 152.219 323.003 154.243 323.003 154.243H323.609C323.609 154.243 324.074 153.441 324.216 152.474C324.322 151.753 325.431 151.13 324.823 150.705C324.03 150.15 322.998 150.547 322.396 151.294Z" fill="#FDC5AA"/>
<path d="M302.956 52.3929C301.761 55.6541 302.349 61.2375 302.349 61.2375C302.349 61.2375 309.355 61.5097 313.265 63.0064C317.176 64.5031 322.375 68.9028 322.375 68.9028L322.982 67.7235C322.982 67.7235 325.182 63.808 326.016 61.2375C326.535 59.6386 326.511 58.7828 326.623 57.11C326.732 55.4852 326.49 54.4793 326.016 52.9825C325.542 51.4858 325.072 50.7332 324.195 49.4447C322.99 47.6739 322.538 46.2069 320.554 45.3172C319.667 44.9194 319.034 44.4906 318.127 44.138C317.116 43.7449 314.972 43.5483 314.486 43.5483C313.272 43.5483 312.219 43.8894 311.452 44.138C309.631 44.7276 308.691 44.9134 307.204 45.9069C305.823 46.8293 305.643 47.6446 304.777 48.8551C303.792 50.2314 303.489 50.9377 302.956 52.3929Z" fill="#1F2E39"/>
<path d="M345.435 87.1816L348.469 86.0023C348.469 86.0023 349.234 85.3069 349.683 84.823C351.179 83.209 351.71 81.9902 352.717 80.1059C353.407 78.8133 353.93 77.3211 353.93 75.9784C353.93 74.6026 353.541 70.504 353.324 70.0821C352.11 67.7235 352.683 68.7253 352.11 67.7235C351.671 66.9551 348.954 65.6291 348.469 65.3649C347.862 65.0348 346.648 64.7753 344.221 64.1857C344.221 64.1857 341.255 63.7112 339.359 63.596C337.464 63.4809 334.512 63.596 334.512 63.596C332.038 63.596 328.443 65.3649 328.443 65.3649C328.443 65.3649 326.921 66.008 326.016 66.5442C324.436 67.4807 322.375 68.9028 322.375 68.9028C322.375 68.9028 324.752 70.7831 327.829 75.3888C329.158 77.3772 333.291 86.0023 333.291 86.0023C335.516 91.1125 338.753 96.6158 339.966 102.512C340.085 103.09 340.58 116.074 340.58 116.663V124.329C340.58 126.752 340.474 131.979 339.973 134.353C339.484 136.673 338.153 140.249 338.153 140.249L339.366 139.659C339.366 139.659 340.126 138.959 340.58 138.48C341.962 137.023 342.401 135.532 342.401 135.532C342.401 135.532 345.136 126.485 345.435 121.381C345.65 117.702 345.506 115.637 345.435 111.946C345.354 107.777 345.616 105.413 344.828 101.333C344.467 99.4667 344.164 98.3936 343.614 96.6158C342.911 94.3455 342.401 93.078 341.794 90.7194C341.465 89.4403 340.67 88.7249 341.794 88.3608L345.435 87.1816Z" fill="#1F2E39"/>
<path fill-rule="evenodd" clip-rule="evenodd" d="M86.9227 444.502C88.919 445.115 90.9369 445.078 92.984 444.89C92.984 444.89 95.5716 447.725 97.2319 450.988C98.8921 454.252 101.487 461.602 101.487 461.602C101.487 461.602 99.6516 463.953 98.4525 463.371C98.4525 463.371 97.3429 463.242 96.632 462.781C95.9211 462.321 94.8116 461.012 94.8116 461.012L92.3842 457.474C91.5751 455.902 89.8355 452.639 89.35 452.168C88.8646 451.696 87.125 449.22 86.3159 448.04C85.185 446.392 84.588 445.614 83.2816 443.913C82.549 442.959 81.3073 441.554 80.663 440.835C81.2848 441.253 81.9318 441.682 82.6748 442.144C83.1443 442.435 83.5383 442.702 83.9004 442.947C84.8629 443.598 85.5988 444.096 86.9227 444.502Z" fill="#FBF7E9"/>
<path d="M110.589 467.498C110.589 467.498 114.23 463.493 116.658 461.012C119.428 458.18 121.162 456.538 123.94 453.937C126.845 451.215 128.56 449.75 131.828 447.451C136.471 444.185 144.572 438.606 144.572 438.606C144.572 438.606 156.619 429.764 164.598 424.455C168.123 422.109 173.093 417.379 173.093 417.379L179.162 410.893C179.162 410.893 182.609 406.005 184.623 403.817C186.638 401.63 189.478 399.69 189.478 399.69L180.982 389.666L176.734 383.77L171.273 377.284L165.811 371.387L163.384 369.618C163.384 369.618 163.068 371 161.563 373.156C161.026 373.927 160.048 374.862 159.049 375.816C157.986 376.831 156.901 377.869 156.298 378.754C155.537 379.872 154.523 380.927 153.527 381.964C152.945 382.569 152.37 383.168 151.854 383.77C150.895 384.889 150.296 385.681 149.714 386.45C149.117 387.239 148.538 388.005 147.606 389.076C145.648 391.329 142.752 394.973 142.752 394.973L141.538 396.742C141.538 396.742 139.518 399.585 137.897 401.459C136.069 403.571 134.896 405.064 133.504 406.835C132.828 407.695 132.101 408.62 131.222 409.714C130.275 410.891 129.439 411.902 128.634 412.875C127.304 414.483 126.06 415.987 124.546 417.969C122.801 420.255 121.594 421.755 120.084 423.632L120.083 423.634C119.59 424.247 119.065 424.9 118.478 425.634C115.889 428.871 114.431 430.682 111.803 433.889C111.485 434.277 111.219 434.613 110.969 434.929L110.968 434.931C110.475 435.554 110.041 436.104 109.376 436.837C108.046 438.303 105.735 440.375 105.735 440.375C105.735 440.375 103.336 442.489 101.487 443.323C99.922 444.029 98.7683 444.304 96.632 444.502C96.632 444.502 99.5695 447.765 100.873 450.988C102.176 454.212 103.307 461.012 103.307 461.012C103.307 461.012 104.432 461.71 105.128 462.192C105.217 462.254 105.304 462.313 105.388 462.372L105.533 462.471C106.534 463.16 107.212 463.627 108.162 464.55C109.235 465.593 110.589 467.498 110.589 467.498Z" fill="#FBF7E9"/>
<path d="M254.409 458.064C246.837 453.677 236.811 444.502 236.811 444.502L231.35 450.988C231.35 451.46 235.497 453.085 236.811 453.937C238.632 455.116 239.954 455.471 241.666 456.295C243.953 457.396 245.385 458.272 247.734 459.243C250.369 460.333 251.803 460.681 254.409 461.602C259.285 463.325 267.153 465.14 267.153 465.14C267.153 465.14 259.291 460.893 254.409 458.064Z" fill="#2286C0"/>
<path d="M236.811 444.502C236.811 444.502 246.837 453.677 254.409 458.064C259.291 460.893 267.153 465.14 267.153 465.14C267.153 465.14 270.926 466.936 273.221 468.088C280.096 471.538 283.715 473.635 290.82 476.343C300.881 480.178 306.804 482.05 317.52 483.419C327.859 484.739 333.837 484.335 344.221 483.419C355.515 482.421 361.534 481.435 372.135 477.522C380.463 474.448 384.759 472.487 392.161 467.498C396.45 464.608 403.084 459.243 403.084 459.243C403.084 459.243 408.231 455.609 409.759 452.168C410.809 449.804 409.897 447.445 410.973 445.092C412.404 441.964 414.614 441.402 417.041 439.196C420.233 436.295 425.537 432.12 425.537 432.12C425.537 432.12 430.29 428.568 431.605 425.044C432.575 422.447 432.041 421.098 431.605 418.558C430.999 415.02 430.13 413.72 428.571 410.893C428.571 410.893 418.048 391.253 410.366 379.642C405.957 372.977 403.414 369.529 398.836 363.132C396.021 359.198 395.04 357.428 392.161 353.698C388.52 348.981 385.772 346.623 381.845 342.495C378.076 338.533 375.946 336.495 372.136 333.061C368.554 329.832 366.531 327.861 363.033 324.806C359.417 321.647 352.103 315.372 352.103 315.372L347.302 312.423L340.58 308.296L334.512 304.168H326.623L326.926 298.862L304.777 285.3L305.233 287.659L307.197 297.804L229.529 311.834H225.888L219.82 310.655L216.172 309.475L214.048 305.937L211.924 302.4L208.29 302.989H201.615L188.871 304.168C188.871 304.168 180.287 305.247 174.914 306.527C169.6 307.793 161.564 310.655 161.564 310.655L146.393 315.372L132.428 320.089C132.428 320.089 124.468 323.595 121.505 327.164C121.505 327.164 138.047 330.525 146.386 335.419C154.849 340.387 164.591 351.34 164.591 351.34C167.327 353.22 169.742 354.728 171.88 357.236C173.725 359.401 174.474 360.826 176.128 363.132C178.269 366.12 179.637 367.69 181.589 370.798C183.412 373.7 185.837 378.463 185.837 378.463L190.692 387.897L194.939 394.383L199.794 401.459C199.794 401.459 203.775 407.269 206.469 410.893L206.616 411.091C208.607 413.769 209.768 415.331 211.931 417.969C214.654 421.29 216.482 423.099 219.213 426.224C221.277 428.585 222.481 429.871 224.674 432.12C226.979 434.484 230.743 438.016 230.743 438.016C231.013 438.279 233.349 441.09 234.991 442.733L236.811 444.502Z" fill="#36A6DD"/>
<path d="M204.042 235.77L199.187 226.336L194.333 218.081L187.051 206.289L179.769 193.316L169.452 177.986L177.934 213.336L177.948 213.364H177.941C177.941 213.364 182.189 216.312 184.623 218.671C186.134 220.134 184.547 223.375 182.803 224.567L183.41 228.105L182.803 231.053L181.589 232.233L181.502 232.401L180.982 233.412V236.36V238.129V238.719L185.837 275.276L211.924 302.4L214.048 305.937L216.172 309.475L204.042 235.77Z" fill="#9D3129"/>
<path d="M219.82 310.655L225.888 311.834H229.529L217.392 234.591L204.042 235.77L216.172 309.475L219.82 310.655Z" fill="#BF3A2B"/>
<path d="M304.777 285.3L300.529 282.352L295.067 278.224L291.426 275.866L286.572 274.097L282.931 273.507L279.896 272.328L278.683 270.559L278.076 268.79L278.683 267.611L279.896 266.432H282.931L285.965 267.021L289.319 267.566L282.924 265.252C280.662 265.252 273.221 261.715 278.076 259.356C279.348 258.738 282.324 258.766 282.324 258.766H284.751C284.751 258.766 276.826 258.202 276.248 254.639C275.549 250.323 282.923 252.532 287.171 251.101C290.5 249.98 295.667 248.153 295.667 248.153C295.667 248.153 297.128 247.962 298.701 248.33L295.919 231.643L293.854 219.261L217.392 234.591L229.529 311.834L307.197 297.804L305.233 287.659L304.777 285.3Z" fill="#B2362D"/>
<path d="M255.623 214.365L228.922 219.261L212.538 223.388V222.798L179.769 173.269C179.769 173.269 175.708 172.937 173.693 173.858C171.679 174.779 169.452 177.986 169.452 177.986L179.769 193.316L187.051 206.289L194.333 218.081L199.187 226.336L204.042 235.77L217.392 234.591L293.854 219.261C293.854 219.261 289.889 214.976 286.572 213.364C283.254 211.752 276.862 211.006 276.862 211.006L273.214 211.595L261.684 213.364L257.437 214.066L255.623 214.365Z" fill="#FAE9C6"/>
<path d="M325.409 278.814C325.409 278.814 327.292 279.033 328.436 279.404L332.077 280.583C332.538 280.732 336.932 281.762 338.753 282.352C338.753 282.352 341.461 282.955 343 283.531C344.539 284.107 346.641 284.71 346.641 284.71C346.641 284.71 345.686 279.46 346.042 276.455C346.397 273.451 347.248 269.107 347.248 269.107C346.492 269.281 346.042 269.38 346.042 269.38C346.042 269.38 341.611 267.829 341.18 266.432C340.573 264.466 340.073 259.114 339.966 258.177C339.359 252.87 339.359 252.28 338.76 247.563C338.496 245.494 338.234 243.968 338.146 241.667C337.96 236.803 339.973 222.798 339.973 222.798L336.332 231.643L332.084 243.436L329.05 256.408L327.23 265.842L325.409 277.635V278.814Z" fill="#2286C0"/>
<path d="M372.136 260.535C372.136 260.535 372.968 259.891 373.349 259.356C373.651 258.933 373.817 258.673 373.956 258.177C374.274 257.044 374.276 256.359 373.949 255.229C373.746 254.528 372.742 253.46 372.742 253.46C372.742 253.46 374.407 252.335 375.163 251.691C376.053 250.931 376.99 249.922 376.99 249.922C376.99 249.922 380.817 245.913 382.452 242.846C383.727 240.453 384.233 238.981 384.879 236.36C386.203 230.986 386.324 227.554 384.879 222.209C384.097 219.313 383.484 217.668 381.845 215.133C380.149 212.51 378.786 211.273 376.383 209.237C373.808 207.054 372.184 205.954 369.101 204.52C365.966 203.061 360.606 201.94 360.606 201.94C360.606 201.94 357.067 202.892 355.137 203.93C354.887 204.064 354.663 204.183 354.458 204.292C353.57 204.762 353.014 205.056 352.11 205.699C350.419 206.901 349.576 207.866 348.329 209.293C348.18 209.463 348.025 209.641 347.862 209.826C345.983 211.963 345.103 213.313 343.614 215.723C341.978 218.371 339.973 222.798 339.973 222.798C339.973 222.798 337.96 236.803 338.146 241.667C338.234 243.968 338.496 245.494 338.76 247.563C339.359 252.28 339.359 252.87 339.966 258.177C340.073 259.114 340.573 264.466 341.18 266.432C341.611 267.829 346.042 269.38 346.042 269.38C346.042 269.38 346.492 269.281 347.248 269.107C349.726 268.538 355.481 267.165 359.385 265.842C364.48 264.115 372.136 260.535 372.136 260.535Z" fill="#36A6DD"/>
<path d="M336.332 198.034L329.05 194.496L320.555 188.01C320.555 188.01 319.52 190.785 318.12 192.727C316.674 194.731 315.111 196.36 313.272 198.034L313.258 198.047C310.531 200.53 308.842 202.067 305.377 203.34C301.935 204.605 295.667 204.52 295.667 204.52C295.667 204.52 288.609 204.528 286.565 203.34C284.976 202.417 284.241 202.053 283.53 200.392C283.066 199.308 283.041 198.613 282.924 197.444C282.808 196.298 282.931 195.675 282.931 194.496V190.368C282.931 190.368 281.71 192.735 280.496 193.906C279.655 194.717 278.069 195.675 278.069 195.675L276.255 196.658C276.255 196.658 274.523 200.068 273.821 202.751C272.988 205.934 273.214 211.595 273.214 211.595L276.862 211.006C276.862 211.006 283.254 211.752 286.572 213.364C289.889 214.976 293.854 219.261 293.854 219.261L295.919 231.643C295.919 231.643 308.513 230.858 315.093 226.926C321.359 223.181 324.278 218.401 327.49 213.139C327.802 212.629 328.116 212.114 328.436 211.595C332.077 205.699 336.332 198.034 336.332 198.034Z" fill="#36A6DD"/>
<path fill-rule="evenodd" clip-rule="evenodd" d="M298.701 248.33C299.109 248.426 299.523 248.559 299.922 248.742C301.293 249.374 303.556 250.511 303.556 250.511C305.585 251.632 309.624 252.87 309.624 252.87C310.618 253.46 311.129 253.88 312.005 254.6L312.052 254.639C312.887 255.325 313.423 255.881 314.024 256.505L314.025 256.506C314.344 256.837 314.682 257.188 315.093 257.587C315.509 257.992 315.87 258.326 316.212 258.642C316.841 259.225 317.405 259.746 318.127 260.535C319.136 261.637 319.692 262.27 320.555 263.483C320.615 263.568 320.673 263.65 320.73 263.729C321.412 264.687 321.85 265.302 322.375 266.432C323.085 267.96 323.305 268.906 323.589 270.559C323.684 271.113 323.798 271.957 323.904 272.744L323.904 272.745C324.024 273.631 324.134 274.444 324.195 274.687C324.776 276.97 324.991 277.595 325.371 278.703L325.409 278.814V277.635L327.23 265.842L329.05 256.408L332.084 243.436L336.332 231.643L339.973 222.798C339.973 222.798 341.978 218.371 343.614 215.723C345.103 213.313 345.983 211.963 347.862 209.826C348.025 209.641 348.18 209.463 348.329 209.293C349.576 207.866 350.419 206.901 352.11 205.699C353.014 205.056 353.57 204.762 354.458 204.292C354.663 204.183 354.887 204.064 355.137 203.93C357.067 202.892 360.606 201.94 360.606 201.94L345.435 199.213L336.332 198.034C336.332 198.034 332.077 205.699 328.436 211.595C328.116 212.114 327.802 212.629 327.49 213.139C324.278 218.401 321.359 223.181 315.093 226.926C308.513 230.858 295.919 231.643 295.919 231.643L298.701 248.33Z" fill="#FCF7E4"/>
<path d="M334.512 304.168L340.58 308.296L347.302 312.423C349.815 313.238 366.457 320.517 369.101 320.678C370.52 320.765 371.349 320.954 372.742 320.678C373.993 320.431 374.772 320.264 375.776 319.499C376.709 318.789 377.524 318.083 378.204 317.141C378.694 316.461 379.594 313.591 380.024 312.423C380.935 309.952 380.642 310.267 381.238 307.706C381.823 305.195 382.09 303.771 382.452 301.22C383.364 294.797 381.935 291.388 380.631 284.71C379.328 278.033 375.776 267.021 375.776 267.021C374.428 264.176 372.136 260.535 372.136 260.535C372.136 260.535 364.48 264.115 359.385 265.842C355.481 267.165 349.726 268.538 347.248 269.107C347.248 269.107 346.397 273.451 346.042 276.455C345.686 279.46 346.641 284.71 346.641 284.71C346.641 284.71 344.539 284.107 343 283.531C341.461 282.955 338.753 282.352 338.753 282.352C336.932 281.762 332.538 280.732 332.077 280.583L328.436 279.404C327.292 279.033 325.409 278.814 325.409 278.814L325.371 278.703C324.991 277.595 324.776 276.97 324.195 274.687C324.134 274.444 324.024 273.631 323.904 272.745L323.904 272.744C323.798 271.957 323.684 271.113 323.589 270.559C323.305 268.906 323.085 267.96 322.375 266.432C321.85 265.302 321.412 264.687 320.73 263.729L320.555 263.483C319.692 262.27 319.136 261.637 318.127 260.535C317.405 259.746 316.841 259.225 316.212 258.642C315.87 258.326 315.509 257.992 315.093 257.587C314.682 257.188 314.344 256.837 314.025 256.506L314.024 256.505C313.423 255.881 312.887 255.325 312.052 254.639L312.005 254.6C311.129 253.88 310.618 253.46 309.624 252.87C309.624 252.87 305.585 251.632 303.556 250.511C303.556 250.511 301.293 249.374 299.922 248.742C299.523 248.559 299.109 248.426 298.701 248.33C297.128 247.962 295.667 248.153 295.667 248.153C295.667 248.153 290.5 249.98 287.171 251.101C282.923 252.532 275.549 250.323 276.248 254.639C276.826 258.202 284.751 258.766 284.751 258.766H282.324C282.324 258.766 279.348 258.738 278.076 259.356C273.221 261.715 280.662 265.252 282.924 265.252L289.319 267.566L285.965 267.021L282.931 266.432H279.896L278.683 267.611L278.076 268.79L278.683 270.559L279.896 272.328L282.931 273.507L286.572 274.097L291.426 275.866L295.067 278.224L300.529 282.352L304.777 285.3L326.926 298.862L328.443 300.041L334.512 304.168Z" fill="#FDC5AA"/>
<path d="M182.803 224.567C184.547 223.375 186.134 220.134 184.623 218.671C182.189 216.312 177.941 213.364 177.941 213.364L177.934 213.336C177.63 212.717 172.375 202.161 167.632 202.161C166.411 202.161 164.986 202.793 163.991 204.52C162.996 206.247 163.384 211.006 163.384 211.006L164.097 212.528C164.097 212.528 163.399 215.242 163.377 216.902C163.355 218.562 163.991 220.44 163.991 220.44L165.205 221.619L167.625 223.388C167.625 223.388 168.025 225.559 168.232 226.926C168.232 226.926 170.3 231.284 172.48 233.412C175.177 236.045 180.982 238.129 180.982 238.129V236.36V233.412L181.502 232.401L181.589 232.233L182.803 231.053L183.41 228.105L182.803 224.567Z" fill="#FDC5AA"/>
<path d="M334.512 304.168L328.443 300.041L326.926 298.862L326.623 304.168H334.512Z" fill="#2286C0"/>
<path d="M323.003 154.243C323.003 154.243 321.65 152.219 322.396 151.294C322.998 150.547 324.03 150.15 324.823 150.705C325.431 151.13 324.322 151.753 324.216 152.474C324.074 153.441 323.609 154.243 323.609 154.243H323.003Z" fill="#D87454"/>
<path d="M315.753 153.038C316.239 152.566 319.766 148.936 321.182 147.167C322.318 145.747 323.429 145.122 324.823 144.219C325.705 143.648 325.806 143.795 326.643 143.629C327.601 143.439 328.24 143.626 329.142 143.907C329.956 144.16 330.398 144.72 330.891 145.398C330.891 145.398 331.171 146.532 330.891 147.167C330.627 147.766 329.678 148.346 329.678 148.346C329.007 148.346 329.05 147.483 328.464 147.167C327.428 146.608 327.153 146.78 326.037 147.167C325.232 147.446 324.329 147.898 323.609 148.346C322.446 149.071 321.719 149.362 320.575 150.115C319.595 150.761 319.361 151.294 318.181 151.859C317.23 152.313 315.753 153.038 315.753 153.038Z" fill="#D87454"/>
<path d="M285.965 68.9028C284.376 70.8437 283.538 74.7992 283.538 74.7992L287.785 67.1339C287.785 67.1339 286.591 68.1382 285.965 68.9028Z" fill="#F5BD43"/>
<path d="M373.349 259.356C372.968 259.891 372.136 260.535 372.136 260.535C372.136 260.535 374.428 264.176 375.776 267.021C376.709 268.989 378.652 272.328 378.652 272.328C378.652 272.328 379.328 273.051 380.631 273.507C381.746 273.898 383.124 274.381 384.272 274.097C385.611 273.766 386.138 273.634 387.306 272.918C389.752 271.417 391.198 270.641 393.375 268.79C395.774 266.75 396.787 265.267 398.836 262.894C401.335 260.001 403.007 257.935 404.905 254.639C406.409 252.026 407.939 248.153 407.939 248.153C407.939 248.153 409.197 245.326 409.759 243.436C410.495 240.962 410.973 236.95 410.973 236.95C410.973 236.95 411.462 239.814 411.58 241.667C411.697 243.505 411.744 244.549 411.58 246.384C411.37 248.723 410.762 249.964 410.366 252.28C410.092 253.887 409.996 254.495 410.973 255.818C411.717 256.826 412.866 256.373 414.007 255.818C416.434 254.639 416.703 254.542 418.255 253.46C420.706 251.751 421.787 250.406 423.717 248.153C426.577 244.813 427.764 242.84 429.178 238.719C430.312 235.413 430.509 233.364 430.999 229.874C431.352 227.354 431.465 225.928 431.605 223.388C431.746 220.848 431.605 217.492 430.999 213.954C430.65 211.922 430.231 211.024 429.178 209.237C428.125 207.449 426.966 206.246 424.93 204.52C423.246 203.091 422.123 202.577 420.682 200.982C419.901 200.116 418.862 198.623 418.862 198.623L421.289 199.803C421.289 199.803 422.717 200.953 423.717 201.571C425.058 202.401 425.41 202.511 426.751 203.34C427.75 203.958 428.808 204.749 429.785 205.699C430.762 206.648 431.488 207.736 432.212 208.647C433.139 209.814 433.309 210.094 434.033 211.006L434.165 211.172C435.03 212.26 435.724 213.133 436.46 214.543C437.037 215.65 437.674 217.492 437.674 217.492C437.674 217.492 438.133 215.258 438.281 213.364C438.443 211.285 438.281 209.77 438.281 207.468C438.281 205.626 437.949 203.984 437.674 202.161C437.423 200.502 437.429 200.213 437.067 198.623C436.354 195.492 435.559 193.802 434.033 190.958C431.994 187.16 430.503 185.115 427.358 182.113C423.7 178.623 420.92 177.451 416.435 175.038C411.235 172.24 406.903 171.239 402.477 168.552C398.052 165.864 392.161 160.886 392.161 160.886C392.161 160.886 384.848 154.319 380.631 149.683C376.832 145.506 374.359 143.329 371.529 138.48C369.01 134.166 366.674 126.687 366.674 126.687L363.033 114.305C363.033 114.305 361.132 107.367 359.392 103.102C357.947 99.5583 355.144 94.2572 355.144 94.2572C355.144 94.2572 352.8 89.9727 351.496 88.3609C350.193 86.749 348.469 86.0023 348.469 86.0023L345.435 87.1816L341.794 88.3608C340.67 88.7249 341.465 89.4403 341.794 90.7194C342.401 93.078 342.911 94.3455 343.614 96.6158C344.164 98.3936 344.467 99.4667 344.828 101.333C345.616 105.413 345.354 107.777 345.435 111.946C345.506 115.637 345.65 117.702 345.435 121.381C345.136 126.485 342.401 135.532 342.401 135.532C342.401 135.532 341.962 137.023 340.58 138.48C340.126 138.959 339.366 139.659 339.366 139.659L338.153 140.249C338.153 140.249 339.484 136.673 339.973 134.353C340.474 131.979 340.58 126.752 340.58 124.329V116.663C340.58 116.074 340.085 103.09 339.966 102.512C338.753 96.6158 335.516 91.1125 333.291 86.0023C333.291 86.0023 329.158 77.3772 327.829 75.3888C324.752 70.7831 322.375 68.9028 322.375 68.9028C322.375 68.9028 317.176 64.5031 313.265 63.0064C309.355 61.5097 302.349 61.2375 302.349 61.2375C302.349 61.2375 299.014 60.6199 296.881 59.4686C294.748 58.3172 290.812 55.9307 290.812 55.9307C286.558 54.7515 283.967 54.6198 279.283 55.3411C273.286 56.2645 269.826 57.6823 264.726 60.6478C258.945 64.0089 255.905 66.4163 251.375 71.2613C247.485 75.4225 243.806 77.8402 240 82C233.696 88.8894 224.7 104.7 245.5 129.5C244.466 126.522 244.5 122 244.5 122C244.5 122 244.822 118.334 245 116.5C245.135 115.105 245.756 111.88 246 110.5C252.865 105.525 269.016 92.5681 278.703 80.5378C279.592 79.2572 281.131 77 281.131 77L283.538 74.7992C283.538 74.7992 284.376 70.8437 285.965 68.9028C286.591 68.1382 287.785 67.1339 287.785 67.1339L283.538 74.7992L281.131 77L281.131 79.9482C281.131 80.4199 281.535 85.2549 281.738 87.0239C281.913 88.5591 282.699 90.7886 283.558 92.3306C285.48 95.7786 287.418 97.776 290.233 100.586C292.691 103.038 294.367 104.111 296.909 106.482C300.806 110.119 303.416 111.601 307.225 115.326C309.834 117.878 311.667 119.533 313.9 122.402C315.645 124.644 316.216 125.8 317.541 128.299C319.673 132.32 321.182 137.143 320.575 139.502C320.403 140.172 322.396 139.502 322.396 139.502C322.396 139.502 324.971 139.018 326.644 138.912C328.062 138.822 328.863 138.912 330.284 138.912C331.498 138.912 332.117 139.084 333.319 139.502C334.024 139.747 335.139 140.681 335.139 140.681C335.139 140.681 336.486 141.759 336.96 142.45C337.434 143.141 337.567 144.808 337.567 144.808C337.857 146.412 337.739 148.496 337.567 150.115C337.466 151.06 337.295 151.582 336.96 152.474C336.596 153.441 336.3 153.955 335.746 154.832C334.952 156.089 334.335 156.685 333.319 157.78C332.421 158.748 331.908 159.29 330.891 160.139C329.993 160.89 329.244 161.292 328.464 161.908C327.392 162.755 326.206 163.33 325.43 163.677C324.12 164.263 323.827 164.175 322.389 164.266C321.443 164.327 320.297 164.415 319.362 164.266C318.102 164.067 316.327 163.087 316.327 163.087L316.913 175.038V179.755L317.52 183.293L318.734 186.241L320.555 188.01L329.05 194.496L336.332 198.034L345.435 199.213L360.606 201.94C360.606 201.94 365.966 203.061 369.101 204.52C372.184 205.954 373.808 207.054 376.383 209.237C378.786 211.273 380.149 212.51 381.845 215.133C383.484 217.668 384.097 219.313 384.879 222.209C386.324 227.554 386.203 230.986 384.879 236.36C384.233 238.981 383.727 240.453 382.452 242.846C380.817 245.913 376.99 249.922 376.99 249.922C376.99 249.922 376.053 250.931 375.163 251.691C374.407 252.335 372.742 253.46 372.742 253.46C372.742 253.46 373.746 254.528 373.949 255.229C374.276 256.359 374.274 257.044 373.956 258.177C373.817 258.673 373.651 258.933 373.349 259.356Z" fill="#F5BD43"/>
<path fill-rule="evenodd" clip-rule="evenodd" d="M282 184.314C282 184.314 284.12 186.259 285.986 185.493C288.915 184.292 290.715 183.551 293.268 181.956C295.82 180.36 297.621 179.145 299.936 177.239C302.368 175.236 303.618 173.986 306.004 171.932C307.89 170.309 310.259 167.804 310.259 167.804C310.259 167.804 312.272 165.489 312.686 163.677C313.9 158.37 313.9 157.78 313.9 157.78L316.327 163.087C316.327 163.087 318.102 164.067 319.362 164.266C320.297 164.415 321.443 164.327 322.389 164.266C323.827 164.175 324.12 164.263 325.43 163.677C326.206 163.33 327.392 162.755 328.464 161.908C329.244 161.292 329.993 160.89 330.891 160.139C331.908 159.29 332.421 158.748 333.319 157.78C334.335 156.685 334.952 156.089 335.746 154.832C336.3 153.955 336.596 153.441 336.96 152.474C337.295 151.582 337.466 151.06 337.567 150.115C337.739 148.496 337.857 146.412 337.567 144.808C337.567 144.808 337.434 143.141 336.96 142.45C336.486 141.759 335.139 140.681 335.139 140.681C335.139 140.681 334.024 139.747 333.319 139.502C332.117 139.084 331.498 138.912 330.284 138.912C328.863 138.912 328.062 138.822 326.644 138.912C324.971 139.018 322.396 139.502 322.396 139.502C322.396 139.502 320.403 140.172 320.575 139.502C321.182 137.143 319.673 132.32 317.541 128.299C316.216 125.8 315.645 124.644 313.9 122.402C311.667 119.533 309.834 117.878 307.225 115.326C303.416 111.601 300.806 110.119 296.909 106.482C294.367 104.111 292.691 103.038 290.233 100.586C287.418 97.776 285.48 95.7786 283.558 92.3306C282.699 90.7886 281.913 88.5591 281.738 87.0239C281.535 85.2549 281.131 80.4199 281.131 79.9482L281.131 77C281.131 77 279.592 79.2572 278.703 80.5378C269.016 92.5681 252.865 105.525 246 110.5C245.756 111.88 245.135 115.105 245 116.5C244.822 118.334 244.5 122 244.5 122C244.5 122 244.466 126.522 245.5 129.5C245.847 130.5 246.183 133.722 246.5 136.5C247.01 140.966 247.5 144 246.5 148C245.55 151.798 245.581 152.485 246 155C246.5 158 247.5 161.5 247.5 161.5L248.941 162.066C248.941 162.066 248.569 162.43 247.979 163.033C248.632 165.016 249.895 168.486 251.396 170.753C253.319 173.657 254.344 175.386 256.857 177.828C259.487 180.383 264.943 184.052 265.346 184.314C270.501 187.666 282 184.314 282 184.314ZM321.182 147.167C319.766 148.936 316.239 152.566 315.753 153.038C315.753 153.038 317.23 152.313 318.181 151.859C319.361 151.294 319.595 150.761 320.575 150.115C321.719 149.362 322.446 149.071 323.609 148.346C324.329 147.898 325.232 147.446 326.037 147.167C327.153 146.78 327.428 146.608 328.464 147.167C329.05 147.483 329.007 148.346 329.678 148.346C329.678 148.346 330.627 147.766 330.891 147.167C331.171 146.532 330.891 145.398 330.891 145.398C330.398 144.72 329.956 144.16 329.142 143.907C328.24 143.626 327.601 143.439 326.643 143.629C325.806 143.795 325.705 143.648 324.823 144.219C323.429 145.122 322.318 145.747 321.182 147.167ZM322.396 151.294C321.65 152.219 323.003 154.243 323.003 154.243H323.609C323.609 154.243 324.074 153.441 324.216 152.474C324.322 151.753 325.431 151.13 324.823 150.705C324.03 150.15 322.998 150.547 322.396 151.294Z" fill="#FDC5AA"/>
<path d="M260.639 166.746C264.921 168.199 272.853 169.617 281.131 167.425C269.656 177.837 262.689 171.311 260.639 166.746Z" fill="#F79585"/>
<path d="M260.639 166.746C264.921 168.199 272.853 169.617 281.131 167.425C281.503 167.327 281.875 167.221 282.247 167.108C281.81 167.169 280.126 167.036 275.803 166.115C270.885 165.067 268.29 165.679 267.607 166.115C264 164.163 261.033 165.571 260 166.519C260.203 166.595 260.416 166.67 260.639 166.746Z" fill="#F39685"/>
<path d="M263.918 131C265.967 135.305 268.262 145.531 261.049 151.989C261.049 153.199 261.869 156.025 265.148 157.639M268.426 156.025C268.973 156.025 270.23 156.186 270.885 156.832M259 166.115C259.297 166.247 259.631 166.382 260 166.519M284 166.519C283.453 166.721 282.907 166.905 282.361 167.074M260.639 166.746C264.921 168.199 272.853 169.617 281.131 167.425M260.639 166.746C262.689 171.311 269.656 177.837 281.131 167.425M260.639 166.746C260.416 166.67 260.203 166.595 260 166.519M281.131 167.425C281.503 167.327 281.875 167.221 282.247 167.108M260 166.519C261.033 165.571 264 164.163 267.607 166.115C268.29 165.679 270.885 165.067 275.803 166.115C280.126 167.036 281.81 167.169 282.247 167.108M282.361 167.074C282.344 167.088 282.308 167.1 282.247 167.108M282.361 167.074C282.323 167.085 282.285 167.097 282.247 167.108" stroke="#ED9E7F" stroke-width="0.5"/>
<path d="M255.566 116.294C252.686 115.655 246.542 115.639 245 120.689C245.791 119.411 248.873 117.205 254.871 118.612C255.951 118.865 257.292 119.634 258.265 119.411C259.93 119.028 260.336 117.353 255.566 116.294Z" fill="#F0AE40"/>
<path d="M285.566 119.331C294.897 118.612 297.057 117.573 305 123.406C304.614 121.701 301.067 117.493 294.049 116.214C290.948 115.649 284.949 116.774 284.949 116.774C282.172 117.573 280.321 117.813 281.632 119.491C282.254 120.286 283.491 119.491 285.566 119.331Z" fill="#F0AE40"/>
<path d="M282.789 141.146C283.175 142.664 284.717 145.781 291.35 145.989C292.798 146.035 294.176 145.934 295.437 145.664C286.491 143.543 288.65 130.358 294.666 128.904C294.501 128.876 294.346 128.856 294.203 128.84C286.479 128.003 283.557 135.675 282.886 140.347C282.846 140.625 282.814 140.892 282.789 141.146Z" fill="#FCFEFB"/>
<path d="M292.738 137.071C292.861 132.02 297.057 131.024 299.139 131.157C297.334 129.609 295.767 129.091 294.666 128.904C288.65 130.358 286.491 143.543 295.437 145.664C297.332 145.259 298.965 144.471 300.177 143.224C296.748 144.422 292.614 142.121 292.738 137.071Z" fill="#3CA3D8"/>
<path d="M302.455 136.751C302.455 136.192 300.498 132.323 299.139 131.157C297.057 131.024 292.861 132.02 292.738 137.071C292.614 142.121 296.748 144.422 300.177 143.224C301.609 141.75 302.455 139.636 302.455 136.751Z" fill="#1F2D38"/>
<path d="M299.139 131.157C300.498 132.323 302.455 136.192 302.455 136.751C303.509 135.446 305.386 132.836 304.46 132.836C303.535 132.836 302.584 132.25 302.224 131.957C300.743 129.144 297.596 127.908 296.208 127.641C285.596 125.468 282.905 135.206 282.886 140.347C283.557 135.675 286.479 128.003 294.203 128.84C294.346 128.856 294.501 128.876 294.666 128.904C295.767 129.091 297.334 129.609 299.139 131.157Z" fill="#211D1D"/>
<path d="M255.951 137.55C254.922 132.888 257.776 130.681 259.113 130.202C258.428 129.39 257.657 128.733 256.799 128.303C253.252 130.202 249.165 140.587 259.113 143.699C260.756 143.426 263.146 142.645 263.046 141.146C263.021 140.769 262.996 140.464 262.951 140.107C259.73 143.384 256.498 140.029 255.951 137.55Z" fill="#3CA3D8"/>
<path d="M262.896 139.708C262.778 138.907 262.587 137.912 262.369 137.071C261.72 134.559 260.63 132.002 259.113 130.202C257.776 130.681 254.922 132.888 255.951 137.55C256.498 140.029 259.73 143.384 262.951 140.107C262.935 139.982 262.917 139.851 262.896 139.708Z" fill="#1F2D38"/>
<path d="M251.401 128.6C250.528 129.066 249.61 131.15 249.287 133.635C248.669 138.394 250.238 144.625 258.496 143.783C258.683 143.764 258.891 143.736 259.113 143.699C249.165 140.587 253.252 130.202 256.799 128.303C255.27 127.537 253.469 127.497 251.401 128.6Z" fill="#FCFEFB"/>
<path d="M249.287 133.635C249.61 131.15 250.528 129.066 251.401 128.6C253.469 127.497 255.27 127.537 256.799 128.303C257.657 128.733 258.428 129.39 259.113 130.202C260.63 132.002 261.72 134.559 262.369 137.071C262.587 137.912 262.778 138.907 262.896 139.708C262.896 139.708 262.484 136.378 262.067 134.274C261.681 132.329 259.823 127.945 255.566 126.603C251.787 125.411 249.864 128.276 248.702 129.479C248.47 129.719 248.162 129.911 247.237 129.719C246.311 129.527 246.491 130.065 246.697 130.358L249.287 133.635Z" fill="#211D1D"/>
<path d="M336.649 313.895C339.068 313.103 343.324 311.402 343.324 311.402C343.324 311.402 337.45 306.995 335.435 305.64L333.615 304.46H325.726V299.154L304.487 285.592L306.307 297.974L305.693 298.096L228.025 312.126H224.384L218.316 310.946L214.668 309.767L212.544 306.229L210.42 302.692L206.786 303.281H200.111L187.367 304.46C187.367 304.46 178.783 305.539 173.41 306.819C168.096 308.085 160.06 310.946 160.06 310.946L144.889 315.664L137 318.612L142.462 319.201C146.275 319.445 148.42 319.671 152.171 320.381C156.517 321.203 158.336 322.423 162.487 323.919C166.662 325.423 168.864 326.62 172.803 328.636C176.939 330.752 179.347 331.851 183.12 334.532C187.855 337.898 190.444 339.99 194.649 343.966C198.492 347.6 200.289 349.998 203.752 353.99C207.664 358.5 209.6 361.232 213.461 365.783C217.418 370.447 219.558 373.135 223.778 377.576C227.87 381.882 230.267 384.214 234.701 388.189C238.157 391.289 240.579 393.202 244.41 395.854C249.246 399.204 252.072 400.352 257.153 402.93C259.502 404.122 260.794 404.699 263.222 405.878C265.13 406.805 266.733 406.717 268.683 405.878C269.767 405.412 272.892 403.56 275.358 401.751C278.17 399.688 279.526 398.258 282.034 395.854C286.938 391.154 289.474 388.269 293.564 382.882C296.1 379.542 297.859 376.896 300.239 373.448C304.706 366.977 306.495 364.247 310.555 357.528C313.668 352.377 315.542 349.627 317.837 343.966C319.986 338.666 321.043 335.482 322.085 329.815C322.964 325.037 323.299 317.433 323.299 317.433L323.299 316.253H325.119L329.974 315.664C329.974 315.664 334.088 314.733 336.649 313.895Z" fill="#FCF7E4"/>
<path d="M322.085 332.173C322.085 332.173 328.694 328.195 336.649 328.046C361.687 327.577 369.85 354.144 381.314 375.777C385.225 383.158 386.737 387.5 390.051 395.265C395.056 406.997 399.226 426.332 399.226 426.332L408.997 451.869C409.89 445.997 410.931 443.065 416.144 440.077C420.223 437.74 424.696 433.008 427.674 429.464C430.293 426.347 430.678 423.92 430.708 423.731L430.709 423.726C432.529 412.364 421.364 400.559 413.339 386.722C403.257 369.338 396.69 359.816 382.768 345.146C378.225 340.357 370.632 333.353 370.632 333.353L357.888 322.15C357.888 322.15 353.992 318.356 351.213 316.253C348.517 314.212 343.931 311.536 343.931 311.536C343.931 311.536 339.126 313.346 334.222 314.484C329.251 315.638 324.179 316.12 323.905 316.253C323.325 316.535 323.601 320.774 323.299 324.508C322.968 328.586 322.085 332.173 322.085 332.173Z" fill="#248CC3"/>
<g filter="url(#filter0_f_874_546)">
<path d="M345.859 286.168C354.624 288.566 359.584 290.784 368.523 296.599" stroke="#E9906E" stroke-linecap="round"/>
</g>
<g filter="url(#filter1_f_874_546)">
<path d="M287.495 268.925C291.904 269.318 294.215 270.317 297.99 273.755" stroke="#E9906E" stroke-linecap="round"/>
</g>
<g filter="url(#filter2_f_874_546)">
<path d="M283.247 260.238C287.656 260.63 298.284 262.695 302.059 266.134" stroke="#E9906E" stroke-linecap="round"/>
</g>
<g filter="url(#filter3_f_874_546)">
<path d="M181.163 225.869C177.967 223.15 168.012 215.033 163.094 214.246" stroke="#E9906E" stroke-linecap="round"/>
</g>
<g filter="url(#filter4_f_874_546)">
<path d="M180.692 232.525C178.292 231.022 170.863 226.481 167.631 225.533" stroke="#E9906E" stroke-linecap="round"/>
</g>
<g filter="url(#filter5_f_874_546)">
<path d="M288.709 252.899C291.564 252.577 298.262 252.833 300.197 255.425" stroke="#E9906E" stroke-linecap="round"/>
</g>
<defs>
<filter id="filter0_f_874_546" x="344.354" y="284.672" width="25.6729" height="13.4231" filterUnits="userSpaceOnUse" color-interpolation-filters="sRGB">
<feFlood flood-opacity="0" result="BackgroundImageFix"/>
<feBlend mode="normal" in="SourceGraphic" in2="BackgroundImageFix" result="shape"/>
<feGaussianBlur stdDeviation="0.5" result="effect1_foregroundBlur_874_546"/>
</filter>
<filter id="filter1_f_874_546" x="285.991" y="267.429" width="13.5034" height="7.82153" filterUnits="userSpaceOnUse" color-interpolation-filters="sRGB">
<feFlood flood-opacity="0" result="BackgroundImageFix"/>
<feBlend mode="normal" in="SourceGraphic" in2="BackgroundImageFix" result="shape"/>
<feGaussianBlur stdDeviation="0.5" result="effect1_foregroundBlur_874_546"/>
</filter>
<filter id="filter2_f_874_546" x="281.743" y="258.742" width="21.8206" height="8.8877" filterUnits="userSpaceOnUse" color-interpolation-filters="sRGB">
<feFlood flood-opacity="0" result="BackgroundImageFix"/>
<feBlend mode="normal" in="SourceGraphic" in2="BackgroundImageFix" result="shape"/>
<feGaussianBlur stdDeviation="0.5" result="effect1_foregroundBlur_874_546"/>
</filter>
<filter id="filter3_f_874_546" x="161.59" y="212.75" width="21.0774" height="14.615" filterUnits="userSpaceOnUse" color-interpolation-filters="sRGB">
<feFlood flood-opacity="0" result="BackgroundImageFix"/>
<feBlend mode="normal" in="SourceGraphic" in2="BackgroundImageFix" result="shape"/>
<feGaussianBlur stdDeviation="0.5" result="effect1_foregroundBlur_874_546"/>
</filter>
<filter id="filter4_f_874_546" x="166.127" y="224.037" width="16.069" height="9.98364" filterUnits="userSpaceOnUse" color-interpolation-filters="sRGB">
<feFlood flood-opacity="0" result="BackgroundImageFix"/>
<feBlend mode="normal" in="SourceGraphic" in2="BackgroundImageFix" result="shape"/>
<feGaussianBlur stdDeviation="0.5" result="effect1_foregroundBlur_874_546"/>
</filter>
<filter id="filter5_f_874_546" x="287.205" y="251.293" width="14.4965" height="5.62695" filterUnits="userSpaceOnUse" color-interpolation-filters="sRGB">
<feFlood flood-opacity="0" result="BackgroundImageFix"/>
<feBlend mode="normal" in="SourceGraphic" in2="BackgroundImageFix" result="shape"/>
<feGaussianBlur stdDeviation="0.5" result="effect1_foregroundBlur_874_546"/>
</filter>
</defs>
</svg>
