<svg width="497" height="593" viewBox="0 0 497 593" fill="none" xmlns="http://www.w3.org/2000/svg">
<path d="M260.176 123.142L260.663 123.252L260.443 124.227L259.955 124.117L260.065 123.629L260.176 123.142ZM255.728 121.431C255.547 121.222 255.57 120.906 255.779 120.726C255.988 120.545 256.304 120.568 256.484 120.777L256.106 121.104L255.728 121.431ZM260.065 123.629C259.955 124.117 259.955 124.117 259.955 124.117C259.955 124.117 259.955 124.117 259.955 124.117C259.955 124.117 259.955 124.117 259.954 124.117C259.954 124.117 259.954 124.117 259.953 124.117C259.952 124.116 259.951 124.116 259.949 124.116C259.946 124.115 259.942 124.114 259.936 124.113C259.924 124.11 259.908 124.106 259.886 124.101C259.844 124.091 259.784 124.076 259.709 124.056C259.56 124.017 259.354 123.96 259.123 123.887C258.673 123.745 258.081 123.527 257.647 123.243L257.92 122.824L258.194 122.406C258.508 122.611 258.989 122.796 259.424 122.934C259.636 123.001 259.825 123.053 259.962 123.089C260.03 123.106 260.084 123.12 260.121 123.129C260.14 123.133 260.154 123.137 260.163 123.139C260.168 123.14 260.171 123.141 260.173 123.141C260.174 123.141 260.175 123.142 260.175 123.142C260.176 123.142 260.176 123.142 260.176 123.142C260.176 123.142 260.176 123.142 260.176 123.142C260.176 123.142 260.176 123.142 260.176 123.142C260.176 123.142 260.176 123.142 260.065 123.629ZM257.92 122.824L257.647 123.243C257.222 122.965 256.736 122.5 256.374 122.129C256.189 121.94 256.028 121.766 255.914 121.64C255.857 121.576 255.811 121.525 255.779 121.489C255.763 121.471 255.75 121.457 255.742 121.447C255.738 121.442 255.734 121.438 255.732 121.435C255.731 121.434 255.73 121.433 255.729 121.432C255.729 121.432 255.729 121.432 255.729 121.431C255.728 121.431 255.728 121.431 255.728 121.431C255.728 121.431 255.728 121.431 255.728 121.431C255.728 121.431 255.728 121.431 256.106 121.104C256.484 120.777 256.484 120.777 256.484 120.777C256.484 120.777 256.484 120.777 256.484 120.777C256.484 120.777 256.484 120.777 256.484 120.777C256.484 120.777 256.485 120.777 256.485 120.777C256.485 120.777 256.486 120.778 256.487 120.779C256.488 120.781 256.491 120.784 256.495 120.789C256.502 120.797 256.513 120.81 256.528 120.827C256.557 120.86 256.601 120.908 256.655 120.968C256.763 121.088 256.916 121.252 257.09 121.431C257.449 121.799 257.869 122.194 258.194 122.406L257.92 122.824Z" fill="black"/>
<path d="M153.887 518.659L144.785 524.555C146.403 525.538 149.761 527.503 150.246 527.503C150.853 527.503 154.494 529.272 155.101 529.272C155.586 529.272 159.753 530.059 161.776 530.452C163.419 530.771 164.525 530.59 166.024 529.862C167.517 529.136 168.972 527.962 170.258 526.925L170.272 526.914C172.398 525.198 172.699 525.145 174.52 523.376C175.374 522.546 175.702 521.667 175.733 520.428C175.758 519.479 175.603 518.898 175.126 518.069C174.294 516.619 172.893 516.062 171.485 515.121C169.806 513.998 167.238 512.762 167.238 512.762L164.03 510.994L153.887 518.659Z" fill="#FCF6E9"/>
<path d="M195.759 431.982L192.118 443.775C192.118 443.775 188.983 454.512 187.263 461.464C185.395 469.017 185.161 473.439 183.015 480.922C182.002 484.454 181.051 486.591 179.607 489.833L179.374 490.356L179.146 490.869C177.437 494.716 176.454 496.928 173.913 500.38C171.89 503.128 168.023 506.866 168.023 506.866C168.023 506.866 169.665 507.456 172.092 508.635C174.564 509.836 176.177 510.302 178.161 512.173C179.249 513.2 180.179 514.026 181.195 515.121C182.092 516.089 182.518 516.472 183.622 516.89C184.748 517.316 185.379 516.952 186.049 516.3C187.263 515.121 188.361 514.228 189.69 512.762C190.694 511.656 191.777 510.735 192.725 509.814C193.673 508.893 194.606 507.686 195.152 506.866C195.152 506.866 197.084 501.351 198.793 498.022C200.789 494.134 204.861 488.587 204.861 488.587L218.212 470.309C218.212 470.309 222.418 463.68 225.494 459.695C230.955 452.619 231.562 451.44 231.562 451.44L237.024 444.954L235.203 443.185C235.203 443.185 233.535 442.057 232.776 441.416C231.088 439.992 230.328 439.756 228.528 438.468C226.768 437.21 224.28 434.93 224.28 434.93C222.864 433.751 219.304 430.685 218.819 430.213C218.333 429.741 214.975 426.675 213.357 424.906C213.357 424.906 210.633 421.922 209.109 420.189C207.23 418.053 204.861 414.883 204.861 414.883C204.861 414.883 203.303 417.283 202.434 419.01C202.434 419.01 200.405 422.273 199.393 424.317C197.876 427.38 195.759 431.982 195.759 431.982Z" fill="#FBF7E9"/>
<path d="M144.785 524.555C144.785 524.555 139.178 526.842 136.289 529.272C132.956 532.075 130.284 533.883 129.614 538.117C129.252 540.404 129.628 542.401 130.22 544.013C130.813 545.625 132.648 546.372 132.648 546.372C135.175 547.6 145.743 550.095 152.895 548.463C160.117 546.815 164.619 544.56 170.878 541.065C176.181 538.105 178.759 537.003 183.622 533.4C187.242 530.718 190.574 530.277 192.725 526.324C194.291 523.445 194.805 521.939 195.152 518.659C195.637 514.072 195.152 510.404 195.152 506.866C194.606 507.686 193.673 508.893 192.725 509.814C191.777 510.735 190.694 511.656 189.69 512.762C188.361 514.228 187.263 515.121 186.049 516.3C185.379 516.952 184.748 517.316 183.622 516.89C182.518 516.472 182.092 516.089 181.195 515.121C180.179 514.026 179.249 513.2 178.161 512.173C176.177 510.302 174.564 509.836 172.092 508.635C169.665 507.456 168.023 506.866 168.023 506.866L164.81 510.404L164.03 510.994L167.238 512.762C167.238 512.762 169.806 513.998 171.485 515.121C172.893 516.062 174.294 516.619 175.126 518.069C175.603 518.898 175.758 519.479 175.733 520.428C175.702 521.667 175.374 522.546 174.52 523.376C172.699 525.145 172.398 525.198 170.272 526.914L170.258 526.925C168.972 527.962 167.517 529.136 166.024 529.862C164.525 530.59 163.419 530.771 161.776 530.452C159.753 530.059 155.586 529.272 155.101 529.272C154.494 529.272 150.853 527.503 150.246 527.503C149.761 527.503 146.403 525.538 144.785 524.555Z" fill="#111110"/>
<path d="M59.2207 437.289C58.5901 438.367 58.0071 439.587 58.0071 440.827C58.0071 444.954 57.8327 447.494 59.2207 451.44C60.7726 455.852 65.896 461.464 65.896 461.464C65.896 461.464 73.5689 469.865 79.2463 474.436C84.359 478.552 87.742 482.101 93.2036 483.87C97.2504 485.181 101.699 486.229 104.127 483.87C105.222 482.806 107.703 480.914 108.974 479.153C110.524 477.006 110.774 475.052 110.802 475.026C111.409 474.436 111.409 470.309 110.802 467.95C110.802 467.95 109.447 466.044 108.374 465.002C107.424 464.078 106.747 463.612 105.746 462.923C105.698 462.89 105.65 462.857 105.601 462.823C105.517 462.765 105.43 462.705 105.34 462.643C104.645 462.161 103.52 461.464 103.52 461.464L101.699 462.054C101.699 462.054 99.8641 464.405 98.665 463.823C98.665 463.823 97.5555 463.693 96.8445 463.233C96.1336 462.772 95.0241 461.464 95.0241 461.464L92.5968 457.926C91.7876 456.354 90.048 453.091 89.5626 452.619C89.0771 452.148 87.3375 449.671 86.5284 448.492C85.3976 446.844 84.8006 446.066 83.4941 444.364C82.7615 443.41 81.5198 442.006 80.8756 441.287C79.7768 440.549 78.7569 439.845 77.4258 439.058C75.2358 437.763 74.2614 436.625 71.9643 435.52C70.1499 434.647 67.1096 433.751 67.1096 433.751C67.1096 433.751 64.8033 433.275 63.4686 433.751C62.3564 434.148 61.8791 434.116 61.0413 434.93C60.2034 435.744 59.8063 436.288 59.2207 437.289Z" fill="#111110"/>
<path d="M101.699 462.054L103.52 461.464C103.52 461.464 102.389 454.664 101.085 451.44C99.782 448.216 96.8445 444.954 96.8445 444.954C95.6174 445.068 94.4019 445.231 93.1965 445.342C93.1965 445.342 95.7841 448.177 97.4444 451.44C99.1047 454.703 101.699 462.054 101.699 462.054Z" fill="black"/>
<path d="M116.863 338.23C115.615 343.385 116.876 347.705 117.477 351.791C118.084 355.919 119.023 357.958 120.511 361.815C122.332 366.532 123.541 369.145 125.973 373.608C128.312 377.901 129.765 380.253 132.648 384.221C135.273 387.835 136.537 390.116 139.93 393.066C141.061 394.049 142.964 395.424 142.964 395.424C142.964 395.424 145.86 391.781 147.819 389.528C148.751 388.456 149.33 387.691 149.926 386.902C150.509 386.132 151.107 385.341 152.067 384.221C152.582 383.62 153.158 383.021 153.74 382.415C154.736 381.379 155.75 380.324 156.51 379.206C157.113 378.32 158.199 377.283 159.262 376.268C160.26 375.313 161.238 374.379 161.776 373.608C163.28 371.451 163.597 370.07 163.597 370.07C163.597 369.598 162.383 368.301 161.776 367.711C161.776 367.711 159.109 365.388 156.921 364.174C155.163 363.198 153.361 361.884 151.453 361.225C149.334 360.494 148.795 360.51 146.598 360.046C144.501 359.604 141.144 359.457 141.144 359.457C141.144 359.457 148.415 350.929 153.273 349.433C158.131 347.936 164.803 351.791 164.803 351.791C164.803 351.791 155.062 340.839 146.598 335.871C138.259 330.976 121.718 327.616 121.718 327.616C118.756 331.185 118.004 333.518 116.863 338.23Z" fill="#2286C0"/>
<path d="M173.306 417.831C173.306 417.831 179.253 423.726 183.622 426.086C188.254 428.587 195.759 431.982 195.759 431.982C195.759 431.982 197.876 427.38 199.393 424.317C200.405 422.273 202.434 419.01 202.434 419.01C203.303 417.283 204.861 414.883 204.861 414.883L199.4 410.165L193.938 404.859L189.69 400.142C189.69 400.142 186.85 402.081 184.836 404.269C182.821 406.457 179.374 411.345 179.374 411.345L173.306 417.831Z" fill="#2286C0"/>
<path d="M181.195 390.118L189.69 400.142L193.938 404.859L199.4 410.165L204.861 414.883C204.861 414.883 207.23 418.053 209.109 420.189C210.633 421.922 213.357 424.906 213.357 424.906C214.975 426.675 218.333 429.741 218.819 430.213C219.304 430.685 222.864 433.751 224.28 434.93C224.28 434.93 226.768 437.21 228.528 438.468C230.328 439.756 231.088 439.992 232.776 441.416C233.535 442.057 235.203 443.185 235.203 443.185C233.562 441.542 231.225 438.73 230.955 438.468C230.955 438.468 227.192 434.936 224.887 432.572C222.694 430.323 221.489 429.037 219.425 426.675C216.694 423.55 214.866 421.741 212.143 418.42C209.981 415.783 208.819 414.22 206.829 411.542L206.682 411.345C203.988 407.72 200.007 401.91 200.007 401.91L195.152 394.835L190.904 388.349L186.049 378.915C186.049 378.915 183.624 374.152 181.802 371.249C179.85 368.141 178.482 366.571 176.34 363.584C174.687 361.278 173.937 359.852 172.092 357.688C169.955 355.179 167.539 353.672 164.803 351.791C164.803 351.791 158.131 347.936 153.273 349.433C148.415 350.929 141.144 359.457 141.144 359.457C141.144 359.457 144.501 359.604 146.598 360.046C148.795 360.51 149.334 360.494 151.453 361.225C153.361 361.884 155.163 363.198 156.921 364.174C159.109 365.388 161.776 367.711 161.776 367.711C162.383 368.301 163.597 369.598 163.597 370.07L166.024 371.839L171.485 377.735L176.947 384.221L181.195 390.118Z" fill="#F4E1C0"/>
<path d="M373.562 259.808C373.18 260.343 372.348 260.987 372.348 260.987C372.348 260.987 374.641 264.628 375.989 267.473C376.921 269.441 378.865 272.78 378.865 272.78C378.865 272.78 379.541 273.502 380.844 273.959C381.958 274.35 383.336 274.832 384.485 274.549C385.824 274.218 386.35 274.086 387.519 273.369C389.965 271.869 391.41 271.093 393.587 269.242C395.987 267.202 397 265.719 399.049 263.345C401.547 260.452 403.219 258.386 405.117 255.091C406.621 252.478 408.151 248.605 408.151 248.605C408.151 248.605 409.41 245.777 409.972 243.887C410.707 241.414 411.185 237.401 411.185 237.401C411.185 237.401 411.674 240.266 411.792 242.118C411.91 243.957 411.957 245 411.792 246.836C411.583 249.175 410.975 250.415 410.579 252.732C410.304 254.338 410.209 254.947 411.185 256.27C411.929 257.277 413.078 256.824 414.22 256.27C416.647 255.091 416.915 254.993 418.468 253.911C420.919 252.203 422 250.857 423.929 248.605C426.79 245.265 427.976 243.292 429.391 239.17C430.525 235.865 430.722 233.816 431.211 230.326C431.565 227.806 431.678 226.379 431.818 223.84C431.958 221.3 431.818 217.943 431.211 214.405C430.863 212.374 430.444 211.476 429.391 209.688C428.337 207.901 427.179 206.697 425.143 204.971C423.458 203.543 422.336 203.029 420.895 201.433C420.113 200.568 419.074 199.075 419.074 199.075L421.502 200.254C421.502 200.254 422.929 201.405 423.929 202.023C425.27 202.852 425.622 202.963 426.963 203.792C427.963 204.41 429.02 205.201 429.997 206.151C430.975 207.1 431.701 208.187 432.425 209.099C433.352 210.266 433.521 210.546 434.245 211.457L434.377 211.623C435.242 212.711 435.937 213.585 436.673 214.995C437.25 216.101 437.886 217.943 437.886 217.943C437.886 217.943 438.346 215.709 438.493 213.816C438.655 211.737 438.493 210.222 438.493 207.919C438.493 206.077 438.162 204.435 437.886 202.613C437.636 200.954 437.641 200.665 437.28 199.075C436.567 195.943 435.772 194.253 434.245 191.41C432.207 187.612 430.715 185.566 427.57 182.565C423.912 179.075 421.132 177.902 416.647 175.489C411.447 172.692 407.115 171.691 402.69 169.003C398.264 166.315 392.374 161.338 392.374 161.338C392.374 161.338 385.061 154.771 380.844 150.135C377.045 145.958 374.572 143.78 371.741 138.932C369.223 134.617 366.887 127.139 366.887 127.139L363.246 114.757C363.246 114.757 361.344 107.819 359.605 103.553C358.159 100.01 355.357 94.7089 355.357 94.7089C355.357 94.7089 353.012 90.4244 351.709 88.8125C350.405 87.2006 348.681 86.454 348.681 86.454L345.647 87.6332L342.006 88.8125C340.882 89.1766 341.677 89.892 342.006 91.1711C342.613 93.5296 343.124 94.7972 343.827 97.0674C344.377 98.8453 344.68 99.9183 345.04 101.785C345.829 105.864 345.566 108.228 345.647 112.398C345.719 116.089 345.862 118.154 345.647 121.832C345.349 126.937 342.613 135.984 342.613 135.984C342.613 135.984 342.174 137.475 340.793 138.932C340.338 139.411 339.579 140.111 339.579 140.111L338.365 140.701C338.365 140.701 339.697 137.125 340.186 134.804C340.686 132.43 340.793 127.204 340.793 124.78V117.115C340.793 116.526 340.298 103.542 340.179 102.964C338.965 97.0675 335.729 91.5642 333.504 86.454C333.504 86.454 329.371 77.8289 328.042 75.8405C324.965 71.2347 322.588 69.3544 322.588 69.3544C322.588 69.3544 317.388 64.9548 313.478 63.4581C309.568 61.9613 302.562 61.6891 302.562 61.6891C302.562 61.6891 299.226 61.0716 297.093 59.9202C294.961 58.7689 291.025 56.3824 291.025 56.3824C286.77 55.2031 284.179 55.0715 279.495 55.7928C273.498 56.7162 270.038 58.134 264.938 61.0995C259.158 64.4606 256.117 66.868 251.588 71.713C247.698 75.8741 244.934 78.1789 243.085 83.5058C242.387 85.5174 241.871 87.8688 241.871 89.9918C241.871 95.2985 242.345 96.7647 243.085 101.785C244.318 110.146 249.153 122.422 249.153 122.422C249.153 122.422 250.196 118.949 250.374 117.115C250.509 115.721 250.737 114.958 250.981 113.577C251.43 111.04 252.194 107.091 252.194 107.091C252.545 105.899 253.298 103.589 254.015 102.374C254.77 101.095 255.229 100.605 256.442 99.426C257.719 98.186 258.457 97.8279 260.083 97.0675C263.05 95.6804 263.972 94.644 266.759 92.94C268.928 91.6132 270.069 90.9055 272.22 89.4022C274.397 87.8809 275.786 87.1168 277.682 85.2747L277.873 85.0892C279.394 83.6117 280.062 82.9629 281.323 81.1472C282.212 79.8666 283.75 77.6094 283.75 77.6094V75.2508C283.75 75.2508 284.588 71.2953 286.177 69.3544C286.803 68.5899 287.998 67.5855 287.998 67.5855L283.75 75.2508V77.6094L283.75 80.5576C283.75 81.0293 284.155 85.8643 284.357 87.6332C284.532 89.1685 285.318 91.398 286.177 92.94C288.099 96.388 290.037 98.3854 292.853 101.195C295.31 103.648 296.987 104.72 299.528 107.091C303.425 110.728 306.035 112.211 309.844 115.936C312.453 118.488 314.286 120.143 316.519 123.012C318.264 125.253 318.835 126.409 320.16 128.908C322.292 132.93 323.801 137.752 323.194 140.111C323.022 140.781 325.015 140.111 325.015 140.111C325.015 140.111 327.591 139.627 329.263 139.521C330.682 139.431 331.482 139.521 332.904 139.521C334.117 139.521 334.736 139.693 335.938 140.111C336.643 140.356 337.758 141.29 337.758 141.29C337.758 141.29 339.105 142.368 339.579 143.059C340.053 143.75 340.186 145.418 340.186 145.418C340.476 147.021 340.358 149.105 340.186 150.725C340.085 151.669 339.914 152.191 339.579 153.083C339.216 154.05 338.92 154.564 338.365 155.442C337.572 156.698 336.954 157.295 335.938 158.39C335.04 159.357 334.527 159.899 333.511 160.748C332.612 161.499 331.864 161.901 331.083 162.517C330.011 163.364 328.825 163.939 328.049 164.286C326.74 164.872 326.446 164.784 325.008 164.876C324.062 164.936 322.916 165.024 321.981 164.876C320.721 164.676 318.947 163.697 318.947 163.697L317.126 175.489V180.206L317.733 183.744L318.947 186.692L320.767 188.461L329.263 194.947L336.545 198.485L345.647 199.665L360.818 202.392C360.818 202.392 366.179 203.512 369.314 204.971C372.396 206.406 374.02 207.505 376.596 209.688C378.998 211.725 380.362 212.961 382.057 215.585C383.696 218.12 384.309 219.765 385.092 222.66C386.536 228.006 386.416 231.437 385.092 236.812C384.446 239.433 383.94 240.904 382.664 243.298C381.03 246.365 377.203 250.373 377.203 250.373C377.203 250.373 376.266 251.383 375.375 252.142C374.62 252.787 372.955 253.911 372.955 253.911C372.955 253.911 373.959 254.979 374.162 255.68C374.489 256.81 374.487 257.496 374.169 258.628C374.029 259.125 373.863 259.384 373.562 259.808Z" fill="#F5BD43"/>
<path d="M276.468 197.109H272.22H267.365H263.118H258.87C258.87 197.109 257.042 201.613 257.042 204.382C257.042 208.509 257.649 214.518 257.649 214.518L261.897 213.816L273.427 212.047C273.427 212.047 273.201 206.385 274.034 203.202C274.736 200.519 276.468 197.109 276.468 197.109Z" fill="#FBF7E9"/>
<path d="M258.87 197.109H256.435C255.048 197.109 254.272 196.983 252.891 197.109C249.622 197.409 247.885 197.899 244.906 199.665C241.926 201.43 238.23 206.74 238.23 206.74L233.989 212.637L229.742 219.123L229.135 219.712L255.836 214.817L257.649 214.518C257.649 214.518 257.042 208.509 257.042 204.382C257.042 201.613 258.87 197.109 258.87 197.109Z" fill="#36A6DD"/>
<path d="M318.333 193.178C319.733 191.237 320.767 188.461 320.767 188.461L318.947 186.692L317.733 183.744L317.126 180.206V175.489L318.947 163.697L316.519 158.39C316.519 158.39 316.519 158.979 315.305 164.286C314.891 166.098 312.878 168.414 312.878 168.414C312.878 168.414 310.509 170.918 308.623 172.541C306.237 174.596 304.987 175.845 302.555 177.848C300.24 179.755 298.439 180.97 295.887 182.565C293.334 184.16 291.534 184.901 288.605 186.103C286.739 186.868 283.75 187.872 283.75 187.872L283.143 190.82V194.947C283.143 196.127 283.021 196.75 283.136 197.896C283.254 199.065 283.279 199.759 283.743 200.844C284.454 202.504 285.189 202.869 286.777 203.792C288.821 204.98 295.88 204.971 295.88 204.971C295.88 204.971 302.148 205.056 305.589 203.792C309.055 202.519 310.743 200.982 313.471 198.498L313.485 198.485C315.323 196.812 316.887 195.183 318.333 193.178Z" fill="#FDC5AA"/>
<path d="M276.468 197.109L278.281 196.127C278.281 196.127 279.868 195.169 280.709 194.358C281.923 193.187 283.143 190.82 283.143 190.82L283.75 187.872C283.75 187.872 273.12 188.276 267.965 184.924C267.562 184.661 262.106 180.993 259.477 178.438C256.963 175.995 255.938 174.267 254.015 171.362C251.811 168.033 249.112 162.415 249.112 162.415L249.153 162.517C249.153 162.517 244.32 167.255 241.871 170.772C239.146 174.687 237.017 178.438 235.196 184.924C234.573 187.145 234.596 190.82 234.596 190.82C234.596 190.82 234.472 195.921 235.196 199.075C235.915 202.205 238.23 206.74 238.23 206.74C238.23 206.74 241.926 201.43 244.906 199.665C247.885 197.899 249.622 197.409 252.891 197.109C254.272 196.983 255.048 197.109 256.435 197.109H258.87H263.118H267.365H272.22H276.468Z" fill="#F5BD43"/>
<path fill-rule="evenodd" clip-rule="evenodd" d="M283.75 187.872C283.75 187.872 286.739 186.868 288.605 186.103C291.534 184.901 293.334 184.16 295.887 182.565C298.439 180.97 300.24 179.755 302.555 177.848C304.987 175.845 306.237 174.596 308.623 172.541C310.509 170.918 312.878 168.414 312.878 168.414C312.878 168.414 314.891 166.098 315.305 164.286C316.519 158.979 316.519 158.39 316.519 158.39L318.947 163.697C318.947 163.697 320.721 164.676 321.981 164.876C322.916 165.024 324.062 164.936 325.008 164.876C326.446 164.784 326.74 164.872 328.049 164.286C328.825 163.939 330.011 163.364 331.083 162.517C331.864 161.901 332.612 161.499 333.511 160.748C334.527 159.899 335.04 159.357 335.938 158.39C336.954 157.295 337.572 156.698 338.365 155.442C338.92 154.564 339.216 154.05 339.579 153.083C339.914 152.191 340.085 151.669 340.186 150.725C340.358 149.105 340.476 147.021 340.186 145.418C340.186 145.418 340.053 143.75 339.579 143.059C339.105 142.368 337.758 141.29 337.758 141.29C337.758 141.29 336.643 140.356 335.938 140.111C334.736 139.693 334.117 139.521 332.904 139.521C331.482 139.521 330.682 139.431 329.263 139.521C327.591 139.627 325.015 140.111 325.015 140.111C325.015 140.111 323.022 140.781 323.194 140.111C323.801 137.752 322.292 132.93 320.16 128.908C318.835 126.409 318.264 125.253 316.519 123.012C314.286 120.143 312.453 118.488 309.844 115.936C306.035 112.211 303.425 110.728 299.528 107.091C296.987 104.72 295.31 103.648 292.853 101.195C290.037 98.3854 288.099 96.388 286.177 92.94C285.318 91.398 284.532 89.1685 284.357 87.6332C284.155 85.8643 283.75 81.0293 283.75 80.5576L283.75 77.6094C283.75 77.6094 282.212 79.8666 281.323 81.1472C280.062 82.9629 279.394 83.6117 277.873 85.0892L277.682 85.2747C275.786 87.1168 274.397 87.8809 272.22 89.4022C270.069 90.9055 268.928 91.6132 266.759 92.94C263.972 94.644 263.05 95.6804 260.083 97.0675C258.457 97.8279 257.719 98.186 256.442 99.426C255.229 100.605 254.77 101.095 254.015 102.374C253.298 103.589 252.545 105.899 252.194 107.091C252.194 107.091 251.43 111.04 250.981 113.577C250.737 114.958 250.509 115.721 250.374 117.115C250.196 118.949 249.153 122.422 249.153 122.422C249.153 122.422 249.389 127.209 249.153 130.087C248.918 132.966 247.947 137.163 247.947 137.163C247.947 137.163 246.363 142.892 246.119 146.597C245.862 150.504 246.733 156.621 246.733 156.621C247.325 158.988 249.112 162.415 249.112 162.415C249.112 162.415 251.811 168.033 254.015 171.362C255.938 174.267 256.963 175.995 259.477 178.438C262.106 180.993 267.562 184.661 267.965 184.924C273.12 188.276 283.75 187.872 283.75 187.872ZM323.801 147.776C322.385 149.545 318.858 153.176 318.373 153.647C318.373 153.647 319.849 152.922 320.8 152.468C321.981 151.904 322.214 151.371 323.194 150.725C324.338 149.971 325.065 149.68 326.228 148.956C326.948 148.508 327.851 148.056 328.656 147.776C329.772 147.389 330.047 147.217 331.083 147.776C331.669 148.093 331.627 148.956 332.297 148.956C332.297 148.956 333.246 148.375 333.51 147.776C333.791 147.141 333.51 146.007 333.51 146.007C333.017 145.33 332.575 144.769 331.762 144.516C330.859 144.236 330.22 144.049 329.263 144.239C328.425 144.404 328.324 144.257 327.442 144.828C326.048 145.731 324.937 146.357 323.801 147.776ZM325.015 151.904C324.269 152.828 325.622 154.852 325.622 154.852H326.229C326.229 154.852 326.693 154.05 326.835 153.083C326.941 152.362 328.051 151.739 327.442 151.314C326.649 150.76 325.618 151.157 325.015 151.904Z" fill="#FDC5AA"/>
<path d="M303.169 52.8446C301.974 56.1058 302.562 61.6891 302.562 61.6891C302.562 61.6891 309.568 61.9613 313.478 63.4581C317.388 64.9548 322.588 69.3544 322.588 69.3544L323.194 68.1752C323.194 68.1752 325.395 64.2597 326.229 61.6891C326.747 60.0903 326.723 59.2345 326.835 57.5617C326.944 55.9369 326.702 54.9309 326.228 53.4342C325.754 51.9375 325.285 51.1848 324.408 49.8964C323.203 48.1256 322.751 46.6586 320.767 45.7689C319.88 45.3711 319.247 44.9422 318.34 44.5896C317.328 44.1965 315.184 44 314.699 44C313.485 44 312.432 44.341 311.664 44.5896C309.844 45.1793 308.904 45.365 307.417 46.3585C306.036 47.281 305.856 48.0962 304.989 49.3067C304.004 50.6831 303.702 51.3893 303.169 52.8446Z" fill="#1F2E39"/>
<path d="M345.647 87.6332L348.681 86.454C348.681 86.454 349.447 85.7586 349.895 85.2747C351.391 83.6607 351.923 82.4419 352.929 80.5576C353.62 79.2649 354.143 77.7728 354.143 76.4301C354.143 75.0543 353.753 70.9556 353.536 70.5337C352.322 68.1752 352.895 69.177 352.322 68.1752C351.883 67.4068 349.167 66.0807 348.681 65.8166C348.075 65.4865 346.861 65.227 344.434 64.6373C344.434 64.6373 341.468 64.1628 339.572 64.0477C337.676 63.9326 334.724 64.0477 334.724 64.0477C332.25 64.0477 328.656 65.8166 328.656 65.8166C328.656 65.8166 327.133 66.4597 326.229 66.9959C324.648 67.9323 322.588 69.3544 322.588 69.3544C322.588 69.3544 324.965 71.2347 328.042 75.8405C329.371 77.8289 333.504 86.454 333.504 86.454C335.729 91.5642 338.965 97.0675 340.179 102.964C340.298 103.542 340.793 116.526 340.793 117.115V124.78C340.793 127.204 340.686 132.43 340.186 134.804C339.697 137.125 338.365 140.701 338.365 140.701L339.579 140.111C339.579 140.111 340.338 139.411 340.793 138.932C342.174 137.475 342.613 135.984 342.613 135.984C342.613 135.984 345.349 126.937 345.647 121.832C345.862 118.154 345.719 116.089 345.647 112.398C345.566 108.228 345.829 105.864 345.04 101.785C344.68 99.9183 344.377 98.8453 343.827 97.0674C343.124 94.7972 342.613 93.5296 342.006 91.1711C341.677 89.892 340.882 89.1766 342.006 88.8125L345.647 87.6332Z" fill="#1F2E39"/>
<path fill-rule="evenodd" clip-rule="evenodd" d="M87.1352 444.954C89.1315 445.567 91.1495 445.53 93.1965 445.342C93.1965 445.342 95.7841 448.177 97.4444 451.44C99.1047 454.703 101.699 462.054 101.699 462.054C101.699 462.054 99.8641 464.405 98.665 463.823C98.665 463.823 97.5555 463.693 96.8445 463.233C96.1336 462.772 95.0241 461.464 95.0241 461.464L92.5968 457.926C91.7876 456.354 90.048 453.091 89.5626 452.619C89.0771 452.148 87.3375 449.671 86.5284 448.492C85.3976 446.844 84.8006 446.066 83.4941 444.364C82.7615 443.41 81.5198 442.006 80.8756 441.287C81.4973 441.705 82.1443 442.134 82.8873 442.596C83.3568 442.887 83.7509 443.154 84.1129 443.399C85.0754 444.05 85.8113 444.548 87.1352 444.954Z" fill="#FBF7E9"/>
<path d="M110.802 467.95C110.802 467.95 114.443 463.945 116.87 461.464C119.641 458.632 121.374 456.99 124.152 454.388C127.058 451.667 128.772 450.202 132.041 447.902C136.684 444.636 144.785 439.058 144.785 439.058C144.785 439.058 156.832 430.216 164.81 424.906C168.335 422.561 173.306 417.831 173.306 417.831L179.374 411.345C179.374 411.345 182.821 406.457 184.836 404.269C186.85 402.081 189.69 400.142 189.69 400.142L181.195 390.118L176.947 384.221L171.485 377.735L166.024 371.839L163.597 370.07C163.597 370.07 163.28 371.451 161.776 373.608C161.238 374.379 160.26 375.313 159.262 376.268C158.199 377.283 157.113 378.32 156.51 379.206C155.75 380.324 154.736 381.379 153.74 382.415C153.158 383.021 152.582 383.62 152.067 384.221C151.107 385.341 150.509 386.132 149.926 386.902C149.33 387.691 148.751 388.456 147.819 389.528C145.86 391.781 142.964 395.424 142.964 395.424L141.75 397.193C141.75 397.193 139.73 400.037 138.109 401.91C136.282 404.023 135.108 405.516 133.716 407.286C133.04 408.146 132.313 409.072 131.434 410.165C130.488 411.343 129.652 412.354 128.847 413.327C127.517 414.934 126.272 416.439 124.759 418.42C123.013 420.706 121.807 422.207 120.297 424.084L120.296 424.086C119.803 424.699 119.278 425.352 118.691 426.086C116.102 429.323 114.644 431.133 112.015 434.341C111.697 434.729 111.432 435.064 111.182 435.381L111.181 435.382C110.688 436.006 110.253 436.555 109.588 437.289C108.259 438.755 105.947 440.827 105.947 440.827C105.947 440.827 103.548 442.94 101.699 443.775C100.135 444.481 98.9808 444.756 96.8445 444.954C96.8445 444.954 99.782 448.216 101.085 451.44C102.389 454.664 103.52 461.464 103.52 461.464C103.52 461.464 104.645 462.161 105.34 462.643C105.43 462.705 105.517 462.765 105.601 462.823L105.746 462.923C106.747 463.612 107.424 464.078 108.374 465.002C109.447 466.044 110.802 467.95 110.802 467.95Z" fill="#FBF7E9"/>
<path d="M254.622 458.516C247.05 454.128 237.024 444.954 237.024 444.954L231.562 451.44C231.562 451.912 235.709 453.537 237.024 454.388C238.844 455.568 240.166 455.923 241.878 456.747C244.166 457.847 245.598 458.724 247.947 459.695C250.582 460.784 252.015 461.133 254.622 462.054C259.497 463.776 267.365 465.591 267.365 465.591C267.365 465.591 259.504 461.344 254.622 458.516Z" fill="#2286C0"/>
<path d="M237.024 444.954C237.024 444.954 247.05 454.128 254.622 458.516C259.504 461.344 267.365 465.591 267.365 465.591C267.365 465.591 271.138 467.388 273.434 468.54C280.309 471.989 283.928 474.086 291.032 476.795C301.094 480.63 307.017 482.501 317.733 483.87C328.071 485.191 334.049 484.787 344.434 483.87C355.728 482.873 361.747 481.887 372.348 477.974C380.676 474.9 384.971 472.939 392.374 467.95C396.662 465.06 403.297 459.695 403.297 459.695C403.297 459.695 408.443 456.061 409.972 452.619C411.022 450.256 410.109 447.896 411.185 445.544C412.617 442.416 414.827 441.854 417.254 439.647C420.445 436.747 425.75 432.572 425.75 432.572C425.75 432.572 430.502 429.02 431.818 425.496C432.788 422.898 432.253 421.549 431.818 419.01C431.211 415.472 430.342 414.172 428.784 411.345C428.784 411.345 418.26 391.704 410.579 380.094C406.169 373.429 403.627 369.981 399.049 363.584C396.233 359.65 395.253 357.88 392.374 354.15C388.733 349.433 385.985 347.075 382.057 342.947C378.288 338.985 376.159 336.947 372.348 333.512C368.766 330.284 366.744 328.313 363.245 325.258C359.629 322.099 352.315 315.823 352.315 315.823L347.514 312.875L340.793 308.748L334.724 304.62H326.835L327.139 299.313L304.989 285.752L305.446 288.11L307.41 298.255L229.742 312.285H226.101L220.032 311.106L216.384 309.927L214.26 306.389L212.136 302.851L208.502 303.441H201.827L189.084 304.62C189.084 304.62 180.5 305.698 175.126 306.979C169.813 308.245 161.776 311.106 161.776 311.106L146.605 315.823L132.641 320.54C132.641 320.54 124.68 324.047 121.718 327.616C121.718 327.616 138.259 330.976 146.598 335.871C155.062 340.839 164.803 351.791 164.803 351.791C167.539 353.672 169.955 355.179 172.092 357.688C173.937 359.852 174.687 361.278 176.34 363.584C178.482 366.571 179.85 368.141 181.802 371.249C183.624 374.152 186.049 378.915 186.049 378.915L190.904 388.349L195.152 394.835L200.007 401.91C200.007 401.91 203.988 407.72 206.682 411.345L206.829 411.542C208.819 414.22 209.981 415.783 212.143 418.42C214.866 421.741 216.694 423.55 219.425 426.675C221.489 429.037 222.694 430.323 224.887 432.572C227.192 434.936 230.955 438.468 230.955 438.468C231.225 438.73 233.562 441.542 235.203 443.185L237.024 444.954Z" fill="#36A6DD"/>
<path d="M204.255 236.222L199.4 226.788L194.545 218.533L187.263 206.74L179.981 193.768L169.665 178.438L178.147 213.788L178.161 213.816H178.154C178.154 213.816 182.401 216.764 184.836 219.123C186.346 220.586 184.76 223.826 183.015 225.019L183.622 228.557L183.015 231.505L181.802 232.684L181.715 232.853L181.195 233.864V236.812V238.581V239.17L186.049 275.728L212.136 302.851L214.26 306.389L216.384 309.927L204.255 236.222Z" fill="#9D3129"/>
<path d="M220.032 311.106L226.101 312.285H229.742L217.605 235.043L204.255 236.222L216.384 309.927L220.032 311.106Z" fill="#BF3A2B"/>
<path d="M304.989 285.752L300.741 282.804L295.28 278.676L291.639 276.318L286.784 274.549L283.143 273.959L280.109 272.78L278.895 271.011L278.289 269.242L278.895 268.063L280.109 266.883H283.143L286.177 267.473L289.532 268.017L283.136 265.704C280.875 265.704 273.434 262.166 278.289 259.808C279.56 259.19 282.536 259.218 282.536 259.218H284.964C284.964 259.218 277.038 258.653 276.461 255.091C275.762 250.775 283.136 252.984 287.384 251.553C290.713 250.432 295.88 248.605 295.88 248.605C295.88 248.605 297.341 248.413 298.914 248.782L296.131 232.095L294.066 219.712L217.605 235.043L229.742 312.285L307.41 298.255L305.446 288.11L304.989 285.752Z" fill="#B2362D"/>
<path d="M255.836 214.817L229.135 219.712L212.75 223.84V223.25L179.981 173.72C179.981 173.72 175.92 173.389 173.906 174.31C171.891 175.231 169.665 178.438 169.665 178.438L179.981 193.768L187.263 206.74L194.545 218.533L199.4 226.788L204.255 236.222L217.605 235.043L294.066 219.712C294.066 219.712 290.102 215.428 286.784 213.816C283.466 212.204 277.075 211.457 277.075 211.457L273.427 212.047L261.897 213.816L257.649 214.518L255.836 214.817Z" fill="#FAE9C6"/>
<path d="M325.622 279.266C325.622 279.266 327.505 279.485 328.649 279.855L332.29 281.035C332.75 281.184 337.145 282.214 338.965 282.804C338.965 282.804 341.674 283.407 343.213 283.983C344.752 284.558 346.854 285.162 346.854 285.162C346.854 285.162 345.899 279.911 346.254 276.907C346.61 273.903 347.461 269.559 347.461 269.559C346.705 269.733 346.254 269.831 346.254 269.831C346.254 269.831 341.824 268.281 341.392 266.883C340.786 264.918 340.286 259.566 340.179 258.628C339.572 253.322 339.572 252.732 338.972 248.015C338.709 245.946 338.446 244.42 338.358 242.118C338.172 237.255 340.186 223.25 340.186 223.25L336.545 232.095L332.297 243.887L329.263 256.859L327.442 266.294L325.622 278.086V279.266Z" fill="#2286C0"/>
<path d="M372.348 260.987C372.348 260.987 373.18 260.343 373.562 259.808C373.863 259.384 374.029 259.125 374.169 258.628C374.487 257.496 374.489 256.81 374.162 255.68C373.959 254.979 372.955 253.911 372.955 253.911C372.955 253.911 374.62 252.787 375.375 252.142C376.266 251.383 377.203 250.373 377.203 250.373C377.203 250.373 381.03 246.365 382.664 243.298C383.94 240.904 384.446 239.433 385.092 236.812C386.416 231.437 386.536 228.006 385.092 222.66C384.309 219.765 383.696 218.12 382.057 215.585C380.362 212.961 378.998 211.725 376.596 209.688C374.02 207.505 372.396 206.406 369.314 204.971C366.179 203.512 360.818 202.392 360.818 202.392C360.818 202.392 357.28 203.344 355.35 204.382C355.1 204.516 354.876 204.634 354.67 204.743C353.783 205.214 353.226 205.508 352.322 206.151C350.632 207.353 349.789 208.317 348.542 209.744C348.393 209.915 348.238 210.093 348.075 210.278C346.195 212.415 345.316 213.765 343.827 216.174C342.19 218.823 340.186 223.25 340.186 223.25C340.186 223.25 338.172 237.255 338.358 242.118C338.446 244.42 338.709 245.946 338.972 248.015C339.572 252.732 339.572 253.322 340.179 258.628C340.286 259.566 340.786 264.918 341.392 266.883C341.824 268.281 346.254 269.831 346.254 269.831C346.254 269.831 346.705 269.733 347.461 269.559C349.938 268.989 355.693 267.617 359.597 266.294C364.693 264.567 372.348 260.987 372.348 260.987Z" fill="#36A6DD"/>
<path d="M336.545 198.485L329.263 194.947L320.767 188.461C320.767 188.461 319.733 191.237 318.333 193.178C316.887 195.183 315.323 196.812 313.485 198.485L313.471 198.498C310.743 200.982 309.055 202.519 305.589 203.792C302.148 205.056 295.88 204.971 295.88 204.971C295.88 204.971 288.821 204.98 286.777 203.792C285.189 202.869 284.454 202.504 283.743 200.844C283.279 199.759 283.254 199.065 283.136 197.896C283.021 196.75 283.143 196.127 283.143 194.947V190.82C283.143 190.82 281.923 193.187 280.709 194.358C279.868 195.169 278.281 196.127 278.281 196.127L276.468 197.109C276.468 197.109 274.736 200.519 274.034 203.202C273.201 206.385 273.427 212.047 273.427 212.047L277.075 211.457C277.075 211.457 283.466 212.204 286.784 213.816C290.102 215.428 294.066 219.712 294.066 219.712L296.131 232.095C296.131 232.095 308.726 231.309 315.305 227.378C321.572 223.633 324.49 218.853 327.703 213.59C328.014 213.08 328.329 212.566 328.649 212.047C332.29 206.151 336.545 198.485 336.545 198.485Z" fill="#36A6DD"/>
<path fill-rule="evenodd" clip-rule="evenodd" d="M298.914 248.782C299.321 248.878 299.736 249.011 300.135 249.194C301.506 249.825 303.769 250.963 303.769 250.963C305.798 252.084 309.837 253.322 309.837 253.322C310.83 253.912 311.342 254.332 312.218 255.052L312.264 255.091C313.099 255.777 313.635 256.333 314.236 256.956L314.237 256.958C314.557 257.289 314.895 257.639 315.305 258.039C315.722 258.443 316.083 258.777 316.424 259.093C317.054 259.677 317.617 260.198 318.34 260.987C319.349 262.088 319.905 262.722 320.767 263.935C320.827 264.02 320.886 264.102 320.942 264.181C321.624 265.138 322.063 265.753 322.588 266.883C323.297 268.411 323.518 269.357 323.801 271.011C323.896 271.565 324.01 272.409 324.117 273.195L324.117 273.197C324.237 274.083 324.346 274.896 324.408 275.138C324.989 277.421 325.203 278.047 325.583 279.154L325.622 279.266V278.086L327.442 266.294L329.263 256.859L332.297 243.887L336.545 232.095L340.186 223.25C340.186 223.25 342.19 218.823 343.827 216.174C345.316 213.765 346.195 212.415 348.075 210.278C348.238 210.093 348.393 209.915 348.542 209.744C349.789 208.317 350.632 207.353 352.322 206.151C353.226 205.508 353.783 205.214 354.67 204.743C354.876 204.634 355.1 204.516 355.35 204.382C357.28 203.344 360.818 202.392 360.818 202.392L345.647 199.665L336.545 198.485C336.545 198.485 332.29 206.151 328.649 212.047C328.329 212.566 328.014 213.08 327.703 213.59C324.49 218.853 321.572 223.633 315.305 227.378C308.726 231.309 296.131 232.095 296.131 232.095L298.914 248.782Z" fill="#FCF7E4"/>
<path d="M334.724 304.62L340.793 308.748L347.514 312.875C350.028 313.689 366.67 320.969 369.314 321.13C370.733 321.217 371.561 321.405 372.955 321.13C374.205 320.883 374.984 320.715 375.989 319.951C376.922 319.241 377.736 318.535 378.416 317.592C378.907 316.912 379.807 314.043 380.237 312.875C381.148 310.403 380.854 310.719 381.451 308.158C382.036 305.647 382.302 304.222 382.664 301.672C383.576 295.248 382.147 291.84 380.844 285.162C379.54 278.484 375.989 267.473 375.989 267.473C374.641 264.628 372.348 260.987 372.348 260.987C372.348 260.987 364.693 264.567 359.597 266.294C355.693 267.617 349.938 268.989 347.461 269.559C347.461 269.559 346.61 273.903 346.254 276.907C345.899 279.911 346.854 285.162 346.854 285.162C346.854 285.162 344.752 284.558 343.213 283.983C341.674 283.407 338.965 282.804 338.965 282.804C337.145 282.214 332.75 281.184 332.29 281.035L328.649 279.855C327.505 279.485 325.622 279.266 325.622 279.266L325.583 279.154C325.203 278.047 324.989 277.421 324.408 275.138C324.346 274.896 324.237 274.083 324.117 273.197L324.117 273.195C324.01 272.409 323.896 271.565 323.801 271.011C323.518 269.357 323.297 268.411 322.588 266.883C322.063 265.753 321.624 265.138 320.942 264.181L320.767 263.935C319.905 262.722 319.349 262.088 318.34 260.987C317.617 260.198 317.054 259.677 316.424 259.093C316.083 258.777 315.722 258.443 315.305 258.039C314.895 257.639 314.557 257.289 314.237 256.958L314.236 256.956C313.635 256.333 313.099 255.777 312.264 255.091L312.218 255.052C311.342 254.332 310.83 253.912 309.837 253.322C309.837 253.322 305.798 252.084 303.769 250.963C303.769 250.963 301.506 249.825 300.135 249.194C299.736 249.011 299.321 248.878 298.914 248.782C297.341 248.413 295.88 248.605 295.88 248.605C295.88 248.605 290.713 250.432 287.384 251.553C283.136 252.984 275.762 250.775 276.461 255.091C277.038 258.653 284.964 259.218 284.964 259.218H282.536C282.536 259.218 279.56 259.19 278.289 259.808C273.434 262.166 280.875 265.704 283.136 265.704L289.532 268.017L286.177 267.473L283.143 266.883H280.109L278.895 268.063L278.289 269.242L278.895 271.011L280.109 272.78L283.143 273.959L286.784 274.549L291.639 276.318L295.28 278.676L300.741 282.804L304.989 285.752L327.139 299.313L328.656 300.493L334.724 304.62Z" fill="#FDC5AA"/>
<path d="M183.015 225.019C184.76 223.826 186.346 220.586 184.836 219.123C182.401 216.764 178.154 213.816 178.154 213.816L178.147 213.788C177.843 213.169 172.588 202.613 167.844 202.613C166.624 202.613 165.198 203.244 164.203 204.971C163.209 206.698 163.597 211.457 163.597 211.457L164.309 212.979C164.309 212.979 163.612 215.694 163.59 217.354C163.567 219.014 164.203 220.892 164.203 220.892L165.417 222.071L167.837 223.84C167.837 223.84 168.237 226.011 168.444 227.378C168.444 227.378 170.512 231.736 172.692 233.864C175.39 236.497 181.195 238.581 181.195 238.581V236.812V233.864L181.715 232.853L181.802 232.684L183.015 231.505L183.622 228.557L183.015 225.019Z" fill="#FDC5AA"/>
<path d="M334.724 304.62L328.656 300.493L327.139 299.313L326.835 304.62H334.724Z" fill="#2286C0"/>
<path d="M325.622 154.852C325.622 154.852 324.269 152.828 325.015 151.904C325.618 151.157 326.649 150.76 327.442 151.314C328.051 151.739 326.941 152.362 326.835 153.083C326.693 154.05 326.229 154.852 326.229 154.852H325.622Z" fill="#D87454"/>
<path d="M318.373 153.647C318.858 153.176 322.385 149.545 323.801 147.776C324.937 146.357 326.048 145.731 327.442 144.828C328.324 144.257 328.425 144.404 329.263 144.239C330.22 144.049 330.859 144.236 331.762 144.516C332.575 144.769 333.017 145.33 333.51 146.007C333.51 146.007 333.791 147.141 333.51 147.776C333.246 148.375 332.297 148.956 332.297 148.956C331.627 148.956 331.669 148.093 331.083 147.776C330.047 147.217 329.772 147.389 328.656 147.776C327.851 148.056 326.948 148.508 326.228 148.956C325.065 149.68 324.338 149.971 323.194 150.725C322.214 151.371 321.981 151.904 320.8 152.468C319.849 152.922 318.373 153.647 318.373 153.647Z" fill="#D87454"/>
<path d="M286.177 69.3544C284.588 71.2953 283.75 75.2508 283.75 75.2508L287.998 67.5855C287.998 67.5855 286.803 68.5899 286.177 69.3544Z" fill="#F5BD43"/>
<path d="M267 161C262.518 160.36 259.5 162.5 259.5 162.5L291.5 166.695C291.5 166.695 283.763 162.39 279.5 162.5C277.318 162.557 273 163.5 273 163.5C273 163.5 270.5 161.5 267 161Z" fill="#FE7BAF" stroke="#FE7BAF" stroke-width="0.2"/>
<path d="M272 174C266.193 173.129 260 163 260 163L290 167C290 167 278.567 174.985 272 174Z" fill="#262424" stroke="#FE7BAF"/>
<path d="M262.021 164.571L261 163.592L289.577 166.999L288.088 167.53L262.021 164.571Z" fill="white" stroke="white" stroke-width="0.2"/>
<path d="M275 140C275 140 268.5 143.5 267 146.05C265.375 148.812 273.545 151 273.545 151" stroke="#D87454" stroke-linecap="round"/>
<path d="M272.5 169.5C269.5 169 266 170 266 170C266 170 269.035 173.503 272.5 173.998C276 174.498 280.5 172 280.5 172C280.5 172 275.5 170 272.5 169.5Z" fill="#FF6663"/>
<path d="M288 117.856C288 117.856 295.376 116.489 298.5 117.856C301.624 119.223 303.5 120.856 303.5 120.856" stroke="#E06A3A" stroke-linecap="round"/>
<path d="M261 115.754C261 115.754 265.376 114.387 268.5 115.754C271.624 117.121 272 118.657 272 118.657" stroke="#E06A3A" stroke-linecap="round"/>
<path d="M298.947 126.603L298.45 126.656L298.556 127.65L299.053 127.597L299 127.1L298.947 126.603ZM303.562 125.416C303.765 125.229 303.779 124.913 303.592 124.709C303.406 124.506 303.089 124.492 302.886 124.679L303.224 125.047L303.562 125.416ZM299 127.1C299.053 127.597 299.053 127.597 299.053 127.597C299.053 127.597 299.054 127.597 299.054 127.597C299.054 127.597 299.054 127.597 299.054 127.597C299.054 127.597 299.055 127.597 299.055 127.597C299.056 127.597 299.057 127.597 299.059 127.596C299.062 127.596 299.067 127.596 299.073 127.595C299.085 127.594 299.102 127.592 299.123 127.589C299.167 127.584 299.228 127.576 299.305 127.565C299.457 127.544 299.668 127.511 299.907 127.465C300.37 127.375 300.983 127.227 301.447 126.994L301.224 126.547L301 126.1C300.664 126.268 300.165 126.396 299.717 126.483C299.499 126.525 299.305 126.555 299.165 126.575C299.095 126.585 299.04 126.592 299.002 126.596C298.983 126.599 298.969 126.6 298.959 126.601C298.955 126.602 298.951 126.602 298.949 126.603C298.948 126.603 298.947 126.603 298.947 126.603C298.947 126.603 298.947 126.603 298.947 126.603C298.947 126.603 298.947 126.603 298.947 126.603C298.947 126.603 298.947 126.603 298.947 126.603C298.947 126.603 298.947 126.603 299 127.1ZM301.224 126.547L301.447 126.994C301.901 126.768 302.438 126.361 302.839 126.035C303.045 125.868 303.225 125.714 303.353 125.602C303.417 125.545 303.469 125.499 303.505 125.467C303.522 125.451 303.536 125.439 303.546 125.43C303.551 125.426 303.555 125.422 303.557 125.42C303.558 125.419 303.559 125.418 303.56 125.417C303.561 125.417 303.561 125.416 303.561 125.416C303.561 125.416 303.561 125.416 303.561 125.416C303.561 125.416 303.561 125.416 303.561 125.416C303.561 125.416 303.562 125.416 303.224 125.047C302.886 124.679 302.886 124.679 302.886 124.679C302.886 124.679 302.886 124.679 302.886 124.679C302.886 124.679 302.886 124.679 302.886 124.679C302.886 124.679 302.886 124.679 302.885 124.679C302.885 124.679 302.884 124.68 302.883 124.681C302.881 124.683 302.878 124.686 302.874 124.689C302.866 124.697 302.853 124.708 302.836 124.723C302.804 124.753 302.755 124.796 302.694 124.849C302.573 124.955 302.403 125.101 302.208 125.259C301.81 125.583 301.347 125.927 301 126.1L301.224 126.547Z" fill="black"/>
<path d="M299.136 127.238L298.646 127.138L298.445 128.118L298.935 128.218L299.035 127.728L299.136 127.238ZM303.858 127.505C304.108 127.388 304.216 127.091 304.099 126.84C303.982 126.59 303.685 126.482 303.435 126.599L303.646 127.052L303.858 127.505ZM299.035 127.728C298.935 128.218 298.935 128.218 298.935 128.218C298.935 128.218 298.935 128.218 298.935 128.218C298.935 128.218 298.935 128.218 298.935 128.218C298.936 128.218 298.936 128.218 298.936 128.218C298.937 128.219 298.939 128.219 298.94 128.219C298.944 128.22 298.948 128.221 298.954 128.222C298.966 128.224 298.982 128.228 299.004 128.232C299.046 128.24 299.107 128.251 299.182 128.264C299.333 128.289 299.543 128.322 299.783 128.35C300.248 128.405 300.873 128.45 301.383 128.369L301.305 127.875L301.227 127.382C300.86 127.44 300.35 127.411 299.9 127.357C299.681 127.332 299.489 127.301 299.351 127.278C299.282 127.266 299.227 127.256 299.19 127.249C299.171 127.246 299.157 127.243 299.148 127.241C299.143 127.24 299.14 127.239 299.138 127.239C299.137 127.239 299.136 127.239 299.136 127.239C299.136 127.238 299.135 127.238 299.135 127.238C299.135 127.238 299.135 127.238 299.135 127.238C299.135 127.238 299.136 127.238 299.136 127.238C299.136 127.238 299.136 127.238 299.035 127.728ZM301.305 127.875L301.383 128.369C301.881 128.29 302.512 128.066 302.989 127.877C303.234 127.78 303.45 127.687 303.605 127.619C303.683 127.585 303.745 127.557 303.789 127.537C303.811 127.527 303.828 127.519 303.839 127.514C303.845 127.511 303.85 127.509 303.853 127.508C303.854 127.507 303.856 127.506 303.857 127.506C303.857 127.506 303.857 127.506 303.858 127.505C303.858 127.505 303.858 127.505 303.858 127.505C303.858 127.505 303.858 127.505 303.858 127.505C303.858 127.505 303.858 127.505 303.646 127.052C303.435 126.599 303.435 126.599 303.435 126.599C303.435 126.599 303.435 126.599 303.435 126.599C303.435 126.599 303.435 126.599 303.435 126.599C303.435 126.599 303.434 126.599 303.434 126.6C303.434 126.6 303.433 126.6 303.432 126.601C303.429 126.602 303.425 126.604 303.42 126.606C303.41 126.611 303.395 126.618 303.375 126.627C303.335 126.645 303.276 126.671 303.203 126.704C303.056 126.768 302.851 126.855 302.621 126.947C302.146 127.135 301.606 127.322 301.227 127.382L301.305 127.875Z" fill="black"/>
<path d="M299.561 127.646L299.207 127.293L298.5 128.001L298.854 128.354L299.208 128L299.561 127.646ZM303.384 130.491C303.657 130.532 303.912 130.344 303.953 130.071C303.994 129.798 303.806 129.543 303.533 129.502L303.458 129.996L303.384 130.491ZM299.208 128C298.854 128.354 298.854 128.354 298.854 128.354C298.854 128.354 298.854 128.354 298.854 128.354C298.855 128.354 298.855 128.354 298.855 128.354C298.855 128.355 298.855 128.355 298.856 128.355C298.856 128.356 298.857 128.357 298.858 128.358C298.861 128.36 298.864 128.364 298.868 128.368C298.877 128.376 298.889 128.388 298.905 128.403C298.936 128.434 298.981 128.477 299.037 128.529C299.15 128.634 299.308 128.778 299.494 128.934C299.854 129.239 300.355 129.622 300.827 129.838L301.035 129.383L301.242 128.928C300.901 128.772 300.487 128.464 300.138 128.17C299.969 128.027 299.823 127.895 299.72 127.799C299.669 127.75 299.628 127.712 299.601 127.685C299.587 127.672 299.577 127.662 299.57 127.655C299.567 127.652 299.564 127.649 299.563 127.648C299.562 127.647 299.561 127.647 299.561 127.646C299.561 127.646 299.561 127.646 299.561 127.646C299.561 127.646 299.561 127.646 299.561 127.646C299.561 127.646 299.561 127.646 299.561 127.646C299.561 127.646 299.561 127.646 299.208 128ZM301.035 129.383L300.827 129.838C301.289 130.048 301.942 130.21 302.448 130.318C302.707 130.373 302.94 130.416 303.108 130.445C303.192 130.46 303.26 130.471 303.308 130.479C303.332 130.483 303.35 130.486 303.363 130.488C303.369 130.489 303.374 130.489 303.378 130.49C303.38 130.49 303.381 130.49 303.382 130.49C303.382 130.491 303.383 130.491 303.383 130.491C303.383 130.491 303.383 130.491 303.384 130.491C303.384 130.491 303.384 130.491 303.384 130.491C303.384 130.491 303.384 130.491 303.458 129.996C303.533 129.502 303.533 129.502 303.533 129.502C303.533 129.502 303.533 129.502 303.533 129.502C303.533 129.502 303.533 129.502 303.533 129.502C303.533 129.502 303.532 129.502 303.532 129.502C303.531 129.502 303.531 129.502 303.529 129.501C303.527 129.501 303.522 129.5 303.517 129.499C303.506 129.498 303.489 129.495 303.467 129.492C303.423 129.484 303.359 129.474 303.28 129.46C303.121 129.432 302.9 129.392 302.656 129.34C302.153 129.233 301.595 129.089 301.242 128.928L301.035 129.383Z" fill="black"/>
<path d="M286.959 128.502C286.959 128.502 290.157 126.195 292.5 126C294.843 125.805 298.959 127.502 298.959 127.502" stroke="black"/>
<path d="M259.915 123.751L260.413 123.708L260.5 124.704L260.002 124.748L259.958 124.25L259.915 123.751ZM255.193 123.472C254.958 123.327 254.885 123.019 255.03 122.784C255.175 122.549 255.483 122.476 255.718 122.621L255.455 123.047L255.193 123.472ZM259.958 124.25C260.002 124.748 260.002 124.748 260.002 124.748C260.001 124.748 260.001 124.748 260.001 124.748C260.001 124.748 260.001 124.748 260.001 124.748C260.001 124.748 260 124.748 260 124.748C259.999 124.748 259.997 124.748 259.996 124.748C259.992 124.748 259.988 124.749 259.982 124.749C259.97 124.75 259.953 124.752 259.932 124.753C259.888 124.756 259.827 124.76 259.75 124.764C259.598 124.773 259.385 124.781 259.144 124.781C258.675 124.782 258.049 124.755 257.552 124.616L257.686 124.134L257.821 123.653C258.178 123.752 258.688 123.782 259.142 123.781C259.362 123.781 259.557 123.773 259.697 123.766C259.766 123.762 259.822 123.758 259.86 123.756C259.879 123.754 259.893 123.753 259.902 123.752C259.907 123.752 259.91 123.752 259.912 123.752C259.913 123.752 259.914 123.751 259.915 123.751C259.915 123.751 259.915 123.751 259.915 123.751C259.915 123.751 259.915 123.751 259.915 123.751C259.915 123.751 259.915 123.751 259.915 123.751C259.915 123.751 259.915 123.751 259.958 124.25ZM257.686 124.134L257.552 124.616C257.066 124.48 256.466 124.184 256.014 123.941C255.782 123.817 255.577 123.7 255.431 123.615C255.358 123.572 255.299 123.537 255.258 123.512C255.238 123.5 255.222 123.49 255.211 123.483C255.205 123.48 255.201 123.477 255.198 123.475C255.196 123.474 255.195 123.474 255.194 123.473C255.194 123.473 255.194 123.473 255.193 123.473C255.193 123.473 255.193 123.472 255.193 123.472C255.193 123.472 255.193 123.472 255.193 123.472C255.193 123.472 255.193 123.472 255.455 123.047C255.718 122.621 255.718 122.621 255.718 122.621C255.718 122.621 255.718 122.621 255.718 122.621C255.718 122.621 255.718 122.621 255.718 122.621C255.718 122.621 255.718 122.621 255.718 122.622C255.719 122.622 255.72 122.622 255.721 122.623C255.723 122.624 255.727 122.627 255.731 122.629C255.741 122.635 255.755 122.644 255.774 122.655C255.812 122.678 255.867 122.711 255.936 122.752C256.075 122.833 256.268 122.943 256.487 123.06C256.936 123.302 257.451 123.549 257.821 123.653L257.686 124.134Z" fill="black"/>
<path d="M259.445 124.107L259.837 123.797L260.458 124.581L260.066 124.892L259.755 124.5L259.445 124.107ZM255.32 126.493C255.044 126.502 254.813 126.286 254.804 126.01C254.794 125.734 255.01 125.503 255.286 125.493L255.303 125.993L255.32 126.493ZM259.755 124.5C260.066 124.892 260.066 124.892 260.066 124.892C260.066 124.892 260.066 124.892 260.065 124.892C260.065 124.892 260.065 124.892 260.065 124.892C260.065 124.892 260.065 124.893 260.064 124.893C260.063 124.893 260.062 124.894 260.061 124.895C260.058 124.897 260.055 124.9 260.05 124.904C260.041 124.911 260.027 124.922 260.01 124.935C259.975 124.961 259.926 124.999 259.864 125.045C259.74 125.136 259.566 125.261 259.364 125.395C258.97 125.655 258.429 125.979 257.935 126.138L257.781 125.663L257.628 125.187C257.985 125.071 258.431 124.813 258.812 124.561C258.996 124.439 259.156 124.324 259.27 124.24C259.326 124.199 259.371 124.165 259.401 124.141C259.416 124.13 259.428 124.121 259.435 124.115C259.439 124.112 259.442 124.11 259.443 124.109C259.444 124.108 259.445 124.108 259.445 124.107C259.445 124.107 259.445 124.107 259.445 124.107C259.445 124.107 259.445 124.107 259.445 124.107C259.445 124.107 259.445 124.107 259.445 124.107C259.445 124.107 259.445 124.107 259.755 124.5ZM257.781 125.663L257.935 126.138C257.452 126.294 256.785 126.38 256.27 126.429C256.006 126.453 255.769 126.469 255.599 126.479C255.514 126.484 255.445 126.487 255.397 126.489C255.373 126.49 255.354 126.491 255.341 126.492C255.335 126.492 255.33 126.492 255.326 126.492C255.324 126.492 255.323 126.492 255.322 126.492C255.321 126.492 255.321 126.493 255.321 126.493C255.321 126.493 255.321 126.493 255.32 126.493C255.32 126.493 255.32 126.493 255.32 126.493C255.32 126.493 255.32 126.493 255.303 125.993C255.286 125.493 255.286 125.493 255.286 125.493C255.286 125.493 255.286 125.493 255.286 125.493C255.286 125.493 255.286 125.493 255.286 125.493C255.286 125.493 255.287 125.493 255.287 125.493C255.287 125.493 255.288 125.493 255.29 125.493C255.292 125.493 255.297 125.493 255.302 125.493C255.313 125.492 255.33 125.491 255.353 125.49C255.397 125.488 255.462 125.485 255.542 125.481C255.703 125.471 255.927 125.456 256.176 125.433C256.688 125.385 257.259 125.306 257.628 125.187L257.781 125.663Z" fill="black"/>
<path d="M271.865 126.409C271.865 126.409 268.954 123.749 266.649 123.286C264.344 122.822 260.06 124.033 260.06 124.033" stroke="black"/>
</svg>
