<svg width="665" height="699" viewBox="0 0 665 699" fill="none" xmlns="http://www.w3.org/2000/svg">
<path fill-rule="evenodd" clip-rule="evenodd" d="M41.8782 146.954C33.3972 151.763 38.3453 175.25 43.7226 191.566C47.5875 203.292 48.5524 207.929 52.9649 219.608C57.3774 231.288 60.2301 239.229 67.3467 250.479C76.2332 264.526 84.1388 272.3 95.5869 282.434C101.145 287.353 105.128 290.052 110.865 293.79C116.601 297.529 124.966 301.579 124.966 301.579C124.966 301.579 118.643 312.141 117.137 325.072C116.024 334.638 115.112 338.175 117.57 350.366C120.028 362.557 124.052 368.254 129.443 376.41C134.834 384.567 141.159 389.579 147.762 395.244C157.584 403.669 172.661 410.778 172.661 410.778C172.661 410.778 179.452 407.718 184.106 407.006C188.659 406.31 190.796 406.223 195.167 407.317C198.234 408.085 200.576 409.23 203.258 410.868C206.012 412.55 209.115 415.156 209.115 415.156C209.115 415.156 215.531 415.966 220.175 415.467C224.68 414.983 232.292 413.734 232.292 413.734L232.384 413.717C239.168 412.44 248.773 410.633 257.6 406.524C269.118 401.163 280.059 392.19 284.428 384.681C284.428 384.681 286.201 382.039 287.061 380.422C287.922 378.805 288.745 376.453 288.745 376.453C288.745 376.453 290.815 371.408 291.504 367.653C292.173 364.006 291.773 360.669 291.306 356.773L291.265 356.427C290.766 352.261 288.914 347.027 288.914 347.027L285.337 341.424L282.28 335.648C282.28 335.648 277.658 325.126 275.358 318.146C274.014 314.067 269.895 305.589 269.627 304.773C269.358 303.957 264.853 295.607 261.954 291.475C256.926 284.311 252.475 281.35 244.98 276.721C237.975 272.395 233.516 270.601 225.524 268.437C223.588 267.913 220.522 267.259 220.522 267.259C220.522 267.259 219.54 244.38 216.899 230.017C216.899 230.017 214.8 211.156 210.808 199.805C206.795 188.392 196.548 172.286 196.548 172.286C196.145 171.063 156.262 118.3 137.534 124.472C124.008 128.93 133.704 170.893 144.43 197.377C144.43 197.377 152.118 217.938 158.304 231.24C164.49 244.543 176.111 265.504 176.111 265.504C176.111 265.504 168.716 267.045 164.345 268.817C159.974 270.588 153.725 274.578 153.725 274.578C153.725 274.578 144.72 253.022 138.153 239.578C132.837 228.694 129.419 221.826 123.739 212.109C118.059 202.393 115.623 197.93 109.064 189.814C96.0815 173.752 86.4855 166.009 68.4168 155.73C58.9795 150.362 49.0237 142.903 41.8782 146.954ZM66.0419 226.038C54.5935 204.167 40.2029 161.637 52.792 164.836C60.6418 166.831 70.9908 178.057 70.9908 178.057C79.2198 185.94 92.6559 206.527 92.6559 206.527C92.6559 206.527 117.206 244.785 127.539 265.12C127.539 265.12 137.228 284.536 139.933 290.993C142.687 297.568 140.373 299.327 138.966 299.79C135.691 300.87 112.923 282.977 98.8068 268.937C91.8321 262.001 88.1628 257.846 82.0631 250.15C75.1352 241.409 71.205 235.901 66.0419 226.038Z" fill="#FBF7E9"/>
<path d="M154.693 428.005C144.528 442.66 139.691 450.669 133.41 466.673C126.311 484.758 123.62 496.466 122.234 515.011C122.329 519.501 122.809 527.256 125.466 538.816C126.548 543.526 132.457 559.816 135.076 564.476C136.135 566.359 137.222 567.502 139.19 568.207C141.035 568.869 144.728 567.513 144.728 567.513C144.728 567.513 143.334 564.717 144.271 563.141C146.072 560.109 148.762 558.912 152.106 557.167C155.712 555.285 157.957 554.674 161.822 553.4C164.424 552.542 169.274 551.509 172.731 551.5C176.189 551.491 178.606 551.825 180.472 553.471C180.472 553.471 183.442 553.349 183.257 551.423C182.785 546.491 180.84 539.176 180.68 533.619C180.544 528.902 181.699 525.565 183.027 520.975C184.834 514.727 186.812 506.727 186.812 506.727L199.308 481.13C199.308 481.13 209.392 503.493 216.089 516.296C222.786 529.099 233.607 546.699 233.607 546.699C233.607 546.699 240.541 559.059 245.867 566.398C250.082 572.208 257.165 580.197 257.165 580.197C257.165 580.197 258.679 581.08 260.254 582.57C263.463 585.608 266.495 589.619 269.468 592.511C276.417 599.27 285.57 608.118 289.211 606.918C294.414 605.203 298.471 596.589 303.393 588.701C305.857 584.754 307.205 581.492 309.028 577.8C310.852 574.109 312.566 569.286 312.566 569.286C312.566 569.286 317.746 551.752 314.666 530.158C313.857 524.489 313.441 521.149 312.21 515.706C310.978 510.262 308.193 501.768 308.193 501.768C303.976 490.722 301.287 482.565 293.092 471.7L264.321 461.399C250.371 455.822 243.134 456.963 242.584 456.693C242.033 456.422 242.8 452.099 242.112 451.761C241.913 451.663 240.068 451.355 237.278 451.093L237.145 451.081C234.01 450.787 229.859 450.397 227.626 448.056C223.702 443.943 225.37 439.716 223.089 434.29C220.665 428.524 217.891 424.541 213.718 419.856C212.154 418.1 209.115 415.156 209.115 415.156C209.115 415.156 206.012 412.55 203.258 410.868C200.576 409.23 198.234 408.085 195.167 407.317C190.796 406.223 188.659 406.31 184.106 407.006C179.452 407.718 172.661 410.778 172.661 410.778C172.661 410.778 166.722 414.575 163.433 417.776C159.662 421.447 157.682 423.696 154.693 428.005Z" fill="#B2362D"/>
<path d="M146.416 590.131C146.906 594.579 143.086 603.344 148.335 606.456C154.522 610.124 162.11 594.003 162.11 594.003C162.11 594.003 157.188 614.157 165.71 615.426C173.16 616.535 177.315 596.905 177.315 596.905C177.315 596.905 179.474 613.291 185.078 614.695C192.263 616.496 192.104 605.031 191.986 597.157C191.927 593.219 187.514 576.586 187.514 576.586C187.514 576.586 199.632 577.489 200.519 572.3C201.227 568.165 194.205 563.641 194.205 563.641L180.472 553.471C178.606 551.825 176.189 551.491 172.731 551.5C169.274 551.509 164.424 552.542 161.822 553.4C157.957 554.674 155.712 555.285 152.106 557.167C148.762 558.912 146.072 560.109 144.271 563.141C143.334 564.717 144.728 567.513 144.728 567.513C144.728 567.513 145.174 575.055 145.67 579.637C146.167 584.22 145.925 585.684 146.416 590.131Z" fill="#FDF8E6"/>
<path d="M232.292 413.734C230.9 423.82 246.937 437.17 252.308 435.965C252.308 435.965 255.106 435.707 257.51 434.251C259.122 433.274 261.841 431.127 261.841 431.127C261.841 431.127 265.108 428.642 267.26 424.819C269.2 421.374 270.199 417.068 270.446 416.987C272.322 416.368 275.355 416.729 277.729 414.586C279.411 413.068 280.194 409.817 281.067 408.964C281.067 408.964 289.022 408.603 294.04 408.08C303.685 407.074 304.461 402.95 304.461 402.95C305.293 400.689 302.811 396.711 302.811 396.711C301.098 395.014 297.843 392.217 295.074 390.217C291.494 387.631 287.203 385.526 284.428 384.681C280.059 392.19 269.118 401.163 257.6 406.524C248.773 410.633 239.168 412.44 232.384 413.717L232.292 413.734Z" fill="#36A6DD"/>
<path d="M209.115 415.156C209.115 415.156 212.154 418.1 213.718 419.856C217.891 424.541 220.665 428.524 223.089 434.29C225.37 439.716 223.702 443.943 227.626 448.056C229.859 450.397 234.01 450.787 237.145 451.081L237.278 451.093C240.068 451.355 241.913 451.663 242.112 451.761C242.8 452.099 242.033 456.422 242.584 456.693C243.134 456.963 250.371 455.822 264.321 461.399L293.092 471.7L276.887 448.778L261.841 431.127C261.841 431.127 259.122 433.274 257.51 434.251C255.106 435.707 252.308 435.965 252.308 435.965C246.937 437.17 230.9 423.82 232.292 413.734C232.292 413.734 224.68 414.983 220.175 415.467C215.531 415.966 209.115 415.156 209.115 415.156Z" fill="#982A21"/>
<path d="M276.887 448.778L293.092 471.7C301.287 482.565 303.976 490.722 308.193 501.768C308.193 501.768 357.598 487.18 361.792 482.407C363.59 480.36 362.497 473.752 361.601 466.078C360.797 459.187 359.193 452.412 360.185 451.283C361.668 449.595 367.453 450.583 373.159 450.398C379.046 450.207 386.837 448.151 386.837 448.151C386.837 448.151 390.562 442.515 390.911 437.765C391.379 431.393 388.927 428.244 386.526 426.209C381.554 421.995 372.425 418.422 372.425 418.422C372.425 418.422 349.252 408.523 335.394 404.06C321.535 399.597 302.811 396.711 302.811 396.711C302.811 396.711 305.293 400.689 304.461 402.95C304.461 402.95 303.685 407.074 294.04 408.08C289.022 408.603 281.067 408.964 281.067 408.964C280.194 409.817 279.411 413.068 277.729 414.586C275.355 416.729 272.322 416.368 270.446 416.987C270.199 417.068 269.2 421.374 267.26 424.819C265.108 428.642 261.841 431.127 261.841 431.127L276.887 448.778Z" fill="#F5BD43"/>
<path d="M372.425 418.422L384.15 403.252C384.15 403.252 363.703 390.208 354.235 385.98C345.269 381.976 339.597 380.065 339.597 380.065C339.597 380.065 325.183 376.915 315.779 376.044C305.439 375.087 289.16 375.774 289.16 375.774L288.745 376.453C288.745 376.453 287.922 378.805 287.061 380.422C286.201 382.039 284.428 384.681 284.428 384.681C287.203 385.526 291.494 387.631 295.074 390.217C297.843 392.217 301.098 395.014 302.811 396.711C302.811 396.711 321.535 399.597 335.394 404.06C349.252 408.523 372.425 418.422 372.425 418.422Z" fill="#982A21"/>
<path d="M339.597 380.065C339.757 377.751 346.673 363.036 349.332 337.855C350.857 323.404 352.373 310.851 352.103 300.766C352.089 300.228 348.45 299.482 347.605 301.118L346.196 302.091C346.196 302.091 340.843 304.105 337.735 304.936C332.511 306.333 330.848 306.321 324.762 305.82C319.051 305.35 313.213 302.278 313.213 302.278C313.213 302.278 310.549 298.846 309.1 298.547C307.65 298.248 306.3 300.035 306.3 300.035C306.3 300.035 302.211 307.95 299.975 312.859C296.995 319.4 295.04 322.586 292.731 329.377C290.446 336.098 288.914 347.027 288.914 347.027C288.914 347.027 290.766 352.261 291.265 356.427L291.306 356.773C291.773 360.669 292.173 364.006 291.504 367.653C290.815 371.408 288.745 376.453 288.745 376.453L289.16 375.774C289.16 375.774 305.439 375.087 315.779 376.044C325.183 376.915 339.597 380.065 339.597 380.065Z" fill="#B2362D"/>
<path d="M324.762 305.82C330.848 306.321 332.511 306.333 337.735 304.936C340.843 304.105 346.196 302.091 346.196 302.091C346.196 302.091 352.411 281.77 359.308 270.129C361.359 266.666 362.921 264.658 364.941 261.489C367.222 257.911 368.257 254.941 365.894 252.131C361.68 247.121 348.528 258.42 348.528 258.42C348.528 258.42 358.606 234.75 349.978 233.071C341.736 231.468 330.081 253.195 330.081 253.195C330.081 253.195 338.614 228.338 330.705 225.858C325.621 224.263 322.901 228.43 320.07 233.32C317.124 238.406 316.101 242.685 314.585 248.693C313.154 254.362 312.543 263.497 312.543 263.497C312.543 263.497 298.089 256.391 293.009 261.457C288.55 265.902 300.849 275.265 300.849 275.265C300.849 275.265 302.962 281.251 305.419 285.629C307.875 290.007 312.559 296.276 312.559 296.276L313.213 302.278C313.213 302.278 319.051 305.35 324.762 305.82Z" fill="#FCF7E7"/>
<path d="M494.906 445.318C505.143 441.54 516.219 439.989 520.918 436.745C523.737 434.799 524.52 421.427 524.52 421.427C524.52 421.427 524.689 416.357 524.769 413.431C525.023 404.108 524.975 398.274 522.577 389.283C520.897 382.983 517.536 373.987 517.536 373.987C517.536 373.987 515.807 369.018 513.271 368.045C509.309 366.524 503.984 363.923 497.592 362.472C484.106 359.412 476.052 359.567 462.178 360.013C452.338 360.33 448.516 360.559 438.648 362.116C438.648 362.116 434.318 362.978 431.196 364.006C428.544 364.881 424.5 366.154 421.48 367.774C413.793 371.897 410.764 375.466 404.064 381.427C395.486 389.06 384.15 403.252 384.15 403.252L372.425 418.422C372.425 418.422 381.554 421.995 386.526 426.209C388.927 428.244 391.379 431.393 390.911 437.765C390.562 442.515 386.837 448.151 386.837 448.151C386.837 448.151 390.886 458.687 394.695 457.997C401.161 456.825 415.928 449.79 430.071 446.338C438.27 444.336 444.784 442.893 451.368 442.71C457.952 442.527 460.492 442.834 465.87 444.713C470.697 446.4 477.218 451.147 477.218 451.147C477.218 451.147 482.005 449.69 485.022 448.576C488.634 447.241 494.392 445.508 494.906 445.318Z" fill="#36A6DD"/>
<path d="M549.427 420.001C549.427 420.001 557.502 425.253 564.048 427.617C568.24 429.131 572.492 430.487 578.902 428.939C580.18 428.631 584.874 426.058 589.268 411.392C592.838 399.476 594.018 393.072 595.432 381.098C596.9 368.674 597.122 361.581 596.427 349.117C595.598 334.265 591.562 315.11 589.866 311.712C588.169 308.314 584.537 304.893 581.119 304.421C573.868 303.419 566.822 308.769 563.047 314.333C557.612 322.342 552.937 341.406 552.937 341.406C552.937 341.406 551.386 347.323 550.775 350.597C550.152 353.942 550.175 359.273 550.175 359.273C550.175 359.273 553.258 371.895 554.479 379.334C555.623 386.305 556.274 390.442 555.342 397.702C554.694 402.75 553.885 405.531 552.628 410.467C551.702 414.105 549.427 420.001 549.427 420.001Z" fill="#111110"/>
<path d="M522.577 389.283C524.975 398.274 525.023 404.108 524.769 413.431C524.689 416.357 524.52 421.427 524.52 421.427C525.214 421.198 541.298 420.419 549.427 420.001C549.427 420.001 551.702 414.105 552.628 410.467C553.885 405.531 554.694 402.75 555.342 397.702C556.274 390.442 555.623 386.305 554.479 379.334C553.258 371.895 550.175 359.273 550.175 359.273C547.957 358.479 544.504 373.718 536.368 375.129C528.231 376.539 517.624 374.195 517.536 373.987C517.536 373.987 520.897 382.983 522.577 389.283Z" fill="#FDF8E6"/>
<path d="M312.566 569.286C312.566 569.286 317.84 571.834 321.346 573.175C328.491 575.909 332.39 576.664 339.992 577.769C348.061 578.943 361.226 578.685 361.226 578.685C361.226 578.685 373.664 577.646 381.483 575.4C389.302 573.154 393.893 571.126 401.268 567.183C412.834 561 419.065 556.348 428.768 547.38C432.48 543.95 438.533 538.509 438.533 538.509C438.533 538.509 446.471 544.038 452.282 546.979C458.094 549.919 463.406 551.702 469.673 554.248C476.92 557.191 481.894 559.829 486.896 561.007C490.022 561.743 492.386 558.066 492.803 557.929C493.219 557.792 499.506 552.736 503.516 547.193C505.38 544.616 513.621 531.85 516.871 517.213C516.871 517.213 518.274 510.399 518.36 505.982C518.428 502.518 518.373 498.065 517.753 497.139C514.344 492.045 511.699 489.106 507.677 484.067C500.909 475.589 497.375 470.57 489.727 462.852C484.82 457.9 477.218 451.147 477.218 451.147C477.218 451.147 470.697 446.4 465.87 444.713C460.492 442.834 457.952 442.527 451.368 442.71C444.784 442.893 438.27 444.336 430.071 446.338C415.928 449.79 401.161 456.825 394.695 457.997C390.886 458.687 386.837 448.151 386.837 448.151C386.837 448.151 379.046 450.207 373.159 450.398C367.453 450.583 361.668 449.595 360.185 451.283C359.193 452.412 360.797 459.187 361.601 466.078C362.497 473.752 363.59 480.36 361.792 482.407C357.598 487.18 308.193 501.768 308.193 501.768C308.193 501.768 310.978 510.262 312.21 515.706C313.441 521.149 313.857 524.489 314.666 530.158C317.746 551.752 312.566 569.286 312.566 569.286Z" fill="#36A6DD"/>
<path d="M500.894 561.48C500.894 561.48 507.712 571.669 513.052 576.126C517.322 579.69 520.485 581.802 526.111 581.997C529.55 582.116 534.771 580.273 534.771 580.273C534.771 580.273 543.032 575.054 557.237 562.694C560.375 559.964 570.529 550.097 577.839 541.208C582.791 535.187 588.132 528.208 592.383 520.588C599.458 507.903 601.539 502.874 604.205 495.212C606.465 488.718 604.686 480.922 601.949 477.868C597.648 473.068 588.135 476.203 586.575 476.717C582.136 478.18 573.649 483.402 565.013 490.041C558.466 495.074 551.255 500.793 546.372 505.229L528.94 520.583C528.94 520.583 528.498 531.353 524.097 539.137C520.59 545.339 517.726 548.86 512.891 554.135C509.922 557.374 500.894 561.48 500.894 561.48Z" fill="#111110"/>
<path d="M52.792 164.836C40.2029 161.637 54.5935 204.167 66.0419 226.038C71.205 235.901 75.1352 241.409 82.0631 250.15C88.1628 257.846 91.8321 262.001 98.8068 268.937C112.923 282.977 135.691 300.87 138.966 299.79C140.373 299.327 142.687 297.568 139.933 290.993C137.228 284.536 127.539 265.12 127.539 265.12C117.206 244.785 92.6559 206.527 92.6559 206.527C92.6559 206.527 79.2198 185.94 70.9908 178.057C70.9908 178.057 60.6418 166.831 52.792 164.836Z" fill="#FBC4A4"/>
<path d="M503.516 547.193C499.506 552.736 493.219 557.792 492.803 557.929C493.635 557.655 498.544 560.182 500.894 561.48C500.894 561.48 509.922 557.374 512.891 554.135C517.726 548.86 520.59 545.339 524.097 539.137C528.498 531.353 528.94 520.583 528.94 520.583L516.871 517.213C513.621 531.85 505.38 544.616 503.516 547.193Z" fill="#FDF8E6"/>
<path d="M186.812 506.727C186.812 506.727 193.936 520.297 197.527 525.24C206.141 537.098 205.23 535.855 212.388 544.083C219.426 552.172 223.574 556.701 231.717 563.714C239.96 570.812 251.659 577.489 255.1 579.181L257.165 580.197C257.165 580.197 250.082 572.208 245.867 566.398C240.541 559.059 233.607 546.699 233.607 546.699C233.607 546.699 222.786 529.099 216.089 516.296C209.392 503.493 199.308 481.13 199.308 481.13L186.812 506.727Z" fill="#982B21"/>
<path d="M172.661 410.778C172.661 410.778 157.584 403.669 147.762 395.244C141.159 389.579 134.834 384.567 129.443 376.41C124.052 368.254 120.028 362.557 117.57 350.366C115.112 338.175 116.024 334.638 117.137 325.072C118.643 312.141 124.966 301.579 124.966 301.579C124.966 301.579 116.601 297.529 110.865 293.79C105.128 290.052 101.145 287.353 95.5869 282.434C84.1388 272.3 76.2332 264.526 67.3467 250.479C60.2301 239.229 57.3774 231.288 52.9649 219.608C48.5524 207.929 47.5875 203.292 43.7226 191.566C38.3453 175.25 33.3972 151.763 41.8782 146.954C49.0237 142.903 58.9795 150.362 68.4168 155.73C86.4855 166.009 96.0815 173.752 109.064 189.814C115.623 197.93 118.059 202.393 123.739 212.109C129.419 221.826 132.837 228.694 138.153 239.578C144.72 253.022 153.725 274.578 153.725 274.578C153.725 274.578 159.974 270.588 164.345 268.817C168.716 267.045 176.111 265.504 176.111 265.504C176.111 265.504 164.49 244.543 158.304 231.24C152.118 217.938 144.43 197.377 144.43 197.377C133.704 170.893 124.008 128.93 137.534 124.472C156.262 118.3 196.145 171.063 196.548 172.286C196.548 172.286 206.795 188.392 210.808 199.805C214.8 211.156 216.899 230.017 216.899 230.017C219.54 244.38 220.522 267.259 220.522 267.259C220.522 267.259 223.588 267.913 225.524 268.437C233.516 270.601 237.975 272.395 244.98 276.721C252.475 281.35 256.926 284.311 261.954 291.475C264.853 295.607 269.358 303.957 269.627 304.773C269.895 305.589 274.014 314.067 275.358 318.146C277.658 325.126 282.28 335.648 282.28 335.648L285.337 341.424L288.914 347.027M172.661 410.778C172.661 410.778 179.452 407.718 184.106 407.006C188.659 406.31 190.796 406.223 195.167 407.317C198.234 408.085 200.576 409.23 203.258 410.868C206.012 412.55 209.115 415.156 209.115 415.156M172.661 410.778C172.661 410.778 166.722 414.575 163.433 417.776C159.662 421.447 157.682 423.696 154.693 428.005C144.528 442.66 139.691 450.669 133.41 466.673C126.311 484.758 123.62 496.466 122.234 515.011C122.329 519.501 122.809 527.256 125.466 538.816C126.548 543.526 132.457 559.816 135.076 564.476C136.135 566.359 137.222 567.502 139.19 568.207C141.035 568.869 144.728 567.513 144.728 567.513M180.472 553.471L194.205 563.641C194.205 563.641 201.227 568.165 200.519 572.3C199.632 577.489 187.514 576.586 187.514 576.586C187.514 576.586 191.927 593.219 191.986 597.157C192.104 605.031 192.263 616.496 185.078 614.695C179.474 613.291 177.315 596.905 177.315 596.905C177.315 596.905 173.16 616.535 165.71 615.426C157.188 614.157 162.11 594.003 162.11 594.003C162.11 594.003 154.522 610.124 148.335 606.456C143.086 603.344 146.906 594.579 146.416 590.131C145.925 585.684 146.167 584.22 145.67 579.637C145.174 575.055 144.728 567.513 144.728 567.513M180.472 553.471C178.606 551.825 176.189 551.491 172.731 551.5C169.274 551.509 164.424 552.542 161.822 553.4C157.957 554.674 155.712 555.285 152.106 557.167C148.762 558.912 146.072 560.109 144.271 563.141C143.334 564.717 144.728 567.513 144.728 567.513M180.472 553.471C180.472 553.471 183.442 553.349 183.257 551.423C182.785 546.491 180.84 539.176 180.68 533.619C180.544 528.902 181.699 525.565 183.027 520.975C184.834 514.727 186.812 506.727 186.812 506.727M186.812 506.727C186.812 506.727 193.936 520.297 197.527 525.24C206.141 537.098 205.23 535.855 212.388 544.083C219.426 552.172 223.574 556.701 231.717 563.714C239.96 570.812 251.659 577.489 255.1 579.181M186.812 506.727L199.308 481.13C199.308 481.13 209.392 503.493 216.089 516.296C222.786 529.099 233.607 546.699 233.607 546.699C233.607 546.699 240.541 559.059 245.867 566.398C250.082 572.208 257.165 580.197 257.165 580.197M255.1 579.181C256.208 579.726 257.165 580.197 257.165 580.197M255.1 579.181L257.165 580.197M257.165 580.197C257.165 580.197 258.679 581.08 260.254 582.57C263.463 585.608 266.495 589.619 269.468 592.511C276.417 599.27 285.57 608.118 289.211 606.918C294.414 605.203 298.471 596.589 303.393 588.701C305.857 584.754 307.205 581.492 309.028 577.8C310.852 574.109 312.566 569.286 312.566 569.286M312.566 569.286C312.566 569.286 317.84 571.834 321.346 573.175C328.491 575.909 332.39 576.664 339.992 577.769C348.061 578.943 361.226 578.685 361.226 578.685C361.226 578.685 373.664 577.646 381.483 575.4C389.302 573.154 393.893 571.126 401.268 567.183C412.834 561 419.065 556.348 428.768 547.38C432.48 543.95 438.533 538.509 438.533 538.509C438.533 538.509 446.471 544.038 452.282 546.979C458.094 549.919 463.406 551.702 469.673 554.248C476.92 557.191 481.894 559.829 486.896 561.007C490.022 561.743 492.386 558.066 492.803 557.929M312.566 569.286C312.566 569.286 317.746 551.752 314.666 530.158C313.857 524.489 313.441 521.149 312.21 515.706C310.978 510.262 308.193 501.768 308.193 501.768M492.803 557.929C493.219 557.792 499.506 552.736 503.516 547.193C505.38 544.616 513.621 531.85 516.871 517.213M492.803 557.929C493.635 557.655 498.544 560.182 500.894 561.48M516.871 517.213C516.871 517.213 518.274 510.399 518.36 505.982C518.428 502.518 518.373 498.065 517.753 497.139C514.344 492.045 511.699 489.106 507.677 484.067C500.909 475.589 497.375 470.57 489.727 462.852C484.82 457.9 477.218 451.147 477.218 451.147M516.871 517.213L528.94 520.583M477.218 451.147C477.218 451.147 470.697 446.4 465.87 444.713C460.492 442.834 457.952 442.527 451.368 442.71C444.784 442.893 438.27 444.336 430.071 446.338C415.928 449.79 401.161 456.825 394.695 457.997C390.886 458.687 386.837 448.151 386.837 448.151M477.218 451.147C477.218 451.147 482.005 449.69 485.022 448.576C488.634 447.241 494.392 445.508 494.906 445.318C505.143 441.54 516.219 439.989 520.918 436.745C523.737 434.799 524.52 421.427 524.52 421.427M384.15 403.252C384.15 403.252 395.486 389.06 404.064 381.427C410.764 375.466 413.793 371.897 421.48 367.774C424.5 366.154 428.544 364.881 431.196 364.006C434.318 362.978 438.648 362.116 438.648 362.116C448.516 360.559 452.338 360.33 462.178 360.013C476.052 359.567 484.106 359.412 497.592 362.472C503.984 363.923 509.309 366.524 513.271 368.045C515.807 369.018 517.536 373.987 517.536 373.987M384.15 403.252L372.425 418.422M384.15 403.252C384.15 403.252 363.703 390.208 354.235 385.98C345.269 381.976 339.597 380.065 339.597 380.065M339.597 380.065C339.757 377.751 346.673 363.036 349.332 337.855C350.857 323.404 352.373 310.851 352.103 300.766C352.089 300.228 348.45 299.482 347.605 301.118L346.196 302.091M339.597 380.065C339.597 380.065 325.183 376.915 315.779 376.044C305.439 375.087 289.16 375.774 289.16 375.774L288.745 376.453M288.914 347.027C288.914 347.027 290.446 336.098 292.731 329.377C295.04 322.586 296.995 319.4 299.975 312.859C302.211 307.95 306.3 300.035 306.3 300.035C306.3 300.035 307.65 298.248 309.1 298.547C310.549 298.846 313.213 302.278 313.213 302.278M288.914 347.027C288.914 347.027 290.766 352.261 291.265 356.427M209.115 415.156C209.115 415.156 212.154 418.1 213.718 419.856C217.891 424.541 220.665 428.524 223.089 434.29C225.37 439.716 223.702 443.943 227.626 448.056C229.859 450.397 234.01 450.787 237.145 451.081M209.115 415.156C209.115 415.156 215.531 415.966 220.175 415.467C224.68 414.983 232.292 413.734 232.292 413.734M293.092 471.7L264.321 461.399C250.371 455.822 243.134 456.963 242.584 456.693C242.033 456.422 242.8 452.099 242.112 451.761C241.913 451.663 240.068 451.355 237.278 451.093M293.092 471.7L276.887 448.778L261.841 431.127M293.092 471.7C301.287 482.565 303.976 490.722 308.193 501.768M261.841 431.127C261.841 431.127 265.108 428.642 267.26 424.819C269.2 421.374 270.199 417.068 270.446 416.987C272.322 416.368 275.355 416.729 277.729 414.586C279.411 413.068 280.194 409.817 281.067 408.964C281.067 408.964 289.022 408.603 294.04 408.08C303.685 407.074 304.461 402.95 304.461 402.95C305.293 400.689 302.811 396.711 302.811 396.711M261.841 431.127C261.841 431.127 259.122 433.274 257.51 434.251C255.106 435.707 252.308 435.965 252.308 435.965C246.937 437.17 230.9 423.82 232.292 413.734M232.292 413.734L232.384 413.717M232.292 413.734C232.323 413.729 232.354 413.723 232.384 413.717M284.428 384.681C287.203 385.526 291.494 387.631 295.074 390.217C297.843 392.217 301.098 395.014 302.811 396.711M284.428 384.681C284.428 384.681 286.201 382.039 287.061 380.422C287.922 378.805 288.745 376.453 288.745 376.453M284.428 384.681C280.059 392.19 269.118 401.163 257.6 406.524C248.773 410.633 239.168 412.44 232.384 413.717M308.193 501.768C308.193 501.768 357.598 487.18 361.792 482.407C363.59 480.36 362.497 473.752 361.601 466.078C360.797 459.187 359.193 452.412 360.185 451.283C361.668 449.595 367.453 450.583 373.159 450.398C379.046 450.207 386.837 448.151 386.837 448.151M302.811 396.711C302.811 396.711 321.535 399.597 335.394 404.06C349.252 408.523 372.425 418.422 372.425 418.422M386.837 448.151C386.837 448.151 390.562 442.515 390.911 437.765C391.379 431.393 388.927 428.244 386.526 426.209C381.554 421.995 372.425 418.422 372.425 418.422M291.265 356.427L291.306 356.773M291.265 356.427C291.278 356.543 291.292 356.658 291.306 356.773M288.745 376.453C288.745 376.453 290.815 371.408 291.504 367.653C292.173 364.006 291.773 360.669 291.306 356.773M313.213 302.278C313.213 302.278 319.051 305.35 324.762 305.82C330.848 306.321 332.511 306.333 337.735 304.936C340.843 304.105 346.196 302.091 346.196 302.091M313.213 302.278L312.559 296.276C312.559 296.276 307.875 290.007 305.419 285.629C302.962 281.251 300.849 275.265 300.849 275.265C300.849 275.265 288.55 265.902 293.009 261.457C298.089 256.391 312.543 263.497 312.543 263.497C312.543 263.497 313.154 254.362 314.585 248.693C316.101 242.685 317.124 238.406 320.07 233.32C322.901 228.43 325.621 224.263 330.705 225.858C338.614 228.338 330.081 253.195 330.081 253.195C330.081 253.195 341.736 231.468 349.978 233.071C358.606 234.75 348.528 258.42 348.528 258.42C348.528 258.42 361.68 247.121 365.894 252.131C368.257 254.941 367.222 257.911 364.941 261.489C362.921 264.658 361.359 266.666 359.308 270.129C352.411 281.77 346.196 302.091 346.196 302.091M524.52 421.427C524.52 421.427 524.689 416.357 524.769 413.431C525.023 404.108 524.975 398.274 522.577 389.283C520.897 382.983 517.536 373.987 517.536 373.987M524.52 421.427C525.214 421.198 541.298 420.419 549.427 420.001M549.427 420.001C549.427 420.001 557.502 425.253 564.048 427.617C568.24 429.131 572.492 430.487 578.902 428.939C580.18 428.631 584.874 426.058 589.268 411.392C592.838 399.476 594.018 393.072 595.432 381.098C596.9 368.674 597.122 361.581 596.427 349.117C595.598 334.265 591.562 315.11 589.866 311.712C588.169 308.314 584.537 304.893 581.119 304.421C573.868 303.419 566.822 308.769 563.047 314.333C557.612 322.342 552.937 341.406 552.937 341.406C552.937 341.406 551.386 347.323 550.775 350.597C550.152 353.942 550.175 359.273 550.175 359.273M549.427 420.001C549.427 420.001 551.702 414.105 552.628 410.467C553.885 405.531 554.694 402.75 555.342 397.702C556.274 390.442 555.623 386.305 554.479 379.334C553.258 371.895 550.175 359.273 550.175 359.273M550.175 359.273C547.957 358.479 544.504 373.718 536.368 375.129C528.231 376.539 517.624 374.195 517.536 373.987M500.894 561.48C500.894 561.48 507.712 571.669 513.052 576.126C517.322 579.69 520.485 581.802 526.111 581.997C529.55 582.116 534.771 580.273 534.771 580.273C534.771 580.273 543.032 575.054 557.237 562.694C560.375 559.964 570.529 550.097 577.839 541.208C582.791 535.187 588.132 528.208 592.383 520.588C599.458 507.903 601.539 502.874 604.205 495.212C606.465 488.718 604.686 480.922 601.949 477.868C597.648 473.068 588.135 476.203 586.575 476.717C582.136 478.18 573.649 483.402 565.013 490.041C558.466 495.074 551.255 500.793 546.372 505.229L528.94 520.583M500.894 561.48C500.894 561.48 509.922 557.374 512.891 554.135C517.726 548.86 520.59 545.339 524.097 539.137C528.498 531.353 528.94 520.583 528.94 520.583M237.278 451.093L237.145 451.081M237.278 451.093C237.234 451.089 237.189 451.085 237.145 451.081M52.792 164.836C40.2029 161.637 54.5935 204.167 66.0419 226.038C71.205 235.901 75.1352 241.409 82.0631 250.15C88.1628 257.846 91.8321 262.001 98.8068 268.937C112.923 282.977 135.691 300.87 138.966 299.79C140.373 299.327 142.687 297.568 139.933 290.993C137.228 284.536 127.539 265.12 127.539 265.12C117.206 244.785 92.6559 206.527 92.6559 206.527C92.6559 206.527 79.2198 185.94 70.9908 178.057C70.9908 178.057 60.6418 166.831 52.792 164.836Z" stroke="black"/>
<path d="M278.474 357.296C278.474 357.296 283.887 339.585 276.642 339.713C271.577 339.803 268.285 341.938 265.336 344.914C262.706 347.568 258.991 351.477 258.993 354.869C258.996 361.72 278.474 357.296 278.474 357.296Z" fill="#FCC5A7" stroke="black"/>
<path d="M278.409 356.791C278.409 356.791 282.036 359.808 283.601 364.556C285.635 370.73 283.574 372.462 283.574 372.462" stroke="black" stroke-linecap="round"/>
<path d="M187.411 380.991C187.411 380.991 178.515 381.378 160.991 385.487C144.376 389.384 132.326 399.147 132.326 399.147" stroke="black" stroke-linecap="round"/>
<path d="M188.964 386.003C188.964 386.003 179.097 387.553 170.373 393.12C161.649 398.686 156.929 406.442 156.929 406.442" stroke="black" stroke-linecap="round"/>
<path d="M276.006 319.152C276.006 319.152 278.522 314.898 280.777 311.262C283.032 307.627 290.565 300.702 290.565 300.702" stroke="black" stroke-linecap="round"/>
<path d="M278.577 324.943C278.577 324.943 282.11 319.543 284.695 317.043C288.359 313.502 293.113 310.356 293.113 310.356" stroke="black" stroke-linecap="round"/>
<path d="M202.708 355.945C202.708 355.945 213.974 356.847 218.738 353.469C226.132 348.225 223.634 339.572 223.634 339.572" stroke="black" stroke-linecap="round"/>
<path d="M239.538 331.496C239.538 331.496 247.69 335.466 254.648 330.009C262.332 323.983 260.297 317.81 260.297 317.81" stroke="black" stroke-linecap="round"/>
</svg>
