<svg width="451" height="369" viewBox="0 0 451 369" fill="none" xmlns="http://www.w3.org/2000/svg">
<path d="M121.98 105.049C111.654 115.19 110.573 124.894 116.606 141.093C122.273 156.31 131.3 161.73 145.577 167.583C157.263 172.374 164.812 173.516 174.234 166.859C182.519 161.006 185.606 154.169 186.518 143.086C187.431 132.003 186.904 120.162 178.909 110.102C170.711 99.7864 159.951 97.8617 148.835 96.8751C137.719 95.8885 130.048 97.1258 121.98 105.049Z" fill="#FFDF58"/>
<path fill-rule="evenodd" clip-rule="evenodd" d="M35.0628 137.342C11.1533 297.71 197.369 337.026 197.369 337.026C197.369 337.026 290.738 339.271 337.131 315.397C383.525 291.524 451.872 214.925 406.568 189.32C384.804 177.02 370.556 149.484 370.556 149.484C370.556 149.484 405.389 53.6274 371.33 48.5495C343.971 44.4704 299.885 82.2372 299.885 82.2372C299.885 82.2372 260.468 69.0926 237.82 65.7158C215.171 62.3391 183.609 64.9014 183.609 64.9014C183.609 64.9014 161.021 15.9589 135.643 13.4104C110.264 10.8619 93.9541 107.74 93.9541 107.74C93.9541 107.74 37.8864 118.404 35.0628 137.342ZM116.606 141.093C110.573 124.894 111.654 115.19 121.98 105.049C130.048 97.1258 137.719 95.8885 148.835 96.8751C159.951 97.8617 170.711 99.7864 178.909 110.102C186.904 120.162 187.431 132.003 186.518 143.086C185.606 154.169 182.519 161.006 174.234 166.859C164.812 173.516 157.263 172.374 145.577 167.583C131.3 161.73 122.273 156.31 116.606 141.093Z" fill="#901B8E"/>
<path d="M297.866 281.753L301.415 242.314C301.415 242.314 319.656 233.973 329.558 227.462C339.459 220.951 359.842 206.061 359.842 206.061C359.842 206.061 351.282 238.451 339.536 252.369C327.791 266.287 297.866 281.753 297.866 281.753Z" fill="#F9FFF9"/>
<path d="M110.875 249.571L119.134 209.975C119.134 209.975 106.999 197.092 99.9772 187.482C92.9557 177.873 79.0171 156.698 79.0171 156.698C79.0171 156.698 79.8877 196.01 86.0731 213.211C92.2585 230.413 110.875 249.571 110.875 249.571Z" fill="#F9FFF9"/>
<path d="M115.945 252.399L125.943 211.256C125.943 211.256 131.357 218.361 135.608 222.003C140.235 225.966 148.685 230.282 148.685 230.282L140.138 274.548L124.255 262.561L115.945 252.399Z" fill="#F9FFF9"/>
<path d="M145.876 277.294L152.63 231.997C152.63 231.997 163.174 238.618 170.385 241.925C177.491 245.183 189.162 248.801 189.162 248.801L182.621 292.674C182.621 292.674 167.933 288.631 160.758 285.628C153.583 282.625 145.876 277.294 145.876 277.294Z" fill="#F9FFF9"/>
<path d="M187.751 293.438L197.234 249.368L219.179 252.639C227.915 253.942 242.266 254.104 242.266 254.104L238.865 294.502C238.865 294.502 221.281 298.437 212.545 297.135L187.751 293.438Z" fill="#F9FFF9"/>
<path d="M243.071 178.933C240.108 162.183 260.719 139.062 260.719 139.062C260.719 139.062 301.304 123.947 316.589 139.873C330.153 154.005 333.869 164.641 324.1 181.997C312.759 202.147 282.19 211.936 261.843 202.26C248.905 196.108 245.634 193.423 243.071 178.933Z" fill="#F2CE36"/>
<path d="M205.113 220.901C190.691 217.554 169.038 194.821 179.7 180.396C188.618 168.33 193.237 181.587 209.832 185.437C220.73 187.966 238.49 183.227 238.3 196.43C238.159 206.293 232.429 211.969 225.658 215.919C218.886 219.868 212.709 222.663 205.113 220.901Z" fill="#E886DD" stroke="#8F5AC8" stroke-width="2"/>
<path d="M294.508 245.656L291.886 282.782C291.886 282.782 276.61 289.205 267.303 291.345C257.997 293.484 244.223 293.739 244.223 293.739C244.223 293.739 248.597 280.036 249.736 272.392C250.876 264.747 250.28 253.113 250.28 253.113L271.267 251.084L294.508 245.656Z" fill="#F9FFF9"/>
<ellipse cx="153.014" cy="149.307" rx="11.2375" ry="21.3098" transform="rotate(8.47988 153.014 149.307)" fill="#583000"/>
<path d="M294.037 186.57C292.302 198.21 285.918 206.905 279.78 205.99C273.642 205.074 270.072 194.896 271.808 183.256C273.543 171.615 279.926 162.921 286.065 163.836C292.203 164.751 295.773 174.929 294.037 186.57Z" fill="#583000"/>
<path d="M222.203 126.837C222.302 107.284 221.346 65.7574 221.337 64.2571L239.28 65.0584L258.101 69.7383C258.101 69.7383 244.848 84.6393 237.951 95.4614C230.621 106.965 222.203 126.837 222.203 126.837Z" fill="#8F5AC8"/>
<path d="M246.824 118.017C254.734 100.215 274.266 74.6465 275.976 74.9015L300.132 82.8741C300.132 82.8741 288.752 90.0579 278.248 96.7856C267.082 103.937 246.824 118.017 246.824 118.017Z" fill="#8F5AC8"/>
<path d="M210.508 120.62C212.283 101.123 206.903 65.0248 205.298 64.3635L183.377 64.8425C183.377 64.8425 187.743 74.7782 193.58 86.0231C199.785 97.9767 210.508 120.62 210.508 120.62Z" fill="#8F5AC8"/>
<path d="M351.359 185.424C368.366 180.777 382.425 166.857 383.283 168.026C387.4 173.633 397.185 182.886 397.185 182.886C397.185 182.886 384.054 188.425 377.863 189.375C365.056 191.342 341.156 188.211 351.359 185.424Z" fill="#8F5AC8"/>
<path d="M86.5477 152.43C75.1793 138.501 67.6417 115.01 66.2929 115.457C59.8225 117.601 48.0212 122.725 48.0212 122.725C48.0212 122.725 58.1024 135.431 62.6496 139.894C72.0565 149.127 93.3679 160.787 86.5477 152.43Z" fill="#8F5AC8"/>
<path d="M363.69 211.137C390.935 212.078 414.375 197.23 414.967 195.856C414.967 195.856 420.6 205.167 420.824 210.914C421.047 216.662 419.122 230.511 419.122 230.511C419.122 230.511 402.041 227.473 394.916 226.411C382.174 224.511 350.192 210.67 363.69 211.137Z" fill="#8F5AC8"/>
<path d="M363.374 133.52L376.505 131.419C376.505 131.419 374.303 149.338 363.799 156.066C352.633 163.218 334.506 168.872 334.506 168.872L363.374 133.52Z" fill="#8F5AC8"/>
<path d="M95.0951 107.423L79.4103 111.017C79.4103 111.017 80.2935 125.877 88.3782 135.376C96.9724 145.474 112.663 156.17 112.663 156.17L95.0951 107.423Z" fill="#8F5AC8"/>
<path d="M62.4197 254.768C62.4197 254.768 71.0338 231.23 81.5495 220.31C86.5788 215.087 65.4257 219.138 58.7975 221.401C52.1692 223.664 46.0681 227.663 46.0681 227.663C46.0681 227.663 50.3217 236.907 53.5145 242.2C56.7074 247.492 62.4197 254.768 62.4197 254.768Z" fill="#8F5AC8"/>
<path d="M351.227 306.831C351.227 306.831 349.853 281.804 342.98 268.291C339.693 261.828 358.745 271.873 364.425 275.972C370.104 280.07 376.484 285.929 376.484 285.929C376.484 285.929 369.719 293.53 365.121 297.661C360.523 301.793 351.227 306.831 351.227 306.831Z" fill="#8F5AC8"/>
<path d="M39.8288 212.06C39.8288 212.06 56.1979 193.701 69.7574 187.868C76.2424 185.079 55.4263 180.139 48.5452 179.516C41.6642 178.893 33.6229 180.218 33.6229 180.218C33.6229 180.218 34.5619 190.194 35.5751 196.434C36.5883 202.674 39.8288 212.06 39.8288 212.06Z" fill="#8F5AC8"/>
<path d="M384.826 278.826C384.826 278.826 374.524 256.491 363.256 246.956C357.867 242.396 379.218 243.743 385.982 245.155C392.745 246.566 407.145 250.271 407.145 250.271C407.145 250.271 406.826 252.409 399.818 262.293C392.81 272.176 384.826 278.826 384.826 278.826Z" fill="#8F5AC8"/>
<path d="M33.2572 174.856C33.2572 174.856 84.0986 156 69.7635 153.863C60.7669 152.522 51.8854 152.534 44.8075 150.142C38.2499 147.927 34.4495 143.409 34.4495 143.409C34.4495 143.409 33.1044 150.477 33.003 157.019C32.9016 163.562 33.2572 174.856 33.2572 174.856Z" fill="#8F5AC8"/>
<path d="M346.237 104.677L332.121 105.535C332.121 105.535 340.192 113.888 344.887 119.777C349.581 125.666 356.164 135.695 356.164 135.695C356.164 135.695 368.879 109.423 372.586 94.1696C376.293 78.916 375.148 57.5771 375.148 57.5771C375.148 57.5771 354.363 64.7421 341.664 71.5101C328.966 78.278 310.115 92.2378 310.115 92.2378C310.115 92.2378 319.563 88.4578 326.13 87.7873C331.597 87.229 343.515 91.0096 343.515 91.0096C343.515 91.0096 333.273 91.0755 327.533 91.7846C321.794 92.4937 318.02 94.0076 318.02 94.0076C318.02 94.0076 324.485 96.3732 330.469 98.3012C336.453 100.229 346.237 104.677 346.237 104.677Z" fill="#FF9AE7" stroke="#DA7ECE" stroke-width="2"/>
<path d="M136.45 71.5675L148.573 79.7877C148.573 79.7877 137.329 81.95 130.287 84.0074C123.244 86.0648 112.506 90.3241 112.506 90.3241C112.506 90.3241 114.021 63.1327 118.165 49.3123C122.31 35.492 133.732 19.5457 133.732 19.5457C133.732 19.5457 148.704 36.2293 156.685 48.2771C164.666 60.3248 174.606 81.246 174.606 81.246C174.606 81.246 168.056 73.2564 162.549 69.2216C157.964 65.8628 145.533 62.4183 145.533 62.4183C145.533 62.4183 154.599 67.9503 159.353 71.5724C164.106 75.1944 166.72 78.3886 166.72 78.3886C166.72 78.3886 159.824 76.7647 153.568 75.0584C147.311 73.3521 136.45 71.5675 136.45 71.5675Z" fill="#FF9AE7" stroke="#DA7ECE" stroke-width="2"/>
<line y1="-1" x2="43.2138" y2="-1" transform="matrix(0.996579 -0.0826419 0.0536807 0.998558 234.182 221.049)" stroke="black" stroke-width="2"/>
<path d="M232.353 228.756L272.67 244.273" stroke="black" stroke-width="2"/>
<line y1="-1" x2="28.244" y2="-1" transform="matrix(0.986866 0.161541 -0.159719 0.987163 233.635 224.714)" stroke="black" stroke-width="2"/>
<line y1="-1" x2="43.3471" y2="-1" transform="matrix(-0.82666 -0.574028 -0.523241 0.84542 176.553 209.515)" stroke="black" stroke-width="2"/>
<path d="M174.48 217.156L131.962 210.299" stroke="black" stroke-width="2"/>
<line y1="-1" x2="28.3405" y2="-1" transform="matrix(-0.933716 -0.356862 -0.331402 0.943874 175.286 212.985)" stroke="black" stroke-width="2"/>
</svg>
