<svg width="223" height="283" viewBox="0 0 223 283" fill="none" xmlns="http://www.w3.org/2000/svg">
<g filter="url(#filter0_n_263_148)">
<path d="M128.626 139.372L248.637 126.158C248.637 126.158 198.387 172.009 169.981 196.281C137.256 224.243 103.939 280.934 103.939 280.934C103.939 280.934 85.307 234.132 58.5 223.416C38.1633 215.286 1.41781 223.416 1.41781 223.416C1.41781 223.416 21.5396 152.496 21.2419 104.428C20.9585 58.6541 18.6817 0.432178 18.6817 0.432178L71.895 105.346C71.895 105.346 85.8331 96.3701 100.345 75.3625C110.733 60.3242 149.766 29.8494 149.766 29.8494C149.766 29.8494 150.912 60.776 144.816 92.4703C138.72 124.164 128.626 139.372 128.626 139.372Z" fill="url(#paint0_linear_263_148)"/>
<path d="M128.626 139.372L248.637 126.158C248.637 126.158 198.387 172.009 169.981 196.281C137.256 224.243 103.939 280.934 103.939 280.934C103.939 280.934 85.307 234.132 58.5 223.416C38.1633 215.286 1.41781 223.416 1.41781 223.416C1.41781 223.416 21.5396 152.496 21.2419 104.428C20.9585 58.6541 18.6817 0.432178 18.6817 0.432178L71.895 105.346C71.895 105.346 85.8331 96.3701 100.345 75.3625C110.733 60.3242 149.766 29.8494 149.766 29.8494C149.766 29.8494 150.912 60.776 144.816 92.4703C138.72 124.164 128.626 139.372 128.626 139.372Z" stroke="#E2D991"/>
</g>
<defs>
<filter id="filter0_n_263_148" x="0.708252" y="0.206055" width="249.4" height="281.862" filterUnits="userSpaceOnUse" color-interpolation-filters="sRGB">
<feFlood flood-opacity="0" result="BackgroundImageFix"/>
<feBlend mode="normal" in="SourceGraphic" in2="BackgroundImageFix" result="shape"/>
<feTurbulence type="fractalNoise" baseFrequency="2 2" stitchTiles="stitch" numOctaves="3" result="noise" seed="2525" />
<feColorMatrix in="noise" type="luminanceToAlpha" result="alphaNoise" />
<feComponentTransfer in="alphaNoise" result="coloredNoise1">
<feFuncA type="discrete" tableValues="1 1 1 1 1 1 1 1 1 1 1 1 1 1 1 1 1 1 1 1 1 1 1 1 1 1 1 1 1 1 1 1 1 1 1 1 1 1 1 1 1 1 1 1 1 1 1 1 1 1 1 0 0 0 0 0 0 0 0 0 0 0 0 0 0 0 0 0 0 0 0 0 0 0 0 0 0 0 0 0 0 0 0 0 0 0 0 0 0 0 0 0 0 0 0 0 0 0 0 0 "/>
</feComponentTransfer>
<feComposite operator="in" in2="shape" in="coloredNoise1" result="noise1Clipped" />
<feFlood flood-color="rgba(0, 0, 0, 0.25)" result="color1Flood" />
<feComposite operator="in" in2="noise1Clipped" in="color1Flood" result="color1" />
<feMerge result="effect1_noise_263_148">
<feMergeNode in="shape" />
<feMergeNode in="color1" />
</feMerge>
</filter>
<linearGradient id="paint0_linear_263_148" x1="50.9915" y1="-47.7984" x2="173.322" y2="252.688" gradientUnits="userSpaceOnUse">
<stop stop-color="#FDFC7E"/>
<stop offset="0.5" stop-color="#DABB4E"/>
<stop offset="1" stop-color="#C9932D"/>
</linearGradient>
</defs>
</svg>
