<svg width="191" height="221" viewBox="0 0 191 221" fill="none" xmlns="http://www.w3.org/2000/svg">
<g filter="url(#filter0_d_522_313)">
<ellipse cx="73.0509" cy="66.8028" rx="73.0509" ry="66.8028" transform="matrix(0.941146 0.338001 -0.294073 0.955783 39.2896 43.9196)" fill="#F4BD5D"/>
<ellipse cx="63.5225" cy="55.0617" rx="63.5225" ry="55.0617" transform="matrix(0.941146 0.338001 -0.294073 0.955783 44.4971 57.8217)" fill="#FEF0D9"/>
<path fill-rule="evenodd" clip-rule="evenodd" d="M109.192 73.1866L112.986 65.2568C112.986 65.2568 104.827 46.1151 113.865 38.5571C124.393 29.7531 141.692 31.3487 153.238 42.5383C163.51 52.4925 165.896 67.1319 157.581 75.8753C150.397 83.4292 130.746 76.3941 130.746 76.3941L126.952 84.324L109.192 73.1866ZM136.772 41.8595C115.855 34.3984 117.449 55.9276 117.449 55.9276C117.449 55.9276 123.251 43.7999 135.359 52.1275C147.288 60.3322 138.957 72.3921 138.957 72.3921C138.957 72.3921 144.047 73.7755 150.545 67.1815C157.043 60.5875 151.116 46.9758 136.772 41.8595Z" fill="#F4BA62" stroke="#E2B061"/>
<path d="M67.037 178.532C67.3909 171.597 73.8565 160.852 74.0336 164.623C74.1503 167.108 73.9647 168.992 72.8514 171.752C71.4833 175.143 66.8751 181.704 67.037 178.532Z" fill="#F88B53" stroke="#DB7E52"/>
<path d="M102.971 97.4284C104.495 89.9595 112.607 83.0601 112.137 87.4133C111.828 90.2818 111.327 92.2411 109.775 94.4454C107.869 97.1542 102.274 100.845 102.971 97.4284Z" fill="#F88B53" stroke="#DB7E52"/>
<path d="M122.567 115.027C125.966 110.496 134.492 107.731 132.847 110.461C131.764 112.259 130.791 113.427 128.902 114.53C126.582 115.887 121.012 117.1 122.567 115.027Z" fill="#F88B53" stroke="#DB7E52"/>
<path d="M126.88 130.982C132.478 128.999 141.776 130.926 138.771 132.317C136.791 133.233 135.26 133.697 132.93 133.665C130.066 133.625 124.319 131.89 126.88 130.982Z" fill="#F88B53" stroke="#DB7E52"/>
<path d="M126.242 152.095C132.174 150.927 141.219 154.073 137.984 155.018C135.852 155.641 134.242 155.884 131.906 155.534C129.034 155.104 123.529 152.63 126.242 152.095Z" fill="#F88B53" stroke="#DB7E52"/>
<path d="M114.8 169.341C120.725 171.702 126.703 179.018 123.281 177.963C121.026 177.267 119.464 176.57 117.633 175.03C115.382 173.136 112.089 168.261 114.8 169.341Z" fill="#F88B53" stroke="#DB7E52"/>
<path d="M97.88 172.934C100.449 178.48 99.1241 187.001 97.3961 183.981C96.2574 181.991 95.6394 180.485 95.489 178.289C95.3041 175.592 96.7049 170.397 97.88 172.934Z" fill="#F88B53" stroke="#DB7E52"/>
<path d="M83.836 90.8045C83.6245 84.9768 78.3274 77.2472 78.1321 80.4974C78.0035 82.639 78.136 84.2032 79.0369 86.3088C80.1439 88.8962 83.9328 93.4705 83.836 90.8045Z" fill="#F88B53" stroke="#DB7E52"/>
<path d="M60.2308 97.5918C56.8462 92.3819 48.3306 87.9115 49.9668 90.9694C51.0449 92.9844 52.0142 94.346 53.8988 95.8273C56.2147 97.6477 61.7792 99.9752 60.2308 97.5918Z" fill="#F88B53" stroke="#DB7E52"/>
<path d="M49.0306 114.052C44.9266 109.279 35.9386 105.95 38.0061 108.799C39.3683 110.677 40.5234 111.912 42.5888 113.144C45.1268 114.657 50.908 116.236 49.0306 114.052Z" fill="#F88B53" stroke="#DB7E52"/>
<path d="M44.3011 135.428C38.247 133.487 29.4044 135.48 32.73 136.848C34.9214 137.75 36.5586 138.202 38.8795 138.152C41.7316 138.092 47.0706 136.316 44.3011 135.428Z" fill="#F88B53" stroke="#DB7E52"/>
<path d="M52.378 151.436C47.2473 154.217 43.5864 161.899 46.6441 160.598C48.6589 159.74 49.9885 158.933 51.3255 157.272C52.9684 155.231 54.7251 150.164 52.378 151.436Z" fill="#F88B53" stroke="#DB7E52"/>
<ellipse cx="6.35226" cy="6.07298" rx="6.35226" ry="6.07298" transform="matrix(0.941146 0.338001 -0.294073 0.955783 84.0151 123.581)" fill="#442724"/>
<path d="M100.813 105.979L90.5596 129.142" stroke="#442724" stroke-width="3" stroke-linecap="round"/>
<path d="M106.045 141.376L86.3156 131.519" stroke="#442724" stroke-width="3" stroke-linecap="round"/>
</g>
<defs>
<filter id="filter0_d_522_313" x="12.8745" y="32.4031" width="154.232" height="176.532" filterUnits="userSpaceOnUse" color-interpolation-filters="sRGB">
<feFlood flood-opacity="0" result="BackgroundImageFix"/>
<feColorMatrix in="SourceAlpha" type="matrix" values="0 0 0 0 0 0 0 0 0 0 0 0 0 0 0 0 0 0 127 0" result="hardAlpha"/>
<feOffset dy="4"/>
<feGaussianBlur stdDeviation="2"/>
<feComposite in2="hardAlpha" operator="out"/>
<feColorMatrix type="matrix" values="0 0 0 0 0 0 0 0 0 0 0 0 0 0 0 0 0 0 0.25 0"/>
<feBlend mode="normal" in2="BackgroundImageFix" result="effect1_dropShadow_522_313"/>
<feBlend mode="normal" in="SourceGraphic" in2="effect1_dropShadow_522_313" result="shape"/>
</filter>
</defs>
</svg>
