<svg width="508" height="213" viewBox="0 0 508 213" fill="none" xmlns="http://www.w3.org/2000/svg">
<path fill-rule="evenodd" clip-rule="evenodd" d="M95.717 129.48C93.3897 130.769 87.6769 134.855 87.6769 134.855C87.6769 134.855 89.7258 138.724 91.697 140.643C93.7437 142.636 95.0897 143.589 97.5037 145.191C102.258 148.347 105.336 149.234 110.904 151.393C116.377 153.515 125.769 156.137 125.769 156.137L137.258 159.249C137.258 159.249 138.592 154.36 139.938 151.393C141.479 147.995 142.17 145.746 144.851 143.124C148.285 139.766 151.552 137.325 156.464 138.163C160.034 138.772 161.825 141.057 164.058 143.124C167.39 146.209 168.525 148.499 173.438 150.153C177.208 151.422 181.031 152.634 184.158 151.393C185.519 150.854 186.75 148.86 188.178 148.499C193.092 147.259 197.383 153.858 204.705 155.465C216.403 158.031 222.662 161.106 234.632 162.143C249.979 163.474 258.542 159.492 273.939 158.836C289.796 158.16 299.009 161.663 314.586 158.836C324.492 157.038 329.696 154.661 339.153 151.393C345.501 149.2 348.62 146.727 355.234 145.365C357.989 144.797 359.579 144.046 362.38 144.365C365.633 144.734 367.294 146.018 369.974 147.672C372.731 149.374 377.649 148.884 380.694 147.672C380.694 147.672 384.005 145.984 385.607 144.365C387.61 142.34 389.023 139.372 391.414 137.749C398.114 133.201 413.958 145.191 413.958 145.191C416.115 143.614 418.405 141.815 420.001 140.23C423.266 136.986 426.701 131.961 426.701 131.961C426.701 131.961 418.226 126.54 412.408 123.691C406.677 120.886 403.219 119.765 397.221 117.49L369.974 110.047C369.974 110.047 355.562 106.768 348.087 105.499C321.286 100.951 302.473 97.543 270.812 96.8164C239.152 96.0898 185.945 101.778 185.945 101.778C173.941 103 167.289 104.45 155.571 107.153C144.06 109.808 137.579 111.407 126.537 115.422C119.779 117.88 116.46 118.948 110.011 122.038C103.342 125.232 102.16 125.91 95.717 129.48ZM156.911 131.134C157.05 128.842 159.466 127.705 161.825 126.999C163.816 126.403 165.845 126.586 167.185 126.999C169.435 127.694 170.758 129.48 170.758 131.547C170.758 133.518 169.186 134.183 167.185 134.855C164.561 135.735 160.931 135.268 159.144 134.441C157.538 133.698 156.81 132.794 156.911 131.134Z" fill="#43270F"/>
<path d="M87.2303 112.941C85.6264 116.781 84.9524 119.162 84.9969 123.278C85.0233 125.721 85.3143 127.095 85.8903 129.48C86.4079 131.623 87.6769 134.855 87.6769 134.855C87.6769 134.855 93.3897 130.769 95.717 129.48C102.16 125.91 103.342 125.232 110.011 122.038C116.46 118.948 119.779 117.88 126.537 115.422C137.579 111.407 144.06 109.808 155.571 107.153C167.289 104.45 173.941 103 185.945 101.778C185.945 101.778 239.152 96.0898 270.812 96.8164C302.473 97.543 321.286 100.951 348.087 105.499C355.562 106.768 369.974 110.047 369.974 110.047L397.221 117.49C403.219 119.765 406.677 120.886 412.408 123.691C418.226 126.54 426.701 131.961 426.701 131.961C426.701 131.961 430.424 126.442 431.168 122.451C431.702 119.587 431.477 117.901 431.168 115.009C430.959 113.054 430.827 111.944 430.274 110.047C429.157 106.213 427.843 103.759 425.361 100.951C422.072 97.2299 416.449 94.3439 411.068 92.2684C389.627 83.9991 365.06 79.451 365.06 79.451C365.06 79.451 347.374 77.1207 336.027 75.7299C322.085 74.021 314.331 72.3803 300.293 71.5953C287.06 70.8553 279.601 71.3637 266.346 71.5953L265.872 71.6035C242.765 72.0071 229.612 72.2368 206.492 74.4895C189.49 76.146 164.951 80.278 164.951 80.278C164.951 80.278 152.215 81.6902 144.404 83.1722C136.156 84.7373 132.805 85.447 124.751 87.7203C119.262 89.2694 115.15 90.3203 110.011 92.6818C103.943 95.4697 100.51 97.1601 95.717 101.778C91.7953 105.556 89.2717 108.054 87.2303 112.941Z" fill="#5E3716"/>
<path fill-rule="evenodd" clip-rule="evenodd" d="M439.655 121.211C439.208 119.557 444.568 109.634 446.355 103.845C446.801 102.398 447.121 95.8239 445.015 91.028C444.47 89.7876 440.548 83.9991 436.081 81.1049C432.233 78.6117 430.831 77.2957 427.148 75.3164C416.554 69.6226 409.699 67.8266 397.221 64.5664C384.742 61.3062 374.311 59.5549 360.594 57.5376C343.794 55.067 317.266 53.4029 317.266 53.4029C317.266 53.4029 288.961 51.7678 270.812 51.7491C246.55 51.7241 241.573 52.0369 208.725 54.2299C184.167 55.8694 157.394 59.7635 140.384 62.9126C120.284 66.6337 93.4837 78.6241 84.5502 86.8933C74.2768 96.403 71.1501 105.499 71.1501 105.499C71.1501 105.499 66.22 104.258 62.6633 105.086C60.0153 105.702 55.9632 107.153 55.9632 107.153C55.9632 107.153 51.6913 104.323 47.4765 104.259C43.1022 104.192 38.3469 104.973 35.4163 107.98C34.0536 109.378 32.7363 112.115 32.7363 112.115C32.7363 112.115 37.9854 115.351 40.7764 115.836C43.5673 116.32 46.6774 114.454 47.4765 115.009C49.2631 116.249 46.3843 120.534 47.4765 123.278C48.4998 125.849 49.2631 125.759 51.4965 126.586C53.1242 127.188 54.8919 126.984 56.4099 126.172C58.0437 125.299 58.7741 124.155 59.0899 123.278C59.5366 122.038 58.952 120.262 59.9833 118.73C61.5102 116.461 65.3433 114.595 66.6833 115.836C68.2626 117.297 65.5733 121.006 65.3433 124.105C65.164 126.521 64.9945 128.046 65.3433 130.307C65.6922 132.567 65.9623 133.77 67.13 135.682C68.587 138.067 69.6367 138.272 72.4901 140.643C74.584 142.384 77.0707 143.748 77.8502 145.191C78.7435 146.845 74.6895 148.649 74.7234 151.393C74.7469 153.283 74.8605 154.283 76.0635 155.941C77.1723 157.47 77.7865 158.161 79.6368 158.836C82.4004 159.844 84.5502 159.663 87.2303 158.836C90.6467 157.782 93.037 154.288 95.2704 154.288C97.5037 154.288 98.3316 154.806 99.7371 156.355C101.156 157.919 100.943 159.209 101.97 161.316C104.112 165.707 106.998 168.137 111.797 169.999C115.236 171.334 117.036 171.461 121.177 171.653C130.111 172.066 133.684 167.932 135.024 168.759C136.627 169.748 135.059 171.71 135.918 173.307C136.913 175.158 137.883 175.802 139.938 176.615C142.509 177.632 144.346 177.555 147.084 177.028C150.22 176.425 152.444 174.547 154.678 173.307C155.419 172.895 156.489 173.122 157.335 173.302L157.358 173.307C158.82 173.617 160.485 175.374 160.485 175.374L170.758 185.711C170.758 185.711 175.182 188.15 178.351 188.605C180.42 188.902 181.632 188.83 183.711 188.605C188.376 188.099 191.13 187.09 194.878 184.47C196.847 183.094 196.92 179.919 199.345 180.336C201.168 180.649 200.713 183.101 202.472 183.643C205.152 184.47 207.411 184.54 210.512 184.057C212.688 183.718 213.89 183.256 215.872 182.403C217.575 181.669 218.061 179.499 219.892 179.922C221.679 180.336 222.894 182.593 225.252 184.057C229.238 186.531 232.095 187.701 236.865 188.191C248.926 189.432 255.179 189.018 269.026 186.951C273.726 186.249 278.406 181.483 279.746 181.576C281.086 181.669 284.584 185.048 288.233 186.124C291.904 187.207 294.27 187.597 298.06 186.951C300.831 186.479 302.31 185.76 304.76 184.47C307.247 183.161 307.723 180.039 310.566 180.336C312.441 180.531 312.9 181.84 314.586 182.816C318.048 184.822 324.413 186.538 324.413 186.538C324.413 186.538 330.454 188.647 335.133 189.018C339.492 189.364 342.28 189.432 346.747 188.605C350.189 187.968 352.322 186.748 355.234 184.933C357.086 183.777 358.838 181.358 360.147 181.625C361.934 181.99 360.515 185.125 361.934 186.951C363.381 188.814 364.064 190.059 366.847 190.672C369.61 191.28 371.76 191.499 373.994 189.845C375.158 188.984 376.142 188.191 376.026 186.573C375.952 185.554 376.227 184.332 376.674 184.057C377.567 183.506 378.58 184.481 380.694 184.884C385.335 185.768 388.031 186.124 392.754 186.124C394.987 186.124 398.999 186.26 400.794 184.057C401.594 183.075 402.071 182.463 402.134 181.163C402.183 180.142 401.444 179.094 400.794 178.268C400.053 177.327 398.189 176.81 396.774 176.201C394.718 175.315 392.754 176.493 392.754 174.961C392.754 174.134 395.424 173.152 396.327 171.653C397.134 170.315 397.221 169.464 397.221 167.932C397.221 167.105 396.945 166.386 397.221 165.451C397.426 164.754 397.591 164.362 398.114 163.797L398.172 163.734C398.669 163.197 399.086 162.745 399.901 162.557C401.687 162.143 404.092 164.677 407.941 165.865C409.281 166.278 412.991 166.386 415.088 165.451C417.321 164.455 419.076 163.859 420.001 161.73C420.717 160.082 420.001 157.182 420.001 157.182C420.001 157.182 426.567 157.441 430.274 155.941C433.024 154.829 436.528 151.807 436.528 151.807C436.528 151.807 436.755 155.057 437.868 156.768C439.147 158.734 440.636 159.34 442.781 160.49C444.884 161.616 446.059 162.315 448.588 162.557C451.117 162.799 453.471 162.862 455.735 161.316C457.807 159.901 458.515 159.32 458.415 156.768C458.353 155.179 458.537 154.33 457.521 153.047C456.793 152.126 456.667 151.746 455.288 150.98C454.342 150.455 453.75 149.975 452.608 149.74C451.586 149.529 450.345 149.712 449.481 148.913C448.618 148.113 448.649 147.504 449.035 146.432C449.481 145.191 451.665 145.608 453.948 145.191C456.03 144.812 458.275 144.774 460.202 143.951C461.564 143.369 462.892 143.256 463.328 141.884C463.764 140.511 462.379 139.093 463.328 137.336C463.775 136.509 465.424 137.017 467.348 136.922C469.672 136.808 470.978 136.856 473.155 136.095C474.323 135.687 474.925 135.339 476.058 134.855L478.962 133.615C478.962 133.615 476.728 131.134 475.835 130.307C474.423 128.999 470.359 127.054 465.115 127.826C459.736 128.619 455.735 132.788 453.948 132.374C452.161 131.961 448.639 128.32 445.461 125.759C442.473 123.35 439.987 122.44 439.655 121.211ZM84.9969 123.278C84.9524 119.162 85.6264 116.781 87.2303 112.941C89.2717 108.054 91.7953 105.556 95.717 101.778C100.51 97.1601 103.943 95.4697 110.011 92.6818C115.15 90.3203 119.262 89.2694 124.751 87.7203C132.805 85.447 136.156 84.7373 144.404 83.1722C152.215 81.6902 164.951 80.278 164.951 80.278C164.951 80.278 189.49 76.146 206.492 74.4895C229.612 72.2368 242.765 72.0071 265.872 71.6035L266.346 71.5953C279.601 71.3637 287.06 70.8553 300.293 71.5953C314.331 72.3803 322.085 74.021 336.027 75.7299C347.374 77.1207 365.06 79.451 365.06 79.451C365.06 79.451 389.627 83.9991 411.068 92.2684C416.449 94.3439 422.072 97.2299 425.361 100.951C427.843 103.759 429.157 106.213 430.274 110.047C430.827 111.944 430.959 113.054 431.168 115.009C431.477 117.901 431.702 119.587 431.168 122.451C430.424 126.442 426.701 131.961 426.701 131.961C426.701 131.961 423.266 136.986 420.001 140.23C418.405 141.815 416.115 143.614 413.958 145.191C410.807 147.495 407.941 149.326 407.941 149.326C399.671 154.377 386.501 158.836 386.501 158.836C386.501 158.836 373.545 162.986 362.38 165.451C346.59 168.937 333.625 170.78 317.266 172.48C300.429 174.23 290.901 174.288 273.939 174.547C254.908 174.838 242.437 174.726 223.465 173.307C200.692 171.603 189.511 171.183 167.185 166.691C155.359 164.312 137.258 159.249 137.258 159.249L125.769 156.137C125.769 156.137 116.377 153.515 110.904 151.393C105.336 149.234 102.258 148.347 97.5037 145.191C95.0897 143.589 93.7437 142.636 91.697 140.643C89.7258 138.724 87.6769 134.855 87.6769 134.855C87.6769 134.855 86.4079 131.623 85.8903 129.48C85.3143 127.095 85.0233 125.721 84.9969 123.278Z" fill="#804B1E"/>
<path d="M362.38 165.451C373.545 162.986 386.501 158.836 386.501 158.836C386.501 158.836 399.671 154.377 407.941 149.326C407.941 149.326 410.807 147.495 413.958 145.191C413.958 145.191 398.114 133.201 391.414 137.749C389.023 139.372 387.61 142.34 385.607 144.365C384.005 145.984 380.694 147.672 380.694 147.672C377.649 148.884 372.731 149.374 369.974 147.672C367.294 146.018 365.633 144.734 362.38 144.365C359.579 144.046 357.989 144.797 355.234 145.365C348.62 146.727 345.501 149.2 339.153 151.393C329.696 154.661 324.492 157.038 314.586 158.836C299.009 161.663 289.796 158.16 273.939 158.836C258.542 159.492 249.979 163.474 234.632 162.143C222.662 161.106 216.403 158.031 204.705 155.465C197.383 153.858 193.092 147.259 188.178 148.499C186.75 148.86 185.519 150.854 184.158 151.393C181.031 152.634 177.208 151.422 173.438 150.153C168.525 148.499 167.39 146.209 164.058 143.124C161.825 141.057 160.034 138.772 156.464 138.163C151.552 137.325 148.285 139.766 144.851 143.124C142.17 145.746 141.479 147.995 139.938 151.393C138.592 154.36 137.258 159.249 137.258 159.249C137.258 159.249 155.359 164.312 167.185 166.691C189.511 171.183 200.692 171.603 223.465 173.307C242.437 174.726 254.908 174.838 273.939 174.547C290.901 174.288 300.429 174.23 317.266 172.48C333.625 170.78 346.59 168.937 362.38 165.451Z" fill="#33200F"/>
<path d="M161.825 126.999C159.466 127.705 157.05 128.842 156.911 131.134C156.81 132.794 157.538 133.698 159.144 134.441C160.931 135.268 164.561 135.735 167.185 134.855C169.186 134.183 170.758 133.518 170.758 131.547C170.758 129.48 169.435 127.694 167.185 126.999C165.845 126.586 163.816 126.403 161.825 126.999Z" fill="#2F1A08"/>
<path d="M28.7162 133.201C32.9353 134.503 38.0963 133.615 39.883 135.268C40.3214 135.674 38.6316 136.333 37.6497 138.163C36.6307 140.061 36.2269 141.188 36.7563 143.124C37.2718 145.009 38.2245 145.664 39.883 146.432C43.4564 148.086 47.7423 148.115 51.9432 148.086C55.7965 148.059 60.4299 146.845 60.4299 146.845C58.6433 151.393 60.8766 163.384 86.7836 169.172C78.7435 174.547 76.3315 184.718 114.924 184.057C116.562 187.502 127.431 192.834 153.338 187.365C153.338 187.365 156.379 192.069 160.485 194.807C164.175 197.269 167.185 197.873 177.011 199.768C184.351 201.184 194.009 202.11 204.705 200.595C214.902 199.152 229.719 192.74 229.719 192.74C229.719 192.74 231.098 196.481 232.845 198.528C234.23 200.15 238.347 202.35 240.439 203.076C246.692 205.247 249.372 204.73 256.519 204.316C263.206 203.93 270.812 197.701 270.812 197.701C270.812 197.701 276.159 199.18 279.746 199.768C283.332 200.357 286.267 200.727 290.466 200.595C296.518 200.405 305.206 196.874 305.206 196.874C305.206 196.874 308.925 200.417 311.46 201.422C317.713 203.903 318.466 203.677 323.966 204.316C329.162 204.921 333.48 205.026 338.707 204.73C343.459 204.46 345.882 204.259 350.32 202.663C353.527 201.509 358.36 198.941 358.36 198.941C358.36 198.941 363.26 201.421 366.847 202.663C373.391 204.928 377.716 204.727 384.714 204.316C390.211 203.994 393.497 203.217 398.561 201.836C403.352 200.528 405.261 200.182 409.728 197.701C414.961 194.795 418.899 192.408 417.321 186.951C416.039 182.517 407.941 178.268 407.941 178.268C407.941 178.268 418.214 178.682 424.468 178.268C427.456 178.071 430.78 177.693 434.741 176.201C437.928 175.001 443.675 171.653 443.675 171.653C443.675 171.653 450.641 172.74 453.948 172.48C457.255 172.219 463.986 170.824 466.902 167.105C468.991 164.439 467.795 160.49 467.795 160.49C467.795 160.49 473.062 160.968 476.728 160.903C479.17 160.86 481.531 160.296 483.875 159.663C486.523 158.948 490.129 156.768 490.575 154.701C490.891 153.241 490.575 152.22 489.682 150.98C488.412 149.217 482.535 146.845 482.535 146.845C482.088 143.124 482.514 139.919 481.642 137.336C480.77 134.752 478.962 133.615 478.962 133.615L476.058 134.855C474.925 135.339 474.323 135.687 473.155 136.095C470.978 136.856 469.672 136.808 467.348 136.922C465.424 137.017 463.775 136.509 463.328 137.336C462.379 139.093 463.764 140.511 463.328 141.884C462.892 143.256 461.564 143.369 460.202 143.951C458.275 144.774 456.03 144.812 453.948 145.191C451.665 145.608 449.481 145.191 449.035 146.432C448.649 147.504 448.618 148.113 449.481 148.913C450.345 149.712 451.586 149.529 452.608 149.74C453.75 149.975 454.342 150.455 455.288 150.98C456.667 151.746 456.793 152.126 457.521 153.047C458.537 154.33 458.353 155.179 458.415 156.768C458.515 159.32 457.807 159.901 455.735 161.316C453.471 162.862 451.117 162.799 448.588 162.557C446.059 162.315 444.884 161.616 442.781 160.49C440.636 159.34 439.147 158.734 437.868 156.768C436.755 155.057 436.528 151.807 436.528 151.807C436.528 151.807 433.024 154.829 430.274 155.941C426.567 157.441 420.001 157.182 420.001 157.182C420.001 157.182 420.717 160.082 420.001 161.73C419.076 163.859 417.321 164.455 415.088 165.451C412.991 166.386 409.281 166.278 407.941 165.865C404.092 164.677 401.687 162.143 399.901 162.557C399.086 162.745 398.669 163.197 398.172 163.734L398.114 163.797C397.591 164.362 397.426 164.754 397.221 165.451C396.945 166.386 397.221 167.105 397.221 167.932C397.221 169.464 397.134 170.315 396.327 171.653C395.424 173.152 392.754 174.134 392.754 174.961C392.754 176.493 394.718 175.315 396.774 176.201C398.189 176.81 400.053 177.327 400.794 178.268C401.444 179.094 402.183 180.142 402.134 181.163C402.071 182.463 401.594 183.075 400.794 184.057C398.999 186.26 394.987 186.124 392.754 186.124C388.031 186.124 385.335 185.768 380.694 184.884C378.58 184.481 377.567 183.506 376.674 184.057C376.227 184.332 375.952 185.554 376.026 186.573C376.142 188.191 375.158 188.984 373.994 189.845C371.76 191.499 369.61 191.28 366.847 190.672C364.064 190.059 363.381 188.814 361.934 186.951C360.515 185.125 361.934 181.99 360.147 181.625C358.838 181.358 357.086 183.777 355.234 184.933C352.322 186.748 350.189 187.968 346.747 188.605C342.28 189.432 339.492 189.364 335.133 189.018C330.454 188.647 324.413 186.538 324.413 186.538C324.413 186.538 318.048 184.822 314.586 182.816C312.9 181.84 312.441 180.531 310.566 180.336C307.723 180.039 307.247 183.161 304.76 184.47C302.31 185.76 300.831 186.479 298.06 186.951C294.27 187.597 291.904 187.207 288.233 186.124C284.584 185.048 281.086 181.669 279.746 181.576C278.406 181.483 273.726 186.249 269.026 186.951C255.179 189.018 248.926 189.432 236.865 188.191C232.095 187.701 229.238 186.531 225.252 184.057C222.894 182.593 221.679 180.336 219.892 179.922C218.061 179.499 217.575 181.669 215.872 182.403C213.89 183.256 212.688 183.718 210.512 184.057C207.411 184.54 205.152 184.47 202.472 183.643C200.713 183.101 201.168 180.649 199.345 180.336C196.92 179.919 196.847 183.094 194.878 184.47C191.13 187.09 188.376 188.099 183.711 188.605C181.632 188.83 180.42 188.902 178.351 188.605C175.182 188.15 170.758 185.711 170.758 185.711L160.485 175.374C160.485 175.374 158.82 173.617 157.358 173.307L157.335 173.302C156.489 173.122 155.419 172.895 154.678 173.307C152.444 174.547 150.22 176.425 147.084 177.028C144.346 177.555 142.509 177.632 139.938 176.615C137.883 175.802 136.913 175.158 135.918 173.307C135.059 171.71 136.627 169.748 135.024 168.759C133.684 167.932 130.111 172.066 121.177 171.653C117.036 171.461 115.236 171.334 111.797 169.999C106.998 168.137 104.112 165.707 101.97 161.316C100.943 159.209 101.156 157.919 99.7371 156.355C98.3316 154.806 97.5037 154.288 95.2704 154.288C93.037 154.288 90.6467 157.782 87.2303 158.836C84.5502 159.663 82.4004 159.844 79.6368 158.836C77.7865 158.161 77.1723 157.47 76.0635 155.941C74.8605 154.283 74.7469 153.283 74.7234 151.393C74.6895 148.649 78.7435 146.845 77.8502 145.191C77.0707 143.748 74.584 142.384 72.4901 140.643C69.6367 138.272 68.587 138.067 67.13 135.682C65.9623 133.77 65.6922 132.567 65.3433 130.307C64.9945 128.046 65.164 126.521 65.3433 124.105C65.5733 121.006 68.2626 117.297 66.6833 115.836C65.3433 114.595 61.5102 116.461 59.9833 118.73C58.952 120.262 59.5366 122.038 59.0899 123.278C58.7741 124.155 58.0437 125.299 56.4099 126.172C54.8919 126.984 53.1242 127.188 51.4965 126.586C49.2631 125.759 48.4998 125.849 47.4765 123.278C46.3843 120.534 49.2631 116.249 47.4765 115.009C46.6774 114.454 43.5673 116.32 40.7764 115.836C37.9854 115.351 32.7363 112.115 32.7363 112.115C32.7363 112.115 31.3963 113.768 30.9496 117.076C30.6602 119.219 30.5029 122.038 30.5029 122.038C30.5029 122.038 24.3912 124.913 24.2495 128.24C24.1272 131.112 27.3762 132.788 28.7162 133.201Z" fill="#633916"/>
<path d="M0.129206 142.297C0.129206 143.105 -0.161508 143.603 0.129206 144.365C0.41992 145.126 1.91854 145.802 3.25591 146.432C4.59328 147.062 12.1157 147.387 13.976 146.845C15.8364 146.303 17.5773 146.18 18.4428 144.778C19.3082 143.376 18.9944 142.175 18.4428 140.643C17.8911 139.112 14.9628 136.965 13.976 136.509C12.9893 136.052 12.3734 135.902 11.296 135.682C10.2186 135.462 6.38264 135.268 5.04262 136.095C3.7026 136.922 3.35535 136.886 2.36257 137.749C1.36978 138.613 0.806947 139.451 0.575897 140.23C0.344848 141.008 0.129206 141.49 0.129206 142.297Z" fill="#804B1E"/>
<path d="M44.3497 80.278C42.5464 81.0543 41.1373 81.8849 40.3297 83.1722C39.5221 84.4595 38.9278 85.4811 39.4364 86.8933C39.9449 88.3056 41.1902 88.5987 42.5631 89.3741C43.9359 90.1495 54.5904 90.1495 55.9632 89.3741C57.3361 88.5987 58.6203 88.3171 59.0899 86.8933C59.5533 85.4884 58.472 84.1766 57.3485 82.8136L57.3032 82.7587C56.1638 81.376 54.8337 80.548 52.8365 79.8645C50.8394 79.181 46.1531 79.5016 44.3497 80.278Z" fill="#43270F"/>
<path d="M22.9095 156.355C22.5957 157.251 22.332 158.888 22.9095 159.663C23.4869 160.438 24.2077 160.533 25.1428 160.903C26.078 161.273 29.8172 161.673 31.3963 161.316C32.9753 160.96 34.3196 160.728 35.1553 159.663C35.991 158.597 35.9646 157.197 35.863 156.355C35.7613 155.513 35.6363 155.008 35.1553 154.288C34.6743 153.567 33.9857 152.988 33.1829 152.634C32.3802 152.279 31.8357 152.292 30.9496 152.22C30.0635 152.149 28.0991 152.205 26.9295 152.634C25.76 153.062 24.9337 153.591 24.2495 154.288C23.5653 154.984 23.2233 155.459 22.9095 156.355Z" fill="#633916"/>
<path d="M101.97 189.018C103.697 188.789 105.415 189.016 106.437 189.432C107.46 189.848 107.798 190.44 108.671 191.086C109.543 191.732 109.92 191.833 110.457 192.74C110.994 193.646 111.345 194.817 110.904 195.634C110.463 196.451 109.463 196.33 108.671 196.874C107.878 197.418 99.9759 197.382 98.8438 196.874C97.7116 196.367 96.7313 196.221 96.1637 195.22C95.5961 194.22 95.8891 193.792 96.1637 192.74C96.4383 191.687 97.1293 191.444 97.9504 190.672C98.7715 189.9 100.244 189.248 101.97 189.018Z" fill="#5E3716"/>
<path d="M291.806 209.278C291.302 210.483 291.138 211.283 291.806 212.172C292.474 213.061 293.146 212.999 294.039 212.999H300.293C301.633 212.999 303.874 212.638 304.313 211.759C304.752 210.879 304.588 210.213 304.313 209.278C304.038 208.343 302.835 207.728 302.08 207.211C301.324 206.694 301.202 206.191 300.293 205.97C299.384 205.75 297.198 205.404 295.379 205.97C293.561 206.536 292.31 208.073 291.806 209.278Z" fill="#43270F"/>
<path d="M444.121 186.538C443.813 187.583 443.517 189.501 444.121 190.259C444.725 191.016 445.432 191.102 446.355 191.499C447.277 191.896 447.961 192.092 449.035 192.326C450.109 192.56 454.589 192.532 456.181 192.326C457.774 192.12 459.056 191.98 460.202 191.499C461.347 191.018 462.314 190.846 462.882 189.845C463.449 188.845 463.23 188.034 462.882 186.951C462.533 185.868 461.885 185.377 461.095 184.47C460.305 183.564 459.222 182.434 458.415 181.99C457.608 181.545 457.087 181.394 456.181 181.163C455.276 180.931 451.452 180.943 450.375 181.163C449.297 181.382 448.641 181.464 447.695 181.99C446.749 182.515 446.141 183.175 445.461 184.057C444.781 184.938 444.429 185.493 444.121 186.538Z" fill="#804B1E"/>
<path d="M459.755 105.499C458.772 106.373 458.329 106.35 457.968 107.566C457.737 108.345 457.681 108.871 457.968 109.634C458.417 110.824 459.286 111.288 460.648 111.288H463.775C465.335 111.288 465.562 110.874 467.795 110.047C468.94 109.623 469.038 107.834 468.688 106.74C468.371 105.748 468.162 105.794 467.348 105.086C467.348 105.086 466.186 104.139 465.115 103.845C463.932 103.521 461.988 103.845 461.988 103.845C460.958 104.245 460.56 104.783 459.755 105.499Z" fill="#5E3716"/>
<path d="M499.509 142.711C498.653 143.376 498.615 143.951 498.169 144.365C497.17 145.289 497.204 146.719 497.722 147.259L497.797 147.337C498.301 147.863 498.91 148.499 499.509 148.499H503.975C503.975 148.499 505.771 148.516 506.655 147.672C507.423 146.939 508.06 146.211 507.995 145.191C507.94 144.323 507.549 143.951 507.102 143.538C506.396 142.884 505.899 141.87 504.869 141.47C503.421 140.909 502.28 140.874 500.849 141.47C500.275 141.709 499.99 142.336 499.509 142.711Z" fill="#804B1E"/>
<path d="M482.088 169.999C480.591 170.434 479.295 171.74 478.515 172.48C477.735 173.22 477.064 173.629 476.728 174.547C476.393 175.465 476.29 176.148 476.728 177.028C477.147 177.868 477.886 178.199 478.826 178.621L478.962 178.682C479.966 179.134 481.678 179.007 483.428 179.095C485.179 179.183 487.615 179.516 488.789 179.095C489.962 178.675 490.845 178.452 491.469 177.441C492.093 176.431 491.698 174.824 491.469 174.134C491.239 173.444 491.019 173.074 490.575 172.48C490.131 171.886 489.621 171.316 488.789 170.826C487.956 170.336 487.192 170.191 486.109 169.999C485.025 169.807 483.586 169.564 482.088 169.999Z" fill="#43270F"/>
<path d="M330.22 28.7116C331.717 29.514 333.793 31.1923 333.793 31.1923L335.133 31.3474C335.133 31.3474 337.237 29.4451 338.707 28.7116C340.177 27.978 341.126 27.5433 342.727 27.4712C344.328 27.399 345.531 28.0988 346.747 28.2981C347.962 28.4974 348.933 28.3796 349.874 28.7116C350.814 29.0435 352.107 29.9519 352.107 29.9519L350.32 27.4712C350.32 27.4712 348.165 25.4304 346.747 24.1635C344.7 22.3345 343.93 20.6496 341.387 19.6154C338.317 18.3668 336.147 18.9513 332.9 19.6154C329.95 20.2187 328.218 20.7797 325.753 22.5096C323.95 23.7752 321.733 26.4671 321.733 26.4671C321.733 26.4671 327.198 27.0922 330.22 28.7116Z" fill="#814C1D"/>
<path d="M302.08 29.125L333.793 31.1923C333.793 31.1923 331.717 29.514 330.22 28.7116C327.198 27.0922 321.733 26.4671 321.733 26.4671L320.84 26.2308C320.84 26.2308 318.518 24.6452 316.82 24.1635C314.47 23.497 312.958 23.6679 310.566 24.1635C306.807 24.9425 302.08 29.125 302.08 29.125Z" fill="#5E3716"/>
<path d="M356.127 30.7789C354.59 30.3239 352.107 29.9519 352.107 29.9519C352.107 29.9519 350.814 29.0435 349.874 28.7116C348.933 28.3796 347.962 28.4974 346.747 28.2981C345.531 28.0988 344.328 27.399 342.727 27.4712C341.126 27.5433 340.177 27.978 338.707 28.7116C337.237 29.4451 335.133 31.3474 335.133 31.3474C335.133 31.3474 362.866 35.1749 362.38 34.5C361.895 33.8252 361.648 33.4136 361.04 32.8462C360.433 32.2788 357.664 31.2339 356.127 30.7789Z" fill="#5E3716"/>
<path d="M295.379 13.8269C294.935 15.0619 294.294 19.0215 295.379 19.2019C296.465 19.3823 297.076 18.8368 298.06 18.375C299.044 17.9132 301.127 16.5221 301.633 15.4808C302.139 14.4394 302.355 13.3525 302.08 12.5866C301.804 11.8207 301.47 11.3742 300.74 10.9327C300.009 10.4913 298.375 10.2869 297.166 10.9327C295.958 11.5786 295.824 12.592 295.379 13.8269Z" fill="#5E3716"/>
<path d="M308.78 3.90386C308.542 4.74501 308.314 7.51206 308.78 8.45194L308.826 8.54507C309.267 9.43725 309.59 10.0922 310.566 10.5192C311.576 10.9611 314.657 7.26485 315.033 6.79809C315.409 6.33133 315.677 6.09206 315.926 5.5577C316.176 5.02335 316.551 3.26095 315.926 2.25001C315.302 1.23907 314.489 0.779279 313.246 0.596162C312.004 0.413046 310.276 1.16953 309.673 1.83655C309.07 2.50357 309.018 3.0627 308.78 3.90386Z" fill="#814C1D"/>
<path d="M230.165 4.20077C229.307 3.6953 227.641 3.74172 227.039 4.20077C226.436 4.65981 226.408 5.17458 226.145 5.85461C225.883 6.53465 225.379 7.8945 225.699 9.16231C226.018 10.4301 229.617 13.3526 230.612 12.8835C231.607 12.4144 231.994 11.7799 232.399 10.8162C232.803 9.85243 231.918 7.12875 231.505 6.26808C231.093 5.4074 231.023 4.70624 230.165 4.20077Z" fill="#5E3716"/>
<path d="M241.779 17.0181C240.487 17.4189 239.696 17.9521 239.099 19.0854C238.501 20.2187 238.328 21.3973 239.099 22.5443C239.869 23.6914 241.198 23.6578 242.672 24.0469C244.146 24.4361 246.172 25.6611 247.586 24.4604C249 23.2597 248.025 21.0033 247.586 19.9123C247.146 18.8213 246.837 18.0885 245.799 17.4315C244.76 16.7746 243.071 16.6172 241.779 17.0181Z" fill="#814C1D"/>
<path d="M211.405 15.7778C208.369 16.0131 203.812 17.845 203.812 17.845H194.432C192.198 17.845 189.026 18.2965 186.392 20.3258L186.246 20.4377C184.568 21.7295 183.92 22.2287 183.265 24.047C182.371 26.5278 182.371 29.8355 182.371 29.8355L225.252 27.3546C225.252 27.3546 225.36 25.8375 225.252 24.8739C225.144 23.9102 225.071 21.6505 223.912 19.9124C223.197 18.8392 222.125 17.8451 221.232 17.4316C219.081 16.4359 215.072 15.4935 211.405 15.7778Z" fill="#5E3716"/>
<path d="M165.398 24.8739C164.554 26.9951 164.951 30.6623 164.951 30.6623L182.371 29.8355C182.371 29.8355 182.371 26.5278 183.265 24.047C183.92 22.2287 184.568 21.7295 186.246 20.4377L186.392 20.3258C189.026 18.2965 192.198 17.845 194.432 17.845H203.812C203.812 17.845 202.025 15.7597 197.558 13.7104C196.223 13.0978 195.433 12.7958 193.985 12.4701C192.45 12.1249 189.965 12.0565 189.965 12.0565C189.965 12.0565 184.601 12.0588 181.925 13.7104C179.245 15.3643 178.351 18.2585 176.118 19.9123C175.028 20.7192 173.94 19.9123 172.545 19.9123C171.149 19.9123 168.525 20.7393 168.078 21.1528C166.291 22.8067 166.17 22.9336 165.398 24.8739Z" fill="#814C1D"/>
<path d="M440.101 178.268C439.114 178.753 438.452 179.455 438.315 179.922C438.177 180.39 438.12 180.743 438.315 181.163C438.509 181.582 438.777 181.768 439.208 181.99C439.639 182.211 440.569 181.99 441.441 181.99H443.675C443.675 181.99 444.979 181.897 445.015 181.576C445.05 181.255 445.674 179.921 445.461 179.509C445.248 179.097 445.404 178.962 445.015 178.682C444.625 178.401 443.894 178.153 443.228 177.855C442.561 177.557 441.088 177.784 440.101 178.268Z" fill="#33200F"/>
</svg>
