<svg width="304" height="288" viewBox="0 0 304 288" fill="none" xmlns="http://www.w3.org/2000/svg">
<rect x="2" y="30" width="288.859" height="256.007" rx="38" fill="url(#paint0_radial_771_74)" stroke="url(#paint1_linear_771_74)" stroke-width="4"/>
<g filter="url(#filter0_n_771_74)">
<path d="M267.639 18.095C267.639 18.095 264.525 10.481 268.196 8.7912C270.397 7.77822 272.011 8.82876 274.705 9.56184C277.399 10.2949 279.243 10.2698 280.87 13.133C283.192 17.2211 276.179 21.021 276.179 21.021L267.639 18.095Z" fill="#B57F4A"/>
<path d="M267.639 18.095C267.639 18.095 264.525 10.481 268.196 8.7912C270.397 7.77822 272.011 8.82876 274.705 9.56184C277.399 10.2949 279.243 10.2698 280.87 13.133C283.192 17.2211 276.179 21.021 276.179 21.021L267.639 18.095Z" stroke="#80592B" stroke-linecap="round"/>
</g>
<path d="M264.149 26.5689L266.386 20.0396C266.386 20.0396 261.028 15.6463 263.884 13.8322C266.74 12.0181 268.447 17.0977 273.264 18.7479C278.223 20.4468 279.047 19.0268 279.047 19.0268C279.047 19.0268 283.927 20.3345 284.035 22.4381C284.144 24.5417 277.407 23.815 277.407 23.815L275.17 30.3443C275.17 30.3443 282.307 44.5467 280.376 52.7991C277.496 65.1126 265.543 66.4429 265.543 66.4429L249.04 60.7888C249.04 60.7888 237.191 54.5407 242.934 39.9716C248.677 25.4027 264.149 26.5689 264.149 26.5689Z" fill="#B8DDE4" fill-opacity="0.64" stroke="#2D3C5D" stroke-linecap="round"/>
<g filter="url(#filter1_n_771_74)">
<path d="M278.577 59.4523L241.887 44.3755C241.887 44.3755 242.537 41.5957 243.521 39.6073C244.504 37.6189 246.542 35.3144 246.542 35.3144L280.723 50.4722C280.723 50.4722 280.539 53.7249 279.826 55.8061L278.577 59.4523Z" fill="#D9A847" fill-opacity="0.91"/>
<path d="M278.577 59.4523L241.887 44.3755C241.887 44.3755 242.537 41.5957 243.521 39.6073C244.504 37.6189 246.542 35.3144 246.542 35.3144L280.723 50.4722C280.723 50.4722 280.539 53.7249 279.826 55.8061L278.577 59.4523Z" stroke="#80592B"/>
</g>
<path d="M248.783 45.3638C248.763 45.3554 248.744 45.3437 248.727 45.3286L248.665 45.2792C248.657 45.2603 248.66 45.2375 248.672 45.2108L248.695 45.1608C248.763 45.1337 248.81 45.0934 248.834 45.0401L248.866 44.97C248.866 44.97 248.866 44.9539 248.864 44.9216C248.857 44.9027 248.855 44.8899 248.858 44.8832C248.849 44.9032 248.879 44.8802 248.95 44.8141C248.95 44.8141 248.958 44.778 248.975 44.7057C248.982 44.7246 249.032 44.6421 249.124 44.4581C249.127 44.4353 249.142 44.3939 249.169 44.3338L249.207 44.278C249.223 44.2608 249.234 44.2455 249.24 44.2322C249.23 44.2522 249.228 44.2394 249.233 44.1938L249.297 44.0537L249.318 43.9552L249.329 43.8768L249.418 43.7351L249.503 43.6034L249.528 43.495L249.534 43.4023C249.538 43.4118 249.551 43.4012 249.573 43.3707L249.591 43.3307C249.587 43.3212 249.588 43.3098 249.594 43.2964C249.627 43.2782 249.66 43.276 249.694 43.29C249.728 43.304 249.753 43.3024 249.769 43.2852L249.706 43.2116L249.71 43.2016C249.725 43.1682 249.722 43.0956 249.701 42.9837L249.761 42.9846L249.779 42.9446L249.787 42.9004L249.833 42.8003C249.876 42.707 249.933 42.6434 250.005 42.6096C250 42.584 249.997 42.555 249.996 42.5228L250.001 42.5128C250.016 42.4794 250.06 42.4539 250.132 42.4363C250.208 42.412 250.26 42.3859 250.289 42.3582C250.295 42.3448 250.288 42.2903 250.267 42.1945L250.244 42.0066C250.247 42 250.245 41.9872 250.237 41.9682L250.241 41.934C250.247 41.9207 250.256 41.9087 250.269 41.8982L250.293 41.8724C250.348 41.7523 250.38 41.6903 250.39 41.6865C250.501 41.5498 250.549 41.4982 250.533 41.5315C250.552 41.3329 250.564 41.2269 250.57 41.2136L250.655 41.1061L250.736 41.0086L250.768 40.8318C250.771 40.8251 250.781 40.8131 250.797 40.7959C250.816 40.772 250.839 40.7382 250.867 40.6943C250.87 40.6876 250.882 40.6804 250.901 40.6726C250.921 40.6649 250.934 40.6543 250.94 40.641L250.946 40.5484C250.94 40.4905 250.939 40.4582 250.942 40.4515C250.954 40.4248 250.982 40.4085 251.025 40.4025C251.025 40.4025 251.024 40.3863 251.023 40.3541C251.008 40.3323 251.003 40.3181 251.006 40.3114C251.03 40.2581 251.082 40.2159 251.16 40.1849C251.246 40.1567 251.301 40.116 251.325 40.0626L251.358 40.0168C251.374 39.9996 251.386 39.981 251.396 39.9609C251.405 39.9409 251.38 39.915 251.322 39.8831C251.267 39.8446 251.24 39.8253 251.24 39.8253C251.261 39.7787 251.312 39.7123 251.391 39.6262C251.388 39.6167 251.372 39.6064 251.345 39.5952C251.363 39.5552 251.391 39.4676 251.429 39.3325C251.472 39.3264 251.507 39.329 251.534 39.3402C251.636 39.3822 251.706 39.4311 251.745 39.4868L251.813 39.4436C251.817 39.453 251.819 39.4658 251.82 39.482C251.83 39.4942 251.834 39.5118 251.832 39.5346C251.837 39.5763 251.853 39.6028 251.88 39.614C251.894 39.6196 251.924 39.6161 251.97 39.6034C252.013 39.5973 252.041 39.5971 252.055 39.6027L252.075 39.6111C252.079 39.6206 252.084 39.6267 252.091 39.6295C252.104 39.6351 252.131 39.6302 252.17 39.6147C252.213 39.6087 252.238 39.6071 252.245 39.6099C252.258 39.6155 252.284 39.6381 252.323 39.6777L252.375 39.7471L252.542 39.78L252.698 39.8088C252.718 39.8172 252.733 39.8275 252.744 39.8398C252.751 39.8587 252.764 39.8757 252.781 39.8908C252.798 39.9058 252.804 39.92 252.798 39.9334L252.789 39.9534C252.793 39.9629 252.801 39.9704 252.815 39.976C252.876 40.0012 252.916 40.0018 252.935 39.978L253.036 40.0199C253.035 40.075 253.055 40.111 253.096 40.1278C253.123 40.1389 253.146 40.1407 253.166 40.1329C253.195 40.1213 253.239 40.1153 253.295 40.1149C253.299 40.1243 253.298 40.1438 253.293 40.1733C253.29 40.1961 253.285 40.2256 253.276 40.2617C253.284 40.2807 253.298 40.2943 253.318 40.3027C253.366 40.3223 253.384 40.3341 253.374 40.3379C253.394 40.3302 253.407 40.3196 253.413 40.3063L253.555 40.3651L253.505 40.582C253.512 40.6009 253.519 40.6118 253.526 40.6146L253.561 40.6172C253.571 40.6133 253.579 40.6128 253.586 40.6156C253.654 40.6436 253.701 40.6907 253.727 40.757C253.741 40.7787 253.745 40.8319 253.739 40.9164C253.749 40.9287 253.761 40.9652 253.773 41.0259L253.752 41.1001C253.752 41.1162 253.748 41.1343 253.739 41.1543C253.733 41.1677 253.727 41.1891 253.722 41.2186C253.761 41.2743 253.766 41.3322 253.739 41.3922C253.708 41.4589 253.648 41.4936 253.559 41.4961C253.63 41.6048 253.659 41.7001 253.646 41.7818C253.673 41.793 253.677 41.8186 253.659 41.8587L253.494 42.2189C253.5 42.2055 253.477 42.2314 253.423 42.2963C253.424 42.3286 253.401 42.3786 253.354 42.4464C253.328 42.4514 253.265 42.4732 253.167 42.5119C253.172 42.5375 253.194 42.5587 253.235 42.5755C253.239 42.585 253.237 42.5964 253.231 42.6097L253.207 42.6356L253.173 42.6572L253.137 42.7372C253.134 42.7439 253.096 42.7561 253.023 42.7737L252.977 42.8495C252.967 42.8534 252.954 42.864 252.938 42.8812C252.925 42.8917 252.911 42.9056 252.895 42.9228C252.848 42.9194 252.797 42.9259 252.741 42.9425C252.697 43.0036 252.613 43.064 252.489 43.1238C252.475 43.1183 252.447 43.1185 252.404 43.1245L252.386 43.1645C252.396 43.1768 252.405 43.1924 252.413 43.2113C252.427 43.2331 252.441 43.2548 252.455 43.2765C252.454 43.3155 252.461 43.37 252.477 43.4402C252.488 43.4525 252.498 43.4647 252.509 43.477C252.519 43.4893 252.532 43.5063 252.546 43.528C252.54 43.5413 252.532 43.558 252.523 43.578C252.524 43.5942 252.522 43.617 252.516 43.6465C252.548 43.6833 252.585 43.7343 252.628 43.7995C252.628 43.8156 252.624 43.8337 252.615 43.8537C252.616 43.8698 252.606 43.8899 252.587 43.9137C252.578 43.9338 252.576 43.9646 252.581 44.0064L252.554 44.0664C252.575 44.091 252.588 44.116 252.592 44.1416L252.488 44.396L252.351 44.6962C252.366 44.6628 252.37 44.6803 252.363 44.7488C252.334 44.7765 252.31 44.8299 252.29 44.9089L252.252 45.0716L252.2 45.1332L252.154 45.2333L252.067 45.2923C252.061 45.3057 252.059 45.3171 252.063 45.3265L252.05 45.3808C252.05 45.3808 252.043 45.3974 252.028 45.4308C252.015 45.4575 251.992 45.4994 251.958 45.5567C251.905 45.5666 251.866 45.5901 251.841 45.6274L251.805 45.7074C251.786 45.7313 251.732 45.7687 251.645 45.8197L251.418 45.8926C251.415 45.8993 251.4 45.9132 251.375 45.9343C251.332 45.9564 251.247 45.9846 251.119 46.0188C251.105 46.0132 251.087 46.0095 251.063 46.0078C251.05 46.0022 251.028 45.9972 250.998 45.9926C250.971 45.9976 250.936 46.0031 250.893 46.0091C250.857 46.0179 250.814 46.0239 250.764 46.0271C250.724 46.0103 250.651 45.9924 250.547 45.9732C250.427 45.9712 250.354 45.9647 250.327 45.9535L250.265 45.9041C250.254 45.8918 250.244 45.8795 250.233 45.8673C250.22 45.8617 250.209 45.8575 250.203 45.8547C250.196 45.868 250.161 45.8654 250.097 45.8469C250.051 45.8435 249.997 45.8292 249.936 45.804L249.522 45.5976C249.461 45.5725 249.406 45.5615 249.356 45.5647C249.333 45.563 249.314 45.5593 249.301 45.5537C249.284 45.5548 249.269 45.5525 249.255 45.5469L249.168 45.4749L249.066 45.4329C249.032 45.419 248.998 45.405 248.964 45.391C248.934 45.3864 248.904 45.3819 248.874 45.3774L248.783 45.3638ZM251.648 40.1485C251.689 40.1653 251.734 40.164 251.783 40.1447C251.788 40.1152 251.808 40.0718 251.842 40.0146L251.902 40.0156C251.952 39.9962 251.952 39.9687 251.904 39.9329C251.904 39.9329 251.891 39.9159 251.867 39.8819C251.859 39.863 251.852 39.8521 251.845 39.8493C251.825 39.8409 251.803 39.8634 251.778 39.9168L251.662 40.0117C251.624 40.0433 251.602 40.0658 251.595 40.0791C251.604 40.1142 251.621 40.1373 251.648 40.1485ZM253.139 40.6688C253.194 40.6361 253.204 40.5966 253.169 40.5503C253.149 40.558 253.133 40.5753 253.121 40.6019C253.118 40.6086 253.124 40.6309 253.139 40.6688ZM253.375 40.8137C253.385 40.8099 253.384 40.7937 253.373 40.7653L253.333 40.7727C253.337 40.7822 253.342 40.7883 253.349 40.7911C253.362 40.7967 253.371 40.8043 253.375 40.8137ZM253.316 40.968C253.329 40.9575 253.332 40.9427 253.324 40.9238C253.324 40.9077 253.309 40.9054 253.279 40.917C253.27 40.937 253.282 40.954 253.316 40.968ZM251.322 42.3448L251.388 42.36C251.411 42.3617 251.433 42.3667 251.453 42.3751C251.561 42.3325 251.619 42.3126 251.625 42.3154C251.625 42.3154 251.643 42.3305 251.677 42.3606C251.689 42.389 251.698 42.4047 251.704 42.4075L251.739 42.41L251.767 42.35C251.791 42.2966 251.813 42.2661 251.833 42.2583C251.849 42.2573 251.878 42.2651 251.919 42.2819L251.945 42.3045C251.948 42.314 251.954 42.3201 251.96 42.3229L251.991 42.3355C252.011 42.3278 252.03 42.32 252.05 42.3123C252.07 42.3045 252.091 42.2935 252.113 42.279L252.159 42.179C252.178 42.1551 252.197 42.1312 252.216 42.1073C252.235 42.0834 252.257 42.061 252.283 42.0399C252.282 42.0237 252.292 42.0037 252.31 41.9798L252.358 41.9282L252.381 41.8782C252.464 41.8016 252.509 41.7566 252.515 41.7433L252.518 41.4469C252.53 41.4364 252.54 41.4244 252.546 41.4111C252.555 41.3911 252.566 41.3758 252.579 41.3653L252.597 41.0873C252.603 41.0579 252.588 41.0361 252.554 41.0221L252.519 41.0196C252.51 41.0234 252.498 41.0226 252.484 41.017C252.478 41.0142 252.467 40.9938 252.452 40.9559C252.437 40.9181 252.423 40.8963 252.409 40.8907L252.379 40.8781C252.369 40.882 252.357 40.8812 252.343 40.8756L252.266 40.8078L252.183 40.75C252.17 40.7444 252.127 40.7504 252.054 40.768L252.045 40.788C252.036 40.808 252.012 40.8258 251.972 40.8413C251.937 40.8662 251.916 40.8773 251.909 40.8745C251.906 40.8812 251.891 40.8951 251.866 40.9162C251.828 40.8927 251.809 40.8648 251.807 40.8325L251.861 40.7951C251.846 40.7572 251.814 40.7285 251.767 40.7089C251.747 40.7005 251.722 40.7102 251.693 40.738L251.767 40.8158C251.77 40.8252 251.771 40.8414 251.769 40.8642C251.769 40.8803 251.772 40.9012 251.776 40.9268C251.803 40.938 251.827 40.9559 251.848 40.9804C251.839 40.9843 251.825 41.0062 251.806 41.0462C251.81 41.0557 251.811 41.0718 251.808 41.0947C251.809 41.1108 251.812 41.1317 251.816 41.1573L251.819 41.2299L251.623 41.6602C251.617 41.6735 251.609 41.6821 251.599 41.686L251.579 41.7018C251.537 41.7952 251.523 41.8333 251.539 41.8161C251.492 41.8677 251.464 41.8921 251.458 41.8893L251.46 41.9377C251.461 41.97 251.462 41.9862 251.462 41.9862C251.453 42.0062 251.424 42.0339 251.375 42.0694C251.365 42.0733 251.345 42.1086 251.315 42.1753L251.286 42.318L251.322 42.3448ZM250.768 40.8318C250.765 40.8384 250.764 40.8418 250.764 40.8418L250.768 40.8318ZM253.006 41.8863C253.019 41.8919 253.036 41.8908 253.056 41.8831C253.075 41.8754 253.078 41.8606 253.064 41.8389C253.043 41.8305 253.024 41.8463 253.006 41.8863ZM250.707 41.865C250.71 41.8583 250.706 41.8408 250.695 41.8124L250.666 41.824C250.669 41.8335 250.675 41.8396 250.681 41.8424C250.695 41.848 250.704 41.8555 250.707 41.865ZM250.644 42.0293C250.657 42.0188 250.66 42.004 250.653 41.9851C250.649 41.9756 250.63 41.972 250.597 41.9741C250.588 41.9941 250.604 42.0125 250.644 42.0293ZM251.566 43.0282C251.576 43.0404 251.591 43.0427 251.611 43.035C251.621 43.0311 251.625 43.013 251.624 42.9807C251.603 42.9723 251.584 42.9881 251.566 43.0282ZM251.426 43.1489L251.305 42.9917L251.301 43.0259L251.426 43.1489ZM250.252 44.793C250.266 44.7986 250.291 44.797 250.327 44.7882C250.377 44.785 250.409 44.7862 250.422 44.7918C250.466 44.8019 250.501 44.8125 250.528 44.8237C250.559 44.8282 250.58 44.8333 250.594 44.8389L250.63 44.8657C250.634 44.8752 250.642 44.8827 250.656 44.8883C250.683 44.8995 250.722 44.9035 250.771 44.9003L250.825 44.8628L251.014 44.8457L251.038 44.7131C251.055 44.712 251.088 44.7018 251.137 44.6824C251.172 44.6575 251.204 44.615 251.231 44.5549L251.252 44.4565L251.268 44.368C251.274 44.3547 251.297 44.3403 251.336 44.3248C251.372 44.2998 251.391 44.284 251.394 44.2774L251.383 44.2489C251.376 44.23 251.373 44.2172 251.376 44.2105C251.386 44.1905 251.412 44.1856 251.456 44.1957C251.462 44.1985 251.463 44.179 251.458 44.1373C251.446 44.0766 251.439 44.0462 251.439 44.0462C251.475 43.9501 251.498 43.9 251.508 43.8962C251.476 43.772 251.465 43.6999 251.474 43.6799C251.489 43.6465 251.511 43.624 251.541 43.6124C251.551 43.6085 251.553 43.5857 251.548 43.544L251.436 43.4978C251.416 43.4894 251.403 43.4724 251.399 43.4468L251.412 43.3926L251.131 43.265L251.084 43.2098L251.022 43.1604L250.912 43.1627L250.807 43.3928C250.78 43.4528 250.752 43.5048 250.724 43.5487C250.703 43.5954 250.681 43.634 250.659 43.6646C250.624 43.7057 250.602 43.7282 250.592 43.732C250.62 43.7755 250.625 43.8173 250.607 43.8573L250.429 44.2475C250.426 44.2542 250.415 44.2614 250.395 44.2691C250.375 44.2769 250.362 44.2874 250.356 44.3008C250.326 44.3675 250.297 44.4389 250.271 44.5151C250.247 44.5846 250.225 44.6588 250.205 44.7378L250.252 44.793ZM251.781 43.8542C251.794 43.8437 251.793 43.8275 251.779 43.8058C251.775 43.7963 251.76 43.7941 251.733 43.799C251.724 43.819 251.74 43.8374 251.781 43.8542ZM249.914 44.2371C249.937 44.2388 249.961 44.2406 249.984 44.2423C250.008 44.244 250.033 44.2424 250.059 44.2375L249.964 44.127L249.914 44.2371ZM251.795 45.1206C251.875 45.138 251.933 45.1618 251.967 45.1919L251.999 45.1219C251.981 45.0745 251.961 45.0467 251.941 45.0383C251.9 45.0215 251.849 45.0361 251.788 45.0821L251.795 45.1206ZM250.889 45.5433C250.895 45.5299 250.894 45.5138 250.887 45.4949C250.886 45.4787 250.871 45.4765 250.841 45.4881C250.832 45.5081 250.848 45.5265 250.889 45.5433ZM254.745 47.8014L254.677 47.7378C254.595 47.6881 254.518 47.6445 254.447 47.607C254.379 47.5791 254.32 47.5505 254.268 47.5215L254.178 47.5079L253.961 47.3471L253.856 47.3394L253.59 47.1818L253.433 47.1288C253.419 47.1232 253.404 47.121 253.387 47.1221L253.342 47.1153L252.943 46.8789L252.862 46.8695C252.852 46.8573 252.834 46.8422 252.81 46.8243C252.793 46.8093 252.772 46.7928 252.748 46.775L252.709 46.7824C252.698 46.7701 252.666 46.7528 252.612 46.7304L252.587 46.732L252.404 46.6564C252.302 46.6145 252.287 46.541 252.359 46.436L252.439 46.3143C252.467 46.2704 252.487 46.2351 252.5 46.2084C252.515 46.1751 252.527 46.1484 252.536 46.1284C252.549 46.1178 252.57 46.1067 252.6 46.0951C252.632 46.0768 252.68 46.0608 252.742 46.047L252.752 46.027L252.659 45.965L252.667 45.9208C252.688 45.8741 252.719 45.843 252.758 45.8276C252.823 45.791 252.868 45.7541 252.893 45.7169C252.862 45.6962 252.851 45.6597 252.859 45.6074L252.878 45.4848C252.878 45.4848 252.926 45.3975 253.022 45.223L253.08 45.2824C253.089 45.2785 253.102 45.2599 253.117 45.2266L253.145 45.1665C253.133 45.1381 253.126 45.1111 253.121 45.0855L253.12 45.0613C253.126 45.0479 253.145 45.0241 253.177 44.9896C253.209 44.9552 253.225 44.938 253.225 44.938C253.237 44.9113 253.234 44.8824 253.216 44.8512C253.228 44.8245 253.25 44.7939 253.282 44.7595C253.282 44.7595 253.28 44.7467 253.275 44.7211C253.285 44.7011 253.293 44.6925 253.299 44.6953C253.308 44.6591 253.328 44.6238 253.36 44.5894C253.395 44.5644 253.413 44.552 253.413 44.552L253.438 44.4435C253.447 44.4074 253.451 44.3812 253.45 44.3651C253.453 44.3423 253.455 44.3275 253.458 44.3208C253.464 44.3075 253.487 44.2931 253.526 44.2776C253.566 44.2621 253.588 44.2477 253.594 44.2344C253.594 44.2344 253.597 44.2115 253.602 44.1659C253.59 44.1375 253.586 44.12 253.589 44.1133L253.718 43.9642C253.69 43.9369 253.702 43.894 253.752 43.8357L253.838 43.7282C253.846 43.6921 253.851 43.6626 253.854 43.6398C253.863 43.6198 253.871 43.6031 253.877 43.5898L253.961 43.4581L254.044 43.409C254.043 43.3929 254.045 43.362 254.05 43.3164L254.133 43.1605C254.131 43.1121 254.132 43.0845 254.135 43.0779L254.294 42.9413C254.294 42.9413 254.292 42.9366 254.288 42.9271C254.291 42.9205 254.292 42.9091 254.292 42.8929C254.301 42.8729 254.311 42.8496 254.324 42.8229C254.346 42.7923 254.371 42.7551 254.399 42.7112L254.433 42.5827C254.437 42.5922 254.467 42.545 254.522 42.441L254.529 42.3726C254.529 42.3565 254.526 42.3437 254.523 42.3342C254.526 42.3275 254.529 42.3209 254.532 42.3142C254.545 42.3036 254.557 42.2931 254.57 42.2826C254.583 42.272 254.594 42.2567 254.603 42.2367L254.765 41.9349L255.139 41.1971C255.209 41.131 255.252 41.0813 255.267 41.048L255.28 40.9937C255.286 40.9804 255.287 40.969 255.283 40.9595C255.28 40.9501 255.279 40.942 255.282 40.9353L255.327 40.811C255.333 40.7977 255.363 40.7666 255.418 40.7178C255.442 40.7356 255.469 40.7549 255.5 40.7756C255.534 40.7896 255.565 40.8102 255.593 40.8376C255.604 40.866 255.625 40.8986 255.657 40.9354C255.664 40.9382 255.683 40.9304 255.716 40.9121C255.745 40.9005 255.767 40.8975 255.78 40.9031L255.823 40.9683C255.852 41.0118 255.903 41.057 255.979 41.1039C256.004 41.0828 256.027 41.0684 256.047 41.0607L256.133 41.0842C256.163 41.0888 256.188 41.0952 256.208 41.1036L256.235 41.1504C256.243 41.1694 256.262 41.1811 256.292 41.1856L256.403 41.2076C256.433 41.2121 256.455 41.2172 256.468 41.2228C256.482 41.2284 256.492 41.2326 256.499 41.2354L256.659 41.361C256.676 41.3599 256.691 41.3621 256.704 41.3677C256.728 41.3695 256.754 41.3726 256.784 41.3771L256.867 41.4349C256.861 41.4644 256.876 41.4861 256.91 41.5001C256.916 41.5029 256.938 41.4999 256.974 41.4911C257.013 41.4756 257.033 41.4759 257.034 41.4921C257.034 41.4921 257.051 41.5071 257.086 41.5373C257.106 41.5295 257.127 41.5265 257.15 41.5282L257.213 41.5776C257.223 41.5899 257.23 41.6008 257.234 41.6102C257.244 41.6225 257.253 41.63 257.26 41.6328L257.315 41.6438C257.309 41.6572 257.309 41.6928 257.315 41.7507C257.337 41.7363 257.35 41.7096 257.351 41.6706L257.446 41.6742C257.457 41.6865 257.473 41.7049 257.494 41.7294C257.515 41.7539 257.539 41.7799 257.567 41.8072C257.561 41.8205 257.563 41.8414 257.575 41.8698L257.605 41.8824L257.698 41.8376C257.715 41.8365 257.733 41.8401 257.753 41.8485C257.781 41.8597 257.809 41.8676 257.839 41.8721L257.906 41.9115L257.712 42.2833C257.666 42.296 257.635 42.319 257.62 42.3524L257.594 42.4366L257.354 42.9085C257.333 42.9552 257.285 42.9632 257.21 42.9324C257.199 42.904 257.185 42.8823 257.167 42.8672C257.143 42.8493 257.108 42.8306 257.06 42.811C257.016 42.7848 256.962 42.7624 256.897 42.7438C256.884 42.7382 256.867 42.7313 256.847 42.7229C256.829 42.7078 256.805 42.6899 256.774 42.6693L256.687 42.6215L256.516 42.5743L256.347 42.493C256.334 42.4874 256.322 42.4784 256.311 42.4662L256.275 42.4394C256.224 42.4103 256.181 42.3888 256.148 42.3748C256.12 42.3636 256.104 42.3566 256.097 42.3538C256.079 42.3226 256.056 42.3014 256.029 42.2902C256.016 42.2846 255.986 42.2881 255.94 42.3008C255.894 42.3135 255.864 42.3171 255.85 42.3115C255.841 42.3315 255.832 42.3434 255.822 42.3473L255.809 42.4015C255.81 42.4177 255.806 42.4357 255.796 42.4558C255.79 42.4691 255.785 42.4905 255.779 42.52C255.699 42.5187 255.618 42.6 255.535 42.764L255.571 42.7908L255.642 42.8202C255.646 42.8296 255.642 42.8477 255.629 42.8744C255.617 42.9011 255.591 42.9222 255.552 42.9376C255.503 42.957 255.478 42.9667 255.478 42.9667C255.478 43.0379 255.466 43.1083 255.442 43.1778C255.436 43.1911 255.409 43.2156 255.361 43.2511C255.312 43.2866 255.28 43.321 255.265 43.3543L255.259 43.3159L255.219 43.3233L255.205 43.3534C255.213 43.3723 255.237 43.3902 255.277 43.407C255.271 43.4203 255.264 43.437 255.255 43.457C255.255 43.4731 255.254 43.4926 255.252 43.5154C255.262 43.5828 255.28 43.622 255.307 43.6332L255.392 43.6326C255.396 43.6421 255.403 43.661 255.414 43.6894C255.435 43.714 255.449 43.7276 255.456 43.7304C255.452 43.721 255.488 43.7121 255.565 43.704C255.623 43.7358 255.668 43.7507 255.701 43.7485C255.728 43.8148 255.751 43.8522 255.771 43.8606L255.812 43.8773L255.897 43.8767C255.903 43.8795 255.915 43.8804 255.932 43.8793C255.948 43.8782 255.965 43.8772 255.982 43.8761L256.052 43.8813C256.072 43.8896 256.09 43.9128 256.105 43.9507C256.123 43.998 256.136 44.0231 256.143 44.0259C256.169 44.0209 256.204 44.0235 256.248 44.0336C256.248 44.0336 256.245 44.0403 256.239 44.0537C256.243 44.0631 256.24 44.0779 256.231 44.0979C256.219 44.1246 256.197 44.1632 256.166 44.2137C256.144 44.2604 256.114 44.3191 256.073 44.3897L256.035 44.4213C256.032 44.4441 256.014 44.4922 255.981 44.5656C255.968 44.5761 255.951 44.5967 255.929 44.6272C255.907 44.6578 255.893 44.6797 255.886 44.6931L255.877 44.7131C255.871 44.7264 255.863 44.7626 255.852 44.8215L255.834 44.8615C255.812 44.9082 255.781 44.9427 255.738 44.9648C255.64 45.0036 255.584 45.0201 255.57 45.0145L255.493 44.9467C255.479 44.9411 255.461 44.9375 255.437 44.9357L255.372 44.9206C255.364 44.9016 255.352 44.8846 255.335 44.8695C255.327 44.8506 255.311 44.8322 255.287 44.8143C255.271 44.8154 255.251 44.8151 255.227 44.8134C255.214 44.8078 255.192 44.8027 255.162 44.7982L255.064 44.722C255.005 44.674 254.965 44.6458 254.945 44.6374L254.834 44.6154C254.821 44.6098 254.814 44.5795 254.815 44.5244C254.846 44.5289 254.87 44.5192 254.889 44.4954L254.899 44.4996C254.913 44.5052 254.933 44.5136 254.96 44.5247C254.987 44.5359 255.013 44.5505 255.037 44.5683L255.066 44.5325L255.075 44.5125C255.084 44.4925 255.081 44.4635 255.066 44.4257C255.059 44.4229 255.046 44.4173 255.025 44.4089C255.015 44.3966 254.997 44.3815 254.973 44.3637C254.954 44.3714 254.935 44.3953 254.917 44.4353C254.899 44.4203 254.871 44.4285 254.833 44.4602C254.825 44.4412 254.797 44.4414 254.748 44.4608L254.716 44.5308C254.696 44.5386 254.672 44.5563 254.643 44.5841C254.587 44.5845 254.551 44.6014 254.535 44.6348C254.535 44.6348 254.539 44.6442 254.547 44.6632C254.55 44.6726 254.549 44.684 254.543 44.6974L254.525 44.7374C254.516 44.7574 254.507 44.7774 254.497 44.7974C254.488 44.8175 254.473 44.8427 254.451 44.8733L254.463 44.9259C254.431 44.9603 254.342 45.0227 254.196 45.1131L254.187 45.1331C254.175 45.1598 254.174 45.1873 254.186 45.2157C254.217 45.1813 254.274 45.1533 254.357 45.1318C254.369 45.1764 254.367 45.2153 254.352 45.2487C254.349 45.2554 254.29 45.2786 254.175 45.3184L254.184 45.4052L254.229 45.412C254.256 45.4232 254.26 45.4488 254.242 45.4888C254.222 45.4966 254.193 45.5163 254.155 45.5479C254.129 45.569 254.11 45.5929 254.098 45.6195L254.115 45.6622C254.112 45.6688 254.071 45.7038 253.994 45.767L253.988 45.8597C253.973 45.893 253.94 45.9033 253.89 45.8903C253.893 45.8998 253.909 45.9101 253.936 45.9213L253.932 45.9555C253.903 45.9672 253.88 45.9816 253.864 45.9988C253.859 46.0444 253.873 46.0776 253.903 46.0982C253.937 46.1122 253.963 46.1267 253.98 46.1418C254.037 46.1575 254.093 46.1766 254.147 46.199C254.202 46.2214 254.259 46.2451 254.32 46.2703C254.315 46.2998 254.326 46.3201 254.353 46.3313C254.366 46.3369 254.411 46.3195 254.485 46.2791C254.526 46.2959 254.536 46.3437 254.516 46.4227L254.547 46.4353C254.556 46.4153 254.567 46.4 254.58 46.3895C254.637 46.3891 254.711 46.4118 254.803 46.4576L254.902 46.558C254.899 46.5647 254.924 46.5792 254.979 46.6016C255.006 46.6128 255.021 46.6231 255.025 46.6326L255.171 46.6572C255.191 46.6656 255.211 46.6659 255.231 46.6581C255.241 46.6543 255.266 46.6607 255.306 46.6775C255.355 46.7132 255.363 46.7645 255.333 46.8312C255.321 46.8579 255.279 46.9237 255.207 47.0287C255.207 47.0287 255.197 47.0326 255.177 47.0403C255.164 47.0509 255.155 47.0628 255.149 47.0761L255.034 47.3263C255.034 47.3263 255.011 47.3246 254.964 47.3211C254.969 47.4341 254.958 47.5206 254.93 47.5806C254.915 47.614 254.879 47.639 254.824 47.6555L254.795 47.7982C254.761 47.8003 254.745 47.8014 254.745 47.8014ZM257.346 42.2391L257.356 42.2433C257.396 42.26 257.441 42.2507 257.489 42.2152C257.481 42.1801 257.47 42.1598 257.457 42.1542L257.303 42.1738C257.311 42.2089 257.325 42.2307 257.346 42.2391ZM257.067 42.3736C257.07 42.367 257.065 42.3494 257.054 42.321C257.054 42.321 257.044 42.3249 257.025 42.3326L257.067 42.3736ZM255.427 41.863L255.528 41.774L255.486 41.733L255.459 41.6862C255.406 41.6961 255.369 41.7243 255.348 41.771C255.376 41.8145 255.403 41.8452 255.427 41.863ZM254.825 42.5186C254.831 42.5052 254.834 42.4905 254.833 42.4743C254.839 42.461 254.842 42.4463 254.841 42.4301L254.77 42.4007L254.742 42.4366L254.769 42.4834L254.825 42.5186ZM254.12 43.0837C254.126 43.0703 254.131 43.0684 254.135 43.0779L254.12 43.0837ZM254.568 43.5305C254.627 43.4911 254.638 43.4483 254.603 43.402C254.593 43.4059 254.574 43.4217 254.545 43.4495C254.536 43.4695 254.544 43.4965 254.568 43.5305ZM254.274 43.5398L254.353 43.3939L254.336 43.3513L254.265 43.3219L254.241 43.3477C254.241 43.3477 254.242 43.3719 254.244 43.4204C254.255 43.4326 254.245 43.4526 254.217 43.4804C254.237 43.4888 254.256 43.5086 254.274 43.5398ZM254.288 43.8545C254.294 43.8412 254.301 43.8245 254.31 43.8045C254.32 43.7845 254.332 43.7659 254.348 43.7487C254.341 43.7459 254.323 43.7503 254.294 43.7619C254.284 43.7819 254.282 43.8128 254.288 43.8545ZM255.517 44.3383L255.527 44.3425C255.54 44.348 255.577 44.3554 255.638 44.3644L255.61 44.2934C255.605 44.2678 255.579 44.2647 255.529 44.284C255.517 44.3107 255.513 44.3288 255.517 44.3383ZM254.06 44.9617C254.07 44.9578 254.069 44.9417 254.058 44.9133C254.044 44.9077 254.033 44.9068 254.023 44.9107L254.06 44.9617ZM253.883 45.2693C253.897 45.2749 253.927 45.2794 253.974 45.2828L253.98 45.1902C253.95 45.1857 253.93 45.1934 253.921 45.2134L253.883 45.2693ZM253.38 45.3115C253.387 45.2982 253.394 45.2815 253.403 45.2615C253.412 45.2414 253.423 45.2262 253.436 45.2156C253.433 45.2062 253.416 45.2072 253.387 45.2189L253.38 45.3115ZM253.29 45.5358C253.303 45.5253 253.306 45.5105 253.298 45.4916C253.291 45.4727 253.274 45.4657 253.247 45.4706C253.248 45.4867 253.262 45.5085 253.29 45.5358ZM252.937 46.0442C252.97 46.0259 252.985 46.0006 252.984 45.9683L252.943 45.9515L252.895 46.0032C252.903 46.0221 252.917 46.0358 252.937 46.0442ZM254.26 47.0899C254.266 47.0766 254.266 47.0604 254.258 47.0415C254.254 47.032 254.239 47.0297 254.213 47.0347C254.204 47.0547 254.219 47.0731 254.26 47.0899ZM254.19 47.3226L254.387 47.3682L254.388 47.2855C254.39 47.2466 254.371 47.2187 254.33 47.2019L254.225 47.1942C254.215 47.2142 254.206 47.2342 254.197 47.2542C254.195 47.277 254.192 47.2998 254.19 47.3226ZM255.545 48.1555C255.525 48.1471 255.506 48.1354 255.489 48.1203L255.427 48.071C255.419 48.052 255.421 48.0292 255.434 48.0025L255.456 47.9525C255.525 47.9254 255.572 47.8852 255.596 47.8318L255.628 47.7617C255.628 47.7617 255.627 47.7456 255.626 47.7133C255.619 47.6944 255.616 47.6816 255.619 47.6749C255.61 47.6949 255.641 47.6719 255.711 47.6058C255.711 47.6058 255.72 47.5697 255.737 47.4974C255.744 47.5163 255.794 47.4338 255.886 47.2498C255.888 47.227 255.903 47.1856 255.931 47.1256L255.968 47.0697C255.984 47.0525 255.995 47.0372 256.001 47.0239C255.992 47.0439 255.99 47.0311 255.995 46.9855L256.059 46.8454L256.08 46.7469L256.091 46.6685L256.18 46.5268L256.264 46.3951L256.29 46.2867L256.296 46.194C256.3 46.2035 256.312 46.193 256.334 46.1624L256.353 46.1224C256.349 46.1129 256.35 46.1015 256.356 46.0882C256.389 46.0699 256.422 46.0677 256.456 46.0817C256.49 46.0957 256.515 46.0941 256.531 46.0769L256.467 46.0033L256.472 45.9933C256.487 45.9599 256.484 45.8873 256.463 45.7754L256.523 45.7764L256.541 45.7363L256.549 45.6921L256.595 45.5921C256.638 45.4987 256.695 45.4351 256.767 45.4013C256.762 45.3757 256.759 45.3468 256.758 45.3145L256.762 45.3045C256.778 45.2711 256.822 45.2456 256.894 45.228C256.97 45.2037 257.022 45.1776 257.051 45.1499C257.057 45.1366 257.049 45.082 257.029 44.9862L257.006 44.7984C257.009 44.7917 257.006 44.7789 256.999 44.7599L257.003 44.7257C257.009 44.7124 257.018 44.7004 257.031 44.6899L257.055 44.6641C257.11 44.544 257.142 44.482 257.152 44.4782C257.263 44.3415 257.31 44.2899 257.295 44.3232C257.313 44.1246 257.325 44.0186 257.332 44.0053L257.417 43.8978L257.498 43.8004L257.53 43.6235C257.533 43.6168 257.543 43.6049 257.559 43.5876C257.578 43.5638 257.601 43.5299 257.629 43.486C257.632 43.4793 257.644 43.4721 257.663 43.4643C257.683 43.4566 257.696 43.4461 257.702 43.4327L257.708 43.3401C257.702 43.2822 257.701 43.2499 257.704 43.2432C257.716 43.2166 257.744 43.2002 257.787 43.1942C257.787 43.1942 257.786 43.178 257.785 43.1458C257.77 43.124 257.765 43.1098 257.768 43.1032C257.792 43.0498 257.844 43.0076 257.922 42.9766C258.008 42.9485 258.062 42.9077 258.087 42.8543L258.12 42.8085C258.136 42.7913 258.148 42.7727 258.157 42.7527C258.167 42.7326 258.142 42.7067 258.084 42.6749C258.029 42.6363 258.002 42.6171 258.002 42.6171C258.023 42.5704 258.074 42.504 258.153 42.4179C258.149 42.4084 258.134 42.3981 258.107 42.3869C258.125 42.3469 258.153 42.2593 258.191 42.1242C258.234 42.1182 258.269 42.1207 258.296 42.1319C258.398 42.1739 258.468 42.2228 258.507 42.2785L258.575 42.2353C258.579 42.2447 258.581 42.2575 258.582 42.2737C258.592 42.286 258.596 42.3035 258.594 42.3263C258.599 42.3681 258.615 42.3945 258.642 42.4057C258.656 42.4113 258.685 42.4078 258.732 42.3951C258.775 42.3891 258.803 42.3889 258.816 42.3944L258.837 42.4028C258.841 42.4123 258.846 42.4184 258.853 42.4212C258.866 42.4268 258.893 42.4219 258.932 42.4064C258.975 42.4004 259 42.3988 259.007 42.4016C259.02 42.4072 259.046 42.4298 259.084 42.4694L259.137 42.5388L259.303 42.5717L259.46 42.6005C259.48 42.6089 259.495 42.6192 259.506 42.6315C259.513 42.6504 259.526 42.6674 259.543 42.6825C259.56 42.6976 259.566 42.7118 259.56 42.7251L259.551 42.7451C259.554 42.7546 259.563 42.7621 259.577 42.7677C259.638 42.7929 259.677 42.7935 259.696 42.7697L259.798 42.8116C259.797 42.8667 259.817 42.9027 259.858 42.9195C259.885 42.9307 259.908 42.9324 259.928 42.9246C259.957 42.913 260 42.907 260.057 42.9066C260.061 42.9161 260.06 42.9355 260.054 42.965C260.052 42.9878 260.047 43.0173 260.038 43.0535C260.046 43.0724 260.06 43.0861 260.08 43.0945C260.127 43.114 260.146 43.1258 260.136 43.1296C260.156 43.1219 260.169 43.1114 260.175 43.098L260.317 43.1568L260.267 43.3737C260.274 43.3926 260.281 43.4035 260.288 43.4063L260.323 43.4089C260.333 43.405 260.341 43.4045 260.348 43.4073C260.416 43.4353 260.463 43.4824 260.489 43.5487C260.503 43.5704 260.507 43.6236 260.501 43.7081C260.511 43.7204 260.523 43.7569 260.535 43.8176L260.513 43.8918C260.514 43.908 260.51 43.926 260.501 43.946C260.495 43.9594 260.489 43.9808 260.483 44.0103C260.522 44.066 260.528 44.1239 260.501 44.1839C260.47 44.2507 260.41 44.2853 260.32 44.2879C260.392 44.3965 260.421 44.4918 260.407 44.5735C260.435 44.5847 260.439 44.6103 260.421 44.6504L260.256 45.0106C260.262 44.9972 260.238 45.0231 260.185 45.088C260.186 45.1203 260.163 45.1704 260.116 45.2381C260.09 45.2431 260.027 45.2649 259.929 45.3036C259.933 45.3292 259.956 45.3504 259.997 45.3672C260 45.3767 259.999 45.3881 259.993 45.4015L259.969 45.4273L259.935 45.4489L259.899 45.5289C259.896 45.5356 259.858 45.5478 259.785 45.5654L259.739 45.6413C259.729 45.6451 259.716 45.6557 259.7 45.6729C259.687 45.6834 259.673 45.6973 259.657 45.7145C259.61 45.7111 259.559 45.7176 259.503 45.7342C259.459 45.7953 259.375 45.8558 259.251 45.9156C259.237 45.91 259.209 45.9102 259.166 45.9162L259.148 45.9562C259.158 45.9685 259.167 45.9841 259.175 46.003C259.189 46.0248 259.203 46.0465 259.217 46.0682C259.216 46.1072 259.223 46.1617 259.239 46.2319C259.25 46.2442 259.26 46.2564 259.271 46.2687C259.281 46.281 259.294 46.298 259.308 46.3197C259.302 46.333 259.294 46.3497 259.285 46.3697C259.286 46.3859 259.283 46.4087 259.278 46.4382C259.309 46.475 259.347 46.526 259.389 46.5912C259.39 46.6073 259.386 46.6254 259.377 46.6454C259.377 46.6616 259.368 46.6816 259.349 46.7055C259.34 46.7255 259.338 46.7563 259.343 46.7981L259.316 46.8581C259.337 46.8827 259.349 46.9077 259.354 46.9333L259.25 47.1877L259.113 47.4879C259.128 47.4545 259.132 47.4721 259.125 47.5405C259.096 47.5682 259.072 47.6216 259.052 47.7006L259.014 47.8633L258.962 47.9249L258.916 48.025L258.828 48.084C258.822 48.0974 258.821 48.1088 258.825 48.1183L258.812 48.1725C258.812 48.1725 258.805 48.1892 258.789 48.2225C258.777 48.2492 258.754 48.2912 258.72 48.3484C258.667 48.3583 258.628 48.3818 258.603 48.4191L258.566 48.4991C258.547 48.523 258.494 48.5604 258.406 48.6114L258.18 48.6843C258.177 48.691 258.162 48.7049 258.136 48.726C258.094 48.7481 258.009 48.7763 257.88 48.8105C257.867 48.8049 257.848 48.8013 257.825 48.7995C257.811 48.7939 257.79 48.7889 257.759 48.7843C257.733 48.7893 257.698 48.7948 257.655 48.8008C257.619 48.8096 257.576 48.8156 257.526 48.8189C257.485 48.8021 257.413 48.7841 257.309 48.7649C257.189 48.763 257.116 48.7564 257.088 48.7452L257.026 48.6958C257.016 48.6835 257.005 48.6713 256.995 48.659C256.981 48.6534 256.971 48.6492 256.964 48.6464C256.958 48.6597 256.923 48.6572 256.859 48.6386C256.812 48.6352 256.758 48.6209 256.697 48.5957L256.284 48.3894C256.223 48.3642 256.168 48.3532 256.118 48.3564C256.095 48.3547 256.076 48.351 256.063 48.3454C256.046 48.3465 256.031 48.3442 256.017 48.3386L255.929 48.2666L255.828 48.2247C255.794 48.2107 255.76 48.1967 255.726 48.1827C255.696 48.1782 255.666 48.1736 255.635 48.1691L255.545 48.1555ZM258.41 42.9402C258.451 42.957 258.496 42.9557 258.545 42.9364C258.55 42.9069 258.57 42.8635 258.604 42.8063L258.664 42.8073C258.713 42.7879 258.714 42.7604 258.666 42.7246C258.666 42.7246 258.653 42.7076 258.629 42.6736C258.621 42.6547 258.614 42.6438 258.607 42.641C258.587 42.6326 258.564 42.6551 258.54 42.7085L258.424 42.8034C258.386 42.835 258.363 42.8575 258.357 42.8708C258.365 42.9059 258.383 42.929 258.41 42.9402ZM259.901 43.4605C259.956 43.4278 259.966 43.3883 259.931 43.342C259.911 43.3498 259.895 43.367 259.883 43.3937C259.88 43.4003 259.886 43.4226 259.901 43.4605ZM260.137 43.6054C260.146 43.6016 260.146 43.5854 260.134 43.557L260.095 43.5644C260.099 43.5739 260.104 43.58 260.111 43.5828C260.124 43.5884 260.133 43.596 260.137 43.6054ZM260.078 43.7597C260.091 43.7492 260.094 43.7344 260.086 43.7155C260.086 43.6994 260.07 43.6971 260.041 43.7087C260.032 43.7287 260.044 43.7457 260.078 43.7597ZM258.084 45.1365L258.149 45.1517C258.173 45.1534 258.195 45.1585 258.215 45.1668C258.323 45.1243 258.381 45.1044 258.387 45.1072C258.387 45.1072 258.405 45.1222 258.439 45.1524C258.45 45.1808 258.459 45.1964 258.466 45.1992L258.501 45.2018L258.529 45.1417C258.553 45.0883 258.575 45.0578 258.595 45.0501C258.611 45.049 258.64 45.0568 258.681 45.0736L258.706 45.0962C258.71 45.1057 258.715 45.1118 258.722 45.1146L258.753 45.1272C258.772 45.1195 258.792 45.1117 258.812 45.104C258.831 45.0962 258.853 45.0852 258.875 45.0708L258.921 44.9707C258.94 44.9468 258.959 44.9229 258.978 44.899C258.997 44.8752 259.019 44.8527 259.045 44.8316C259.044 44.8154 259.053 44.7954 259.072 44.7715L259.12 44.7199L259.143 44.6699C259.226 44.5933 259.271 44.5483 259.277 44.535L259.279 44.2386C259.292 44.2281 259.302 44.2162 259.308 44.2028C259.317 44.1828 259.328 44.1675 259.341 44.157L259.359 43.8791C259.364 43.8496 259.35 43.8278 259.316 43.8139L259.281 43.8113C259.271 43.8151 259.26 43.8143 259.246 43.8087C259.239 43.8059 259.229 43.7855 259.214 43.7477C259.199 43.7098 259.184 43.688 259.171 43.6825L259.14 43.6699C259.131 43.6737 259.119 43.6729 259.105 43.6673L259.027 43.5995L258.945 43.5417C258.932 43.5361 258.889 43.5421 258.816 43.5597L258.807 43.5797C258.798 43.5998 258.774 43.6175 258.734 43.633C258.699 43.658 258.677 43.669 258.671 43.6662C258.668 43.6729 258.653 43.6868 258.628 43.7079C258.59 43.6844 258.57 43.6565 258.569 43.6243L258.622 43.5868C258.607 43.5489 258.576 43.5202 258.529 43.5006C258.508 43.4922 258.484 43.5019 258.455 43.5297L258.528 43.6075C258.532 43.6169 258.533 43.6331 258.53 43.6559C258.531 43.672 258.534 43.6929 258.538 43.7185C258.565 43.7297 258.589 43.7476 258.61 43.7721C258.6 43.776 258.586 43.7979 258.568 43.838C258.572 43.8474 258.573 43.8636 258.57 43.8864C258.571 43.9025 258.573 43.9234 258.578 43.949L258.581 44.0216L258.384 44.4519C258.378 44.4652 258.37 44.4738 258.361 44.4777L258.341 44.4935C258.299 44.5869 258.285 44.625 258.301 44.6078C258.253 44.6594 258.226 44.6838 258.219 44.681L258.221 44.7295C258.223 44.7617 258.223 44.7779 258.223 44.7779C258.214 44.7979 258.186 44.8256 258.137 44.8611C258.127 44.865 258.107 44.9003 258.077 44.967L258.048 45.1097L258.084 45.1365ZM257.53 43.6235C257.527 43.6301 257.526 43.6335 257.526 43.6335L257.53 43.6235ZM259.768 44.678C259.781 44.6836 259.798 44.6826 259.817 44.6748C259.837 44.6671 259.84 44.6523 259.825 44.6306C259.805 44.6222 259.786 44.638 259.768 44.678ZM257.469 44.6567C257.472 44.6501 257.468 44.6325 257.457 44.6041L257.427 44.6157C257.431 44.6252 257.436 44.6313 257.443 44.6341C257.457 44.6397 257.465 44.6473 257.469 44.6567ZM257.406 44.821C257.419 44.8105 257.422 44.7957 257.414 44.7768C257.411 44.7673 257.392 44.7637 257.359 44.7658C257.35 44.7858 257.366 44.8042 257.406 44.821ZM258.328 45.8199C258.338 45.8321 258.353 45.8344 258.373 45.8267C258.383 45.8228 258.387 45.8047 258.386 45.7724C258.365 45.764 258.346 45.7799 258.328 45.8199ZM258.188 45.9406L258.066 45.7834L258.063 45.8176L258.188 45.9406ZM257.014 47.5847C257.028 47.5903 257.053 47.5887 257.089 47.5799C257.139 47.5767 257.17 47.5779 257.184 47.5835C257.228 47.5936 257.263 47.6042 257.29 47.6154C257.32 47.62 257.342 47.625 257.356 47.6306L257.392 47.6574C257.396 47.6669 257.404 47.6744 257.418 47.68C257.445 47.6912 257.483 47.6952 257.533 47.692L257.586 47.6545L257.776 47.6375L257.8 47.5048C257.816 47.5037 257.849 47.4935 257.898 47.4741C257.934 47.4492 257.966 47.4067 257.993 47.3467L258.014 47.2482L258.03 47.1598C258.036 47.1464 258.059 47.132 258.098 47.1165C258.134 47.0916 258.153 47.0757 258.156 47.0691L258.145 47.0407C258.137 47.0217 258.135 47.0089 258.138 47.0022C258.147 46.9822 258.174 46.9773 258.217 46.9874C258.224 46.9902 258.225 46.9707 258.22 46.929C258.207 46.8683 258.201 46.838 258.201 46.838C258.237 46.7418 258.26 46.6917 258.27 46.6879C258.238 46.5637 258.226 46.4916 258.235 46.4716C258.251 46.4382 258.273 46.4158 258.303 46.4041C258.312 46.4003 258.315 46.3775 258.31 46.3357L258.198 46.2895C258.177 46.2811 258.165 46.2641 258.161 46.2385L258.173 46.1843L257.893 46.0567L257.846 46.0015L257.784 45.9521L257.674 45.9544L257.569 46.1845C257.542 46.2446 257.514 46.2965 257.486 46.3404C257.464 46.3871 257.443 46.4257 257.421 46.4563C257.386 46.4974 257.363 46.5199 257.354 46.5238C257.382 46.5672 257.387 46.609 257.369 46.649L257.191 47.0392C257.188 47.0459 257.176 47.0531 257.157 47.0609C257.137 47.0686 257.124 47.0791 257.118 47.0925C257.088 47.1592 257.059 47.2306 257.032 47.3068C257.009 47.3763 256.987 47.4506 256.967 47.5295L257.014 47.5847ZM258.543 46.6459C258.555 46.6354 258.555 46.6193 258.541 46.5975C258.537 46.5881 258.522 46.5858 258.495 46.5907C258.486 46.6107 258.502 46.6292 258.543 46.6459ZM256.676 47.0288C256.699 47.0306 256.723 47.0323 256.746 47.034C256.769 47.0357 256.794 47.0341 256.821 47.0292L256.726 46.9188L256.676 47.0288ZM258.556 47.9123C258.637 47.9297 258.695 47.9535 258.729 47.9836L258.761 47.9136C258.743 47.8662 258.723 47.8384 258.703 47.83C258.662 47.8132 258.611 47.8278 258.55 47.8739L258.556 47.9123ZM257.65 48.335C257.656 48.3217 257.656 48.3055 257.648 48.2866C257.648 48.2704 257.633 48.2682 257.603 48.2798C257.594 48.2998 257.61 48.3182 257.65 48.335ZM258.882 49.4859C258.835 49.4663 258.801 49.4442 258.78 49.4197C258.816 49.3396 258.878 49.2304 258.966 49.0921C259.006 49.0927 259.038 49.0744 259.063 49.0372L259.113 48.9272C259.129 48.8938 259.148 48.8504 259.173 48.7971C259.207 48.7398 259.239 48.6779 259.27 48.6112C259.31 48.6118 259.337 48.5955 259.353 48.5621L259.398 48.462C259.398 48.462 259.398 48.4459 259.396 48.4136L259.483 48.2235C259.485 48.1846 259.498 48.1465 259.523 48.1092L259.565 48.0434C259.571 48.0301 259.578 48.0167 259.584 48.0034C259.596 47.9928 259.604 47.9842 259.607 47.9776C259.617 47.9737 259.627 47.9698 259.637 47.9659C259.647 47.9621 259.658 47.9549 259.671 47.9443C259.703 47.9099 259.725 47.8793 259.737 47.8527C259.74 47.846 259.738 47.8251 259.729 47.79C259.718 47.7616 259.716 47.7408 259.722 47.7274C259.719 47.7341 259.743 47.7163 259.794 47.6742C259.83 47.6492 259.857 47.6167 259.875 47.5767L260.131 47.4922C260.114 47.4771 260.1 47.4553 260.089 47.4269L260.11 47.3527C260.12 47.3327 260.118 47.3085 260.107 47.2801C260.089 47.2489 260.085 47.2233 260.094 47.2032L260.117 47.1532C260.123 47.1399 260.132 47.1199 260.144 47.0932C260.16 47.0598 260.178 47.0279 260.2 46.9973C260.21 46.9934 260.218 46.9848 260.224 46.9715C260.23 46.9582 260.241 46.9429 260.257 46.9257L260.272 46.813C260.292 46.8053 260.311 46.7895 260.33 46.7656C260.359 46.7378 260.388 46.7101 260.417 46.6823L260.426 46.6623C260.432 46.6489 260.44 46.6128 260.451 46.5538L260.456 46.5438C260.462 46.5305 260.468 46.5171 260.474 46.5038C260.49 46.4866 260.504 46.4646 260.516 46.438L260.576 46.3321C260.617 46.2615 260.645 46.2095 260.66 46.1762C260.682 46.1456 260.69 46.137 260.684 46.1504C260.723 46.0637 260.738 46.0222 260.728 46.0261C260.741 46.0156 260.754 46.005 260.767 45.9945C260.78 45.9839 260.796 45.9667 260.815 45.9428L260.884 45.817C260.914 45.8053 260.952 45.7737 261 45.7221C261.002 45.6831 261.011 45.6275 261.028 45.5552C261.031 45.5485 261.047 45.5394 261.077 45.5278C261.106 45.5161 261.122 45.507 261.125 45.5003L261.102 45.4193L261.125 45.3693C261.136 45.3265 261.158 45.2878 261.19 45.2534C261.223 45.2513 261.249 45.2382 261.268 45.2144L261.282 45.1843C261.291 45.1643 261.303 45.1376 261.318 45.1043C261.334 45.0709 261.349 45.0295 261.363 44.98L261.37 44.9116C261.379 44.8754 261.398 44.8515 261.427 44.8399L261.506 44.8251C261.506 44.809 261.511 44.7875 261.524 44.7609C261.539 44.7275 261.554 44.6942 261.569 44.6608C261.575 44.6475 261.585 44.6355 261.598 44.625C261.611 44.6144 261.627 44.5972 261.646 44.5733L261.702 44.5017C261.702 44.5017 261.702 44.4855 261.7 44.4533C261.689 44.4249 261.685 44.4073 261.688 44.4006C261.709 44.354 261.741 44.3195 261.784 44.2974C261.826 44.2752 261.855 44.2475 261.87 44.2141L261.86 44.1031C261.866 44.0897 261.872 44.0764 261.879 44.063C261.885 44.0497 261.896 44.0344 261.912 44.0172C261.924 44.0067 261.937 43.9961 261.95 43.9856C261.963 43.975 261.979 43.9578 261.998 43.9339L262.087 43.6854C262.112 43.632 262.146 43.6104 262.189 43.6205C262.223 43.6345 262.249 43.6571 262.267 43.6883C262.282 43.7262 262.293 43.7465 262.3 43.7493L262.605 43.7684L262.682 43.812L262.744 43.8614L262.804 43.8624C262.837 43.8602 262.854 43.8592 262.854 43.8592L263.006 43.9221C263.003 43.9288 263.01 43.9397 263.028 43.9547C263.045 43.9698 263.06 43.9801 263.074 43.9857L263.23 44.0145C263.25 44.0067 263.267 44.0137 263.281 44.0355L263.317 44.0623C263.331 44.0679 263.372 44.0652 263.441 44.0542L263.488 44.0852L263.407 44.2895C263.375 44.324 263.347 44.3484 263.325 44.3628C263.299 44.3839 263.283 44.4011 263.277 44.4144L263.259 44.4545C263.229 44.4499 263.201 44.4744 263.177 44.5277L263.132 44.5209C263.112 44.4575 263.089 44.412 263.061 44.3847L263.052 44.4047C263.046 44.4181 263.049 44.447 263.06 44.4916C263.072 44.5361 263.074 44.5684 263.065 44.5884L263.05 44.5942C263.03 44.6019 263.014 44.6192 263.002 44.6458L263.129 44.6862C263.135 44.6729 263.141 44.6595 263.147 44.6462C263.163 44.629 263.18 44.6084 263.199 44.5845L263.23 44.5971C263.231 44.6294 263.243 44.682 263.266 44.755L263.249 44.8192C263.253 44.8287 263.257 44.8382 263.26 44.8476C263.264 44.8571 263.266 44.8699 263.267 44.886C263.264 44.8927 263.253 44.8999 263.233 44.9077C263.207 44.9287 263.193 44.9426 263.19 44.9493C263.19 44.9493 263.2 44.9972 263.221 45.0929C263.238 45.1792 263.243 45.2291 263.237 45.2424C263.228 45.2624 263.199 45.274 263.149 45.2772L263.059 45.2879L263.05 45.3079L263.139 45.4041C263.137 45.4269 263.13 45.4678 263.119 45.5268C263.13 45.539 263.14 45.5708 263.148 45.622L263.086 45.6794C263.044 45.7177 263.022 45.7402 263.019 45.7469L263.068 45.9574L262.985 46.0064C262.989 46.0159 263.005 46.0424 263.033 46.0858L262.983 46.1959C262.987 46.2215 262.984 46.2557 262.972 46.2985L262.963 46.3186C262.945 46.3586 262.917 46.3944 262.878 46.426L262.931 46.4954L262.9 46.7208L262.833 46.7882C262.841 46.8071 262.843 46.828 262.841 46.8508L262.818 46.9009C262.797 46.9476 262.808 47.0035 262.85 47.0687L262.688 47.1326C262.61 47.1636 262.566 47.1891 262.557 47.2091C262.541 47.2424 262.578 47.2854 262.667 47.3379C262.756 47.3904 262.791 47.4448 262.774 47.5009C262.765 47.5209 262.745 47.5368 262.716 47.5484C262.706 47.6235 262.692 47.681 262.673 47.7211C262.673 47.7211 262.662 47.7283 262.639 47.7427C262.623 47.7599 262.614 47.7718 262.611 47.7785L262.62 47.9964C262.614 48.0097 262.593 48.0289 262.558 48.0538L262.591 48.1391C262.573 48.1791 262.561 48.2138 262.556 48.2433C262.563 48.2623 262.571 48.2893 262.579 48.3244C262.587 48.3594 262.581 48.4003 262.559 48.447C262.563 48.4565 262.546 48.477 262.507 48.5087C262.465 48.547 262.441 48.5728 262.435 48.5861C262.432 48.5928 262.439 48.6393 262.456 48.7256C262.453 48.7322 262.447 48.7456 262.438 48.7656C262.439 48.7817 262.438 48.8012 262.435 48.824C262.446 48.8363 262.453 48.8552 262.458 48.8808C262.465 48.8998 262.471 48.922 262.476 48.9477C262.463 48.9743 262.442 48.9854 262.412 48.9809L262.337 48.9857L262.301 49.0658C262.311 49.078 262.322 49.0903 262.332 49.1026C262.35 49.1176 262.369 49.1374 262.39 49.162C262.397 49.1809 262.384 49.2271 262.351 49.3005L262.317 49.3221C262.295 49.3688 262.297 49.4172 262.323 49.4673L262.391 49.5309L262.308 49.58C262.311 49.5895 262.315 49.5989 262.319 49.6084C262.323 49.6179 262.325 49.6307 262.326 49.6468L262.298 49.7068L262.227 49.6775C262.217 49.6813 262.212 49.6833 262.212 49.6833C262.219 49.6861 262.217 49.6894 262.208 49.6933L262.178 49.7049C262.204 49.755 262.226 49.8199 262.246 49.8995L262.21 50.1106L262.146 50.2507C262.155 50.3019 262.152 50.3718 262.135 50.4602L262.111 50.486C262.032 50.5009 261.965 50.4971 261.911 50.4747L261.844 50.4111L261.702 50.3766C261.665 50.3692 261.635 50.3647 261.612 50.363C261.588 50.3613 261.573 50.359 261.567 50.3562L261.52 50.3252C261.503 50.3101 261.489 50.3045 261.48 50.3084C261.473 50.3056 261.466 50.3028 261.459 50.3C261.443 50.3011 261.419 50.2994 261.389 50.2948C261.366 50.2931 261.34 50.2867 261.313 50.2755L261.202 50.2293C261.188 50.2237 261.17 50.22 261.146 50.2183C261.126 50.226 261.097 50.2296 261.057 50.2289C260.996 50.2038 260.982 50.1464 261.014 50.0569C261.017 50.0502 261.067 50.0114 261.164 49.9404C261.213 49.9049 261.25 49.8766 261.276 49.8555C261.301 49.8344 261.321 49.8186 261.333 49.8081L261.228 49.8003C261.172 49.8007 261.13 49.7953 261.103 49.7841L261.093 49.7799L261.14 49.5972L261.139 49.4662C261.16 49.4195 261.207 49.3873 261.28 49.3697C261.273 49.3669 261.264 49.3432 261.252 49.2987C261.237 49.2608 261.234 49.2238 261.242 49.1876C261.242 49.1715 261.25 49.1273 261.267 49.055L261.25 49.0124L261.282 48.9423L261.32 48.9107C261.313 48.8205 261.266 48.7572 261.177 48.7209C261.177 48.7209 261.157 48.7205 261.117 48.7199L261.061 48.6847C261.044 48.6696 261.025 48.6579 261.005 48.6495L260.873 48.6191C260.83 48.609 260.796 48.6031 260.773 48.6014C260.756 48.6024 260.744 48.6016 260.738 48.5988C260.728 48.6027 260.712 48.5923 260.691 48.5678C260.67 48.5433 260.657 48.5296 260.65 48.5268L260.6 48.53C260.553 48.5266 260.526 48.5234 260.52 48.5206L260.496 48.5465C260.503 48.5493 260.508 48.5554 260.511 48.5649C260.518 48.5677 260.527 48.5752 260.537 48.5875L260.519 48.6275L260.477 48.5865C260.448 48.5981 260.43 48.6106 260.424 48.6239C260.442 48.6551 260.451 48.6983 260.45 48.7534L260.383 48.8208C260.364 48.8447 260.345 48.8686 260.326 48.8925C260.31 48.9097 260.295 48.9236 260.282 48.9341C260.28 48.9569 260.262 49.005 260.229 49.0784C260.112 49.2284 260.056 49.2967 260.063 49.2833C260.059 49.29 260.057 49.3047 260.054 49.3276C260.055 49.3437 260.053 49.3665 260.047 49.396L260.022 49.5044C260.022 49.5044 260.004 49.5169 259.969 49.5419C259.936 49.5602 259.915 49.5793 259.906 49.5993L259.897 49.6193C259.885 49.646 259.88 49.6836 259.882 49.732L259.873 49.752C259.857 49.7854 259.816 49.788 259.748 49.7601C259.748 49.7601 259.723 49.7455 259.671 49.7165L259.589 49.6587C259.572 49.6597 259.552 49.6594 259.529 49.6577C259.506 49.656 259.48 49.6495 259.453 49.6383L259.372 49.6047L258.999 49.522C258.975 49.5203 258.954 49.5153 258.933 49.5069C258.913 49.4985 258.896 49.4915 258.882 49.4859ZM262.892 44.2791C262.905 44.2686 262.907 44.2538 262.9 44.2349C262.896 44.2254 262.878 44.2218 262.844 44.2239C262.849 44.2495 262.865 44.2679 262.892 44.2791ZM262.904 45.5212C262.952 45.5408 262.99 45.5368 263.019 45.509C263.009 45.5129 263.011 45.4901 263.026 45.4406L262.96 45.4254C262.94 45.417 262.918 45.42 262.896 45.4344C262.886 45.4383 262.882 45.4564 262.883 45.4886C262.891 45.5076 262.898 45.5184 262.904 45.5212ZM261.363 45.8006C261.366 45.7939 261.362 45.7764 261.351 45.7479L261.321 45.7596C261.325 45.769 261.33 45.7752 261.337 45.778C261.351 45.7836 261.359 45.7911 261.363 45.8006ZM261.325 47.7354L261.491 47.7441C261.514 47.7459 261.548 47.7323 261.594 47.7035L261.706 47.4049C261.667 47.3492 261.691 47.244 261.777 47.0895L261.761 47.0469L261.802 46.85C261.799 46.8567 261.821 46.8342 261.869 46.7826L261.831 46.7074L261.941 46.7051L261.878 46.6315C261.893 46.5982 261.901 46.5539 261.902 46.4988C261.904 46.4599 261.906 46.429 261.908 46.4062C261.914 46.3767 261.917 46.3506 261.92 46.3278C261.956 46.2477 262.004 46.1961 262.063 46.1728L261.981 46.1151L261.875 46.1073L261.866 46.1273C261.854 46.154 261.823 46.1689 261.773 46.1722C261.749 46.2255 261.722 46.2499 261.692 46.2454C261.679 46.2721 261.666 46.3021 261.65 46.3355C261.642 46.3716 261.63 46.4144 261.616 46.4639C261.613 46.4706 261.594 46.4864 261.558 46.5114L261.545 46.5656C261.542 46.5723 261.538 46.5823 261.532 46.5956C261.535 46.6051 261.534 46.6165 261.528 46.6298C261.519 46.6499 261.506 46.6685 261.491 46.6857C261.481 46.7057 261.471 46.729 261.459 46.7557C261.433 46.793 261.413 46.8282 261.398 46.8616C261.386 46.8883 261.375 46.9116 261.366 46.9316L261.303 47.0959C261.275 47.1398 261.226 47.1673 261.157 47.1782L260.998 47.2079C260.962 47.2167 260.933 47.2283 260.91 47.2427C260.89 47.2505 260.874 47.2596 260.861 47.2702L260.963 47.3122C260.973 47.3083 260.991 47.3039 261.017 47.2989C261.053 47.2901 261.075 47.2871 261.082 47.2899L261.092 47.2941C261.119 47.3053 261.127 47.3404 261.116 47.3993C261.09 47.4755 261.08 47.5231 261.087 47.542C261.239 47.6681 261.319 47.7326 261.325 47.7354ZM261.315 45.959C261.328 45.9485 261.33 45.9338 261.323 45.9148C261.316 45.912 261.296 45.9117 261.263 45.9138C261.267 45.9395 261.285 45.9545 261.315 45.959ZM260.694 46.9751L260.81 47.0113L260.833 46.9613L260.821 46.9086C260.821 46.9086 260.797 46.9069 260.751 46.9035L260.658 46.8415C260.666 46.8604 260.642 46.8668 260.589 46.8605C260.538 46.8476 260.524 46.8534 260.545 46.8779L260.606 46.9031C260.63 46.9371 260.66 46.9611 260.694 46.9751ZM262.065 48.445L262.09 48.4434C262.096 48.4462 262.1 48.4476 262.1 48.4476C262.103 48.4409 262.108 48.439 262.115 48.4418L262.108 48.4034C262.099 48.4234 262.084 48.4373 262.065 48.445ZM261.953 48.7436C261.952 48.7274 261.959 48.7027 261.974 48.6693C262.005 48.6739 262.039 48.6603 262.078 48.6287C262.064 48.6231 262.044 48.6147 262.017 48.6035C261.999 48.5884 261.975 48.5706 261.944 48.5499C261.893 48.5921 261.859 48.6137 261.842 48.6148C261.832 48.6186 261.824 48.6272 261.818 48.6406L261.805 48.6706L261.899 48.65L261.91 48.6784L261.902 48.7226L261.953 48.7436ZM261.539 48.6441C261.552 48.6497 261.569 48.6486 261.589 48.6409C261.608 48.6331 261.611 48.6184 261.597 48.5966C261.576 48.5883 261.557 48.6041 261.539 48.6441ZM261.813 49.4469C261.819 49.4336 261.818 49.4174 261.811 49.3985C261.803 49.3796 261.786 49.3806 261.761 49.4017C261.752 49.4217 261.769 49.4368 261.813 49.4469ZM259.202 49.1302L259.297 49.1338C259.367 49.1389 259.388 49.1198 259.359 49.0763L259.329 49.0637C259.302 49.0525 259.269 49.0547 259.229 49.0702L259.202 49.1302ZM259.324 49.4185C259.337 49.4079 259.34 49.3932 259.332 49.3743C259.328 49.3648 259.31 49.3611 259.277 49.3633C259.281 49.3889 259.297 49.4073 259.324 49.4185ZM265.285 49.8935C265.258 49.8823 265.201 49.839 265.115 49.7637C265.073 49.7308 265.037 49.704 265.006 49.6833C264.985 49.6588 264.96 49.6442 264.93 49.6397C264.907 49.6541 264.869 49.6582 264.815 49.652C264.792 49.6502 264.761 49.6376 264.724 49.6142L264.648 49.5948L264.567 49.5612C264.54 49.55 264.509 49.5374 264.475 49.5234C264.448 49.5122 264.416 49.503 264.379 49.4957C264.366 49.4901 264.352 49.4845 264.338 49.4789C264.328 49.4666 264.317 49.4543 264.307 49.4421C264.297 49.4459 264.282 49.4437 264.262 49.4353C264.235 49.4241 264.215 49.4043 264.204 49.3759C264.186 49.3447 264.174 49.3277 264.167 49.3249C264.16 49.3221 264.14 49.3217 264.107 49.3239L264.085 49.2671C264.067 49.2359 264.052 49.2336 264.039 49.2603L264.051 49.2887C264.041 49.3087 264.032 49.3207 264.022 49.3245L263.605 49.1524L263.492 49.082C263.486 49.0792 263.479 49.0684 263.471 49.0494C263.464 49.0305 263.456 49.0196 263.45 49.0168C263.463 49.0224 263.45 49.0249 263.41 49.0242C263.374 49.0331 263.332 49.0277 263.285 49.0081C263.271 49.0025 263.247 48.9846 263.212 48.9545L263.226 48.9245L263.265 48.8928C263.274 48.889 263.282 48.8804 263.289 48.867C263.298 48.847 263.297 48.8033 263.288 48.736L263.307 48.7202C263.317 48.7163 263.324 48.711 263.327 48.7043L263.411 48.5727C263.417 48.5593 263.42 48.5446 263.419 48.5284L263.423 48.4942C263.432 48.4742 263.446 48.4523 263.465 48.4284L263.502 48.3725C263.505 48.3659 263.505 48.3578 263.501 48.3483L263.495 48.3099C263.495 48.3099 263.496 48.3066 263.499 48.2999C263.509 48.296 263.52 48.2888 263.533 48.2783L263.655 48.3287C263.663 48.3476 263.672 48.3632 263.682 48.3755C263.693 48.3877 263.722 48.4037 263.769 48.4232L263.85 48.4568C263.897 48.4603 263.92 48.4815 263.918 48.5204C263.916 48.5594 263.919 48.5803 263.926 48.5831L264.006 48.5924C264.02 48.598 264.041 48.595 264.071 48.5834C264.107 48.5746 264.139 48.5758 264.166 48.587C264.216 48.5999 264.258 48.6133 264.292 48.6273C264.329 48.6347 264.361 48.6439 264.388 48.6551C264.402 48.6607 264.414 48.6696 264.424 48.6819C264.438 48.6875 264.45 48.6964 264.461 48.7087C264.471 48.721 264.5 48.7288 264.546 48.7323C264.543 48.7389 264.544 48.747 264.547 48.7565C264.554 48.7593 264.585 48.7719 264.639 48.7943C264.639 48.7943 264.641 48.799 264.645 48.8085C264.655 48.8207 264.664 48.8283 264.67 48.8311C264.68 48.8272 264.695 48.8133 264.714 48.7894L264.775 48.8146C264.802 48.8258 264.826 48.8356 264.846 48.844C264.873 48.8552 264.902 48.8631 264.932 48.8676L265.038 48.8996C265.038 48.8996 265.049 48.9118 265.07 48.9364C265.081 48.9648 265.112 48.9854 265.162 48.9984L265.134 49.0342L265.139 49.0484L265.19 49.0694C265.21 49.0616 265.226 49.0444 265.238 49.0177C265.367 49.0709 265.436 49.1036 265.447 49.1159L265.691 49.2166L265.645 49.3167C265.595 49.3199 265.566 49.3315 265.557 49.3515L265.564 49.4142C265.56 49.4598 265.557 49.4826 265.557 49.4826L265.471 49.6969L265.385 49.887C265.375 49.907 265.357 49.9115 265.33 49.9003C265.32 49.9041 265.305 49.9019 265.285 49.8935ZM265.267 49.3509C265.273 49.3375 265.263 49.3252 265.235 49.3141C265.243 49.333 265.253 49.3453 265.267 49.3509ZM263.688 48.9723C263.721 48.9863 263.745 48.98 263.757 48.9533L263.76 48.9191C263.811 48.932 263.844 48.9218 263.859 48.8884C263.859 48.8884 263.851 48.8695 263.836 48.8316L263.805 48.7948C263.788 48.7797 263.772 48.7694 263.759 48.7638C263.725 48.7498 263.702 48.7561 263.69 48.7828L263.678 48.8613L263.71 48.9223C263.697 48.9167 263.68 48.9178 263.661 48.9255C263.665 48.9511 263.674 48.9667 263.688 48.9723ZM263.575 48.7951C263.602 48.7901 263.621 48.7743 263.633 48.7476C263.636 48.741 263.622 48.7273 263.591 48.7066C263.566 48.7277 263.56 48.7572 263.575 48.7951ZM264.463 49.1261C264.477 49.1317 264.493 49.1225 264.512 49.0986C264.492 49.1064 264.476 49.1155 264.463 49.1261ZM264.92 49.4218L264.965 49.4044C264.967 49.3816 264.945 49.3685 264.898 49.365C264.893 49.3945 264.9 49.4134 264.92 49.4218ZM265.233 52.1436C265.22 52.138 265.211 52.1304 265.207 52.121L265.176 52.0842C265.155 52.0758 265.128 52.0646 265.094 52.0506C265.067 52.0394 265.038 52.0235 265.007 52.0028C265.004 51.9933 265.008 51.9752 265.02 51.9486C265.014 51.9619 265.022 51.9533 265.044 51.9227C265.066 51.8922 265.102 51.8397 265.152 51.7652L265.17 51.7252C265.186 51.6919 265.194 51.6638 265.197 51.641L265.207 51.5383C265.207 51.5383 265.22 51.5278 265.246 51.5067L265.289 51.4651C265.289 51.4489 265.299 51.4175 265.32 51.3708L265.363 51.3292L265.4 51.2491L265.476 51.1617L265.423 51.0922L265.524 51.0032L265.521 50.9305C265.55 50.9028 265.584 50.8812 265.623 50.8657L265.628 50.8557C265.606 50.815 265.587 50.7596 265.571 50.6894L265.636 50.5735C265.665 50.5619 265.687 50.5509 265.699 50.5403C265.718 50.5003 265.727 50.4722 265.726 50.4561L265.723 50.3834C265.729 50.3701 265.751 50.3476 265.79 50.316C265.825 50.291 265.848 50.2685 265.857 50.2485L265.843 50.1475C265.831 50.1191 265.827 50.0935 265.829 50.0707L265.907 49.9006C265.924 49.8995 265.947 49.8931 265.976 49.8815C265.975 49.8492 265.963 49.8128 265.942 49.7721C265.961 49.7643 265.977 49.7471 265.989 49.7204C265.998 49.7004 266.006 49.6757 266.011 49.6462C266.017 49.6167 266.019 49.5858 266.017 49.5536C266.103 49.5415 266.157 49.5478 266.178 49.5723L266.213 49.5749C266.226 49.5644 266.232 49.5591 266.232 49.5591C266.235 49.5524 266.237 49.5491 266.237 49.5491C266.249 49.5224 266.241 49.4873 266.212 49.4438L266.121 49.4061C266.124 49.3994 266.122 49.3947 266.115 49.3919C266.118 49.3852 266.121 49.3785 266.124 49.3719C266.137 49.3452 266.162 49.316 266.201 49.2844L266.222 49.2101C266.219 49.2007 266.238 49.1492 266.281 49.0559C266.296 49.0225 266.313 48.9858 266.331 48.9458C266.349 48.9058 266.366 48.861 266.38 48.8115C266.421 48.8283 266.451 48.8328 266.471 48.8251C266.46 48.8128 266.459 48.7805 266.467 48.7282L266.476 48.7082C266.485 48.6882 266.484 48.6559 266.472 48.6114L266.545 48.4513L266.565 48.4597C266.585 48.4681 266.612 48.4712 266.645 48.4691C266.688 48.463 266.711 48.4567 266.715 48.45C266.73 48.4167 266.673 48.3815 266.545 48.3445C266.603 48.3051 266.632 48.2693 266.631 48.237L266.627 48.1643C266.637 48.1443 266.659 48.1299 266.696 48.1211L266.739 48.0795L266.757 48.0394L266.809 47.7399C266.827 47.6999 266.882 47.6591 266.974 47.6176C266.98 47.6042 266.979 47.5881 266.972 47.5692C267.012 47.5698 267.042 47.5663 267.061 47.5585L267.07 47.5385C267.049 47.514 267.029 47.4975 267.008 47.4891C266.995 47.4123 266.995 47.3605 267.007 47.3339C267.013 47.3205 267.026 47.31 267.045 47.3022C267.055 47.2984 267.065 47.2864 267.074 47.2664L267.178 47.012C267.164 46.9903 267.159 46.9566 267.164 46.911C267.164 46.911 267.199 46.878 267.269 46.8119C267.335 46.6329 267.382 46.4939 267.411 46.3949C267.45 46.292 267.474 46.2306 267.483 46.2106C267.493 46.1906 267.503 46.1511 267.513 46.0921C267.524 46.0332 267.53 46.0037 267.53 46.0037L267.572 45.9378C267.591 45.9301 267.616 45.9285 267.646 45.933L267.718 45.9624C267.721 45.9557 267.737 45.9547 267.767 45.9592C267.781 45.9648 267.778 46.0071 267.758 46.086C267.743 46.1194 267.752 46.1431 267.786 46.1571C267.826 46.1738 267.858 46.1394 267.881 46.0538L268.037 46.0825C268.049 46.1109 268.07 46.1435 268.101 46.1803C268.135 46.1943 268.16 46.1847 268.175 46.1513L268.189 46.1213L268.275 46.1449L268.327 46.1901C268.415 46.2264 268.462 46.246 268.469 46.2488L268.474 46.2388C268.474 46.2388 268.472 46.2422 268.469 46.2488L268.464 46.2588C268.446 46.2989 268.456 46.3387 268.494 46.3783L268.545 46.3993C268.55 46.4249 268.559 46.4485 268.573 46.4703L268.604 46.4829C268.611 46.4857 268.617 46.4804 268.623 46.4671C268.614 46.4158 268.616 46.3688 268.627 46.326L268.645 46.286L268.675 46.2744C268.696 46.2989 268.705 46.3226 268.703 46.3454L268.823 46.3473C268.843 46.3557 268.865 46.3689 268.889 46.3867L268.986 46.4387L268.967 46.5614C268.988 46.602 269.007 46.6575 269.024 46.7276C269.02 46.7181 269.001 46.742 268.967 46.7993C268.943 46.7975 268.926 46.81 268.914 46.8367C268.907 46.85 268.9 46.8748 268.892 46.9109C268.883 46.9471 268.875 46.9913 268.867 47.0436L268.872 47.1647L268.85 47.2147C268.844 47.3154 268.809 47.4358 268.745 47.5759C268.693 47.6893 268.682 47.7758 268.711 47.8354C268.687 47.8888 268.66 48.0086 268.632 48.195L268.637 48.316C268.591 48.3449 268.54 48.3951 268.483 48.4668C268.484 48.4829 268.48 48.501 268.471 48.521C268.461 48.541 268.454 48.5577 268.448 48.571C268.442 48.6005 268.434 48.6286 268.421 48.6553C268.419 48.6781 268.413 48.6995 268.404 48.7195C268.395 48.7395 268.386 48.7595 268.377 48.7795C268.374 48.8023 268.379 48.8279 268.39 48.8564C268.406 48.9104 268.374 49.0322 268.296 49.2217C268.323 49.2491 268.336 49.2742 268.334 49.297C268.315 49.3208 268.311 49.347 268.322 49.3754C268.354 49.4122 268.368 49.4339 268.365 49.4406L268.333 49.5107C268.339 49.5685 268.339 49.6122 268.333 49.6417C268.338 49.6673 268.34 49.6801 268.34 49.6801C268.381 49.6969 268.418 49.6767 268.452 49.6195C268.493 49.565 268.517 49.5392 268.524 49.542C268.538 49.5637 268.556 49.5869 268.577 49.6114C268.604 49.6226 268.628 49.6048 268.65 49.5581C268.659 49.5381 268.657 49.5059 268.645 49.4613C268.634 49.4329 268.642 49.3887 268.67 49.3286C268.676 49.3153 268.683 49.2986 268.693 49.2786C268.709 49.2614 268.726 49.2409 268.745 49.217C268.771 49.1959 268.788 49.1753 268.797 49.1553C268.816 49.1314 268.834 49.1109 268.85 49.0937L268.898 49.0662C268.904 49.0529 268.912 49.0362 268.921 49.0162C268.93 48.9962 268.938 48.9715 268.943 48.942L268.992 48.8077C269.013 48.8161 269.046 48.8139 269.092 48.8013C269.095 48.7946 269.093 48.7899 269.086 48.7871C269.079 48.7681 269.068 48.7558 269.055 48.7503C269.05 48.7085 269.05 48.681 269.056 48.6676C269.062 48.6543 269.085 48.6318 269.123 48.6002L269.195 48.5227C269.251 48.5061 269.282 48.4912 269.288 48.4778C269.28 48.4589 269.272 48.4238 269.263 48.3726C269.276 48.3459 269.296 48.3268 269.326 48.3152C269.362 48.2902 269.379 48.2777 269.379 48.2777C269.382 48.2549 269.397 48.2216 269.425 48.1777C269.431 48.1643 269.465 48.1427 269.527 48.1128L269.494 48.0276L269.566 47.9743C269.694 47.924 269.765 47.8821 269.781 47.8488C269.79 47.8288 269.788 47.7965 269.776 47.752C269.758 47.7046 269.762 47.6509 269.79 47.5909L269.817 47.5308C269.875 47.4915 269.929 47.454 269.977 47.4185C270.032 47.3858 270.077 47.3489 270.112 47.3078C270.131 47.284 270.142 47.2687 270.145 47.262C270.155 47.2581 270.158 47.2595 270.155 47.2662C270.168 47.2395 270.167 47.2234 270.153 47.2178C270.147 47.215 270.124 47.2213 270.084 47.2368C270.063 47.2123 270.061 47.1639 270.078 47.0916L270.115 47.0115C270.134 46.9876 270.151 46.9671 270.167 46.9499C270.19 46.9354 270.209 46.9196 270.225 46.9024L270.326 46.9202C270.38 46.9426 270.416 46.9694 270.434 47.0006L270.461 47.0474C270.484 47.0491 270.522 47.045 270.575 47.0351L270.655 47.0445L270.795 47.1617L270.745 47.2718C270.74 47.3174 270.751 47.3458 270.779 47.357C270.825 47.3604 270.855 47.3488 270.867 47.3221L270.88 47.2679C270.879 47.2518 270.883 47.2337 270.892 47.2137C270.898 47.2004 270.906 47.1917 270.916 47.1879L271.011 47.1914C271.037 47.1704 271.065 47.1621 271.095 47.1666L271.24 47.2738C271.253 47.2794 271.262 47.2869 271.266 47.2964L271.287 47.329C271.307 47.3212 271.331 47.3196 271.362 47.3242L271.631 47.4233C271.631 47.4394 271.63 47.4589 271.628 47.4817C271.635 47.5007 271.638 47.5215 271.636 47.5443C271.636 47.5443 271.618 47.5568 271.582 47.5818C271.563 47.6057 271.546 47.6262 271.53 47.6434C271.521 47.6634 271.512 47.6834 271.503 47.7035C271.493 47.7235 271.496 47.7524 271.511 47.7903C271.501 47.7942 271.492 47.798 271.482 47.8019C271.479 47.8086 271.467 47.8158 271.448 47.8235L271.4 47.8752L271.35 47.9852L271.355 47.9994L271.318 48.0553C271.318 48.0714 271.31 48.0995 271.291 48.1395C271.28 48.1823 271.268 48.2171 271.256 48.2438C271.253 48.2505 271.247 48.2638 271.238 48.2838C271.235 48.3066 271.231 48.3328 271.226 48.3622L271.205 48.4607L271.124 48.5582C271.083 48.5965 271.051 48.6309 271.029 48.6614C271.033 48.6871 271.038 48.7127 271.042 48.7383C271.046 48.7639 271.053 48.7942 271.061 48.8293C271.053 48.7942 271.046 48.7639 271.042 48.7383C271.038 48.7127 271.032 48.6904 271.024 48.6715C271.024 48.6715 271.026 48.6681 271.029 48.6614C270.997 48.466 270.965 48.2982 270.933 48.1579C270.903 48.0109 270.874 47.8881 270.847 47.7896L270.828 47.8054C270.842 47.9145 270.867 48.0553 270.901 48.2279C270.941 48.4033 270.986 48.6043 271.036 48.8309C271.015 48.8064 271.006 48.7827 271.008 48.7599C270.958 48.747 270.928 48.7586 270.92 48.7947L270.933 48.8716C270.923 48.8754 270.914 48.8955 270.905 48.9316C270.916 48.9439 270.922 48.9581 270.922 48.9742C270.93 48.9932 270.937 49.0121 270.945 49.031L270.881 49.0643C270.868 49.0748 270.857 49.082 270.847 49.0859C270.844 49.0926 270.841 49.0992 270.838 49.1059C270.826 49.1326 270.843 49.1557 270.891 49.1753C270.825 49.267 270.791 49.3047 270.791 49.2886C270.791 49.2886 270.806 49.3265 270.836 49.4022C270.829 49.4156 270.818 49.4309 270.803 49.4481C270.793 49.4681 270.779 49.49 270.76 49.5139C270.741 49.5217 270.715 49.5347 270.682 49.553C270.653 49.5646 270.617 49.5815 270.574 49.6036L270.497 49.6669C270.473 49.7202 270.468 49.7578 270.482 49.7795C270.499 49.7946 270.517 49.8097 270.534 49.8247C270.557 49.8103 270.575 49.8059 270.588 49.8115C270.615 49.8227 270.623 49.8497 270.612 49.8925C270.606 49.9059 270.568 49.9261 270.499 49.9532C270.498 49.9921 270.505 50.0467 270.521 50.1169L270.408 50.1533C270.355 50.1632 270.323 50.1815 270.31 50.2082L270.312 50.2566L270.343 50.2692C270.37 50.2804 270.408 50.2682 270.456 50.2327L270.497 50.2495L270.493 50.2837C270.493 50.2837 270.485 50.2923 270.47 50.3096C270.46 50.3296 270.443 50.3582 270.418 50.3954C270.39 50.4393 270.365 50.4765 270.343 50.5071C270.331 50.5338 270.322 50.5538 270.316 50.5671C270.26 50.5998 270.228 50.6262 270.219 50.6462C270.212 50.6273 270.205 50.6164 270.198 50.6136C270.184 50.608 270.17 50.6219 270.155 50.6552C270.136 50.6952 270.111 50.7956 270.077 50.9564C270.076 50.9953 270.071 51.0329 270.062 51.069C270.054 51.1052 270.045 51.1413 270.037 51.1775C269.992 51.2937 269.969 51.3518 269.969 51.3518C269.941 51.3795 269.923 51.4001 269.917 51.4134L269.885 51.4835C269.824 51.6169 269.777 51.6766 269.743 51.6626C269.746 51.6559 269.744 51.6512 269.737 51.6484L269.751 51.7252C269.754 51.7347 269.753 51.7461 269.747 51.7594L269.733 51.7895C269.747 51.8112 269.754 51.8415 269.752 51.8805L269.704 52.039L269.676 52.099L269.621 52.1949C269.601 52.2026 269.579 52.2056 269.556 52.2039C269.526 52.1994 269.505 52.2105 269.493 52.2371L269.452 52.3514L269.498 52.3582C269.532 52.3722 269.546 52.3939 269.54 52.4234C269.548 52.4423 269.536 52.469 269.504 52.5035L269.452 52.5651C269.455 52.5746 269.458 52.5954 269.459 52.6277C269.45 52.6477 269.441 52.6597 269.431 52.6636L269.412 52.7036C269.397 52.7208 269.386 52.7361 269.379 52.7494L269.266 53.0238C269.277 53.0522 269.282 53.0778 269.28 53.1006L269.212 53.168C269.195 53.2242 269.18 53.2656 269.168 53.2923C269.159 53.3123 269.161 53.3171 269.173 53.3065C269.132 53.361 269.107 53.3901 269.097 53.394L269.104 53.4324C269.104 53.4485 269.103 53.4599 269.1 53.4666C269.104 53.4761 269.104 53.4842 269.101 53.4908C269.077 53.5442 269.053 53.57 269.03 53.5683C269.03 53.5683 269.026 53.5669 269.02 53.5641L269.03 53.5683C269.033 53.5616 269.034 53.5583 269.034 53.5583L268.967 53.4947L268.875 53.4569C268.862 53.4513 268.843 53.4476 268.82 53.4459L268.738 53.4123L268.702 53.3855C268.689 53.3799 268.674 53.3777 268.657 53.3788L268.612 53.372L268.447 53.2564C268.44 53.2536 268.422 53.258 268.393 53.2696C268.363 53.2812 268.338 53.2828 268.318 53.2744C268.291 53.2632 268.254 53.2203 268.208 53.1456C268.195 53.1562 268.149 53.1689 268.069 53.1837C268.022 53.1641 268.01 53.1276 268.035 53.0743L268.272 52.6608L268.295 52.6108C268.277 52.5957 268.254 52.5859 268.224 52.5814C268.27 52.5687 268.298 52.5409 268.31 52.4981L268.326 52.4097L268.331 52.3997C268.34 52.3797 268.369 52.368 268.419 52.3648C268.415 52.3392 268.412 52.3103 268.41 52.278C268.413 52.2552 268.414 52.2357 268.413 52.2196C268.422 52.1995 268.43 52.1829 268.436 52.1695C268.449 52.159 268.466 52.1304 268.487 52.0837L268.484 52.011C268.528 52.0212 268.57 52.0071 268.612 51.9688C268.611 51.9526 268.597 51.9309 268.569 51.9036C268.591 51.873 268.607 51.8477 268.616 51.8277C268.635 51.8038 268.644 51.7838 268.644 51.7677L268.662 51.6208L268.728 51.5291L268.785 51.4575L268.816 51.2322C268.825 51.2122 268.854 51.1925 268.903 51.1731C268.892 51.1609 268.883 51.1453 268.876 51.1263C268.869 51.1074 268.861 51.0884 268.854 51.0695C268.885 51.0351 268.92 50.9778 268.956 50.8978C268.965 50.8778 268.975 50.8658 268.985 50.862L268.991 50.7693C269.021 50.7026 269.051 50.6635 269.081 50.6518C269.11 50.6402 269.132 50.6177 269.148 50.5844C269.172 50.531 269.175 50.4726 269.155 50.4091C269.169 50.4308 269.181 50.4398 269.191 50.4359C269.218 50.4471 269.24 50.4441 269.256 50.4269L269.178 50.3591C269.174 50.3496 269.171 50.3401 269.167 50.3307C269.166 50.3145 269.161 50.3003 269.15 50.2881C269.173 50.2736 269.206 50.2634 269.249 50.2574C269.243 50.2708 269.243 50.2869 269.251 50.3058C269.254 50.2992 269.265 50.292 269.285 50.2842C269.214 50.1917 269.186 50.1482 269.199 50.1538C269.172 50.1426 269.144 50.1509 269.115 50.1786L269.061 50.2987C269.03 50.2942 269.008 50.3086 268.992 50.3419L268.965 50.402C268.955 50.4059 268.936 50.4217 268.907 50.4494L268.853 50.5937C268.844 50.5976 268.827 50.6067 268.805 50.6211C268.785 50.6289 268.755 50.6405 268.716 50.656C268.738 50.6967 268.737 50.7598 268.714 50.8455C268.702 50.8721 268.691 50.8874 268.681 50.8913C268.622 50.9145 268.576 50.9548 268.541 51.012C268.519 51.0426 268.497 51.0731 268.475 51.1037C268.456 51.1276 268.433 51.1534 268.404 51.1811L268.45 51.2121L268.382 51.3622L268.294 51.4213C268.298 51.4307 268.294 51.4569 268.283 51.4997C268.28 51.5225 268.274 51.5439 268.265 51.5639C268.263 51.5868 268.254 51.6068 268.238 51.624L268.18 51.6714L268.149 51.6588L268.102 51.6036C267.984 51.7213 267.931 51.7668 267.943 51.7401L267.988 51.8538C267.983 51.8994 267.97 51.9456 267.949 51.9922L267.903 52.0923C267.893 52.0962 267.874 52.1039 267.844 52.1155C267.825 52.1233 267.802 52.1377 267.776 52.1588C267.75 52.1799 267.727 52.2138 267.705 52.2605L267.717 52.2889C267.72 52.2983 267.719 52.3097 267.713 52.3231L267.582 52.5306C267.573 52.5506 267.549 52.5684 267.509 52.5839L267.496 52.6139C267.484 52.6406 267.462 52.6516 267.432 52.6471C267.439 52.7211 267.436 52.7796 267.425 52.8224C267.419 52.8357 267.403 52.853 267.377 52.874C267.347 52.8695 267.313 52.8636 267.276 52.8563C267.236 52.8556 267.196 52.855 267.156 52.8543L267.039 52.7939L266.926 52.7235L266.765 52.7048C266.745 52.6964 266.733 52.6875 266.729 52.678C266.732 52.6713 266.738 52.6419 266.746 52.5896C266.731 52.5517 266.724 52.5213 266.727 52.4985L266.759 52.3216C266.782 52.3072 266.803 52.3042 266.824 52.3126L266.856 52.2426C266.916 52.2516 266.954 52.2475 266.97 52.2303C266.975 52.2008 266.968 52.1819 266.948 52.1735C266.904 52.1634 266.87 52.185 266.845 52.2384L266.784 52.2132L266.905 52.0015L266.922 51.913L266.928 51.8204C266.949 51.7737 266.993 51.7643 267.061 51.7923L267.093 51.8291C267.12 51.8403 267.143 51.834 267.162 51.8101C267.113 51.7582 267.072 51.7253 267.038 51.7113L267.003 51.7087C267.006 51.702 267.02 51.6881 267.046 51.6671C267.035 51.6387 267.026 51.623 267.019 51.6202L266.943 51.6009C266.94 51.5914 266.948 51.5633 266.97 51.5166C266.988 51.4766 267.013 51.4474 267.046 51.4292L267.089 51.3875C267.082 51.3686 267.071 51.3482 267.056 51.3265C267.049 51.3076 267.036 51.2825 267.018 51.2513C267.015 51.2418 267.016 51.2304 267.022 51.2171C267.031 51.1971 267.038 51.1723 267.044 51.1428L267.167 50.9795C267.163 50.9701 267.159 50.9606 267.155 50.9511C267.152 50.9416 267.146 50.9274 267.139 50.9085L267.169 50.79C267.165 50.7806 267.158 50.7697 267.147 50.7574C267.146 50.7413 267.144 50.7204 267.14 50.6948C267.149 50.6909 267.157 50.6823 267.163 50.669C267.176 50.6423 267.178 50.6114 267.169 50.5764L267.188 50.5363L267.223 50.5389C267.294 50.5602 267.337 50.5542 267.352 50.5209C267.364 50.4942 267.328 50.4593 267.243 50.4163C267.247 50.3545 267.258 50.3036 267.276 50.2636L267.31 50.242L267.319 50.2219C267.32 50.1669 267.31 50.127 267.289 50.1025L267.288 50.0783C267.291 50.0716 267.298 50.0664 267.307 50.0625L267.28 50.0157C267.374 49.9513 267.421 49.9192 267.421 49.9192C267.436 49.8858 267.43 49.8474 267.401 49.8039C267.404 49.7973 267.43 49.7843 267.48 49.7649L267.357 49.6903C267.351 49.6486 267.346 49.6263 267.339 49.6235C267.299 49.6228 267.272 49.6278 267.259 49.6383L267.237 49.6884L267.192 49.7058L267.174 49.7458C267.175 49.7619 267.174 49.7814 267.172 49.8042C267.169 49.827 267.165 49.8532 267.16 49.8827C267.145 49.916 267.122 49.9385 267.093 49.9501C267.057 49.9589 267.037 49.9667 267.034 49.9734L267.057 50.1612C267.061 50.1707 267.058 50.1854 267.049 50.2054C267.043 50.2188 267.04 50.2335 267.041 50.2497C267.037 50.2402 267.026 50.2474 267.007 50.2713C266.976 50.2668 266.952 50.2764 266.933 50.3003L266.9 50.3462C266.915 50.384 266.932 50.4072 266.953 50.4156L266.704 51.0143L266.67 51.0359C266.667 51.0587 266.655 51.0935 266.634 51.1402C266.625 51.1602 266.601 51.186 266.562 51.2177L266.515 51.2693C266.512 51.276 266.509 51.2826 266.505 51.2893C266.509 51.2988 266.511 51.3116 266.512 51.3277C266.517 51.3533 266.5 51.39 266.462 51.4378C266.474 51.4823 266.456 51.5385 266.409 51.6063C266.382 51.6825 266.358 51.7439 266.337 51.7906C266.322 51.8401 266.306 51.8768 266.287 51.9007C266.291 51.9263 266.292 51.9505 266.29 51.9733C266.29 51.9894 266.291 52.0056 266.292 52.0217C266.26 52.0561 266.227 52.0939 266.192 52.135C266.167 52.1722 266.135 52.2147 266.097 52.2625L266.116 52.3535L266.098 52.3935C266.078 52.4013 266.052 52.4062 266.019 52.4084C265.992 52.4133 265.962 52.4169 265.929 52.419C265.888 52.4022 265.851 52.3707 265.815 52.3244L265.736 52.2324C265.707 52.244 265.679 52.2523 265.653 52.2572C265.622 52.2527 265.594 52.2449 265.567 52.2337C265.543 52.2319 265.525 52.2283 265.511 52.2227L265.378 52.1439C265.371 52.1411 265.346 52.1427 265.303 52.1487L265.233 52.1436ZM270.579 47.2388C270.591 47.2121 270.593 47.1893 270.586 47.1704L270.538 47.222L270.579 47.2388ZM268.285 46.7317L268.335 46.7285L268.328 46.6901C268.318 46.6939 268.312 46.6992 268.309 46.7059C268.306 46.7126 268.298 46.7212 268.285 46.7317ZM270.556 47.7647L270.611 47.7514C270.614 47.7448 270.6 47.7392 270.57 47.7346C270.56 47.7385 270.556 47.7485 270.556 47.7647ZM270.656 47.8893C270.671 47.911 270.694 47.9047 270.725 47.8702C270.722 47.8608 270.713 47.8532 270.7 47.8476C270.672 47.8364 270.658 47.8503 270.656 47.8893ZM267.748 46.9024C267.765 46.9174 267.783 46.9211 267.803 46.9134C267.823 46.9056 267.823 46.8861 267.805 46.8549C267.782 46.8532 267.763 46.869 267.748 46.9024ZM268.384 47.4148C268.417 47.4126 268.438 47.4096 268.448 47.4057C268.445 47.3412 268.454 47.2969 268.473 47.2731C268.492 47.2653 268.512 47.2576 268.531 47.2498C268.554 47.2354 268.577 47.221 268.6 47.2066C268.551 47.1708 268.516 47.1521 268.492 47.1504C268.452 47.1336 268.426 47.1271 268.417 47.131C268.374 47.137 268.346 47.1534 268.334 47.1801C268.279 47.3001 268.296 47.3784 268.384 47.4148ZM267.987 47.7268C268 47.7163 268.003 47.7016 267.995 47.6826C267.992 47.6731 267.973 47.6695 267.94 47.6716C267.944 47.6972 267.96 47.7156 267.987 47.7268ZM267.412 47.8223C267.418 47.809 267.417 47.7928 267.41 47.7739C267.409 47.7577 267.394 47.7555 267.365 47.7671C267.356 47.7871 267.371 47.8055 267.412 47.8223ZM270.21 49.132C270.213 49.1253 270.209 49.1078 270.197 49.0793L270.168 49.091C270.172 49.1004 270.177 49.1066 270.184 49.1094C270.197 49.115 270.206 49.1225 270.21 49.132ZM266.943 47.8429C266.958 47.8646 266.979 47.8616 267.008 47.8339C267.004 47.8244 266.996 47.8169 266.982 47.8113C266.962 47.8029 266.949 47.8134 266.943 47.8429ZM270.428 49.3412C270.428 49.325 270.418 49.3208 270.398 49.3286L270.41 49.3812L270.428 49.3412ZM270.157 49.3005C270.166 49.2804 270.167 49.261 270.159 49.242C270.146 49.2364 270.129 49.2375 270.11 49.2453C270.101 49.2653 270.116 49.2837 270.157 49.3005ZM267.806 48.865C267.826 48.8572 267.84 48.8434 267.849 48.8234C267.812 48.816 267.781 48.8229 267.755 48.844L267.806 48.865ZM267.811 48.986L267.804 48.9476L267.72 48.9483L267.811 48.986ZM268.17 49.2056C268.176 49.1922 268.166 49.18 268.139 49.1688C268.15 49.1972 268.16 49.2095 268.17 49.2056ZM267.005 49.5334C267.012 49.5362 267.02 49.5356 267.03 49.5318L267.003 49.485C266.996 49.4822 266.988 49.4827 266.978 49.4866L267.005 49.5334ZM267.847 50.0713L267.879 50.0012C267.83 50.0206 267.799 50.0275 267.785 50.0219C267.792 50.0247 267.792 50.0327 267.786 50.0461L267.847 50.0713ZM266.944 49.7461L267.02 49.7655C267.029 49.7293 267.017 49.7009 266.987 49.6802L266.944 49.7461ZM269.355 51.1099C269.404 51.0906 269.436 51.0642 269.451 51.0309L269.465 51.0008C269.464 50.9847 269.457 50.9658 269.443 50.944C269.435 50.9251 269.427 50.8981 269.419 50.863L269.349 50.9647C269.336 50.9914 269.338 51.0398 269.355 51.1099ZM268.21 50.7324C268.304 50.7555 268.353 50.7717 268.357 50.7812L268.383 50.6969C268.365 50.6496 268.34 50.6237 268.31 50.6191C268.29 50.6269 268.257 50.6646 268.21 50.7324ZM269.984 51.346C269.984 51.346 269.979 51.3479 269.969 51.3518C269.976 51.3546 269.98 51.356 269.98 51.356C269.983 51.3493 269.984 51.346 269.984 51.346ZM267.883 50.9186L267.877 50.8802L267.866 50.876L267.863 50.9102L267.883 50.9186ZM266.498 50.644C266.515 50.6591 266.54 50.6575 266.573 50.6392C266.562 50.6108 266.546 50.6005 266.526 50.6082C266.507 50.616 266.497 50.6279 266.498 50.644ZM266.081 50.7098C266.091 50.706 266.099 50.6974 266.105 50.684C266.114 50.664 266.105 50.6484 266.078 50.6372C266.062 50.6544 266.063 50.6786 266.081 50.7098ZM269.072 52.5751C269.099 52.5862 269.123 52.588 269.143 52.5802C269.133 52.5129 269.146 52.4667 269.182 52.4418C269.201 52.434 269.221 52.4263 269.241 52.4185C269.26 52.4108 269.281 52.3997 269.304 52.3853C269.28 52.3674 269.258 52.3543 269.237 52.3459C269.22 52.3308 269.205 52.3205 269.191 52.3149C269.171 52.3065 269.144 52.3034 269.111 52.3055C269.068 52.3115 269.037 52.3346 269.019 52.3746C268.987 52.4802 269.005 52.5471 269.072 52.5751ZM266.227 51.317C266.24 51.3065 266.239 51.2903 266.225 51.2686C266.224 51.2525 266.209 51.2502 266.18 51.2618C266.184 51.2874 266.2 51.3058 266.227 51.317ZM265.577 52C265.596 51.9922 265.635 51.9962 265.692 52.0119C265.74 52.0315 265.771 52.0166 265.785 51.9671L265.789 51.9329L265.753 51.9061L265.647 51.8983C265.641 51.8955 265.639 51.8908 265.642 51.8841L265.621 51.8757C265.594 51.8645 265.576 51.8689 265.567 51.8889C265.549 51.9289 265.552 51.966 265.577 52ZM272.24 55.0246L272.173 54.961C272.09 54.9113 272.014 54.8677 271.942 54.8302C271.874 54.8023 271.815 54.7737 271.764 54.7447L271.673 54.7311L271.457 54.5703L271.351 54.5626L271.085 54.405L270.928 54.352C270.914 54.3464 270.899 54.3442 270.883 54.3452L270.837 54.3385L270.438 54.1021L270.358 54.0927C270.347 54.0805 270.33 54.0654 270.306 54.0475C270.288 54.0325 270.268 54.016 270.244 53.9982L270.204 54.0056C270.194 53.9933 270.161 53.976 270.107 53.9536L270.082 53.9552L269.899 53.8796C269.797 53.8377 269.783 53.7642 269.855 53.6592L269.934 53.5375C269.963 53.4936 269.983 53.4583 269.995 53.4316C270.01 53.3983 270.022 53.3716 270.031 53.3516C270.044 53.341 270.065 53.3299 270.095 53.3183C270.127 53.3 270.175 53.284 270.238 53.2702L270.247 53.2502L270.154 53.1882L270.162 53.144C270.184 53.0973 270.214 53.0662 270.253 53.0507C270.318 53.0142 270.363 52.9773 270.389 52.94C270.358 52.9194 270.346 52.8829 270.354 52.8306L270.374 52.708C270.374 52.708 270.422 52.6207 270.517 52.4462L270.575 52.5056C270.585 52.5017 270.597 52.4831 270.612 52.4498L270.64 52.3897C270.629 52.3613 270.621 52.3343 270.616 52.3087L270.615 52.2845C270.621 52.2711 270.64 52.2473 270.672 52.2128C270.704 52.1784 270.72 52.1612 270.72 52.1612C270.732 52.1345 270.729 52.1056 270.711 52.0744C270.724 52.0477 270.746 52.0171 270.777 51.9827C270.777 51.9827 270.775 51.9699 270.771 51.9443C270.78 51.9243 270.788 51.9157 270.795 51.9185C270.803 51.8823 270.823 51.847 270.855 51.8126C270.891 51.7876 270.908 51.7752 270.908 51.7752L270.934 51.6667C270.942 51.6305 270.946 51.6044 270.945 51.5883C270.948 51.5655 270.95 51.5507 270.954 51.544C270.96 51.5307 270.982 51.5163 271.022 51.5008C271.061 51.4853 271.084 51.4709 271.09 51.4576C271.09 51.4576 271.092 51.4347 271.097 51.3891C271.086 51.3607 271.082 51.3432 271.085 51.3365L271.213 51.1874C271.185 51.1601 271.197 51.1172 271.248 51.0589L271.333 50.9514C271.341 50.9153 271.347 50.8858 271.349 50.863C271.358 50.843 271.366 50.8263 271.372 50.813L271.456 50.6813L271.539 50.6322C271.538 50.6161 271.54 50.5852 271.545 50.5396L271.628 50.3837C271.626 50.3353 271.627 50.3077 271.63 50.3011L271.789 50.1645C271.789 50.1645 271.787 50.1598 271.783 50.1503C271.786 50.1437 271.788 50.1323 271.787 50.1161C271.796 50.0961 271.807 50.0728 271.819 50.0461C271.841 50.0155 271.866 49.9783 271.894 49.9344L271.929 49.8059C271.932 49.8154 271.962 49.7682 272.017 49.6642L272.025 49.5958C272.024 49.5797 272.022 49.5669 272.018 49.5574C272.021 49.5507 272.024 49.5441 272.027 49.5374C272.04 49.5268 272.053 49.5163 272.066 49.5058C272.079 49.4952 272.09 49.4799 272.099 49.4599L272.261 49.1581L272.634 48.4203C272.704 48.3542 272.747 48.3045 272.762 48.2712L272.775 48.2169C272.781 48.2036 272.782 48.1922 272.779 48.1827C272.775 48.1733 272.775 48.1652 272.778 48.1585L272.822 48.0342C272.828 48.0209 272.859 47.9898 272.913 47.941C272.937 47.9588 272.965 47.9781 272.996 47.9988C273.029 48.0128 273.06 48.0334 273.088 48.0607C273.099 48.0892 273.121 48.1218 273.152 48.1586C273.159 48.1614 273.179 48.1536 273.211 48.1353C273.241 48.1237 273.262 48.1207 273.276 48.1263L273.318 48.1915C273.347 48.235 273.399 48.2802 273.474 48.3271C273.5 48.306 273.522 48.2916 273.542 48.2839L273.628 48.3074C273.658 48.312 273.683 48.3184 273.704 48.3268L273.731 48.3736C273.738 48.3926 273.757 48.4043 273.787 48.4088L273.898 48.4308C273.928 48.4353 273.95 48.4404 273.964 48.446C273.977 48.4516 273.987 48.4558 273.994 48.4586L274.154 48.5842C274.171 48.5831 274.186 48.5853 274.199 48.5909C274.223 48.5927 274.25 48.5958 274.28 48.6003L274.362 48.6581C274.357 48.6876 274.371 48.7093 274.405 48.7233C274.412 48.7261 274.433 48.7231 274.469 48.7143C274.509 48.6988 274.529 48.6991 274.529 48.7153C274.529 48.7153 274.547 48.7303 274.581 48.7605C274.601 48.7527 274.622 48.7497 274.646 48.7514L274.708 48.8008C274.718 48.8131 274.725 48.824 274.729 48.8334C274.74 48.8457 274.748 48.8532 274.755 48.856L274.81 48.867C274.804 48.8804 274.804 48.916 274.81 48.9739C274.833 48.9594 274.845 48.9328 274.847 48.8938L274.942 48.8974C274.952 48.9096 274.968 48.9281 274.989 48.9526C275.01 48.9771 275.034 49.0031 275.062 49.0304C275.056 49.0437 275.059 49.0646 275.07 49.093L275.1 49.1056L275.193 49.0608C275.21 49.0597 275.228 49.0633 275.249 49.0717C275.276 49.0829 275.304 49.0908 275.335 49.0953L275.401 49.1347L275.207 49.5065C275.161 49.5192 275.131 49.5422 275.115 49.5756L275.089 49.6598L274.849 50.1317C274.828 50.1784 274.78 50.1864 274.705 50.1556C274.694 50.1272 274.68 50.1055 274.663 50.0904C274.639 50.0725 274.603 50.0538 274.555 50.0342C274.511 50.0079 274.457 49.9856 274.393 49.967C274.379 49.9614 274.362 49.9545 274.342 49.9461C274.325 49.931 274.301 49.9131 274.27 49.8925L274.183 49.8447L274.011 49.7975L273.843 49.7162C273.829 49.7106 273.817 49.7016 273.807 49.6894L273.77 49.6626C273.719 49.6335 273.677 49.612 273.643 49.598C273.616 49.5868 273.599 49.5798 273.592 49.577C273.574 49.5458 273.551 49.5246 273.524 49.5134C273.511 49.5078 273.481 49.5113 273.435 49.524C273.389 49.5367 273.359 49.5403 273.345 49.5347C273.336 49.5547 273.327 49.5666 273.317 49.5705L273.304 49.6247C273.305 49.6409 273.301 49.6589 273.292 49.679C273.286 49.6923 273.28 49.7137 273.274 49.7432C273.194 49.7419 273.113 49.8232 273.03 49.9872L273.066 50.014L273.137 50.0434C273.141 50.0528 273.137 50.0709 273.125 50.0976C273.112 50.1243 273.087 50.1454 273.047 50.1608C272.998 50.1802 272.974 50.1899 272.974 50.1899C272.973 50.2611 272.961 50.3315 272.938 50.401C272.932 50.4143 272.904 50.4388 272.856 50.4743C272.808 50.5098 272.776 50.5442 272.76 50.5775L272.754 50.5391L272.714 50.5465L272.7 50.5766C272.708 50.5955 272.732 50.6134 272.773 50.6302C272.767 50.6435 272.759 50.6602 272.75 50.6802C272.751 50.6963 272.75 50.7158 272.747 50.7386C272.757 50.806 272.775 50.8452 272.802 50.8564L272.887 50.8558C272.891 50.8653 272.898 50.8842 272.91 50.9126C272.931 50.9372 272.944 50.9508 272.951 50.9536C272.948 50.9441 272.984 50.9353 273.06 50.9272C273.118 50.959 273.164 50.9739 273.197 50.9717C273.223 51.038 273.246 51.0754 273.266 51.0838L273.307 51.1005L273.392 51.0999C273.399 51.1027 273.41 51.1036 273.427 51.1025C273.444 51.1014 273.46 51.1003 273.477 51.0993L273.547 51.1045C273.567 51.1128 273.585 51.136 273.6 51.1739C273.619 51.2212 273.631 51.2463 273.638 51.2491C273.664 51.2441 273.7 51.2467 273.743 51.2568C273.743 51.2568 273.74 51.2635 273.734 51.2769C273.738 51.2863 273.735 51.3011 273.726 51.3211C273.714 51.3478 273.692 51.3864 273.661 51.4369C273.64 51.4836 273.609 51.5423 273.569 51.6129L273.53 51.6445C273.528 51.6673 273.51 51.7154 273.476 51.7888C273.463 51.7993 273.446 51.8199 273.424 51.8504C273.402 51.881 273.388 51.9029 273.382 51.9163L273.373 51.9363C273.366 51.9496 273.358 51.9858 273.347 52.0447L273.329 52.0847C273.308 52.1314 273.276 52.1659 273.233 52.188C273.135 52.2267 273.079 52.2433 273.066 52.2377L272.988 52.1699C272.974 52.1643 272.956 52.1607 272.933 52.1589L272.867 52.1438C272.859 52.1248 272.847 52.1078 272.83 52.0927C272.822 52.0738 272.807 52.0554 272.783 52.0375C272.766 52.0386 272.746 52.0383 272.723 52.0366C272.709 52.031 272.687 52.0259 272.657 52.0214L272.559 51.9452C272.5 51.8972 272.461 51.869 272.44 51.8606L272.33 51.8386C272.316 51.833 272.31 51.8027 272.311 51.7476C272.341 51.7521 272.365 51.7424 272.384 51.7186L272.395 51.7228C272.408 51.7284 272.428 51.7368 272.456 51.7479C272.483 51.7591 272.508 51.7737 272.532 51.7915L272.561 51.7557L272.57 51.7357C272.579 51.7157 272.576 51.6867 272.561 51.6489C272.554 51.6461 272.541 51.6405 272.521 51.6321C272.51 51.6198 272.493 51.6047 272.469 51.5869C272.449 51.5946 272.43 51.6185 272.412 51.6585C272.395 51.6435 272.367 51.6517 272.328 51.6834C272.32 51.6644 272.292 51.6646 272.243 51.684L272.211 51.754C272.191 51.7618 272.167 51.7795 272.138 51.8073C272.082 51.8077 272.046 51.8246 272.031 51.858C272.031 51.858 272.034 51.8674 272.042 51.8864C272.046 51.8958 272.044 51.9072 272.038 51.9206L272.02 51.9606C272.011 51.9806 272.002 52.0006 271.993 52.0206C271.984 52.0407 271.968 52.0659 271.946 52.0965L271.958 52.1491C271.926 52.1835 271.837 52.2459 271.691 52.3363L271.682 52.3563C271.67 52.383 271.67 52.4105 271.681 52.4389C271.713 52.4045 271.77 52.3765 271.852 52.355C271.864 52.3996 271.862 52.4385 271.847 52.4719C271.844 52.4786 271.785 52.5018 271.67 52.5416L271.679 52.6284L271.724 52.6352C271.751 52.6464 271.756 52.672 271.737 52.712C271.718 52.7198 271.689 52.7395 271.65 52.7711C271.624 52.7922 271.605 52.8161 271.593 52.8427L271.61 52.8854C271.607 52.892 271.567 52.927 271.489 52.9902L271.483 53.0829C271.468 53.1162 271.435 53.1265 271.385 53.1135C271.389 53.123 271.404 53.1333 271.431 53.1445L271.428 53.1787C271.398 53.1904 271.375 53.2048 271.359 53.222C271.355 53.2676 271.368 53.3008 271.399 53.3214C271.433 53.3354 271.458 53.3499 271.475 53.365C271.533 53.3807 271.588 53.3998 271.643 53.4222C271.697 53.4446 271.754 53.4683 271.816 53.4935C271.81 53.523 271.821 53.5433 271.848 53.5545C271.862 53.5601 271.906 53.5427 271.981 53.5023C272.021 53.5191 272.032 53.5669 272.012 53.6459L272.042 53.6585C272.051 53.6385 272.062 53.6232 272.075 53.6127C272.132 53.6123 272.206 53.635 272.298 53.6808L272.397 53.7812C272.394 53.7879 272.42 53.8024 272.474 53.8248C272.501 53.836 272.516 53.8463 272.52 53.8558L272.666 53.8804C272.686 53.8888 272.706 53.8891 272.726 53.8813C272.736 53.8775 272.761 53.8839 272.802 53.9007C272.85 53.9364 272.859 53.9877 272.828 54.0544C272.816 54.0811 272.774 54.1469 272.702 54.2519C272.702 54.2519 272.692 54.2558 272.672 54.2635C272.659 54.2741 272.65 54.286 272.644 54.2993L272.53 54.5495C272.53 54.5495 272.506 54.5478 272.459 54.5443C272.464 54.6573 272.453 54.7438 272.426 54.8038C272.41 54.8372 272.375 54.8622 272.319 54.8787L272.29 55.0214C272.257 55.0235 272.24 55.0246 272.24 55.0246ZM274.841 49.4623L274.851 49.4665C274.892 49.4832 274.936 49.4739 274.985 49.4384C274.976 49.4033 274.966 49.383 274.952 49.3774L274.798 49.397C274.806 49.4321 274.82 49.4539 274.841 49.4623ZM274.562 49.5968C274.565 49.5902 274.561 49.5726 274.55 49.5442C274.55 49.5442 274.54 49.5481 274.52 49.5558L274.562 49.5968ZM272.922 49.0862L273.023 48.9972L272.981 48.9562L272.954 48.9094C272.901 48.9192 272.864 48.9475 272.843 48.9942C272.872 49.0377 272.898 49.0684 272.922 49.0862ZM272.32 49.7418C272.326 49.7284 272.329 49.7137 272.329 49.6975C272.335 49.6842 272.337 49.6695 272.337 49.6533L272.265 49.6239L272.237 49.6598L272.264 49.7066L272.32 49.7418ZM271.615 50.3069C271.621 50.2935 271.626 50.2916 271.63 50.3011L271.615 50.3069ZM272.064 50.7537C272.122 50.7143 272.133 50.6715 272.098 50.6252C272.088 50.6291 272.069 50.6449 272.04 50.6727C272.031 50.6927 272.039 50.7197 272.064 50.7537ZM271.769 50.763L271.848 50.6171L271.831 50.5745L271.76 50.5451L271.736 50.5709C271.736 50.5709 271.737 50.5951 271.739 50.6436C271.75 50.6558 271.741 50.6758 271.712 50.7036C271.732 50.712 271.751 50.7318 271.769 50.763ZM271.783 51.0777C271.789 51.0644 271.797 51.0477 271.806 51.0277C271.815 51.0077 271.827 50.9891 271.843 50.9719C271.836 50.9691 271.818 50.9735 271.789 50.9851C271.78 51.0051 271.778 51.036 271.783 51.0777ZM273.012 51.5615L273.022 51.5656C273.036 51.5712 273.073 51.5786 273.133 51.5876L273.105 51.5166C273.101 51.491 273.074 51.4879 273.025 51.5072C273.013 51.5339 273.008 51.552 273.012 51.5615ZM271.555 52.1849C271.565 52.181 271.564 52.1649 271.553 52.1365C271.54 52.1309 271.528 52.13 271.518 52.1339L271.555 52.1849ZM271.378 52.4925C271.392 52.4981 271.422 52.5026 271.469 52.506L271.475 52.4134C271.445 52.4089 271.425 52.4166 271.416 52.4366L271.378 52.4925ZM270.876 52.5347C270.882 52.5213 270.889 52.5047 270.899 52.4847C270.908 52.4646 270.919 52.4494 270.932 52.4388C270.928 52.4294 270.911 52.4304 270.882 52.442L270.876 52.5347ZM270.785 52.759C270.798 52.7485 270.801 52.7337 270.793 52.7148C270.786 52.6959 270.769 52.6889 270.743 52.6938C270.743 52.7099 270.758 52.7317 270.785 52.759ZM270.432 53.2674C270.465 53.2491 270.48 53.2238 270.479 53.1915L270.438 53.1747L270.391 53.2264C270.398 53.2453 270.412 53.259 270.432 53.2674ZM271.755 54.3131C271.762 54.2998 271.761 54.2836 271.753 54.2647C271.75 54.2552 271.735 54.2529 271.708 54.2579C271.699 54.2779 271.715 54.2963 271.755 54.3131ZM271.685 54.5458L271.882 54.5914L271.884 54.5087C271.885 54.4698 271.866 54.4419 271.825 54.4251L271.72 54.4174C271.711 54.4374 271.702 54.4574 271.692 54.4774C271.69 54.5002 271.688 54.523 271.685 54.5458Z" fill="#503613"/>
<defs>
<filter id="filter0_n_771_74" x="265.906" y="7.87231" width="15.9351" height="13.6927" filterUnits="userSpaceOnUse" color-interpolation-filters="sRGB">
<feFlood flood-opacity="0" result="BackgroundImageFix"/>
<feBlend mode="normal" in="SourceGraphic" in2="BackgroundImageFix" result="shape"/>
<feTurbulence type="fractalNoise" baseFrequency="2 2" stitchTiles="stitch" numOctaves="3" result="noise" seed="2277" />
<feColorMatrix in="noise" type="luminanceToAlpha" result="alphaNoise" />
<feComponentTransfer in="alphaNoise" result="coloredNoise1">
<feFuncA type="discrete" tableValues="1 1 1 1 1 1 1 1 1 1 1 1 1 1 1 1 1 1 1 1 1 1 1 1 1 1 1 1 1 1 1 1 1 1 1 1 1 1 1 1 1 1 1 1 1 1 1 1 1 1 1 0 0 0 0 0 0 0 0 0 0 0 0 0 0 0 0 0 0 0 0 0 0 0 0 0 0 0 0 0 0 0 0 0 0 0 0 0 0 0 0 0 0 0 0 0 0 0 0 0 "/>
</feComponentTransfer>
<feComposite operator="in" in2="shape" in="coloredNoise1" result="noise1Clipped" />
<feFlood flood-color="rgba(0, 0, 0, 0.25)" result="color1Flood" />
<feComposite operator="in" in2="noise1Clipped" in="color1Flood" result="color1" />
<feMerge result="effect1_noise_771_74">
<feMergeNode in="shape" />
<feMergeNode in="color1" />
</feMerge>
</filter>
<filter id="filter1_n_771_74" x="241.303" y="34.7089" width="39.9385" height="25.4077" filterUnits="userSpaceOnUse" color-interpolation-filters="sRGB">
<feFlood flood-opacity="0" result="BackgroundImageFix"/>
<feBlend mode="normal" in="SourceGraphic" in2="BackgroundImageFix" result="shape"/>
<feTurbulence type="fractalNoise" baseFrequency="2 2" stitchTiles="stitch" numOctaves="3" result="noise" seed="4379" />
<feColorMatrix in="noise" type="luminanceToAlpha" result="alphaNoise" />
<feComponentTransfer in="alphaNoise" result="coloredNoise1">
<feFuncA type="discrete" tableValues="1 1 1 1 1 1 1 1 1 1 1 1 1 1 1 1 1 1 1 1 1 1 1 1 1 1 1 1 1 1 1 1 1 1 1 1 1 1 1 1 1 1 1 1 1 1 1 1 1 1 1 0 0 0 0 0 0 0 0 0 0 0 0 0 0 0 0 0 0 0 0 0 0 0 0 0 0 0 0 0 0 0 0 0 0 0 0 0 0 0 0 0 0 0 0 0 0 0 0 0 "/>
</feComponentTransfer>
<feComposite operator="in" in2="shape" in="coloredNoise1" result="noise1Clipped" />
<feFlood flood-color="rgba(0, 0, 0, 0.25)" result="color1Flood" />
<feComposite operator="in" in2="noise1Clipped" in="color1Flood" result="color1" />
<feMerge result="effect1_noise_771_74">
<feMergeNode in="shape" />
<feMergeNode in="color1" />
</feMerge>
</filter>
<radialGradient id="paint0_radial_771_74" cx="0" cy="0" r="1" gradientUnits="userSpaceOnUse" gradientTransform="translate(146.429 158.004) rotate(90) scale(354.486 399.276)">
<stop offset="0.105769" stop-color="#FFFBF5"/>
<stop offset="0.552885" stop-color="#99D4F3"/>
</radialGradient>
<linearGradient id="paint1_linear_771_74" x1="155" y1="103" x2="146.429" y2="288.007" gradientUnits="userSpaceOnUse">
<stop stop-color="#051E45"/>
</linearGradient>
</defs>
</svg>
