<svg width="293" height="261" viewBox="0 0 293 261" fill="none" xmlns="http://www.w3.org/2000/svg">
<rect x="2" y="2" width="288.859" height="256.007" rx="38" fill="url(#paint0_radial_838_53)" stroke="#6E5739" stroke-width="4"/>
<path fill-rule="evenodd" clip-rule="evenodd" d="M57.4631 221.955C56.2308 222.544 53.2057 224.409 53.2057 224.409C53.2057 224.409 54.2906 226.176 55.3344 227.052C56.4182 227.962 57.1309 228.397 58.4092 229.129C60.927 230.57 62.5567 230.975 65.505 231.961C68.4029 232.93 73.3765 234.127 73.3765 234.127L79.46 235.548C79.46 235.548 80.1664 233.315 80.8791 231.961C81.6956 230.409 82.0612 229.382 83.4809 228.185C85.2991 226.652 87.0293 225.537 89.6306 225.92C91.5208 226.198 92.4689 227.241 93.6515 228.185C95.4162 229.594 96.0167 230.639 98.6185 231.395C100.615 231.974 102.639 232.527 104.295 231.961C105.016 231.715 105.668 230.804 106.424 230.639C109.026 230.073 111.298 233.087 115.175 233.82C121.37 234.992 124.684 236.396 131.022 236.87C139.149 237.477 143.683 235.659 151.837 235.359C160.233 235.051 165.112 236.65 173.36 235.359C178.606 234.538 181.362 233.453 186.369 231.961C189.73 230.959 191.382 229.83 194.884 229.208C196.343 228.949 197.185 228.606 198.669 228.751C200.391 228.92 201.27 229.507 202.69 230.262C204.15 231.039 206.754 230.815 208.366 230.262C208.366 230.262 210.119 229.491 210.968 228.751C212.029 227.827 212.777 226.472 214.043 225.731C217.591 223.654 225.98 229.129 225.98 229.129C227.123 228.409 228.336 227.587 229.18 226.864C230.909 225.382 232.728 223.088 232.728 223.088C232.728 223.088 228.241 220.613 225.16 219.312C222.125 218.031 220.294 217.519 217.118 216.48L202.69 213.082C202.69 213.082 195.058 211.584 191.1 211.005C176.908 208.928 166.946 207.372 150.181 207.04C133.416 206.708 105.241 209.306 105.241 209.306C98.8847 209.864 95.3626 210.526 89.1575 211.76C83.0621 212.972 79.6302 213.703 73.7834 215.536C70.2043 216.658 68.4469 217.146 65.0319 218.557C61.5007 220.015 60.8748 220.325 57.4631 221.955ZM89.8671 222.71C89.9409 221.664 91.2197 221.145 92.4689 220.822C93.5235 220.55 94.5976 220.633 95.3072 220.822C96.499 221.139 97.1994 221.955 97.1994 222.899C97.1994 223.799 96.3672 224.103 95.3072 224.409C93.9177 224.811 91.9958 224.598 91.0497 224.22C90.1991 223.881 89.8137 223.468 89.8671 222.71Z" fill="#43270F"/>
<path d="M52.9692 214.403C52.1198 216.156 51.7629 217.243 51.7865 219.123C51.8005 220.239 51.9546 220.866 52.2596 221.955C52.5337 222.934 53.2057 224.409 53.2057 224.409C53.2057 224.409 56.2308 222.544 57.4631 221.955C60.8748 220.325 61.5007 220.015 65.0319 218.557C68.4469 217.146 70.2043 216.658 73.7834 215.536C79.6302 213.703 83.0621 212.972 89.1575 211.76C95.3626 210.526 98.8847 209.864 105.241 209.306C105.241 209.306 133.416 206.708 150.181 207.04C166.946 207.372 176.908 208.928 191.1 211.005C195.058 211.584 202.69 213.082 202.69 213.082L217.118 216.48C220.294 217.519 222.125 218.031 225.16 219.312C228.241 220.613 232.728 223.088 232.728 223.088C232.728 223.088 234.7 220.568 235.094 218.745C235.376 217.438 235.257 216.668 235.094 215.347C234.983 214.455 234.913 213.948 234.621 213.082C234.029 211.331 233.333 210.21 232.019 208.928C230.277 207.229 227.3 205.911 224.45 204.963C213.097 201.188 200.088 199.111 200.088 199.111C200.088 199.111 190.722 198.047 184.714 197.412C177.331 196.631 173.225 195.882 165.792 195.524C158.784 195.186 154.835 195.418 147.816 195.524L147.565 195.528C135.329 195.712 128.364 195.817 116.121 196.845C107.119 197.602 94.1245 199.488 94.1245 199.488C94.1245 199.488 87.3802 200.133 83.2444 200.81C78.8766 201.525 77.1021 201.849 72.8373 202.887C69.931 203.594 67.7534 204.074 65.0319 205.152C61.819 206.425 60.0013 207.197 57.4631 209.306C55.3865 211.031 54.0501 212.172 52.9692 214.403Z" fill="#5E3716"/>
<path fill-rule="evenodd" clip-rule="evenodd" d="M239.588 218.179C239.351 217.424 242.189 212.893 243.135 210.25C243.372 209.589 243.541 206.587 242.426 204.397C242.137 203.831 240.061 201.188 237.695 199.866C235.658 198.728 234.915 198.127 232.965 197.223C227.355 194.623 223.725 193.803 217.118 192.314C210.51 190.826 204.986 190.026 197.723 189.105C188.827 187.977 174.78 187.217 174.78 187.217C174.78 187.217 159.791 186.47 150.181 186.462C137.333 186.45 134.698 186.593 117.304 187.594C104.3 188.343 90.1229 190.121 81.1157 191.559C70.472 193.258 56.2805 198.733 51.55 202.509C46.1099 206.851 44.4542 211.005 44.4542 211.005C44.4542 211.005 41.8436 210.438 39.9603 210.816C38.5581 211.097 36.4124 211.76 36.4124 211.76C36.4124 211.76 34.1503 210.468 31.9184 210.438C29.6021 210.408 27.0841 210.765 25.5322 212.138C24.8106 212.776 24.1131 214.026 24.1131 214.026C24.1131 214.026 26.8926 215.504 28.3705 215.725C29.8484 215.946 31.4953 215.094 31.9184 215.347C32.8645 215.914 31.3401 217.87 31.9184 219.123C32.4603 220.297 32.8645 220.256 34.0471 220.633C34.909 220.909 35.8451 220.815 36.6489 220.445C37.514 220.046 37.9008 219.523 38.0681 219.123C38.3046 218.557 37.995 217.746 38.5411 217.046C39.3496 216.01 41.3794 215.158 42.089 215.725C42.9252 216.392 41.5012 218.086 41.3794 219.501C41.2844 220.604 41.1947 221.3 41.3794 222.332C41.5642 223.365 41.7072 223.914 42.3255 224.787C43.097 225.876 43.6529 225.969 45.1638 227.052C46.2726 227.847 47.5894 228.47 48.0021 229.129C48.4752 229.884 46.3284 230.708 46.3464 231.961C46.3588 232.824 46.419 233.281 47.056 234.038C47.6432 234.736 47.9684 235.051 48.9482 235.359C50.4116 235.82 51.55 235.737 52.9692 235.359C54.7782 234.878 56.044 233.283 57.2266 233.283C58.4092 233.283 58.8476 233.519 59.5919 234.227C60.3432 234.941 60.2302 235.53 60.7745 236.492C61.9085 238.497 63.4367 239.606 65.978 240.457C67.7991 241.066 68.7522 241.124 70.9451 241.212C75.6756 241.401 77.5678 239.513 78.2773 239.89C79.1262 240.342 78.2957 241.238 78.7504 241.967C79.2776 242.812 79.7914 243.106 80.8791 243.477C82.2408 243.942 83.2137 243.907 84.6635 243.666C86.3237 243.391 87.5018 242.533 88.6845 241.967C89.077 241.779 89.6433 241.883 90.0917 241.965L90.1036 241.967C90.8781 242.109 91.7593 242.911 91.7593 242.911L97.1994 247.631C97.1994 247.631 99.5422 248.745 101.22 248.952C102.316 249.088 102.958 249.055 104.059 248.952C106.529 248.722 107.987 248.261 109.972 247.064C111.014 246.436 111.053 244.986 112.337 245.177C113.302 245.32 113.061 246.439 113.993 246.687C115.412 247.064 116.608 247.096 118.25 246.876C119.402 246.721 120.039 246.51 121.088 246.121C121.99 245.786 122.248 244.794 123.217 244.988C124.163 245.177 124.807 246.207 126.055 246.876C128.166 248.005 129.679 248.54 132.205 248.764C138.591 249.33 141.903 249.141 149.235 248.197C151.724 247.877 154.202 245.7 154.911 245.743C155.621 245.785 157.473 247.328 159.405 247.82C161.35 248.314 162.602 248.492 164.609 248.197C166.077 247.981 166.86 247.653 168.157 247.064C169.474 246.467 169.726 245.041 171.232 245.177C172.225 245.266 172.468 245.863 173.36 246.309C175.193 247.225 178.564 248.008 178.564 248.008C178.564 248.008 181.763 248.972 184.241 249.141C186.549 249.299 188.025 249.33 190.39 248.952C192.213 248.661 193.342 248.104 194.884 247.276C195.865 246.748 196.793 245.643 197.486 245.765C198.432 245.932 197.681 247.364 198.432 248.197C199.199 249.048 199.56 249.617 201.034 249.896C202.497 250.174 203.636 250.274 204.818 249.519C205.435 249.125 205.956 248.764 205.894 248.024C205.856 247.559 206.001 247.002 206.237 246.876C206.711 246.624 207.247 247.069 208.366 247.253C210.824 247.657 212.252 247.82 214.752 247.82C215.935 247.82 218.059 247.882 219.01 246.876C219.433 246.427 219.686 246.148 219.719 245.554C219.746 245.088 219.354 244.609 219.01 244.233C218.618 243.803 217.63 243.567 216.881 243.289C215.792 242.884 214.752 243.422 214.752 242.722C214.752 242.345 216.166 241.896 216.645 241.212C217.072 240.601 217.118 240.212 217.118 239.513C217.118 239.135 216.972 238.807 217.118 238.38C217.226 238.062 217.314 237.883 217.591 237.625L217.622 237.596C217.885 237.351 218.106 237.144 218.537 237.058C219.483 236.87 220.756 238.026 222.794 238.569C223.504 238.758 225.468 238.807 226.579 238.38C227.761 237.925 228.691 237.653 229.18 236.681C229.559 235.928 229.18 234.604 229.18 234.604C229.18 234.604 232.657 234.723 234.621 234.038C236.077 233.53 237.932 232.15 237.932 232.15C237.932 232.15 238.052 233.634 238.641 234.415C239.319 235.313 240.107 235.589 241.243 236.114C242.357 236.629 242.979 236.948 244.318 237.058C245.657 237.169 246.904 237.198 248.102 236.492C249.2 235.846 249.574 235.58 249.522 234.415C249.489 233.69 249.586 233.302 249.049 232.716C248.663 232.296 248.596 232.122 247.866 231.772C247.365 231.532 247.052 231.313 246.447 231.206C245.906 231.11 245.248 231.193 244.791 230.828C244.334 230.463 244.35 230.185 244.555 229.695C244.791 229.129 245.947 229.319 247.156 229.129C248.259 228.956 249.447 228.939 250.468 228.563C251.189 228.297 251.892 228.245 252.123 227.619C252.354 226.992 251.621 226.344 252.123 225.542C252.36 225.164 253.233 225.396 254.252 225.353C255.483 225.301 256.174 225.323 257.327 224.976C257.946 224.789 258.264 224.63 258.864 224.409L260.402 223.843C260.402 223.843 259.219 222.71 258.746 222.332C257.998 221.735 255.846 220.847 253.069 221.2C250.221 221.562 248.102 223.465 247.156 223.276C246.21 223.088 244.345 221.425 242.662 220.256C241.08 219.156 239.763 218.74 239.588 218.179ZM51.7865 219.123C51.7629 217.243 52.1198 216.156 52.9692 214.403C54.0501 212.172 55.3865 211.031 57.4631 209.306C60.0013 207.197 61.819 206.425 65.0319 205.152C67.7534 204.074 69.931 203.594 72.8373 202.887C77.1021 201.849 78.8766 201.525 83.2444 200.81C87.3802 200.133 94.1245 199.488 94.1245 199.488C94.1245 199.488 107.119 197.602 116.121 196.845C128.364 195.817 135.329 195.712 147.565 195.528L147.816 195.524C154.835 195.418 158.784 195.186 165.792 195.524C173.225 195.882 177.331 196.631 184.714 197.412C190.722 198.047 200.088 199.111 200.088 199.111C200.088 199.111 213.097 201.188 224.45 204.963C227.3 205.911 230.277 207.229 232.019 208.928C233.333 210.21 234.029 211.331 234.621 213.082C234.913 213.948 234.983 214.455 235.094 215.347C235.257 216.668 235.376 217.438 235.094 218.745C234.7 220.568 232.728 223.088 232.728 223.088C232.728 223.088 230.909 225.382 229.18 226.864C228.336 227.587 227.123 228.409 225.98 229.129C224.312 230.181 222.794 231.017 222.794 231.017C218.415 233.323 211.441 235.359 211.441 235.359C211.441 235.359 204.581 237.254 198.669 238.38C190.307 239.972 183.442 240.813 174.78 241.589C165.864 242.388 160.819 242.415 151.837 242.533C141.759 242.666 135.155 242.615 125.109 241.967C113.05 241.189 107.13 240.997 95.3072 238.946C89.0452 237.86 79.46 235.548 79.46 235.548L73.3765 234.127C73.3765 234.127 68.4029 232.93 65.505 231.961C62.5567 230.975 60.927 230.57 58.4092 229.129C57.1309 228.397 56.4182 227.962 55.3344 227.052C54.2906 226.176 53.2057 224.409 53.2057 224.409C53.2057 224.409 52.5337 222.934 52.2596 221.955C51.9546 220.866 51.8005 220.239 51.7865 219.123Z" fill="#804B1E"/>
<path d="M198.669 238.38C204.581 237.254 211.441 235.359 211.441 235.359C211.441 235.359 218.415 233.323 222.794 231.017C222.794 231.017 224.312 230.181 225.98 229.129C225.98 229.129 217.591 223.654 214.043 225.731C212.777 226.472 212.029 227.827 210.968 228.751C210.119 229.491 208.366 230.262 208.366 230.262C206.754 230.815 204.15 231.039 202.69 230.262C201.27 229.507 200.391 228.92 198.669 228.751C197.185 228.606 196.343 228.949 194.884 229.208C191.382 229.83 189.73 230.959 186.369 231.961C181.362 233.453 178.606 234.538 173.36 235.359C165.112 236.65 160.233 235.051 151.837 235.359C143.683 235.659 139.149 237.477 131.022 236.87C124.684 236.396 121.37 234.992 115.175 233.82C111.298 233.087 109.026 230.073 106.424 230.639C105.668 230.804 105.016 231.715 104.295 231.961C102.639 232.527 100.615 231.974 98.6185 231.395C96.0167 230.639 95.4162 229.594 93.6515 228.185C92.4689 227.241 91.5208 226.198 89.6306 225.92C87.0293 225.537 85.2991 226.652 83.4809 228.185C82.0612 229.382 81.6956 230.409 80.8791 231.961C80.1664 233.315 79.46 235.548 79.46 235.548C79.46 235.548 89.0452 237.86 95.3072 238.946C107.13 240.997 113.05 241.189 125.109 241.967C135.155 242.615 141.759 242.666 151.837 242.533C160.819 242.415 165.864 242.388 174.78 241.589C183.442 240.813 190.307 239.972 198.669 238.38Z" fill="#33200F"/>
<path d="M92.4689 220.822C91.2197 221.145 89.9409 221.664 89.8671 222.71C89.8137 223.468 90.1991 223.881 91.0497 224.22C91.9958 224.598 93.9177 224.811 95.3072 224.409C96.3672 224.103 97.1994 223.799 97.1994 222.899C97.1994 221.955 96.499 221.139 95.3072 220.822C94.5976 220.633 93.5235 220.55 92.4689 220.822Z" fill="#2F1A08"/>
<path d="M21.9844 223.654C24.2185 224.248 26.9514 223.843 27.8975 224.598C28.1296 224.783 27.2348 225.084 26.7149 225.92C26.1753 226.786 25.9614 227.301 26.2418 228.185C26.5147 229.046 27.0192 229.345 27.8975 229.695C29.7897 230.451 32.0592 230.464 34.2837 230.451C36.3241 230.438 38.7776 229.884 38.7776 229.884C37.8315 231.961 39.0142 237.436 52.7326 240.079C48.4752 242.533 47.1979 247.178 67.6337 246.876C68.501 248.449 74.2564 250.883 87.9749 248.386C87.9749 248.386 89.5855 250.534 91.7593 251.784C93.7136 252.908 95.3072 253.185 100.511 254.05C104.397 254.696 109.511 255.119 115.175 254.427C120.575 253.768 128.421 250.84 128.421 250.84C128.421 250.84 129.151 252.549 130.076 253.483C130.81 254.224 132.99 255.229 134.097 255.56C137.409 256.551 138.828 256.315 142.612 256.127C146.153 255.95 150.181 253.106 150.181 253.106C150.181 253.106 153.012 253.781 154.911 254.05C156.811 254.318 158.365 254.488 160.588 254.427C163.793 254.341 168.393 252.728 168.393 252.728C168.393 252.728 170.362 254.346 171.705 254.805C175.016 255.938 175.415 255.834 178.327 256.127C181.078 256.402 183.365 256.451 186.133 256.315C188.649 256.192 189.933 256.101 192.283 255.371C193.981 254.845 196.54 253.672 196.54 253.672C196.54 253.672 199.134 254.804 201.034 255.371C204.499 256.406 206.789 256.314 210.495 256.127C213.406 255.979 215.146 255.625 217.827 254.994C220.364 254.397 221.375 254.239 223.74 253.106C226.511 251.779 228.597 250.689 227.761 248.197C227.082 246.173 222.794 244.233 222.794 244.233C222.794 244.233 228.234 244.421 231.546 244.233C233.128 244.142 234.888 243.97 236.986 243.289C238.673 242.741 241.716 241.212 241.716 241.212C241.716 241.212 245.405 241.708 247.156 241.589C248.907 241.471 252.472 240.833 254.016 239.135C255.122 237.918 254.489 236.114 254.489 236.114C254.489 236.114 257.278 236.333 259.219 236.303C260.512 236.284 261.762 236.026 263.004 235.737C264.406 235.41 266.315 234.415 266.551 233.471C266.718 232.805 266.551 232.339 266.078 231.772C265.406 230.967 262.294 229.884 262.294 229.884C262.057 228.185 262.283 226.722 261.821 225.542C261.359 224.362 260.402 223.843 260.402 223.843L258.864 224.409C258.264 224.63 257.946 224.789 257.327 224.976C256.174 225.323 255.483 225.301 254.252 225.353C253.233 225.396 252.36 225.164 252.123 225.542C251.621 226.344 252.354 226.992 252.123 227.619C251.892 228.245 251.189 228.297 250.468 228.563C249.447 228.939 248.259 228.956 247.156 229.129C245.947 229.319 244.791 229.129 244.555 229.695C244.35 230.185 244.334 230.463 244.791 230.828C245.248 231.193 245.906 231.11 246.447 231.206C247.052 231.313 247.365 231.532 247.866 231.772C248.596 232.122 248.663 232.296 249.049 232.716C249.586 233.302 249.489 233.69 249.522 234.415C249.574 235.58 249.2 235.846 248.102 236.492C246.904 237.198 245.657 237.169 244.318 237.058C242.979 236.948 242.357 236.629 241.243 236.114C240.107 235.589 239.319 235.313 238.641 234.415C238.052 233.634 237.932 232.15 237.932 232.15C237.932 232.15 236.077 233.53 234.621 234.038C232.657 234.723 229.18 234.604 229.18 234.604C229.18 234.604 229.559 235.928 229.18 236.681C228.691 237.653 227.761 237.925 226.579 238.38C225.468 238.807 223.504 238.758 222.794 238.569C220.756 238.026 219.483 236.87 218.537 237.058C218.106 237.144 217.885 237.351 217.622 237.596L217.591 237.625C217.314 237.883 217.226 238.062 217.118 238.38C216.972 238.807 217.118 239.135 217.118 239.513C217.118 240.212 217.072 240.601 216.645 241.212C216.166 241.896 214.752 242.345 214.752 242.722C214.752 243.422 215.792 242.884 216.881 243.289C217.63 243.567 218.618 243.803 219.01 244.233C219.354 244.609 219.746 245.088 219.719 245.554C219.686 246.148 219.433 246.427 219.01 246.876C218.059 247.882 215.935 247.82 214.752 247.82C212.252 247.82 210.824 247.657 208.366 247.253C207.247 247.069 206.711 246.624 206.237 246.876C206.001 247.002 205.856 247.559 205.894 248.024C205.956 248.764 205.435 249.125 204.818 249.519C203.636 250.274 202.497 250.174 201.034 249.896C199.56 249.617 199.199 249.048 198.432 248.197C197.681 247.364 198.432 245.932 197.486 245.765C196.793 245.643 195.865 246.748 194.884 247.276C193.342 248.104 192.213 248.661 190.39 248.952C188.025 249.33 186.549 249.299 184.241 249.141C181.763 248.972 178.564 248.008 178.564 248.008C178.564 248.008 175.193 247.225 173.36 246.309C172.468 245.863 172.225 245.266 171.232 245.177C169.726 245.041 169.474 246.467 168.157 247.064C166.86 247.653 166.077 247.981 164.609 248.197C162.602 248.492 161.35 248.314 159.405 247.82C157.473 247.328 155.621 245.785 154.911 245.743C154.202 245.7 151.724 247.877 149.235 248.197C141.903 249.141 138.591 249.33 132.205 248.764C129.679 248.54 128.166 248.005 126.055 246.876C124.807 246.207 124.163 245.177 123.217 244.988C122.248 244.794 121.99 245.786 121.088 246.121C120.039 246.51 119.402 246.721 118.25 246.876C116.608 247.096 115.412 247.064 113.993 246.687C113.061 246.439 113.302 245.32 112.337 245.177C111.053 244.986 111.014 246.436 109.972 247.064C107.987 248.261 106.529 248.722 104.059 248.952C102.958 249.055 102.316 249.088 101.22 248.952C99.5422 248.745 97.1994 247.631 97.1994 247.631L91.7593 242.911C91.7593 242.911 90.8781 242.109 90.1036 241.967L90.0917 241.965C89.6433 241.883 89.077 241.779 88.6845 241.967C87.5018 242.533 86.3237 243.391 84.6635 243.666C83.2137 243.907 82.2408 243.942 80.8791 243.477C79.7914 243.106 79.2776 242.812 78.7504 241.967C78.2957 241.238 79.1262 240.342 78.2773 239.89C77.5678 239.513 75.6756 241.401 70.9451 241.212C68.7522 241.124 67.7991 241.066 65.978 240.457C63.4367 239.606 61.9085 238.497 60.7745 236.492C60.2302 235.53 60.3432 234.941 59.5919 234.227C58.8476 233.519 58.4092 233.283 57.2266 233.283C56.044 233.283 54.7782 234.878 52.9692 235.359C51.55 235.737 50.4116 235.82 48.9482 235.359C47.9684 235.051 47.6432 234.736 47.056 234.038C46.419 233.281 46.3588 232.824 46.3464 231.961C46.3284 230.708 48.4752 229.884 48.0021 229.129C47.5894 228.47 46.2726 227.847 45.1638 227.052C43.6529 225.969 43.097 225.876 42.3255 224.787C41.7072 223.914 41.5642 223.365 41.3794 222.332C41.1947 221.3 41.2844 220.604 41.3794 219.501C41.5012 218.086 42.9252 216.392 42.089 215.725C41.3794 215.158 39.3496 216.01 38.5411 217.046C37.995 217.746 38.3046 218.557 38.0681 219.123C37.9008 219.523 37.514 220.046 36.6489 220.445C35.8451 220.815 34.909 220.909 34.0471 220.633C32.8645 220.256 32.4603 220.297 31.9184 219.123C31.3401 217.87 32.8645 215.914 31.9184 215.347C31.4953 215.094 29.8484 215.946 28.3705 215.725C26.8926 215.504 24.1131 214.026 24.1131 214.026C24.1131 214.026 23.4035 214.781 23.167 216.291C23.0138 217.269 22.9305 218.557 22.9305 218.557C22.9305 218.557 19.6941 219.87 19.6191 221.389C19.5543 222.7 21.2748 223.465 21.9844 223.654Z" fill="#633916"/>
<path d="M6.84674 227.808C6.84674 228.176 6.6928 228.404 6.84674 228.751C7.00068 229.099 7.79424 229.408 8.50241 229.695C9.21059 229.983 13.1939 230.132 14.179 229.884C15.1641 229.637 16.086 229.58 16.5443 228.94C17.0026 228.3 16.8364 227.752 16.5443 227.052C16.2522 226.353 14.7015 225.373 14.179 225.164C13.6565 224.956 13.3304 224.887 12.7599 224.787C12.1894 224.686 10.1581 224.598 9.44853 224.976C8.73895 225.353 8.55507 225.336 8.02936 225.731C7.50366 226.125 7.20562 226.508 7.08327 226.864C6.96093 227.219 6.84674 227.439 6.84674 227.808Z" fill="#804B1E"/>
<path d="M30.2627 199.488C29.3078 199.843 28.5617 200.222 28.134 200.81C27.7063 201.398 27.3917 201.864 27.661 202.509C27.9303 203.154 28.5897 203.288 29.3166 203.642C30.0436 203.996 35.6854 203.996 36.4124 203.642C37.1393 203.288 37.8194 203.159 38.0681 202.509C38.3134 201.868 37.7408 201.269 37.1459 200.646L37.122 200.621C36.5186 199.99 35.8143 199.612 34.7567 199.3C33.6992 198.988 31.2177 199.134 30.2627 199.488Z" fill="#43270F"/>
<path d="M18.9095 234.227C18.7434 234.635 18.6037 235.383 18.9095 235.737C19.2153 236.091 19.597 236.134 20.0922 236.303C20.5873 236.472 22.5673 236.655 23.4035 236.492C24.2397 236.329 24.9515 236.223 25.394 235.737C25.8365 235.25 25.8226 234.611 25.7688 234.227C25.7149 233.842 25.6487 233.611 25.394 233.283C25.1393 232.954 24.7747 232.689 24.3496 232.527C23.9245 232.365 23.6362 232.371 23.167 232.339C22.6978 232.306 21.6576 232.332 21.0383 232.527C20.4189 232.723 19.9814 232.964 19.6191 233.283C19.2568 233.601 19.0757 233.818 18.9095 234.227Z" fill="#633916"/>
<path d="M60.7745 249.141C61.6888 249.036 62.5983 249.14 63.1397 249.33C63.6812 249.52 63.8605 249.79 64.3224 250.085C64.7842 250.38 64.9843 250.426 65.2685 250.84C65.5527 251.254 65.7387 251.789 65.505 252.162C65.2713 252.535 64.742 252.48 64.3224 252.728C63.9027 252.977 59.7183 252.96 59.1188 252.728C58.5193 252.497 58.0002 252.43 57.6997 251.973C57.3991 251.516 57.5543 251.321 57.6997 250.84C57.845 250.36 58.211 250.249 58.6458 249.896C59.0805 249.544 59.8602 249.246 60.7745 249.141Z" fill="#5E3716"/>
<path d="M161.298 258.392C161.031 258.942 160.944 259.308 161.298 259.714C161.652 260.12 162.007 260.091 162.48 260.091H165.792C166.501 260.091 167.688 259.927 167.92 259.525C168.153 259.123 168.066 258.819 167.92 258.392C167.775 257.965 167.138 257.684 166.738 257.448C166.338 257.212 166.273 256.982 165.792 256.882C165.31 256.781 164.153 256.623 163.19 256.882C162.227 257.14 161.564 257.842 161.298 258.392Z" fill="#43270F"/>
<path d="M241.953 248.008C241.79 248.486 241.633 249.362 241.953 249.708C242.273 250.054 242.647 250.093 243.135 250.274C243.624 250.455 243.986 250.545 244.555 250.652C245.123 250.758 247.496 250.746 248.339 250.652C249.182 250.557 249.861 250.494 250.468 250.274C251.074 250.054 251.586 249.976 251.887 249.519C252.187 249.062 252.071 248.692 251.887 248.197C251.702 247.703 251.359 247.478 250.941 247.064C250.523 246.651 249.949 246.135 249.522 245.932C249.094 245.729 248.818 245.66 248.339 245.554C247.86 245.448 245.835 245.454 245.264 245.554C244.694 245.654 244.346 245.692 243.845 245.932C243.344 246.172 243.023 246.473 242.662 246.876C242.302 247.278 242.116 247.531 241.953 248.008Z" fill="#804B1E"/>
<path d="M250.231 211.005C249.711 211.404 249.476 211.394 249.285 211.949C249.163 212.304 249.133 212.545 249.285 212.893C249.523 213.437 249.983 213.648 250.704 213.648H252.36C253.186 213.648 253.306 213.459 254.489 213.082C255.095 212.888 255.147 212.071 254.962 211.571C254.794 211.119 254.683 211.139 254.252 210.816C254.252 210.816 253.637 210.384 253.069 210.25C252.443 210.102 251.414 210.25 251.414 210.25C250.868 210.432 250.658 210.678 250.231 211.005Z" fill="#5E3716"/>
<path d="M271.282 227.996C270.829 228.3 270.809 228.563 270.572 228.751C270.043 229.174 270.061 229.827 270.336 230.073L270.375 230.109C270.642 230.349 270.965 230.639 271.282 230.639H273.647C273.647 230.639 274.598 230.647 275.066 230.262C275.473 229.927 275.81 229.595 275.776 229.129C275.747 228.733 275.539 228.563 275.303 228.374C274.929 228.075 274.666 227.612 274.12 227.43C273.353 227.174 272.75 227.158 271.991 227.43C271.688 227.539 271.537 227.825 271.282 227.996Z" fill="#804B1E"/>
<path d="M262.057 240.457C261.264 240.655 260.578 241.252 260.165 241.589C259.752 241.927 259.397 242.114 259.219 242.533C259.042 242.953 258.987 243.265 259.219 243.666C259.441 244.05 259.832 244.201 260.33 244.394L260.402 244.421C260.934 244.628 261.84 244.57 262.767 244.61C263.694 244.65 264.984 244.802 265.605 244.61C266.226 244.418 266.694 244.317 267.024 243.855C267.355 243.393 267.146 242.66 267.024 242.345C266.903 242.029 266.787 241.861 266.551 241.589C266.316 241.318 266.046 241.058 265.605 240.834C265.164 240.61 264.76 240.544 264.186 240.457C263.612 240.369 262.851 240.258 262.057 240.457Z" fill="#43270F"/>
<path d="M181.639 175.942C182.432 176.309 183.531 177.075 183.531 177.075L184.241 177.146C184.241 177.146 185.354 176.277 186.133 175.942C186.911 175.607 187.414 175.409 188.262 175.376C189.109 175.343 189.747 175.663 190.39 175.754C191.034 175.845 191.548 175.791 192.046 175.942C192.544 176.094 193.229 176.509 193.229 176.509L192.283 175.376C192.283 175.376 191.141 174.444 190.39 173.866C189.306 173.03 188.899 172.261 187.552 171.789C185.926 171.219 184.777 171.486 183.058 171.789C181.496 172.064 180.579 172.321 179.274 173.11C178.319 173.688 177.145 174.917 177.145 174.917C177.145 174.917 180.039 175.203 181.639 175.942Z" fill="#814C1D"/>
<path d="M166.738 176.131L183.531 177.075C183.531 177.075 182.432 176.309 181.639 175.942C180.039 175.203 177.145 174.917 177.145 174.917L176.672 174.81C176.672 174.81 175.442 174.086 174.543 173.866C173.299 173.561 172.498 173.639 171.232 173.866C169.241 174.221 166.738 176.131 166.738 176.131Z" fill="#5E3716"/>
<path d="M195.357 176.886C194.544 176.679 193.229 176.509 193.229 176.509C193.229 176.509 192.544 176.094 192.046 175.942C191.548 175.791 191.034 175.845 190.39 175.754C189.747 175.663 189.109 175.343 188.262 175.376C187.414 175.409 186.911 175.607 186.133 175.942C185.354 176.277 184.241 177.146 184.241 177.146C184.241 177.146 198.926 178.894 198.669 178.585C198.412 178.277 198.281 178.089 197.959 177.83C197.637 177.571 196.171 177.094 195.357 176.886Z" fill="#5E3716"/>
<path d="M163.19 169.146C162.954 169.71 162.615 171.518 163.19 171.6C163.765 171.682 164.088 171.433 164.609 171.222C165.13 171.012 166.233 170.376 166.501 169.901C166.769 169.425 166.884 168.929 166.738 168.579C166.592 168.23 166.415 168.026 166.028 167.824C165.642 167.623 164.776 167.529 164.136 167.824C163.496 168.119 163.425 168.582 163.19 169.146Z" fill="#5E3716"/>
<path d="M170.286 164.615C170.16 164.999 170.039 166.262 170.286 166.691L170.31 166.734C170.543 167.141 170.715 167.44 171.232 167.635C171.766 167.837 173.398 166.149 173.597 165.936C173.796 165.723 173.938 165.614 174.07 165.37C174.202 165.126 174.401 164.321 174.07 163.86C173.74 163.398 173.309 163.188 172.651 163.104C171.993 163.021 171.078 163.366 170.759 163.671C170.44 163.975 170.412 164.231 170.286 164.615Z" fill="#814C1D"/>
<path d="M128.657 164.75C128.203 164.519 127.32 164.541 127.002 164.75C126.683 164.96 126.667 165.195 126.528 165.505C126.39 165.816 126.123 166.437 126.292 167.016C126.461 167.595 128.367 168.929 128.894 168.715C129.421 168.501 129.626 168.211 129.84 167.771C130.054 167.331 129.585 166.087 129.367 165.694C129.148 165.301 129.112 164.981 128.657 164.75Z" fill="#5E3716"/>
<path d="M134.807 170.603C134.123 170.786 133.704 171.029 133.388 171.547C133.071 172.064 132.98 172.603 133.388 173.126C133.796 173.65 134.499 173.635 135.28 173.812C136.06 173.99 137.133 174.549 137.882 174.001C138.63 173.453 138.114 172.423 137.882 171.924C137.649 171.426 137.486 171.092 136.936 170.792C136.386 170.492 135.491 170.42 134.807 170.603Z" fill="#814C1D"/>
<path d="M118.723 170.037C117.116 170.144 114.702 170.98 114.702 170.98H109.735C108.553 170.98 106.873 171.187 105.478 172.113L105.401 172.164C104.512 172.754 104.169 172.982 103.822 173.812C103.349 174.945 103.349 176.456 103.349 176.456L126.055 175.323C126.055 175.323 126.112 174.63 126.055 174.19C125.998 173.75 125.959 172.718 125.346 171.924C124.967 171.434 124.4 170.981 123.927 170.792C122.787 170.337 120.665 169.907 118.723 170.037Z" fill="#5E3716"/>
<path d="M94.3611 174.19C93.914 175.159 94.1245 176.833 94.1245 176.833L103.349 176.456C103.349 176.456 103.349 174.945 103.822 173.812C104.169 172.982 104.512 172.754 105.401 172.164L105.478 172.113C106.873 171.187 108.553 170.98 109.735 170.98H114.702C114.702 170.98 113.756 170.028 111.391 169.093C110.684 168.813 110.266 168.675 109.499 168.526C108.686 168.369 107.37 168.337 107.37 168.337C107.37 168.337 104.53 168.338 103.113 169.093C101.693 169.848 101.22 171.169 100.038 171.924C99.4607 172.293 98.8844 171.924 98.1455 171.924C97.4065 171.924 96.0168 172.302 95.7802 172.491C94.8341 173.246 94.77 173.304 94.3611 174.19Z" fill="#814C1D"/>
<path d="M239.824 244.233C239.301 244.454 238.951 244.774 238.878 244.988C238.805 245.201 238.775 245.362 238.878 245.554C238.981 245.746 239.123 245.83 239.351 245.932C239.579 246.033 240.072 245.932 240.534 245.932H241.716C241.716 245.932 242.407 245.89 242.426 245.743C242.445 245.596 242.775 244.987 242.662 244.799C242.55 244.611 242.632 244.549 242.426 244.421C242.22 244.293 241.833 244.18 241.48 244.044C241.127 243.908 240.347 244.012 239.824 244.233Z" fill="#33200F"/>
<defs>
<radialGradient id="paint0_radial_838_53" cx="0" cy="0" r="1" gradientUnits="userSpaceOnUse" gradientTransform="translate(146.429 130.004) rotate(90) scale(354.486 399.276)">
<stop stop-color="#FFFBF5"/>
<stop offset="1" stop-color="#B08957"/>
</radialGradient>
</defs>
</svg>
