<svg width="326" height="315" viewBox="0 0 326 315" fill="none" xmlns="http://www.w3.org/2000/svg">
<rect x="2.22168" y="56.9083" width="288.859" height="256.007" rx="38" fill="url(#paint0_radial_771_53)" stroke="#6E5739" stroke-width="4"/>
<path fill-rule="evenodd" clip-rule="evenodd" d="M57.6848 276.863C56.4524 277.452 53.4274 279.318 53.4274 279.318C53.4274 279.318 54.5123 281.084 55.5561 281.961C56.6399 282.871 57.3526 283.306 58.6309 284.037C61.1487 285.478 62.7784 285.884 65.7267 286.869C68.6246 287.838 73.5982 289.035 73.5982 289.035L79.6817 290.456C79.6817 290.456 80.3881 288.224 81.1008 286.869C81.9173 285.318 82.2828 284.291 83.7026 283.093C85.5207 281.56 87.251 280.445 89.8522 280.828C91.7425 281.106 92.6905 282.149 93.8732 283.093C95.6379 284.502 96.2384 285.548 98.8402 286.303C100.837 286.882 102.861 287.436 104.517 286.869C105.237 286.623 105.889 285.712 106.646 285.548C109.247 284.981 111.52 287.995 115.397 288.728C121.591 289.9 124.906 291.304 131.244 291.778C139.371 292.385 143.905 290.567 152.058 290.268C160.455 289.959 165.334 291.559 173.582 290.268C178.828 289.447 181.583 288.362 186.591 286.869C189.952 285.868 191.604 284.739 195.106 284.117C196.565 283.857 197.407 283.514 198.89 283.66C200.613 283.829 201.492 284.415 202.911 285.17C204.372 285.947 206.976 285.724 208.588 285.17C208.588 285.17 210.341 284.399 211.19 283.66C212.25 282.736 212.998 281.38 214.264 280.639C217.812 278.562 226.202 284.037 226.202 284.037C227.344 283.317 228.557 282.496 229.402 281.772C231.131 280.291 232.95 277.996 232.95 277.996C232.95 277.996 228.462 275.521 225.381 274.22C222.347 272.939 220.516 272.427 217.339 271.388L202.911 267.99C202.911 267.99 195.28 266.492 191.322 265.913C177.13 263.836 167.168 262.28 150.403 261.949C133.638 261.617 105.463 264.214 105.463 264.214C99.1064 264.772 95.5843 265.434 89.3792 266.668C83.2838 267.881 79.8519 268.611 74.0051 270.444C70.426 271.566 68.6686 272.054 65.2536 273.465C61.7224 274.924 61.0965 275.233 57.6848 276.863ZM90.0888 277.618C90.1625 276.572 91.4414 276.053 92.6905 275.73C93.7452 275.458 94.8193 275.542 95.5288 275.73C96.7207 276.048 97.421 276.863 97.421 277.807C97.421 278.707 96.5889 279.011 95.5288 279.318C94.1394 279.72 92.2175 279.506 91.2714 279.129C90.4208 278.789 90.0353 278.376 90.0888 277.618Z" fill="#43270F"/>
<path d="M53.1908 269.311C52.3415 271.065 51.9846 272.152 52.0082 274.031C52.0222 275.147 52.1763 275.774 52.4813 276.863C52.7554 277.842 53.4274 279.318 53.4274 279.318C53.4274 279.318 56.4524 277.452 57.6848 276.863C61.0965 275.233 61.7224 274.924 65.2536 273.465C68.6686 272.054 70.426 271.566 74.0051 270.444C79.8519 268.611 83.2838 267.881 89.3792 266.668C95.5843 265.434 99.1064 264.772 105.463 264.214C105.463 264.214 133.638 261.617 150.403 261.949C167.168 262.28 177.13 263.836 191.322 265.913C195.28 266.492 202.911 267.99 202.911 267.99L217.339 271.388C220.516 272.427 222.347 272.939 225.381 274.22C228.462 275.521 232.95 277.996 232.95 277.996C232.95 277.996 234.921 275.476 235.315 273.654C235.598 272.346 235.479 271.576 235.315 270.255C235.205 269.363 235.135 268.856 234.842 267.99C234.25 266.239 233.555 265.119 232.24 263.836C230.499 262.137 227.521 260.82 224.672 259.872C213.318 256.096 200.31 254.019 200.31 254.019C200.31 254.019 190.944 252.955 184.935 252.32C177.553 251.54 173.447 250.791 166.013 250.432C159.006 250.094 155.056 250.326 148.037 250.432L147.787 250.436C135.551 250.62 128.586 250.725 116.343 251.754C107.34 252.51 94.3462 254.397 94.3462 254.397C94.3462 254.397 87.6018 255.042 83.4661 255.718C79.0982 256.433 77.3237 256.757 73.059 257.795C70.1527 258.502 67.9751 258.982 65.2536 260.061C62.0407 261.334 60.2229 262.105 57.6848 264.214C55.6082 265.939 54.2718 267.08 53.1908 269.311Z" fill="#5E3716"/>
<path fill-rule="evenodd" clip-rule="evenodd" d="M239.809 273.087C239.573 272.332 242.411 267.801 243.357 265.158C243.594 264.497 243.763 261.495 242.648 259.305C242.359 258.739 240.282 256.096 237.917 254.774C235.879 253.636 235.137 253.035 233.187 252.131C227.577 249.531 223.947 248.711 217.339 247.223C210.732 245.734 205.208 244.934 197.944 244.013C189.049 242.885 175.001 242.125 175.001 242.125C175.001 242.125 160.013 241.379 150.403 241.37C137.555 241.359 134.92 241.501 117.526 242.503C104.521 243.251 90.3446 245.03 81.3373 246.467C70.6937 248.167 56.5022 253.642 51.7717 257.417C46.3316 261.76 44.6759 265.913 44.6759 265.913C44.6759 265.913 42.0653 265.346 40.1819 265.724C38.7798 266.006 36.6341 266.668 36.6341 266.668C36.6341 266.668 34.372 265.376 32.1401 265.347C29.8238 265.316 27.3057 265.673 25.7539 267.046C25.0323 267.684 24.3348 268.934 24.3348 268.934C24.3348 268.934 27.1143 270.412 28.5922 270.633C30.0701 270.854 31.717 270.002 32.1401 270.255C33.0862 270.822 31.5618 272.778 32.1401 274.031C32.682 275.205 33.0862 275.164 34.2688 275.542C35.1307 275.817 36.0668 275.724 36.8706 275.353C37.7357 274.954 38.1225 274.432 38.2897 274.031C38.5263 273.465 38.2167 272.654 38.7628 271.955C39.5713 270.919 41.6011 270.067 42.3107 270.633C43.1469 271.301 41.7229 272.994 41.6011 274.409C41.5061 275.512 41.4164 276.209 41.6011 277.241C41.7858 278.273 41.9289 278.822 42.5472 279.695C43.3187 280.784 43.8746 280.878 45.3855 281.961C46.4943 282.755 47.8111 283.378 48.2238 284.037C48.6969 284.793 46.5501 285.616 46.5681 286.869C46.5805 287.732 46.6407 288.189 47.2777 288.946C47.8649 289.644 48.1901 289.959 49.1699 290.268C50.6333 290.728 51.7717 290.645 53.1908 290.268C54.9999 289.786 56.2657 288.191 57.4483 288.191C58.6309 288.191 59.0693 288.427 59.8135 289.135C60.5649 289.849 60.4519 290.438 60.9962 291.4C62.1302 293.405 63.6584 294.515 66.1997 295.365C68.0208 295.974 68.9739 296.033 71.1667 296.12C75.8973 296.309 77.7895 294.421 78.499 294.799C79.3479 295.25 78.5174 296.146 78.9721 296.875C79.4993 297.721 80.0131 298.015 81.1008 298.386C82.4624 298.85 83.4354 298.815 84.8852 298.575C86.5454 298.299 87.7235 297.442 88.9061 296.875C89.2987 296.687 89.865 296.791 90.3133 296.873L90.3253 296.875C91.0998 297.017 91.981 297.819 91.981 297.819L97.421 302.539C97.421 302.539 99.7638 303.653 101.442 303.861C102.537 303.996 103.179 303.964 104.28 303.861C106.751 303.63 108.209 303.169 110.193 301.973C111.236 301.344 111.274 299.894 112.559 300.085C113.524 300.228 113.283 301.347 114.214 301.595C115.633 301.973 116.83 302.004 118.472 301.784C119.624 301.629 120.261 301.419 121.31 301.029C122.212 300.694 122.47 299.703 123.439 299.896C124.385 300.085 125.028 301.116 126.277 301.784C128.388 302.914 129.901 303.448 132.427 303.672C138.813 304.238 142.124 304.05 149.457 303.106C151.946 302.785 154.424 300.609 155.133 300.651C155.843 300.694 157.695 302.237 159.627 302.728C161.571 303.222 162.824 303.401 164.831 303.106C166.298 302.89 167.081 302.562 168.379 301.973C169.696 301.375 169.948 299.95 171.453 300.085C172.446 300.174 172.689 300.772 173.582 301.218C175.415 302.133 178.786 302.917 178.786 302.917C178.786 302.917 181.984 303.88 184.462 304.05C186.77 304.207 188.247 304.238 190.612 303.861C192.435 303.57 193.564 303.013 195.106 302.184C196.087 301.656 197.015 300.552 197.708 300.674C198.654 300.84 197.903 302.272 198.654 303.106C199.42 303.956 199.782 304.525 201.256 304.805C202.718 305.082 203.857 305.182 205.04 304.427C205.656 304.034 206.178 303.672 206.116 302.933C206.077 302.467 206.223 301.91 206.459 301.784C206.932 301.532 207.469 301.978 208.588 302.162C211.046 302.565 212.473 302.728 214.974 302.728C216.157 302.728 218.281 302.79 219.232 301.784C219.655 301.336 219.908 301.056 219.941 300.462C219.967 299.997 219.576 299.518 219.232 299.141C218.839 298.711 217.852 298.475 217.103 298.197C216.014 297.793 214.974 298.33 214.974 297.631C214.974 297.253 216.388 296.805 216.866 296.12C217.293 295.509 217.339 295.121 217.339 294.421C217.339 294.043 217.193 293.715 217.339 293.288C217.448 292.97 217.535 292.791 217.812 292.533L217.843 292.504C218.106 292.259 218.327 292.053 218.758 291.967C219.705 291.778 220.978 292.935 223.016 293.477C223.725 293.666 225.69 293.715 226.8 293.288C227.983 292.834 228.912 292.561 229.402 291.589C229.781 290.837 229.402 289.512 229.402 289.512C229.402 289.512 232.879 289.631 234.842 288.946C236.298 288.438 238.154 287.058 238.154 287.058C238.154 287.058 238.274 288.542 238.863 289.324C239.54 290.221 240.329 290.498 241.465 291.023C242.578 291.537 243.2 291.856 244.54 291.967C245.879 292.077 247.125 292.106 248.324 291.4C249.422 290.754 249.796 290.489 249.743 289.324C249.71 288.598 249.808 288.21 249.27 287.624C248.884 287.204 248.818 287.03 248.088 286.681C247.587 286.441 247.273 286.221 246.668 286.114C246.127 286.018 245.47 286.101 245.013 285.737C244.556 285.372 244.572 285.093 244.776 284.604C245.013 284.037 246.169 284.228 247.378 284.037C248.481 283.864 249.669 283.847 250.689 283.471C251.411 283.205 252.114 283.154 252.345 282.527C252.576 281.9 251.843 281.253 252.345 280.45C252.582 280.073 253.455 280.305 254.474 280.262C255.704 280.209 256.396 280.231 257.549 279.884C258.167 279.698 258.486 279.539 259.086 279.318L260.623 278.751C260.623 278.751 259.441 277.618 258.968 277.241C258.22 276.644 256.068 275.755 253.291 276.108C250.443 276.47 248.324 278.374 247.378 278.185C246.432 277.996 244.566 276.334 242.884 275.164C241.302 274.064 239.985 273.649 239.809 273.087ZM52.0082 274.031C51.9846 272.152 52.3415 271.065 53.1908 269.311C54.2718 267.08 55.6082 265.939 57.6848 264.214C60.2229 262.105 62.0407 261.334 65.2536 260.061C67.9751 258.982 70.1527 258.502 73.059 257.795C77.3237 256.757 79.0982 256.433 83.4661 255.718C87.6018 255.042 94.3462 254.397 94.3462 254.397C94.3462 254.397 107.34 252.51 116.343 251.754C128.586 250.725 135.551 250.62 147.787 250.436L148.037 250.432C155.056 250.326 159.006 250.094 166.013 250.432C173.447 250.791 177.553 251.54 184.935 252.32C190.944 252.955 200.31 254.019 200.31 254.019C200.31 254.019 213.318 256.096 224.672 259.872C227.521 260.82 230.499 262.137 232.24 263.836C233.555 265.119 234.25 266.239 234.842 267.99C235.135 268.856 235.205 269.363 235.315 270.255C235.479 271.576 235.598 272.346 235.315 273.654C234.921 275.476 232.95 277.996 232.95 277.996C232.95 277.996 231.131 280.291 229.402 281.772C228.557 282.496 227.344 283.317 226.202 284.037C224.534 285.089 223.016 285.925 223.016 285.925C218.637 288.232 211.663 290.268 211.663 290.268C211.663 290.268 204.803 292.163 198.89 293.288C190.529 294.88 183.663 295.722 175.001 296.498C166.086 297.297 161.04 297.324 152.058 297.442C141.981 297.574 135.377 297.524 125.331 296.875C113.272 296.097 107.351 295.906 95.5288 293.855C89.2669 292.768 79.6817 290.456 79.6817 290.456L73.5982 289.035C73.5982 289.035 68.6246 287.838 65.7267 286.869C62.7784 285.884 61.1487 285.478 58.6309 284.037C57.3526 283.306 56.6399 282.871 55.5561 281.961C54.5123 281.084 53.4274 279.318 53.4274 279.318C53.4274 279.318 52.7554 277.842 52.4813 276.863C52.1763 275.774 52.0222 275.147 52.0082 274.031Z" fill="#804B1E"/>
<path d="M198.89 293.288C204.803 292.163 211.663 290.268 211.663 290.268C211.663 290.268 218.637 288.232 223.016 285.925C223.016 285.925 224.534 285.089 226.202 284.037C226.202 284.037 217.812 278.562 214.264 280.639C212.998 281.38 212.25 282.736 211.19 283.66C210.341 284.399 208.588 285.17 208.588 285.17C206.976 285.724 204.372 285.947 202.911 285.17C201.492 284.415 200.613 283.829 198.89 283.66C197.407 283.514 196.565 283.857 195.106 284.117C191.604 284.739 189.952 285.868 186.591 286.869C181.583 288.362 178.828 289.447 173.582 290.268C165.334 291.559 160.455 289.959 152.058 290.268C143.905 290.567 139.371 292.385 131.244 291.778C124.906 291.304 121.591 289.9 115.397 288.728C111.52 287.995 109.247 284.981 106.646 285.548C105.889 285.712 105.237 286.623 104.517 286.869C102.861 287.436 100.837 286.882 98.8402 286.303C96.2384 285.548 95.6379 284.502 93.8732 283.093C92.6905 282.149 91.7425 281.106 89.8522 280.828C87.251 280.445 85.5207 281.56 83.7026 283.093C82.2828 284.291 81.9173 285.318 81.1008 286.869C80.3881 288.224 79.6817 290.456 79.6817 290.456C79.6817 290.456 89.2669 292.768 95.5288 293.855C107.351 295.906 113.272 296.097 125.331 296.875C135.377 297.524 141.981 297.574 152.058 297.442C161.04 297.324 166.086 297.297 175.001 296.498C183.663 295.722 190.529 294.88 198.89 293.288Z" fill="#33200F"/>
<path d="M92.6905 275.73C91.4414 276.053 90.1625 276.572 90.0888 277.618C90.0353 278.376 90.4208 278.789 91.2714 279.129C92.2175 279.506 94.1394 279.72 95.5288 279.318C96.5889 279.011 97.421 278.707 97.421 277.807C97.421 276.863 96.7207 276.048 95.5288 275.73C94.8193 275.542 93.7452 275.458 92.6905 275.73Z" fill="#2F1A08"/>
<path d="M22.206 278.562C24.4401 279.157 27.1731 278.751 28.1192 279.506C28.3513 279.692 27.4565 279.993 26.9365 280.828C26.397 281.695 26.1831 282.209 26.4635 283.093C26.7364 283.954 27.2409 284.253 28.1192 284.604C30.0114 285.359 32.2809 285.372 34.5053 285.359C36.5458 285.347 38.9993 284.793 38.9993 284.793C38.0532 286.869 39.2358 292.344 52.9543 294.987C48.6969 297.442 47.4196 302.086 67.8554 301.784C68.7227 303.357 74.4781 305.792 88.1966 303.294C88.1966 303.294 89.8072 305.442 91.981 306.693C93.9353 307.817 95.5289 308.093 100.732 308.958C104.619 309.604 109.733 310.027 115.397 309.336C120.796 308.677 128.642 305.749 128.642 305.749C128.642 305.749 129.373 307.457 130.298 308.392C131.031 309.133 133.211 310.137 134.319 310.469C137.63 311.46 139.049 311.224 142.834 311.035C146.375 310.858 150.403 308.014 150.403 308.014C150.403 308.014 153.234 308.69 155.133 308.958C157.032 309.227 158.587 309.396 160.81 309.336C164.014 309.249 168.615 307.637 168.615 307.637C168.615 307.637 170.584 309.254 171.926 309.713C175.238 310.846 175.637 310.743 178.549 311.035C181.3 311.311 183.587 311.359 186.355 311.224C188.871 311.101 190.154 311.009 192.504 310.28C194.202 309.753 196.762 308.581 196.762 308.581C196.762 308.581 199.356 309.713 201.256 310.28C204.721 311.314 207.011 311.223 210.717 311.035C213.627 310.888 215.367 310.533 218.049 309.902C220.586 309.305 221.597 309.147 223.962 308.014C226.733 306.687 228.818 305.597 227.983 303.106C227.304 301.081 223.016 299.141 223.016 299.141C223.016 299.141 228.456 299.33 231.767 299.141C233.35 299.051 235.11 298.878 237.207 298.197C238.895 297.649 241.938 296.12 241.938 296.12C241.938 296.12 245.627 296.617 247.378 296.498C249.129 296.379 252.693 295.742 254.237 294.043C255.344 292.826 254.71 291.023 254.71 291.023C254.71 291.023 257.499 291.241 259.441 291.212C260.734 291.192 261.984 290.934 263.225 290.645C264.627 290.319 266.537 289.324 266.773 288.38C266.94 287.713 266.773 287.247 266.3 286.681C265.628 285.875 262.516 284.793 262.516 284.793C262.279 283.093 262.504 281.63 262.043 280.45C261.581 279.271 260.623 278.751 260.623 278.751L259.086 279.318C258.486 279.539 258.167 279.698 257.549 279.884C256.396 280.231 255.704 280.209 254.474 280.262C253.455 280.305 252.582 280.073 252.345 280.45C251.843 281.253 252.576 281.9 252.345 282.527C252.114 283.154 251.411 283.205 250.689 283.471C249.669 283.847 248.481 283.864 247.378 284.037C246.169 284.228 245.013 284.037 244.776 284.604C244.572 285.093 244.556 285.372 245.013 285.737C245.47 286.101 246.127 286.018 246.668 286.114C247.273 286.221 247.587 286.441 248.088 286.681C248.818 287.03 248.884 287.204 249.27 287.624C249.808 288.21 249.71 288.598 249.743 289.324C249.796 290.489 249.422 290.754 248.324 291.4C247.125 292.106 245.879 292.077 244.54 291.967C243.2 291.856 242.578 291.537 241.465 291.023C240.329 290.498 239.54 290.221 238.863 289.324C238.274 288.542 238.154 287.058 238.154 287.058C238.154 287.058 236.298 288.438 234.842 288.946C232.879 289.631 229.402 289.512 229.402 289.512C229.402 289.512 229.781 290.837 229.402 291.589C228.912 292.561 227.983 292.834 226.8 293.288C225.69 293.715 223.725 293.666 223.016 293.477C220.978 292.935 219.705 291.778 218.758 291.967C218.327 292.053 218.106 292.259 217.843 292.504L217.812 292.533C217.535 292.791 217.448 292.97 217.339 293.288C217.193 293.715 217.339 294.043 217.339 294.421C217.339 295.121 217.293 295.509 216.866 296.12C216.388 296.805 214.974 297.253 214.974 297.631C214.974 298.33 216.014 297.793 217.103 298.197C217.852 298.475 218.839 298.711 219.232 299.141C219.576 299.518 219.967 299.997 219.941 300.462C219.908 301.056 219.655 301.336 219.232 301.784C218.281 302.79 216.157 302.728 214.974 302.728C212.473 302.728 211.046 302.565 208.588 302.162C207.469 301.978 206.932 301.532 206.459 301.784C206.223 301.91 206.077 302.467 206.116 302.933C206.178 303.672 205.656 304.034 205.04 304.427C203.857 305.182 202.718 305.082 201.256 304.805C199.782 304.525 199.42 303.956 198.654 303.106C197.903 302.272 198.654 300.84 197.708 300.674C197.015 300.552 196.087 301.656 195.106 302.184C193.564 303.013 192.435 303.57 190.612 303.861C188.247 304.238 186.77 304.207 184.462 304.05C181.984 303.88 178.786 302.917 178.786 302.917C178.786 302.917 175.415 302.133 173.582 301.218C172.689 300.772 172.446 300.174 171.453 300.085C169.948 299.95 169.696 301.375 168.379 301.973C167.081 302.562 166.298 302.89 164.831 303.106C162.824 303.401 161.571 303.222 159.627 302.728C157.695 302.237 155.843 300.694 155.133 300.651C154.424 300.609 151.946 302.785 149.457 303.106C142.124 304.05 138.813 304.238 132.427 303.672C129.901 303.448 128.388 302.914 126.277 301.784C125.028 301.116 124.385 300.085 123.439 299.896C122.47 299.703 122.212 300.694 121.31 301.029C120.261 301.419 119.624 301.629 118.472 301.784C116.83 302.004 115.633 301.973 114.214 301.595C113.283 301.347 113.524 300.228 112.559 300.085C111.274 299.894 111.236 301.344 110.193 301.973C108.209 303.169 106.751 303.63 104.28 303.861C103.179 303.964 102.537 303.996 101.442 303.861C99.7638 303.653 97.421 302.539 97.421 302.539L91.981 297.819C91.981 297.819 91.0998 297.017 90.3253 296.875L90.3133 296.873C89.865 296.791 89.2987 296.687 88.9061 296.875C87.7235 297.442 86.5454 298.299 84.8852 298.575C83.4354 298.815 82.4624 298.85 81.1008 298.386C80.0131 298.015 79.4993 297.721 78.9721 296.875C78.5174 296.146 79.3479 295.25 78.499 294.799C77.7895 294.421 75.8973 296.309 71.1667 296.12C68.9739 296.033 68.0208 295.974 66.1997 295.365C63.6584 294.515 62.1302 293.405 60.9962 291.4C60.4519 290.438 60.5649 289.849 59.8135 289.135C59.0693 288.427 58.6309 288.191 57.4483 288.191C56.2657 288.191 54.9999 289.786 53.1908 290.268C51.7717 290.645 50.6333 290.728 49.1699 290.268C48.1901 289.959 47.8649 289.644 47.2777 288.946C46.6407 288.189 46.5805 287.732 46.5681 286.869C46.5501 285.616 48.6969 284.793 48.2238 284.037C47.8111 283.378 46.4943 282.755 45.3855 281.961C43.8746 280.878 43.3187 280.784 42.5472 279.695C41.9289 278.822 41.7858 278.273 41.6011 277.241C41.4164 276.209 41.5061 275.512 41.6011 274.409C41.7229 272.994 43.1469 271.301 42.3107 270.633C41.6011 270.067 39.5713 270.919 38.7628 271.955C38.2167 272.654 38.5263 273.465 38.2897 274.031C38.1225 274.432 37.7357 274.954 36.8706 275.353C36.0668 275.724 35.1307 275.817 34.2688 275.542C33.0862 275.164 32.682 275.205 32.1401 274.031C31.5618 272.778 33.0862 270.822 32.1401 270.255C31.717 270.002 30.0701 270.854 28.5922 270.633C27.1143 270.412 24.3348 268.934 24.3348 268.934C24.3348 268.934 23.6252 269.689 23.3887 271.199C23.2354 272.178 23.1521 273.465 23.1521 273.465C23.1521 273.465 19.9158 274.778 19.8408 276.297C19.776 277.609 21.4965 278.374 22.206 278.562Z" fill="#633916"/>
<path d="M7.06842 282.716C7.06842 283.084 6.91448 283.312 7.06842 283.66C7.22236 284.007 8.01592 284.316 8.72409 284.604C9.43227 284.891 13.4156 285.04 14.4007 284.793C15.3858 284.545 16.3077 284.489 16.766 283.849C17.2242 283.208 17.058 282.66 16.766 281.961C16.4739 281.261 14.9232 280.281 14.4007 280.073C13.8782 279.864 13.5521 279.795 12.9815 279.695C12.411 279.595 10.3798 279.506 9.67021 279.884C8.96063 280.262 8.77675 280.245 8.25104 280.639C7.72534 281.033 7.4273 281.416 7.30495 281.772C7.18261 282.127 7.06842 282.347 7.06842 282.716Z" fill="#804B1E"/>
<path d="M30.4844 254.397C29.5295 254.751 28.7834 255.131 28.3557 255.718C27.928 256.306 27.6133 256.773 27.8826 257.417C28.1519 258.062 28.8114 258.196 29.5383 258.55C30.2653 258.904 35.9071 258.904 36.6341 258.55C37.361 258.196 38.0411 258.068 38.2897 257.417C38.5351 256.776 37.9625 256.177 37.3676 255.555L37.3436 255.53C36.7403 254.898 36.0359 254.52 34.9784 254.208C33.9208 253.896 31.4394 254.042 30.4844 254.397Z" fill="#43270F"/>
<path d="M19.1312 289.135C18.965 289.544 18.8254 290.291 19.1312 290.645C19.437 290.999 19.8186 291.042 20.3138 291.212C20.809 291.381 22.789 291.563 23.6252 291.4C24.4613 291.237 25.1732 291.132 25.6157 290.645C26.0582 290.159 26.0443 289.519 25.9904 289.135C25.9366 288.751 25.8704 288.52 25.6157 288.191C25.361 287.862 24.9963 287.598 24.5713 287.436C24.1462 287.274 23.8579 287.279 23.3887 287.247C22.9194 287.214 21.8793 287.24 21.2599 287.436C20.6406 287.631 20.2031 287.873 19.8408 288.191C19.4785 288.509 19.2974 288.726 19.1312 289.135Z" fill="#633916"/>
<path d="M60.9962 304.05C61.9105 303.945 62.82 304.048 63.3614 304.238C63.9029 304.428 64.0822 304.699 64.544 304.994C65.0059 305.288 65.2059 305.335 65.4901 305.749C65.7744 306.163 65.9603 306.697 65.7267 307.07C65.493 307.443 64.9637 307.388 64.544 307.637C64.1244 307.885 59.94 307.868 59.3405 307.637C58.741 307.405 58.2219 307.338 57.9213 306.881C57.6208 306.424 57.7759 306.229 57.9213 305.749C58.0667 305.268 58.4327 305.157 58.8674 304.805C59.3022 304.452 60.0818 304.154 60.9962 304.05Z" fill="#5E3716"/>
<path d="M161.519 313.3C161.253 313.85 161.166 314.216 161.519 314.622C161.873 315.028 162.229 315 162.702 315H166.013C166.723 315 167.91 314.835 168.142 314.433C168.374 314.032 168.288 313.727 168.142 313.3C167.996 312.874 167.359 312.593 166.959 312.356C166.559 312.12 166.495 311.891 166.013 311.79C165.532 311.689 164.375 311.532 163.412 311.79C162.449 312.049 161.786 312.75 161.519 313.3Z" fill="#43270F"/>
<path d="M242.174 302.917C242.011 303.394 241.855 304.27 242.174 304.616C242.494 304.962 242.869 305.001 243.357 305.182C243.845 305.364 244.208 305.453 244.776 305.56C245.345 305.667 247.717 305.654 248.561 305.56C249.404 305.466 250.083 305.402 250.689 305.182C251.296 304.963 251.808 304.884 252.109 304.427C252.409 303.97 252.293 303.6 252.109 303.106C251.924 302.611 251.581 302.387 251.162 301.973C250.744 301.559 250.171 301.043 249.743 300.84C249.316 300.637 249.04 300.568 248.561 300.462C248.081 300.357 246.056 300.362 245.486 300.462C244.915 300.563 244.568 300.6 244.067 300.84C243.566 301.08 243.244 301.382 242.884 301.784C242.524 302.186 242.338 302.44 242.174 302.917Z" fill="#804B1E"/>
<path d="M250.453 265.913C249.933 266.312 249.698 266.302 249.507 266.857C249.384 267.213 249.355 267.453 249.507 267.801C249.744 268.345 250.204 268.556 250.926 268.556H252.582C253.408 268.556 253.528 268.368 254.71 267.99C255.317 267.796 255.369 266.979 255.183 266.48C255.015 266.027 254.905 266.048 254.474 265.724C254.474 265.724 253.858 265.292 253.291 265.158C252.665 265.01 251.635 265.158 251.635 265.158C251.09 265.34 250.879 265.586 250.453 265.913Z" fill="#5E3716"/>
<path d="M271.504 282.905C271.051 283.208 271.031 283.471 270.794 283.66C270.265 284.082 270.283 284.735 270.557 284.981L270.597 285.017C270.864 285.257 271.186 285.548 271.504 285.548H273.869C273.869 285.548 274.82 285.555 275.288 285.17C275.695 284.835 276.032 284.503 275.998 284.037C275.968 283.641 275.761 283.471 275.525 283.282C275.151 282.984 274.887 282.521 274.342 282.338C273.575 282.082 272.971 282.066 272.213 282.338C271.909 282.447 271.759 282.734 271.504 282.905Z" fill="#804B1E"/>
<path d="M262.279 295.365C261.486 295.564 260.8 296.16 260.387 296.498C259.974 296.836 259.618 297.023 259.441 297.442C259.263 297.861 259.209 298.173 259.441 298.575C259.663 298.958 260.054 299.109 260.552 299.302L260.623 299.33C261.155 299.536 262.062 299.478 262.989 299.518C263.916 299.559 265.206 299.71 265.827 299.518C266.448 299.327 266.916 299.225 267.246 298.763C267.577 298.302 267.368 297.568 267.246 297.253C267.125 296.938 267.008 296.769 266.773 296.498C266.538 296.227 266.268 295.967 265.827 295.743C265.386 295.519 264.982 295.453 264.408 295.365C263.834 295.277 263.072 295.166 262.279 295.365Z" fill="#43270F"/>
<path d="M181.861 230.851C182.653 231.217 183.753 231.983 183.753 231.983L184.462 232.054C184.462 232.054 185.576 231.186 186.355 230.851C187.133 230.516 187.635 230.317 188.483 230.284C189.331 230.251 189.968 230.571 190.612 230.662C191.256 230.753 191.769 230.699 192.268 230.851C192.766 231.002 193.45 231.417 193.45 231.417L192.504 230.284C192.504 230.284 191.363 229.352 190.612 228.774C189.528 227.939 189.12 227.169 187.774 226.697C186.148 226.127 184.999 226.394 183.28 226.697C181.718 226.973 180.8 227.229 179.495 228.019C178.54 228.597 177.367 229.826 177.367 229.826C177.367 229.826 180.26 230.111 181.861 230.851Z" fill="#814C1D"/>
<path d="M166.959 231.039L183.753 231.983C183.753 231.983 182.653 231.217 181.861 230.851C180.26 230.111 177.367 229.826 177.367 229.826L176.894 229.718C176.894 229.718 175.664 228.994 174.765 228.774C173.521 228.47 172.72 228.548 171.453 228.774C169.463 229.13 166.959 231.039 166.959 231.039Z" fill="#5E3716"/>
<path d="M195.579 231.795C194.765 231.587 193.45 231.417 193.45 231.417C193.45 231.417 192.766 231.002 192.268 230.851C191.769 230.699 191.256 230.753 190.612 230.662C189.968 230.571 189.331 230.251 188.483 230.284C187.635 230.317 187.133 230.516 186.355 230.851C185.576 231.186 184.462 232.054 184.462 232.054C184.462 232.054 199.147 233.802 198.89 233.494C198.633 233.186 198.502 232.998 198.181 232.739C197.859 232.48 196.393 232.002 195.579 231.795Z" fill="#5E3716"/>
<path d="M163.412 224.054C163.176 224.618 162.837 226.426 163.412 226.508C163.987 226.591 164.31 226.342 164.831 226.131C165.352 225.92 166.455 225.285 166.723 224.809C166.991 224.334 167.105 223.837 166.959 223.488C166.813 223.138 166.637 222.934 166.25 222.733C165.863 222.531 164.998 222.438 164.358 222.733C163.718 223.027 163.647 223.49 163.412 224.054Z" fill="#5E3716"/>
<path d="M170.507 219.523C170.381 219.907 170.261 221.171 170.507 221.6L170.532 221.642C170.765 222.05 170.937 222.349 171.453 222.544C171.988 222.745 173.62 221.058 173.819 220.845C174.018 220.631 174.16 220.522 174.292 220.278C174.424 220.034 174.622 219.229 174.292 218.768C173.961 218.306 173.53 218.096 172.873 218.013C172.215 217.929 171.299 218.275 170.98 218.579C170.661 218.884 170.633 219.139 170.507 219.523Z" fill="#814C1D"/>
<path d="M128.879 219.659C128.425 219.428 127.542 219.449 127.223 219.659C126.904 219.868 126.889 220.103 126.75 220.414C126.611 220.724 126.345 221.345 126.514 221.924C126.683 222.503 128.588 223.837 129.115 223.623C129.642 223.409 129.847 223.119 130.062 222.679C130.276 222.239 129.807 220.996 129.588 220.603C129.37 220.21 129.333 219.889 128.879 219.659Z" fill="#5E3716"/>
<path d="M135.029 225.511C134.345 225.694 133.926 225.938 133.609 226.455C133.293 226.973 133.201 227.511 133.609 228.035C134.017 228.558 134.721 228.543 135.502 228.721C136.282 228.898 137.355 229.458 138.103 228.91C138.852 228.361 138.336 227.331 138.103 226.833C137.871 226.335 137.707 226 137.157 225.7C136.607 225.4 135.713 225.328 135.029 225.511Z" fill="#814C1D"/>
<path d="M118.945 224.945C117.337 225.052 114.924 225.889 114.924 225.889H109.957C108.774 225.889 107.094 226.095 105.699 227.022L105.623 227.073C104.734 227.663 104.39 227.891 104.044 228.721C103.571 229.854 103.571 231.364 103.571 231.364L126.277 230.231C126.277 230.231 126.334 229.538 126.277 229.098C126.22 228.658 126.181 227.626 125.568 226.833C125.189 226.343 124.621 225.889 124.148 225.7C123.009 225.245 120.887 224.815 118.945 224.945Z" fill="#5E3716"/>
<path d="M94.5828 229.098C94.1357 230.067 94.3462 231.741 94.3462 231.741L103.571 231.364C103.571 231.364 103.571 229.854 104.044 228.721C104.39 227.891 104.734 227.663 105.623 227.073L105.699 227.022C107.094 226.095 108.774 225.889 109.957 225.889H114.924C114.924 225.889 113.978 224.937 111.613 224.001C110.905 223.721 110.487 223.583 109.72 223.435C108.908 223.277 107.592 223.246 107.592 223.246C107.592 223.246 104.751 223.247 103.334 224.001C101.915 224.756 101.442 226.078 100.259 226.833C99.6823 227.201 99.1061 226.833 98.3672 226.833C97.6282 226.833 96.2384 227.21 96.0019 227.399C95.0558 228.154 94.9917 228.212 94.5828 229.098Z" fill="#814C1D"/>
<path d="M240.046 299.141C239.523 299.362 239.173 299.683 239.1 299.896C239.027 300.109 238.997 300.271 239.1 300.462C239.203 300.654 239.344 300.739 239.573 300.84C239.801 300.941 240.293 300.84 240.755 300.84H241.938C241.938 300.84 242.629 300.798 242.648 300.651C242.666 300.505 242.997 299.895 242.884 299.707C242.771 299.519 242.854 299.458 242.648 299.33C242.441 299.202 242.054 299.088 241.701 298.952C241.348 298.816 240.568 298.92 240.046 299.141Z" fill="#33200F"/>
<g filter="url(#filter0_d_771_53)">
<ellipse cx="45.1236" cy="44.6587" rx="45.1236" ry="44.6587" transform="matrix(0.941146 0.338001 -0.294073 0.955783 231.46 29.4241)" fill="#F4BD5D"/>
<ellipse cx="39.2379" cy="36.8096" rx="39.2379" ry="36.8096" transform="matrix(0.941146 0.338001 -0.294073 0.955783 234.508 38.562)" fill="#FEF0D9"/>
<path fill-rule="evenodd" clip-rule="evenodd" d="M274.581 47.6929L277.055 42.3694C277.055 42.3694 272.243 29.8038 277.978 24.6408C284.659 18.6267 295.409 19.401 302.442 26.6351C308.699 33.0705 309.978 42.7439 304.677 48.6815C300.097 53.8112 287.958 49.4667 287.958 49.4667L285.484 54.7902L274.581 47.6929ZM292.197 26.4554C279.276 21.849 279.965 36.1065 279.965 36.1065C279.965 36.1065 283.75 27.965 291.172 33.291C298.486 38.5384 293.128 46.6766 293.128 46.6766C293.128 46.6766 296.278 47.5108 300.418 43.0291C304.557 38.5475 301.058 29.6141 292.197 26.4554Z" fill="#F4BA62" stroke="#E2B061"/>
<path d="M246.845 118.278C247.163 113.671 251.341 106.436 251.398 108.935C251.436 110.581 251.294 111.835 250.561 113.684C249.662 115.957 246.7 120.385 246.845 118.278Z" fill="#F88B53" stroke="#DB7E52"/>
<path d="M270.365 63.8785C271.419 58.8981 276.568 54.1874 276.214 57.0833C275.981 58.9915 275.642 60.2996 274.645 61.7876C273.419 63.6161 269.883 66.1569 270.365 63.8785Z" fill="#F88B53" stroke="#DB7E52"/>
<path d="M282.321 75.2327C284.501 72.1706 289.85 70.1959 288.787 72.034C288.087 73.2451 287.465 74.0355 286.273 74.7989C284.809 75.7369 281.323 76.6335 282.321 75.2327Z" fill="#F88B53" stroke="#DB7E52"/>
<path d="M284.782 85.7474C288.296 84.3391 294.06 85.4649 292.169 86.4372C290.923 87.0779 289.963 87.4106 288.512 87.4275C286.729 87.4481 283.175 86.3916 284.782 85.7474Z" fill="#F88B53" stroke="#DB7E52"/>
<path d="M284.088 99.7653C287.798 98.8925 293.387 100.831 291.359 101.512C290.023 101.96 289.016 102.147 287.566 101.954C285.784 101.716 282.39 100.165 284.088 99.7653Z" fill="#F88B53" stroke="#DB7E52"/>
<path d="M276.719 111.395C280.376 112.864 283.996 117.62 281.88 116.976C280.485 116.552 279.522 116.115 278.403 115.123C277.028 113.904 275.046 110.723 276.719 111.395Z" fill="#F88B53" stroke="#DB7E52"/>
<path d="M266.132 114.057C267.653 117.694 266.708 123.37 265.675 121.394C264.994 120.093 264.63 119.103 264.567 117.649C264.49 115.863 265.435 112.393 266.132 114.057Z" fill="#F88B53" stroke="#DB7E52"/>
<path d="M258.542 59.7983C258.492 55.9353 255.302 50.8941 255.135 53.0537C255.025 54.4767 255.085 55.5123 255.617 56.8944C256.27 58.5929 258.565 61.5655 258.542 59.7983Z" fill="#F88B53" stroke="#DB7E52"/>
<path d="M243.746 64.6893C241.712 61.2883 236.471 58.4624 237.447 60.4643C238.09 61.7834 238.675 62.6708 239.828 63.6227C241.244 64.7924 244.677 66.2451 243.746 64.6893Z" fill="#F88B53" stroke="#DB7E52"/>
<path d="M236.539 75.7942C234.051 72.695 228.5 70.6337 229.748 72.4901C230.57 73.7134 231.272 74.5143 232.54 75.2972C234.1 76.2593 237.678 77.212 236.539 75.7942Z" fill="#F88B53" stroke="#DB7E52"/>
<path d="M233.293 90.054C229.55 88.8655 224.015 90.3334 226.067 91.1863C227.419 91.7484 228.432 92.0214 229.878 91.9505C231.655 91.8633 235.005 90.5977 233.293 90.054Z" fill="#F88B53" stroke="#DB7E52"/>
<path d="M238.098 100.542C234.863 102.471 232.475 107.628 234.398 106.714C235.665 106.112 236.504 105.555 237.36 104.431C238.412 103.05 239.577 99.6592 238.098 100.542Z" fill="#F88B53" stroke="#DB7E52"/>
<ellipse cx="3.92379" cy="4.05988" rx="3.92379" ry="4.05988" transform="matrix(0.941146 0.338001 -0.294073 0.955783 258.192 81.5412)" fill="#442724"/>
<path d="M268.901 69.5868L262.189 85.1233" stroke="#442724" stroke-width="3" stroke-linecap="round"/>
<path d="M271.661 92.9854L259.513 86.7697" stroke="#442724" stroke-width="3" stroke-linecap="round"/>
</g>
<defs>
<filter id="filter0_d_771_53" x="212.332" y="20.1103" width="100.158" height="120.589" filterUnits="userSpaceOnUse" color-interpolation-filters="sRGB">
<feFlood flood-opacity="0" result="BackgroundImageFix"/>
<feColorMatrix in="SourceAlpha" type="matrix" values="0 0 0 0 0 0 0 0 0 0 0 0 0 0 0 0 0 0 127 0" result="hardAlpha"/>
<feOffset dy="4"/>
<feGaussianBlur stdDeviation="2"/>
<feComposite in2="hardAlpha" operator="out"/>
<feColorMatrix type="matrix" values="0 0 0 0 0 0 0 0 0 0 0 0 0 0 0 0 0 0 0.25 0"/>
<feBlend mode="normal" in2="BackgroundImageFix" result="effect1_dropShadow_771_53"/>
<feBlend mode="normal" in="SourceGraphic" in2="effect1_dropShadow_771_53" result="shape"/>
</filter>
<radialGradient id="paint0_radial_771_53" cx="0" cy="0" r="1" gradientUnits="userSpaceOnUse" gradientTransform="translate(146.651 184.912) rotate(90) scale(354.486 399.276)">
<stop stop-color="#FFFBF5"/>
<stop offset="1" stop-color="#B08957"/>
</radialGradient>
</defs>
</svg>
