<svg width="302" height="269" viewBox="0 0 302 269" fill="none" xmlns="http://www.w3.org/2000/svg">
<g filter="url(#filter0_d_477_88)">
<rect x="4.22119" y="0.909912" width="292.859" height="260.007" rx="40" fill="url(#paint0_radial_477_88)"/>
<path fill-rule="evenodd" clip-rule="evenodd" d="M61.6843 222.865C60.452 223.454 57.4269 225.319 57.4269 225.319C57.4269 225.319 58.5118 227.086 59.5556 227.962C60.6394 228.872 61.3521 229.307 62.6304 230.039C65.1482 231.48 66.7779 231.885 69.7262 232.871C72.6241 233.84 77.5977 235.037 77.5977 235.037L83.6812 236.458C83.6812 236.458 84.3876 234.225 85.1003 232.871C85.9168 231.319 86.2823 230.292 87.7021 229.095C89.5203 227.562 91.2505 226.447 93.8518 226.829C95.742 227.108 96.69 228.151 97.8727 229.095C99.6374 230.504 100.238 231.549 102.84 232.305C104.836 232.884 106.861 233.437 108.516 232.871C109.237 232.624 109.889 231.714 110.645 231.549C113.247 230.983 115.519 233.996 119.396 234.73C125.591 235.902 128.905 237.306 135.244 237.78C143.37 238.387 147.905 236.569 156.058 236.269C164.455 235.961 169.333 237.56 177.582 236.269C182.827 235.448 185.583 234.363 190.591 232.871C193.952 231.869 195.603 230.74 199.105 230.118C200.564 229.859 201.406 229.516 202.89 229.661C204.612 229.83 205.492 230.417 206.911 231.172C208.371 231.949 210.975 231.725 212.587 231.172C212.587 231.172 214.341 230.401 215.189 229.661C216.25 228.737 216.998 227.382 218.264 226.641C221.812 224.564 230.201 230.039 230.201 230.039C231.344 229.319 232.557 228.497 233.402 227.773C235.131 226.292 236.949 223.998 236.949 223.998C236.949 223.998 232.462 221.522 229.381 220.222C226.346 218.941 224.515 218.429 221.339 217.39L206.911 213.992C206.911 213.992 199.279 212.494 195.321 211.915C181.13 209.838 171.167 208.282 154.402 207.95C137.637 207.618 109.462 210.216 109.462 210.216C103.106 210.774 99.5838 211.436 93.3787 212.67C87.2833 213.882 83.8514 214.613 78.0046 216.446C74.4255 217.568 72.6681 218.056 69.2531 219.467C65.7219 220.925 65.096 221.235 61.6843 222.865ZM94.0883 223.62C94.162 222.574 95.4409 222.054 96.6901 221.732C97.7447 221.46 98.8188 221.543 99.5284 221.732C100.72 222.049 101.421 222.865 101.421 223.809C101.421 224.709 100.588 225.012 99.5284 225.319C98.1389 225.721 96.217 225.508 95.2709 225.13C94.4203 224.791 94.0348 224.378 94.0883 223.62Z" fill="#43270F"/>
<path d="M57.1903 215.313C56.341 217.066 55.9841 218.153 56.0077 220.033C56.0217 221.149 56.1758 221.776 56.4808 222.865C56.7549 223.843 57.4269 225.319 57.4269 225.319C57.4269 225.319 60.452 223.454 61.6843 222.865C65.096 221.235 65.7219 220.925 69.2531 219.467C72.6681 218.056 74.4255 217.568 78.0046 216.446C83.8514 214.613 87.2833 213.882 93.3787 212.67C99.5838 211.436 103.106 210.774 109.462 210.216C109.462 210.216 137.637 207.618 154.402 207.95C171.167 208.282 181.13 209.838 195.321 211.915C199.279 212.494 206.911 213.992 206.911 213.992L221.339 217.39C224.515 218.429 226.346 218.941 229.381 220.222C232.462 221.522 236.949 223.998 236.949 223.998C236.949 223.998 238.921 221.477 239.315 219.655C239.597 218.348 239.478 217.578 239.315 216.257C239.204 215.364 239.134 214.857 238.842 213.992C238.25 212.241 237.554 211.12 236.24 209.838C234.498 208.139 231.521 206.821 228.671 205.873C217.318 202.098 204.309 200.021 204.309 200.021C204.309 200.021 194.944 198.957 188.935 198.322C181.552 197.541 177.446 196.792 170.013 196.434C163.006 196.096 159.056 196.328 152.037 196.434L151.786 196.437C139.55 196.622 132.585 196.727 120.343 197.755C111.34 198.512 98.3457 200.398 98.3457 200.398C98.3457 200.398 91.6014 201.043 87.4656 201.72C83.0977 202.435 81.3232 202.759 77.0585 203.797C74.1522 204.504 71.9746 204.984 69.2531 206.062C66.0402 207.335 64.2225 208.107 61.6843 210.216C59.6077 211.941 58.2713 213.082 57.1903 215.313Z" fill="#5E3716"/>
<path fill-rule="evenodd" clip-rule="evenodd" d="M243.809 219.089C243.572 218.334 246.411 213.803 247.357 211.16C247.593 210.499 247.762 207.497 246.647 205.307C246.359 204.741 244.282 202.098 241.917 200.776C239.879 199.638 239.136 199.037 237.186 198.133C231.576 195.533 227.946 194.713 221.339 193.224C214.731 191.736 209.207 190.936 201.944 190.015C193.048 188.887 179.001 188.127 179.001 188.127C179.001 188.127 164.013 187.38 154.402 187.372C141.555 187.36 138.919 187.503 121.525 188.504C108.521 189.253 94.3441 191.031 85.3368 192.469C74.6932 194.168 60.5017 199.643 55.7712 203.419C50.3311 207.761 48.6754 211.915 48.6754 211.915C48.6754 211.915 46.0648 211.348 44.1815 211.726C42.7793 212.007 40.6336 212.67 40.6336 212.67C40.6336 212.67 38.3715 211.378 36.1396 211.348C33.8233 211.318 31.3053 211.675 29.7534 213.048C29.0318 213.686 28.3343 214.935 28.3343 214.935C28.3343 214.935 31.1138 216.413 32.5917 216.635C34.0696 216.856 35.7165 216.004 36.1396 216.257C37.0857 216.823 35.5613 218.78 36.1396 220.033C36.6815 221.207 37.0857 221.166 38.2683 221.543C39.1302 221.818 40.0663 221.725 40.8701 221.354C41.7352 220.956 42.122 220.433 42.2893 220.033C42.5258 219.467 42.2162 218.656 42.7623 217.956C43.5708 216.92 45.6006 216.068 46.3102 216.635C47.1464 217.302 45.7224 218.996 45.6006 220.411C45.5056 221.514 45.4159 222.21 45.6006 223.242C45.7853 224.275 45.9284 224.824 46.5467 225.697C47.3182 226.786 47.8741 226.879 49.385 227.962C50.4938 228.757 51.8106 229.38 52.2233 230.039C52.6964 230.794 50.5496 231.618 50.5676 232.871C50.58 233.734 50.6402 234.191 51.2772 234.948C51.8644 235.645 52.1896 235.961 53.1694 236.269C54.6328 236.73 55.7712 236.647 57.1903 236.269C58.9994 235.788 60.2652 234.192 61.4478 234.192C62.6304 234.192 63.0688 234.429 63.813 235.136C64.5644 235.851 64.4514 236.44 64.9957 237.402C66.1297 239.407 67.6579 240.516 70.1992 241.367C72.0203 241.976 72.9734 242.034 75.1663 242.122C79.8968 242.311 81.789 240.423 82.4985 240.8C83.3474 241.252 82.5169 242.148 82.9716 242.877C83.4988 243.722 84.0126 244.016 85.1003 244.387C86.4619 244.852 87.4349 244.817 88.8847 244.576C90.5449 244.301 91.723 243.443 92.9056 242.877C93.2982 242.689 93.8645 242.793 94.3128 242.875L94.3248 242.877C95.0993 243.019 95.9805 243.821 95.9805 243.821L101.421 248.541C101.421 248.541 103.763 249.655 105.441 249.862C106.537 249.998 107.179 249.965 108.28 249.862C110.75 249.631 112.208 249.171 114.193 247.974C115.235 247.346 115.274 245.896 116.558 246.086C117.524 246.23 117.282 247.349 118.214 247.597C119.633 247.974 120.829 248.006 122.471 247.786C123.624 247.631 124.26 247.42 125.31 247.03C126.212 246.695 126.469 245.704 127.438 245.898C128.384 246.086 129.028 247.117 130.277 247.786C132.387 248.915 133.9 249.45 136.426 249.674C142.812 250.24 146.124 250.051 153.456 249.107C155.945 248.787 158.423 246.61 159.133 246.653C159.842 246.695 161.694 248.238 163.627 248.73C165.571 249.224 166.823 249.402 168.83 249.107C170.298 248.891 171.081 248.563 172.378 247.974C173.695 247.377 173.947 245.951 175.453 246.086C176.446 246.176 176.689 246.773 177.582 247.219C179.415 248.135 182.785 248.918 182.785 248.918C182.785 248.918 185.984 249.882 188.462 250.051C190.77 250.209 192.246 250.24 194.611 249.862C196.434 249.571 197.564 249.014 199.105 248.185C200.087 247.658 201.014 246.553 201.707 246.675C202.653 246.842 201.902 248.273 202.653 249.107C203.42 249.958 203.781 250.527 205.255 250.806C206.718 251.084 207.857 251.184 209.04 250.429C209.656 250.035 210.177 249.674 210.116 248.934C210.077 248.469 210.222 247.911 210.459 247.786C210.932 247.534 211.468 247.979 212.587 248.163C215.045 248.567 216.473 248.73 218.974 248.73C220.156 248.73 222.281 248.791 223.231 247.786C223.655 247.337 223.907 247.058 223.941 246.464C223.967 245.998 223.575 245.519 223.231 245.142C222.839 244.713 221.851 244.477 221.102 244.199C220.014 243.794 218.974 244.332 218.974 243.632C218.974 243.255 220.387 242.806 220.866 242.122C221.293 241.511 221.339 241.122 221.339 240.423C221.339 240.045 221.193 239.717 221.339 239.29C221.448 238.972 221.535 238.793 221.812 238.535L221.843 238.506C222.106 238.26 222.327 238.054 222.758 237.968C223.704 237.78 224.977 238.936 227.015 239.479C227.725 239.667 229.69 239.717 230.8 239.29C231.983 238.835 232.912 238.563 233.402 237.591C233.781 236.838 233.402 235.514 233.402 235.514C233.402 235.514 236.879 235.633 238.842 234.948C240.298 234.44 242.153 233.06 242.153 233.06C242.153 233.06 242.273 234.544 242.863 235.325C243.54 236.223 244.328 236.499 245.464 237.024C246.578 237.539 247.2 237.858 248.539 237.968C249.879 238.079 251.125 238.108 252.324 237.402C253.421 236.756 253.796 236.49 253.743 235.325C253.71 234.6 253.807 234.212 253.27 233.626C252.884 233.206 252.817 233.032 252.087 232.682C251.586 232.442 251.273 232.223 250.668 232.116C250.127 232.02 249.469 232.103 249.012 231.738C248.555 231.373 248.571 231.095 248.776 230.605C249.012 230.039 250.168 230.229 251.378 230.039C252.48 229.866 253.669 229.848 254.689 229.473C255.41 229.207 256.114 229.155 256.345 228.529C256.575 227.902 255.842 227.254 256.345 226.452C256.581 226.074 257.454 226.306 258.473 226.263C259.704 226.211 260.395 226.233 261.548 225.886C262.167 225.699 262.485 225.54 263.086 225.319L264.623 224.753C264.623 224.753 263.44 223.62 262.967 223.242C262.219 222.645 260.067 221.757 257.291 222.11C254.442 222.471 252.324 224.375 251.378 224.186C250.431 223.998 248.566 222.335 246.884 221.166C245.301 220.066 243.985 219.65 243.809 219.089ZM56.0077 220.033C55.9841 218.153 56.341 217.066 57.1903 215.313C58.2713 213.082 59.6077 211.941 61.6843 210.216C64.2225 208.107 66.0402 207.335 69.2531 206.062C71.9746 204.984 74.1522 204.504 77.0585 203.797C81.3232 202.759 83.0977 202.435 87.4656 201.72C91.6014 201.043 98.3457 200.398 98.3457 200.398C98.3457 200.398 111.34 198.512 120.343 197.755C132.585 196.727 139.55 196.622 151.786 196.437L152.037 196.434C159.056 196.328 163.006 196.096 170.013 196.434C177.446 196.792 181.552 197.541 188.935 198.322C194.944 198.957 204.309 200.021 204.309 200.021C204.309 200.021 217.318 202.098 228.671 205.873C231.521 206.821 234.498 208.139 236.24 209.838C237.554 211.12 238.25 212.241 238.842 213.992C239.134 214.857 239.204 215.364 239.315 216.257C239.478 217.578 239.597 218.348 239.315 219.655C238.921 221.477 236.949 223.998 236.949 223.998C236.949 223.998 235.131 226.292 233.402 227.773C232.557 228.497 231.344 229.319 230.201 230.039C228.533 231.091 227.015 231.927 227.015 231.927C222.636 234.233 215.662 236.269 215.662 236.269C215.662 236.269 208.802 238.164 202.89 239.29C194.529 240.882 187.663 241.723 179.001 242.499C170.085 243.298 165.04 243.325 156.058 243.443C145.98 243.576 139.377 243.525 129.331 242.877C117.271 242.099 111.351 241.907 99.5284 239.856C93.2664 238.77 83.6812 236.458 83.6812 236.458L77.5977 235.037C77.5977 235.037 72.6241 233.84 69.7262 232.871C66.7779 231.885 65.1482 231.48 62.6304 230.039C61.3521 229.307 60.6394 228.872 59.5556 227.962C58.5118 227.086 57.4269 225.319 57.4269 225.319C57.4269 225.319 56.7549 223.843 56.4808 222.865C56.1758 221.776 56.0217 221.149 56.0077 220.033Z" fill="#804B1E"/>
<path d="M202.89 239.29C208.802 238.164 215.662 236.269 215.662 236.269C215.662 236.269 222.636 234.233 227.015 231.927C227.015 231.927 228.533 231.091 230.201 230.039C230.201 230.039 221.812 224.564 218.264 226.641C216.998 227.382 216.25 228.737 215.189 229.661C214.341 230.401 212.587 231.172 212.587 231.172C210.975 231.725 208.371 231.949 206.911 231.172C205.492 230.417 204.612 229.83 202.89 229.661C201.406 229.516 200.564 229.859 199.105 230.118C195.603 230.74 193.952 231.869 190.591 232.871C185.583 234.363 182.827 235.448 177.582 236.269C169.333 237.56 164.455 235.961 156.058 236.269C147.905 236.569 143.37 238.387 135.244 237.78C128.905 237.306 125.591 235.902 119.396 234.73C115.519 233.996 113.247 230.983 110.645 231.549C109.889 231.714 109.237 232.624 108.516 232.871C106.861 233.437 104.836 232.884 102.84 232.305C100.238 231.549 99.6374 230.504 97.8727 229.095C96.69 228.151 95.742 227.108 93.8518 226.829C91.2505 226.447 89.5203 227.562 87.7021 229.095C86.2823 230.292 85.9168 231.319 85.1003 232.871C84.3876 234.225 83.6812 236.458 83.6812 236.458C83.6812 236.458 93.2664 238.77 99.5284 239.856C111.351 241.907 117.271 242.099 129.331 242.877C139.377 243.525 145.98 243.576 156.058 243.443C165.04 243.325 170.085 243.298 179.001 242.499C187.663 241.723 194.529 240.882 202.89 239.29Z" fill="#33200F"/>
<path d="M96.6901 221.732C95.4409 222.054 94.162 222.574 94.0883 223.62C94.0348 224.378 94.4203 224.791 95.2709 225.13C96.217 225.508 98.1389 225.721 99.5284 225.319C100.588 225.012 101.421 224.709 101.421 223.809C101.421 222.865 100.72 222.049 99.5284 221.732C98.8188 221.543 97.7447 221.46 96.6901 221.732Z" fill="#2F1A08"/>
<path d="M26.2055 224.564C28.4396 225.158 31.1726 224.753 32.1187 225.508C32.3508 225.693 31.456 225.994 30.936 226.829C30.3965 227.696 30.1826 228.211 30.463 229.095C30.7359 229.956 31.2404 230.255 32.1187 230.605C34.0109 231.361 36.2804 231.374 38.5049 231.361C40.5453 231.348 42.9988 230.794 42.9988 230.794C42.0527 232.871 43.2354 238.346 56.9538 240.989C52.6964 243.443 51.4191 248.088 71.8549 247.786C72.7222 249.359 78.4776 251.793 92.1961 249.296C92.1961 249.296 93.8067 251.444 95.9805 252.694C97.9348 253.818 99.5284 254.095 104.732 254.96C108.618 255.606 113.732 256.029 119.396 255.337C124.796 254.678 132.642 251.75 132.642 251.75C132.642 251.75 133.372 253.459 134.298 254.393C135.031 255.134 137.211 256.139 138.318 256.47C141.63 257.461 143.049 257.225 146.833 257.036C150.374 256.86 154.402 254.016 154.402 254.016C154.402 254.016 157.234 254.691 159.133 254.96C161.032 255.228 162.586 255.398 164.809 255.337C168.014 255.251 172.615 253.638 172.615 253.638C172.615 253.638 174.584 255.256 175.926 255.715C179.237 256.848 179.636 256.744 182.549 257.036C185.3 257.312 187.587 257.361 190.354 257.225C192.87 257.102 194.154 257.01 196.504 256.281C198.202 255.754 200.761 254.582 200.761 254.582C200.761 254.582 203.356 255.714 205.255 256.281C208.72 257.316 211.01 257.224 214.716 257.036C217.627 256.889 219.367 256.535 222.048 255.904C224.586 255.307 225.596 255.149 227.962 254.016C230.733 252.689 232.818 251.599 231.982 249.107C231.304 247.083 227.015 245.142 227.015 245.142C227.015 245.142 232.456 245.331 235.767 245.142C237.35 245.052 239.109 244.88 241.207 244.199C242.894 243.651 245.937 242.122 245.937 242.122C245.937 242.122 249.626 242.618 251.378 242.499C253.129 242.38 256.693 241.743 258.237 240.045C259.343 238.828 258.71 237.024 258.71 237.024C258.71 237.024 261.499 237.243 263.44 237.213C264.733 237.194 265.983 236.936 267.225 236.647C268.627 236.32 270.536 235.325 270.773 234.381C270.94 233.715 270.773 233.248 270.3 232.682C269.627 231.877 266.515 230.794 266.515 230.794C266.279 229.095 266.504 227.632 266.042 226.452C265.58 225.272 264.623 224.753 264.623 224.753L263.086 225.319C262.485 225.54 262.167 225.699 261.548 225.886C260.395 226.233 259.704 226.211 258.473 226.263C257.454 226.306 256.581 226.074 256.345 226.452C255.842 227.254 256.575 227.902 256.345 228.529C256.114 229.155 255.41 229.207 254.689 229.473C253.669 229.848 252.48 229.866 251.378 230.039C250.168 230.229 249.012 230.039 248.776 230.605C248.571 231.095 248.555 231.373 249.012 231.738C249.469 232.103 250.127 232.02 250.668 232.116C251.273 232.223 251.586 232.442 252.087 232.682C252.817 233.032 252.884 233.206 253.27 233.626C253.807 234.212 253.71 234.6 253.743 235.325C253.796 236.49 253.421 236.756 252.324 237.402C251.125 238.108 249.879 238.079 248.539 237.968C247.2 237.858 246.578 237.539 245.464 237.024C244.328 236.499 243.54 236.223 242.863 235.325C242.273 234.544 242.153 233.06 242.153 233.06C242.153 233.06 240.298 234.44 238.842 234.948C236.879 235.633 233.402 235.514 233.402 235.514C233.402 235.514 233.781 236.838 233.402 237.591C232.912 238.563 231.983 238.835 230.8 239.29C229.69 239.717 227.725 239.667 227.015 239.479C224.977 238.936 223.704 237.78 222.758 237.968C222.327 238.054 222.106 238.26 221.843 238.506L221.812 238.535C221.535 238.793 221.448 238.972 221.339 239.29C221.193 239.717 221.339 240.045 221.339 240.423C221.339 241.122 221.293 241.511 220.866 242.122C220.387 242.806 218.974 243.255 218.974 243.632C218.974 244.332 220.014 243.794 221.102 244.199C221.851 244.477 222.839 244.713 223.231 245.142C223.575 245.519 223.967 245.998 223.941 246.464C223.907 247.058 223.655 247.337 223.231 247.786C222.281 248.791 220.156 248.73 218.974 248.73C216.473 248.73 215.045 248.567 212.587 248.163C211.468 247.979 210.932 247.534 210.459 247.786C210.222 247.911 210.077 248.469 210.116 248.934C210.177 249.674 209.656 250.035 209.04 250.429C207.857 251.184 206.718 251.084 205.255 250.806C203.781 250.527 203.42 249.958 202.653 249.107C201.902 248.273 202.653 246.842 201.707 246.675C201.014 246.553 200.087 247.658 199.105 248.185C197.564 249.014 196.434 249.571 194.611 249.862C192.246 250.24 190.77 250.209 188.462 250.051C185.984 249.882 182.785 248.918 182.785 248.918C182.785 248.918 179.415 248.135 177.582 247.219C176.689 246.773 176.446 246.176 175.453 246.086C173.947 245.951 173.695 247.377 172.378 247.974C171.081 248.563 170.298 248.891 168.83 249.107C166.823 249.402 165.571 249.224 163.627 248.73C161.694 248.238 159.842 246.695 159.133 246.653C158.423 246.61 155.945 248.787 153.456 249.107C146.124 250.051 142.812 250.24 136.426 249.674C133.9 249.45 132.387 248.915 130.277 247.786C129.028 247.117 128.384 246.086 127.438 245.898C126.469 245.704 126.212 246.695 125.31 247.03C124.26 247.42 123.624 247.631 122.471 247.786C120.829 248.006 119.633 247.974 118.214 247.597C117.282 247.349 117.524 246.23 116.558 246.086C115.274 245.896 115.235 247.346 114.193 247.974C112.208 249.171 110.75 249.631 108.28 249.862C107.179 249.965 106.537 249.998 105.441 249.862C103.763 249.655 101.421 248.541 101.421 248.541L95.9805 243.821C95.9805 243.821 95.0993 243.019 94.3248 242.877L94.3128 242.875C93.8645 242.793 93.2982 242.689 92.9056 242.877C91.723 243.443 90.5449 244.301 88.8847 244.576C87.4349 244.817 86.4619 244.852 85.1003 244.387C84.0126 244.016 83.4988 243.722 82.9716 242.877C82.5169 242.148 83.3474 241.252 82.4985 240.8C81.789 240.423 79.8968 242.311 75.1663 242.122C72.9734 242.034 72.0203 241.976 70.1992 241.367C67.6579 240.516 66.1297 239.407 64.9957 237.402C64.4514 236.44 64.5644 235.851 63.813 235.136C63.0688 234.429 62.6304 234.192 61.4478 234.192C60.2652 234.192 58.9994 235.788 57.1903 236.269C55.7712 236.647 54.6328 236.73 53.1694 236.269C52.1896 235.961 51.8644 235.645 51.2772 234.948C50.6402 234.191 50.58 233.734 50.5676 232.871C50.5496 231.618 52.6964 230.794 52.2233 230.039C51.8106 229.38 50.4938 228.757 49.385 227.962C47.8741 226.879 47.3182 226.786 46.5467 225.697C45.9284 224.824 45.7853 224.275 45.6006 223.242C45.4159 222.21 45.5056 221.514 45.6006 220.411C45.7224 218.996 47.1464 217.302 46.3102 216.635C45.6006 216.068 43.5708 216.92 42.7623 217.956C42.2162 218.656 42.5258 219.467 42.2893 220.033C42.122 220.433 41.7352 220.956 40.8701 221.354C40.0663 221.725 39.1302 221.818 38.2683 221.543C37.0857 221.166 36.6815 221.207 36.1396 220.033C35.5613 218.78 37.0857 216.823 36.1396 216.257C35.7165 216.004 34.0696 216.856 32.5917 216.635C31.1138 216.413 28.3343 214.935 28.3343 214.935C28.3343 214.935 27.6247 215.691 27.3882 217.201C27.235 218.179 27.1516 219.467 27.1516 219.467C27.1516 219.467 23.9153 220.78 23.8403 222.298C23.7755 223.61 25.496 224.375 26.2055 224.564Z" fill="#633916"/>
<path d="M11.0679 228.717C11.0679 229.086 10.914 229.314 11.0679 229.661C11.2219 230.009 12.0154 230.318 12.7236 230.605C13.4318 230.893 17.4151 231.042 18.4002 230.794C19.3853 230.547 20.3072 230.49 20.7655 229.85C21.2237 229.21 21.0576 228.662 20.7655 227.962C20.4734 227.263 18.9227 226.283 18.4002 226.074C17.8777 225.866 17.5516 225.797 16.9811 225.697C16.4106 225.596 14.3793 225.508 13.6697 225.886C12.9601 226.263 12.7763 226.246 12.2506 226.641C11.7248 227.035 11.4268 227.418 11.3045 227.773C11.1821 228.129 11.0679 228.349 11.0679 228.717Z" fill="#804B1E"/>
<path d="M34.4839 200.398C33.529 200.753 32.7829 201.132 32.3552 201.72C31.9275 202.308 31.6128 202.774 31.8821 203.419C32.1514 204.064 32.8109 204.198 33.5378 204.552C34.2648 204.906 39.9066 204.906 40.6336 204.552C41.3605 204.198 42.0406 204.069 42.2893 203.419C42.5346 202.778 41.962 202.179 41.3671 201.556L41.3432 201.531C40.7398 200.9 40.0354 200.522 38.9779 200.21C37.9204 199.897 35.4389 200.044 34.4839 200.398Z" fill="#43270F"/>
<path d="M23.1307 235.136C22.9646 235.545 22.8249 236.293 23.1307 236.647C23.4365 237.001 23.8182 237.044 24.3133 237.213C24.8085 237.382 26.7885 237.565 27.6247 237.402C28.4608 237.239 29.1727 237.133 29.6152 236.647C30.0577 236.16 30.0438 235.521 29.9899 235.136C29.9361 234.752 29.8699 234.521 29.6152 234.192C29.3605 233.863 28.9959 233.599 28.5708 233.437C28.1457 233.275 27.8574 233.281 27.3882 233.248C26.9189 233.216 25.8788 233.242 25.2594 233.437C24.6401 233.633 24.2026 233.874 23.8403 234.192C23.478 234.511 23.2969 234.727 23.1307 235.136Z" fill="#633916"/>
<path d="M64.9957 250.051C65.91 249.946 66.8195 250.05 67.3609 250.24C67.9024 250.43 68.0817 250.7 68.5436 250.995C69.0054 251.29 69.2054 251.336 69.4897 251.75C69.7739 252.164 69.9599 252.699 69.7262 253.072C69.4925 253.445 68.9632 253.39 68.5436 253.638C68.1239 253.887 63.9395 253.87 63.34 253.638C62.7405 253.407 62.2214 253.34 61.9208 252.883C61.6203 252.426 61.7755 252.231 61.9208 251.75C62.0662 251.269 62.4322 251.159 62.8669 250.806C63.3017 250.454 64.0814 250.156 64.9957 250.051Z" fill="#5E3716"/>
<path d="M165.519 259.302C165.252 259.852 165.165 260.218 165.519 260.624C165.873 261.03 166.228 261.001 166.702 261.001H170.013C170.722 261.001 171.909 260.836 172.142 260.435C172.374 260.033 172.287 259.729 172.142 259.302C171.996 258.875 171.359 258.594 170.959 258.358C170.559 258.122 170.494 257.892 170.013 257.792C169.532 257.691 168.374 257.533 167.411 257.792C166.448 258.05 165.786 258.752 165.519 259.302Z" fill="#43270F"/>
<path d="M246.174 248.918C246.011 249.396 245.854 250.272 246.174 250.618C246.494 250.963 246.868 251.003 247.357 251.184C247.845 251.365 248.207 251.455 248.776 251.561C249.344 251.668 251.717 251.656 252.56 251.561C253.404 251.467 254.082 251.404 254.689 251.184C255.295 250.964 255.807 250.886 256.108 250.429C256.409 249.972 256.293 249.602 256.108 249.107C255.923 248.613 255.58 248.388 255.162 247.974C254.744 247.561 254.17 247.045 253.743 246.842C253.315 246.638 253.04 246.57 252.56 246.464C252.081 246.358 250.056 246.364 249.485 246.464C248.915 246.564 248.567 246.602 248.066 246.842C247.565 247.082 247.244 247.383 246.884 247.786C246.523 248.188 246.337 248.441 246.174 248.918Z" fill="#804B1E"/>
<path d="M254.452 211.915C253.932 212.314 253.697 212.303 253.506 212.859C253.384 213.214 253.354 213.455 253.506 213.803C253.744 214.346 254.204 214.558 254.925 214.558H256.581C257.407 214.558 257.527 214.369 258.71 213.992C259.316 213.798 259.368 212.981 259.183 212.481C259.015 212.028 258.904 212.049 258.473 211.726C258.473 211.726 257.858 211.294 257.291 211.16C256.664 211.012 255.635 211.16 255.635 211.16C255.089 211.342 254.879 211.588 254.452 211.915Z" fill="#5E3716"/>
<path d="M275.503 228.906C275.05 229.21 275.03 229.473 274.794 229.661C274.265 230.084 274.283 230.737 274.557 230.983L274.597 231.019C274.864 231.259 275.186 231.549 275.503 231.549H277.868C277.868 231.549 278.819 231.557 279.288 231.172C279.694 230.837 280.031 230.504 279.997 230.039C279.968 229.643 279.761 229.473 279.524 229.284C279.15 228.985 278.887 228.522 278.341 228.34C277.575 228.084 276.971 228.068 276.213 228.34C275.909 228.449 275.758 228.735 275.503 228.906Z" fill="#804B1E"/>
<path d="M266.279 241.367C265.485 241.565 264.8 242.161 264.386 242.499C263.973 242.837 263.618 243.024 263.44 243.443C263.263 243.862 263.208 244.174 263.44 244.576C263.662 244.959 264.053 245.111 264.551 245.303L264.623 245.331C265.155 245.538 266.061 245.48 266.988 245.52C267.915 245.56 269.205 245.712 269.827 245.52C270.448 245.328 270.915 245.227 271.246 244.765C271.576 244.303 271.367 243.57 271.246 243.255C271.124 242.939 271.008 242.77 270.773 242.499C270.537 242.228 270.267 241.968 269.827 241.744C269.386 241.52 268.981 241.454 268.407 241.367C267.834 241.279 267.072 241.168 266.279 241.367Z" fill="#43270F"/>
<path d="M185.86 176.852C186.653 177.219 187.752 177.985 187.752 177.985L188.462 178.056C188.462 178.056 189.576 177.187 190.354 176.852C191.132 176.517 191.635 176.319 192.483 176.286C193.331 176.253 193.968 176.572 194.611 176.663C195.255 176.754 195.769 176.701 196.267 176.852C196.765 177.004 197.45 177.419 197.45 177.419L196.504 176.286C196.504 176.286 195.362 175.354 194.611 174.776C193.527 173.94 193.12 173.171 191.773 172.699C190.147 172.129 188.999 172.396 187.279 172.699C185.717 172.974 184.8 173.23 183.495 174.02C182.54 174.598 181.366 175.827 181.366 175.827C181.366 175.827 184.26 176.113 185.86 176.852Z" fill="#814C1D"/>
<path d="M170.959 177.041L187.752 177.985C187.752 177.985 186.653 177.219 185.86 176.852C184.26 176.113 181.366 175.827 181.366 175.827L180.893 175.719C180.893 175.719 179.664 174.996 178.764 174.776C177.52 174.471 176.719 174.549 175.453 174.776C173.462 175.131 170.959 177.041 170.959 177.041Z" fill="#5E3716"/>
<path d="M199.579 177.796C198.765 177.588 197.45 177.419 197.45 177.419C197.45 177.419 196.765 177.004 196.267 176.852C195.769 176.701 195.255 176.754 194.611 176.663C193.968 176.572 193.331 176.253 192.483 176.286C191.635 176.319 191.132 176.517 190.354 176.852C189.576 177.187 188.462 178.056 188.462 178.056C188.462 178.056 203.147 179.804 202.89 179.495C202.633 179.187 202.502 178.999 202.18 178.74C201.859 178.481 200.392 178.004 199.579 177.796Z" fill="#5E3716"/>
<path d="M167.411 170.056C167.176 170.62 166.836 172.428 167.411 172.51C167.986 172.592 168.309 172.343 168.83 172.132C169.351 171.922 170.455 171.286 170.722 170.811C170.99 170.335 171.105 169.839 170.959 169.489C170.813 169.14 170.636 168.936 170.249 168.734C169.863 168.533 168.997 168.439 168.357 168.734C167.717 169.029 167.647 169.492 167.411 170.056Z" fill="#5E3716"/>
<path d="M174.507 165.525C174.381 165.909 174.26 167.172 174.507 167.601L174.531 167.644C174.765 168.051 174.936 168.35 175.453 168.545C175.988 168.747 177.619 167.059 177.818 166.846C178.017 166.633 178.159 166.524 178.291 166.28C178.423 166.036 178.622 165.231 178.291 164.769C177.961 164.308 177.53 164.098 176.872 164.014C176.214 163.931 175.299 164.276 174.98 164.581C174.661 164.885 174.633 165.141 174.507 165.525Z" fill="#814C1D"/>
<path d="M132.878 165.66C132.424 165.429 131.542 165.451 131.223 165.66C130.904 165.87 130.889 166.105 130.75 166.415C130.611 166.726 130.344 167.347 130.513 167.926C130.682 168.505 132.588 169.839 133.115 169.625C133.642 169.411 133.847 169.121 134.061 168.681C134.275 168.241 133.806 166.997 133.588 166.604C133.37 166.211 133.333 165.891 132.878 165.66Z" fill="#5E3716"/>
<path d="M139.028 171.513C138.344 171.696 137.925 171.939 137.609 172.457C137.292 172.974 137.201 173.512 137.609 174.036C138.017 174.56 138.721 174.545 139.501 174.722C140.282 174.9 141.354 175.459 142.103 174.911C142.852 174.363 142.336 173.333 142.103 172.834C141.87 172.336 141.707 172.002 141.157 171.702C140.607 171.402 139.712 171.33 139.028 171.513Z" fill="#814C1D"/>
<path d="M122.944 170.946C121.337 171.054 118.923 171.89 118.923 171.89H113.956C112.774 171.89 111.094 172.097 109.699 173.023L109.622 173.074C108.733 173.664 108.39 173.892 108.043 174.722C107.57 175.855 107.57 177.365 107.57 177.365L130.277 176.233C130.277 176.233 130.334 175.54 130.277 175.1C130.22 174.66 130.181 173.628 129.567 172.834C129.188 172.344 128.621 171.89 128.148 171.702C127.009 171.247 124.886 170.817 122.944 170.946Z" fill="#5E3716"/>
<path d="M98.5823 175.1C98.1352 176.068 98.3457 177.743 98.3457 177.743L107.57 177.365C107.57 177.365 107.57 175.855 108.043 174.722C108.39 173.892 108.733 173.664 109.622 173.074L109.699 173.023C111.094 172.097 112.774 171.89 113.956 171.89H118.923C118.923 171.89 117.977 170.938 115.612 170.002C114.905 169.723 114.487 169.585 113.72 169.436C112.907 169.278 111.591 169.247 111.591 169.247C111.591 169.247 108.751 169.248 107.334 170.002C105.915 170.758 105.441 172.079 104.259 172.834C103.682 173.203 103.106 172.834 102.367 172.834C101.628 172.834 100.238 173.212 100.001 173.401C99.0553 174.156 98.9912 174.214 98.5823 175.1Z" fill="#814C1D"/>
<path d="M244.045 245.142C243.523 245.364 243.172 245.684 243.099 245.898C243.026 246.111 242.996 246.272 243.099 246.464C243.202 246.656 243.344 246.74 243.572 246.842C243.801 246.943 244.293 246.842 244.755 246.842H245.937C245.937 246.842 246.628 246.8 246.647 246.653C246.666 246.506 246.996 245.897 246.884 245.709C246.771 245.521 246.853 245.459 246.647 245.331C246.441 245.203 246.054 245.09 245.701 244.954C245.348 244.818 244.568 244.921 244.045 245.142Z" fill="#33200F"/>
</g>
<defs>
<filter id="filter0_d_477_88" x="0.221191" y="0.909912" width="300.859" height="268.092" filterUnits="userSpaceOnUse" color-interpolation-filters="sRGB">
<feFlood flood-opacity="0" result="BackgroundImageFix"/>
<feColorMatrix in="SourceAlpha" type="matrix" values="0 0 0 0 0 0 0 0 0 0 0 0 0 0 0 0 0 0 127 0" result="hardAlpha"/>
<feOffset dy="4"/>
<feGaussianBlur stdDeviation="2"/>
<feComposite in2="hardAlpha" operator="out"/>
<feColorMatrix type="matrix" values="0 0 0 0 0 0 0 0 0 0 0 0 0 0 0 0 0 0 0.25 0"/>
<feBlend mode="normal" in2="BackgroundImageFix" result="effect1_dropShadow_477_88"/>
<feBlend mode="normal" in="SourceGraphic" in2="effect1_dropShadow_477_88" result="shape"/>
</filter>
<radialGradient id="paint0_radial_477_88" cx="0" cy="0" r="1" gradientUnits="userSpaceOnUse" gradientTransform="translate(150.651 130.913) rotate(90) scale(354.486 399.276)">
<stop stop-color="#FFFBF5"/>
<stop offset="1" stop-color="#B08957"/>
</radialGradient>
</defs>
</svg>
