<svg width="312" height="273" viewBox="0 0 312 273" fill="none" xmlns="http://www.w3.org/2000/svg">
<rect x="21" y="2" width="288.859" height="256.007" rx="38" fill="url(#paint0_radial_771_57)" stroke="url(#paint1_linear_771_57)" stroke-width="4"/>
<path d="M58.6492 226.693L1.30898 201.644L6.49406 195.728L63.1798 219.049C63.1798 219.049 68.9523 216.863 84.6254 216.855C98.891 216.848 109.707 232.799 100.366 243.169C91.746 252.738 75.9003 250.459 69.0201 243.184C62.1398 235.91 58.6492 226.693 58.6492 226.693Z" fill="#6C6C6C" stroke="black"/>
<path d="M73.9197 238.694C73.9197 238.694 86.6096 243.508 91.2542 238.716C101.339 228.31 82.4775 224.255 82.4775 224.255" stroke="black"/>
<path d="M51.8288 185.531L30.5943 163.757L34.1093 162.152L55.3826 183.047C55.3826 183.047 58.4381 183.182 65.5785 186.138C72.0777 188.829 73.8946 197.841 67.6187 200.608C61.8267 203.162 55.0536 199.173 53.3378 194.695C51.622 190.218 51.8288 185.531 51.8288 185.531Z" fill="#6C6C6C" stroke="black"/>
<path d="M56.4448 193.659C56.4448 193.659 61.2864 198.159 64.3362 196.942C70.9584 194.299 63.1575 188.966 63.1575 188.966" stroke="black"/>
<g filter="url(#filter0_n_771_57)">
<path d="M258.091 201.542C253.022 210.807 234.188 216.685 234.188 216.685C234.188 216.685 245.074 205.523 249.096 198.325C253.687 190.111 247.139 183.948 256.12 182.57C262.461 181.597 263.118 192.351 258.091 201.542Z" fill="#D71C1C"/>
<path d="M258.091 201.542C253.022 210.807 234.188 216.685 234.188 216.685C234.188 216.685 245.074 205.523 249.096 198.325C253.687 190.111 247.139 183.948 256.12 182.57C262.461 181.597 263.118 192.351 258.091 201.542Z" stroke="#6D0F0F"/>
</g>
<g filter="url(#filter1_n_771_57)">
<path d="M249.235 190.41C249.235 190.41 249.024 187.445 250.224 185.87C251.469 184.237 254.047 182.144 254.047 182.144L253.074 177.76L256.225 176.633L257.592 181.638C257.592 181.638 259.699 182.408 260.451 183.305C261.606 184.682 261.916 188.464 261.916 188.464L258.087 185.673L255.478 189.282L254.26 186.14L249.235 190.41Z" fill="#416E24"/>
<path d="M249.235 190.41C249.235 190.41 249.024 187.445 250.224 185.87C251.469 184.237 254.047 182.144 254.047 182.144L253.074 177.76L256.225 176.633L257.592 181.638C257.592 181.638 259.699 182.408 260.451 183.305C261.606 184.682 261.916 188.464 261.916 188.464L258.087 185.673L255.478 189.282L254.26 186.14L249.235 190.41Z" stroke="#496D0F"/>
</g>
<g filter="url(#filter2_n_771_57)">
<path d="M278 238C256.774 251.922 213 238 213 238C213 238 247.845 228.192 264.5 217.5C283.508 205.298 278.377 181.584 297.5 191.5C311 198.5 299.054 224.191 278 238Z" fill="#D71C1C"/>
<path d="M278 238C256.774 251.922 213 238 213 238C213 238 247.845 228.192 264.5 217.5C283.508 205.298 278.377 181.584 297.5 191.5C311 198.5 299.054 224.191 278 238Z" stroke="#6D0F0F"/>
</g>
<g filter="url(#filter3_n_771_57)">
<path d="M274.5 199.5C274.5 199.5 277.735 192.373 282 190.5C286.423 188.558 294 187.5 294 187.5L297.5 176L305 178L301.5 191.5C301.5 191.5 304.644 196.341 305 199.5C305.547 204.351 301.5 213.5 301.5 213.5L297.5 201.5L288 206L289.5 197L274.5 199.5Z" fill="#416E24"/>
<path d="M274.5 199.5C274.5 199.5 277.735 192.373 282 190.5C286.423 188.558 294 187.5 294 187.5L297.5 176L305 178L301.5 191.5C301.5 191.5 304.644 196.341 305 199.5C305.547 204.351 301.5 213.5 301.5 213.5L297.5 201.5L288 206L289.5 197L274.5 199.5Z" stroke="#496D0F"/>
</g>
<g filter="url(#filter4_n_771_57)">
<path d="M193.164 236.542C198.233 245.807 217.067 251.685 217.067 251.685C217.067 251.685 206.181 240.523 202.159 233.325C197.568 225.111 204.116 218.948 195.135 217.57C188.794 216.597 188.137 227.351 193.164 236.542Z" fill="#D71C1C"/>
<path d="M193.164 236.542C198.233 245.807 217.067 251.685 217.067 251.685C217.067 251.685 206.181 240.523 202.159 233.325C197.568 225.111 204.116 218.948 195.135 217.57C188.794 216.597 188.137 227.351 193.164 236.542Z" stroke="#6D0F0F"/>
</g>
<g filter="url(#filter5_n_771_57)">
<path d="M202.019 225.41C202.019 225.41 202.231 222.445 201.031 220.87C199.786 219.237 197.208 217.144 197.208 217.144L198.181 212.76L195.03 211.633L193.663 216.638C193.663 216.638 191.555 217.408 190.804 218.305C189.649 219.682 189.338 223.464 189.338 223.464L193.168 220.673L195.777 224.282L196.995 221.14L202.019 225.41Z" fill="#416E24"/>
<path d="M202.019 225.41C202.019 225.41 202.231 222.445 201.031 220.87C199.786 219.237 197.208 217.144 197.208 217.144L198.181 212.76L195.03 211.633L193.663 216.638C193.663 216.638 191.555 217.408 190.804 218.305C189.649 219.682 189.338 223.464 189.338 223.464L193.168 220.673L195.777 224.282L196.995 221.14L202.019 225.41Z" stroke="#496D0F"/>
</g>
<defs>
<filter id="filter0_n_771_57" x="233.83" y="182.008" width="28.0952" height="35.1538" filterUnits="userSpaceOnUse" color-interpolation-filters="sRGB">
<feFlood flood-opacity="0" result="BackgroundImageFix"/>
<feBlend mode="normal" in="SourceGraphic" in2="BackgroundImageFix" result="shape"/>
<feTurbulence type="fractalNoise" baseFrequency="2 2" stitchTiles="stitch" numOctaves="3" result="noise" seed="9673" />
<feColorMatrix in="noise" type="luminanceToAlpha" result="alphaNoise" />
<feComponentTransfer in="alphaNoise" result="coloredNoise1">
<feFuncA type="discrete" tableValues="1 1 1 1 1 1 1 1 1 1 1 1 1 1 1 1 1 1 1 1 1 1 1 1 1 1 1 1 1 1 1 1 1 1 1 1 1 1 1 1 1 1 1 1 1 1 1 1 1 1 1 0 0 0 0 0 0 0 0 0 0 0 0 0 0 0 0 0 0 0 0 0 0 0 0 0 0 0 0 0 0 0 0 0 0 0 0 0 0 0 0 0 0 0 0 0 0 0 0 0 "/>
</feComponentTransfer>
<feComposite operator="in" in2="shape" in="coloredNoise1" result="noise1Clipped" />
<feFlood flood-color="rgba(0, 0, 0, 0.25)" result="color1Flood" />
<feComposite operator="in" in2="noise1Clipped" in="color1Flood" result="color1" />
<feMerge result="effect1_noise_771_57">
<feMergeNode in="shape" />
<feMergeNode in="color1" />
</feMerge>
</filter>
<filter id="filter1_n_771_57" x="248.721" y="175.981" width="13.7827" height="15.4501" filterUnits="userSpaceOnUse" color-interpolation-filters="sRGB">
<feFlood flood-opacity="0" result="BackgroundImageFix"/>
<feBlend mode="normal" in="SourceGraphic" in2="BackgroundImageFix" result="shape"/>
<feTurbulence type="fractalNoise" baseFrequency="2 2" stitchTiles="stitch" numOctaves="3" result="noise" seed="8019" />
<feColorMatrix in="noise" type="luminanceToAlpha" result="alphaNoise" />
<feComponentTransfer in="alphaNoise" result="coloredNoise1">
<feFuncA type="discrete" tableValues="1 1 1 1 1 1 1 1 1 1 1 1 1 1 1 1 1 1 1 1 1 1 1 1 1 1 1 1 1 1 1 1 1 1 1 1 1 1 1 1 1 1 1 1 1 1 1 1 1 1 1 0 0 0 0 0 0 0 0 0 0 0 0 0 0 0 0 0 0 0 0 0 0 0 0 0 0 0 0 0 0 0 0 0 0 0 0 0 0 0 0 0 0 0 0 0 0 0 0 0 "/>
</feComponentTransfer>
<feComposite operator="in" in2="shape" in="coloredNoise1" result="noise1Clipped" />
<feFlood flood-color="rgba(0, 0, 0, 0.25)" result="color1Flood" />
<feComposite operator="in" in2="noise1Clipped" in="color1Flood" result="color1" />
<feMerge result="effect1_noise_771_57">
<feMergeNode in="shape" />
<feMergeNode in="color1" />
</feMerge>
</filter>
<filter id="filter2_n_771_57" x="211.258" y="188.635" width="92.4658" height="56.0522" filterUnits="userSpaceOnUse" color-interpolation-filters="sRGB">
<feFlood flood-opacity="0" result="BackgroundImageFix"/>
<feBlend mode="normal" in="SourceGraphic" in2="BackgroundImageFix" result="shape"/>
<feTurbulence type="fractalNoise" baseFrequency="2 2" stitchTiles="stitch" numOctaves="3" result="noise" seed="9673" />
<feColorMatrix in="noise" type="luminanceToAlpha" result="alphaNoise" />
<feComponentTransfer in="alphaNoise" result="coloredNoise1">
<feFuncA type="discrete" tableValues="1 1 1 1 1 1 1 1 1 1 1 1 1 1 1 1 1 1 1 1 1 1 1 1 1 1 1 1 1 1 1 1 1 1 1 1 1 1 1 1 1 1 1 1 1 1 1 1 1 1 1 0 0 0 0 0 0 0 0 0 0 0 0 0 0 0 0 0 0 0 0 0 0 0 0 0 0 0 0 0 0 0 0 0 0 0 0 0 0 0 0 0 0 0 0 0 0 0 0 0 "/>
</feComponentTransfer>
<feComposite operator="in" in2="shape" in="coloredNoise1" result="noise1Clipped" />
<feFlood flood-color="rgba(0, 0, 0, 0.25)" result="color1Flood" />
<feComposite operator="in" in2="noise1Clipped" in="color1Flood" result="color1" />
<feMerge result="effect1_noise_771_57">
<feMergeNode in="shape" />
<feMergeNode in="color1" />
</feMerge>
</filter>
<filter id="filter3_n_771_57" x="273.657" y="175.392" width="31.9512" height="39.4918" filterUnits="userSpaceOnUse" color-interpolation-filters="sRGB">
<feFlood flood-opacity="0" result="BackgroundImageFix"/>
<feBlend mode="normal" in="SourceGraphic" in2="BackgroundImageFix" result="shape"/>
<feTurbulence type="fractalNoise" baseFrequency="2 2" stitchTiles="stitch" numOctaves="3" result="noise" seed="8019" />
<feColorMatrix in="noise" type="luminanceToAlpha" result="alphaNoise" />
<feComponentTransfer in="alphaNoise" result="coloredNoise1">
<feFuncA type="discrete" tableValues="1 1 1 1 1 1 1 1 1 1 1 1 1 1 1 1 1 1 1 1 1 1 1 1 1 1 1 1 1 1 1 1 1 1 1 1 1 1 1 1 1 1 1 1 1 1 1 1 1 1 1 0 0 0 0 0 0 0 0 0 0 0 0 0 0 0 0 0 0 0 0 0 0 0 0 0 0 0 0 0 0 0 0 0 0 0 0 0 0 0 0 0 0 0 0 0 0 0 0 0 "/>
</feComponentTransfer>
<feComposite operator="in" in2="shape" in="coloredNoise1" result="noise1Clipped" />
<feFlood flood-color="rgba(0, 0, 0, 0.25)" result="color1Flood" />
<feComposite operator="in" in2="noise1Clipped" in="color1Flood" result="color1" />
<feMerge result="effect1_noise_771_57">
<feMergeNode in="shape" />
<feMergeNode in="color1" />
</feMerge>
</filter>
<filter id="filter4_n_771_57" x="189.33" y="217.008" width="28.0952" height="35.1538" filterUnits="userSpaceOnUse" color-interpolation-filters="sRGB">
<feFlood flood-opacity="0" result="BackgroundImageFix"/>
<feBlend mode="normal" in="SourceGraphic" in2="BackgroundImageFix" result="shape"/>
<feTurbulence type="fractalNoise" baseFrequency="2 2" stitchTiles="stitch" numOctaves="3" result="noise" seed="9673" />
<feColorMatrix in="noise" type="luminanceToAlpha" result="alphaNoise" />
<feComponentTransfer in="alphaNoise" result="coloredNoise1">
<feFuncA type="discrete" tableValues="1 1 1 1 1 1 1 1 1 1 1 1 1 1 1 1 1 1 1 1 1 1 1 1 1 1 1 1 1 1 1 1 1 1 1 1 1 1 1 1 1 1 1 1 1 1 1 1 1 1 1 0 0 0 0 0 0 0 0 0 0 0 0 0 0 0 0 0 0 0 0 0 0 0 0 0 0 0 0 0 0 0 0 0 0 0 0 0 0 0 0 0 0 0 0 0 0 0 0 0 "/>
</feComponentTransfer>
<feComposite operator="in" in2="shape" in="coloredNoise1" result="noise1Clipped" />
<feFlood flood-color="rgba(0, 0, 0, 0.25)" result="color1Flood" />
<feComposite operator="in" in2="noise1Clipped" in="color1Flood" result="color1" />
<feMerge result="effect1_noise_771_57">
<feMergeNode in="shape" />
<feMergeNode in="color1" />
</feMerge>
</filter>
<filter id="filter5_n_771_57" x="188.751" y="210.981" width="13.7827" height="15.4501" filterUnits="userSpaceOnUse" color-interpolation-filters="sRGB">
<feFlood flood-opacity="0" result="BackgroundImageFix"/>
<feBlend mode="normal" in="SourceGraphic" in2="BackgroundImageFix" result="shape"/>
<feTurbulence type="fractalNoise" baseFrequency="2 2" stitchTiles="stitch" numOctaves="3" result="noise" seed="8019" />
<feColorMatrix in="noise" type="luminanceToAlpha" result="alphaNoise" />
<feComponentTransfer in="alphaNoise" result="coloredNoise1">
<feFuncA type="discrete" tableValues="1 1 1 1 1 1 1 1 1 1 1 1 1 1 1 1 1 1 1 1 1 1 1 1 1 1 1 1 1 1 1 1 1 1 1 1 1 1 1 1 1 1 1 1 1 1 1 1 1 1 1 0 0 0 0 0 0 0 0 0 0 0 0 0 0 0 0 0 0 0 0 0 0 0 0 0 0 0 0 0 0 0 0 0 0 0 0 0 0 0 0 0 0 0 0 0 0 0 0 0 "/>
</feComponentTransfer>
<feComposite operator="in" in2="shape" in="coloredNoise1" result="noise1Clipped" />
<feFlood flood-color="rgba(0, 0, 0, 0.25)" result="color1Flood" />
<feComposite operator="in" in2="noise1Clipped" in="color1Flood" result="color1" />
<feMerge result="effect1_noise_771_57">
<feMergeNode in="shape" />
<feMergeNode in="color1" />
</feMerge>
</filter>
<radialGradient id="paint0_radial_771_57" cx="0" cy="0" r="1" gradientUnits="userSpaceOnUse" gradientTransform="translate(165.429 130.004) rotate(90) scale(354.486 399.276)">
<stop offset="0.105769" stop-color="#FFFBF5"/>
<stop offset="0.651973" stop-color="#FFC0F7"/>
</radialGradient>
<linearGradient id="paint1_linear_771_57" x1="174" y1="75" x2="165.429" y2="260.007" gradientUnits="userSpaceOnUse">
<stop stop-color="#7D1111" stop-opacity="0.58"/>
</linearGradient>
</defs>
</svg>
