<svg width="312" height="260" viewBox="0 0 312 260" fill="none" xmlns="http://www.w3.org/2000/svg">
<rect x="20.1987" y="2" width="288.859" height="256.007" rx="38" fill="url(#paint0_radial_771_61)" stroke="url(#paint1_linear_771_61)" stroke-width="4"/>
<g filter="url(#filter0_i_771_61)">
<path d="M34.7231 228.8C28.5259 219.118 43.2265 200 43.2265 200C43.2265 200 40.8957 217.183 43.2265 224.6C45.316 231.249 54.1987 236 54.1987 236C54.1987 236 39.3272 235.993 34.7231 228.8Z" fill="url(#paint2_linear_771_61)"/>
</g>
<path d="M34.7231 228.8C28.5259 219.118 43.2265 200 43.2265 200C43.2265 200 40.8957 217.183 43.2265 224.6C45.316 231.249 54.1987 236 54.1987 236C54.1987 236 39.3272 235.993 34.7231 228.8Z" stroke="black"/>
<g filter="url(#filter1_i_771_61)">
<path d="M55.9193 171.04C66.4845 163.223 52.5807 138.767 52.5807 138.767C52.5807 138.767 51.033 157.104 46.0584 163.901C41.599 169.995 28.8754 171.874 28.8754 171.874C28.8754 171.874 48.0702 176.848 55.9193 171.04Z" fill="url(#paint3_linear_771_61)"/>
</g>
<path d="M55.9193 171.04C66.4845 163.223 52.5807 138.767 52.5807 138.767C52.5807 138.767 51.033 157.104 46.0584 163.901C41.599 169.995 28.8754 171.874 28.8754 171.874C28.8754 171.874 48.0702 176.848 55.9193 171.04Z" stroke="black"/>
<g filter="url(#filter2_i_771_61)">
<path d="M16.0495 138.548C4.81213 133.013 10.3045 107.085 10.3045 107.085C10.3045 107.085 16.5506 124.33 22.6754 129.915C28.1661 134.922 39.6832 134.386 39.6832 134.386C39.6832 134.386 24.398 142.66 16.0495 138.548Z" fill="url(#paint4_linear_771_61)"/>
</g>
<path d="M16.0495 138.548C4.81213 133.013 10.3045 107.085 10.3045 107.085C10.3045 107.085 16.5506 124.33 22.6754 129.915C28.1661 134.922 39.6832 134.386 39.6832 134.386C39.6832 134.386 24.398 142.66 16.0495 138.548Z" stroke="black"/>
<g filter="url(#filter3_i_771_61)">
<path d="M25.8323 79.5726C37.0697 74.0374 31.5773 48.1095 31.5773 48.1095C31.5773 48.1095 25.3313 65.3546 19.2064 70.9399C13.7158 75.9468 2.19861 75.4104 2.19861 75.4104C2.19861 75.4104 17.4839 83.6848 25.8323 79.5726Z" fill="url(#paint5_linear_771_61)"/>
</g>
<path d="M25.8323 79.5726C37.0697 74.0374 31.5773 48.1095 31.5773 48.1095C31.5773 48.1095 25.3313 65.3546 19.2064 70.9399C13.7158 75.9468 2.19861 75.4104 2.19861 75.4104C2.19861 75.4104 17.4839 83.6848 25.8323 79.5726Z" stroke="black"/>
<defs>
<filter id="filter0_i_771_61" x="32.6987" y="198.207" width="21.7358" height="42.2926" filterUnits="userSpaceOnUse" color-interpolation-filters="sRGB">
<feFlood flood-opacity="0" result="BackgroundImageFix"/>
<feBlend mode="normal" in="SourceGraphic" in2="BackgroundImageFix" result="shape"/>
<feColorMatrix in="SourceAlpha" type="matrix" values="0 0 0 0 0 0 0 0 0 0 0 0 0 0 0 0 0 0 127 0" result="hardAlpha"/>
<feOffset dy="4"/>
<feGaussianBlur stdDeviation="2"/>
<feComposite in2="hardAlpha" operator="arithmetic" k2="-1" k3="1"/>
<feColorMatrix type="matrix" values="0 0 0 0 0 0 0 0 0 0 0 0 0 0 0 0 0 0 0.25 0"/>
<feBlend mode="normal" in2="shape" result="effect1_innerShadow_771_61"/>
</filter>
<filter id="filter1_i_771_61" x="28.75" y="137.118" width="31.6323" height="41.2391" filterUnits="userSpaceOnUse" color-interpolation-filters="sRGB">
<feFlood flood-opacity="0" result="BackgroundImageFix"/>
<feBlend mode="normal" in="SourceGraphic" in2="BackgroundImageFix" result="shape"/>
<feColorMatrix in="SourceAlpha" type="matrix" values="0 0 0 0 0 0 0 0 0 0 0 0 0 0 0 0 0 0 127 0" result="hardAlpha"/>
<feOffset dy="4"/>
<feGaussianBlur stdDeviation="2"/>
<feComposite in2="hardAlpha" operator="arithmetic" k2="-1" k3="1"/>
<feColorMatrix type="matrix" values="0 0 0 0 0 0 0 0 0 0 0 0 0 0 0 0 0 0 0.25 0"/>
<feBlend mode="normal" in2="shape" result="effect1_innerShadow_771_61"/>
</filter>
<filter id="filter2_i_771_61" x="8.4624" y="105.268" width="31.459" height="38.9261" filterUnits="userSpaceOnUse" color-interpolation-filters="sRGB">
<feFlood flood-opacity="0" result="BackgroundImageFix"/>
<feBlend mode="normal" in="SourceGraphic" in2="BackgroundImageFix" result="shape"/>
<feColorMatrix in="SourceAlpha" type="matrix" values="0 0 0 0 0 0 0 0 0 0 0 0 0 0 0 0 0 0 127 0" result="hardAlpha"/>
<feOffset dy="4"/>
<feGaussianBlur stdDeviation="2"/>
<feComposite in2="hardAlpha" operator="arithmetic" k2="-1" k3="1"/>
<feColorMatrix type="matrix" values="0 0 0 0 0 0 0 0 0 0 0 0 0 0 0 0 0 0 0.25 0"/>
<feBlend mode="normal" in2="shape" result="effect1_innerShadow_771_61"/>
</filter>
<filter id="filter3_i_771_61" x="1.96045" y="46.2927" width="31.459" height="38.9261" filterUnits="userSpaceOnUse" color-interpolation-filters="sRGB">
<feFlood flood-opacity="0" result="BackgroundImageFix"/>
<feBlend mode="normal" in="SourceGraphic" in2="BackgroundImageFix" result="shape"/>
<feColorMatrix in="SourceAlpha" type="matrix" values="0 0 0 0 0 0 0 0 0 0 0 0 0 0 0 0 0 0 127 0" result="hardAlpha"/>
<feOffset dy="4"/>
<feGaussianBlur stdDeviation="2"/>
<feComposite in2="hardAlpha" operator="arithmetic" k2="-1" k3="1"/>
<feColorMatrix type="matrix" values="0 0 0 0 0 0 0 0 0 0 0 0 0 0 0 0 0 0 0.25 0"/>
<feBlend mode="normal" in2="shape" result="effect1_innerShadow_771_61"/>
</filter>
<radialGradient id="paint0_radial_771_61" cx="0" cy="0" r="1" gradientUnits="userSpaceOnUse" gradientTransform="translate(164.628 130.004) rotate(90) scale(354.486 399.276)">
<stop offset="0.105769" stop-color="#FFFBF5"/>
<stop offset="0.715763" stop-color="#CD96E1"/>
</radialGradient>
<linearGradient id="paint1_linear_771_61" x1="173.199" y1="75" x2="164.628" y2="260.007" gradientUnits="userSpaceOnUse">
<stop offset="1" stop-color="#591354"/>
</linearGradient>
<linearGradient id="paint2_linear_771_61" x1="43.6987" y1="200" x2="43.6987" y2="236" gradientUnits="userSpaceOnUse">
<stop stop-color="#232C79"/>
<stop offset="0.5" stop-color="#344F98"/>
<stop offset="1" stop-color="#7FBDE7"/>
</linearGradient>
<linearGradient id="paint3_linear_771_61" x1="51.9713" y1="138.609" x2="42.4265" y2="175.391" gradientUnits="userSpaceOnUse">
<stop stop-color="#232C79"/>
<stop offset="0.5" stop-color="#344F98"/>
<stop offset="1" stop-color="#7FBDE7"/>
</linearGradient>
<linearGradient id="paint4_linear_771_61" x1="10.7897" y1="106.822" x2="28.8935" y2="140.233" gradientUnits="userSpaceOnUse">
<stop stop-color="#232C79"/>
<stop offset="0.5" stop-color="#344F98"/>
<stop offset="1" stop-color="#7FBDE7"/>
</linearGradient>
<linearGradient id="paint5_linear_771_61" x1="31.0921" y1="47.8466" x2="12.9883" y2="81.2569" gradientUnits="userSpaceOnUse">
<stop stop-color="#232C79"/>
<stop offset="0.5" stop-color="#344F98"/>
<stop offset="1" stop-color="#7FBDE7"/>
</linearGradient>
</defs>
</svg>
