<svg width="191" height="178" viewBox="0 0 191 178" fill="none" xmlns="http://www.w3.org/2000/svg">
<path d="M91.7891 6.30078C93.5757 3.69309 97.4243 3.69309 99.2109 6.30078C101.159 9.1439 105.212 9.51423 107.644 7.07129L107.825 6.88867C110.018 4.68515 113.741 5.37977 114.992 8.22559C116.365 11.3495 120.252 12.4392 123.049 10.4844L123.492 10.1738C125.996 8.42369 129.476 9.76743 130.154 12.7461C130.905 16.0409 134.505 17.8023 137.567 16.374L138.252 16.0557C140.977 14.7851 144.113 16.7131 144.209 19.7178C144.316 23.0686 147.524 25.44 150.759 24.5586L151.599 24.3301C154.463 23.5495 157.177 25.991 156.702 28.9219C156.169 32.2135 158.896 35.1176 162.215 34.792L163.085 34.707C166.018 34.4191 168.244 37.2949 167.229 40.0615C166.084 43.1861 168.254 46.5374 171.574 46.7686L172.34 46.8213C175.275 47.0258 176.96 50.2568 175.449 52.7812C173.738 55.641 175.289 59.341 178.528 60.125L179.076 60.2568C181.948 60.952 183.05 64.4525 181.095 66.668C178.879 69.1785 179.761 73.1215 182.836 74.4482L183.102 74.5625H183.103C185.842 75.7448 186.324 79.4253 183.982 81.2744C181.334 83.3662 181.528 87.4427 184.347 89.291C186.849 90.9319 186.653 94.7118 183.998 96.1396C181.048 97.7261 180.443 101.774 182.892 104.09C185.048 106.129 184.251 109.73 181.437 110.67L181.024 110.807C177.857 111.864 176.635 115.7 178.607 118.395C180.347 120.772 178.949 124.147 176.037 124.598L175.368 124.701C172.078 125.21 170.211 128.748 171.646 131.751C172.915 134.406 170.954 137.469 168.012 137.428L167.178 137.416C163.848 137.369 161.39 140.508 162.234 143.729C162.984 146.589 160.507 149.257 157.6 148.723L156.728 148.562C153.44 147.958 150.462 150.607 150.677 153.942C150.869 156.922 147.935 159.116 145.131 158.09L144.355 157.807C141.196 156.65 137.78 158.725 137.35 162.062C136.963 165.067 133.643 166.712 131.018 165.199L130.447 164.87C127.505 163.175 123.748 164.608 122.682 167.832C121.714 170.757 118.099 171.783 115.739 169.802L115.428 169.54C112.801 167.335 108.815 168.07 107.147 171.066C105.623 173.806 101.821 174.158 99.8193 171.745L99.7324 171.64C97.5338 168.989 93.4662 168.989 91.2676 171.64L91.1807 171.745C89.1789 174.158 85.3774 173.806 83.8525 171.066C82.1846 168.07 78.1989 167.336 75.5723 169.541L75.2607 169.802C72.9006 171.783 69.2863 170.757 68.3184 167.832C67.2522 164.608 63.4947 163.175 60.5527 164.87L59.9824 165.199C57.3573 166.712 54.0374 165.067 53.6504 162.062C53.2204 158.725 49.8045 156.65 46.6445 157.807L45.8691 158.09C43.065 159.116 40.131 156.922 40.3232 153.942C40.5385 150.607 37.5596 147.958 34.2725 148.562L33.4004 148.723C30.4932 149.257 28.0163 146.589 28.7656 143.729C29.6099 140.508 27.1519 137.369 23.8223 137.416L22.9883 137.428C20.0463 137.469 18.0845 134.406 19.3535 131.751C20.7891 128.748 18.9217 125.21 15.6318 124.701L14.9629 124.598C12.0513 124.147 10.6526 120.772 12.3926 118.395C14.3651 115.7 13.1434 111.864 9.97559 110.807L9.56348 110.67C6.74872 109.73 5.95239 106.129 8.1084 104.09C10.5574 101.774 9.95193 97.7261 7.00195 96.1396C4.34694 94.7118 4.15087 90.9319 6.65332 89.291C9.47196 87.4427 9.66631 83.3662 7.01758 81.2744C4.67562 79.4253 5.15863 75.7447 7.89844 74.5625L8.16406 74.4482C11.2388 73.1215 12.1214 69.1785 9.90527 66.668C7.94972 64.4525 9.05173 60.952 11.9238 60.2568L12.4717 60.125C15.7111 59.341 17.2624 55.641 15.5508 52.7812C14.0396 50.2568 15.7251 47.0257 18.6602 46.8213L19.4258 46.7686C22.7458 46.5374 24.9165 43.1861 23.7705 40.0615C22.7561 37.2949 24.9823 34.4191 27.915 34.707L28.7852 34.792C32.1037 35.1176 34.8308 32.2135 34.2979 28.9219C33.8231 25.991 36.5368 23.5495 39.4014 24.3301L40.2412 24.5586C43.4758 25.44 46.6842 23.0686 46.791 19.7178C46.8869 16.713 50.0234 14.7851 52.748 16.0557L53.4326 16.374C56.4953 17.8023 60.0948 16.0409 60.8457 12.7461C61.5243 9.76743 65.0038 8.4237 67.5078 10.1738L67.9512 10.4844C70.748 12.4392 74.6349 11.3495 76.0078 8.22559C77.2588 5.37977 80.9819 4.68515 83.1748 6.88867L83.3564 7.07129C85.7876 9.51423 89.841 9.1439 91.7891 6.30078Z" fill="#EEE4C9" stroke="black"/>
<path d="M95.5 14.5C138.042 14.5 172.5 47.8701 172.5 89C172.5 130.13 138.042 163.5 95.5 163.5C52.9585 163.5 18.5 130.13 18.5 89C18.5 47.8701 52.9585 14.5 95.5 14.5Z" fill="#EEE4C9" stroke="black"/>
<path d="M95.5 19.5C135.281 19.5 167.5 50.6326 167.5 89C167.5 127.367 135.281 158.5 95.5 158.5C55.7188 158.5 23.5 127.367 23.5 89C23.5 50.6326 55.7188 19.5 95.5 19.5Z" fill="#EEE4C9" stroke="black"/>
</svg>
