<svg width="390" height="664" viewBox="0 0 390 664" fill="none" xmlns="http://www.w3.org/2000/svg">
<path d="M1 509.194V663H389C389 663 376.847 614.863 375.406 608.777C373.964 602.69 372.007 596.785 372.007 596.785C372.007 596.785 362.887 603.1 356.714 606.691C345.174 613.405 338.109 616.341 325.561 621.29C312.635 626.387 291.575 632.239 291.575 632.239C291.575 632.239 263.218 640.489 244.562 643.188C231.168 645.125 223.52 645.789 210.01 645.795C194.28 645.801 184.084 646.026 168.095 643.709C153.944 641.659 147.241 640.268 133.543 636.41C119.754 632.526 111.453 630.675 98.9912 624.418L98.7576 624.301C95.2479 622.54 91.6277 620.723 91.6277 618.683C91.6277 610.325 95.7172 597.633 98.9912 584.272C103.371 566.398 105.729 557.556 112.019 538.912C116.915 524.4 119.422 516.044 125.047 501.894C128.054 494.33 129.657 490.056 132.977 482.603C134.894 478.299 138.074 471.654 138.074 471.654L152.235 435.158C152.235 435.158 155.742 425.184 159.032 418.995C161.3 414.73 165.263 409.695 165.263 408.046C165.263 407.004 161.776 405.165 159.032 403.354C155.464 400.998 153.165 399.348 149.969 396.576C147.693 394.601 144.305 391.884 144.305 391.884C144.305 391.884 138.417 393.966 134.676 395.533C131.118 397.024 124.48 399.183 124.48 399.183L85.3971 422.645C85.3971 422.645 72.6711 431.206 65.0058 437.243C57.396 443.237 46.3139 453.406 46.3139 453.406C46.3139 453.406 41.0542 458.422 37.8175 461.748C25.8043 474.094 19.8907 481.75 10.0628 495.638C6.37687 500.846 1 509.194 1 509.194Z" fill="#36A6DD"/>
<path d="M168.095 314.72L164.13 304.292L161.298 297.514L164.13 308.463V317.848C164.13 317.848 163.135 326.134 161.298 330.361C159.032 335.575 160.165 334.011 156.2 338.703C153.856 341.478 150.385 342.697 146.571 342.874C145.024 342.946 142.606 342.874 142.606 342.874V341.831L136.942 362.165L142.606 372.071L147.704 378.929C147.704 378.929 150.561 382 151.669 383.02C156.2 387.191 158.978 389.116 164.696 390.841C168.503 391.989 172.626 391.884 173.759 391.362C174.892 390.841 176.287 388.869 177.158 386.148C178.112 383.165 178.111 381.085 178.291 377.806C178.592 372.301 177.82 368.165 177.158 362.686C176.365 356.132 175.713 353.454 174.892 347.567L174.808 346.965C173.943 340.762 173.365 336.61 172.06 330.361C171.159 326.045 170.533 323.387 169.228 319.412C168.478 317.131 168.095 314.72 168.095 314.72Z" fill="#2286C0"/>
<path d="M158.466 292.3C155.974 287.321 154.538 284.883 151.669 280.309C148.784 275.711 146.366 272.865 142.606 268.838C138.617 264.568 136.406 262.734 131.844 259.454C127.686 256.464 124.986 254.644 119.949 253.197C117.171 252.4 116.061 252.183 113.152 252.154C110.024 252.123 108.729 251.76 105.788 252.676C102.766 253.616 100.936 255.036 98.4248 256.847C93.0021 260.758 90.5843 263.891 87.0964 269.36C83.4484 275.079 81.9717 278.68 80.2993 285.001C78.3514 292.363 77.6597 296.502 78.6 304.292C79.1664 308.985 80.2993 311.07 82.565 314.198C87.1066 320.469 95.5927 330.361 95.5927 330.361C95.5927 330.361 99.5032 320.76 101.823 320.455C105.788 319.933 117.117 326.19 117.117 326.19L134.109 335.575C134.109 335.575 137.248 337.763 139.207 339.224C140.55 340.226 142.606 341.831 142.606 341.831V342.874C142.606 342.874 145.024 342.946 146.571 342.874C150.385 342.697 153.856 341.478 156.2 338.703C160.165 334.011 159.032 335.575 161.298 330.361C163.135 326.134 164.13 317.848 164.13 317.848V308.463L161.298 297.514C161.298 297.514 159.735 294.838 158.466 292.3Z" fill="#36A6DD"/>
<path d="M236.632 235.47C233.781 233.204 228.702 229.735 228.702 229.735C228.702 229.735 228.322 233.404 228.136 234.428C227.949 235.451 227.855 236.03 227.569 237.034C227.284 238.039 226.666 241.102 225.87 242.77C225.074 244.437 224.684 244.888 223.038 245.898C221.197 247.027 219.586 246.941 217.374 246.941C215.604 246.941 213.46 246.658 211.709 246.419C209.634 246.136 209.103 246.146 207.178 245.376C204.081 244.138 200.947 241.727 200.947 241.727C200.947 241.727 194.593 237.242 191.318 234.949C186.809 231.791 184.267 230.273 180.556 227.128C178.715 225.568 177.158 224 177.158 224C177.158 224 174.827 225.999 173.759 227.65C172.846 229.06 172.13 229.816 172.06 231.821C171.961 234.648 173.993 236.014 175.458 238.599C176.88 241.106 177.574 242.806 178.857 245.376C179.938 247.542 180.135 248.536 181.123 251.112C182.249 254.049 182.967 256.164 183.955 259.454C184.683 261.881 185.22 263.224 185.654 265.71C186.637 271.343 185.088 280.309 185.088 280.309C185.088 280.309 188.01 283.653 190.185 285.523C194.266 289.03 197.101 290.497 202.08 292.822C206.513 294.892 209.136 296.469 213.975 297.514C216.808 298.126 218.456 298.119 221.339 298.036C225.155 297.926 227.943 297.666 231.534 296.471C234.606 295.45 236.313 294.659 238.898 292.822C242.077 290.562 243.406 288.712 245.593 285.665L245.695 285.523C247.223 283.394 248.027 280.64 248.527 278.223C250.793 267.274 248.527 250.069 248.527 250.069C248.527 250.069 248.112 247.134 247.394 245.376C246.604 243.442 243.429 240.684 243.429 240.684C243.429 240.684 242.398 240.01 241.163 239.12C239.312 237.785 238.412 236.885 236.632 235.47Z" fill="#36A6DD"/>
<path d="M274.016 302.207C272.538 309.237 271.75 337.66 271.75 337.66C271.75 337.66 278.491 335.332 283.079 332.968C287.667 330.604 293.16 327.722 297.806 323.062C302.452 318.401 305.616 313.819 308.001 309.506C310.387 305.193 311.948 302.841 313.099 298.036C314.25 293.231 314.018 289.51 313.666 285.001L313.66 284.931C313.311 280.459 313.065 277.31 311.966 273.531C310.862 269.732 309.974 267.284 308.001 264.146C306.029 261.008 304.652 259.319 301.771 256.847C298.89 254.375 294.278 251.676 292.142 251.112C290.005 250.547 289.192 250.594 287.044 250.069C284.895 249.544 278.547 245.376 278.547 245.376C278.547 245.376 280.663 256.134 280.813 263.103C280.963 270.072 279.974 277.44 278.547 284.48C277.121 291.52 275.494 295.176 274.016 302.207Z" fill="#36A6DD"/>
<path d="M348.784 509.715C343.342 497.199 340.325 490.066 332.924 478.432C325.523 466.799 316.41 457.012 306.869 446.107C297.327 435.202 289.693 426.648 281.38 418.995C269.485 408.046 261.555 403.354 259.855 402.311C258.043 401.199 253.058 399.183 253.058 399.183V388.234L259.289 377.285L263.82 365.815L268.352 351.216L271.75 337.66C271.75 337.66 272.538 309.237 274.016 302.207C275.494 295.176 277.121 291.52 278.547 284.48C279.974 277.44 280.963 270.072 280.813 263.103C280.663 256.134 278.547 245.376 278.547 245.376C278.547 245.376 276.301 240.86 273.45 239.641C272.23 239.12 267.619 240.327 263.82 240.684C260.022 241.041 252.886 241.341 250.226 241.205C247.567 241.07 243.429 240.684 243.429 240.684C243.429 240.684 246.604 243.442 247.394 245.376C248.112 247.134 248.527 250.069 248.527 250.069C248.527 250.069 250.793 267.274 248.527 278.223C248.027 280.64 247.223 283.394 245.695 285.523L245.593 285.665C243.406 288.712 242.077 290.562 238.898 292.822C236.313 294.659 234.606 295.45 231.534 296.471C227.943 297.666 225.155 297.926 221.339 298.036C218.456 298.119 216.808 298.126 213.975 297.514C209.136 296.469 206.513 294.892 202.08 292.822C197.101 290.497 194.266 289.03 190.185 285.523C188.01 283.653 185.088 280.309 185.088 280.309C185.088 280.309 182.387 290.426 179.423 296.471C177.02 301.375 175.741 303.911 172.626 308.463C170.926 310.948 168.095 314.72 168.095 314.72C168.095 314.72 168.478 317.131 169.228 319.412C170.533 323.387 171.159 326.045 172.06 330.361C173.365 336.61 173.943 340.762 174.808 346.965L174.892 347.567C175.713 353.454 176.365 356.132 177.158 362.686C177.82 368.165 178.592 372.301 178.291 377.806C178.111 381.085 178.112 383.165 177.158 386.148C176.287 388.869 174.892 390.841 173.759 391.362C172.626 391.884 168.503 391.989 164.696 390.841C158.978 389.116 156.2 387.191 151.669 383.02C150.561 382 147.704 378.929 147.704 378.929L144.305 391.884C144.305 391.884 147.693 394.601 149.969 396.576C153.165 399.348 155.464 400.998 159.032 403.354C161.776 405.165 165.263 407.004 165.263 408.046C165.263 409.695 161.3 414.73 159.032 418.995C155.742 425.184 152.235 435.158 152.235 435.158L138.074 471.654C138.074 471.654 134.894 478.299 132.977 482.603C129.657 490.056 128.054 494.33 125.047 501.894C119.422 516.044 116.915 524.4 112.019 538.912C105.729 557.556 103.371 566.398 98.9912 584.272C95.7172 597.633 91.6277 610.325 91.6277 618.683C91.6277 620.723 95.2479 622.54 98.7576 624.301L98.9912 624.418C111.453 630.675 119.754 632.526 133.543 636.41C147.241 640.268 153.944 641.659 168.095 643.709C184.084 646.026 194.28 645.801 210.01 645.795C223.52 645.789 231.168 645.125 244.562 643.188C263.218 640.489 291.575 632.239 291.575 632.239C291.575 632.239 312.635 626.387 325.561 621.29C338.109 616.341 345.174 613.405 356.714 606.691C362.887 603.1 372.007 596.785 372.007 596.785C372.007 596.785 359.437 534.22 348.784 509.715Z" fill="#F7E9C0"/>
<path d="M271.75 337.66L268.352 351.216L263.82 365.815L259.289 377.285L253.058 388.234V399.183C253.058 399.183 258.043 401.199 259.855 402.311C261.555 403.354 269.485 408.046 281.38 418.995C289.693 426.648 297.327 435.202 306.869 446.107C316.41 457.012 325.523 466.799 332.924 478.432C340.325 490.066 343.342 497.199 348.784 509.715C359.437 534.22 372.007 596.785 372.007 596.785M271.75 337.66C271.75 337.66 272.538 309.237 274.016 302.207C275.494 295.176 277.121 291.52 278.547 284.48C279.974 277.44 280.963 270.072 280.813 263.103C280.663 256.134 278.547 245.376 278.547 245.376M271.75 337.66C271.75 337.66 278.491 335.332 283.079 332.968C287.667 330.604 293.16 327.722 297.806 323.062C302.452 318.401 305.616 313.819 308.001 309.506C310.387 305.193 311.948 302.841 313.099 298.036C314.25 293.231 314.018 289.51 313.666 285.001M278.547 245.376C278.547 245.376 276.301 240.86 273.45 239.641C272.23 239.12 267.619 240.327 263.82 240.684C260.022 241.041 252.886 241.341 250.226 241.205C247.567 241.07 243.429 240.684 243.429 240.684M278.547 245.376C278.547 245.376 284.895 249.544 287.044 250.069C289.192 250.594 290.005 250.547 292.142 251.112C294.278 251.676 298.89 254.375 301.771 256.847C304.652 259.319 306.029 261.008 308.001 264.146C309.974 267.284 310.862 269.732 311.966 273.531C313.065 277.31 313.311 280.459 313.66 284.931M185.088 280.309C185.088 280.309 186.637 271.343 185.654 265.71C185.22 263.224 184.683 261.881 183.955 259.454C182.967 256.164 182.249 254.049 181.123 251.112C180.135 248.536 179.938 247.542 178.857 245.376C177.574 242.806 176.88 241.106 175.458 238.599C173.993 236.014 171.961 234.648 172.06 231.821C172.13 229.816 172.846 229.06 173.759 227.65C174.827 225.999 177.158 224 177.158 224C177.158 224 178.715 225.568 180.556 227.128C184.267 230.273 186.809 231.791 191.318 234.949C194.593 237.242 200.947 241.727 200.947 241.727C200.947 241.727 204.081 244.138 207.178 245.376C209.103 246.146 209.634 246.136 211.709 246.419C213.46 246.658 215.604 246.941 217.374 246.941C219.586 246.941 221.197 247.027 223.038 245.898C224.684 244.888 225.074 244.437 225.87 242.77C226.666 241.102 227.284 238.039 227.569 237.034C227.855 236.03 227.949 235.451 228.136 234.428C228.322 233.404 228.702 229.735 228.702 229.735C228.702 229.735 233.781 233.204 236.632 235.47C238.412 236.885 239.312 237.785 241.163 239.12C242.398 240.01 243.429 240.684 243.429 240.684M185.088 280.309C185.088 280.309 182.387 290.426 179.423 296.471C177.02 301.375 175.741 303.911 172.626 308.463C170.926 310.948 168.095 314.72 168.095 314.72M185.088 280.309C185.088 280.309 188.01 283.653 190.185 285.523C194.266 289.03 197.101 290.497 202.08 292.822C206.513 294.892 209.136 296.469 213.975 297.514C216.808 298.126 218.456 298.119 221.339 298.036C225.155 297.926 227.943 297.666 231.534 296.471C234.606 295.45 236.313 294.659 238.898 292.822C242.077 290.562 243.406 288.712 245.593 285.665M168.095 314.72L164.13 304.292L161.298 297.514M168.095 314.72C168.095 314.72 168.478 317.131 169.228 319.412C170.533 323.387 171.159 326.045 172.06 330.361C173.365 336.61 173.943 340.762 174.808 346.965M161.298 297.514C161.298 297.514 159.735 294.838 158.466 292.3C155.974 287.321 154.538 284.883 151.669 280.309C148.784 275.711 146.366 272.865 142.606 268.838C138.617 264.568 136.406 262.734 131.844 259.454C127.686 256.464 124.986 254.644 119.949 253.197C117.171 252.4 116.061 252.183 113.152 252.154C110.024 252.123 108.729 251.76 105.788 252.676C102.766 253.616 100.936 255.036 98.4248 256.847C93.0021 260.758 90.5843 263.891 87.0964 269.36C83.4484 275.079 81.9717 278.68 80.2993 285.001C78.3514 292.363 77.6597 296.502 78.6 304.292C79.1664 308.985 80.2993 311.07 82.565 314.198C87.1066 320.469 95.5927 330.361 95.5927 330.361C95.5927 330.361 99.5032 320.76 101.823 320.455C105.788 319.933 117.117 326.19 117.117 326.19L134.109 335.575C134.109 335.575 137.248 337.763 139.207 339.224C140.55 340.226 142.606 341.831 142.606 341.831M161.298 297.514L164.13 308.463V317.848C164.13 317.848 163.135 326.134 161.298 330.361C159.032 335.575 160.165 334.011 156.2 338.703C153.856 341.478 150.385 342.697 146.571 342.874C145.024 342.946 142.606 342.874 142.606 342.874V341.831M174.892 347.567C175.713 353.454 176.365 356.132 177.158 362.686C177.82 368.165 178.592 372.301 178.291 377.806C178.111 381.085 178.112 383.165 177.158 386.148C176.287 388.869 174.892 390.841 173.759 391.362C172.626 391.884 168.503 391.989 164.696 390.841C158.978 389.116 156.2 387.191 151.669 383.02C150.561 382 147.704 378.929 147.704 378.929M174.892 347.567L174.808 346.965M174.892 347.567C174.864 347.364 174.836 347.163 174.808 346.965M142.606 341.831L136.942 362.165L142.606 372.071L147.704 378.929M147.704 378.929L144.305 391.884M144.305 391.884C144.305 391.884 147.693 394.601 149.969 396.576C153.165 399.348 155.464 400.998 159.032 403.354C161.776 405.165 165.263 407.004 165.263 408.046C165.263 409.695 161.3 414.73 159.032 418.995C155.742 425.184 152.235 435.158 152.235 435.158L138.074 471.654C138.074 471.654 134.894 478.299 132.977 482.603C129.657 490.056 128.054 494.33 125.047 501.894C119.422 516.044 116.915 524.4 112.019 538.912C105.729 557.556 103.371 566.398 98.9912 584.272C95.7172 597.633 91.6277 610.325 91.6277 618.683C91.6277 620.723 95.2479 622.54 98.7576 624.301M144.305 391.884C144.305 391.884 138.417 393.966 134.676 395.533C131.118 397.024 124.48 399.183 124.48 399.183L85.3971 422.645C85.3971 422.645 72.6711 431.206 65.0058 437.243C57.396 443.237 46.3139 453.406 46.3139 453.406C46.3139 453.406 41.0542 458.422 37.8175 461.748C25.8043 474.094 19.8907 481.75 10.0628 495.638C6.37687 500.846 1 509.194 1 509.194V663H389C389 663 376.847 614.863 375.406 608.777C373.964 602.69 372.007 596.785 372.007 596.785M313.666 285.001L313.66 284.931M313.666 285.001C313.664 284.978 313.662 284.954 313.66 284.931M245.695 285.523C247.223 283.394 248.027 280.64 248.527 278.223C250.793 267.274 248.527 250.069 248.527 250.069C248.527 250.069 248.112 247.134 247.394 245.376C246.604 243.442 243.429 240.684 243.429 240.684M245.695 285.523L245.593 285.665M245.695 285.523C245.661 285.57 245.627 285.618 245.593 285.665M98.9912 624.418C111.453 630.675 119.754 632.526 133.543 636.41C147.241 640.268 153.944 641.659 168.095 643.709C184.084 646.026 194.28 645.801 210.01 645.795C223.52 645.789 231.168 645.125 244.562 643.188C263.218 640.489 291.575 632.239 291.575 632.239C291.575 632.239 312.635 626.387 325.561 621.29C338.109 616.341 345.174 613.405 356.714 606.691C362.887 603.1 372.007 596.785 372.007 596.785M98.9912 624.418L98.7576 624.301M98.9912 624.418C98.9134 624.379 98.8355 624.34 98.7576 624.301" stroke="#2286C0" stroke-linecap="round"/>
<path d="M58.9663 222.982C13.6571 281.017 29.6756 340.843 91.2065 347L92.3311 341.789L93.4621 336.578L95.1586 330.846L91.2065 326.157L84.9798 319.383L79.8904 313.129L77.6284 304.271V296.976L78.7594 287.075L83.2833 275.09L88.3727 265.711L97.986 256.331L107.599 251.12L117.778 252.014L119.475 252.163L128.522 256.331L137.57 263.105L146.618 272.485L153.404 281.864L156.797 288.117L161.886 298.018L168.107 314.172L173.196 307.398L177.72 298.018L183.375 283.428L185.071 275.09L185.637 267.795L182.809 258.937L179.982 251.12L177.155 243.304L173.762 238.093L171.5 233.925V231.84V229.756L176.024 224.024L177.155 219.334L178.286 207.87L177.155 199.012L176.024 191.196L174.5 181.295L170 180.5H164.5L159.5 174.5L155.5 168.5L153.404 165L155 162L155.5 160.452L162 162H169L173.762 158.367L180.548 153.678L189.03 141.693L192.988 135.44L195.25 127.102L198.078 118.765L202.602 112.512C223.271 103.357 243.658 86.129 252.623 62.4879C253.639 59.8073 254.502 57.0286 255.192 54.1506C256.138 46.3045 254.997 40.7598 252.455 36.9548C244.362 24.8397 222.062 30.362 207.691 35.3916L195.25 39.0392C184.506 41.1235 132.481 81.247 147.184 142.735H139.267C134.366 122.413 128.522 80.2048 162.452 48.4187C128.522 51.7536 110.615 82.2892 105.903 96.8795L94.5931 146.904L86.6826 179.211C78.1934 192.759 67.1548 212.494 58.9663 222.982Z" fill="#EBB544"/>
<path d="M252.455 36.9548C254.997 40.7598 256.138 46.3045 255.192 54.1506C254.502 57.0286 253.639 59.8073 252.623 62.4879L253.496 63.009L254.627 63.5301L256.323 64.0512L261.978 66.6566L266.502 70.8253L271.026 75.5151L274.984 80.2048L277.812 83.3313L279.508 86.4578L280.639 89.0632L282.336 93.753L286.86 105.738C312.646 47.7934 269.895 27.5753 252.455 36.9548Z" fill="#EBB544"/>
<path d="M272.157 214L269.5 217L264 221.419H257L243.317 220.5L231.5 217L229.18 221.419V229.756L243.317 240.699C251.234 241.046 268.085 241.324 272.157 239.657H273.853L275.55 240.699L278.943 244.867C281.205 246.778 287.538 250.912 294.776 252.163C295.907 246.778 291.61 230.675 272.157 214Z" fill="#EBB544"/>
<path d="M133.046 36.4337C139.973 44.4434 162.452 48.4187 162.452 48.4187C128.522 80.2048 134.366 122.413 139.267 142.735H147.184C132.481 81.247 184.506 41.1235 195.25 39.0392L202.602 26.5331C215.269 8.19097 205.995 1 200.34 1C186.499 1 175.835 26.1858 173.762 36.9548H172.065C167.089 26.1163 155.666 20.6275 150.577 19.238C114.838 7.98254 123.433 25.3173 133.046 36.4337Z" fill="black"/>
<path d="M162.452 48.4187C128.522 51.7536 110.615 82.2892 105.903 96.8795L94.5931 146.904L86.6826 179.211C78.1934 192.759 67.1548 212.494 58.9663 222.982C13.6571 281.017 29.6756 340.843 91.2065 347L92.3311 341.789L93.4621 336.578L95.1586 330.846L91.2065 326.157L84.9798 319.383L79.8904 313.129L77.6284 304.271V296.976L78.7594 287.075L83.2833 275.09L88.3727 265.711L97.986 256.331L107.599 251.12L117.778 252.014M162.452 48.4187C162.452 48.4187 139.973 44.4434 133.046 36.4337C123.433 25.3173 114.838 7.98254 150.577 19.238C155.666 20.6275 167.089 26.1163 172.065 36.9548H173.762C175.835 26.1858 186.499 1 200.34 1C205.995 1 215.269 8.19097 202.602 26.5331L195.25 39.0392M162.452 48.4187C128.522 80.2048 134.366 122.413 139.267 142.735H147.184C132.481 81.247 184.506 41.1235 195.25 39.0392M195.25 39.0392L207.691 35.3916C222.062 30.362 244.362 24.8397 252.455 36.9548M157.928 120.328C167.635 121.819 185.302 120.175 202.602 112.512M252.455 36.9548C254.997 40.7598 256.138 46.3045 255.192 54.1506C254.502 57.0286 253.639 59.8073 252.623 62.4879M252.455 36.9548C269.895 27.5753 312.646 47.7934 286.86 105.738L282.336 93.753L280.639 89.0632L279.508 86.4578L277.812 83.3313L274.984 80.2048L271.026 75.5151L266.502 70.8253L261.978 66.6566L256.323 64.0512L254.627 63.5301L253.496 63.009L252.623 62.4879M252.623 62.4879C243.658 86.129 223.271 103.357 202.602 112.512M202.602 112.512L198.078 118.765L195.25 127.102L192.988 135.44L189.03 141.693L180.548 153.678L173.762 158.367L169 162H162L155.5 160.452L155 162L153.404 165L155.5 168.5L159.5 174.5L164.5 180.5H170L174.5 181.295L176.024 191.196L177.155 199.012L178.286 207.87L177.155 219.334L176.024 224.024L171.5 229.756V231.84M117.778 252.014L119.475 252.163L128.522 256.331L137.57 263.105L146.618 272.485L153.404 281.864L156.797 288.117L161.886 298.018L168.107 314.172L173.196 307.398L177.72 298.018L183.375 283.428L185.071 275.09L185.637 267.795L182.809 258.937L179.982 251.12L177.155 243.304L173.762 238.093L171.5 233.925V231.84M117.778 252.014C107.788 246.679 91.7656 224.649 107.599 179.211M171.5 231.84C167.73 229.061 157.476 218.605 146.618 199.012M272.157 214L269.5 217L264 221.419H257L243.317 220.5L231.5 217L229.18 221.419V229.756L243.317 240.699C251.234 241.046 268.085 241.324 272.157 239.657H273.853L275.55 240.699L278.943 244.867C281.205 246.778 287.538 250.912 294.776 252.163C295.907 246.778 291.61 230.675 272.157 214Z" stroke="#CD9733"/>
<path d="M186.374 266.174C186.191 265.967 185.875 265.948 185.668 266.131C185.462 266.315 185.443 266.631 185.626 266.837L186 266.506L186.374 266.174ZM222 254L222.442 253.766L221.984 252.899L221.551 253.779L222 254ZM186 266.506L185.626 266.837C189.267 270.945 194.768 275.384 201.291 274.92C207.842 274.454 215.146 269.07 222.449 254.221L222 254L221.551 253.779C214.292 268.542 207.218 273.496 201.22 273.922C195.192 274.351 189.975 270.236 186.374 266.174L186 266.506ZM222 254L221.558 254.234C224.231 259.294 229.649 265.785 235.28 268.797C238.1 270.305 241.05 270.981 243.755 270.061C246.47 269.139 248.795 266.659 250.468 262.179L250 262.004L249.532 261.829C247.917 266.152 245.758 268.324 243.433 269.115C241.097 269.908 238.449 269.358 235.751 267.915C230.347 265.025 225.053 258.71 222.442 253.766L222 254Z" fill="#2286C0"/>
<path d="M137.82 414.796C141.549 419.904 142.881 422.896 146.89 427.822C148.827 430.201 150 431.473 151.992 433.813C153.984 436.153 155.097 437.468 157.094 439.805C163.031 446.752 166.049 450.889 172.399 457.52C178.089 463.461 181.232 466.889 187.705 472.109C191.733 475.357 190.539 474.714 194.507 477.84C195.412 478.553 197.341 479.924 198.475 480.445C199.609 480.966 204.711 480.966 208.112 480.966C214.31 480.966 217.813 480.429 223.984 480.966C227.101 481.237 228.865 481.902 231.92 482.529C236.978 483.567 239.573 484.422 244.391 486.176C249.094 487.888 252.087 488.287 256.295 490.865C263.098 495.034 267.073 498.898 272.168 505.454C274.057 507.885 276.363 512.644 270.467 512.227C266.82 511.349 264.8 509.3 261.964 507.017C260.429 505.781 259.64 505.003 257.996 503.891C256.314 502.753 253.461 501.286 253.461 501.286L256.579 504.933L259.697 508.58L260.055 508.968C262.255 511.352 263.183 512.357 264.798 514.832C266.492 517.426 268.026 519.926 268.767 522.648C269.333 524.732 268.346 530.015 264.232 526.295C262.391 524.631 260.655 522.999 259.13 521.085C257.555 519.108 257.112 518.587 255.162 516.917L252.894 514.832C254.178 516.563 254.916 518.221 255.729 520.564C256.295 523.516 255.986 528.541 250.06 525.253C248.452 524.361 247.481 523.289 246.092 522.127C244.813 521.057 243.942 520.618 242.691 519.522C242.237 519.125 240.924 518.304 240.423 517.959C238.839 516.867 243.599 520.98 244.391 522.648C244.868 523.652 245.308 524.176 245.525 525.253C245.727 526.253 245.897 526.9 245.525 527.858C245.257 528.549 245.021 528.971 244.391 529.421C243.168 530.296 241.795 530.083 240.423 529.421C239.01 528.739 237.732 527.175 236.455 526.295C234.188 524.732 233.288 524.128 230.22 522.648C227.764 521.463 226.494 520.607 223.984 519.522C220.561 518.041 218.533 517.408 214.914 516.396C211.216 515.36 209.034 515.153 205.278 514.311C202.617 513.715 201.076 513.535 198.475 512.748C195.742 511.921 194.077 511.597 191.673 510.143C189.057 508.562 188.218 506.968 186.004 504.933L179.769 499.202C178.219 497.777 176.902 496.34 175.234 495.034C172.429 492.837 170.417 492.147 167.297 490.344C163.344 488.06 160.956 487.026 157.094 484.613C151.747 481.272 149.08 478.976 144.056 475.235C142.053 473.743 140.946 472.887 138.954 471.383C128.549 463.527 122.056 459.808 112.311 451.268C105.057 444.91 101.058 441.224 94.7385 434.074C90.2437 428.988 87.3179 426.311 83.9681 420.527C82.1513 417.391 80 412.191 80 412.191V401.249L83.9681 382.493L90.7705 351.231C90.7705 351.231 92.4419 337.491 95.3054 330.911C96.4391 328.306 98.7066 324.659 98.7066 324.659L101.541 321.012L105.509 321.533L110.044 323.096L116.846 326.222L132.719 334.558L138.954 338.727L141.788 341.853C141.788 341.853 140.162 347.462 138.954 351.231C137.678 355.212 136.938 358.866 135.553 363.736C133.215 371.959 127.846 383.316 125.349 390.829C123.61 396.064 124.216 398.644 124.216 399.165C124.216 399.686 126.483 401.77 127.05 402.291C129.317 404.376 130.656 405.993 132.719 408.544C134.623 410.899 136.042 412.359 137.82 414.796Z" fill="#F9C58B"/>
<path d="M298.81 323.096L291.441 329.348L280.671 335.079L271.601 338.206L267.633 354.878L278.403 375.198C278.403 375.198 285.045 389.669 290.874 398.123C294.69 403.658 297.139 406.593 301.645 411.67C307.189 417.917 310.264 421.561 316.95 426.78C319.718 428.94 321.493 429.895 324.319 431.99C327.254 434.165 328.843 435.449 331.689 437.721C336.658 441.688 339.256 444.106 344.16 448.142C349.652 452.661 352.704 455.227 358.331 459.604C363.135 463.34 365.906 465.349 370.803 468.982C374.111 471.438 375.305 473.908 379.306 475.235C390.967 479.101 385.012 456.173 379.306 446.057C377.267 442.445 375.215 440.938 372.503 437.721C368.839 433.376 366.485 431.157 362.866 426.78C358.927 422.015 357.097 419.089 353.23 414.275C347.89 407.628 344.445 404.217 339.058 397.602C335.449 393.171 333.509 390.63 329.988 386.14C326.648 381.88 324.506 379.655 321.485 375.198C319.336 372.028 318.202 370.202 316.383 366.862C313.495 361.557 312.28 358.394 310.148 352.794C308.089 347.386 307.639 344.145 305.613 338.727C303.288 332.509 298.81 323.096 298.81 323.096Z" fill="#F9C58B"/>
<path d="M176.934 224.102C176.367 224.102 176.934 219.933 177.501 216.807C178.702 210.184 178.064 206.308 177.501 199.613C177.209 196.141 177.121 194.169 176.367 190.756C175.651 187.508 173.857 182.748 173.571 181.999C172.608 182.009 171.557 181.989 170.699 181.899C168.671 181.686 167.47 181.603 165.597 180.857C162.996 179.821 161.895 178.566 159.928 176.688C157.84 174.695 156.756 173.425 155.393 170.957C154.126 168.662 153.126 165.226 153.126 165.226C153.126 165.226 152.827 163.497 153.126 162.1C153.45 160.579 154.228 159.917 155.393 159.495C157.092 158.88 158.144 159.661 159.928 160.016C162.561 160.538 164.039 160.627 166.731 160.537C169.952 160.429 171.784 159.257 174.667 157.932C176.556 157.063 179.984 154.776 180.902 153.763C183.737 150.637 186.76 145.601 189.405 142.301C193.356 137.373 193.258 133.428 195.641 127.712C197.671 122.842 197.433 119.444 200.743 115.208C202.783 112.596 205.64 111.722 208.112 110.519C210.932 109.145 213.422 107.511 216.615 105.308C225.525 99.16 231.04 94.9523 238.156 87.0725C242.744 81.9919 244.888 79.3065 248.359 73.5259C250.848 69.3825 251.761 64.6685 253.461 63.1054C254.028 62.5844 257.464 64.1081 259.697 65.1895C262.743 66.665 264.163 68.0745 266.499 70.3998C269.057 72.9452 270.396 74.455 272.735 77.1731C275.289 80.1419 277.055 81.6378 278.97 84.9884C280.826 88.2357 280.848 90.4553 282.371 93.8458C283.392 96.1183 284.303 98.8257 285.206 101.14C286.057 103.324 285.921 104.584 286.339 106.871C287.037 110.684 286.906 111.863 286.906 115.729C286.906 119.595 287.412 121.269 286.906 125.107C286.525 127.999 285.156 129.489 285.206 132.401C285.252 135.116 285.397 136.466 285.206 139.175C285.056 141.295 285.423 142.27 285.206 144.385C285.102 145.398 285.097 145.978 285.206 146.99C285.625 150.885 288.775 152.196 290.307 155.848C291.467 158.612 292.012 160.225 292.575 163.142C293.192 166.337 293.174 168.197 293.142 171.427L293.142 171.478C293.11 174.74 292.672 175.983 292.008 178.773C291.076 182.688 289.742 184.461 288.04 188.151C285.441 193.787 284.639 197.008 281.804 201.698C280.276 204.226 278.378 206.023 276.703 208.471C275.385 210.397 275.237 211.785 273.868 213.681C272.222 215.962 271.008 217.089 268.767 218.891C266.733 220.527 264.798 221.496 263.098 222.017C260.409 222.841 258.259 222.646 255.162 222.538C250.495 222.376 247.865 222.195 243.258 221.496C238.542 220.781 231.353 218.891 231.353 218.891C231.353 218.891 230.211 219.409 229.653 219.933C228.225 221.274 228.711 222.755 228.519 224.623C228.373 226.041 228.519 226.845 228.519 228.27C228.519 230.711 227.952 233.48 227.952 233.48L227.385 237.127C227.385 237.127 226.818 241.295 225.118 243.9C222.612 247.739 217.182 247.027 212.08 246.506C205.363 245.82 202.889 243.28 197.341 239.732C180.335 227.749 177.501 224.102 176.934 224.102Z" fill="#F9C58B"/>
<path d="M259.697 508.58L256.579 504.933L253.461 501.286C253.461 501.286 256.314 502.753 257.996 503.891C259.64 505.003 260.429 505.781 261.964 507.017C264.8 509.3 266.82 511.349 270.467 512.227C276.363 512.644 274.057 507.885 272.168 505.454C267.073 498.898 263.098 495.034 256.295 490.865C252.087 488.287 249.094 487.888 244.391 486.176C239.573 484.422 236.978 483.567 231.92 482.529C228.865 481.902 227.101 481.237 223.984 480.966C217.813 480.429 214.31 480.966 208.112 480.966C204.711 480.966 199.609 480.966 198.475 480.445C197.341 479.924 195.412 478.553 194.507 477.84C190.539 474.714 191.733 475.357 187.705 472.109C181.232 466.889 178.089 463.461 172.399 457.52C166.049 450.889 163.031 446.752 157.094 439.805C155.097 437.468 153.984 436.153 151.992 433.813C150 431.473 148.827 430.201 146.89 427.822C142.881 422.896 141.549 419.904 137.82 414.796C136.042 412.359 134.623 410.899 132.719 408.544C130.656 405.993 129.317 404.376 127.05 402.291C126.483 401.77 124.216 399.686 124.216 399.165C124.216 398.644 123.61 396.064 125.349 390.829C127.846 383.316 133.215 371.959 135.553 363.736C136.938 358.866 137.678 355.212 138.954 351.231C140.162 347.462 141.788 341.853 141.788 341.853L138.954 338.727L132.719 334.558L116.846 326.222L110.044 323.096L105.509 321.533L101.541 321.012L98.7066 324.659C98.7066 324.659 96.4391 328.306 95.3054 330.911C92.4419 337.491 90.7705 351.231 90.7705 351.231L83.9681 382.493L80 401.249V412.191C80 412.191 82.1513 417.391 83.9681 420.527C87.3179 426.311 90.2437 428.988 94.7385 434.074C101.058 441.224 105.057 444.91 112.311 451.268C122.056 459.808 128.549 463.527 138.954 471.383C140.946 472.887 142.053 473.743 144.056 475.235C149.08 478.976 151.747 481.272 157.094 484.613C160.956 487.026 163.344 488.06 167.297 490.344C170.417 492.147 172.429 492.837 175.234 495.034C176.902 496.34 178.219 497.777 179.769 499.202M259.697 508.58L260.055 508.968M259.697 508.58C259.82 508.714 259.939 508.843 260.055 508.968M186.004 504.933C188.218 506.968 189.057 508.562 191.673 510.143C194.077 511.597 195.742 511.921 198.475 512.748C201.076 513.535 202.617 513.715 205.278 514.311C209.034 515.153 211.216 515.36 214.914 516.396C218.533 517.408 220.561 518.041 223.984 519.522C226.494 520.607 227.764 521.463 230.22 522.648C233.288 524.128 234.188 524.732 236.455 526.295C237.732 527.175 239.01 528.739 240.423 529.421C241.795 530.083 243.168 530.296 244.391 529.421C245.021 528.971 245.257 528.549 245.525 527.858C245.897 526.9 245.727 526.253 245.525 525.253C245.308 524.176 244.868 523.652 244.391 522.648C243.599 520.98 238.839 516.867 240.423 517.959C240.924 518.304 242.237 519.125 242.691 519.522C243.942 520.618 244.813 521.057 246.092 522.127C247.481 523.289 248.452 524.361 250.06 525.253C255.986 528.541 256.295 523.516 255.729 520.564C254.916 518.221 254.178 516.563 252.894 514.832L255.162 516.917C257.112 518.587 257.555 519.108 259.13 521.085C260.655 522.999 262.391 524.631 264.232 526.295C268.346 530.015 269.333 524.732 268.767 522.648C268.026 519.926 266.492 517.426 264.798 514.832C263.183 512.357 262.255 511.352 260.055 508.968M186.004 504.933C183.348 502.491 182.425 501.643 179.769 499.202M186.004 504.933L179.769 499.202M173.533 181.899C173.533 181.899 173.546 181.933 173.571 181.999M176.367 181.899C176.367 181.899 175.077 181.985 173.571 181.999M293.142 171.478C293.11 174.74 292.672 175.983 292.008 178.773C291.076 182.688 289.742 184.461 288.04 188.151C285.441 193.787 284.639 197.008 281.804 201.698C280.276 204.226 278.378 206.023 276.703 208.471C275.385 210.397 275.237 211.785 273.868 213.681C272.222 215.962 271.008 217.089 268.767 218.891C266.733 220.527 264.798 221.496 263.098 222.017C260.409 222.841 258.259 222.646 255.162 222.538C250.495 222.376 247.865 222.195 243.258 221.496C238.542 220.781 231.353 218.891 231.353 218.891M293.142 171.478L293.142 171.427M293.142 171.478C293.142 171.461 293.142 171.444 293.142 171.427M231.353 218.891C231.353 218.891 223.93 216.013 219.449 213.681C212.821 210.231 203.577 203.261 203.577 203.261M231.353 218.891C231.353 218.891 230.211 219.409 229.653 219.933C228.225 221.274 228.711 222.755 228.519 224.623C228.373 226.041 228.519 226.845 228.519 228.27C228.519 230.711 227.952 233.48 227.952 233.48L227.385 237.127C227.385 237.127 226.818 241.295 225.118 243.9C222.612 247.739 217.182 247.027 212.08 246.506C205.363 245.82 202.889 243.28 197.341 239.732C180.335 227.749 177.501 224.102 176.934 224.102C176.367 224.102 176.934 219.933 177.501 216.807C178.702 210.184 178.064 206.308 177.501 199.613C177.209 196.141 177.121 194.169 176.367 190.756C175.651 187.508 173.857 182.748 173.571 181.999M173.571 181.999C172.608 182.009 171.557 181.989 170.699 181.899C168.671 181.686 167.47 181.603 165.597 180.857C162.996 179.821 161.895 178.566 159.928 176.688C157.84 174.695 156.756 173.425 155.393 170.957C154.126 168.662 153.126 165.226 153.126 165.226C153.126 165.226 152.827 163.497 153.126 162.1C153.45 160.579 154.228 159.917 155.393 159.495C157.092 158.88 158.144 159.661 159.928 160.016C162.561 160.538 164.039 160.627 166.731 160.537C169.952 160.429 171.784 159.257 174.667 157.932C176.556 157.063 179.984 154.776 180.902 153.763C183.737 150.637 186.76 145.601 189.405 142.301C193.356 137.373 193.258 133.428 195.641 127.712C197.671 122.842 197.433 119.444 200.743 115.208C202.783 112.596 205.64 111.722 208.112 110.519C210.932 109.145 213.422 107.511 216.615 105.308C225.525 99.16 231.04 94.9523 238.156 87.0725C242.744 81.9919 244.888 79.3065 248.359 73.5259C250.848 69.3825 251.761 64.6685 253.461 63.1054C254.028 62.5844 257.464 64.1081 259.697 65.1895C262.743 66.665 264.163 68.0745 266.499 70.3998C269.057 72.9452 270.396 74.455 272.735 77.1731C275.289 80.1419 277.055 81.6378 278.97 84.9884C280.826 88.2357 280.848 90.4553 282.371 93.8458C283.392 96.1183 284.303 98.8257 285.206 101.14C286.057 103.324 285.921 104.584 286.339 106.871C287.037 110.684 286.906 111.863 286.906 115.729C286.906 119.595 287.412 121.269 286.906 125.107C286.525 127.999 285.156 129.489 285.206 132.401C285.252 135.116 285.397 136.466 285.206 139.175C285.056 141.295 285.423 142.27 285.206 144.385C285.102 145.398 285.097 145.978 285.206 146.99C285.625 150.885 288.775 152.196 290.307 155.848C291.467 158.612 292.012 160.225 292.575 163.142C293.192 166.337 293.174 168.197 293.142 171.427M298.81 323.096L291.441 329.348L280.671 335.079L271.601 338.206L267.633 354.878L278.403 375.198C278.403 375.198 285.045 389.669 290.874 398.123C294.69 403.658 297.139 406.593 301.645 411.67C307.189 417.917 310.264 421.561 316.95 426.78C319.718 428.94 321.493 429.895 324.319 431.99C327.254 434.165 328.843 435.449 331.689 437.721C336.658 441.688 339.256 444.106 344.16 448.142C349.652 452.661 352.704 455.227 358.331 459.604C363.135 463.34 365.906 465.349 370.803 468.982C374.111 471.438 375.305 473.908 379.306 475.235C390.967 479.101 385.012 456.173 379.306 446.057C377.267 442.445 375.215 440.938 372.503 437.721C368.839 433.376 366.485 431.157 362.866 426.78C358.927 422.015 357.097 419.089 353.23 414.275C347.89 407.628 344.445 404.217 339.058 397.602C335.449 393.171 333.509 390.63 329.988 386.14C326.648 381.88 324.506 379.655 321.485 375.198C319.336 372.028 318.202 370.202 316.383 366.862C313.495 361.557 312.28 358.394 310.148 352.794C308.089 347.386 307.639 344.145 305.613 338.727C303.288 332.509 298.81 323.096 298.81 323.096Z" stroke="#D9A161" stroke-linecap="round"/>
<path d="M270.769 185.01C269.362 185.145 268.954 187.419 267.567 187.676C266.4 187.892 265.364 187.17 264.175 187.143C263.265 187.121 263.273 187.256 262.479 187.676C261.663 188.108 261.446 188.651 260.784 189.275C260.121 189.9 259.335 190.426 258.528 190.875C257.371 191.517 254 191.941 254 191.941C254 191.941 257.996 193.648 260.224 194.073C262.398 194.489 263.722 194.037 265.877 193.54C267.709 193.118 268.604 192.487 270.399 191.941C271.71 191.542 273.785 191.408 273.785 191.408C273.785 191.408 275.378 189.281 274.916 187.973C274.572 186.999 273.785 186.374 273.22 185.841C272.62 185.481 271.727 184.918 270.769 185.01Z" fill="#CF7143"/>
<path d="M257.392 197.037C258.708 198.869 260.091 199.909 261.914 200.769C263.045 201.302 263.411 201.449 264.881 201.746C266.836 202.142 269.823 202.132 270.959 201.302C271.703 200.757 272.266 200.322 272.66 199.405C273.22 198.103 273.785 193.718 273.785 191.408C273.785 191.408 271.71 191.542 270.399 191.941C268.604 192.487 267.709 193.118 265.877 193.54C263.722 194.037 262.398 194.489 260.224 194.073C257.996 193.648 254 191.941 254 191.941C254 191.941 255.69 194.668 257.392 197.037Z" fill="#CF7143"/>
<path d="M273.785 191.408C273.785 193.718 273.22 198.103 272.66 199.405C272.266 200.322 271.703 200.757 270.959 201.302C269.823 202.132 266.836 202.142 264.881 201.746C263.411 201.449 263.045 201.302 261.914 200.769C260.091 199.909 258.708 198.869 257.392 197.037C255.69 194.668 254 191.941 254 191.941M273.785 191.408C273.785 191.408 271.71 191.542 270.399 191.941C268.604 192.487 267.709 193.118 265.877 193.54C263.722 194.037 262.398 194.489 260.224 194.073C257.996 193.648 254 191.941 254 191.941M273.785 191.408C273.785 191.408 275.378 189.281 274.916 187.973C274.572 186.999 273.785 186.374 273.22 185.841C272.62 185.481 271.727 184.918 270.769 185.01C269.362 185.145 268.954 187.419 267.567 187.676C266.4 187.892 265.364 187.17 264.175 187.143C263.265 187.121 263.273 187.256 262.479 187.676C261.663 188.108 261.446 188.651 260.784 189.275C260.121 189.9 259.335 190.426 258.528 190.875C257.371 191.517 254 191.941 254 191.941" stroke="#B25726" stroke-linecap="round"/>
<path d="M273 151C274.749 152.342 276.582 153.962 278.441 155.222C283.39 158.577 287.193 161.943 280.073 170" stroke="#BE7835" stroke-linecap="round"/>
<path d="M272 171H275V172" stroke="#BE7835" stroke-linecap="round"/>
<path d="M246 108.116C239.661 107.41 224.186 109.598 213 124" stroke="#A2611E" stroke-width="2" stroke-linecap="round"/>
<path d="M273.606 134.766C275.979 132.592 276.336 130.736 279.447 129.526C280.109 129.268 280.479 128.974 281.2 129.002C282.34 129.046 283.027 129.659 283.537 130.574C284.121 131.622 284.861 133.712 285.289 135.813C285.987 139.235 286.458 141.577 285.289 144.721C284.779 146.094 282.955 147.209 282.368 147.341C280.034 147.865 277.762 148.516 275.359 147.341C273.943 146.648 273.159 146.015 272.438 144.721C271.854 143.673 271.854 139.481 272.438 136.861C272.627 136.01 272.929 135.386 273.606 134.766Z" fill="#F9E9CD"/>
<path d="M223.338 152.243C223.338 152.243 220.572 150.294 221.057 148.604C221.376 147.494 222.095 146.815 222.767 146.006C225.162 143.126 226.18 141.519 229.039 139.248C231.46 137.326 233.598 135.61 235.879 135.09C235.879 135.09 237.853 134.887 239.3 135.09C240.747 135.293 241.579 135.61 241.579 135.61C241.579 135.61 243.498 136.375 243.859 137.689C244.429 139.768 245 142.095 245 144.966V150.164C245 151.203 244.461 153.759 243.29 155.362C242.417 156.556 240.44 157.96 240.44 157.96C240.44 157.96 238.157 159 236.448 159C235.094 159 233.157 158.913 231.889 158.48C230.386 157.967 229.756 157.275 228.469 156.401C226.318 154.942 223.338 152.243 223.338 152.243Z" fill="#D9D9D9"/>
<path d="M223.338 152.243C223.338 152.243 220.572 150.294 221.057 148.604C221.376 147.494 222.095 146.815 222.767 146.006C225.162 143.126 226.18 141.519 229.039 139.248C231.46 137.326 233.598 135.61 235.879 135.09C235.879 135.09 237.853 134.887 239.3 135.09C240.747 135.293 241.579 135.61 241.579 135.61C241.579 135.61 243.498 136.375 243.859 137.689C244.429 139.768 245 142.095 245 144.966V150.164C245 151.203 244.461 153.759 243.29 155.362C242.417 156.556 240.44 157.96 240.44 157.96C240.44 157.96 238.157 159 236.448 159C235.094 159 233.157 158.913 231.889 158.48C230.386 157.967 229.756 157.275 228.469 156.401C226.318 154.942 223.338 152.243 223.338 152.243Z" fill="#F9E9CD"/>
<path d="M238 140.5C239.177 140.5 240.291 141.167 241.129 142.341C241.966 143.513 242.5 145.159 242.5 147C242.5 148.841 241.966 150.487 241.129 151.659C240.291 152.833 239.177 153.5 238 153.5C236.823 153.5 235.709 152.833 234.871 151.659C234.034 150.487 233.5 148.841 233.5 147C233.5 145.159 234.034 143.513 234.871 142.341C235.709 141.167 236.823 140.5 238 140.5Z" fill="#25759F" stroke="#23237A"/>
<path d="M281 133.5C281.885 133.5 282.748 134.039 283.412 135.035C284.074 136.028 284.5 137.428 284.5 139C284.5 140.572 284.074 141.972 283.412 142.965C282.748 143.961 281.885 144.5 281 144.5C280.115 144.5 279.252 143.961 278.588 142.965C277.926 141.972 277.5 140.572 277.5 139C277.5 137.428 277.926 136.028 278.588 135.035C279.252 134.039 280.115 133.5 281 133.5Z" fill="#25759F" stroke="#23237A"/>
<path d="M221 148C224.81 141.829 234.486 130.72 242.714 135.657L245 130" stroke="black" stroke-width="2" stroke-linecap="round"/>
<path d="M271.286 137.359C273.444 133.796 278.58 126.657 283.878 129.136L285.105 125.909" stroke="black" stroke-width="2" stroke-linecap="round"/>
<path d="M275.236 103.354C274.88 103.776 274.933 104.407 275.354 104.764C275.776 105.12 276.407 105.067 276.764 104.646L276 104L275.236 103.354ZM276 104L276.764 104.646C277.489 103.787 278.937 102.672 280.564 102.212C282.126 101.77 283.798 101.933 285.271 103.502L286 102.817L286.729 102.132C284.646 99.9152 282.151 99.6843 280.019 100.287C277.952 100.872 276.177 102.241 275.236 103.354L276 104Z" fill="#A2611E"/>
<path d="M296.865 310.503C297.142 310.025 296.98 309.413 296.503 309.135C296.025 308.858 295.413 309.02 295.135 309.497L296 310L296.865 310.503ZM272 330L272.462 330.887C275.465 329.324 280.262 326.448 284.946 322.872C289.612 319.309 294.26 314.983 296.865 310.503L296 310L295.135 309.497C292.731 313.633 288.336 317.767 283.732 321.282C279.147 324.783 274.448 327.599 271.538 329.113L272 330Z" fill="#2286C0"/>
<path d="M181 413.5C164.974 409.665 151.451 399.216 145 392.284L148 382C151.227 385.002 153.055 386.66 156.5 389C195 410.142 242.054 401.915 253.284 389.336V398.672C251.867 400.299 250.28 401.77 248.546 403.095M181 413.5C183.91 415.466 187.975 419.703 179.403 437M181 413.5C198.355 417.653 218.58 414.743 234.109 410.142M234.109 410.142C238.245 413.198 247.193 422.848 249.9 437M234.109 410.142C239.547 408.531 244.456 406.22 248.546 403.095M248.546 403.095C253.322 406.862 260.616 414.888 264 423.241" stroke="#D8C594"/>
<path d="M243 521C240.733 518.983 231.893 511.76 226 510" stroke="#D9A161" stroke-linecap="round"/>
<path d="M253.797 516.491C253.554 516.201 253.357 515.961 253.304 515.872L253.797 516.491C254.276 517.063 254.932 517.828 255 518L253.797 516.491Z" fill="#D9D9D9"/>
<path d="M253.797 516.491C253.554 516.201 253.357 515.961 253.304 515.872L253.797 516.491C254.276 517.063 254.932 517.828 255 518L253.797 516.491Z" fill="black" fill-opacity="0.2"/>
<path d="M229 501.511C230.696 502.574 232.243 503.253 234.652 504.17C241.611 506.818 250.759 511.601 253.304 515.872M253.304 515.872C253.461 516.134 254.897 517.74 255 518L253.304 515.872ZM233.522 493C235.086 494.178 240.506 495.757 245.391 497.787C249.332 499.425 252.729 501.444 255 503.106" stroke="#D9A161" stroke-linecap="round"/>
<ellipse cx="235" cy="146.5" rx="3" ry="2.5" fill="white"/>
<ellipse cx="279.13" cy="139.681" rx="2.73955" ry="2.15533" transform="rotate(-12.0854 279.13 139.681)" fill="white"/>
</svg>
