<svg width="1245" height="689" viewBox="0 0 1245 689" fill="none" xmlns="http://www.w3.org/2000/svg">
<path d="M101 226V108C111.8 91.6 141.167 83.1667 154.5 81V226H101Z" fill="#DAEAEE"/>
<path d="M170 226V108V81C196.602 90.0798 207.755 96.8474 221 112V226H170Z" fill="#DAEAEE"/>
<path d="M101 226V108C111.8 91.6 141.167 83.1667 154.5 81V226H101Z" stroke="#9B9FA1" stroke-width="0.5"/>
<path d="M170 226V108V81C196.602 90.0798 207.755 96.8474 221 112V226H170Z" stroke="#9B9FA1" stroke-width="0.5"/>
<path d="M120.987 611L20.5 691.5H241L302.996 611H120.987Z" fill="#B9CDD6"/>
<path d="M28.865 562L-3 581V611H120.987L182.153 562H28.865Z" fill="#B9CDD6"/>
<path d="M-3 523.5V562H28.865L93.4339 523.5H-3Z" fill="#B9CDD6"/>
<path d="M489.659 611L467.5 691.5H692L675.975 611H489.659Z" fill="#B9CDD6"/>
<path d="M866.223 611L921.5 691.5H1132L1040.97 611H866.223Z" fill="#B9CDD6"/>
<path d="M1218.82 611L1249 630V611H1218.82Z" fill="#B9CDD6"/>
<path d="M1141 562H985.555L1040.97 611H1218.82L1141 562Z" fill="#B9CDD6"/>
<path d="M666.221 562L675.975 611H866.223L832.575 562H666.221Z" fill="#B9CDD6"/>
<path d="M340.732 562L302.996 611H489.659L503.148 562H340.732Z" fill="#B9CDD6"/>
<path d="M230.213 523.5L182.153 562H340.732L370.382 523.5H300.297H230.213Z" fill="#B9CDD6"/>
<path d="M666.221 562L658.557 523.5H513.746L503.148 562H666.221Z" fill="#B9CDD6"/>
<path d="M985.555 562L942.017 523.5H806.138L832.575 562H985.555Z" fill="#B9CDD6"/>
<path d="M1249 538.5L1218.52 523.5H1079.86L1141 562H1249V538.5Z" fill="#B9CDD6"/>
<path d="M1029.03 491.5H967.432H905.83L942.017 523.5H1079.86L1029.03 491.5Z" fill="#B9CDD6"/>
<path d="M652.187 491.5L658.557 523.5H806.138L784.165 491.5H652.187Z" fill="#B9CDD6"/>
<path d="M395.026 491.5L370.382 523.5H513.746L522.554 491.5H395.026Z" fill="#B9CDD6"/>
<path d="M147.102 491.5L93.4339 523.5H230.213L270.158 491.5H147.102Z" fill="#B9CDD6"/>
<path d="M80.5743 464.5L23.4476 491.5H147.102L192.384 464.5H80.5743Z" fill="#B9CDD6"/>
<path d="M-3 491.5V504L23.4476 491.5H-3Z" fill="#B9CDD6"/>
<path d="M26.8886 442.5L-3 454V464.5H80.5743L127.122 442.5H26.8886Z" fill="#B9CDD6"/>
<path d="M-3 423.5V442.5H26.8886L76.2696 423.5H-3Z" fill="#B9CDD6"/>
<path d="M201.704 407.25H118.503L76.2696 423.5H167.322L201.704 407.25Z" fill="#B9CDD6"/>
<path d="M229.28 442.5L261.145 423.5H167.322L127.122 442.5H229.28Z" fill="#B9CDD6"/>
<path d="M303.862 464.5L331.324 442.5H229.28L192.384 464.5H303.862Z" fill="#B9CDD6"/>
<path d="M375.326 407.25H288.398L261.145 423.5H355.041L375.326 407.25Z" fill="#B9CDD6"/>
<path d="M432.763 442.5L447.395 423.5H355.041L331.324 442.5H432.763Z" fill="#B9CDD6"/>
<path d="M270.158 491.5H395.026L415.82 464.5H303.862L270.158 491.5Z" fill="#B9CDD6"/>
<path d="M529.987 464.5L536.043 442.5H432.763L415.82 464.5H529.987Z" fill="#B9CDD6"/>
<path d="M545.746 407.25H459.91L447.395 423.5H541.273L545.746 407.25Z" fill="#B9CDD6"/>
<path d="M642.432 442.5L638.65 423.5H589.962H541.273L536.043 442.5H642.432Z" fill="#B9CDD6"/>
<path d="M522.554 491.5H652.187L646.812 464.5H529.987L522.554 491.5Z" fill="#B9CDD6"/>
<path d="M737.471 423.5L726.312 407.25H635.415L638.65 423.5H737.471Z" fill="#B9CDD6"/>
<path d="M750.518 442.5H642.432L646.812 464.5H765.624L750.518 442.5Z" fill="#B9CDD6"/>
<path d="M850.419 442.5L828.932 423.5H737.471L750.518 442.5H850.419Z" fill="#B9CDD6"/>
<path d="M784.165 491.5H905.83L875.297 464.5H765.624L784.165 491.5Z" fill="#B9CDD6"/>
<path d="M986.151 464.5L951.21 442.5H900.814H850.419L875.297 464.5H986.151Z" fill="#B9CDD6"/>
<path d="M895.226 407.25H810.556L828.932 423.5C864.9 423.5 885.066 423.5 921.034 423.5L895.226 407.25Z" fill="#B9CDD6"/>
<path d="M1053.9 442.5L1015.28 423.5H921.034L951.21 442.5H1053.9Z" fill="#B9CDD6"/>
<path d="M1029.03 491.5H1153.48L1098.61 464.5H986.151L1029.03 491.5Z" fill="#F2EDE2"/>
<path d="M1205.18 464.5L1151.61 442.5H1053.9L1098.61 464.5H1205.18Z" fill="#B9CDD6"/>
<path d="M1065.79 407.25H982.26L1015.28 423.5H1105.35L1065.79 407.25Z" fill="#B9CDD6"/>
<path d="M1249 439.25L1203.06 423.5H1105.35L1151.61 442.5H1249V439.25Z" fill="#B9CDD6"/>
<path d="M1249 423.5V409.5L1242.76 407.25H1155.66L1203.06 423.5H1249Z" fill="#B9CDD6"/>
<path d="M1249 482.5V464.5H1205.18L1249 482.5Z" fill="#B9CDD6"/>
<path d="M1249 523.5V491.5H1153.48L1218.52 523.5H1249Z" fill="#B9CDD6"/>
<path d="M1249 396L1200.5 392L1203 392.902L1242.76 407.25H1249V396Z" fill="#B9CDD6"/>
<path d="M1113.37 392.755L1030.17 392.618L1065.79 407.25H1155.66L1113.37 392.755Z" fill="#B9CDD6"/>
<path d="M1152 388V392L1097.5 387.313L1113.37 392.755L1203 392.902L1200.5 392L1152 388Z" fill="#B9CDD6"/>
<path d="M871.573 392.357L895.226 407.25H982.26L952.262 392.49L871.573 392.357Z" fill="#B9CDD6"/>
<path d="M873 369V374.5L839.5 372.163L850.476 379.073H924.996L904.524 369H873Z" fill="#B9CDD6"/>
<path d="M1030.17 392.618L997.19 379.073H924.996L952.262 392.49L1030.17 392.618Z" fill="#B9CDD6"/>
<path d="M778.693 379.073L793.569 392.229L871.573 392.357L850.476 379.073H778.693Z" fill="#B9CDD6"/>
<path d="M715.91 392.101L726.312 407.25H810.556L793.569 392.229L715.91 392.101Z" fill="#B9CDD6"/>
<path d="M767.301 369H700.047L706.964 379.073H778.693L767.301 369Z" fill="#B9CDD6"/>
<path d="M629.806 379.073L632.372 391.964L715.91 392.101L706.964 379.073H629.806Z" fill="#B9CDD6"/>
<path d="M549.991 391.828L545.746 407.25H635.415L632.372 391.964L591.182 391.896L549.991 391.828Z" fill="#B9CDD6"/>
<path d="M628 370H556L553.502 379.073H629.806L628 370Z" fill="#B9CDD6"/>
<path d="M423.073 369L410.499 379.073H481.61L489.368 369H423.073Z" fill="#B9CDD6"/>
<path d="M471.886 391.7L549.991 391.828L553.502 379.073H481.61L471.886 391.7Z" fill="#B9CDD6"/>
<path d="M375.326 407.25H417.618H459.91L471.886 391.7L394.895 391.573L375.326 407.25Z" fill="#B9CDD6"/>
<path d="M335.654 379.073L314.911 391.442L394.895 391.573L410.499 379.073H335.654Z" fill="#B9CDD6"/>
<path d="M516.5 369V359H497.069L489.368 369H516.5Z" fill="#B9CDD6"/>
<path d="M504 350H462V359H497.069L504 350Z" fill="#B9CDD6"/>
<path d="M337 374.5V369H309.567H282.634L261.32 379.073H335.654L344.5 373.799L337 374.5Z" fill="#B9CDD6"/>
<path d="M303 359.374L265 361.5V369H282.634L303 359.374Z" fill="#B9CDD6"/>
<path d="M210.5 379.073L186.5 381.087L160.25 391.187L235.428 391.311L261.32 379.073H210.5Z" fill="#B9CDD6"/>
<path d="M201.704 407.25H288.398L314.911 391.442L235.428 391.311L201.704 407.25Z" fill="#B9CDD6"/>
<path d="M79.8744 391.055L30.9712 407.25H118.503L160.25 391.187L79.8744 391.055Z" fill="#B9CDD6"/>
<path d="M50.5 391.007V388.5L26.5 390.967L50.5 391.007Z" fill="#B9CDD6"/>
<path d="M-3 407.25V418.5L30.9712 407.25H-3Z" fill="#B7CCD4"/>
<path d="M-3 691.5H20.5L120.987 611H-3V691.5Z" fill="#EFECE0"/>
<path d="M120.987 611H302.996L340.732 562H182.153L120.987 611Z" fill="#F0EDE1"/>
<path d="M241 691.5H467.5L489.659 611H302.996L241 691.5Z" fill="#F2EDE2"/>
<path d="M340.732 562H503.148L513.746 523.5H370.382L340.732 562Z" fill="#F1EEE2"/>
<path d="M489.659 611H675.975L666.221 562H503.148L489.659 611Z" fill="#F2EDE2"/>
<path d="M692 691.5H921.5L866.223 611H675.975L692 691.5Z" fill="#F2EDE2"/>
<path d="M666.221 562H832.575L806.138 523.5H658.557L666.221 562Z" fill="#F2EDE2"/>
<path d="M513.746 523.5H658.557L652.187 491.5H522.554L513.746 523.5Z" fill="#F2EDE2"/>
<path d="M652.187 491.5H784.165L765.624 464.5H646.812L652.187 491.5Z" fill="#F2EDE2"/>
<path d="M866.223 611H1040.97L985.555 562H832.575L866.223 611Z" fill="#F2EDE2"/>
<path d="M806.138 523.5H942.017L905.83 491.5H784.165L806.138 523.5Z" fill="#F2EDE2"/>
<path d="M985.555 562H1141L1079.86 523.5H942.017L985.555 562Z" fill="#F2EDE2"/>
<path d="M1132 691.5H1249V630L1218.82 611H1040.97L1132 691.5Z" fill="#F2EDE2"/>
<path d="M1249 611V562H1141L1218.82 611H1249Z" fill="#F2EDE2"/>
<path d="M-3 562V581L28.865 562H-3Z" fill="#B9CDD6"/>
<path d="M-3 504V523.5H93.4339L147.102 491.5H23.4476L-3 504Z" fill="#F2EDE2"/>
<path d="M28.865 562H182.153L230.213 523.5H93.4339L28.865 562Z" fill="#F2EDE2"/>
<path d="M147.102 491.5H270.158L303.862 464.5H192.384L147.102 491.5Z" fill="#F2EDE2"/>
<path d="M230.213 523.5H300.297H370.382L395.026 491.5H270.158L230.213 523.5Z" fill="#F2EDE2"/>
<path d="M80.5743 464.5H192.384L229.28 442.5H127.122L80.5743 464.5Z" fill="#F2EDE2"/>
<path d="M26.8886 442.5H127.122L167.322 423.5H76.2696L26.8886 442.5Z" fill="#F2EDE2"/>
<path d="M-3 464.5V491.5H23.4476L80.5743 464.5H-3Z" fill="#F2EDE2"/>
<path d="M-3 442.5V454L26.8886 442.5H-3Z" fill="#F2EDE2"/>
<path d="M-3 418.5V423.5H76.2696L118.503 407.25H30.9712L-3 418.5Z" fill="#F2EDE2"/>
<path d="M-3 394V396V407.25H30.9712L79.8744 391.055L67.9525 391.035L50.5 392.5V391.007L26.5 390.967L-3 394Z" fill="#F2EDE2"/>
<path d="M186.5 381.087L84 389.689L79.8744 391.055L160.25 391.187L186.5 381.087Z" fill="#F2EDE2"/>
<path d="M118.503 407.25H201.704L235.428 391.311L160.25 391.187L118.503 407.25Z" fill="#F2EDE2"/>
<path d="M201.704 407.25L167.322 423.5H261.145L288.398 407.25H201.704Z" fill="#F2EDE2"/>
<path d="M314.911 391.442L335.654 379.073H261.32L235.428 391.311L314.911 391.442Z" fill="#F2EDE2"/>
<path d="M265 374.5L210.5 379.073H261.32L282.634 369H265V374.5Z" fill="#F2EDE2"/>
<path d="M337 357.5L303 359.374L282.634 369H309.567H337V357.5Z" fill="#F2EDE2"/>
<path d="M399.25 369L344.5 373.799L335.654 379.073H410.499L423.073 369H399.25Z" fill="#F2EDE2"/>
<path d="M288.398 407.25H375.326L394.895 391.573L314.911 391.442L288.398 407.25Z" fill="#F2EDE2"/>
<path d="M261.145 423.5L229.28 442.5H331.324L355.041 423.5H261.145Z" fill="#F2EDE2"/>
<path d="M331.324 442.5L303.862 464.5H415.82L432.763 442.5H331.324Z" fill="#F2EDE2"/>
<path d="M375.326 407.25L355.041 423.5H447.395L459.91 407.25H417.618H375.326Z" fill="#F2EDE2"/>
<path d="M481.61 379.073H410.499L394.895 391.573L471.886 391.7L481.61 379.073Z" fill="#F2EDE2"/>
<path d="M462 363.5L426 366.655L423.073 369H489.368L497.069 359H462V363.5Z" fill="#F2EDE2"/>
<path d="M516.5 350H504L497.069 359H516.5V350Z" fill="#F2EDE2"/>
<path d="M556 370H515.5L516.5 369H489.368L481.61 379.073H553.502L556 370Z" fill="#F2EDE2"/>
<path d="M459.91 407.25H545.746L549.991 391.828L471.886 391.7L459.91 407.25Z" fill="#F2EDE2"/>
<path d="M447.395 423.5L432.763 442.5H536.043L541.273 423.5H447.395Z" fill="#F2EDE2"/>
<path d="M395.026 491.5H522.554L529.987 464.5H415.82L395.026 491.5Z" fill="#F2EDE2"/>
<path d="M536.043 442.5L529.987 464.5H646.812L642.432 442.5H536.043Z" fill="#F2EDE2"/>
<path d="M545.746 407.25L541.273 423.5H589.962H638.65L635.415 407.25H545.746Z" fill="#F2EDE2"/>
<path d="M632.372 391.964L629.806 379.073H553.502L549.991 391.828L591.182 391.896L632.372 391.964Z" fill="#F2EDE2"/>
<path d="M687 369V370H628L629.806 379.073H706.964L700.047 369H687Z" fill="#F2EDE2"/>
<path d="M635.415 407.25H726.312L715.91 392.101L632.372 391.964L635.415 407.25Z" fill="#F2EDE2"/>
<path d="M638.65 423.5L642.432 442.5H750.518L737.471 423.5H638.65Z" fill="#F2EDE2"/>
<path d="M793.569 392.229L778.693 379.073H706.964L715.91 392.101L793.569 392.229Z" fill="#F2EDE2"/>
<path d="M726.312 407.25L737.471 423.5H828.932L810.556 407.25H726.312Z" fill="#F2EDE2"/>
<path d="M750.518 442.5L765.624 464.5H875.297L850.419 442.5H750.518Z" fill="#F2EDE2"/>
<path d="M765 366.965L744 365.5V359H693.18L700.047 369H767.301L765 366.965Z" fill="#F2EDE2"/>
<path d="M687 369H700.047L693.18 359H687V369Z" fill="#B9CDD6"/>
<path d="M839.5 372.163L794.166 369H767.301L778.693 379.073H850.476L839.5 372.163Z" fill="#B9CDD6"/>
<path d="M810.556 407.25H895.226L871.573 392.357L793.569 392.229L810.556 407.25Z" fill="#B9CDD6"/>
<path d="M871.573 392.357L952.262 392.49L924.996 379.073H850.476L871.573 392.357Z" fill="#B9CDD6"/>
<path d="M895.226 407.25L921.034 423.5H1015.28L982.26 407.25H895.226Z" fill="#B9CDD6"/>
<path d="M828.932 423.5L850.419 442.5H900.814H951.21L921.034 423.5C885.066 423.5 864.9 423.5 828.932 423.5Z" fill="#F2EDE2"/>
<path d="M905.83 491.5H967.432H1029.03L986.151 464.5H875.297L905.83 491.5Z" fill="#F2EDE2"/>
<path d="M951.21 442.5L986.151 464.5H1098.61L1053.9 442.5H951.21Z" fill="#B9CDD6"/>
<path d="M423.073 369L426 366.655L399.25 369H423.073Z" fill="#B9CDD6"/>
<path d="M693.18 359L687 350V359H693.18Z" fill="#F2EDE2"/>
<path d="M687 350H744V359M687 350L693.18 359M687 350V359M-3 418.5V423.5M-3 418.5V407.25M-3 418.5L30.9712 407.25M84 389.689L186.5 381.087M84 389.689L79.8744 391.055M84 389.689L67.9525 391.035M-3 454V464.5M-3 454V442.5M-3 454L26.8886 442.5M186.5 381.087L210.5 379.073M186.5 381.087L160.25 391.187M-3 504V523.5M-3 504V491.5M-3 504L23.4476 491.5M303 359.374L337 357.5V369M303 359.374L265 361.5V369M303 359.374L282.634 369M-3 581V611M-3 581V562M-3 581L28.865 562M344.5 373.799L337 374.5V369M344.5 373.799L335.654 379.073M344.5 373.799L399.25 369M20.5 691.5H-3V611M20.5 691.5H241M20.5 691.5L120.987 611M426 366.655L462 363.5V359M426 366.655L423.073 369M426 366.655L399.25 369M241 691.5H467.5M241 691.5L302.996 611M504 350H516.5V359M504 350H462V359M504 350L497.069 359M467.5 691.5H692M467.5 691.5L489.659 611M556 370H515.5L516.5 369M556 370H628M556 370L553.502 379.073M692 691.5H921.5M692 691.5L675.975 611M628 370H687V369M628 370L629.806 379.073M921.5 691.5H1132M921.5 691.5L866.223 611M1132 691.5H1249V630M1132 691.5L1040.97 611M765 366.965L744 365.5V359M765 366.965L767.301 369M765 366.965L794.166 369M1249 630V611M1249 630L1218.82 611M839.5 372.163L873 374.5V369M839.5 372.163L850.476 379.073M839.5 372.163L794.166 369M882 357.917L948.5 361V369M882 357.917L873 357.5V369M882 357.917L904.524 369M1249 538.5V562M1249 538.5V523.5M1249 538.5L1218.52 523.5M996 378.585L948.5 374.5V369M996 378.585L1097.5 387.313M996 378.585L1030.17 392.618M1249 482.5V491.5M1249 482.5V464.5M1249 482.5L1205.18 464.5M1097.5 387.313L1152 392V388L1200.5 392M1097.5 387.313L1113.37 392.755M1249 439.25V442.5M1249 439.25V423.5M1249 439.25L1203.06 423.5M1200.5 392L1249 396V407.25M1200.5 392L1203 392.902M1249 409.5V423.5M1249 409.5V407.25M1249 409.5L1242.76 407.25M516 369.5H686.5M-3 611H120.987M1249 611V562M1249 611H1218.82M-3 562V523.5M-3 562H28.865M1249 562H1141M-3 523.5H93.4339M1249 523.5V491.5M1249 523.5H1218.52M-3 491.5V464.5M-3 491.5H23.4476M1249 491.5H1153.48M1249 464.5V442.5M1249 464.5H1205.18M-3 464.5H80.5743M-3 442.5V423.5M-3 442.5H26.8886M1249 442.5H1151.61M-3 423.5H76.2696M1249 423.5H1203.06M-3 407.25V396V394L26.5 390.967M-3 407.25H30.9712M1249 407.25H1242.76M26.5 390.967L50.5 388.5V391.007M26.5 390.967L50.5 391.007M1203 392.902L1242.76 407.25M1203 392.902L1113.37 392.755M210.5 379.073L265 374.5V369M210.5 379.073H261.32M948.5 369H904.524M265 369H282.634M462 359H497.069M744 359H693.18M120.987 611H302.996M120.987 611L182.153 562M302.996 611H489.659M302.996 611L340.732 562M28.865 562H182.153M28.865 562L93.4339 523.5M182.153 562H340.732M182.153 562L230.213 523.5M93.4339 523.5H230.213M93.4339 523.5L147.102 491.5M489.659 611H675.975M489.659 611L503.148 562M675.975 611H866.223M675.975 611L666.221 562M866.223 611H1040.97M866.223 611L832.575 562M1040.97 611H1218.82M1040.97 611L985.555 562M1218.82 611L1141 562M1141 562H985.555M1141 562L1079.86 523.5M985.555 562H832.575M985.555 562L942.017 523.5M666.221 562H832.575M666.221 562H503.148M666.221 562L658.557 523.5M832.575 562L806.138 523.5M340.732 562H503.148M340.732 562L370.382 523.5M503.148 562L513.746 523.5M230.213 523.5L270.158 491.5M230.213 523.5H300.297H370.382M370.382 523.5H513.746M370.382 523.5L395.026 491.5M658.557 523.5H513.746M658.557 523.5H806.138M658.557 523.5L652.187 491.5M513.746 523.5L522.554 491.5M942.017 523.5H806.138M942.017 523.5H1079.86M942.017 523.5L905.83 491.5M806.138 523.5L784.165 491.5M1218.52 523.5H1079.86M1218.52 523.5L1153.48 491.5M1079.86 523.5L1029.03 491.5M1029.03 491.5L986.151 464.5M1029.03 491.5H1153.48M1029.03 491.5H967.432H905.83M905.83 491.5H784.165M905.83 491.5L875.297 464.5M652.187 491.5H784.165M652.187 491.5H522.554M652.187 491.5L646.812 464.5M784.165 491.5L765.624 464.5M395.026 491.5H522.554M395.026 491.5H270.158M395.026 491.5L415.82 464.5M522.554 491.5L529.987 464.5M147.102 491.5H270.158M147.102 491.5H23.4476M147.102 491.5L192.384 464.5M270.158 491.5L303.862 464.5M80.5743 464.5L23.4476 491.5M80.5743 464.5H192.384M80.5743 464.5L127.122 442.5M192.384 464.5L229.28 442.5M192.384 464.5H303.862M26.8886 442.5H127.122M26.8886 442.5L76.2696 423.5M127.122 442.5L167.322 423.5M127.122 442.5H229.28M76.2696 423.5L118.503 407.25M76.2696 423.5H167.322M201.704 407.25H118.503M201.704 407.25L167.322 423.5M201.704 407.25H288.398M201.704 407.25L235.428 391.311M118.503 407.25L160.25 391.187M118.503 407.25H30.9712M167.322 423.5H261.145M229.28 442.5L261.145 423.5M229.28 442.5H331.324M261.145 423.5L288.398 407.25M261.145 423.5H355.041M303.862 464.5L331.324 442.5M303.862 464.5H415.82M331.324 442.5L355.041 423.5M331.324 442.5H432.763M375.326 407.25H288.398M375.326 407.25L355.041 423.5M375.326 407.25L394.895 391.573M375.326 407.25H417.618H459.91M288.398 407.25L314.911 391.442M355.041 423.5H447.395M432.763 442.5L447.395 423.5M432.763 442.5L415.82 464.5M432.763 442.5H536.043M447.395 423.5L459.91 407.25M447.395 423.5H541.273M415.82 464.5H529.987M529.987 464.5L536.043 442.5M529.987 464.5H646.812M536.043 442.5L541.273 423.5M536.043 442.5H642.432M545.746 407.25H459.91M545.746 407.25L541.273 423.5M545.746 407.25H635.415M545.746 407.25L549.991 391.828M459.91 407.25L471.886 391.7M541.273 423.5H589.962H638.65M642.432 442.5L638.65 423.5M642.432 442.5L646.812 464.5M642.432 442.5H750.518M638.65 423.5L635.415 407.25M638.65 423.5H737.471M646.812 464.5H765.624M737.471 423.5L726.312 407.25M737.471 423.5L750.518 442.5M737.471 423.5H828.932M726.312 407.25H635.415M726.312 407.25H810.556M726.312 407.25L715.91 392.101M635.415 407.25L632.372 391.964M750.518 442.5L765.624 464.5M750.518 442.5H850.419M765.624 464.5H875.297M850.419 442.5L828.932 423.5M850.419 442.5L875.297 464.5M850.419 442.5H900.814H951.21M828.932 423.5L810.556 407.25M828.932 423.5C864.9 423.5 885.066 423.5 921.034 423.5M875.297 464.5H986.151M986.151 464.5L951.21 442.5M986.151 464.5H1098.61M951.21 442.5L921.034 423.5M951.21 442.5H1053.9M895.226 407.25H810.556M895.226 407.25L921.034 423.5M895.226 407.25H982.26M895.226 407.25L871.573 392.357M810.556 407.25L793.569 392.229M921.034 423.5H1015.28M1053.9 442.5L1015.28 423.5M1053.9 442.5L1098.61 464.5M1053.9 442.5H1151.61M1015.28 423.5L982.26 407.25M1015.28 423.5H1105.35M1153.48 491.5L1098.61 464.5M1098.61 464.5H1205.18M1205.18 464.5L1151.61 442.5M1151.61 442.5L1105.35 423.5M1065.79 407.25H982.26M1065.79 407.25L1105.35 423.5M1065.79 407.25H1155.66M1065.79 407.25L1030.17 392.618M982.26 407.25L952.262 392.49M1105.35 423.5H1203.06M1203.06 423.5L1155.66 407.25M1242.76 407.25H1155.66M1155.66 407.25L1113.37 392.755M1113.37 392.755L1030.17 392.618M1030.17 392.618L952.262 392.49M1030.17 392.618L997.19 379.073H924.996M871.573 392.357L952.262 392.49M871.573 392.357L850.476 379.073M871.573 392.357L793.569 392.229M952.262 392.49L924.996 379.073M873 369H904.524M873 369H794.166M850.476 379.073H924.996M850.476 379.073H778.693M924.996 379.073L904.524 369M778.693 379.073L793.569 392.229M778.693 379.073H706.964M778.693 379.073L767.301 369M793.569 392.229L715.91 392.101M715.91 392.101L706.964 379.073M715.91 392.101L632.372 391.964M767.301 369H700.047M767.301 369H794.166M700.047 369L706.964 379.073M700.047 369H687M700.047 369L693.18 359M706.964 379.073H629.806M629.806 379.073L632.372 391.964M629.806 379.073H553.502M632.372 391.964L591.182 391.896L549.991 391.828M549.991 391.828L553.502 379.073M549.991 391.828L471.886 391.7M553.502 379.073H481.61M423.073 369L410.499 379.073M423.073 369H489.368M423.073 369H399.25M410.499 379.073H481.61M410.499 379.073L394.895 391.573M410.499 379.073H335.654M481.61 379.073L489.368 369M481.61 379.073L471.886 391.7M489.368 369L497.069 359M489.368 369H516.5M471.886 391.7L394.895 391.573M394.895 391.573L314.911 391.442M335.654 379.073L314.911 391.442M335.654 379.073H261.32M314.911 391.442L235.428 391.311M516.5 369V359M516.5 369H687M516.5 359H497.069M516.5 359H687M337 369H399.25M337 369H309.567H282.634M282.634 369L261.32 379.073M261.32 379.073L235.428 391.311M160.25 391.187L235.428 391.311M160.25 391.187L79.8744 391.055M79.8744 391.055L30.9712 407.25M79.8744 391.055L67.9525 391.035M50.5 391.007V392.5L67.9525 391.035M50.5 391.007L67.9525 391.035M687 369V359M693.18 359H687" stroke="#C5C4BC" stroke-width="0.5"/>
<path d="M66 390.278L51.5 391.5V388L50 32L265 50V373.5L252.5 374.554M66 390.278L65 46L252.5 60.5V374.554M66 390.278L79.5 389.139M252.5 374.554L241 375.523M79.5 389.139L78.5 59L241 71.5V375.523M79.5 389.139L241 375.523M346 372.749L337.5 373.5V357L336.5 138C370 50 456 94 462 138V362.5L453 363.295M346 372.749V138C349.333 123.667 364.6 94.9 399 94.5C412.333 94 441.8 102 453 138V363.295M346 372.749L350.5 372.351M453 363.295L350.5 372.351M448.5 362.5V142.5C445 133.5 441.197 123.317 435 116.715C414.896 95.2978 385.519 94.9667 364.5 116.715C358.15 123.286 354 129.5 350.5 142.5V372.351M101.5 263.5V359L156.5 355V263.5H101.5ZM107.5 269.5L108 352.5L151.5 350V269.5H107.5ZM170 263.5V353L222 350V263.5H170ZM177 269.5H217V344L177 346V269.5Z" stroke="#878787" stroke-width="0.5"/>
<path d="M688.452 348V368H629.452H557.452H527M517.452 367.5H537.5M527 368H516.952V348C516.952 348 515.309 88.7892 517.452 78C531.952 4.99998 584.952 1 606.452 1C631.452 1 687.952 27.5 687.952 78C687.952 88.5 687.952 367.5 687.952 367.5H676.5M527 368V78C527 78 536.937 46.1453 554 32.5C569.143 20.3907 581.128 14 601 14C623.5 14 638.758 22.808 653.5 35.5C668.242 48.192 676.5 78 676.5 78V367.5M676.5 367.5H665M537.5 367.5V78C537.5 78 545.101 52.6418 557.5 42C569.899 31.3582 584.66 23.5633 601 23.5C617.414 23.4364 633.503 31.3582 646 42C658.497 52.6418 665 78 665 78V367.5M537.5 367.5H665M554 235V341H649V235H554ZM560 241V334.5H600V241H560ZM604 241V334.5H643.5V241H604ZM601 35.5C588.167 39.1667 560.8 54.5 554 86.5V198H649V86.5C646.667 73.5 633.8 45.1 601 35.5ZM600 42C590 44 568 55.7 560 86.5V191.5H600V42ZM604 42V191.5H643.5V86.5C641.454 74.8333 630.69 49.6 604 42Z" stroke="#878787" stroke-width="0.5"/>
<path d="M364 235V145.5C369.6 125.1 387 117.333 395 116V235H364Z" fill="#DAEAEE"/>
<path d="M402.5 235V116C423.7 120.4 433.333 137.5 435.5 145.5V235H402.5Z" fill="#DAEAEE"/>
<path d="M364 235V145.5C369.6 125.1 387 117.333 395 116V235H364Z" stroke="#BDC4C2"/>
<path d="M402.5 235V116C423.7 120.4 433.333 137.5 435.5 145.5V235H402.5Z" stroke="#BDC4C2"/>
</svg>
