<svg width="42" height="42" viewBox="0 0 42 42" fill="none" xmlns="http://www.w3.org/2000/svg">
<g filter="url(#filter0_d_698_55)">
<ellipse cx="21" cy="17.5" rx="18" ry="17.5" fill="#B2362D"/>
</g>
<mask id="path-2-outside-1_698_55" maskUnits="userSpaceOnUse" x="16" y="5" width="10" height="25" fill="black">
<rect fill="white" x="16" y="5" width="10" height="25"/>
<path d="M21.912 21.176H20.544L19.944 8.864H22.512L21.912 21.176ZM19.728 24.704C19.728 24.112 19.872 23.696 20.16 23.456C20.448 23.216 20.8 23.096 21.216 23.096C21.616 23.096 21.96 23.216 22.248 23.456C22.552 23.696 22.704 24.112 22.704 24.704C22.704 25.28 22.552 25.696 22.248 25.952C21.96 26.208 21.616 26.336 21.216 26.336C20.8 26.336 20.448 26.208 20.16 25.952C19.872 25.696 19.728 25.28 19.728 24.704Z"/>
</mask>
<path d="M21.912 21.176H20.544L19.944 8.864H22.512L21.912 21.176ZM19.728 24.704C19.728 24.112 19.872 23.696 20.16 23.456C20.448 23.216 20.8 23.096 21.216 23.096C21.616 23.096 21.96 23.216 22.248 23.456C22.552 23.696 22.704 24.112 22.704 24.704C22.704 25.28 22.552 25.696 22.248 25.952C21.96 26.208 21.616 26.336 21.216 26.336C20.8 26.336 20.448 26.208 20.16 25.952C19.872 25.696 19.728 25.28 19.728 24.704Z" fill="white"/>
<path d="M21.912 21.176V24.176H24.7694L24.9084 21.322L21.912 21.176ZM20.544 21.176L17.5476 21.322L17.6866 24.176H20.544V21.176ZM19.944 8.864V5.864H16.7942L16.9476 9.01002L19.944 8.864ZM22.512 8.864L25.5084 9.01002L25.6618 5.864H22.512V8.864ZM22.248 23.456L20.3274 25.7607L20.3579 25.7861L20.3891 25.8106L22.248 23.456ZM22.248 25.952L20.3156 23.6573L20.2849 23.6831L20.2549 23.7098L22.248 25.952ZM20.16 25.952L18.1669 28.1942L20.16 25.952ZM21.912 21.176V18.176H20.544V21.176V24.176H21.912V21.176ZM20.544 21.176L23.5404 21.03L22.9404 8.71797L19.944 8.864L16.9476 9.01002L17.5476 21.322L20.544 21.176ZM19.944 8.864V11.864H22.512V8.864V5.864H19.944V8.864ZM22.512 8.864L19.5156 8.71797L18.9156 21.03L21.912 21.176L24.9084 21.322L25.5084 9.01002L22.512 8.864ZM19.728 24.704H22.728C22.728 24.6344 22.7386 24.7339 22.671 24.9293C22.5958 25.1465 22.4244 25.4741 22.0806 25.7607L20.16 23.456L18.2394 21.1513C16.9523 22.224 16.728 23.7354 16.728 24.704H19.728ZM20.16 23.456L22.0806 25.7607C21.9448 25.8738 21.7824 25.9661 21.608 26.0255C21.4377 26.0836 21.2986 26.096 21.216 26.096V23.096V20.096C20.1803 20.096 19.1265 20.4121 18.2394 21.1513L20.16 23.456ZM21.216 23.096V26.096C21.1124 26.096 20.9611 26.0797 20.7859 26.0186C20.608 25.9566 20.4519 25.8644 20.3274 25.7607L22.248 23.456L24.1686 21.1513C23.3037 20.4306 22.2671 20.096 21.216 20.096V23.096ZM22.248 23.456L20.3891 25.8106C20.0451 25.5391 19.859 25.215 19.7722 24.9776C19.6947 24.7655 19.704 24.6482 19.704 24.704H22.704H25.704C25.704 23.6885 25.4465 22.1589 24.1069 21.1014L22.248 23.456ZM22.704 24.704H19.704C19.704 24.7408 19.6976 24.6227 19.7722 24.4184C19.8549 24.1922 20.0227 23.9039 20.3156 23.6573L22.248 25.952L24.1804 28.2467C25.422 27.2012 25.704 25.7554 25.704 24.704H22.704ZM22.248 25.952L20.2549 23.7098C20.3745 23.6034 20.5345 23.5003 20.7278 23.4283C20.9194 23.3571 21.0909 23.336 21.216 23.336V26.336V29.336C22.3201 29.336 23.3814 28.9584 24.2411 28.1942L22.248 25.952ZM21.216 26.336V23.336C21.3192 23.336 21.4783 23.3526 21.6652 23.4206C21.8557 23.4899 22.0221 23.5934 22.1531 23.7098L20.16 25.952L18.1669 28.1942C19.0497 28.9789 20.1287 29.336 21.216 29.336V26.336ZM20.16 25.952L22.1531 23.7098C22.7675 24.2559 22.728 24.8506 22.728 24.704H19.728H16.728C16.728 25.7094 16.9765 27.1361 18.1669 28.1942L20.16 25.952Z" fill="white" mask="url(#path-2-outside-1_698_55)"/>
<defs>
<filter id="filter0_d_698_55" x="0" y="0" width="42" height="42" filterUnits="userSpaceOnUse" color-interpolation-filters="sRGB">
<feFlood flood-opacity="0" result="BackgroundImageFix"/>
<feColorMatrix in="SourceAlpha" type="matrix" values="0 0 0 0 0 0 0 0 0 0 0 0 0 0 0 0 0 0 127 0" result="hardAlpha"/>
<feOffset dy="4"/>
<feGaussianBlur stdDeviation="1.5"/>
<feComposite in2="hardAlpha" operator="out"/>
<feColorMatrix type="matrix" values="0 0 0 0 0 0 0 0 0 0 0 0 0 0 0 0 0 0 0.25 0"/>
<feBlend mode="normal" in2="BackgroundImageFix" result="effect1_dropShadow_698_55"/>
<feBlend mode="normal" in="SourceGraphic" in2="effect1_dropShadow_698_55" result="shape"/>
</filter>
</defs>
</svg>
