<svg width="71" height="194" viewBox="0 0 71 194" fill="none" xmlns="http://www.w3.org/2000/svg">
<g filter="url(#filter0_d_473_42)">
<path d="M63.0444 11.4234C47.8137 11.149 37.458 13.8074 24.9931 20.9465C20.1566 23.7166 18.4433 22.5858 15.7808 30.4872C12.788 39.3688 35.8916 39.4812 49.1454 36.2322C62.6373 32.9249 89.8566 21.5951 78.0932 13.2845C71.6316 8.71951 70.269 11.5536 63.0444 11.4234Z" fill="#AC49C5" stroke="#5C0E63"/>
<g filter="url(#filter1_i_473_42)">
<path d="M58.8143 16.9239C48.4673 17.8653 41.2347 19.7023 32.2558 23.5707C28.7718 25.0717 25.2596 25.2118 22.8992 28.7209C20.2461 32.6652 40.4721 33.9825 49.7181 31.696C59.1302 29.3684 76.357 19.3429 68.9274 16.6627C64.8463 15.1905 63.7223 16.4774 58.8143 16.9239Z" fill="#5C0E63"/>
</g>
<path d="M58.8143 16.9239C48.4673 17.8653 41.2347 19.7023 32.2558 23.5707C28.7718 25.0717 25.2596 25.2118 22.8992 28.7209C20.2461 32.6652 40.4721 33.9825 49.7181 31.696C59.1302 29.3684 76.357 19.3429 68.9274 16.6627C64.8463 15.1905 63.7223 16.4774 58.8143 16.9239Z" stroke="#5C0E63"/>
<path d="M28.005 60.7901C21.5437 52.5537 17.0117 35.4048 17.0117 35.4048C17.0117 35.4048 37.5398 39.1538 50.0855 36.0139C62.6312 32.8741 81.2624 19.3247 81.2624 19.3247C81.2624 19.3247 82.4882 29.1597 82.526 36.2924C82.5638 43.4252 81.4559 55.8539 81.4559 55.8539C81.4559 55.8539 79.9137 61.9244 77.4232 64.9022C74.9327 67.8801 68.7011 71.1047 68.7011 71.1047C68.7011 71.1047 56.6346 77.2284 49.3635 75.9443C39.6325 74.2257 34.6623 69.2766 28.005 60.7901Z" fill="#AC49C5" stroke="#5C0E63"/>
<path d="M80.8558 19.0245C81.386 21.1428 82.3277 28.437 82.7323 31.8193C82.7323 31.8193 85.5709 22.1519 89.9786 22.3687C95.3476 22.6328 97.1535 33.9403 96.5056 35.2055C88.7132 50.42 86.779 43.1331 82.3975 46.3734L82.1744 56.0761C82.1744 56.0761 86.1694 56.7132 91.2701 53.7997C95.4067 51.4369 100.652 46.0702 102.047 41.4557C104.215 34.2825 105.08 27.6224 100.65 21.3058C97.3879 16.6545 93.8687 14.3331 89.0209 14.5694C85.4076 14.7454 80.8558 19.0245 80.8558 19.0245Z" fill="#AC49C5"/>
<path d="M32.2319 65.7615C32.2319 65.7615 8.61682 75.6711 15.2053 82.4833C27.725 95.428 42.0725 90.9311 59.1041 88.3787C79.1632 85.3725 98.6482 76.8741 104.569 62.1279C106.888 56.3528 91.2701 53.7997 91.2701 53.7997C86.1694 56.7132 82.1744 56.0761 82.1744 56.0761C82.1744 56.0761 76.3477 71.2006 63.5601 74.401C39.885 80.3262 32.2319 65.7615 32.2319 65.7615Z" fill="#AC49C5"/>
<path d="M82.1744 56.0761L82.3975 46.3734C86.779 43.1331 88.7132 50.42 96.5056 35.2055C97.1535 33.9403 95.3476 22.6328 89.9786 22.3687C85.5709 22.1519 82.7323 31.8193 82.7323 31.8193C82.3277 28.437 81.386 21.1428 80.8558 19.0245C80.8558 19.0245 85.4076 14.7454 89.0209 14.5694C93.8687 14.3331 97.3879 16.6545 100.65 21.3058C105.08 27.6224 104.215 34.2825 102.047 41.4557C100.652 46.0702 95.4067 51.4369 91.2701 53.7997M82.1744 56.0761C82.1744 56.0761 86.1694 56.7132 91.2701 53.7997M82.1744 56.0761C82.1744 56.0761 76.3477 71.2006 63.5601 74.401C39.885 80.3262 32.2319 65.7615 32.2319 65.7615C32.2319 65.7615 8.61682 75.6711 15.2053 82.4833C27.725 95.428 42.0725 90.9311 59.1041 88.3787C79.1632 85.3725 98.6482 76.8741 104.569 62.1279C106.888 56.3528 91.2701 53.7997 91.2701 53.7997M82.1744 56.0761L91.2701 53.7997" stroke="#5C0E63"/>
</g>
<g filter="url(#filter2_d_473_42)">
<path d="M114.519 111.099C103.149 101.813 93.6983 97.825 79.9408 96.2438C74.6027 95.6303 73.9888 93.6867 67.1944 98.5606C59.5574 104.039 76.9879 117.877 88.9908 123.107C101.209 128.431 128.676 135.365 124.791 121.574C122.657 113.998 119.912 115.504 114.519 111.099Z" fill="#91C4DD" stroke="#25759F"/>
<g filter="url(#filter3_i_473_42)">
<path d="M107.989 113.078C99.5826 107.691 92.9939 104.89 83.8542 102.709C80.3079 101.863 77.5631 99.8883 73.6536 101.352C69.2591 102.997 83.7816 116.107 92.167 119.74C100.703 123.437 119.812 125.492 115.806 118.882C113.605 115.25 111.976 115.633 107.989 113.078Z" fill="#25759F"/>
</g>
<path d="M107.989 113.078C99.5826 107.691 92.9939 104.89 83.8542 102.709C80.3079 101.863 77.5631 99.8883 73.6536 101.352C69.2591 102.997 83.7816 116.107 92.167 119.74C100.703 123.437 119.812 125.492 115.806 118.882C113.605 115.25 111.976 115.633 107.989 113.078Z" stroke="#25759F"/>
<path d="M58.1294 130.6C58.216 120.024 65.1528 103.312 65.1528 103.312C65.1528 103.312 78.4337 118.589 89.8343 123.487C101.235 128.385 123.539 128.396 123.539 128.396C123.539 128.396 118.52 137.163 114.236 143.016C109.952 148.868 101.597 158.367 101.597 158.367C101.597 158.367 96.7588 162.411 93.0719 163.363C89.385 164.315 82.7155 163.243 82.7155 163.243C82.7155 163.243 69.8736 161.069 65.143 155.693C58.812 148.499 58.0402 141.497 58.1294 130.6Z" fill="#91C4DD" stroke="#25759F"/>
<path d="M123.413 127.909C122.533 129.955 118.836 136.477 117.097 139.482C117.097 139.482 125.093 133.27 128.3 136.07C132.207 139.48 126.737 149.796 125.482 150.444C110.38 158.243 113.321 151.137 108.043 151.178L102.008 158.976C102.008 158.976 104.648 161.873 110.273 162.527C114.835 163.057 122.053 161.791 125.899 158.85C131.879 154.277 136.561 149.348 137.025 141.55C137.367 135.807 136.105 131.816 132.291 129.125C129.447 127.119 123.413 127.909 123.413 127.909Z" fill="#91C4DD"/>
<path d="M58.3251 137.178C58.3251 137.178 34.4473 131.227 35.3183 140.715C36.9735 158.744 50.5592 163.604 65.0022 171.651C82.0124 181.129 101.909 185.776 115.31 177.246C120.558 173.906 110.273 162.527 110.273 162.527C104.648 161.873 102.008 158.976 102.008 158.976C102.008 158.976 88.4492 167.871 76.8289 162.878C55.3148 153.635 58.3251 137.178 58.3251 137.178Z" fill="#91C4DD"/>
<path d="M102.008 158.976L108.043 151.178C113.321 151.137 110.38 158.243 125.482 150.444C126.737 149.796 132.207 139.48 128.3 136.07C125.093 133.27 117.097 139.482 117.097 139.482C118.836 136.477 122.533 129.955 123.413 127.909C123.413 127.909 129.447 127.119 132.291 129.125C136.105 131.816 137.367 135.807 137.025 141.55C136.561 149.348 131.879 154.277 125.899 158.85C122.053 161.791 114.835 163.057 110.273 162.527M102.008 158.976C102.008 158.976 104.648 161.873 110.273 162.527M102.008 158.976C102.008 158.976 88.4492 167.871 76.8289 162.878C55.3148 153.635 58.3252 137.178 58.3252 137.178C58.3252 137.178 34.4473 131.227 35.3183 140.715C36.9735 158.744 50.5592 163.604 65.0022 171.651C82.0124 181.129 101.909 185.776 115.31 177.246C120.558 173.906 110.273 162.527 110.273 162.527M102.008 158.976L110.273 162.527" stroke="#25759F"/>
</g>
<defs>
<filter id="filter0_d_473_42" x="9.54492" y="10.1724" width="99.7593" height="89.582" filterUnits="userSpaceOnUse" color-interpolation-filters="sRGB">
<feFlood flood-opacity="0" result="BackgroundImageFix"/>
<feColorMatrix in="SourceAlpha" type="matrix" values="0 0 0 0 0 0 0 0 0 0 0 0 0 0 0 0 0 0 127 0" result="hardAlpha"/>
<feOffset dy="4"/>
<feGaussianBlur stdDeviation="2"/>
<feComposite in2="hardAlpha" operator="out"/>
<feColorMatrix type="matrix" values="0 0 0 0 0 0 0 0 0 0 0 0 0 0 0 0 0 0 0.25 0"/>
<feBlend mode="normal" in2="BackgroundImageFix" result="effect1_dropShadow_473_42"/>
<feBlend mode="normal" in="SourceGraphic" in2="effect1_dropShadow_473_42" result="shape"/>
</filter>
<filter id="filter1_i_473_42" x="22.1616" y="15.4764" width="49.0771" height="21.8409" filterUnits="userSpaceOnUse" color-interpolation-filters="sRGB">
<feFlood flood-opacity="0" result="BackgroundImageFix"/>
<feBlend mode="normal" in="SourceGraphic" in2="BackgroundImageFix" result="shape"/>
<feColorMatrix in="SourceAlpha" type="matrix" values="0 0 0 0 0 0 0 0 0 0 0 0 0 0 0 0 0 0 127 0" result="hardAlpha"/>
<feOffset dy="4"/>
<feGaussianBlur stdDeviation="2"/>
<feComposite in2="hardAlpha" operator="arithmetic" k2="-1" k3="1"/>
<feColorMatrix type="matrix" values="0 0 0 0 0 0 0 0 0 0 0 0 0 0 0 0 0 0 0.25 0"/>
<feBlend mode="normal" in2="shape" result="effect1_innerShadow_473_42"/>
</filter>
<filter id="filter2_d_473_42" x="30.7949" y="94.842" width="110.784" height="95.3834" filterUnits="userSpaceOnUse" color-interpolation-filters="sRGB">
<feFlood flood-opacity="0" result="BackgroundImageFix"/>
<feColorMatrix in="SourceAlpha" type="matrix" values="0 0 0 0 0 0 0 0 0 0 0 0 0 0 0 0 0 0 127 0" result="hardAlpha"/>
<feOffset dy="4"/>
<feGaussianBlur stdDeviation="2"/>
<feComposite in2="hardAlpha" operator="out"/>
<feColorMatrix type="matrix" values="0 0 0 0 0 0 0 0 0 0 0 0 0 0 0 0 0 0 0.25 0"/>
<feBlend mode="normal" in2="BackgroundImageFix" result="effect1_dropShadow_473_42"/>
<feBlend mode="normal" in="SourceGraphic" in2="effect1_dropShadow_473_42" result="shape"/>
</filter>
<filter id="filter3_i_473_42" x="72.3433" y="100.327" width="44.5083" height="27.3618" filterUnits="userSpaceOnUse" color-interpolation-filters="sRGB">
<feFlood flood-opacity="0" result="BackgroundImageFix"/>
<feBlend mode="normal" in="SourceGraphic" in2="BackgroundImageFix" result="shape"/>
<feColorMatrix in="SourceAlpha" type="matrix" values="0 0 0 0 0 0 0 0 0 0 0 0 0 0 0 0 0 0 127 0" result="hardAlpha"/>
<feOffset dy="4"/>
<feGaussianBlur stdDeviation="2"/>
<feComposite in2="hardAlpha" operator="arithmetic" k2="-1" k3="1"/>
<feColorMatrix type="matrix" values="0 0 0 0 0 0 0 0 0 0 0 0 0 0 0 0 0 0 0.25 0"/>
<feBlend mode="normal" in2="shape" result="effect1_innerShadow_473_42"/>
</filter>
</defs>
</svg>
