<svg width="91" height="222" viewBox="0 0 91 222" fill="none" xmlns="http://www.w3.org/2000/svg">
<g filter="url(#filter0_d_473_40)">
<path d="M11.55 144.712C-0.305614 149.269 -7.64384 154.423 -15.4761 163.476C-18.5151 166.988 -20.1282 166.706 -20.1814 173.249C-20.2412 180.604 -2.33451 173.473 7.09642 166.987C16.6967 160.384 34.8818 143.696 23.668 141.36C17.5082 140.077 17.1737 142.551 11.55 144.712Z" fill="#FF9AE7" stroke="#901B8E"/>
<g filter="url(#filter1_i_473_40)">
<path d="M9.67358 150.01C1.9059 153.92 -3.22423 157.506 -9.18977 163.106C-11.5045 165.279 -14.1867 166.477 -15.1219 169.75C-16.1731 173.43 -0.187004 168.068 6.38702 163.529C13.0791 158.908 23.863 146.282 17.433 146.664C13.901 146.874 13.3581 148.155 9.67358 150.01Z" fill="#901B8E"/>
</g>
<path d="M9.67358 150.01C1.9059 153.92 -3.22423 157.506 -9.18977 163.106C-11.5045 165.279 -14.1867 166.477 -15.1219 169.75C-16.1731 173.43 -0.187004 168.068 6.38702 163.529C13.0791 158.908 23.863 146.282 17.433 146.664C13.901 146.874 13.3581 148.155 9.67358 150.01Z" stroke="#901B8E"/>
<path d="M-3.02532 191.341C-10.1174 187.403 -17.9805 176.42 -17.9805 176.42C-17.9805 176.42 -1.14298 172.722 7.76769 166.536C16.6784 160.349 27.6539 144.738 27.6539 144.738C27.6539 144.738 31.1007 151.465 32.9418 156.61C34.7828 161.755 37.0826 171.086 37.0826 171.086C37.0826 171.086 37.4312 175.956 36.2604 178.887C35.0896 181.817 31.0865 186.093 31.0865 186.093C31.0865 186.093 23.3046 194.288 17.3519 195.629C9.38526 197.424 4.28203 195.398 -3.02532 191.341Z" fill="#FF9AE7" stroke="#901B8E"/>
<path d="M27.2635 144.648C28.2118 146.013 30.7933 150.993 31.9656 153.312C31.9656 153.312 31.7065 145.437 35.1724 144.217C39.3942 142.732 43.6639 150.343 43.4839 151.46C41.3187 164.892 37.9709 160.228 35.4035 163.938L37.6955 171.022C37.6955 171.022 40.9487 170.236 44.1557 166.537C46.7566 163.538 49.4523 158.02 49.3597 154.249C49.2156 148.386 48.1924 143.301 43.1601 140.118C39.4544 137.773 36.1415 137.194 32.4502 138.878C29.6988 140.133 27.2635 144.648 27.2635 144.648Z" fill="#FF9AE7"/>
<path d="M1.50882 193.615C1.50882 193.615 -14.248 208.151 -7.41923 211.02C5.55706 216.47 15.5173 208.74 28.0484 201.578C42.8071 193.142 55.7264 180.916 56.5624 168.406C56.8898 163.508 44.1557 166.537 44.1557 166.537C40.9487 170.236 37.6955 171.022 37.6955 171.022C37.6955 171.022 37.0285 183.776 27.946 190.081C11.1306 201.756 1.50882 193.615 1.50882 193.615Z" fill="#FF9AE7"/>
<path d="M37.6955 171.022L35.4035 163.938C37.9709 160.228 41.3187 164.892 43.4839 151.46C43.6639 150.343 39.3942 142.732 35.1724 144.217C31.7065 145.437 31.9656 153.312 31.9656 153.312C30.7933 150.993 28.2118 146.013 27.2635 144.648C27.2635 144.648 29.6988 140.133 32.4502 138.878C36.1415 137.194 39.4544 137.773 43.1601 140.118C48.1924 143.301 49.2156 148.386 49.3596 154.249C49.4523 158.02 46.7566 163.538 44.1557 166.537M37.6955 171.022C37.6955 171.022 40.9487 170.236 44.1557 166.537M37.6955 171.022C37.6955 171.022 37.0285 183.776 27.946 190.081C11.1306 201.756 1.50882 193.615 1.50882 193.615C1.50882 193.615 -14.248 208.151 -7.41923 211.02C5.55706 216.47 15.5173 208.74 28.0484 201.578C42.8071 193.142 55.7264 180.916 56.5624 168.406C56.8898 163.508 44.1557 166.537 44.1557 166.537M37.6955 171.022L44.1557 166.537" stroke="#901B8E"/>
</g>
<g filter="url(#filter2_d_473_40)">
<path d="M46.7564 13.8663C29.3846 7.36245 16.3431 5.61739 -1.058 7.22343C-7.80981 7.84659 -9.28842 6.07998 -15.7625 12.423C-23.0395 19.5529 3.44322 29.1326 20.0683 31.5105C36.9919 33.9311 73.1484 34.4321 63.2331 21.7885C57.7866 14.8434 54.9965 16.9514 46.7564 13.8663Z" fill="#DB7E52" stroke="#B25726"/>
<g filter="url(#filter3_i_473_40)">
<path d="M39.5204 17.3074C27.2313 13.9501 18.1314 12.7128 6.14755 12.6708C1.4977 12.6546 -2.59616 11.3461 -6.824 13.68C-11.5763 16.3035 11.081 25.837 22.6875 27.477C34.5023 29.1464 58.6198 26.7772 51.2469 21.2087C47.1969 18.1498 45.3497 18.8998 39.5204 17.3074Z" fill="#B25726"/>
</g>
<path d="M39.5204 17.3074C27.2313 13.9501 18.1314 12.7128 6.14755 12.6708C1.4977 12.6546 -2.59616 11.3461 -6.824 13.68C-11.5763 16.3035 11.081 25.837 22.6875 27.477C34.5023 29.1464 58.6198 26.7772 51.2469 21.2087C47.1969 18.1498 45.3497 18.8998 39.5204 17.3074Z" stroke="#B25726"/>
<path d="M-14.8276 45.9491C-18.6862 35.5494 -16.4756 17.5548 -16.4756 17.5548C-16.4756 17.5548 5.47711 29.5003 21.2418 31.6905C37.0064 33.8807 64.2603 28.7715 64.2603 28.7715C64.2603 28.7715 61.4156 38.5283 58.3748 45.2553C55.3341 51.9824 48.6878 63.2229 48.6878 63.2229C48.6878 63.2229 44.2921 68.3024 40.1445 70.0832C35.9969 71.8639 27.4465 72.3426 27.4465 72.3426C27.4465 72.3426 10.9419 73.1567 3.14734 68.9668C-7.28429 63.3593 -10.8519 56.6643 -14.8276 45.9491Z" fill="#DB7E52" stroke="#B25726"/>
<path d="M63.9237 28.3222C63.6166 30.5328 61.5441 37.7824 60.5462 41.1309C60.5462 41.1309 67.9861 33.1984 72.9539 35.2099C79.0053 37.66 76.19 49.0404 74.8989 49.9651C59.3718 61.0858 60.3015 53.436 53.8689 54.6882L49.4173 63.7264C49.4173 63.7264 53.7295 65.9642 60.8467 65.3143C66.6188 64.7873 74.9628 61.8885 78.5599 58.1186C84.1517 52.2582 88.0237 46.3457 85.668 38.5857C83.9333 32.8714 80.8957 29.244 75.2265 27.4784C71.001 26.1623 63.9237 28.3222 63.9237 28.3222Z" fill="#DB7E52"/>
<path d="M-12.1227 52.3601C-12.1227 52.3601 -43.5261 52.0007 -38.9056 61.1123C-30.1255 78.4266 -11.705 80.0787 8.95708 84.6611C33.292 90.058 59.3424 90.0517 72.518 78.6042C77.6778 74.1211 60.8467 65.3143 60.8467 65.3143C53.7295 65.9642 49.4173 63.7264 49.4173 63.7264C49.4173 63.7264 36.1865 75.5685 20.1179 73.3361C-9.63172 69.203 -12.1227 52.3601 -12.1227 52.3601Z" fill="#DB7E52"/>
<path d="M49.4173 63.7264L53.8689 54.6882C60.3015 53.436 59.3718 61.0858 74.8989 49.9651C76.19 49.0404 79.0053 37.66 72.9539 35.2099C67.9861 33.1984 60.5462 41.1309 60.5462 41.1309C61.5441 37.7824 63.6166 30.5328 63.9237 28.3222C63.9237 28.3222 71.001 26.1623 75.2265 27.4784C80.8957 29.244 83.9333 32.8714 85.668 38.5857C88.0237 46.3457 84.1517 52.2582 78.5599 58.1186C74.9628 61.8885 66.6188 64.7873 60.8467 65.3143M49.4173 63.7264C49.4173 63.7264 53.7295 65.9642 60.8467 65.3143M49.4173 63.7264C49.4173 63.7264 36.1865 75.5685 20.1179 73.3361C-9.63172 69.203 -12.1227 52.3601 -12.1227 52.3601C-12.1227 52.3601 -43.5261 52.0007 -38.9056 61.1123C-30.1255 78.4266 -11.705 80.0787 8.95708 84.6611C33.292 90.058 59.3424 90.0517 72.518 78.6042C77.6778 74.1211 60.8467 65.3143 60.8467 65.3143M49.4173 63.7264L60.8467 65.3143" stroke="#B25726"/>
</g>
<defs>
<filter id="filter0_d_473_40" x="-24.6816" y="137.411" width="85.7505" height="83.9461" filterUnits="userSpaceOnUse" color-interpolation-filters="sRGB">
<feFlood flood-opacity="0" result="BackgroundImageFix"/>
<feColorMatrix in="SourceAlpha" type="matrix" values="0 0 0 0 0 0 0 0 0 0 0 0 0 0 0 0 0 0 127 0" result="hardAlpha"/>
<feOffset dy="4"/>
<feGaussianBlur stdDeviation="2"/>
<feComposite in2="hardAlpha" operator="out"/>
<feColorMatrix type="matrix" values="0 0 0 0 0 0 0 0 0 0 0 0 0 0 0 0 0 0 0.25 0"/>
<feBlend mode="normal" in2="BackgroundImageFix" result="effect1_dropShadow_473_40"/>
<feBlend mode="normal" in="SourceGraphic" in2="effect1_dropShadow_473_40" result="shape"/>
</filter>
<filter id="filter1_i_473_40" x="-15.6714" y="146.156" width="35.5762" height="29.3192" filterUnits="userSpaceOnUse" color-interpolation-filters="sRGB">
<feFlood flood-opacity="0" result="BackgroundImageFix"/>
<feBlend mode="normal" in="SourceGraphic" in2="BackgroundImageFix" result="shape"/>
<feColorMatrix in="SourceAlpha" type="matrix" values="0 0 0 0 0 0 0 0 0 0 0 0 0 0 0 0 0 0 127 0" result="hardAlpha"/>
<feOffset dy="4"/>
<feGaussianBlur stdDeviation="2"/>
<feComposite in2="hardAlpha" operator="arithmetic" k2="-1" k3="1"/>
<feColorMatrix type="matrix" values="0 0 0 0 0 0 0 0 0 0 0 0 0 0 0 0 0 0 0.25 0"/>
<feBlend mode="normal" in2="shape" result="effect1_innerShadow_473_40"/>
</filter>
<filter id="filter2_d_473_40" x="-43.8696" y="6.16425" width="134.741" height="90.4943" filterUnits="userSpaceOnUse" color-interpolation-filters="sRGB">
<feFlood flood-opacity="0" result="BackgroundImageFix"/>
<feColorMatrix in="SourceAlpha" type="matrix" values="0 0 0 0 0 0 0 0 0 0 0 0 0 0 0 0 0 0 127 0" result="hardAlpha"/>
<feOffset dy="4"/>
<feGaussianBlur stdDeviation="2"/>
<feComposite in2="hardAlpha" operator="out"/>
<feColorMatrix type="matrix" values="0 0 0 0 0 0 0 0 0 0 0 0 0 0 0 0 0 0 0.25 0"/>
<feBlend mode="normal" in2="BackgroundImageFix" result="effect1_dropShadow_473_40"/>
<feBlend mode="normal" in="SourceGraphic" in2="effect1_dropShadow_473_40" result="shape"/>
</filter>
<filter id="filter3_i_473_40" x="-7.96973" y="11.7907" width="61.0918" height="20.7115" filterUnits="userSpaceOnUse" color-interpolation-filters="sRGB">
<feFlood flood-opacity="0" result="BackgroundImageFix"/>
<feBlend mode="normal" in="SourceGraphic" in2="BackgroundImageFix" result="shape"/>
<feColorMatrix in="SourceAlpha" type="matrix" values="0 0 0 0 0 0 0 0 0 0 0 0 0 0 0 0 0 0 127 0" result="hardAlpha"/>
<feOffset dy="4"/>
<feGaussianBlur stdDeviation="2"/>
<feComposite in2="hardAlpha" operator="arithmetic" k2="-1" k3="1"/>
<feColorMatrix type="matrix" values="0 0 0 0 0 0 0 0 0 0 0 0 0 0 0 0 0 0 0.25 0"/>
<feBlend mode="normal" in2="shape" result="effect1_innerShadow_473_40"/>
</filter>
</defs>
</svg>
