<svg width="103" height="263" viewBox="0 0 103 263" fill="none" xmlns="http://www.w3.org/2000/svg">
<g filter="url(#filter0_d_473_39)">
<path d="M16.8875 19.4516C4.24048 24.1356 -3.64852 29.4856 -12.1612 38.9232C-15.4643 42.585 -17.1615 42.2748 -17.3885 49.1437C-17.6437 56.8645 1.4649 49.528 11.6 42.7975C21.9172 35.9463 41.5693 18.5794 29.7803 16.0336C23.3046 14.6351 22.8865 17.2298 16.8875 19.4516Z" fill="#AC49C5" stroke="#5C0E63"/>
<g filter="url(#filter1_i_473_39)">
<path d="M14.7664 24.9968C6.45605 29.0372 0.941349 32.7587 -5.5087 38.5873C-8.01139 40.8489 -10.8771 42.0838 -11.9507 45.5126C-13.1575 49.3668 3.87526 43.8718 10.9406 39.1613C18.1329 34.3663 29.858 21.2022 23.0533 21.5492C19.3155 21.7398 18.7083 23.0803 14.7664 24.9968Z" fill="#5C0E63"/>
</g>
<path d="M14.7664 24.9968C6.45605 29.0372 0.941349 32.7587 -5.5087 38.5873C-8.01139 40.8489 -10.8771 42.0838 -11.9507 45.5126C-13.1575 49.3668 3.87526 43.8718 10.9406 39.1613C18.1329 34.3663 29.858 21.2022 23.0533 21.5492C19.3155 21.7398 18.7083 23.0803 14.7664 24.9968Z" stroke="#5C0E63"/>
<path d="M0.269115 68.279C-7.12255 64.0862 -15.145 52.4908 -15.145 52.4908C-15.145 52.4908 2.74407 48.7494 12.3216 42.3295C21.8992 35.9096 33.9046 19.6125 33.9046 19.6125C33.9046 19.6125 37.3714 26.7037 39.1827 32.12C40.9939 37.5363 43.1807 47.3512 43.1807 47.3512C43.1807 47.3512 43.422 52.4665 42.1083 55.533C40.7946 58.5994 36.4528 63.0553 36.4528 63.0553C36.4528 63.0553 28.0157 71.5922 21.6903 72.9507C13.2249 74.7689 7.8851 72.599 0.269115 68.279Z" fill="#AC49C5" stroke="#5C0E63"/>
<path d="M33.4938 19.5146C34.4603 20.9564 37.0583 26.2052 38.2366 28.6494C38.2366 28.6494 38.1683 20.38 41.8626 19.129C46.3626 17.6052 50.6759 25.6307 50.4565 26.8017C47.818 40.8842 44.4021 35.9598 41.5922 39.8334L43.8293 47.2894C43.8293 47.2894 47.2877 46.4909 50.7731 42.6349C53.5997 39.5078 56.5924 33.7383 56.5928 29.7783C56.5936 23.6225 55.6451 18.2762 50.4104 14.892C46.5557 12.3999 43.07 11.7638 39.1253 13.5009C36.1851 14.7957 33.4938 19.5146 33.4938 19.5146Z" fill="#AC49C5"/>
<path d="M5.00047 70.7045C5.00047 70.7045 -12.0294 85.8326 -4.88816 88.9005C8.68198 94.7302 19.4089 86.6987 32.8377 79.2848C48.6537 70.553 62.6249 57.8257 63.8347 44.7008C64.3086 39.5608 50.7731 42.6349 50.7731 42.6349C47.2877 46.4909 43.8293 47.2894 43.8293 47.2894C43.8293 47.2894 42.7917 60.6718 33.0295 67.2155C14.9557 79.3305 5.00047 70.7045 5.00047 70.7045Z" fill="#AC49C5"/>
<path d="M43.8293 47.2894L41.5922 39.8334C44.4021 35.9598 47.818 40.8842 50.4565 26.8017C50.6759 25.6307 46.3626 17.6052 41.8626 19.129C38.1683 20.38 38.2366 28.6494 38.2366 28.6494C37.0583 26.2052 34.4603 20.9564 33.4938 19.5146C33.4938 19.5146 36.1851 14.7957 39.1253 13.5009C43.07 11.7638 46.5557 12.3999 50.4104 14.892C55.6451 18.2762 56.5936 23.6225 56.5928 29.7783C56.5924 33.7383 53.5997 39.5078 50.7731 42.6349M43.8293 47.2894C43.8293 47.2894 47.2877 46.4909 50.7731 42.6349M43.8293 47.2894C43.8293 47.2894 42.7917 60.6718 33.0295 67.2155C14.9557 79.3305 5.00048 70.7045 5.00048 70.7045C5.00048 70.7045 -12.0294 85.8326 -4.88816 88.9005C8.68198 94.7302 19.4089 86.6987 32.8377 79.2848C48.6537 70.553 62.6249 57.8257 63.8348 44.7008C64.3086 39.5608 50.7731 42.6349 50.7731 42.6349M43.8293 47.2894L50.7731 42.6349" stroke="#5C0E63"/>
</g>
<g filter="url(#filter2_d_473_39)">
<path d="M1.81979 133.841C26.0465 133.989 42.621 138.234 62.7131 149.081C70.5091 153.29 73.1949 151.704 77.7159 163.309C82.7978 176.354 46.0372 175.686 24.8295 170.477C3.24106 165.175 -40.4805 147.693 -22.0603 136.011C-11.9421 129.594 -9.67193 133.771 1.81979 133.841Z" fill="#D77B7B" stroke="#630E0E"/>
<g filter="url(#filter3_i_473_39)">
<path d="M8.749 142.005C25.248 143.749 36.8232 146.685 51.2505 152.642C56.8485 154.954 62.4425 155.284 66.3248 160.48C70.6886 166.321 38.5504 167.512 23.755 163.849C8.69395 160.12 -19.0795 144.898 -7.35332 141.261C-0.912077 139.264 0.922844 141.179 8.749 142.005Z" fill="#630E0E"/>
</g>
<path d="M8.749 142.005C25.248 143.749 36.8232 146.685 51.2505 152.642C56.8485 154.954 62.4425 155.284 66.3248 160.48C70.6886 166.321 38.5504 167.512 23.755 163.849C8.69395 160.12 -19.0795 144.898 -7.35332 141.261C-0.912077 139.264 0.922844 141.179 8.749 142.005Z" stroke="#630E0E"/>
<path d="M59.3536 207.008C69.3392 195.243 75.9341 170.428 75.9341 170.428C75.9341 170.428 43.4027 175.15 23.3258 170.125C3.24895 165.101 -26.886 144.695 -26.886 144.695C-26.886 144.695 -28.4829 158.976 -28.2865 169.364C-28.0901 179.752 -25.8801 197.896 -25.8801 197.896C-25.8801 197.896 -23.2077 206.793 -19.1374 211.22C-15.0672 215.647 -5.03488 220.568 -5.03488 220.568C-5.03488 220.568 14.3867 229.922 25.911 228.313C41.334 226.16 49.065 219.13 59.3536 207.008Z" fill="#D77B7B" stroke="#630E0E"/>
<path d="M-26.2503 144.272C-27.0178 147.339 -28.2539 157.93 -28.7761 162.842C-28.7761 162.842 -33.6409 148.658 -40.647 148.815C-49.1812 149.007 -51.6483 165.412 -50.5717 167.278C-37.6245 189.72 -34.8087 179.175 -27.72 184.053L-27.0159 198.194C-27.0159 198.194 -33.3502 198.978 -41.5717 194.551C-48.2393 190.96 -56.7792 182.955 -59.1649 176.183C-62.8736 165.657 -64.4881 155.925 -57.6664 146.883C-52.643 140.226 -47.1265 136.971 -39.4037 137.489C-33.6474 137.876 -26.2503 144.272 -26.2503 144.272Z" fill="#D77B7B"/>
<path d="M52.8057 214.098C52.8057 214.098 90.7406 229.381 80.5015 239.067C61.0444 257.471 38.0516 250.405 10.8576 246.075C-21.1704 240.975 -52.4825 227.895 -62.4349 206.203C-66.3326 197.708 -41.5717 194.551 -41.5717 194.551C-33.3502 198.978 -27.0159 198.194 -27.0159 198.194C-27.0159 198.194 -17.1999 220.433 3.26399 225.555C41.1513 235.037 52.8057 214.098 52.8057 214.098Z" fill="#D77B7B"/>
<path d="M-27.0159 198.194L-27.72 184.053C-34.8087 179.175 -37.6245 189.72 -50.5717 167.278C-51.6483 165.412 -49.1812 149.007 -40.647 148.815C-33.6409 148.658 -28.7761 162.842 -28.7761 162.842C-28.2539 157.93 -27.0178 147.339 -26.2503 144.272C-26.2503 144.272 -33.6474 137.876 -39.4037 137.489C-47.1265 136.971 -52.643 140.226 -57.6664 146.883C-64.4881 155.925 -62.8736 165.657 -59.1649 176.183C-56.7792 182.955 -48.2393 190.96 -41.5717 194.551M-27.0159 198.194C-27.0159 198.194 -33.3502 198.978 -41.5717 194.551M-27.0159 198.194C-27.0159 198.194 -17.1999 220.433 3.26399 225.555C41.1513 235.037 52.8057 214.098 52.8057 214.098C52.8057 214.098 90.7406 229.381 80.5015 239.067C61.0445 257.471 38.0516 250.405 10.8576 246.075C-21.1704 240.975 -52.4825 227.895 -62.4349 206.203C-66.3326 197.708 -41.5717 194.551 -41.5717 194.551M-27.0159 198.194L-41.5717 194.551" stroke="#630E0E"/>
</g>
<defs>
<filter id="filter0_d_473_39" x="-21.8911" y="12.0203" width="90.2378" height="87.3826" filterUnits="userSpaceOnUse" color-interpolation-filters="sRGB">
<feFlood flood-opacity="0" result="BackgroundImageFix"/>
<feColorMatrix in="SourceAlpha" type="matrix" values="0 0 0 0 0 0 0 0 0 0 0 0 0 0 0 0 0 0 127 0" result="hardAlpha"/>
<feOffset dy="4"/>
<feGaussianBlur stdDeviation="2"/>
<feComposite in2="hardAlpha" operator="out"/>
<feColorMatrix type="matrix" values="0 0 0 0 0 0 0 0 0 0 0 0 0 0 0 0 0 0 0.25 0"/>
<feBlend mode="normal" in2="BackgroundImageFix" result="effect1_dropShadow_473_39"/>
<feBlend mode="normal" in="SourceGraphic" in2="effect1_dropShadow_473_39" result="shape"/>
</filter>
<filter id="filter1_i_473_39" x="-12.5117" y="21.0425" width="38.1138" height="30.27" filterUnits="userSpaceOnUse" color-interpolation-filters="sRGB">
<feFlood flood-opacity="0" result="BackgroundImageFix"/>
<feBlend mode="normal" in="SourceGraphic" in2="BackgroundImageFix" result="shape"/>
<feColorMatrix in="SourceAlpha" type="matrix" values="0 0 0 0 0 0 0 0 0 0 0 0 0 0 0 0 0 0 127 0" result="hardAlpha"/>
<feOffset dy="4"/>
<feGaussianBlur stdDeviation="2"/>
<feComposite in2="hardAlpha" operator="arithmetic" k2="-1" k3="1"/>
<feColorMatrix type="matrix" values="0 0 0 0 0 0 0 0 0 0 0 0 0 0 0 0 0 0 0.25 0"/>
<feBlend mode="normal" in2="shape" result="effect1_innerShadow_473_39"/>
</filter>
<filter id="filter2_d_473_39" x="-67.3511" y="131.941" width="154.106" height="127.655" filterUnits="userSpaceOnUse" color-interpolation-filters="sRGB">
<feFlood flood-opacity="0" result="BackgroundImageFix"/>
<feColorMatrix in="SourceAlpha" type="matrix" values="0 0 0 0 0 0 0 0 0 0 0 0 0 0 0 0 0 0 127 0" result="hardAlpha"/>
<feOffset dy="4"/>
<feGaussianBlur stdDeviation="2"/>
<feComposite in2="hardAlpha" operator="out"/>
<feColorMatrix type="matrix" values="0 0 0 0 0 0 0 0 0 0 0 0 0 0 0 0 0 0 0.25 0"/>
<feBlend mode="normal" in2="BackgroundImageFix" result="effect1_dropShadow_473_39"/>
<feBlend mode="normal" in="SourceGraphic" in2="effect1_dropShadow_473_39" result="shape"/>
</filter>
<filter id="filter3_i_473_39" x="-10.667" y="139.882" width="77.8955" height="30.552" filterUnits="userSpaceOnUse" color-interpolation-filters="sRGB">
<feFlood flood-opacity="0" result="BackgroundImageFix"/>
<feBlend mode="normal" in="SourceGraphic" in2="BackgroundImageFix" result="shape"/>
<feColorMatrix in="SourceAlpha" type="matrix" values="0 0 0 0 0 0 0 0 0 0 0 0 0 0 0 0 0 0 127 0" result="hardAlpha"/>
<feOffset dy="4"/>
<feGaussianBlur stdDeviation="2"/>
<feComposite in2="hardAlpha" operator="arithmetic" k2="-1" k3="1"/>
<feColorMatrix type="matrix" values="0 0 0 0 0 0 0 0 0 0 0 0 0 0 0 0 0 0 0.25 0"/>
<feBlend mode="normal" in2="shape" result="effect1_innerShadow_473_39"/>
</filter>
</defs>
</svg>
