<svg width="76" height="70" viewBox="0 0 76 70" fill="none" xmlns="http://www.w3.org/2000/svg">
<g filter="url(#filter0_i_473_31)">
<path d="M2 50.9396L25.3828 39.4595C25.3828 39.4595 14.9468 36.4168 11.8649 30.4474C8.78289 24.4781 6.93243 20.3685 6.93243 20.3685C14.1667 20.3685 27.6486 18.3305 31.5946 18.3305C35.5405 18.3305 42.4459 6.78138 45.4054 1.00684C45.4054 1.00684 52.7662 7.44074 55.2703 12.2162C57.7744 16.9917 57.2432 24.4447 57.2432 24.4447L75 36.6731L55.2703 48.2487C55.2703 48.2487 54.4739 58.037 47.3784 63.5343C42.7554 67.1159 27.6641 68.5737 27.6641 68.5737L34.5078 55.9393H19.1094C12.1749 55.9393 2 50.9396 2 50.9396Z" fill="#FC59F2"/>
</g>
<path d="M2 50.9396L25.3828 39.4595C25.3828 39.4595 14.9468 36.4168 11.8649 30.4474C8.78289 24.4781 6.93243 20.3685 6.93243 20.3685C14.1667 20.3685 27.6486 18.3305 31.5946 18.3305C35.5405 18.3305 42.4459 6.78138 45.4054 1.00684C45.4054 1.00684 52.7662 7.44074 55.2703 12.2162C57.7744 16.9917 57.2432 24.4447 57.2432 24.4447L75 36.6731L55.2703 48.2487C55.2703 48.2487 54.4739 58.037 47.3784 63.5343C42.7554 67.1159 27.6641 68.5737 27.6641 68.5737L34.5078 55.9393H19.1094C12.1749 55.9393 2 50.9396 2 50.9396Z" stroke="#7E066A"/>
<path d="M34.5542 38.7112C34.5542 38.7112 37.1693 44.0174 39.866 44.7216C42.5628 45.4257 48.365 42.3174 48.365 42.3174" stroke="#84008A" stroke-linecap="round"/>
<path d="M32.5815 24.4449C32.5815 24.4449 33.7023 22.6761 34.8581 22.4414C36.0138 22.2067 38.5005 23.2428 38.5005 23.2428" stroke="#84008A" stroke-width="0.7" stroke-linecap="round"/>
<path d="M48.2109 25.6578C48.2109 25.6578 49.7363 24.2485 50.9114 24.3304C52.0866 24.4122 54.2295 26.0772 54.2295 26.0772" stroke="#84008A" stroke-width="0.7" stroke-linecap="round"/>
<ellipse cx="36.5272" cy="29.5399" rx="1.97297" ry="3.05711" fill="#901B8E"/>
<ellipse cx="50.3377" cy="31.5779" rx="1.97297" ry="3.05711" fill="#901B8E"/>
<defs>
<filter id="filter0_i_473_31" x="0.865723" y="0.209045" width="75.0649" height="72.9527" filterUnits="userSpaceOnUse" color-interpolation-filters="sRGB">
<feFlood flood-opacity="0" result="BackgroundImageFix"/>
<feBlend mode="normal" in="SourceGraphic" in2="BackgroundImageFix" result="shape"/>
<feColorMatrix in="SourceAlpha" type="matrix" values="0 0 0 0 0 0 0 0 0 0 0 0 0 0 0 0 0 0 127 0" result="hardAlpha"/>
<feOffset dy="4"/>
<feGaussianBlur stdDeviation="2"/>
<feComposite in2="hardAlpha" operator="arithmetic" k2="-1" k3="1"/>
<feColorMatrix type="matrix" values="0 0 0 0 0.564706 0 0 0 0 0.105882 0 0 0 0 0.556863 0 0 0 0.56 0"/>
<feBlend mode="normal" in2="shape" result="effect1_innerShadow_473_31"/>
</filter>
</defs>
</svg>
