<svg width="166" height="164" viewBox="0 0 166 164" fill="none" xmlns="http://www.w3.org/2000/svg">
<path fill-rule="evenodd" clip-rule="evenodd" d="M66.2814 77.7732C66.2814 77.7732 142.285 170.432 155.197 162.327C164.733 156.341 150.332 136.771 150.332 136.771C150.332 136.771 174.727 126.048 160.67 114.081C156.655 110.663 152.395 115.238 147.905 119.362C143.636 123.284 139.426 127.151 135.796 124.371C131.72 121.25 135.698 115.741 139.526 110.441C142.945 105.706 146.244 101.137 143.573 98.5863C132.415 87.9298 119.049 112.082 119.049 112.082L78.0968 63.1418C78.0968 63.1418 116.208 44.2876 101.06 19.5764C83.7096 -8.72833 50.7494 12.1286 50.7494 12.1286C50.7494 12.1286 35.3929 -10.7615 10.4694 9.66109C-12.9779 28.8741 14.1938 53.6323 14.1938 53.6323C14.1938 53.6323 -5.05505 76.83 23.0969 96.66C42.5868 110.389 66.2814 77.7732 66.2814 77.7732ZM62.5942 21.397C57.7252 27.7264 56.5753 36.0964 61.6192 41.9952C65.4823 46.513 73.339 48.8125 79.0598 46.6783C86.9269 43.7434 90.454 31.3865 85.7218 24.7201C81.5083 18.7845 69.5929 12.2994 62.5942 21.397ZM26.6643 57.4383C18.77 62.1407 19.7566 78.2688 26.8905 83.6518C34.4774 89.3767 48.623 82.5485 51.5804 73.3202C55.8827 59.8952 42.2784 61.9682 42.2784 61.9682C42.2784 61.9682 36.9482 51.3124 26.6643 57.4383ZM26.9098 43.2126C17.762 42.2041 9.85602 27.6362 16.1194 20.7057C24.1454 11.8249 33.1919 13.5902 38.4498 18.9072C49.3116 29.8914 39.5093 37.8383 39.5093 37.8383C39.5093 37.8383 31.6781 43.7383 26.9098 43.2126Z" fill="#FCC05F" stroke="#FBAF44"/>
</svg>
