<svg width="124" height="79" viewBox="0 0 124 79" fill="none" xmlns="http://www.w3.org/2000/svg">
<g filter="url(#filter0_n_473_38)">
<path d="M76.0907 26.5416C71.0221 35.8065 52.1881 41.6845 52.1881 41.6845C52.1881 41.6845 63.0737 30.523 67.0963 23.3254C71.6873 15.1109 65.1388 8.94777 74.1202 7.56952C80.4607 6.59655 81.1183 17.3515 76.0907 26.5416Z" fill="#D71C1C"/>
<path d="M76.0907 26.5416C71.0221 35.8065 52.1881 41.6845 52.1881 41.6845C52.1881 41.6845 63.0737 30.523 67.0963 23.3254C71.6873 15.1109 65.1388 8.94777 74.1202 7.56952C80.4607 6.59655 81.1183 17.3515 76.0907 26.5416Z" stroke="#6D0F0F"/>
</g>
<g filter="url(#filter1_n_473_38)">
<path d="M67.2355 15.4103C67.2355 15.4103 67.024 12.4449 68.2242 10.8703C69.4689 9.23728 72.0472 7.14375 72.0472 7.14375L71.0736 2.75988L74.2247 1.63322L75.5916 6.6377C75.5916 6.6377 77.6994 7.4076 78.4513 8.30473C79.6061 9.6825 79.9165 13.4644 79.9165 13.4644L76.0865 10.6726L73.4777 14.2822L72.26 11.14L67.2355 15.4103Z" fill="#416E24"/>
<path d="M67.2355 15.4103C67.2355 15.4103 67.024 12.4449 68.2242 10.8703C69.4689 9.23728 72.0472 7.14375 72.0472 7.14375L71.0736 2.75988L74.2247 1.63322L75.5916 6.6377C75.5916 6.6377 77.6994 7.4076 78.4513 8.30473C79.6061 9.6825 79.9165 13.4644 79.9165 13.4644L76.0865 10.6726L73.4777 14.2822L72.26 11.14L67.2355 15.4103Z" stroke="#496D0F"/>
</g>
<g filter="url(#filter2_n_473_38)">
<path d="M96 63.0002C74.7742 76.922 31 63.0002 31 63.0002C31 63.0002 65.8454 53.1916 82.5 42.5002C101.508 30.2982 96.377 6.58443 115.5 16.5C129 23.4999 117.054 49.1908 96 63.0002Z" fill="#D71C1C"/>
<path d="M96 63.0002C74.7742 76.922 31 63.0002 31 63.0002C31 63.0002 65.8454 53.1916 82.5 42.5002C101.508 30.2982 96.377 6.58443 115.5 16.5C129 23.4999 117.054 49.1908 96 63.0002Z" stroke="#6D0F0F"/>
</g>
<g filter="url(#filter3_n_473_38)">
<path d="M92.5 24.5C92.5 24.5 95.7352 17.3725 100 15.5C104.423 13.558 112 12.5 112 12.5L115.5 1L123 3L119.5 16.5C119.5 16.5 122.644 21.3414 123 24.5C123.547 29.3508 119.5 38.5 119.5 38.5L115.5 26.5L106 31L107.5 22L92.5 24.5Z" fill="#416E24"/>
<path d="M92.5 24.5C92.5 24.5 95.7352 17.3725 100 15.5C104.423 13.558 112 12.5 112 12.5L115.5 1L123 3L119.5 16.5C119.5 16.5 122.644 21.3414 123 24.5C123.547 29.3508 119.5 38.5 119.5 38.5L115.5 26.5L106 31L107.5 22L92.5 24.5Z" stroke="#496D0F"/>
</g>
<g filter="url(#filter4_n_473_38)">
<path d="M11.1642 61.5416C16.2327 70.8065 35.0668 76.6845 35.0668 76.6845C35.0668 76.6845 24.1812 65.523 20.1586 58.3254C15.5676 50.1109 22.1161 43.9478 13.1347 42.5695C6.79419 41.5965 6.13654 52.3515 11.1642 61.5416Z" fill="#D71C1C"/>
<path d="M11.1642 61.5416C16.2327 70.8065 35.0668 76.6845 35.0668 76.6845C35.0668 76.6845 24.1812 65.523 20.1586 58.3254C15.5676 50.1109 22.1161 43.9478 13.1347 42.5695C6.79419 41.5965 6.13654 52.3515 11.1642 61.5416Z" stroke="#6D0F0F"/>
</g>
<g filter="url(#filter5_n_473_38)">
<path d="M20.0194 50.4103C20.0194 50.4103 20.2309 47.4449 19.0307 45.8703C17.786 44.2373 15.2076 42.1438 15.2076 42.1438L16.1813 37.7599L13.0302 36.6332L11.6633 41.6377C11.6633 41.6377 9.55549 42.4076 8.80356 43.3047C7.64878 44.6825 7.33842 48.4644 7.33842 48.4644L11.1684 45.6726L13.7772 49.2822L14.9949 46.14L20.0194 50.4103Z" fill="#416E24"/>
<path d="M20.0194 50.4103C20.0194 50.4103 20.2309 47.4449 19.0307 45.8703C17.786 44.2373 15.2076 42.1438 15.2076 42.1438L16.1813 37.7599L13.0302 36.6332L11.6633 41.6377C11.6633 41.6377 9.55549 42.4076 8.80356 43.3047C7.64878 44.6825 7.33842 48.4644 7.33842 48.4644L11.1684 45.6726L13.7772 49.2822L14.9949 46.14L20.0194 50.4103Z" stroke="#496D0F"/>
</g>
<defs>
<filter id="filter0_n_473_38" x="51.8301" y="7.00806" width="28.0952" height="35.1538" filterUnits="userSpaceOnUse" color-interpolation-filters="sRGB">
<feFlood flood-opacity="0" result="BackgroundImageFix"/>
<feBlend mode="normal" in="SourceGraphic" in2="BackgroundImageFix" result="shape"/>
<feTurbulence type="fractalNoise" baseFrequency="2 2" stitchTiles="stitch" numOctaves="3" result="noise" seed="9673" />
<feColorMatrix in="noise" type="luminanceToAlpha" result="alphaNoise" />
<feComponentTransfer in="alphaNoise" result="coloredNoise1">
<feFuncA type="discrete" tableValues="1 1 1 1 1 1 1 1 1 1 1 1 1 1 1 1 1 1 1 1 1 1 1 1 1 1 1 1 1 1 1 1 1 1 1 1 1 1 1 1 1 1 1 1 1 1 1 1 1 1 1 0 0 0 0 0 0 0 0 0 0 0 0 0 0 0 0 0 0 0 0 0 0 0 0 0 0 0 0 0 0 0 0 0 0 0 0 0 0 0 0 0 0 0 0 0 0 0 0 0 "/>
</feComponentTransfer>
<feComposite operator="in" in2="shape" in="coloredNoise1" result="noise1Clipped" />
<feFlood flood-color="rgba(0, 0, 0, 0.25)" result="color1Flood" />
<feComposite operator="in" in2="noise1Clipped" in="color1Flood" result="color1" />
<feMerge result="effect1_noise_473_38">
<feMergeNode in="shape" />
<feMergeNode in="color1" />
</feMerge>
</filter>
<filter id="filter1_n_473_38" x="66.7212" y="0.980591" width="13.7827" height="15.4501" filterUnits="userSpaceOnUse" color-interpolation-filters="sRGB">
<feFlood flood-opacity="0" result="BackgroundImageFix"/>
<feBlend mode="normal" in="SourceGraphic" in2="BackgroundImageFix" result="shape"/>
<feTurbulence type="fractalNoise" baseFrequency="2 2" stitchTiles="stitch" numOctaves="3" result="noise" seed="8019" />
<feColorMatrix in="noise" type="luminanceToAlpha" result="alphaNoise" />
<feComponentTransfer in="alphaNoise" result="coloredNoise1">
<feFuncA type="discrete" tableValues="1 1 1 1 1 1 1 1 1 1 1 1 1 1 1 1 1 1 1 1 1 1 1 1 1 1 1 1 1 1 1 1 1 1 1 1 1 1 1 1 1 1 1 1 1 1 1 1 1 1 1 0 0 0 0 0 0 0 0 0 0 0 0 0 0 0 0 0 0 0 0 0 0 0 0 0 0 0 0 0 0 0 0 0 0 0 0 0 0 0 0 0 0 0 0 0 0 0 0 0 "/>
</feComponentTransfer>
<feComposite operator="in" in2="shape" in="coloredNoise1" result="noise1Clipped" />
<feFlood flood-color="rgba(0, 0, 0, 0.25)" result="color1Flood" />
<feComposite operator="in" in2="noise1Clipped" in="color1Flood" result="color1" />
<feMerge result="effect1_noise_473_38">
<feMergeNode in="shape" />
<feMergeNode in="color1" />
</feMerge>
</filter>
<filter id="filter2_n_473_38" x="29.2583" y="13.6354" width="92.4658" height="56.0522" filterUnits="userSpaceOnUse" color-interpolation-filters="sRGB">
<feFlood flood-opacity="0" result="BackgroundImageFix"/>
<feBlend mode="normal" in="SourceGraphic" in2="BackgroundImageFix" result="shape"/>
<feTurbulence type="fractalNoise" baseFrequency="2 2" stitchTiles="stitch" numOctaves="3" result="noise" seed="9673" />
<feColorMatrix in="noise" type="luminanceToAlpha" result="alphaNoise" />
<feComponentTransfer in="alphaNoise" result="coloredNoise1">
<feFuncA type="discrete" tableValues="1 1 1 1 1 1 1 1 1 1 1 1 1 1 1 1 1 1 1 1 1 1 1 1 1 1 1 1 1 1 1 1 1 1 1 1 1 1 1 1 1 1 1 1 1 1 1 1 1 1 1 0 0 0 0 0 0 0 0 0 0 0 0 0 0 0 0 0 0 0 0 0 0 0 0 0 0 0 0 0 0 0 0 0 0 0 0 0 0 0 0 0 0 0 0 0 0 0 0 0 "/>
</feComponentTransfer>
<feComposite operator="in" in2="shape" in="coloredNoise1" result="noise1Clipped" />
<feFlood flood-color="rgba(0, 0, 0, 0.25)" result="color1Flood" />
<feComposite operator="in" in2="noise1Clipped" in="color1Flood" result="color1" />
<feMerge result="effect1_noise_473_38">
<feMergeNode in="shape" />
<feMergeNode in="color1" />
</feMerge>
</filter>
<filter id="filter3_n_473_38" x="91.6572" y="0.392456" width="31.9512" height="39.4918" filterUnits="userSpaceOnUse" color-interpolation-filters="sRGB">
<feFlood flood-opacity="0" result="BackgroundImageFix"/>
<feBlend mode="normal" in="SourceGraphic" in2="BackgroundImageFix" result="shape"/>
<feTurbulence type="fractalNoise" baseFrequency="2 2" stitchTiles="stitch" numOctaves="3" result="noise" seed="8019" />
<feColorMatrix in="noise" type="luminanceToAlpha" result="alphaNoise" />
<feComponentTransfer in="alphaNoise" result="coloredNoise1">
<feFuncA type="discrete" tableValues="1 1 1 1 1 1 1 1 1 1 1 1 1 1 1 1 1 1 1 1 1 1 1 1 1 1 1 1 1 1 1 1 1 1 1 1 1 1 1 1 1 1 1 1 1 1 1 1 1 1 1 0 0 0 0 0 0 0 0 0 0 0 0 0 0 0 0 0 0 0 0 0 0 0 0 0 0 0 0 0 0 0 0 0 0 0 0 0 0 0 0 0 0 0 0 0 0 0 0 0 "/>
</feComponentTransfer>
<feComposite operator="in" in2="shape" in="coloredNoise1" result="noise1Clipped" />
<feFlood flood-color="rgba(0, 0, 0, 0.25)" result="color1Flood" />
<feComposite operator="in" in2="noise1Clipped" in="color1Flood" result="color1" />
<feMerge result="effect1_noise_473_38">
<feMergeNode in="shape" />
<feMergeNode in="color1" />
</feMerge>
</filter>
<filter id="filter4_n_473_38" x="7.32959" y="42.0081" width="28.0952" height="35.1538" filterUnits="userSpaceOnUse" color-interpolation-filters="sRGB">
<feFlood flood-opacity="0" result="BackgroundImageFix"/>
<feBlend mode="normal" in="SourceGraphic" in2="BackgroundImageFix" result="shape"/>
<feTurbulence type="fractalNoise" baseFrequency="2 2" stitchTiles="stitch" numOctaves="3" result="noise" seed="9673" />
<feColorMatrix in="noise" type="luminanceToAlpha" result="alphaNoise" />
<feComponentTransfer in="alphaNoise" result="coloredNoise1">
<feFuncA type="discrete" tableValues="1 1 1 1 1 1 1 1 1 1 1 1 1 1 1 1 1 1 1 1 1 1 1 1 1 1 1 1 1 1 1 1 1 1 1 1 1 1 1 1 1 1 1 1 1 1 1 1 1 1 1 0 0 0 0 0 0 0 0 0 0 0 0 0 0 0 0 0 0 0 0 0 0 0 0 0 0 0 0 0 0 0 0 0 0 0 0 0 0 0 0 0 0 0 0 0 0 0 0 0 "/>
</feComponentTransfer>
<feComposite operator="in" in2="shape" in="coloredNoise1" result="noise1Clipped" />
<feFlood flood-color="rgba(0, 0, 0, 0.25)" result="color1Flood" />
<feComposite operator="in" in2="noise1Clipped" in="color1Flood" result="color1" />
<feMerge result="effect1_noise_473_38">
<feMergeNode in="shape" />
<feMergeNode in="color1" />
</feMerge>
</filter>
<filter id="filter5_n_473_38" x="6.75098" y="35.9806" width="13.7827" height="15.4501" filterUnits="userSpaceOnUse" color-interpolation-filters="sRGB">
<feFlood flood-opacity="0" result="BackgroundImageFix"/>
<feBlend mode="normal" in="SourceGraphic" in2="BackgroundImageFix" result="shape"/>
<feTurbulence type="fractalNoise" baseFrequency="2 2" stitchTiles="stitch" numOctaves="3" result="noise" seed="8019" />
<feColorMatrix in="noise" type="luminanceToAlpha" result="alphaNoise" />
<feComponentTransfer in="alphaNoise" result="coloredNoise1">
<feFuncA type="discrete" tableValues="1 1 1 1 1 1 1 1 1 1 1 1 1 1 1 1 1 1 1 1 1 1 1 1 1 1 1 1 1 1 1 1 1 1 1 1 1 1 1 1 1 1 1 1 1 1 1 1 1 1 1 0 0 0 0 0 0 0 0 0 0 0 0 0 0 0 0 0 0 0 0 0 0 0 0 0 0 0 0 0 0 0 0 0 0 0 0 0 0 0 0 0 0 0 0 0 0 0 0 0 "/>
</feComponentTransfer>
<feComposite operator="in" in2="shape" in="coloredNoise1" result="noise1Clipped" />
<feFlood flood-color="rgba(0, 0, 0, 0.25)" result="color1Flood" />
<feComposite operator="in" in2="noise1Clipped" in="color1Flood" result="color1" />
<feMerge result="effect1_noise_473_38">
<feMergeNode in="shape" />
<feMergeNode in="color1" />
</feMerge>
</filter>
</defs>
</svg>
