<svg width="207" height="196" viewBox="0 0 207 196" fill="none" xmlns="http://www.w3.org/2000/svg">
<path d="M95.7298 144.709L90.1156 146.065C90.1156 146.065 91.3602 145.43 91.834 144.627C92.3078 143.823 92.5013 141.991 92.5013 141.991C92.5013 141.991 92.8212 143.304 93.4665 143.83C94.148 144.385 95.7298 144.709 95.7298 144.709Z" fill="#111110" stroke="#353333"/>
<g filter="url(#filter0_d_478_133)">
<path d="M101.073 99.9282C100.084 101.951 77.2679 114.719 77.2679 114.719L72.8411 106.403C72.8411 106.403 69.1995 100.293 70.523 98.4336C71.8464 96.5744 81.2423 90.9155 81.2423 90.9155L93.0421 84.1534L97.8287 91.7344C97.8287 91.7344 102.062 97.9054 101.073 99.9282Z" fill="#FDF9EF"/>
<path d="M101.073 99.9282C100.084 101.951 77.2679 114.719 77.2679 114.719L72.8411 106.403C72.8411 106.403 69.1995 100.293 70.523 98.4336C71.8464 96.5744 81.2423 90.9155 81.2423 90.9155L93.0421 84.1534L97.8287 91.7344C97.8287 91.7344 102.062 97.9054 101.073 99.9282Z" stroke="#FDFAEF"/>
</g>
<path d="M80.3513 103.011L82.3854 96.2036L90.6693 96.2084L87.3622 102.972L80.3513 103.011Z" fill="#E25236" stroke="#EA4027"/>
<path d="M85.8969 92.9168C85.5976 92.4498 85.4428 91.976 85.4323 91.4954C85.415 91.0201 85.5891 90.6434 85.9546 90.3652C86.2167 90.1658 86.445 90.0897 86.6395 90.1371C86.8271 90.1897 86.9537 90.2671 87.0191 90.3692C87.0566 90.4276 87.0721 90.4918 87.0656 90.5618C87.057 90.6444 87.0334 90.7437 86.995 90.8599C86.9454 91.0387 86.9322 91.2822 86.9552 91.5903C86.9714 91.9037 87.094 92.2391 87.3232 92.5967C87.5711 92.9834 87.8515 93.2368 88.1644 93.3568C88.482 93.4842 88.7857 93.4377 89.0753 93.2172C89.3029 93.044 89.4378 92.8383 89.48 92.5999C89.5269 92.3688 89.531 92.1431 89.4924 91.9228C89.4255 91.6264 89.3158 91.3191 89.1632 91.001C89.1327 90.9373 89.1137 90.8758 89.1064 90.8162C89.1059 90.7515 89.1353 90.6694 89.1947 90.5699C89.2906 90.3992 89.4075 90.2614 89.5454 90.1565C89.6212 90.0987 89.6973 90.0734 89.7737 90.0804C89.85 90.0875 89.9288 90.1143 90.0101 90.1611C90.1657 90.2598 90.3502 90.3636 90.5637 90.4725C90.7887 90.5835 91.0192 90.6469 91.2551 90.6628C91.4957 90.686 91.7263 90.6136 91.947 90.4456C92.2022 90.2514 92.3172 90.0227 92.2922 89.7595C92.2787 89.4984 92.1972 89.2511 92.0475 89.0176C91.8979 88.7841 91.7243 88.6014 91.5269 88.4694C91.3363 88.3322 91.1807 88.2335 91.0601 88.1733C90.8931 88.1049 90.7886 88.0379 90.7465 87.9723C90.6811 87.8701 90.686 87.7578 90.7614 87.6353C90.8368 87.5128 90.9193 87.4174 91.009 87.3492C91.1262 87.2599 91.2611 87.2062 91.4135 87.1879C91.5775 87.1716 91.765 87.208 91.976 87.2971C92.2843 87.4099 92.5479 87.573 92.7667 87.7864C92.9902 88.0071 93.1768 88.2341 93.3265 88.4676C93.6725 89.0076 93.8139 89.5242 93.7504 90.0176C93.6939 90.5057 93.4622 90.9046 93.0553 91.2143C92.7104 91.4767 92.3243 91.6186 91.8968 91.64C91.4693 91.6614 91.0816 91.5927 90.7337 91.4341C90.8803 91.887 90.888 92.3154 90.7569 92.7191C90.6304 93.1302 90.3638 93.4905 89.9569 93.8002C89.5086 94.1414 89.0314 94.3254 88.5254 94.3523C88.0171 94.3917 87.5343 94.2869 87.0771 94.0377C86.613 93.7939 86.2196 93.4202 85.8969 92.9168Z" fill="#EE4E2C"/>
<path d="M85.8379 106.964C86.1372 107.431 86.2921 107.905 86.3025 108.385C86.3199 108.861 86.1458 109.237 85.7803 109.516C85.5182 109.715 85.2899 109.791 85.0954 109.744C84.9077 109.691 84.7812 109.614 84.7157 109.512C84.6783 109.453 84.6628 109.389 84.6692 109.319C84.6779 109.236 84.7014 109.137 84.7399 109.021C84.7894 108.842 84.8027 108.599 84.7796 108.291C84.7635 107.977 84.6408 107.642 84.4117 107.284C84.1638 106.897 83.8834 106.644 83.5705 106.524C83.2528 106.397 82.9492 106.443 82.6595 106.664C82.4319 106.837 82.297 107.043 82.2549 107.281C82.208 107.512 82.2039 107.738 82.2425 107.958C82.3094 108.254 82.4191 108.562 82.5717 108.88C82.6022 108.944 82.6211 109.005 82.6285 109.065C82.629 109.129 82.5995 109.212 82.5401 109.311C82.4443 109.482 82.3274 109.619 82.1895 109.724C82.1136 109.782 82.0375 109.807 81.9612 109.8C81.8848 109.793 81.8061 109.767 81.7248 109.72C81.5692 109.621 81.3847 109.517 81.1712 109.408C80.9462 109.297 80.7157 109.234 80.4798 109.218C80.2392 109.195 80.0086 109.267 79.7879 109.435C79.5327 109.629 79.4176 109.858 79.4427 110.121C79.4561 110.382 79.5377 110.63 79.6873 110.863C79.837 111.097 80.0105 111.279 80.208 111.411C80.3985 111.549 80.5541 111.647 80.6748 111.708C80.8417 111.776 80.9462 111.843 80.9883 111.909C81.0538 112.011 81.0488 112.123 80.9735 112.246C80.8981 112.368 80.8155 112.463 80.7259 112.532C80.6086 112.621 80.4738 112.675 80.3214 112.693C80.1574 112.709 79.9698 112.673 79.7588 112.584C79.4506 112.471 79.187 112.308 78.9681 112.094C78.7446 111.874 78.558 111.647 78.4084 111.413C78.0623 110.873 77.921 110.357 77.9844 109.863C78.041 109.375 78.2727 108.976 78.6796 108.667C79.0244 108.404 79.4106 108.262 79.8381 108.241C80.2656 108.22 80.6533 108.288 81.0012 108.447C80.8546 107.994 80.8468 107.565 80.978 107.162C81.1044 106.751 81.3711 106.39 81.778 106.081C82.2263 105.74 82.7034 105.555 83.2095 105.529C83.7178 105.489 84.2005 105.594 84.6577 105.843C85.1218 106.087 85.5152 106.461 85.8379 106.964Z" fill="#EE4E2C"/>
<g filter="url(#filter1_d_478_133)">
<path d="M103.849 44.6439C102.054 48.3162 60.6586 71.5104 60.6586 71.5104L52.6354 56.4184C52.6354 56.4184 46.035 45.3314 48.437 41.9555C50.839 38.5797 67.8867 28.3005 67.8867 28.3005L89.2956 16.017L97.9717 29.7736C97.9717 29.7736 105.645 40.9715 103.849 44.6439Z" fill="#FDF9EF"/>
<path d="M103.849 44.6439C102.054 48.3162 60.6586 71.5104 60.6586 71.5104L52.6354 56.4184C52.6354 56.4184 46.035 45.3314 48.437 41.9555C50.839 38.5797 67.8867 28.3005 67.8867 28.3005L89.2956 16.017L97.9717 29.7736C97.9717 29.7736 105.645 40.9715 103.849 44.6439Z" stroke="#FDFAEF"/>
</g>
<path d="M80.3436 30.1517C79.8969 29.3781 79.5639 28.6953 79.3447 28.1032C79.1213 27.5302 79.0832 27.0791 79.2306 26.7498C79.2696 26.6579 79.3414 26.5431 79.446 26.4055C79.5506 26.2679 79.6576 26.1609 79.767 26.0847C80.1062 25.8485 80.4205 25.8481 80.7099 26.0837C81.2507 26.4356 81.7924 26.7626 82.335 27.0647C82.8776 27.3667 83.4352 27.6017 84.0077 27.7696C84.9943 28.07 85.7064 28.0678 86.1441 27.763C86.3629 27.6106 86.4846 27.3963 86.5092 27.1201C86.5338 26.8439 86.4461 26.5326 86.2461 26.1862C86.0927 25.9207 85.8932 25.6549 85.6475 25.3888C85.4085 25.1343 85.1622 24.9336 84.9085 24.7865C84.7519 24.7012 84.6129 24.62 84.4915 24.5426C84.3877 24.4692 84.3092 24.3863 84.2558 24.2939C84.1692 24.1438 84.1736 23.9788 84.2692 23.7989C84.3647 23.619 84.4946 23.4719 84.6587 23.3576C84.8447 23.228 85.0552 23.1542 85.2903 23.1362C85.5429 23.1222 85.8401 23.1985 86.1819 23.3652C86.5412 23.5359 86.8923 23.7851 87.2351 24.1131C87.5955 24.4449 87.909 24.8418 88.1757 25.3036C88.5958 26.031 88.7663 26.738 88.6871 27.4246C88.6256 28.1151 88.3049 28.6622 87.725 29.0661C87.3531 29.3252 86.942 29.4901 86.4919 29.5608C86.0527 29.6238 85.6142 29.6216 85.1764 29.5542C84.512 29.4664 83.8569 29.2751 83.211 28.9802C82.5652 28.6853 81.9894 28.3658 81.4839 28.0218C81.5863 28.2257 81.7154 28.4758 81.8712 28.772C82.0379 29.0607 82.1712 29.2916 82.2712 29.4648C82.6646 30.1461 82.9994 30.5929 83.2755 30.8054C83.5625 31.0102 83.826 31.1343 84.0658 31.1777C84.2881 31.2172 84.4258 31.2832 84.4792 31.3755C84.5525 31.5025 84.5383 31.6905 84.4366 31.9395C84.3525 32.1923 84.1628 32.4216 83.8674 32.6274C83.2985 33.0237 82.7346 33.0036 82.1757 32.5671C81.6344 32.1346 81.0237 31.3295 80.3436 30.1517Z" fill="#E25236"/>
<path d="M70.018 59.1121C69.5792 58.3339 69.1652 57.7078 68.7758 57.2337C68.404 56.7637 68.0512 56.53 67.7172 56.5328C67.6249 56.5315 67.4996 56.5527 67.3413 56.5964C67.1829 56.6402 67.0487 56.6996 66.9386 56.7748C66.5972 57.0078 66.4599 57.3187 66.5266 57.7075C66.579 58.3955 66.6106 59.0736 66.6213 59.7418C66.6321 60.41 66.5814 61.0639 66.4692 61.7034C66.2851 62.8103 65.9727 63.5141 65.5322 63.8148C65.312 63.9651 65.0834 63.9925 64.8465 63.8969C64.6096 63.8012 64.3929 63.5792 64.1964 63.2308C64.0458 62.9637 63.9151 62.6508 63.8043 62.2921C63.7001 61.945 63.6431 61.614 63.6333 61.299C63.6318 61.107 63.6258 60.9342 63.6154 60.7804C63.6005 60.6458 63.5668 60.5321 63.5145 60.4392C63.4293 60.2882 63.2923 60.2209 63.1033 60.2373C62.9143 60.2537 62.7372 60.3183 62.572 60.4311C62.3848 60.5589 62.2325 60.7352 62.1153 60.96C61.9936 61.2039 61.9265 61.5312 61.914 61.9418C61.8971 62.3716 61.9481 62.8273 62.0672 63.309C62.1818 63.8098 62.3701 64.2925 62.6321 64.757C63.0447 65.4887 63.5494 65.9645 64.1461 66.1845C64.7385 66.4235 65.3264 66.3438 65.9101 65.9454C66.2845 65.6898 66.5988 65.3547 66.853 64.9399C67.0961 64.5326 67.2855 64.0977 67.4212 63.6352C67.639 62.9396 67.768 62.2082 67.8082 61.4409C67.8483 60.6736 67.8377 59.9651 67.7763 59.3153C67.8987 59.5052 68.0472 59.7416 68.2219 60.0245C68.3857 60.3148 68.5166 60.5471 68.6149 60.7213C69.0013 61.4066 69.2212 61.9319 69.2748 62.2975C69.3174 62.6705 69.3042 62.9851 69.2352 63.2414C69.1706 63.4785 69.1645 63.6435 69.2169 63.7364C69.2889 63.8641 69.4491 63.9318 69.6973 63.9392C69.9411 63.9658 70.2116 63.8777 70.509 63.6747C71.0816 63.2838 71.311 62.717 71.1973 61.9744C71.0791 61.2508 70.686 60.2967 70.018 59.1121Z" fill="#E25236"/>
<g filter="url(#filter2_d_478_133)">
<path d="M82.0525 131.586C81.0634 133.609 84.9973 159.457 84.9973 159.457L94.2795 157.843C94.2795 157.843 101.338 156.966 101.992 154.779C102.647 152.593 101.343 141.702 101.343 141.702L99.4339 128.237L90.5114 129.115C90.5114 129.115 83.0416 129.564 82.0525 131.586Z" fill="#FDF9EF"/>
<path d="M82.0525 131.586C81.0634 133.609 84.9973 159.457 84.9973 159.457L94.2795 157.843C94.2795 157.843 101.338 156.966 101.992 154.779C102.647 152.593 101.343 141.702 101.343 141.702L99.4339 128.237L90.5114 129.115C90.5114 129.115 83.0416 129.564 82.0525 131.586Z" stroke="#FDFAEF"/>
</g>
<path d="M98.7736 136.983C98.5685 137.009 98.3897 136.944 98.2372 136.789C98.091 136.626 97.9436 136.35 97.795 135.96C97.7208 135.768 97.6568 135.582 97.603 135.401C97.5556 135.213 97.5183 135.03 97.4913 134.853C97.4106 134.997 97.3348 135.097 97.2639 135.152C97.1994 135.201 97.1009 135.233 96.9686 135.249C96.6444 135.29 96.3003 135.329 95.9362 135.368C95.5718 135.399 95.2472 135.43 94.9624 135.458C94.954 135.58 94.9457 135.705 94.9376 135.833C94.9358 135.954 94.9373 136.074 94.9421 136.194C94.9464 136.301 94.954 136.407 94.9649 136.513C94.9824 136.617 94.9964 136.719 95.0071 136.819C95.0344 137.003 94.9676 137.162 94.8068 137.295C94.6459 137.429 94.4431 137.511 94.1983 137.542C93.9866 137.568 93.877 137.488 93.8696 137.301C93.865 137.188 93.888 137.015 93.9384 136.781C93.9653 136.623 93.9866 136.49 94.0022 136.381C94.0175 136.265 94.0238 136.174 94.0211 136.108C94.0136 135.921 93.9523 135.802 93.8372 135.749C93.7424 135.707 93.6933 135.643 93.6898 135.556C93.6866 135.476 93.6993 135.378 93.7278 135.26C93.7629 135.142 93.8084 135.033 93.8642 134.932C93.9197 134.825 93.9732 134.748 94.0245 134.701C94.0697 134.669 94.125 134.639 94.1904 134.61C94.2557 134.582 94.3379 134.559 94.4369 134.54C94.6649 133.762 94.9269 133.083 95.2228 132.504C95.5251 131.917 95.8522 131.455 96.2043 131.117C96.5562 130.772 96.9206 130.576 97.2977 130.529C97.5293 130.5 97.7012 130.559 97.8135 130.706C97.9255 130.846 97.9888 131.099 98.0035 131.465L98.0216 131.915C98.0486 132.588 98.1231 133.201 98.245 133.755C98.367 134.309 98.5079 134.753 98.6676 135.088C98.8281 135.443 99.0422 135.725 99.3098 135.932C99.3919 135.989 99.4472 136.043 99.4758 136.093C99.5042 136.136 99.5194 136.184 99.5215 136.237C99.5255 136.337 99.4899 136.442 99.4145 136.552C99.3457 136.661 99.2531 136.756 99.1367 136.838C99.0203 136.919 98.8993 136.968 98.7736 136.983ZM95.2184 134.382C95.5421 134.329 95.8261 134.283 96.0707 134.246C96.3149 134.203 96.5197 134.17 96.6851 134.15L97.3798 134.063C97.3591 133.879 97.3379 133.684 97.3164 133.479C97.3015 133.273 97.2895 133.057 97.2804 132.831L97.2572 132.251C97.2494 132.058 97.2212 131.934 97.1725 131.88C97.1301 131.818 97.0494 131.795 96.9303 131.81C96.6061 131.85 96.2905 132.103 95.9834 132.57C95.6764 133.037 95.4214 133.641 95.2184 134.382Z" fill="#171717"/>
<path d="M89.3122 148.749C89.1064 148.768 88.9314 148.871 88.7872 149.057C88.6497 149.25 88.5168 149.556 88.3883 149.975C88.3241 150.181 88.2697 150.379 88.2253 150.57C88.1875 150.767 88.1596 150.956 88.1416 151.138C88.0539 151.013 87.9733 150.93 87.8997 150.89C87.8329 150.856 87.7331 150.845 87.6004 150.858C87.275 150.887 86.9299 150.922 86.5648 150.962C86.1998 151.009 85.8746 151.049 85.5892 151.082C85.5746 150.963 85.56 150.841 85.5454 150.715C85.5375 150.596 85.5329 150.476 85.5316 150.356C85.5304 150.25 85.5326 150.143 85.5381 150.035C85.5502 149.927 85.5591 149.823 85.5647 149.723C85.5826 149.534 85.5079 149.391 85.3408 149.293C85.1736 149.195 84.9672 149.157 84.7215 149.179C84.5091 149.199 84.4038 149.302 84.4058 149.488C84.4071 149.602 84.4388 149.769 84.5009 149.99C84.5358 150.14 84.5637 150.268 84.5848 150.373C84.6059 150.484 84.6168 150.573 84.6175 150.64C84.6195 150.827 84.5645 150.959 84.4523 151.036C84.36 151.097 84.3142 151.172 84.3152 151.258C84.316 151.338 84.3337 151.433 84.3681 151.544C84.4091 151.653 84.46 151.752 84.5208 151.84C84.5816 151.935 84.6388 151.999 84.6923 152.035C84.7391 152.057 84.7957 152.075 84.8623 152.089C84.9289 152.103 85.0121 152.109 85.1117 152.106C85.3786 152.829 85.6743 153.446 85.9988 153.957C86.33 154.474 86.6797 154.862 87.048 155.122C87.4163 155.389 87.7897 155.504 88.1681 155.47C88.4005 155.449 88.5689 155.353 88.6734 155.183C88.778 155.02 88.8283 154.755 88.8244 154.389L88.8196 153.939C88.8124 153.266 88.8555 152.641 88.949 152.065C89.0425 151.49 89.1604 151.018 89.3027 150.652C89.4448 150.265 89.644 149.94 89.9003 149.676C89.9793 149.602 90.0317 149.537 90.0577 149.482C90.0838 149.432 90.0965 149.381 90.0959 149.328C90.0949 149.228 90.054 149.132 89.9732 149.039C89.8991 148.946 89.802 148.871 89.6817 148.815C89.5615 148.76 89.4384 148.737 89.3122 148.749ZM85.8991 152.094C86.2245 152.078 86.5101 152.062 86.7558 152.046C87.0016 152.037 87.2075 152.025 87.3735 152.009L88.0705 151.946C88.0593 152.133 88.0481 152.331 88.037 152.539C88.0326 152.746 88.0316 152.963 88.034 153.19L88.0403 153.77C88.0423 153.963 88.0204 154.092 87.9746 154.156C87.9355 154.227 87.8562 154.267 87.7367 154.278C87.4114 154.308 87.0838 154.124 86.7539 153.728C86.424 153.331 86.1391 152.786 85.8991 152.094Z" fill="#050505"/>
<path d="M88.9324 145.528C90.1926 145.292 90.981 143.61 90.981 143.61C90.981 143.61 92.0489 144.773 93.5772 144.656C95.1991 144.532 95.7053 142.375 94.9634 141.238C93.5475 139.068 89.7083 137.624 89.7083 137.624C89.7083 137.624 86.8107 141.416 86.8495 143.574C86.8734 144.904 87.2433 145.846 88.9324 145.528Z" fill="#111110" stroke="#353333"/>
<g filter="url(#filter3_d_478_133)">
<path d="M115.017 62.4758C114.273 63.9976 117.084 83.3715 117.084 83.3715L123.992 82.1207C123.992 82.1207 129.243 81.4313 129.739 79.7883C130.235 78.1453 129.314 69.9808 129.314 69.9808L127.953 59.8874L121.316 60.5848C121.316 60.5848 115.761 60.9541 115.017 62.4758Z" fill="#FDF9EF"/>
<path d="M115.017 62.4758C114.273 63.9976 117.084 83.3715 117.084 83.3715L123.992 82.1207C123.992 82.1207 129.243 81.4313 129.739 79.7883C130.235 78.1453 129.314 69.9808 129.314 69.9808L127.953 59.8874L121.316 60.5848C121.316 60.5848 115.761 60.9541 115.017 62.4758Z" stroke="#FDFAEF"/>
</g>
<path d="M128.039 66.7111C127.895 66.73 127.771 66.6854 127.665 66.5775C127.563 66.4643 127.461 66.2716 127.359 65.9992C127.308 65.8653 127.264 65.7353 127.227 65.6089C127.195 65.4773 127.17 65.3494 127.152 65.2253C127.095 65.3265 127.041 65.3967 126.992 65.4361C126.946 65.4701 126.877 65.4932 126.785 65.5054C126.558 65.5351 126.317 65.5643 126.063 65.5931C125.808 65.6171 125.581 65.6399 125.382 65.6613C125.375 65.7465 125.369 65.834 125.363 65.9238C125.361 66.0084 125.362 66.0926 125.364 66.1766C125.367 66.2512 125.372 66.3255 125.379 66.3995C125.391 66.4729 125.4 66.5443 125.407 66.6137C125.425 66.7424 125.378 66.8541 125.265 66.9485C125.152 67.043 125.01 67.1014 124.839 67.1239C124.691 67.1433 124.615 67.0877 124.61 66.9571C124.607 66.8779 124.624 66.7562 124.66 66.5922C124.68 66.4818 124.695 66.3885 124.707 66.312C124.718 66.2309 124.723 66.167 124.721 66.1204C124.717 65.9898 124.674 65.9064 124.594 65.87C124.528 65.8412 124.494 65.7965 124.492 65.7359C124.49 65.6799 124.499 65.6108 124.52 65.5284C124.545 65.4455 124.577 65.3687 124.617 65.2979C124.656 65.2225 124.693 65.1683 124.73 65.1355C124.761 65.1126 124.8 65.0911 124.846 65.0711C124.892 65.051 124.949 65.0341 125.018 65.0203C125.181 64.4743 125.367 63.9978 125.576 63.5909C125.79 63.1787 126.021 62.8533 126.268 62.6147C126.516 62.3714 126.771 62.2325 127.035 62.1979C127.197 62.1767 127.317 62.2171 127.395 62.3194C127.472 62.4169 127.515 62.594 127.524 62.8505L127.535 63.1653C127.551 63.6364 127.6 64.0656 127.683 64.4529C127.766 64.8402 127.863 65.1508 127.973 65.3846C128.083 65.6325 128.232 65.8285 128.418 65.9727C128.475 66.0121 128.514 66.0492 128.533 66.0841C128.553 66.1143 128.563 66.1481 128.565 66.1854C128.567 66.2554 128.542 66.329 128.488 66.4062C128.44 66.4828 128.375 66.5499 128.293 66.6075C128.211 66.6651 128.127 66.6996 128.039 66.7111ZM125.565 64.9064C125.792 64.8673 125.99 64.8342 126.161 64.8071C126.332 64.7753 126.476 64.7518 126.591 64.7367L127.077 64.6729C127.063 64.5436 127.05 64.4072 127.035 64.2638C127.026 64.1198 127.018 63.9686 127.013 63.81L126.999 63.4042C126.995 63.269 126.975 63.1825 126.942 63.1448C126.912 63.1018 126.856 63.0857 126.773 63.0966C126.546 63.1264 126.324 63.3054 126.108 63.6336C125.891 63.9619 125.71 64.3861 125.565 64.9064Z" fill="#171717"/>
<path d="M120.479 74.4506C120.335 74.4648 120.213 74.5375 120.111 74.6689C120.014 74.8045 119.92 75.0191 119.828 75.3129C119.783 75.4575 119.744 75.5967 119.712 75.7305C119.685 75.8686 119.664 76.0013 119.651 76.1287C119.59 76.0413 119.534 75.9838 119.483 75.9561C119.436 75.9327 119.367 75.9255 119.274 75.9346C119.046 75.957 118.805 75.983 118.549 76.0128C118.294 76.0472 118.066 76.0765 117.867 76.1008C117.857 76.0177 117.847 75.9323 117.838 75.8445C117.833 75.761 117.83 75.6772 117.829 75.5932C117.829 75.5185 117.831 75.4436 117.835 75.3685C117.844 75.2929 117.851 75.2199 117.855 75.1495C117.868 75.0174 117.817 74.9175 117.7 74.8495C117.584 74.7816 117.44 74.7561 117.268 74.7729C117.119 74.7875 117.045 74.8602 117.046 74.9908C117.046 75.0701 117.068 75.1871 117.11 75.3417C117.134 75.4467 117.153 75.5359 117.167 75.6092C117.182 75.6871 117.189 75.7495 117.189 75.7961C117.19 75.9268 117.151 76.0193 117.072 76.0738C117.007 76.1175 116.975 76.1697 116.975 76.2303C116.975 76.2863 116.987 76.3529 117.011 76.4299C117.039 76.5065 117.074 76.5754 117.116 76.6366C117.159 76.7025 117.198 76.7477 117.236 76.772C117.268 76.7875 117.308 76.7999 117.354 76.8094C117.401 76.8188 117.459 76.8225 117.529 76.8203C117.712 77.3252 117.916 77.7557 118.141 78.1118C118.371 78.4721 118.613 78.7424 118.87 78.9226C119.126 79.1075 119.387 79.187 119.652 79.161C119.814 79.1451 119.932 79.0774 120.006 78.9581C120.08 78.8435 120.116 78.6579 120.115 78.4012L120.113 78.0862C120.111 77.6149 120.144 77.1775 120.212 76.774C120.28 76.3705 120.364 76.04 120.465 75.7827C120.566 75.5113 120.706 75.2827 120.887 75.097C120.942 75.0448 120.979 74.9992 120.998 74.96C121.016 74.9255 121.025 74.8896 121.025 74.8523C121.025 74.7823 120.996 74.715 120.94 74.6505C120.889 74.5855 120.821 74.5338 120.737 74.4953C120.654 74.4569 120.568 74.442 120.479 74.4506ZM118.079 76.8083C118.307 76.7952 118.507 76.7826 118.678 76.7704C118.85 76.7629 118.994 76.7534 119.11 76.742L119.598 76.6942C119.589 76.8257 119.581 76.9643 119.572 77.1099C119.568 77.255 119.567 77.4069 119.567 77.5656L119.569 77.9716C119.57 78.1069 119.554 78.1972 119.522 78.2423C119.494 78.2917 119.439 78.3205 119.355 78.3288C119.127 78.3511 118.899 78.2241 118.67 77.9478C118.441 77.6715 118.244 77.2916 118.079 76.8083Z" fill="#050505"/>
<path d="M121.425 73.4413C122.362 73.2582 122.956 71.9931 122.956 71.9931C122.956 71.9931 123.745 72.8609 124.881 72.7664C126.088 72.666 126.473 71.0458 125.927 70.1962C124.884 68.5747 122.036 67.5083 122.036 67.5083C122.036 67.5083 119.865 70.3657 119.885 71.9843C119.897 72.9821 120.168 73.6867 121.425 73.4413Z" fill="#111110" stroke="#353333"/>
<g filter="url(#filter4_d_478_133)">
<path d="M19.8833 83.3352C18.0877 87.0075 25.2025 133.921 25.2025 133.921L42.0406 130.986C42.0406 130.986 54.8441 129.386 56.0333 125.418C57.2226 121.449 54.8664 101.682 54.8664 101.682L51.4139 77.2419L35.2288 78.8423C35.2288 78.8423 21.679 79.6629 19.8833 83.3352Z" fill="#FDF9EF"/>
<path d="M19.8833 83.3352C18.0877 87.0075 25.2025 133.921 25.2025 133.921L42.0406 130.986C42.0406 130.986 54.8441 129.386 56.0333 125.418C57.2226 121.449 54.8664 101.682 54.8664 101.682L51.4139 77.2419L35.2288 78.8423C35.2288 78.8423 21.679 79.6629 19.8833 83.3352Z" stroke="#FDFAEF"/>
</g>
<path d="M49.7083 92.9389C49.972 92.8805 50.1303 92.7843 50.1834 92.6501C50.2365 92.516 50.2295 92.3441 50.1625 92.1346C49.922 91.433 49.6927 90.6626 49.4747 89.8234C49.2567 88.9843 49.0918 88.1282 48.9799 87.2554C48.9036 86.6603 48.86 86.1242 48.8491 85.6472C48.8284 85.1724 48.914 84.7046 49.106 84.2439C49.1374 84.1757 49.1646 84.1136 49.1875 84.0576C49.1994 83.9937 49.2028 83.942 49.1977 83.9023C49.1812 83.7733 49.097 83.6645 48.945 83.5757C48.7821 83.4792 48.5972 83.4079 48.3905 83.3618C48.1838 83.3158 47.9925 83.3122 47.8168 83.3511C47.5825 83.403 47.4267 83.5191 47.3494 83.6994C47.2623 83.8819 47.2243 84.0943 47.2352 84.3367C47.245 84.5691 47.2651 84.8044 47.2956 85.0424C47.3261 85.2805 47.3751 85.5451 47.4425 85.8361C47.4989 86.1195 47.564 86.4315 47.6378 86.7721C47.7451 87.2176 47.8581 87.7077 47.9768 88.2424C48.0943 88.7672 48.1905 89.3223 48.2655 89.9075C48.3507 90.572 48.3962 91.123 48.4021 91.5603C48.4066 91.9877 48.4074 92.268 48.4044 92.4013C48.3968 92.5764 48.464 92.7094 48.6062 92.8003C48.7484 92.8913 48.9209 92.9449 49.1238 92.9612C49.328 92.9874 49.5228 92.98 49.7083 92.9389ZM44.1246 94.1442C44.5151 94.0578 44.8783 93.8754 45.2141 93.597C45.5402 93.3209 45.8391 92.9895 46.1109 92.6029C46.3826 92.2164 46.6213 91.8065 46.8268 91.3734C47.0226 90.9425 47.1897 90.523 47.3282 90.1149C47.4569 89.709 47.5474 89.3575 47.5997 89.0603C47.6532 88.7731 47.6673 88.5302 47.6419 88.3319C47.6139 88.1137 47.5021 87.8681 47.3065 87.5952C47.149 87.3852 46.9267 87.1386 46.6393 86.8554C46.352 86.5722 46.0286 86.2817 45.6692 85.9838C45.2999 85.6882 44.9241 85.4194 44.5417 85.1777C44.1495 84.9381 43.765 84.758 43.388 84.6374C43.0111 84.5168 42.6713 84.49 42.3687 84.557C42.0953 84.6175 41.9108 84.7451 41.8153 84.9396C41.7087 85.1264 41.6687 85.324 41.6954 85.5323C41.717 85.7009 41.7741 85.8719 41.8666 86.0452C41.9591 86.2185 42.0722 86.3567 42.2059 86.4597C42.3396 86.5627 42.4845 86.5969 42.6407 86.5624C42.7384 86.5407 42.8299 86.5103 42.9152 86.471C42.9895 86.424 43.0901 86.3864 43.217 86.3583C43.344 86.3302 43.4985 86.3215 43.6806 86.3322C43.8529 86.3451 44.0505 86.3982 44.2733 86.4917C44.4546 86.574 44.6825 86.7071 44.9571 86.8912C45.2304 87.0653 45.5131 87.273 45.8051 87.5144C46.0971 87.7558 46.3721 88.0213 46.6301 88.311C46.5366 88.6785 46.395 89.0618 46.2052 89.4608C46.0141 89.8499 45.8106 90.2213 45.5949 90.5751C45.2047 91.2123 44.8155 91.7013 44.4275 92.0422C44.0297 92.3853 43.5232 92.6249 42.9081 92.761C42.7812 92.7891 42.702 92.8373 42.6706 92.9054C42.6294 92.9757 42.617 93.0754 42.6336 93.2043C42.6704 93.492 42.8134 93.7459 43.0625 93.9662C43.3019 94.1886 43.6559 94.248 44.1246 94.1442Z" fill="#050505"/>
<path d="M33.2614 117.149C33.5261 117.096 33.6993 117.122 33.781 117.227C33.8627 117.333 33.8959 117.499 33.8807 117.726C33.8142 118.491 33.7744 119.317 33.7613 120.203C33.7482 121.09 33.7896 121.97 33.8854 122.845C33.9508 123.441 34.0335 123.968 34.1337 124.426C34.2241 124.885 34.4142 125.294 34.704 125.652C34.7497 125.704 34.79 125.752 34.8249 125.795C34.851 125.851 34.8663 125.899 34.8706 125.939C34.8848 126.068 34.8298 126.206 34.7056 126.353C34.5727 126.512 34.4131 126.655 34.2268 126.784C34.0405 126.913 33.8591 126.995 33.6827 127.031C33.4474 127.078 33.272 127.032 33.1565 126.893C33.0313 126.755 32.9458 126.569 32.9 126.335C32.8554 126.11 32.82 125.878 32.7938 125.64C32.7677 125.401 32.753 125.13 32.7497 124.826C32.7378 124.533 32.7274 124.21 32.7187 123.857C32.7176 123.389 32.7117 122.878 32.7008 122.321C32.691 121.774 32.654 121.208 32.5897 120.621C32.5167 119.955 32.4323 119.414 32.3365 118.996C32.2417 118.588 32.1775 118.322 32.1437 118.197C32.0958 118.033 32.129 117.879 32.2434 117.735C32.3578 117.59 32.5097 117.468 32.6993 117.369C32.8877 117.26 33.0751 117.186 33.2614 117.149ZM27.6616 118.305C28.0538 118.226 28.4422 118.249 28.8267 118.375C29.2014 118.503 29.5631 118.695 29.9116 118.95C30.2602 119.205 30.5827 119.496 30.8789 119.822C31.1654 120.151 31.422 120.48 31.6485 120.81C31.8653 121.143 32.033 121.439 32.1518 121.7C32.2694 121.951 32.3391 122.175 32.3609 122.374C32.3849 122.593 32.3353 122.872 32.2122 123.212C32.1109 123.476 31.9562 123.802 31.7481 124.189C31.54 124.576 31.2993 124.985 31.0258 125.416C30.7426 125.849 30.4468 126.259 30.1385 126.646C29.8204 127.035 29.4958 127.364 29.1646 127.634C28.8335 127.903 28.5159 128.069 28.212 128.13C27.9375 128.185 27.7322 128.14 27.596 127.995C27.4511 127.861 27.3672 127.69 27.3444 127.481C27.3259 127.312 27.3406 127.127 27.3885 126.924C27.4364 126.721 27.5122 126.543 27.6157 126.391C27.7191 126.238 27.8493 126.146 28.0062 126.114C28.1042 126.094 28.1985 126.086 28.2889 126.088C28.3706 126.102 28.4751 126.096 28.6026 126.07C28.7301 126.045 28.8793 125.989 29.0503 125.904C29.2115 125.821 29.3875 125.689 29.5781 125.509C29.7317 125.356 29.918 125.136 30.137 124.848C30.357 124.57 30.5782 124.256 30.8004 123.907C31.0226 123.557 31.2231 123.192 31.4017 122.811C31.2274 122.5 31.0036 122.195 30.7302 121.894C30.4579 121.603 30.1779 121.335 29.8903 121.088C29.3707 120.643 28.8865 120.339 28.4377 120.176C27.9791 120.014 27.441 119.995 26.8233 120.119C26.6959 120.145 26.6093 120.131 26.5635 120.08C26.508 120.03 26.4731 119.94 26.459 119.811C26.4274 119.523 26.5047 119.223 26.691 118.911C26.8675 118.601 27.191 118.399 27.6616 118.305Z" fill="#050505"/>
<path d="M29.6012 109.191C30.2036 111.378 32.1364 112.24 34.3281 111.914C34.3281 111.914 36.2724 111.373 37.1092 110.706C38.0144 109.985 38.3251 108.069 38.3251 108.069L38.5345 109.445L38.7438 110.82C38.7438 110.82 38.4833 112.043 37.9713 112.828C37.4593 113.614 36.1598 115.094 36.1598 115.094L40.3157 114.065L44.2119 113.1C44.2119 113.1 42.972 112.509 42.1653 112.049C41.3794 111.602 40.0426 110.499 40.0426 110.499L39.3641 107.812C39.3641 107.812 40.3191 108.906 41.189 109.177C42.1513 109.476 42.8278 109.288 43.8626 109.034C45.3401 108.671 47.0946 108.158 47.8663 107.004C48.638 105.851 48.7659 104.449 48.3343 102.996C47.9614 101.739 47.351 100.935 46.3191 100.38C45.2872 99.8247 42.5304 100.28 42.5304 100.28C42.5304 100.28 42.3283 96.6151 41.2877 95.6564C40.2471 94.6978 38.5371 94.4754 36.8653 94.9347C35.2844 95.3689 34.1284 96.2128 33.4953 97.5858C32.8622 98.9588 33.9588 102.402 33.9588 102.402C33.9588 102.402 30.844 103.356 29.9932 104.682C29.1423 106.007 29.1784 107.656 29.6012 109.191Z" fill="#111110" stroke="#353333"/>
<path d="M76.1925 36.421C77.8096 38.4164 76.3714 41.4897 76.3714 41.4897C76.3714 41.4897 80.4675 41.7382 80.7479 45.2815C80.9548 47.8944 79.2519 48.8602 76.854 49.4622C73.8186 50.2242 68.2249 47.1935 68.2249 47.1935C68.2249 47.1935 68.3487 38.1914 71.6438 36.0738C73.4517 34.912 74.796 34.6978 76.1925 36.421Z" fill="#E25236" stroke="#EA4027"/>
<g filter="url(#filter5_d_478_133)">
<path d="M132.585 93.8526C129.813 95.8481 116.132 136.176 116.132 136.176L129.484 142.184C129.484 142.184 139.382 147.248 141.835 144.721C144.287 142.193 150.515 125.518 150.515 125.518L157.826 104.634L145.482 97.9012C145.482 97.9012 135.356 91.857 132.585 93.8526Z" fill="#FDF9EF" stroke="#FDFAEF"/>
<path d="M129.588 119.432C129.075 121.293 130.013 122.834 131.625 123.641C131.625 123.641 133.16 124.176 134.003 124.094C134.915 124.005 135.928 122.773 135.928 122.773L135.491 123.863L135.055 124.954C135.055 124.954 134.366 125.71 133.692 126.033C133.018 126.355 131.522 126.803 131.522 126.803L134.75 128.038L137.776 129.196C137.776 129.196 137.19 128.181 136.84 127.466C136.5 126.771 136.063 125.34 136.063 125.34L136.735 123.082C136.735 123.082 136.918 124.324 137.39 124.933C137.911 125.606 138.446 125.792 139.248 126.102C140.395 126.543 141.79 127.008 142.794 126.544C143.798 126.08 144.472 125.132 144.792 123.879C145.068 122.797 144.995 121.928 144.534 121.037C144.073 120.146 142.028 119.163 142.028 119.163C142.028 119.163 143.43 116.427 143.133 115.242C142.835 114.057 141.778 113.083 140.461 112.619C139.215 112.18 138.083 112.238 137.08 112.925C136.078 113.613 135.37 116.615 135.37 116.615C135.37 116.615 132.874 115.821 131.745 116.371C130.616 116.921 129.948 118.125 129.588 119.432Z" fill="#E25236" stroke="#EA4027"/>
<path d="M133.065 109.242C132.685 108.932 132.399 108.545 132.209 108.081C132.019 107.63 131.896 107.153 131.84 106.651C131.786 106.162 131.76 105.696 131.765 105.255C131.625 105.187 131.488 105.109 131.353 105.021C131.224 104.939 131.101 104.85 130.983 104.754C130.563 104.412 130.256 104.019 130.061 103.574C129.866 103.13 129.793 102.672 129.843 102.198C129.899 101.73 130.077 101.282 130.378 100.855C130.797 100.284 131.348 99.9391 132.029 99.8214C132.603 99.7191 133.025 99.7776 133.294 99.9968C133.432 100.109 133.497 100.248 133.489 100.413C133.487 100.57 133.451 100.787 133.382 101.061C133.268 101.55 133.177 102.064 133.11 102.603C133.055 103.14 133.023 103.696 133.014 104.27C133.543 104.439 134.093 104.425 134.664 104.229C135.235 104.033 135.73 103.643 136.148 103.06C136.503 102.573 136.709 102.096 136.765 101.628C136.821 101.16 136.76 100.728 136.582 100.332C136.416 99.9343 136.162 99.5963 135.821 99.3183C135.46 99.0242 135.084 98.8427 134.691 98.7737C134.31 98.7029 133.945 98.6961 133.595 98.7532C133.251 98.8032 132.956 98.8712 132.712 98.957C132.653 98.9781 132.596 98.977 132.539 98.9537C132.483 98.9304 132.438 98.9054 132.405 98.8786C132.307 98.7984 132.27 98.6999 132.295 98.5829C132.326 98.4713 132.389 98.3519 132.485 98.2246C132.659 97.9789 132.905 97.7795 133.221 97.6265C133.549 97.4718 133.914 97.3811 134.315 97.3544C134.723 97.333 135.141 97.3888 135.57 97.5218C135.999 97.6548 136.414 97.8844 136.814 98.2105C137.62 98.8682 138.045 99.6537 138.088 100.567C138.13 101.481 137.804 102.413 137.109 103.364C136.531 104.16 135.875 104.737 135.139 105.096C134.41 105.46 133.677 105.61 132.942 105.547C132.974 105.87 133.043 106.2 133.149 106.537C133.249 106.881 133.39 107.201 133.57 107.496C133.75 107.791 133.958 108.035 134.194 108.228C134.371 108.372 134.541 108.477 134.704 108.541C134.874 108.611 134.972 108.656 134.998 108.678C135.05 108.721 135.052 108.802 135.004 108.923C134.957 109.055 134.896 109.171 134.822 109.27C134.593 109.574 134.316 109.703 133.992 109.655C133.669 109.62 133.36 109.482 133.065 109.242ZM131.964 103.619C131.968 103.121 132.008 102.675 132.084 102.279C132.159 101.884 132.256 101.467 132.375 101.028C132.393 100.905 132.372 100.82 132.313 100.772C132.222 100.697 132.083 100.692 131.896 100.757C131.71 100.822 131.548 100.953 131.411 101.149C131.172 101.479 131.103 101.874 131.203 102.332C131.309 102.795 131.563 103.224 131.964 103.619Z" fill="#EE4E2C"/>
<path d="M141.332 130.068C141.712 130.378 141.998 130.765 142.188 131.228C142.378 131.679 142.501 132.156 142.557 132.658C142.611 133.148 142.637 133.613 142.632 134.055C142.772 134.123 142.909 134.2 143.044 134.288C143.173 134.37 143.296 134.459 143.414 134.555C143.834 134.898 144.141 135.291 144.336 135.735C144.531 136.179 144.604 136.638 144.554 137.111C144.498 137.579 144.32 138.027 144.019 138.455C143.6 139.026 143.049 139.37 142.368 139.488C141.793 139.59 141.372 139.532 141.103 139.313C140.965 139.2 140.9 139.062 140.908 138.897C140.91 138.739 140.946 138.523 141.015 138.248C141.129 137.759 141.22 137.245 141.287 136.707C141.342 136.169 141.374 135.614 141.383 135.039C140.854 134.87 140.304 134.884 139.733 135.08C139.162 135.276 138.667 135.666 138.249 136.25C137.894 136.736 137.688 137.213 137.632 137.681C137.576 138.149 137.637 138.581 137.815 138.977C137.981 139.375 138.235 139.713 138.576 139.991C138.937 140.285 139.313 140.467 139.706 140.536C140.087 140.606 140.452 140.613 140.802 140.556C141.146 140.506 141.441 140.438 141.685 140.352C141.744 140.331 141.801 140.332 141.858 140.356C141.914 140.379 141.959 140.404 141.992 140.431C142.09 140.511 142.127 140.609 142.102 140.726C142.071 140.838 142.008 140.957 141.912 141.085C141.738 141.33 141.492 141.53 141.176 141.683C140.848 141.838 140.483 141.928 140.082 141.955C139.674 141.976 139.256 141.921 138.827 141.788C138.398 141.655 137.983 141.425 137.583 141.099C136.777 140.441 136.352 139.656 136.309 138.742C136.267 137.829 136.593 136.896 137.288 135.945C137.866 135.15 138.522 134.573 139.258 134.214C139.987 133.85 140.72 133.699 141.455 133.763C141.423 133.44 141.354 133.11 141.248 132.772C141.148 132.428 141.007 132.108 140.827 131.813C140.647 131.518 140.439 131.274 140.203 131.082C140.026 130.937 139.856 130.833 139.693 130.768C139.523 130.698 139.425 130.653 139.399 130.631C139.347 130.589 139.345 130.507 139.393 130.387C139.44 130.254 139.501 130.138 139.575 130.039C139.804 129.735 140.081 129.607 140.405 129.654C140.728 129.689 141.037 129.827 141.332 130.068ZM142.433 135.69C142.428 136.188 142.389 136.635 142.313 137.03C142.238 137.425 142.141 137.842 142.022 138.282C142.004 138.404 142.024 138.489 142.084 138.537C142.175 138.612 142.314 138.617 142.501 138.552C142.687 138.487 142.849 138.357 142.986 138.161C143.225 137.83 143.294 137.436 143.194 136.978C143.088 136.514 142.834 136.085 142.433 135.69Z" fill="#EE4E2C"/>
</g>
<defs>
<filter id="filter0_d_478_133" x="65.7334" y="83.4814" width="39.9888" height="39.9233" filterUnits="userSpaceOnUse" color-interpolation-filters="sRGB">
<feFlood flood-opacity="0" result="BackgroundImageFix"/>
<feColorMatrix in="SourceAlpha" type="matrix" values="0 0 0 0 0 0 0 0 0 0 0 0 0 0 0 0 0 0 127 0" result="hardAlpha"/>
<feOffset dy="4"/>
<feGaussianBlur stdDeviation="2"/>
<feComposite in2="hardAlpha" operator="out"/>
<feColorMatrix type="matrix" values="0 0 0 0 0 0 0 0 0 0 0 0 0 0 0 0 0 0 0.25 0"/>
<feBlend mode="normal" in2="BackgroundImageFix" result="effect1_dropShadow_478_133"/>
<feBlend mode="normal" in="SourceGraphic" in2="effect1_dropShadow_478_133" result="shape"/>
</filter>
<filter id="filter1_d_478_133" x="43.4106" y="15.3447" width="65.2109" height="64.8517" filterUnits="userSpaceOnUse" color-interpolation-filters="sRGB">
<feFlood flood-opacity="0" result="BackgroundImageFix"/>
<feColorMatrix in="SourceAlpha" type="matrix" values="0 0 0 0 0 0 0 0 0 0 0 0 0 0 0 0 0 0 127 0" result="hardAlpha"/>
<feOffset dy="4"/>
<feGaussianBlur stdDeviation="2"/>
<feComposite in2="hardAlpha" operator="out"/>
<feColorMatrix type="matrix" values="0 0 0 0 0 0 0 0 0 0 0 0 0 0 0 0 0 0 0.25 0"/>
<feBlend mode="normal" in2="BackgroundImageFix" result="effect1_dropShadow_478_133"/>
<feBlend mode="normal" in="SourceGraphic" in2="effect1_dropShadow_478_133" result="shape"/>
</filter>
<filter id="filter2_d_478_133" x="77.3931" y="127.693" width="29.2832" height="40.3442" filterUnits="userSpaceOnUse" color-interpolation-filters="sRGB">
<feFlood flood-opacity="0" result="BackgroundImageFix"/>
<feColorMatrix in="SourceAlpha" type="matrix" values="0 0 0 0 0 0 0 0 0 0 0 0 0 0 0 0 0 0 127 0" result="hardAlpha"/>
<feOffset dy="4"/>
<feGaussianBlur stdDeviation="2"/>
<feComposite in2="hardAlpha" operator="out"/>
<feColorMatrix type="matrix" values="0 0 0 0 0.740385 0 0 0 0 0.621685 0 0 0 0 0.434264 0 0 0 0.42 0"/>
<feBlend mode="normal" in2="BackgroundImageFix" result="effect1_dropShadow_478_133"/>
<feBlend mode="normal" in="SourceGraphic" in2="effect1_dropShadow_478_133" result="shape"/>
</filter>
<filter id="filter3_d_478_133" x="110.391" y="59.3394" width="23.9946" height="32.6165" filterUnits="userSpaceOnUse" color-interpolation-filters="sRGB">
<feFlood flood-opacity="0" result="BackgroundImageFix"/>
<feColorMatrix in="SourceAlpha" type="matrix" values="0 0 0 0 0 0 0 0 0 0 0 0 0 0 0 0 0 0 127 0" result="hardAlpha"/>
<feOffset dy="4"/>
<feGaussianBlur stdDeviation="2"/>
<feComposite in2="hardAlpha" operator="out"/>
<feColorMatrix type="matrix" values="0 0 0 0 0.740385 0 0 0 0 0.621685 0 0 0 0 0.434264 0 0 0 0.42 0"/>
<feBlend mode="normal" in2="BackgroundImageFix" result="effect1_dropShadow_478_133"/>
<feBlend mode="normal" in="SourceGraphic" in2="effect1_dropShadow_478_133" result="shape"/>
</filter>
<filter id="filter4_d_478_133" x="15.0928" y="76.6971" width="45.7759" height="65.8046" filterUnits="userSpaceOnUse" color-interpolation-filters="sRGB">
<feFlood flood-opacity="0" result="BackgroundImageFix"/>
<feColorMatrix in="SourceAlpha" type="matrix" values="0 0 0 0 0 0 0 0 0 0 0 0 0 0 0 0 0 0 127 0" result="hardAlpha"/>
<feOffset dy="4"/>
<feGaussianBlur stdDeviation="2"/>
<feComposite in2="hardAlpha" operator="out"/>
<feColorMatrix type="matrix" values="0 0 0 0 0 0 0 0 0 0 0 0 0 0 0 0 0 0 0.25 0"/>
<feBlend mode="normal" in2="BackgroundImageFix" result="effect1_dropShadow_478_133"/>
<feBlend mode="normal" in="SourceGraphic" in2="effect1_dropShadow_478_133" result="shape"/>
</filter>
<filter id="filter5_d_478_133" x="111.527" y="92.9347" width="50.8979" height="61.0066" filterUnits="userSpaceOnUse" color-interpolation-filters="sRGB">
<feFlood flood-opacity="0" result="BackgroundImageFix"/>
<feColorMatrix in="SourceAlpha" type="matrix" values="0 0 0 0 0 0 0 0 0 0 0 0 0 0 0 0 0 0 127 0" result="hardAlpha"/>
<feOffset dy="4"/>
<feGaussianBlur stdDeviation="2"/>
<feComposite in2="hardAlpha" operator="out"/>
<feColorMatrix type="matrix" values="0 0 0 0 0 0 0 0 0 0 0 0 0 0 0 0 0 0 0.25 0"/>
<feBlend mode="normal" in2="BackgroundImageFix" result="effect1_dropShadow_478_133"/>
<feBlend mode="normal" in="SourceGraphic" in2="effect1_dropShadow_478_133" result="shape"/>
</filter>
</defs>
</svg>
