<svg width="160" height="183" viewBox="0 0 160 183" fill="none" xmlns="http://www.w3.org/2000/svg">
<g filter="url(#filter0_d_473_41)">
<path d="M66.3006 9.42333C50.6557 8.78613 39.7022 10.7387 26.0801 16.3922C20.7946 18.5859 19.1568 17.5918 15.5386 24.1466C11.4715 31.5145 35.2371 32.2262 49.239 29.8559C63.4923 27.4431 92.7654 18.6696 81.582 11.3862C75.4389 7.3854 73.7216 9.72557 66.3006 9.42333Z" fill="#91C4DD" stroke="#25759F"/>
<g filter="url(#filter1_i_473_41)">
<path d="M61.336 13.9228C50.5823 14.4357 42.9344 15.7828 33.2634 18.7869C29.5109 19.9525 25.8806 19.9761 23.0614 22.8556C19.8924 26.0923 40.5626 27.7375 50.3327 26.0672C60.2782 24.3668 79.122 16.4202 71.7734 13.9741C67.7367 12.6304 66.4369 13.6795 61.336 13.9228Z" fill="#25759F"/>
</g>
<path d="M61.336 13.9228C50.5823 14.4357 42.9344 15.7828 33.2634 18.7869C29.5109 19.9525 25.8806 19.9761 23.0614 22.8556C19.8924 26.0923 40.5626 27.7375 50.3327 26.0672C60.2782 24.3668 79.122 16.4202 71.7734 13.9741C67.7367 12.6304 66.4369 13.6795 61.336 13.9228Z" stroke="#25759F"/>
<path d="M24.7522 49.8845C19.0175 42.8049 16.2588 28.3032 16.2588 28.3032C16.2588 28.3032 36.9696 31.9956 50.2306 29.6979C63.4915 27.4002 84.1722 16.536 84.1722 16.536C84.1722 16.536 84.341 24.8161 83.5873 30.7985C82.8336 36.7808 80.3122 47.1736 80.3122 47.1736C80.3122 47.1736 78.0505 52.2229 75.1563 54.6536C72.2622 57.0842 65.4904 59.6216 65.4904 59.6216C65.4904 59.6216 52.3911 64.4344 45.0504 63.1632C35.2262 61.462 30.6609 57.1789 24.7522 49.8845Z" fill="#91C4DD" stroke="#25759F"/>
<path d="M83.7872 16.2734C84.0974 18.0639 84.2561 24.2058 84.2966 27.053C84.2966 27.053 88.2924 19.0219 92.8047 19.3216C98.3011 19.6865 98.9033 29.217 98.0958 30.2606C88.3853 42.8109 87.2043 36.6485 82.3348 39.2487L81.027 47.3791C81.027 47.3791 85.0679 48.0202 90.6412 45.7133C95.1612 43.8424 101.156 39.4823 103.104 35.65C106.133 29.6927 107.763 24.1308 103.906 18.7154C101.065 14.7277 97.7013 12.6871 92.6857 12.7556C88.9473 12.8067 83.7872 16.2734 83.7872 16.2734Z" fill="#91C4DD"/>
<path d="M28.5501 54.1663C28.5501 54.1663 3.14436 61.8452 9.16823 67.7338C20.6151 78.9235 35.8812 75.5359 53.6937 73.8507C74.6724 71.8659 95.6707 65.2601 103.403 53.0525C106.431 48.2717 90.6412 45.7133 90.6412 45.7133C85.0679 48.0202 81.027 47.3791 81.027 47.3791C81.027 47.3791 73.3496 59.9065 59.833 62.2485C34.8082 66.5845 28.5501 54.1663 28.5501 54.1663Z" fill="#91C4DD"/>
<path d="M81.027 47.3791L82.3349 39.2487C87.2043 36.6485 88.3853 42.8109 98.0958 30.2606C98.9033 29.217 98.3011 19.6865 92.8047 19.3216C88.2924 19.0219 84.2966 27.053 84.2966 27.053C84.2561 24.2058 84.0974 18.0639 83.7872 16.2734C83.7872 16.2734 88.9473 12.8067 92.6857 12.7556C97.7013 12.6871 101.065 14.7277 103.906 18.7154C107.763 24.1308 106.133 29.6927 103.104 35.65C101.156 39.4823 95.1612 43.8424 90.6412 45.7133M81.027 47.3791C81.027 47.3791 85.0679 48.0202 90.6412 45.7133M81.027 47.3791C81.027 47.3791 73.3496 59.9065 59.833 62.2485C34.8082 66.5845 28.5501 54.1663 28.5501 54.1663C28.5501 54.1663 3.14436 61.8452 9.16823 67.7338C20.6151 78.9235 35.8812 75.5359 53.6937 73.8507C74.6724 71.8659 95.6707 65.2601 103.403 53.0525C106.431 48.2717 90.6412 45.7133 90.6412 45.7133M81.027 47.3791L90.6412 45.7133" stroke="#25759F"/>
</g>
<g filter="url(#filter2_d_473_41)">
<path d="M125.223 121.459C111.956 116.468 101.982 114.961 88.6559 115.759C83.4853 116.069 82.3616 114.778 77.3778 119.177C71.7759 124.121 92.0024 131.491 104.716 133.521C117.659 135.588 145.33 136.669 137.798 127.444C133.661 122.377 131.516 123.826 125.223 121.459Z" fill="#DDD491" stroke="#797906"/>
<g filter="url(#filter3_i_473_41)">
<path d="M119.669 123.77C110.278 121.128 103.318 120.062 94.1463 119.792C90.5874 119.688 87.4599 118.672 84.2134 120.253C80.5643 122.031 97.863 129.291 106.739 130.694C115.775 132.122 134.245 130.913 128.626 126.79C125.54 124.525 124.123 125.024 119.669 123.77Z" fill="#797906"/>
</g>
<path d="M119.669 123.77C110.278 121.128 103.318 120.062 94.1463 119.792C90.5874 119.688 87.4599 118.672 84.2134 120.253C80.5643 122.031 97.863 129.291 106.739 130.694C115.775 132.122 134.245 130.913 128.626 126.79C125.54 124.525 124.123 125.024 119.669 123.77Z" stroke="#797906"/>
<path d="M77.942 143.13C75.0356 135.629 76.8086 122.826 76.8086 122.826C76.8086 122.826 93.5572 131.794 105.613 133.673C117.67 135.552 138.553 132.45 138.553 132.45C138.553 132.45 136.331 139.359 133.974 144.1C131.616 148.842 126.478 156.734 126.478 156.734C126.478 156.734 123.091 160.272 119.908 161.46C116.726 162.649 110.179 162.819 110.179 162.819C110.179 162.819 97.5432 163.07 91.5962 159.923C83.6372 155.711 80.9367 150.86 77.942 143.13Z" fill="#DDD491" stroke="#797906"/>
<path d="M138.297 132.123C138.052 133.695 136.433 138.829 135.654 141.199C135.654 141.199 141.384 135.685 145.178 137.22C149.798 139.091 147.592 147.159 146.6 147.793C134.665 155.422 135.411 149.979 130.482 150.744L127.034 157.108C127.034 157.108 130.325 158.792 135.775 158.47C140.195 158.21 146.595 156.307 149.365 153.688C153.671 149.616 156.662 145.472 154.894 139.885C153.592 135.771 151.283 133.12 146.952 131.746C143.724 130.722 138.297 132.123 138.297 132.123Z" fill="#DDD491"/>
<path d="M79.9835 147.762C79.9835 147.762 55.9492 146.876 59.4447 153.474C66.0869 166.011 80.1783 167.559 95.9722 171.244C114.574 175.584 134.512 176.101 144.648 168.192C148.618 165.094 135.775 158.47 135.775 158.47C130.325 158.792 127.034 157.108 127.034 157.108C127.034 157.108 116.854 165.297 104.566 163.382C81.8142 159.836 79.9835 147.762 79.9835 147.762Z" fill="#DDD491"/>
<path d="M127.034 157.108L130.482 150.744C135.411 149.979 134.665 155.422 146.6 147.793C147.592 147.159 149.798 139.091 145.178 137.22C141.384 135.685 135.654 141.199 135.654 141.199C136.433 138.829 138.052 133.695 138.297 132.123C138.297 132.123 143.724 130.722 146.952 131.746C151.283 133.12 153.592 135.771 154.894 139.885C156.662 145.472 153.671 149.616 149.365 153.688C146.595 156.307 140.195 158.21 135.775 158.47M127.034 157.108C127.034 157.108 130.325 158.792 135.775 158.47M127.034 157.108C127.034 157.108 116.854 165.297 104.566 163.382C81.8142 159.836 79.9835 147.762 79.9835 147.762C79.9835 147.762 55.9492 146.876 59.4447 153.474C66.0869 166.011 80.1783 167.559 95.9722 171.244C114.574 175.584 134.512 176.101 144.648 168.192C148.618 165.094 135.775 158.47 135.775 158.47M127.034 157.108L135.775 158.47" stroke="#797906"/>
</g>
<defs>
<filter id="filter0_d_473_41" x="3.74414" y="8.51435" width="106.921" height="75.6628" filterUnits="userSpaceOnUse" color-interpolation-filters="sRGB">
<feFlood flood-opacity="0" result="BackgroundImageFix"/>
<feColorMatrix in="SourceAlpha" type="matrix" values="0 0 0 0 0 0 0 0 0 0 0 0 0 0 0 0 0 0 127 0" result="hardAlpha"/>
<feOffset dy="4"/>
<feGaussianBlur stdDeviation="2"/>
<feComposite in2="hardAlpha" operator="out"/>
<feColorMatrix type="matrix" values="0 0 0 0 0 0 0 0 0 0 0 0 0 0 0 0 0 0 0.25 0"/>
<feBlend mode="normal" in2="BackgroundImageFix" result="effect1_dropShadow_473_41"/>
<feBlend mode="normal" in="SourceGraphic" in2="effect1_dropShadow_473_41" result="shape"/>
</filter>
<filter id="filter1_i_473_41" x="22.2344" y="12.8033" width="51.7002" height="18.4257" filterUnits="userSpaceOnUse" color-interpolation-filters="sRGB">
<feFlood flood-opacity="0" result="BackgroundImageFix"/>
<feBlend mode="normal" in="SourceGraphic" in2="BackgroundImageFix" result="shape"/>
<feColorMatrix in="SourceAlpha" type="matrix" values="0 0 0 0 0 0 0 0 0 0 0 0 0 0 0 0 0 0 127 0" result="hardAlpha"/>
<feOffset dy="4"/>
<feGaussianBlur stdDeviation="2"/>
<feComposite in2="hardAlpha" operator="arithmetic" k2="-1" k3="1"/>
<feColorMatrix type="matrix" values="0 0 0 0 0 0 0 0 0 0 0 0 0 0 0 0 0 0 0.25 0"/>
<feBlend mode="normal" in2="shape" result="effect1_innerShadow_473_41"/>
</filter>
<filter id="filter2_d_473_41" x="54.5972" y="115.058" width="105.314" height="67.8033" filterUnits="userSpaceOnUse" color-interpolation-filters="sRGB">
<feFlood flood-opacity="0" result="BackgroundImageFix"/>
<feColorMatrix in="SourceAlpha" type="matrix" values="0 0 0 0 0 0 0 0 0 0 0 0 0 0 0 0 0 0 127 0" result="hardAlpha"/>
<feOffset dy="4"/>
<feGaussianBlur stdDeviation="2"/>
<feComposite in2="hardAlpha" operator="out"/>
<feColorMatrix type="matrix" values="0 0 0 0 0 0 0 0 0 0 0 0 0 0 0 0 0 0 0.25 0"/>
<feBlend mode="normal" in2="BackgroundImageFix" result="effect1_dropShadow_473_41"/>
<feBlend mode="normal" in="SourceGraphic" in2="effect1_dropShadow_473_41" result="shape"/>
</filter>
<filter id="filter3_i_473_41" x="83.2153" y="118.875" width="46.9546" height="16.8937" filterUnits="userSpaceOnUse" color-interpolation-filters="sRGB">
<feFlood flood-opacity="0" result="BackgroundImageFix"/>
<feBlend mode="normal" in="SourceGraphic" in2="BackgroundImageFix" result="shape"/>
<feColorMatrix in="SourceAlpha" type="matrix" values="0 0 0 0 0 0 0 0 0 0 0 0 0 0 0 0 0 0 127 0" result="hardAlpha"/>
<feOffset dy="4"/>
<feGaussianBlur stdDeviation="2"/>
<feComposite in2="hardAlpha" operator="arithmetic" k2="-1" k3="1"/>
<feColorMatrix type="matrix" values="0 0 0 0 0 0 0 0 0 0 0 0 0 0 0 0 0 0 0.25 0"/>
<feBlend mode="normal" in2="shape" result="effect1_innerShadow_473_41"/>
</filter>
</defs>
</svg>
