<svg width="83" height="194" viewBox="0 0 83 194" fill="none" xmlns="http://www.w3.org/2000/svg">
<g filter="url(#filter0_d_473_42)">
<path d="M63.0444 11.4216C47.8137 11.1471 37.458 13.8056 24.9931 20.9447C20.1566 23.7147 18.4433 22.5839 15.7808 30.4854C12.788 39.367 35.8916 39.4793 49.1454 36.2304C62.6373 32.9231 89.8566 21.5933 78.0932 13.2827C71.6316 8.71768 70.269 11.5518 63.0444 11.4216Z" fill="#AC49C5" stroke="#5C0E63"/>
<g filter="url(#filter1_i_473_42)">
<path d="M58.8143 16.9221C48.4673 17.8634 41.2347 19.7004 32.2558 23.5689C28.7718 25.0699 25.2596 25.21 22.8992 28.719C20.2461 32.6634 40.4721 33.9807 49.7181 31.6941C59.1302 29.3665 76.357 19.3411 68.9274 16.6609C64.8463 15.1887 63.7223 16.4756 58.8143 16.9221Z" fill="#5C0E63"/>
</g>
<path d="M58.8143 16.9221C48.4673 17.8634 41.2347 19.7004 32.2558 23.5689C28.7718 25.0699 25.2596 25.21 22.8992 28.719C20.2461 32.6634 40.4721 33.9807 49.7181 31.6941C59.1302 29.3665 76.357 19.3411 68.9274 16.6609C64.8463 15.1887 63.7223 16.4756 58.8143 16.9221Z" stroke="#5C0E63"/>
<path d="M28.005 60.7883C21.5437 52.5518 17.0117 35.403 17.0117 35.403C17.0117 35.403 37.5398 39.1519 50.0855 36.0121C62.6312 32.8723 81.2624 19.3229 81.2624 19.3229C81.2624 19.3229 82.4882 29.1578 82.526 36.2906C82.5638 43.4234 81.4559 55.8521 81.4559 55.8521C81.4559 55.8521 79.9137 61.9225 77.4232 64.9004C74.9327 67.8783 68.7011 71.1028 68.7011 71.1028C68.7011 71.1028 56.6346 77.2266 49.3635 75.9424C39.6325 74.2239 34.6623 69.2747 28.005 60.7883Z" fill="#AC49C5" stroke="#5C0E63"/>
<path d="M80.8558 19.0227C81.386 21.141 82.3277 28.4352 82.7323 31.8175C82.7323 31.8175 85.5709 22.1501 89.9786 22.3669C95.3476 22.631 97.1535 33.9385 96.5056 35.2036C88.7132 50.4182 86.779 43.1313 82.3975 46.3716L82.1744 56.0743C82.1744 56.0743 86.1694 56.7114 91.2701 53.7979C95.4067 51.435 100.652 46.0683 102.047 41.4539C104.215 34.2807 105.08 27.6206 100.65 21.304C97.3879 16.6526 93.8687 14.3313 89.0209 14.5675C85.4076 14.7436 80.8558 19.0227 80.8558 19.0227Z" fill="#AC49C5"/>
<path d="M32.2319 65.7597C32.2319 65.7597 8.61682 75.6693 15.2053 82.4814C27.725 95.4262 42.0725 90.9292 59.1041 88.3768C79.1632 85.3707 98.6482 76.8723 104.569 62.126C106.888 56.351 91.2701 53.7979 91.2701 53.7979C86.1694 56.7114 82.1744 56.0743 82.1744 56.0743C82.1744 56.0743 76.3477 71.1988 63.5601 74.3992C39.885 80.3243 32.2319 65.7597 32.2319 65.7597Z" fill="#AC49C5"/>
<path d="M82.1744 56.0743L82.3975 46.3716C86.779 43.1313 88.7132 50.4182 96.5056 35.2036C97.1535 33.9385 95.3476 22.631 89.9786 22.3669C85.5709 22.1501 82.7323 31.8175 82.7323 31.8175C82.3277 28.4352 81.386 21.141 80.8558 19.0227C80.8558 19.0227 85.4076 14.7436 89.0209 14.5675C93.8687 14.3313 97.3879 16.6526 100.65 21.304C105.08 27.6206 104.215 34.2807 102.047 41.4539C100.652 46.0683 95.4067 51.435 91.2701 53.7979M82.1744 56.0743C82.1744 56.0743 86.1694 56.7114 91.2701 53.7979M82.1744 56.0743C82.1744 56.0743 76.3477 71.1988 63.5601 74.3992C39.885 80.3243 32.2319 65.7597 32.2319 65.7597C32.2319 65.7597 8.61682 75.6693 15.2053 82.4814C27.725 95.4262 42.0725 90.9292 59.1041 88.3768C79.1632 85.3707 98.6482 76.8723 104.569 62.126C106.888 56.351 91.2701 53.7979 91.2701 53.7979M82.1744 56.0743L91.2701 53.7979" stroke="#5C0E63"/>
</g>
<g filter="url(#filter2_d_473_42)">
<path d="M114.519 111.098C103.149 101.812 93.6983 97.8232 79.9408 96.242C74.6027 95.6285 73.9888 93.6849 67.1944 98.5588C59.5574 104.037 76.9879 117.875 88.9908 123.105C101.209 128.429 128.676 135.363 124.791 121.572C122.657 113.997 119.912 115.502 114.519 111.098Z" fill="#91C4DD" stroke="#25759F"/>
<g filter="url(#filter3_i_473_42)">
<path d="M107.989 113.076C99.5826 107.69 92.9939 104.888 83.8542 102.708C80.3079 101.862 77.5631 99.8864 73.6536 101.35C69.2591 102.995 83.7816 116.106 92.167 119.738C100.703 123.435 119.812 125.491 115.806 118.88C113.605 115.248 111.976 115.631 107.989 113.076Z" fill="#25759F"/>
</g>
<path d="M107.989 113.076C99.5826 107.69 92.9939 104.888 83.8542 102.708C80.3079 101.862 77.5631 99.8864 73.6536 101.35C69.2591 102.995 83.7816 116.106 92.167 119.738C100.703 123.435 119.812 125.491 115.806 118.88C113.605 115.248 111.976 115.631 107.989 113.076Z" stroke="#25759F"/>
<path d="M58.1294 130.598C58.216 120.022 65.1528 103.31 65.1528 103.31C65.1528 103.31 78.4337 118.588 89.8343 123.485C101.235 128.383 123.539 128.394 123.539 128.394C123.539 128.394 118.52 137.162 114.236 143.014C109.952 148.866 101.597 158.365 101.597 158.365C101.597 158.365 96.7588 162.409 93.0719 163.361C89.385 164.313 82.7155 163.241 82.7155 163.241C82.7155 163.241 69.8736 161.067 65.143 155.692C58.812 148.497 58.0402 141.495 58.1294 130.598Z" fill="#91C4DD" stroke="#25759F"/>
<path d="M123.413 127.907C122.533 129.953 118.836 136.475 117.097 139.481C117.097 139.481 125.093 133.268 128.3 136.068C132.207 139.478 126.737 149.794 125.482 150.443C110.38 158.242 113.321 151.135 108.043 151.177L102.008 158.974C102.008 158.974 104.648 161.872 110.273 162.525C114.835 163.055 122.053 161.79 125.899 158.848C131.879 154.275 136.561 149.346 137.025 141.548C137.367 135.806 136.105 131.815 132.291 129.123C129.447 127.118 123.413 127.907 123.413 127.907Z" fill="#91C4DD"/>
<path d="M58.3251 137.176C58.3251 137.176 34.4473 131.226 35.3183 140.713C36.9735 158.742 50.5592 163.603 65.0022 171.65C82.0124 181.127 101.909 185.774 115.31 177.244C120.558 173.904 110.273 162.525 110.273 162.525C104.648 161.872 102.008 158.974 102.008 158.974C102.008 158.974 88.4492 167.869 76.8289 162.877C55.3148 153.634 58.3251 137.176 58.3251 137.176Z" fill="#91C4DD"/>
<path d="M102.008 158.974L108.043 151.177C113.321 151.135 110.38 158.242 125.482 150.443C126.737 149.794 132.207 139.478 128.3 136.068C125.093 133.268 117.097 139.481 117.097 139.481C118.836 136.475 122.533 129.953 123.413 127.907C123.413 127.907 129.447 127.118 132.291 129.123C136.105 131.815 137.367 135.806 137.025 141.548C136.561 149.346 131.879 154.275 125.899 158.848C122.053 161.79 114.835 163.055 110.273 162.525M102.008 158.974C102.008 158.974 104.648 161.872 110.273 162.525M102.008 158.974C102.008 158.974 88.4492 167.869 76.8289 162.877C55.3148 153.634 58.3252 137.176 58.3252 137.176C58.3252 137.176 34.4473 131.226 35.3183 140.713C36.9735 158.742 50.5592 163.603 65.0022 171.65C82.0124 181.127 101.909 185.774 115.31 177.244C120.558 173.904 110.273 162.525 110.273 162.525M102.008 158.974L110.273 162.525" stroke="#25759F"/>
</g>
<defs>
<filter id="filter0_d_473_42" x="9.54492" y="10.1705" width="99.7593" height="89.582" filterUnits="userSpaceOnUse" color-interpolation-filters="sRGB">
<feFlood flood-opacity="0" result="BackgroundImageFix"/>
<feColorMatrix in="SourceAlpha" type="matrix" values="0 0 0 0 0 0 0 0 0 0 0 0 0 0 0 0 0 0 127 0" result="hardAlpha"/>
<feOffset dy="4"/>
<feGaussianBlur stdDeviation="2"/>
<feComposite in2="hardAlpha" operator="out"/>
<feColorMatrix type="matrix" values="0 0 0 0 0 0 0 0 0 0 0 0 0 0 0 0 0 0 0.25 0"/>
<feBlend mode="normal" in2="BackgroundImageFix" result="effect1_dropShadow_473_42"/>
<feBlend mode="normal" in="SourceGraphic" in2="effect1_dropShadow_473_42" result="shape"/>
</filter>
<filter id="filter1_i_473_42" x="22.1616" y="15.4746" width="49.0771" height="21.8409" filterUnits="userSpaceOnUse" color-interpolation-filters="sRGB">
<feFlood flood-opacity="0" result="BackgroundImageFix"/>
<feBlend mode="normal" in="SourceGraphic" in2="BackgroundImageFix" result="shape"/>
<feColorMatrix in="SourceAlpha" type="matrix" values="0 0 0 0 0 0 0 0 0 0 0 0 0 0 0 0 0 0 127 0" result="hardAlpha"/>
<feOffset dy="4"/>
<feGaussianBlur stdDeviation="2"/>
<feComposite in2="hardAlpha" operator="arithmetic" k2="-1" k3="1"/>
<feColorMatrix type="matrix" values="0 0 0 0 0 0 0 0 0 0 0 0 0 0 0 0 0 0 0.25 0"/>
<feBlend mode="normal" in2="shape" result="effect1_innerShadow_473_42"/>
</filter>
<filter id="filter2_d_473_42" x="30.7949" y="94.8402" width="110.784" height="95.3834" filterUnits="userSpaceOnUse" color-interpolation-filters="sRGB">
<feFlood flood-opacity="0" result="BackgroundImageFix"/>
<feColorMatrix in="SourceAlpha" type="matrix" values="0 0 0 0 0 0 0 0 0 0 0 0 0 0 0 0 0 0 127 0" result="hardAlpha"/>
<feOffset dy="4"/>
<feGaussianBlur stdDeviation="2"/>
<feComposite in2="hardAlpha" operator="out"/>
<feColorMatrix type="matrix" values="0 0 0 0 0 0 0 0 0 0 0 0 0 0 0 0 0 0 0.25 0"/>
<feBlend mode="normal" in2="BackgroundImageFix" result="effect1_dropShadow_473_42"/>
<feBlend mode="normal" in="SourceGraphic" in2="effect1_dropShadow_473_42" result="shape"/>
</filter>
<filter id="filter3_i_473_42" x="72.3433" y="100.325" width="44.5083" height="27.3618" filterUnits="userSpaceOnUse" color-interpolation-filters="sRGB">
<feFlood flood-opacity="0" result="BackgroundImageFix"/>
<feBlend mode="normal" in="SourceGraphic" in2="BackgroundImageFix" result="shape"/>
<feColorMatrix in="SourceAlpha" type="matrix" values="0 0 0 0 0 0 0 0 0 0 0 0 0 0 0 0 0 0 127 0" result="hardAlpha"/>
<feOffset dy="4"/>
<feGaussianBlur stdDeviation="2"/>
<feComposite in2="hardAlpha" operator="arithmetic" k2="-1" k3="1"/>
<feColorMatrix type="matrix" values="0 0 0 0 0 0 0 0 0 0 0 0 0 0 0 0 0 0 0.25 0"/>
<feBlend mode="normal" in2="shape" result="effect1_innerShadow_473_42"/>
</filter>
</defs>
</svg>
