<svg width="199" height="169" viewBox="0 0 199 169" fill="none" xmlns="http://www.w3.org/2000/svg">
<g filter="url(#filter0_d_473_43)">
<path d="M44.4573 103.336C33.8657 102.203 26.538 103.521 17.543 107.999C14.0528 109.737 12.9102 108.802 10.7058 114.44C8.22806 120.778 24.308 122.274 33.6796 120.699C43.2196 119.097 62.6727 112.444 54.8518 105.623C50.5557 101.876 49.4813 103.874 44.4573 103.336Z" fill="#91C4DD" stroke="#25759F"/>
<g filter="url(#filter1_i_473_43)">
<path d="M41.2685 107.116C34.023 107.174 28.9061 108.08 22.4832 110.37C19.991 111.259 17.5396 111.147 15.7405 113.579C13.7183 116.312 27.7414 118.517 34.28 117.404C40.9361 116.271 53.3744 109.965 48.3209 107.543C45.5449 106.212 44.7053 107.088 41.2685 107.116Z" fill="#25759F"/>
</g>
<path d="M41.2685 107.116C34.023 107.174 28.9061 108.08 22.4832 110.37C19.991 111.259 17.5396 111.147 15.7405 113.579C13.7183 116.312 27.7414 118.517 34.28 117.404C40.9361 116.271 53.3744 109.965 48.3209 107.543C45.5449 106.212 44.7053 107.088 41.2685 107.116Z" stroke="#25759F"/>
<path d="M17.8717 137.435C13.7388 130.993 11.3447 118.126 11.3447 118.126C11.3447 118.126 25.4702 122.134 34.344 120.597C43.2177 119.059 56.7902 110.252 56.7902 110.252C56.7902 110.252 57.2072 117.547 56.9169 122.786C56.6267 128.025 55.3037 137.082 55.3037 137.082C55.3037 137.082 53.9607 141.444 52.0946 143.478C50.2285 145.512 45.7469 147.498 45.7469 147.498C45.7469 147.498 37.0743 151.255 32.0691 149.868C25.3706 148.011 22.13 144.073 17.8717 137.435Z" fill="#91C4DD" stroke="#25759F"/>
<path d="M56.5204 110.006C56.7955 111.594 57.1274 117.007 57.259 119.515C57.259 119.515 59.6643 112.591 62.7234 113.02C66.4496 113.542 67.2051 121.954 66.6978 122.843C60.5974 133.536 59.5743 128.068 56.38 130.179L55.794 137.289C55.794 137.289 58.5471 138.001 62.2276 136.174C65.2124 134.692 69.1024 131.073 70.2784 127.771C72.1064 122.637 73.0036 117.801 70.2 112.892C68.1354 109.278 65.7884 107.358 62.4028 107.235C59.8793 107.143 56.5204 110.006 56.5204 110.006Z" fill="#91C4DD"/>
<path d="M20.5938 141.344C20.5938 141.344 3.71301 147.174 7.99763 152.578C16.1395 162.848 26.3279 160.424 38.2987 159.592C52.3974 158.613 66.3402 153.566 71.1169 143.102C72.9876 139.004 62.2276 136.174 62.2276 136.174C58.5471 138.001 55.794 137.289 55.794 137.289C55.794 137.289 51.0662 148.036 42.0214 149.603C25.2755 152.505 20.5938 141.344 20.5938 141.344Z" fill="#91C4DD"/>
<path d="M55.794 137.289L56.38 130.179C59.5742 128.068 60.5974 133.536 66.6978 122.843C67.2051 121.954 66.4496 113.542 62.7234 113.02C59.6643 112.591 57.259 119.515 57.259 119.515C57.1274 117.007 56.7955 111.594 56.5204 110.006C56.5204 110.006 59.8793 107.143 62.4028 107.235C65.7884 107.358 68.1354 109.278 70.2 112.892C73.0036 117.801 72.1064 122.637 70.2784 127.771C69.1024 131.073 65.2124 134.692 62.2276 136.174M55.794 137.289C55.794 137.289 58.5471 138.001 62.2276 136.174M55.794 137.289C55.794 137.289 51.0662 148.036 42.0214 149.603C25.2755 152.505 20.5938 141.344 20.5938 141.344C20.5938 141.344 3.71301 147.174 7.99763 152.578C16.1395 162.848 26.3279 160.424 38.2987 159.592C52.3974 158.613 66.3402 153.566 71.1169 143.102C72.9876 139.004 62.2276 136.174 62.2276 136.174M55.794 137.289L62.2276 136.174" stroke="#25759F"/>
</g>
<g filter="url(#filter2_d_473_43)">
<path d="M154.489 37.2987C138.165 25.5214 125.032 19.8619 106.408 16.3008C99.1821 14.9191 98.132 12.6864 89.596 17.1886C80.0012 22.2492 104.981 39.8635 121.68 47.2336C138.678 54.736 176.301 66.028 169.482 50.2476C165.736 41.5795 162.232 42.8852 154.489 37.2987Z" fill="#FF9AE7" stroke="#901B8E"/>
<g filter="url(#filter3_i_473_43)">
<path d="M145.968 38.6303C134.072 31.5602 124.914 27.5912 112.41 23.9745C107.558 22.5711 103.648 20.0231 98.5793 21.1292C92.8821 22.3725 113.879 38.7989 125.543 43.9238C137.416 49.1408 163.267 53.931 157.125 46.0845C153.75 41.7743 151.611 41.984 145.968 38.6303Z" fill="#901B8E"/>
</g>
<path d="M145.968 38.6303C134.072 31.5602 124.914 27.5912 112.41 23.9745C107.558 22.5711 103.648 20.0231 98.5793 21.1292C92.8821 22.3725 113.879 38.7989 125.543 43.9238C137.416 49.1408 163.267 53.931 157.125 46.0845C153.75 41.7743 151.611 41.984 145.968 38.6303Z" stroke="#901B8E"/>
<path d="M81.1943 51.4691C80.0733 39.7711 87.4155 22.1804 87.4155 22.1804C87.4155 22.1804 107.002 40.8429 122.855 47.766C138.707 54.6891 168.601 57.636 168.601 57.636C168.601 57.636 162.901 66.6828 157.843 72.5984C152.786 78.514 142.7 87.9318 142.7 87.9318C142.7 87.9318 136.688 91.7724 131.858 92.3414C127.028 92.9103 117.964 90.8457 117.964 90.8457C117.964 90.8457 100.498 86.7487 93.5294 80.1746C84.2028 71.3763 82.3493 63.5222 81.1943 51.4691Z" fill="#FF9AE7" stroke="#901B8E"/>
<path d="M168.375 57.08C167.436 59.2303 163.244 65.9647 161.265 69.0632C161.265 69.0632 171.254 63.237 175.88 66.7587C181.515 71.0485 175.391 81.7506 173.784 82.3034C154.456 88.9509 157.567 81.4699 150.498 80.8213L143.321 88.6601C143.321 88.6601 147.199 92.2158 154.814 93.6794C160.99 94.8665 170.516 94.4151 175.327 91.6646C182.807 87.3888 188.504 82.5472 188.215 73.9744C188.001 67.6617 185.843 63.0768 180.416 59.5953C176.371 57.0003 168.375 57.08 168.375 57.08Z" fill="#FF9AE7"/>
<path d="M82.2259 58.778C82.2259 58.778 49.5276 49.0474 51.8047 59.6664C56.1318 79.8451 74.9087 87.0146 95.2071 97.8245C119.114 110.556 146.323 118.319 163.286 110.639C169.93 107.631 154.814 93.6794 154.814 93.6794C147.199 92.2158 143.321 88.6601 143.321 88.6601C143.321 88.6601 126.19 96.7242 110.032 89.6676C80.1163 76.6029 82.2259 58.778 82.2259 58.778Z" fill="#FF9AE7"/>
<path d="M143.321 88.6601L150.498 80.8213C157.567 81.4699 154.456 88.9509 173.784 82.3034C175.391 81.7506 181.515 71.0485 175.88 66.7587C171.254 63.237 161.265 69.0632 161.265 69.0632C163.244 65.9647 167.436 59.2303 168.375 57.08C168.375 57.08 176.371 57.0003 180.416 59.5953C185.843 63.0768 188.001 67.6617 188.215 73.9744C188.504 82.5472 182.807 87.3888 175.327 91.6646C170.516 94.4151 160.99 94.8665 154.814 93.6794M143.321 88.6601C143.321 88.6601 147.199 92.2158 154.814 93.6794M143.321 88.6601C143.321 88.6601 126.19 96.7242 110.032 89.6676C80.1163 76.6029 82.2259 58.778 82.2259 58.778C82.2259 58.778 49.5276 49.0474 51.8047 59.6664C56.1318 79.8451 74.9087 87.0146 95.2071 97.8245C119.114 110.556 146.323 118.319 163.286 110.639C169.93 107.631 154.814 93.6794 154.814 93.6794M143.321 88.6601L154.814 93.6794" stroke="#901B8E"/>
</g>
<defs>
<filter id="filter0_d_473_43" x="2.80078" y="102.452" width="73.6885" height="66.4944" filterUnits="userSpaceOnUse" color-interpolation-filters="sRGB">
<feFlood flood-opacity="0" result="BackgroundImageFix"/>
<feColorMatrix in="SourceAlpha" type="matrix" values="0 0 0 0 0 0 0 0 0 0 0 0 0 0 0 0 0 0 127 0" result="hardAlpha"/>
<feOffset dy="4"/>
<feGaussianBlur stdDeviation="2"/>
<feComposite in2="hardAlpha" operator="out"/>
<feColorMatrix type="matrix" values="0 0 0 0 0 0 0 0 0 0 0 0 0 0 0 0 0 0 0.25 0"/>
<feBlend mode="normal" in2="BackgroundImageFix" result="effect1_dropShadow_473_43"/>
<feBlend mode="normal" in="SourceGraphic" in2="effect1_dropShadow_473_43" result="shape"/>
</filter>
<filter id="filter1_i_473_43" x="15.043" y="106.307" width="34.9561" height="15.8916" filterUnits="userSpaceOnUse" color-interpolation-filters="sRGB">
<feFlood flood-opacity="0" result="BackgroundImageFix"/>
<feBlend mode="normal" in="SourceGraphic" in2="BackgroundImageFix" result="shape"/>
<feColorMatrix in="SourceAlpha" type="matrix" values="0 0 0 0 0 0 0 0 0 0 0 0 0 0 0 0 0 0 127 0" result="hardAlpha"/>
<feOffset dy="4"/>
<feGaussianBlur stdDeviation="2"/>
<feComposite in2="hardAlpha" operator="arithmetic" k2="-1" k3="1"/>
<feColorMatrix type="matrix" values="0 0 0 0 0 0 0 0 0 0 0 0 0 0 0 0 0 0 0.25 0"/>
<feBlend mode="normal" in2="shape" result="effect1_innerShadow_473_43"/>
</filter>
<filter id="filter2_d_473_43" x="47.1914" y="14.0107" width="145.534" height="108.179" filterUnits="userSpaceOnUse" color-interpolation-filters="sRGB">
<feFlood flood-opacity="0" result="BackgroundImageFix"/>
<feColorMatrix in="SourceAlpha" type="matrix" values="0 0 0 0 0 0 0 0 0 0 0 0 0 0 0 0 0 0 127 0" result="hardAlpha"/>
<feOffset dy="4"/>
<feGaussianBlur stdDeviation="2"/>
<feComposite in2="hardAlpha" operator="out"/>
<feColorMatrix type="matrix" values="0 0 0 0 0 0 0 0 0 0 0 0 0 0 0 0 0 0 0.25 0"/>
<feBlend mode="normal" in2="BackgroundImageFix" result="effect1_dropShadow_473_43"/>
<feBlend mode="normal" in="SourceGraphic" in2="effect1_dropShadow_473_43" result="shape"/>
</filter>
<filter id="filter3_i_473_43" x="97.1182" y="20.3583" width="61.437" height="34.367" filterUnits="userSpaceOnUse" color-interpolation-filters="sRGB">
<feFlood flood-opacity="0" result="BackgroundImageFix"/>
<feBlend mode="normal" in="SourceGraphic" in2="BackgroundImageFix" result="shape"/>
<feColorMatrix in="SourceAlpha" type="matrix" values="0 0 0 0 0 0 0 0 0 0 0 0 0 0 0 0 0 0 127 0" result="hardAlpha"/>
<feOffset dy="4"/>
<feGaussianBlur stdDeviation="2"/>
<feComposite in2="hardAlpha" operator="arithmetic" k2="-1" k3="1"/>
<feColorMatrix type="matrix" values="0 0 0 0 0 0 0 0 0 0 0 0 0 0 0 0 0 0 0.25 0"/>
<feBlend mode="normal" in2="shape" result="effect1_innerShadow_473_43"/>
</filter>
</defs>
</svg>
