<svg width="66" height="195" viewBox="0 0 66 195" fill="none" xmlns="http://www.w3.org/2000/svg">
<g filter="url(#filter0_i_745_53)">
<path d="M34.7231 186.8C28.5259 177.118 43.2265 158 43.2265 158C43.2265 158 40.8957 175.183 43.2265 182.6C45.316 189.249 54.1987 194 54.1987 194C54.1987 194 39.3272 193.993 34.7231 186.8Z" fill="url(#paint0_linear_745_53)"/>
</g>
<path d="M34.7231 186.8C28.5259 177.118 43.2265 158 43.2265 158C43.2265 158 40.8957 175.183 43.2265 182.6C45.316 189.249 54.1987 194 54.1987 194C54.1987 194 39.3272 193.993 34.7231 186.8Z" stroke="black"/>
<g filter="url(#filter1_i_745_53)">
<path d="M55.9193 129.04C66.4845 121.223 52.5807 96.7671 52.5807 96.7671C52.5807 96.7671 51.033 115.104 46.0584 121.901C41.599 127.995 28.8754 129.874 28.8754 129.874C28.8754 129.874 48.0702 134.848 55.9193 129.04Z" fill="url(#paint1_linear_745_53)"/>
</g>
<path d="M55.9193 129.04C66.4845 121.223 52.5807 96.7671 52.5807 96.7671C52.5807 96.7671 51.033 115.104 46.0584 121.901C41.599 127.995 28.8754 129.874 28.8754 129.874C28.8754 129.874 48.0702 134.848 55.9193 129.04Z" stroke="black"/>
<g filter="url(#filter2_i_745_53)">
<path d="M16.0495 96.5482C4.81213 91.0129 10.3045 65.0851 10.3045 65.0851C10.3045 65.0851 16.5506 82.3302 22.6754 87.9155C28.1661 92.9224 39.6832 92.386 39.6832 92.386C39.6832 92.386 24.398 100.66 16.0495 96.5482Z" fill="url(#paint2_linear_745_53)"/>
</g>
<path d="M16.0495 96.5482C4.81213 91.0129 10.3045 65.0851 10.3045 65.0851C10.3045 65.0851 16.5506 82.3302 22.6754 87.9155C28.1661 92.9224 39.6832 92.386 39.6832 92.386C39.6832 92.386 24.398 100.66 16.0495 96.5482Z" stroke="black"/>
<g filter="url(#filter3_i_745_53)">
<path d="M25.8323 37.5726C37.0697 32.0374 31.5773 6.10949 31.5773 6.10949C31.5773 6.10949 25.3313 23.3546 19.2064 28.9399C13.7158 33.9468 2.19861 33.4104 2.19861 33.4104C2.19861 33.4104 17.4839 41.6848 25.8323 37.5726Z" fill="url(#paint3_linear_745_53)"/>
</g>
<path d="M25.8323 37.5726C37.0697 32.0374 31.5773 6.10949 31.5773 6.10949C31.5773 6.10949 25.3313 23.3546 19.2064 28.9399C13.7158 33.9468 2.19861 33.4104 2.19861 33.4104C2.19861 33.4104 17.4839 41.6848 25.8323 37.5726Z" stroke="black"/>
<defs>
<filter id="filter0_i_745_53" x="32.6987" y="156.207" width="21.7358" height="42.2926" filterUnits="userSpaceOnUse" color-interpolation-filters="sRGB">
<feFlood flood-opacity="0" result="BackgroundImageFix"/>
<feBlend mode="normal" in="SourceGraphic" in2="BackgroundImageFix" result="shape"/>
<feColorMatrix in="SourceAlpha" type="matrix" values="0 0 0 0 0 0 0 0 0 0 0 0 0 0 0 0 0 0 127 0" result="hardAlpha"/>
<feOffset dy="4"/>
<feGaussianBlur stdDeviation="2"/>
<feComposite in2="hardAlpha" operator="arithmetic" k2="-1" k3="1"/>
<feColorMatrix type="matrix" values="0 0 0 0 0 0 0 0 0 0 0 0 0 0 0 0 0 0 0.25 0"/>
<feBlend mode="normal" in2="shape" result="effect1_innerShadow_745_53"/>
</filter>
<filter id="filter1_i_745_53" x="28.75" y="95.1178" width="31.6323" height="41.2391" filterUnits="userSpaceOnUse" color-interpolation-filters="sRGB">
<feFlood flood-opacity="0" result="BackgroundImageFix"/>
<feBlend mode="normal" in="SourceGraphic" in2="BackgroundImageFix" result="shape"/>
<feColorMatrix in="SourceAlpha" type="matrix" values="0 0 0 0 0 0 0 0 0 0 0 0 0 0 0 0 0 0 127 0" result="hardAlpha"/>
<feOffset dy="4"/>
<feGaussianBlur stdDeviation="2"/>
<feComposite in2="hardAlpha" operator="arithmetic" k2="-1" k3="1"/>
<feColorMatrix type="matrix" values="0 0 0 0 0 0 0 0 0 0 0 0 0 0 0 0 0 0 0.25 0"/>
<feBlend mode="normal" in2="shape" result="effect1_innerShadow_745_53"/>
</filter>
<filter id="filter2_i_745_53" x="8.4624" y="63.2683" width="31.459" height="38.9261" filterUnits="userSpaceOnUse" color-interpolation-filters="sRGB">
<feFlood flood-opacity="0" result="BackgroundImageFix"/>
<feBlend mode="normal" in="SourceGraphic" in2="BackgroundImageFix" result="shape"/>
<feColorMatrix in="SourceAlpha" type="matrix" values="0 0 0 0 0 0 0 0 0 0 0 0 0 0 0 0 0 0 127 0" result="hardAlpha"/>
<feOffset dy="4"/>
<feGaussianBlur stdDeviation="2"/>
<feComposite in2="hardAlpha" operator="arithmetic" k2="-1" k3="1"/>
<feColorMatrix type="matrix" values="0 0 0 0 0 0 0 0 0 0 0 0 0 0 0 0 0 0 0.25 0"/>
<feBlend mode="normal" in2="shape" result="effect1_innerShadow_745_53"/>
</filter>
<filter id="filter3_i_745_53" x="1.96045" y="4.29272" width="31.459" height="38.9261" filterUnits="userSpaceOnUse" color-interpolation-filters="sRGB">
<feFlood flood-opacity="0" result="BackgroundImageFix"/>
<feBlend mode="normal" in="SourceGraphic" in2="BackgroundImageFix" result="shape"/>
<feColorMatrix in="SourceAlpha" type="matrix" values="0 0 0 0 0 0 0 0 0 0 0 0 0 0 0 0 0 0 127 0" result="hardAlpha"/>
<feOffset dy="4"/>
<feGaussianBlur stdDeviation="2"/>
<feComposite in2="hardAlpha" operator="arithmetic" k2="-1" k3="1"/>
<feColorMatrix type="matrix" values="0 0 0 0 0 0 0 0 0 0 0 0 0 0 0 0 0 0 0.25 0"/>
<feBlend mode="normal" in2="shape" result="effect1_innerShadow_745_53"/>
</filter>
<linearGradient id="paint0_linear_745_53" x1="43.6987" y1="158" x2="43.6987" y2="194" gradientUnits="userSpaceOnUse">
<stop stop-color="#232C79"/>
<stop offset="0.5" stop-color="#344F98"/>
<stop offset="1" stop-color="#7FBDE7"/>
</linearGradient>
<linearGradient id="paint1_linear_745_53" x1="51.9713" y1="96.609" x2="42.4265" y2="133.391" gradientUnits="userSpaceOnUse">
<stop stop-color="#232C79"/>
<stop offset="0.5" stop-color="#344F98"/>
<stop offset="1" stop-color="#7FBDE7"/>
</linearGradient>
<linearGradient id="paint2_linear_745_53" x1="10.7897" y1="64.8222" x2="28.8935" y2="98.2325" gradientUnits="userSpaceOnUse">
<stop stop-color="#232C79"/>
<stop offset="0.5" stop-color="#344F98"/>
<stop offset="1" stop-color="#7FBDE7"/>
</linearGradient>
<linearGradient id="paint3_linear_745_53" x1="31.0921" y1="5.84658" x2="12.9883" y2="39.2569" gradientUnits="userSpaceOnUse">
<stop stop-color="#232C79"/>
<stop offset="0.5" stop-color="#344F98"/>
<stop offset="1" stop-color="#7FBDE7"/>
</linearGradient>
</defs>
</svg>
