<svg width="75" height="74" viewBox="0 0 75 74" fill="none" xmlns="http://www.w3.org/2000/svg">
<g filter="url(#filter0_n_522_178)">
<path d="M38.6388 18.095C38.6388 18.095 35.5249 10.481 39.1963 8.7912C41.3973 7.77822 43.0106 8.82876 45.7048 9.56184C48.3991 10.2949 50.2428 10.2698 51.8696 13.133C54.1923 17.2211 47.1795 21.021 47.1795 21.021L38.6388 18.095Z" fill="#B57F4A"/>
<path d="M38.6388 18.095C38.6388 18.095 35.5249 10.481 39.1963 8.7912C41.3973 7.77822 43.0106 8.82876 45.7048 9.56184C48.3991 10.2949 50.2428 10.2698 51.8696 13.133C54.1923 17.2211 47.1795 21.021 47.1795 21.021L38.6388 18.095Z" stroke="#80592B" stroke-linecap="round"/>
</g>
<path d="M35.1495 26.5689L37.3864 20.0396C37.3864 20.0396 32.0285 15.6463 34.8843 13.8322C37.7402 12.0181 39.447 17.0977 44.2639 18.7479C49.2229 20.4468 50.047 19.0268 50.047 19.0268C50.047 19.0268 54.9267 20.3345 55.0351 22.4381C55.1435 24.5417 48.4066 23.815 48.4066 23.815L46.1697 30.3443C46.1697 30.3443 53.3069 44.5467 51.3764 52.7991C48.4958 65.1126 36.5434 66.4429 36.5434 66.4429L20.0397 60.7888C20.0397 60.7888 8.19056 54.5407 13.934 39.9716C19.6774 25.4027 35.1495 26.5689 35.1495 26.5689Z" fill="#B8DDE4" fill-opacity="0.64" stroke="#2D3C5D" stroke-linecap="round"/>
<g filter="url(#filter1_n_522_178)">
<path d="M49.5765 59.4523L12.887 44.3755C12.887 44.3755 13.5366 41.5957 14.5205 39.6073C15.5044 37.6189 17.5415 35.3144 17.5415 35.3144L51.7231 50.4722C51.7231 50.4722 51.5388 53.7249 50.8258 55.8061L49.5765 59.4523Z" fill="#D9A847" fill-opacity="0.91"/>
<path d="M49.5765 59.4523L12.887 44.3755C12.887 44.3755 13.5366 41.5957 14.5205 39.6073C15.5044 37.6189 17.5415 35.3144 17.5415 35.3144L51.7231 50.4722C51.7231 50.4722 51.5388 53.7249 50.8258 55.8061L49.5765 59.4523Z" stroke="#80592B"/>
</g>
<path d="M19.7832 45.3638C19.7629 45.3554 19.7441 45.3437 19.7268 45.3286L19.6648 45.2792C19.6573 45.2603 19.6596 45.2375 19.6718 45.2108L19.6947 45.1608C19.7635 45.1337 19.81 45.0934 19.8344 45.0401L19.8664 44.97C19.8664 44.97 19.8657 44.9539 19.8643 44.9216C19.8569 44.9027 19.8547 44.8899 19.8577 44.8832C19.8486 44.9032 19.8792 44.8802 19.9497 44.8141C19.9497 44.8141 19.9581 44.778 19.975 44.7057C19.9825 44.7246 20.0323 44.6421 20.1243 44.4581C20.1267 44.4353 20.1416 44.3939 20.169 44.3338L20.2066 44.278C20.2225 44.2608 20.2335 44.2455 20.2396 44.2322C20.2305 44.2522 20.2283 44.2394 20.233 44.1938L20.2969 44.0537L20.3177 43.9552L20.3294 43.8768L20.4183 43.7351L20.5026 43.6034L20.5279 43.495L20.534 43.4023C20.5377 43.4118 20.5506 43.4012 20.5726 43.3707L20.5909 43.3307C20.5871 43.3212 20.5883 43.3098 20.5944 43.2964C20.6269 43.2782 20.6601 43.276 20.694 43.29C20.7279 43.304 20.7528 43.3024 20.7687 43.2852L20.7057 43.2116L20.7103 43.2016C20.7255 43.1682 20.7224 43.0956 20.701 42.9837L20.761 42.9846L20.7793 42.9446L20.7874 42.9004L20.8331 42.8003C20.8757 42.707 20.9329 42.6434 21.0048 42.6096C21.0003 42.584 20.9974 42.555 20.9961 42.5228L21.0006 42.5128C21.0159 42.4794 21.0597 42.4539 21.1323 42.4363C21.2078 42.412 21.26 42.3859 21.2888 42.3582C21.2949 42.3448 21.2875 42.2903 21.2668 42.1945L21.2439 42.0066C21.2469 42 21.2447 41.9872 21.2372 41.9682L21.2408 41.934C21.2469 41.9207 21.2563 41.9087 21.2692 41.8982L21.2931 41.8724C21.3479 41.7523 21.3803 41.6903 21.3901 41.6865C21.5008 41.5498 21.5486 41.4982 21.5333 41.5315C21.5515 41.3329 21.5637 41.2269 21.5698 41.2136L21.6551 41.1061L21.7359 41.0086L21.7683 40.8318C21.7714 40.8251 21.7809 40.8131 21.7968 40.7959C21.8157 40.772 21.8393 40.7382 21.8674 40.6943C21.8704 40.6876 21.8818 40.6804 21.9014 40.6726C21.9211 40.6649 21.9339 40.6543 21.94 40.641L21.9461 40.5484C21.9403 40.4905 21.9389 40.4582 21.942 40.4515C21.9542 40.4248 21.9818 40.4085 22.0248 40.4025C22.0248 40.4025 22.0241 40.3863 22.0227 40.3541C22.0085 40.3323 22.0029 40.3181 22.0059 40.3114C22.0303 40.2581 22.0818 40.2159 22.1604 40.1849C22.2458 40.1567 22.3006 40.116 22.325 40.0626L22.358 40.0168C22.3739 39.9996 22.3865 39.981 22.3956 39.9609C22.4047 39.9409 22.3803 39.915 22.3224 39.8831C22.2675 39.8446 22.24 39.8253 22.24 39.8253C22.2613 39.7787 22.3118 39.7123 22.3914 39.6262C22.3876 39.6167 22.3722 39.6064 22.3451 39.5952C22.3634 39.5552 22.3913 39.4676 22.4288 39.3325C22.4719 39.3264 22.5069 39.329 22.5341 39.3402C22.6357 39.3822 22.7061 39.4311 22.7451 39.4868L22.8132 39.4436C22.8169 39.453 22.8191 39.4658 22.8198 39.482C22.8303 39.4942 22.8344 39.5118 22.832 39.5346C22.8371 39.5763 22.8532 39.6028 22.8803 39.614C22.8939 39.6196 22.9237 39.6161 22.9698 39.6034C23.0128 39.5973 23.0411 39.5971 23.0547 39.6027L23.075 39.6111C23.0787 39.6206 23.084 39.6267 23.0908 39.6295C23.1043 39.6351 23.1307 39.6302 23.17 39.6147C23.2131 39.6087 23.238 39.6071 23.2448 39.6099C23.2583 39.6155 23.2842 39.6381 23.3226 39.6777L23.3755 39.7471L23.5417 39.78L23.6977 39.8088C23.7181 39.8172 23.7335 39.8275 23.744 39.8398C23.7515 39.8587 23.7638 39.8757 23.7811 39.8908C23.7984 39.9058 23.804 39.92 23.7979 39.9334L23.7888 39.9534C23.7925 39.9629 23.8012 39.9704 23.8147 39.976C23.8757 40.0012 23.9157 40.0018 23.9347 39.978L24.0363 40.0199C24.0354 40.075 24.0552 40.111 24.0959 40.1278C24.123 40.1389 24.1464 40.1407 24.166 40.1329C24.1955 40.1213 24.2385 40.1153 24.2951 40.1149C24.2988 40.1243 24.298 40.1438 24.2926 40.1733C24.2902 40.1961 24.2848 40.2256 24.2764 40.2617C24.2838 40.2807 24.2977 40.2943 24.3181 40.3027C24.3655 40.3223 24.3843 40.3341 24.3745 40.3379C24.3941 40.3302 24.407 40.3196 24.4131 40.3063L24.5555 40.3651L24.5047 40.582C24.5122 40.6009 24.5193 40.6118 24.5261 40.6146L24.5612 40.6172C24.571 40.6133 24.5793 40.6128 24.5861 40.6156C24.6539 40.6436 24.7008 40.6907 24.7269 40.757C24.7412 40.7787 24.7451 40.8319 24.7387 40.9164C24.7492 40.9287 24.7608 40.9652 24.7733 41.0259L24.7515 41.1001C24.7522 41.1162 24.748 41.1343 24.7388 41.1543C24.7327 41.1677 24.727 41.1891 24.7216 41.2186C24.7606 41.2743 24.7664 41.3322 24.7389 41.3922C24.7085 41.4589 24.6484 41.4936 24.5586 41.4961C24.6298 41.6048 24.6588 41.7001 24.6456 41.7818C24.6727 41.793 24.6771 41.8186 24.6589 41.8587L24.4944 42.2189C24.5005 42.2055 24.4766 42.2314 24.4227 42.2963C24.4241 42.3286 24.4013 42.3786 24.3542 42.4464C24.3278 42.4514 24.2654 42.4732 24.1672 42.5119C24.1716 42.5375 24.1941 42.5587 24.2348 42.5755C24.2385 42.585 24.2374 42.5964 24.2313 42.6097L24.2074 42.6356L24.1734 42.6572L24.1368 42.7372C24.1338 42.7439 24.096 42.7561 24.0235 42.7737L23.9767 42.8495C23.9669 42.8534 23.9541 42.864 23.9381 42.8812C23.9253 42.8917 23.9109 42.9056 23.895 42.9228C23.8482 42.9194 23.7969 42.9259 23.741 42.9425C23.6969 43.0036 23.6129 43.064 23.4889 43.1238C23.4754 43.1183 23.4471 43.1185 23.4041 43.1245L23.3858 43.1645C23.3963 43.1768 23.4053 43.1924 23.4127 43.2113C23.427 43.2331 23.4412 43.2548 23.4555 43.2765C23.4538 43.3155 23.4611 43.37 23.4774 43.4402C23.4879 43.4525 23.4984 43.4647 23.5089 43.477C23.5194 43.4893 23.5318 43.5063 23.5461 43.528C23.54 43.5413 23.5324 43.558 23.5232 43.578C23.5239 43.5942 23.5215 43.617 23.5161 43.6465C23.5477 43.6833 23.5848 43.7343 23.6275 43.7995C23.6282 43.8156 23.624 43.8337 23.6148 43.8537C23.6155 43.8698 23.6064 43.8899 23.5874 43.9137C23.5783 43.9338 23.5763 43.9646 23.5814 44.0064L23.554 44.0664C23.575 44.091 23.5877 44.116 23.5921 44.1416L23.488 44.396L23.351 44.6962C23.3662 44.6628 23.3703 44.6803 23.3632 44.7488C23.3344 44.7765 23.31 44.8299 23.2901 44.9089L23.252 45.0716L23.1997 45.1332L23.154 45.2333L23.0666 45.2923C23.0605 45.3057 23.0594 45.3171 23.0631 45.3265L23.0504 45.3808C23.0504 45.3808 23.0428 45.3974 23.0276 45.4308C23.0154 45.4575 22.9922 45.4994 22.958 45.5567C22.9051 45.5666 22.8662 45.5901 22.8411 45.6274L22.8046 45.7074C22.7856 45.7313 22.7322 45.7687 22.6445 45.8197L22.4179 45.8926C22.4148 45.8993 22.4004 45.9132 22.3747 45.9343C22.3323 45.9564 22.247 45.9846 22.1185 46.0188C22.105 46.0132 22.0865 46.0095 22.0631 46.0078C22.0496 46.0022 22.0277 45.9972 21.9976 45.9926C21.9711 45.9976 21.9364 46.0031 21.8934 46.0091C21.8571 46.0179 21.8141 46.0239 21.7643 46.0271C21.7236 46.0103 21.6513 45.9924 21.5472 45.9732C21.4273 45.9712 21.3537 45.9647 21.3266 45.9535L21.2646 45.9041C21.2541 45.8918 21.2436 45.8795 21.2331 45.8673C21.2195 45.8617 21.2093 45.8575 21.2026 45.8547C21.1965 45.868 21.1614 45.8654 21.0973 45.8469C21.0506 45.8435 20.9967 45.8292 20.9357 45.804L20.5224 45.5976C20.4614 45.5725 20.406 45.5615 20.3561 45.5647C20.3328 45.563 20.3143 45.5593 20.3007 45.5537C20.2841 45.5548 20.2691 45.5525 20.2555 45.5469L20.1675 45.4749L20.0659 45.4329C20.032 45.419 19.9981 45.405 19.9642 45.391C19.934 45.3864 19.9039 45.3819 19.8737 45.3774L19.7832 45.3638ZM22.6483 40.1485C22.689 40.1653 22.7339 40.164 22.783 40.1447C22.7884 40.1152 22.8082 40.0718 22.8424 40.0146L22.9024 40.0156C22.9515 39.9962 22.952 39.9687 22.9039 39.9329C22.9039 39.9329 22.8915 39.9159 22.8667 39.8819C22.8593 39.863 22.8522 39.8521 22.8454 39.8493C22.825 39.8409 22.8027 39.8634 22.7783 39.9168L22.6625 40.0117C22.6239 40.0433 22.6015 40.0658 22.5954 40.0791C22.6036 40.1142 22.6212 40.1373 22.6483 40.1485ZM24.1388 40.6688C24.194 40.6361 24.204 40.5966 24.1688 40.5503C24.1491 40.558 24.1332 40.5753 24.121 40.6019C24.118 40.6086 24.1239 40.6309 24.1388 40.6688ZM24.3747 40.8137C24.3846 40.8099 24.3839 40.7937 24.3727 40.7653L24.333 40.7727C24.3368 40.7822 24.342 40.7883 24.3488 40.7911C24.3624 40.7967 24.371 40.8043 24.3747 40.8137ZM24.3164 40.968C24.3292 40.9575 24.3319 40.9427 24.3245 40.9238C24.3238 40.9077 24.3087 40.9054 24.2792 40.917C24.2701 40.937 24.2825 40.954 24.3164 40.968ZM22.3221 42.3448L22.3876 42.36C22.411 42.3617 22.4329 42.3667 22.4532 42.3751C22.5613 42.3325 22.6187 42.3126 22.6255 42.3154C22.6255 42.3154 22.6428 42.3305 22.6774 42.3606C22.6886 42.389 22.6975 42.4047 22.7043 42.4075L22.7394 42.41L22.7668 42.35C22.7912 42.2966 22.8132 42.2661 22.8328 42.2583C22.8494 42.2573 22.8781 42.2651 22.9188 42.2819L22.9447 42.3045C22.9484 42.314 22.9537 42.3201 22.9605 42.3229L22.991 42.3355C23.0106 42.3278 23.0303 42.32 23.0499 42.3123C23.0696 42.3045 23.0907 42.2935 23.1134 42.279L23.1591 42.179C23.1781 42.1551 23.197 42.1312 23.216 42.1073C23.235 42.0834 23.2573 42.061 23.2831 42.0399C23.2824 42.0237 23.2915 42.0037 23.3105 41.9798L23.3582 41.9282L23.3811 41.8782C23.4644 41.8016 23.5091 41.7566 23.5152 41.7433L23.5176 41.4469C23.5305 41.4364 23.5399 41.4244 23.546 41.4111C23.5552 41.3911 23.5662 41.3758 23.5791 41.3653L23.5972 41.0873C23.6026 41.0579 23.5884 41.0361 23.5545 41.0221L23.5194 41.0196C23.5096 41.0234 23.4979 41.0226 23.4843 41.017C23.4776 41.0142 23.4667 40.9938 23.4518 40.9559C23.4369 40.9181 23.4226 40.8963 23.4091 40.8907L23.3786 40.8781C23.3687 40.882 23.357 40.8812 23.3435 40.8756L23.2657 40.8078L23.1833 40.75C23.1698 40.7444 23.1267 40.7504 23.0542 40.768L23.0451 40.788C23.0359 40.808 23.0117 40.8258 22.9724 40.8413C22.9369 40.8662 22.9157 40.8773 22.9089 40.8745C22.9059 40.8812 22.8915 40.8951 22.8657 40.9162C22.8281 40.8927 22.8086 40.8648 22.8072 40.8325L22.8606 40.7951C22.8457 40.7572 22.8145 40.7285 22.767 40.7089C22.7467 40.7005 22.7221 40.7102 22.6933 40.738L22.7666 40.8158C22.7703 40.8252 22.771 40.8414 22.7686 40.8642C22.7693 40.8803 22.7719 40.9012 22.7763 40.9268C22.8034 40.938 22.8275 40.9559 22.8485 40.9804C22.8387 40.9843 22.8246 41.0062 22.8063 41.0462C22.8101 41.0557 22.8107 41.0718 22.8084 41.0947C22.8091 41.1108 22.8116 41.1317 22.816 41.1573L22.8191 41.2299L22.6226 41.6602C22.6165 41.6735 22.6086 41.6821 22.5988 41.686L22.5794 41.7018C22.5368 41.7952 22.5234 41.8333 22.5394 41.8161C22.4916 41.8677 22.4643 41.8921 22.4576 41.8893L22.4596 41.9377C22.461 41.97 22.4617 41.9862 22.4617 41.9862C22.4525 42.0062 22.4237 42.0339 22.3753 42.0694C22.3655 42.0733 22.3453 42.1086 22.3149 42.1753L22.286 42.318L22.3221 42.3448ZM21.7683 40.8318C21.7653 40.8384 21.7638 40.8418 21.7638 40.8418L21.7683 40.8318ZM24.0058 41.8863C24.0193 41.8919 24.0359 41.8908 24.0556 41.8831C24.0752 41.8754 24.0779 41.8606 24.0637 41.8389C24.0433 41.8305 24.024 41.8463 24.0058 41.8863ZM21.7073 41.865C21.7104 41.8583 21.7063 41.8408 21.6951 41.8124L21.6656 41.824C21.6694 41.8335 21.6746 41.8396 21.6814 41.8424C21.695 41.848 21.7036 41.8555 21.7073 41.865ZM21.6444 42.0293C21.6573 42.0188 21.66 42.004 21.6525 41.9851C21.6488 41.9756 21.6303 41.972 21.5971 41.9741C21.588 41.9941 21.6037 42.0125 21.6444 42.0293ZM22.5659 43.0282C22.5764 43.0404 22.5915 43.0427 22.6111 43.035C22.6209 43.0311 22.6252 43.013 22.6238 42.9807C22.6035 42.9723 22.5842 42.9881 22.5659 43.0282ZM22.4262 43.1489L22.3046 42.9917L22.3011 43.0259L22.4262 43.1489ZM21.2524 44.793C21.2659 44.7986 21.2908 44.797 21.3271 44.7882C21.3769 44.785 21.4086 44.7862 21.4221 44.7918C21.4658 44.8019 21.5012 44.8125 21.5284 44.8237C21.5585 44.8282 21.5804 44.8333 21.5939 44.8389L21.63 44.8657C21.6338 44.8752 21.6424 44.8827 21.656 44.8883C21.6831 44.8995 21.7215 44.9035 21.7714 44.9003L21.8247 44.8628L22.0138 44.8457L22.0381 44.7131C22.0547 44.712 22.0876 44.7018 22.1367 44.6824C22.1723 44.6575 22.2038 44.615 22.2312 44.5549L22.252 44.4565L22.2682 44.368C22.2743 44.3547 22.297 44.3403 22.3363 44.3248C22.3718 44.2998 22.3911 44.284 22.3942 44.2774L22.383 44.2489C22.3755 44.23 22.3733 44.2172 22.3764 44.2105C22.3855 44.1905 22.4119 44.1856 22.4556 44.1957C22.4624 44.1985 22.4633 44.179 22.4582 44.1373C22.4456 44.0766 22.4393 44.0462 22.4393 44.0462C22.4752 43.9501 22.498 43.9 22.5079 43.8962C22.4759 43.772 22.4645 43.6999 22.4737 43.6799C22.4889 43.6465 22.5113 43.624 22.5407 43.6124C22.5506 43.6085 22.5529 43.5857 22.5478 43.544L22.436 43.4978C22.4157 43.4894 22.4033 43.4724 22.3989 43.4468L22.4115 43.3926L22.1314 43.265L22.0841 43.2098L22.0221 43.1604L21.9123 43.1627L21.8072 43.3928C21.7798 43.4528 21.752 43.5048 21.7239 43.5487C21.7026 43.5954 21.6809 43.634 21.6589 43.6646C21.624 43.7057 21.6017 43.7282 21.5919 43.732C21.6203 43.7755 21.6255 43.8173 21.6072 43.8573L21.429 44.2475C21.4259 44.2542 21.4146 44.2614 21.3949 44.2691C21.3753 44.2769 21.3624 44.2874 21.3563 44.3008C21.3258 44.3675 21.2972 44.4389 21.2705 44.5151C21.2468 44.5846 21.225 44.6588 21.2051 44.7378L21.2524 44.793ZM22.7808 43.8542C22.7936 43.8437 22.793 43.8275 22.7787 43.8058C22.775 43.7963 22.7599 43.7941 22.7335 43.799C22.7243 43.819 22.7401 43.8374 22.7808 43.8542ZM20.9141 44.2371C20.9375 44.2388 20.9608 44.2406 20.9842 44.2423C21.0076 44.244 21.0325 44.2424 21.0589 44.2375L20.9643 44.127L20.9141 44.2371ZM22.7946 45.1206C22.8753 45.138 22.9329 45.1618 22.9675 45.1919L22.9994 45.1219C22.9808 45.0745 22.9613 45.0467 22.941 45.0383C22.9003 45.0215 22.8493 45.0361 22.788 45.0821L22.7946 45.1206ZM21.8886 45.5433C21.8947 45.5299 21.894 45.5138 21.8865 45.4949C21.8858 45.4787 21.8708 45.4765 21.8413 45.4881C21.8321 45.5081 21.8479 45.5265 21.8886 45.5433ZM25.7449 47.8014L25.6773 47.7378C25.5952 47.6881 25.5185 47.6445 25.4469 47.607C25.3792 47.5791 25.3197 47.5505 25.2685 47.5215L25.178 47.5079L24.9614 47.3471L24.8562 47.3394L24.5898 47.1818L24.4327 47.1288C24.4191 47.1232 24.4041 47.121 24.3875 47.1221L24.3422 47.1153L23.9426 46.8789L23.8623 46.8695C23.8518 46.8573 23.8345 46.8422 23.8104 46.8243C23.7931 46.8093 23.7725 46.7928 23.7484 46.775L23.7088 46.7824C23.6982 46.7701 23.6659 46.7528 23.6116 46.7304L23.5867 46.732L23.4037 46.6564C23.3021 46.6145 23.2873 46.541 23.3594 46.436L23.4391 46.3143C23.4672 46.2704 23.4874 46.2351 23.4996 46.2084C23.5148 46.1751 23.527 46.1484 23.5361 46.1284C23.549 46.1178 23.5702 46.1067 23.5996 46.0951C23.6322 46.0768 23.6798 46.0608 23.7424 46.047L23.7516 46.027L23.659 45.965L23.6672 45.9208C23.6885 45.8741 23.7188 45.843 23.7581 45.8276C23.8231 45.791 23.8682 45.7541 23.8932 45.7169C23.8624 45.6962 23.8509 45.6597 23.8586 45.6074L23.8784 45.4848C23.8784 45.4848 23.9263 45.3975 24.0221 45.223L24.0796 45.2824C24.0894 45.2785 24.1019 45.2599 24.1171 45.2266L24.1446 45.1665C24.1334 45.1381 24.1256 45.1111 24.1211 45.0855L24.1201 45.0613C24.1262 45.0479 24.1452 45.0241 24.177 44.9896C24.2088 44.9552 24.2248 44.938 24.2248 44.938C24.2369 44.9113 24.234 44.8824 24.2161 44.8512C24.2283 44.8245 24.2503 44.7939 24.2821 44.7595C24.2821 44.7595 24.2799 44.7467 24.2755 44.7211C24.2846 44.7011 24.2926 44.6925 24.2993 44.6953C24.3078 44.6591 24.3279 44.6238 24.3598 44.5894C24.3953 44.5644 24.4131 44.552 24.4131 44.552L24.4385 44.4435C24.4469 44.4074 24.4508 44.3812 24.4501 44.3651C24.4525 44.3423 24.4552 44.3275 24.4583 44.3208C24.4643 44.3075 24.487 44.2931 24.5263 44.2776C24.5656 44.2621 24.5883 44.2477 24.5944 44.2344C24.5944 44.2344 24.5968 44.2115 24.6015 44.1659C24.5903 44.1375 24.5862 44.12 24.5893 44.1133L24.7178 43.9642C24.69 43.9369 24.7015 43.894 24.7523 43.8357L24.8376 43.7282C24.8461 43.6921 24.8515 43.6626 24.8539 43.6398C24.863 43.6198 24.8706 43.6031 24.8767 43.5898L24.961 43.4581L25.0438 43.409C25.0432 43.3929 25.0452 43.362 25.0499 43.3164L25.1332 43.1605C25.1311 43.1121 25.1316 43.0845 25.1347 43.0779L25.2937 42.9413C25.2937 42.9413 25.2918 42.9366 25.2881 42.9271C25.2911 42.9205 25.2923 42.9091 25.2916 42.8929C25.3008 42.8729 25.3114 42.8496 25.3236 42.8229C25.3456 42.7923 25.3707 42.7551 25.3988 42.7112L25.4333 42.5827C25.437 42.5922 25.4666 42.545 25.5222 42.441L25.5292 42.3726C25.5285 42.3565 25.5263 42.3437 25.5226 42.3342C25.5257 42.3275 25.5287 42.3209 25.5317 42.3142C25.5446 42.3036 25.5575 42.2931 25.5704 42.2826C25.5832 42.272 25.5942 42.2567 25.6034 42.2367L25.7654 41.9349L26.1386 41.1971C26.209 41.131 26.2519 41.0813 26.2671 41.048L26.2798 40.9937C26.2859 40.9804 26.2871 40.969 26.2833 40.9595C26.2796 40.9501 26.2792 40.942 26.2823 40.9353L26.327 40.811C26.333 40.7977 26.3634 40.7666 26.4179 40.7178C26.442 40.7356 26.4694 40.7549 26.5003 40.7756C26.5342 40.7896 26.565 40.8102 26.5928 40.8376C26.604 40.866 26.6254 40.8986 26.6569 40.9354C26.6637 40.9382 26.6833 40.9304 26.7158 40.9121C26.7453 40.9005 26.7668 40.8975 26.7804 40.9031L26.8231 40.9683C26.8516 41.0118 26.9035 41.057 26.9787 41.1039C27.0044 41.0828 27.0271 41.0684 27.0468 41.0607L27.1327 41.0842C27.1629 41.0888 27.1881 41.0952 27.2084 41.1036L27.2354 41.1504C27.2429 41.1694 27.2617 41.1811 27.2918 41.1856L27.4027 41.2076C27.4328 41.2121 27.4547 41.2172 27.4682 41.2228C27.4818 41.2284 27.492 41.2326 27.4987 41.2354L27.6589 41.361C27.6755 41.3599 27.6906 41.3621 27.7041 41.3677C27.7275 41.3695 27.7543 41.3726 27.7845 41.3771L27.8668 41.4349C27.8614 41.4644 27.8757 41.4861 27.9095 41.5001C27.9163 41.5029 27.9378 41.4999 27.9741 41.4911C28.0134 41.4756 28.0334 41.4759 28.0341 41.4921C28.0341 41.4921 28.0514 41.5071 28.0859 41.5373C28.1056 41.5295 28.1271 41.5265 28.1505 41.5282L28.2125 41.5776C28.223 41.5899 28.2301 41.6008 28.2339 41.6102C28.2444 41.6225 28.253 41.63 28.2598 41.6328L28.3152 41.6438C28.3091 41.6572 28.309 41.6928 28.3148 41.7507C28.3375 41.7363 28.3496 41.7096 28.3513 41.6706L28.4464 41.6742C28.4569 41.6865 28.4726 41.7049 28.4937 41.7294C28.5147 41.7539 28.5391 41.7799 28.5669 41.8072C28.5608 41.8205 28.5634 41.8414 28.5746 41.8698L28.6051 41.8824L28.698 41.8376C28.7146 41.8365 28.7331 41.8401 28.7535 41.8485C28.7806 41.8597 28.8092 41.8676 28.8394 41.8721L28.906 41.9115L28.712 42.2833C28.6659 42.296 28.6353 42.319 28.62 42.3524L28.5936 42.4366L28.354 42.9085C28.3326 42.9552 28.2847 42.9632 28.2101 42.9324C28.1989 42.904 28.1847 42.8823 28.1674 42.8672C28.1433 42.8493 28.1076 42.8306 28.0601 42.811C28.0157 42.7848 27.9615 42.7624 27.8975 42.7438C27.8839 42.7382 27.867 42.7313 27.8466 42.7229C27.8293 42.7078 27.8053 42.6899 27.7744 42.6693L27.6875 42.6215L27.5157 42.5743L27.3474 42.493C27.3338 42.4874 27.3218 42.4784 27.3113 42.4662L27.2752 42.4394C27.224 42.4103 27.1815 42.3888 27.1476 42.3748C27.1205 42.3636 27.1035 42.3566 27.0967 42.3538C27.0788 42.3226 27.0562 42.3014 27.0291 42.2902C27.0155 42.2846 26.9857 42.2881 26.9397 42.3008C26.8936 42.3135 26.8638 42.3171 26.8502 42.3115C26.8411 42.3315 26.8316 42.3434 26.8218 42.3473L26.8091 42.4015C26.8098 42.4177 26.8055 42.4357 26.7964 42.4558C26.7903 42.4691 26.7846 42.4905 26.7791 42.52C26.6992 42.5187 26.6177 42.6 26.5348 42.764L26.5709 42.7908L26.6421 42.8202C26.6458 42.8296 26.6416 42.8477 26.6294 42.8744C26.6172 42.9011 26.5915 42.9222 26.5522 42.9376C26.503 42.957 26.4785 42.9667 26.4785 42.9667C26.4782 43.0379 26.4662 43.1083 26.4425 43.1778C26.4364 43.1911 26.4091 43.2156 26.3607 43.2511C26.3123 43.2866 26.2804 43.321 26.2652 43.3543L26.2586 43.3159L26.2189 43.3233L26.2052 43.3534C26.2127 43.3723 26.2367 43.3902 26.2774 43.407C26.2713 43.4203 26.2637 43.437 26.2546 43.457C26.2553 43.4731 26.2544 43.4926 26.2521 43.5154C26.2616 43.5828 26.2799 43.622 26.307 43.6332L26.3919 43.6326C26.3956 43.6421 26.4031 43.661 26.4143 43.6894C26.4353 43.714 26.4492 43.7276 26.456 43.7304C26.4522 43.721 26.4885 43.7121 26.5647 43.704C26.6227 43.7358 26.6683 43.7507 26.7015 43.7485C26.7276 43.8148 26.7508 43.8522 26.7712 43.8606L26.8118 43.8773L26.8967 43.8767C26.9035 43.8795 26.9152 43.8804 26.9318 43.8793C26.9484 43.8782 26.965 43.8772 26.9816 43.8761L27.0517 43.8813C27.0721 43.8896 27.0897 43.9128 27.1046 43.9507C27.1233 43.998 27.136 44.0231 27.1428 44.0259C27.1692 44.0209 27.2043 44.0235 27.248 44.0336C27.248 44.0336 27.245 44.0403 27.2389 44.0537C27.2426 44.0631 27.2399 44.0779 27.2308 44.0979C27.2186 44.1246 27.1969 44.1632 27.1658 44.2137C27.1444 44.2604 27.1136 44.3191 27.0733 44.3897L27.0347 44.4213C27.0324 44.4441 27.0144 44.4922 26.9809 44.5656C26.9681 44.5761 26.9506 44.5967 26.9286 44.6272C26.9066 44.6578 26.8925 44.6797 26.8865 44.6931L26.8773 44.7131C26.8712 44.7264 26.8628 44.7626 26.852 44.8215L26.8337 44.8615C26.8123 44.9082 26.7805 44.9427 26.7382 44.9648C26.6399 45.0036 26.584 45.0201 26.5705 45.0145L26.4927 44.9467C26.4791 44.9411 26.4606 44.9375 26.4373 44.9357L26.3717 44.9206C26.3642 44.9016 26.3518 44.8846 26.3346 44.8695C26.3271 44.8506 26.3113 44.8322 26.2873 44.8143C26.2707 44.8154 26.2507 44.8151 26.2273 44.8134C26.2137 44.8078 26.1919 44.8027 26.1617 44.7982L26.0636 44.722C26.0049 44.674 25.9654 44.6458 25.9451 44.6374L25.8343 44.6154C25.8207 44.6098 25.8144 44.5795 25.8154 44.5244C25.8456 44.5289 25.8702 44.5192 25.8891 44.4954L25.8993 44.4996C25.9128 44.5052 25.9332 44.5136 25.9603 44.5247C25.9874 44.5359 26.013 44.5505 26.0371 44.5683L26.0655 44.5325L26.0747 44.5125C26.0838 44.4925 26.0809 44.4635 26.066 44.4257C26.0592 44.4229 26.0456 44.4173 26.0253 44.4089C26.0148 44.3966 25.9975 44.3815 25.9734 44.3637C25.9538 44.3714 25.9348 44.3953 25.9165 44.4353C25.8993 44.4203 25.8713 44.4285 25.8327 44.4602C25.8252 44.4412 25.7969 44.4414 25.7478 44.4608L25.7158 44.5308C25.6962 44.5386 25.672 44.5563 25.6432 44.5841C25.5866 44.5845 25.5507 44.6014 25.5354 44.6348C25.5354 44.6348 25.5392 44.6442 25.5466 44.6632C25.5504 44.6726 25.5492 44.684 25.5431 44.6974L25.5248 44.7374C25.5157 44.7574 25.5065 44.7774 25.4974 44.7974C25.4883 44.8175 25.4727 44.8427 25.4507 44.8733L25.4629 44.9259C25.4311 44.9603 25.3421 45.0227 25.1961 45.1131L25.187 45.1331C25.1748 45.1598 25.1743 45.1873 25.1855 45.2157C25.2174 45.1813 25.2744 45.1533 25.3568 45.1318C25.3687 45.1764 25.367 45.2153 25.3517 45.2487C25.3487 45.2554 25.2897 45.2786 25.1749 45.3184L25.1836 45.4052L25.2288 45.412C25.2559 45.4232 25.2604 45.4488 25.2421 45.4888C25.2224 45.4966 25.1933 45.5163 25.1547 45.5479C25.1289 45.569 25.11 45.5929 25.0978 45.6195L25.1146 45.6622C25.1115 45.6688 25.0714 45.7038 24.9942 45.767L24.9881 45.8597C24.9729 45.893 24.94 45.9033 24.8895 45.8903C24.8933 45.8998 24.9087 45.9101 24.9358 45.9213L24.9323 45.9555C24.9028 45.9672 24.8801 45.9816 24.8642 45.9988C24.8595 46.0444 24.8725 46.0776 24.9034 46.0982C24.9373 46.1122 24.9628 46.1267 24.9801 46.1418C25.0374 46.1575 25.0932 46.1766 25.1474 46.199C25.2016 46.2214 25.2592 46.2451 25.3202 46.2703C25.3148 46.2998 25.3257 46.3201 25.3528 46.3313C25.3663 46.3369 25.4106 46.3195 25.4854 46.2791C25.5261 46.2959 25.5364 46.3437 25.5165 46.4227L25.547 46.4353C25.5561 46.4153 25.5671 46.4 25.58 46.3895C25.6366 46.3891 25.7108 46.4118 25.8027 46.4576L25.9018 46.558C25.8988 46.5647 25.9244 46.5792 25.9786 46.6016C26.0057 46.6128 26.0211 46.6231 26.0249 46.6326L26.1708 46.6572C26.1911 46.6656 26.2111 46.6659 26.2307 46.6581C26.2406 46.6543 26.2658 46.6607 26.3065 46.6775C26.3546 46.7132 26.3634 46.7645 26.333 46.8312C26.3208 46.8579 26.2786 46.9237 26.2065 47.0287C26.2065 47.0287 26.1967 47.0326 26.177 47.0403C26.1642 47.0509 26.1547 47.0628 26.1486 47.0761L26.0344 47.3263C26.0344 47.3263 26.011 47.3246 25.9642 47.3211C25.969 47.4341 25.9577 47.5206 25.9303 47.5806C25.9151 47.614 25.8795 47.639 25.8236 47.6555L25.7947 47.7982C25.7615 47.8003 25.7449 47.8014 25.7449 47.8014ZM28.3455 42.2391L28.3557 42.2433C28.3963 42.26 28.4409 42.2507 28.4893 42.2152C28.4812 42.1801 28.4703 42.1598 28.4568 42.1542L28.3028 42.1738C28.3109 42.2089 28.3252 42.2307 28.3455 42.2391ZM28.0665 42.3736C28.0696 42.367 28.0655 42.3494 28.0543 42.321C28.0543 42.321 28.0445 42.3249 28.0248 42.3326L28.0665 42.3736ZM26.4266 41.863L26.5277 41.774L26.486 41.733L26.459 41.6862C26.4062 41.6961 26.3691 41.7243 26.3478 41.771C26.3762 41.8145 26.4025 41.8452 26.4266 41.863ZM25.8251 42.5186C25.8312 42.5052 25.8339 42.4905 25.8332 42.4743C25.8393 42.461 25.842 42.4463 25.8413 42.4301L25.7702 42.4007L25.7417 42.4366L25.7687 42.4834L25.8251 42.5186ZM25.1199 43.0837C25.126 43.0703 25.1309 43.0684 25.1347 43.0779L25.1199 43.0837ZM25.5684 43.5305C25.6267 43.4911 25.6382 43.4483 25.6029 43.402C25.5931 43.4059 25.5738 43.4217 25.545 43.4495C25.5359 43.4695 25.5437 43.4965 25.5684 43.5305ZM25.2742 43.5398L25.3529 43.3939L25.3361 43.3513L25.2649 43.3219L25.241 43.3477C25.241 43.3477 25.242 43.3719 25.2441 43.4204C25.2546 43.4326 25.2455 43.4526 25.2167 43.4804C25.237 43.4888 25.2562 43.5086 25.2742 43.5398ZM25.2875 43.8545C25.2936 43.8412 25.3012 43.8245 25.3104 43.8045C25.3195 43.7845 25.332 43.7659 25.348 43.7487C25.3412 43.7459 25.323 43.7503 25.2936 43.7619C25.2844 43.7819 25.2824 43.8128 25.2875 43.8545ZM26.5168 44.3383L26.5269 44.3425C26.5405 44.348 26.5774 44.3554 26.6377 44.3644L26.6098 44.2934C26.6053 44.2678 26.5786 44.2647 26.5294 44.284C26.5173 44.3107 26.513 44.3288 26.5168 44.3383ZM25.0599 44.9617C25.0697 44.9578 25.069 44.9417 25.0578 44.9133C25.0442 44.9077 25.0325 44.9068 25.0227 44.9107L25.0599 44.9617ZM24.8831 45.2693C24.8967 45.2749 24.9268 45.2794 24.9736 45.2828L24.9797 45.1902C24.9495 45.1857 24.9299 45.1934 24.9207 45.2134L24.8831 45.2693ZM24.3805 45.3115C24.3866 45.2982 24.3942 45.2815 24.4033 45.2615C24.4125 45.2414 24.4235 45.2262 24.4363 45.2156C24.4326 45.2062 24.416 45.2072 24.3865 45.2189L24.3805 45.3115ZM24.2901 45.5358C24.303 45.5253 24.3057 45.5105 24.2982 45.4916C24.2908 45.4727 24.2738 45.4657 24.2474 45.4706C24.2481 45.4867 24.2623 45.5085 24.2901 45.5358ZM23.9371 46.0442C23.9696 46.0259 23.9852 46.0006 23.9838 45.9683L23.9432 45.9515L23.8954 46.0032C23.9029 46.0221 23.9168 46.0358 23.9371 46.0442ZM25.2601 47.0899C25.2662 47.0766 25.2656 47.0604 25.2581 47.0415C25.2544 47.032 25.2393 47.0297 25.2129 47.0347C25.2037 47.0547 25.2195 47.0731 25.2601 47.0899ZM25.1901 47.3226L25.3868 47.3682L25.3883 47.2855C25.39 47.2466 25.3705 47.2187 25.3298 47.2019L25.2246 47.1942C25.2155 47.2142 25.2063 47.2342 25.1972 47.2542C25.1948 47.277 25.1925 47.2998 25.1901 47.3226ZM26.545 48.1555C26.5247 48.1471 26.5059 48.1354 26.4886 48.1203L26.4265 48.071C26.4191 48.052 26.4214 48.0292 26.4336 48.0025L26.4565 47.9525C26.5252 47.9254 26.5718 47.8852 26.5962 47.8318L26.6282 47.7617C26.6282 47.7617 26.6275 47.7456 26.6261 47.7133C26.6187 47.6944 26.6164 47.6816 26.6195 47.6749C26.6104 47.6949 26.641 47.6719 26.7115 47.6058C26.7115 47.6058 26.7199 47.5697 26.7368 47.4974C26.7443 47.5163 26.7941 47.4338 26.8861 47.2498C26.8885 47.227 26.9034 47.1856 26.9308 47.1256L26.9684 47.0697C26.9843 47.0525 26.9953 47.0372 27.0014 47.0239C26.9923 47.0439 26.99 47.0311 26.9948 46.9855L27.0587 46.8454L27.0795 46.7469L27.0912 46.6685L27.1801 46.5268L27.2644 46.3951L27.2897 46.2867L27.2958 46.194C27.2995 46.2035 27.3124 46.193 27.3344 46.1624L27.3527 46.1224C27.3489 46.1129 27.3501 46.1015 27.3562 46.0882C27.3887 46.0699 27.4219 46.0677 27.4558 46.0817C27.4897 46.0957 27.5146 46.0941 27.5305 46.0769L27.4675 46.0033L27.4721 45.9933C27.4873 45.9599 27.4842 45.8873 27.4628 45.7754L27.5228 45.7764L27.541 45.7363L27.5492 45.6921L27.5949 45.5921C27.6375 45.4987 27.6947 45.4351 27.7666 45.4013C27.7621 45.3757 27.7592 45.3468 27.7579 45.3145L27.7624 45.3045C27.7777 45.2711 27.8215 45.2456 27.894 45.228C27.9696 45.2037 28.0218 45.1776 28.0506 45.1499C28.0566 45.1366 28.0493 45.082 28.0286 44.9862L28.0057 44.7984C28.0087 44.7917 28.0065 44.7789 27.999 44.7599L28.0026 44.7257C28.0087 44.7124 28.0181 44.7004 28.031 44.6899L28.0549 44.6641C28.1097 44.544 28.1421 44.482 28.1519 44.4782C28.2626 44.3415 28.3104 44.2899 28.2951 44.3232C28.3133 44.1246 28.3255 44.0186 28.3316 44.0053L28.4169 43.8978L28.4977 43.8004L28.5301 43.6235C28.5332 43.6168 28.5426 43.6049 28.5586 43.5876C28.5775 43.5638 28.6011 43.5299 28.6292 43.486C28.6322 43.4793 28.6436 43.4721 28.6632 43.4643C28.6829 43.4566 28.6957 43.4461 28.7018 43.4327L28.7079 43.3401C28.7021 43.2822 28.7007 43.2499 28.7038 43.2432C28.7159 43.2166 28.7436 43.2002 28.7866 43.1942C28.7866 43.1942 28.7859 43.178 28.7845 43.1458C28.7703 43.124 28.7647 43.1098 28.7677 43.1032C28.7921 43.0498 28.8436 43.0076 28.9222 42.9766C29.0076 42.9485 29.0624 42.9077 29.0868 42.8543L29.1198 42.8085C29.1357 42.7913 29.1483 42.7727 29.1574 42.7527C29.1665 42.7326 29.1421 42.7067 29.0842 42.6749C29.0293 42.6363 29.0018 42.6171 29.0018 42.6171C29.0231 42.5704 29.0736 42.504 29.1532 42.4179C29.1494 42.4084 29.134 42.3981 29.1069 42.3869C29.1252 42.3469 29.1531 42.2593 29.1906 42.1242C29.2337 42.1182 29.2687 42.1207 29.2959 42.1319C29.3975 42.1739 29.4679 42.2228 29.5069 42.2785L29.5749 42.2353C29.5787 42.2447 29.5809 42.2575 29.5816 42.2737C29.5921 42.286 29.5962 42.3035 29.5938 42.3263C29.5989 42.3681 29.615 42.3945 29.6421 42.4057C29.6557 42.4113 29.6855 42.4078 29.7316 42.3951C29.7746 42.3891 29.8029 42.3889 29.8165 42.3944L29.8368 42.4028C29.8405 42.4123 29.8458 42.4184 29.8526 42.4212C29.8661 42.4268 29.8925 42.4219 29.9318 42.4064C29.9749 42.4004 29.9998 42.3988 30.0066 42.4016C30.0201 42.4072 30.046 42.4298 30.0844 42.4694L30.1372 42.5388L30.3035 42.5717L30.4595 42.6005C30.4799 42.6089 30.4953 42.6192 30.5058 42.6315C30.5133 42.6504 30.5256 42.6674 30.5429 42.6825C30.5602 42.6976 30.5658 42.7118 30.5597 42.7251L30.5506 42.7451C30.5543 42.7546 30.5629 42.7621 30.5765 42.7677C30.6375 42.7929 30.6775 42.7935 30.6965 42.7697L30.7981 42.8116C30.7971 42.8667 30.817 42.9027 30.8577 42.9195C30.8848 42.9307 30.9082 42.9324 30.9278 42.9246C30.9573 42.913 31.0003 42.907 31.0569 42.9066C31.0606 42.9161 31.0598 42.9355 31.0544 42.965C31.052 42.9878 31.0466 43.0173 31.0382 43.0535C31.0456 43.0724 31.0595 43.0861 31.0799 43.0945C31.1273 43.114 31.1461 43.1258 31.1363 43.1296C31.1559 43.1219 31.1688 43.1114 31.1749 43.098L31.3173 43.1568L31.2665 43.3737C31.274 43.3926 31.2811 43.4035 31.2879 43.4063L31.323 43.4089C31.3328 43.405 31.3411 43.4045 31.3479 43.4073C31.4157 43.4353 31.4626 43.4824 31.4887 43.5487C31.503 43.5704 31.5069 43.6236 31.5005 43.7081C31.511 43.7204 31.5226 43.7569 31.5351 43.8176L31.5133 43.8918C31.514 43.908 31.5098 43.926 31.5006 43.946C31.4945 43.9594 31.4888 43.9808 31.4834 44.0103C31.5224 44.066 31.5282 44.1239 31.5007 44.1839C31.4703 44.2507 31.4101 44.2853 31.3204 44.2879C31.3916 44.3965 31.4206 44.4918 31.4074 44.5735C31.4345 44.5847 31.4389 44.6103 31.4207 44.6504L31.2562 45.0106C31.2623 44.9972 31.2384 45.0231 31.1845 45.088C31.1859 45.1203 31.1631 45.1704 31.116 45.2381C31.0896 45.2431 31.0272 45.2649 30.929 45.3036C30.9334 45.3292 30.9559 45.3504 30.9966 45.3672C31.0003 45.3767 30.9992 45.3881 30.9931 45.4015L30.9692 45.4273L30.9351 45.4489L30.8986 45.5289C30.8955 45.5356 30.8578 45.5478 30.7853 45.5654L30.7385 45.6413C30.7287 45.6451 30.7158 45.6557 30.6999 45.6729C30.6871 45.6834 30.6727 45.6973 30.6567 45.7145C30.61 45.7111 30.5587 45.7176 30.5027 45.7342C30.4587 45.7953 30.3747 45.8558 30.2507 45.9156C30.2372 45.91 30.2089 45.9102 30.1659 45.9162L30.1476 45.9562C30.1581 45.9685 30.1671 45.9841 30.1745 46.003C30.1888 46.0248 30.203 46.0465 30.2173 46.0682C30.2156 46.1072 30.2229 46.1617 30.2392 46.2319C30.2497 46.2442 30.2602 46.2564 30.2707 46.2687C30.2812 46.281 30.2936 46.298 30.3079 46.3197C30.3018 46.333 30.2942 46.3497 30.285 46.3697C30.2857 46.3859 30.2833 46.4087 30.2779 46.4382C30.3095 46.475 30.3466 46.526 30.3893 46.5912C30.39 46.6073 30.3858 46.6254 30.3766 46.6454C30.3773 46.6616 30.3682 46.6816 30.3492 46.7055C30.3401 46.7255 30.3381 46.7563 30.3432 46.7981L30.3158 46.8581C30.3368 46.8827 30.3495 46.9077 30.3539 46.9333L30.2498 47.1877L30.1128 47.4879C30.128 47.4545 30.1321 47.4721 30.125 47.5405C30.0962 47.5682 30.0718 47.6216 30.0519 47.7006L30.0138 47.8633L29.9615 47.9249L29.9158 48.025L29.8284 48.084C29.8223 48.0974 29.8211 48.1088 29.8249 48.1183L29.8122 48.1725C29.8122 48.1725 29.8046 48.1892 29.7893 48.2225C29.7772 48.2492 29.754 48.2912 29.7198 48.3484C29.6669 48.3583 29.628 48.3818 29.6029 48.4191L29.5664 48.4991C29.5474 48.523 29.494 48.5604 29.4063 48.6114L29.1797 48.6843C29.1766 48.691 29.1622 48.7049 29.1365 48.726C29.0941 48.7481 29.0087 48.7763 28.8803 48.8105C28.8668 48.8049 28.8483 48.8013 28.8249 48.7995C28.8114 48.7939 28.7895 48.7889 28.7594 48.7843C28.7329 48.7893 28.6982 48.7948 28.6552 48.8008C28.6189 48.8096 28.5759 48.8156 28.5261 48.8189C28.4854 48.8021 28.4131 48.7841 28.309 48.7649C28.1891 48.763 28.1155 48.7564 28.0884 48.7452L28.0264 48.6958C28.0159 48.6835 28.0054 48.6713 27.9949 48.659C27.9813 48.6534 27.9711 48.6492 27.9644 48.6464C27.9583 48.6597 27.9232 48.6572 27.8591 48.6386C27.8124 48.6352 27.7585 48.6209 27.6975 48.5957L27.2842 48.3894C27.2232 48.3642 27.1677 48.3532 27.1179 48.3564C27.0946 48.3547 27.0761 48.351 27.0625 48.3454C27.0459 48.3465 27.0308 48.3442 27.0173 48.3386L26.9293 48.2666L26.8276 48.2247C26.7938 48.2107 26.7599 48.1967 26.726 48.1827C26.6958 48.1782 26.6657 48.1736 26.6355 48.1691L26.545 48.1555ZM29.4101 42.9402C29.4508 42.957 29.4957 42.9557 29.5448 42.9364C29.5502 42.9069 29.57 42.8635 29.6042 42.8063L29.6642 42.8073C29.7133 42.7879 29.7138 42.7604 29.6657 42.7246C29.6657 42.7246 29.6533 42.7076 29.6285 42.6736C29.6211 42.6547 29.6139 42.6438 29.6072 42.641C29.5868 42.6326 29.5645 42.6551 29.5401 42.7085L29.4243 42.8034C29.3857 42.835 29.3633 42.8575 29.3572 42.8708C29.3654 42.9059 29.383 42.929 29.4101 42.9402ZM30.9006 43.4605C30.9558 43.4278 30.9658 43.3883 30.9305 43.342C30.9109 43.3498 30.895 43.367 30.8828 43.3937C30.8797 43.4003 30.8857 43.4226 30.9006 43.4605ZM31.1365 43.6054C31.1464 43.6016 31.1457 43.5854 31.1345 43.557L31.0948 43.5644C31.0986 43.5739 31.1038 43.58 31.1106 43.5828C31.1242 43.5884 31.1328 43.596 31.1365 43.6054ZM31.0782 43.7597C31.091 43.7492 31.0937 43.7344 31.0863 43.7155C31.0856 43.6994 31.0705 43.6971 31.041 43.7087C31.0319 43.7287 31.0443 43.7457 31.0782 43.7597ZM29.0839 45.1365L29.1494 45.1517C29.1728 45.1534 29.1947 45.1585 29.215 45.1668C29.3231 45.1243 29.3805 45.1044 29.3873 45.1072C29.3873 45.1072 29.4046 45.1222 29.4392 45.1524C29.4504 45.1808 29.4593 45.1964 29.4661 45.1992L29.5012 45.2018L29.5286 45.1417C29.553 45.0883 29.575 45.0578 29.5946 45.0501C29.6112 45.049 29.6399 45.0568 29.6805 45.0736L29.7065 45.0962C29.7102 45.1057 29.7155 45.1118 29.7222 45.1146L29.7527 45.1272C29.7724 45.1195 29.792 45.1117 29.8117 45.104C29.8313 45.0962 29.8525 45.0852 29.8752 45.0708L29.9209 44.9707C29.9399 44.9468 29.9588 44.9229 29.9778 44.899C29.9968 44.8752 30.0191 44.8527 30.0449 44.8316C30.0442 44.8154 30.0533 44.7954 30.0723 44.7715L30.12 44.7199L30.1429 44.6699C30.2262 44.5933 30.2709 44.5483 30.277 44.535L30.2794 44.2386C30.2923 44.2281 30.3017 44.2162 30.3078 44.2028C30.317 44.1828 30.328 44.1675 30.3408 44.157L30.359 43.8791C30.3644 43.8496 30.3502 43.8278 30.3163 43.8139L30.2812 43.8113C30.2714 43.8151 30.2597 43.8143 30.2461 43.8087C30.2394 43.8059 30.2285 43.7855 30.2136 43.7477C30.1986 43.7098 30.1844 43.688 30.1708 43.6825L30.1403 43.6699C30.1305 43.6737 30.1188 43.6729 30.1053 43.6673L30.0275 43.5995L29.9451 43.5417C29.9316 43.5361 29.8885 43.5421 29.816 43.5597L29.8069 43.5797C29.7977 43.5998 29.7735 43.6175 29.7342 43.633C29.6987 43.658 29.6775 43.669 29.6707 43.6662C29.6677 43.6729 29.6533 43.6868 29.6275 43.7079C29.5899 43.6844 29.5704 43.6565 29.569 43.6243L29.6224 43.5868C29.6074 43.5489 29.5763 43.5202 29.5288 43.5006C29.5085 43.4922 29.4839 43.5019 29.4551 43.5297L29.5284 43.6075C29.5321 43.6169 29.5328 43.6331 29.5304 43.6559C29.5311 43.672 29.5337 43.6929 29.5381 43.7185C29.5652 43.7297 29.5892 43.7476 29.6103 43.7721C29.6004 43.776 29.5864 43.7979 29.5681 43.838C29.5718 43.8474 29.5725 43.8636 29.5702 43.8864C29.5709 43.9025 29.5734 43.9234 29.5778 43.949L29.5809 44.0216L29.3844 44.4519C29.3783 44.4652 29.3704 44.4738 29.3605 44.4777L29.3412 44.4935C29.2986 44.5869 29.2852 44.625 29.3011 44.6078C29.2534 44.6594 29.2261 44.6838 29.2193 44.681L29.2214 44.7295C29.2228 44.7617 29.2235 44.7779 29.2235 44.7779C29.2143 44.7979 29.1855 44.8256 29.1371 44.8611C29.1273 44.865 29.1071 44.9003 29.0767 44.967L29.0478 45.1097L29.0839 45.1365ZM28.5301 43.6235C28.5271 43.6301 28.5255 43.6335 28.5255 43.6335L28.5301 43.6235ZM30.7675 44.678C30.7811 44.6836 30.7977 44.6826 30.8174 44.6748C30.837 44.6671 30.8397 44.6523 30.8255 44.6306C30.8051 44.6222 30.7858 44.638 30.7675 44.678ZM28.4691 44.6567C28.4722 44.6501 28.4681 44.6325 28.4569 44.6041L28.4274 44.6157C28.4312 44.6252 28.4364 44.6313 28.4432 44.6341C28.4568 44.6397 28.4654 44.6473 28.4691 44.6567ZM28.4062 44.821C28.4191 44.8105 28.4218 44.7957 28.4143 44.7768C28.4106 44.7673 28.3921 44.7637 28.3589 44.7658C28.3497 44.7858 28.3655 44.8042 28.4062 44.821ZM29.3277 45.8199C29.3382 45.8321 29.3533 45.8344 29.3729 45.8267C29.3827 45.8228 29.387 45.8047 29.3856 45.7724C29.3653 45.764 29.3459 45.7799 29.3277 45.8199ZM29.188 45.9406L29.0664 45.7834L29.0629 45.8176L29.188 45.9406ZM28.0141 47.5847C28.0277 47.5903 28.0526 47.5887 28.0889 47.5799C28.1387 47.5767 28.1704 47.5779 28.1839 47.5835C28.2276 47.5936 28.263 47.6042 28.2902 47.6154C28.3203 47.62 28.3422 47.625 28.3557 47.6306L28.3918 47.6574C28.3956 47.6669 28.4042 47.6744 28.4178 47.68C28.4449 47.6912 28.4833 47.6952 28.5331 47.692L28.5865 47.6545L28.7756 47.6375L28.7999 47.5048C28.8165 47.5037 28.8494 47.4935 28.8985 47.4741C28.9341 47.4492 28.9655 47.4067 28.993 47.3467L29.0138 47.2482L29.03 47.1598C29.0361 47.1464 29.0588 47.132 29.0981 47.1165C29.1336 47.0916 29.1529 47.0757 29.156 47.0691L29.1448 47.0407C29.1373 47.0217 29.1351 47.0089 29.1382 47.0022C29.1473 46.9822 29.1737 46.9773 29.2174 46.9874C29.2242 46.9902 29.2251 46.9707 29.22 46.929C29.2074 46.8683 29.2011 46.838 29.2011 46.838C29.237 46.7418 29.2598 46.6917 29.2696 46.6879C29.2377 46.5637 29.2263 46.4916 29.2355 46.4716C29.2507 46.4382 29.2731 46.4158 29.3025 46.4041C29.3124 46.4003 29.3147 46.3775 29.3096 46.3357L29.1978 46.2895C29.1774 46.2811 29.1651 46.2641 29.1607 46.2385L29.1733 46.1843L28.8932 46.0567L28.8459 46.0015L28.7839 45.9521L28.6741 45.9544L28.569 46.1845C28.5416 46.2446 28.5138 46.2965 28.4857 46.3404C28.4644 46.3871 28.4427 46.4257 28.4207 46.4563C28.3858 46.4974 28.3635 46.5199 28.3537 46.5238C28.3821 46.5672 28.3872 46.609 28.369 46.649L28.1908 47.0392C28.1877 47.0459 28.1764 47.0531 28.1567 47.0609C28.1371 47.0686 28.1242 47.0791 28.1181 47.0925C28.0876 47.1592 28.059 47.2306 28.0323 47.3068C28.0086 47.3763 27.9868 47.4506 27.9669 47.5295L28.0141 47.5847ZM29.5426 46.6459C29.5554 46.6354 29.5548 46.6193 29.5405 46.5975C29.5368 46.5881 29.5217 46.5858 29.4953 46.5907C29.4861 46.6107 29.5019 46.6292 29.5426 46.6459ZM27.6759 47.0288C27.6993 47.0306 27.7226 47.0323 27.746 47.034C27.7694 47.0357 27.7943 47.0341 27.8207 47.0292L27.7261 46.9188L27.6759 47.0288ZM29.5564 47.9123C29.6371 47.9297 29.6947 47.9535 29.7293 47.9836L29.7612 47.9136C29.7426 47.8662 29.7231 47.8384 29.7027 47.83C29.6621 47.8132 29.6111 47.8278 29.5498 47.8739L29.5564 47.9123ZM28.6504 48.335C28.6565 48.3217 28.6558 48.3055 28.6483 48.2866C28.6476 48.2704 28.6325 48.2682 28.6031 48.2798C28.5939 48.2998 28.6097 48.3182 28.6504 48.335ZM29.8824 49.4859C29.835 49.4663 29.8007 49.4442 29.7797 49.4197C29.8163 49.3396 29.8782 49.2304 29.9656 49.0921C30.0056 49.0927 30.0381 49.0744 30.0632 49.0372L30.1134 48.9272C30.1286 48.8938 30.1485 48.8504 30.1728 48.7971C30.207 48.7398 30.2393 48.6779 30.2698 48.6112C30.3098 48.6118 30.3374 48.5955 30.3526 48.5621L30.3983 48.462C30.3983 48.462 30.3976 48.4459 30.3963 48.4136L30.4831 48.2235C30.4848 48.1846 30.4981 48.1465 30.5232 48.1092L30.5653 48.0434C30.5714 48.0301 30.5775 48.0167 30.5836 48.0034C30.5965 47.9928 30.6045 47.9842 30.6075 47.9776C30.6173 47.9737 30.6271 47.9698 30.637 47.9659C30.6468 47.9621 30.6581 47.9549 30.671 47.9443C30.7028 47.9099 30.7249 47.8793 30.737 47.8527C30.7401 47.846 30.7375 47.8251 30.7294 47.79C30.7182 47.7616 30.7156 47.7408 30.7217 47.7274C30.7187 47.7341 30.7429 47.7163 30.7944 47.6742C30.83 47.6492 30.8569 47.6167 30.8752 47.5767L31.1313 47.4922C31.114 47.4771 31.0998 47.4553 31.0886 47.4269L31.1104 47.3527C31.1195 47.3327 31.1185 47.3085 31.1073 47.2801C31.0893 47.2489 31.0849 47.2233 31.094 47.2032L31.1169 47.1532C31.123 47.1399 31.1321 47.1199 31.1443 47.0932C31.1595 47.0598 31.1782 47.0279 31.2002 46.9973C31.21 46.9934 31.2179 46.9848 31.224 46.9715C31.2301 46.9582 31.2411 46.9429 31.2571 46.9257L31.2722 46.813C31.2919 46.8053 31.3112 46.7895 31.3302 46.7656C31.359 46.7378 31.3877 46.7101 31.4165 46.6823L31.4257 46.6623C31.4318 46.6489 31.4402 46.6128 31.451 46.5538L31.4556 46.5438C31.4617 46.5305 31.4678 46.5171 31.4739 46.5038C31.4898 46.4866 31.5038 46.4646 31.516 46.438L31.5765 46.3321C31.6168 46.2615 31.6445 46.2095 31.6597 46.1762C31.6818 46.1456 31.6897 46.137 31.6836 46.1504C31.7232 46.0637 31.7381 46.0222 31.7283 46.0261C31.7412 46.0156 31.754 46.005 31.7669 45.9945C31.7798 45.9839 31.7957 45.9667 31.8147 45.9428L31.8842 45.817C31.9137 45.8053 31.9523 45.7737 32.0001 45.7221C32.0017 45.6831 32.011 45.6275 32.0279 45.5552C32.031 45.5485 32.0472 45.5394 32.0767 45.5278C32.1062 45.5161 32.1225 45.507 32.1255 45.5003L32.1021 45.4193L32.1249 45.3693C32.1364 45.3265 32.1581 45.2878 32.1899 45.2534C32.2231 45.2513 32.2492 45.2382 32.2682 45.2144L32.2819 45.1843C32.291 45.1643 32.3032 45.1376 32.3184 45.1043C32.3337 45.0709 32.3486 45.0295 32.3631 44.98L32.3702 44.9116C32.3786 44.8754 32.3976 44.8515 32.4271 44.8399L32.5064 44.8251C32.5057 44.809 32.5114 44.7875 32.5236 44.7609C32.5388 44.7275 32.5541 44.6942 32.5693 44.6608C32.5754 44.6475 32.5849 44.6355 32.5978 44.625C32.6106 44.6144 32.6265 44.5972 32.6455 44.5733L32.7024 44.5017C32.7024 44.5017 32.7017 44.4855 32.7003 44.4533C32.6891 44.4249 32.6851 44.4073 32.6881 44.4006C32.7094 44.354 32.7413 44.3195 32.7836 44.2974C32.826 44.2752 32.8548 44.2475 32.87 44.2141L32.8603 44.1031C32.8664 44.0897 32.8725 44.0764 32.8786 44.063C32.8846 44.0497 32.8957 44.0344 32.9116 44.0172C32.9244 44.0067 32.9373 43.9961 32.9502 43.9856C32.9631 43.975 32.979 43.9578 32.9979 43.9339L33.0873 43.6854C33.1116 43.632 33.1457 43.6104 33.1894 43.6205C33.2233 43.6345 33.2492 43.6571 33.2672 43.6883C33.2821 43.7262 33.293 43.7465 33.2998 43.7493L33.6052 43.7684L33.682 43.812L33.744 43.8614L33.804 43.8624C33.8372 43.8602 33.8538 43.8592 33.8538 43.8592L34.0063 43.9221C34.0033 43.9288 34.0104 43.9397 34.0277 43.9547C34.045 43.9698 34.0604 43.9801 34.074 43.9857L34.23 44.0145C34.2497 44.0067 34.2666 44.0137 34.2809 44.0355L34.317 44.0623C34.3305 44.0679 34.372 44.0652 34.4415 44.0542L34.4878 44.0852L34.4065 44.2895C34.3747 44.324 34.3474 44.3484 34.3247 44.3628C34.299 44.3839 34.2831 44.4011 34.277 44.4144L34.2587 44.4545C34.2285 44.4499 34.2013 44.4744 34.1769 44.5277L34.1317 44.5209C34.1123 44.4575 34.0888 44.412 34.061 44.3847L34.0518 44.4047C34.0457 44.4181 34.0486 44.447 34.0605 44.4916C34.0724 44.5361 34.0738 44.5684 34.0646 44.5884L34.0499 44.5942C34.0302 44.6019 34.0143 44.6192 34.0021 44.6458L34.1287 44.6862C34.1348 44.6729 34.1409 44.6595 34.147 44.6462C34.1629 44.629 34.1803 44.6084 34.1993 44.5845L34.2298 44.5971C34.2312 44.6294 34.2434 44.682 34.2665 44.755L34.2492 44.8192C34.253 44.8287 34.2567 44.8382 34.2604 44.8476C34.2642 44.8571 34.2664 44.8699 34.2671 44.886C34.264 44.8927 34.2527 44.8999 34.233 44.9077C34.2073 44.9287 34.1929 44.9426 34.1898 44.9493C34.1898 44.9493 34.2002 44.9972 34.2209 45.0929C34.2379 45.1792 34.2433 45.2291 34.2372 45.2424C34.2281 45.2624 34.1986 45.274 34.1488 45.2772L34.0594 45.2879L34.0502 45.3079L34.1392 45.4041C34.1369 45.4269 34.1303 45.4678 34.1195 45.5268C34.13 45.539 34.1396 45.5708 34.1485 45.622L34.086 45.6794C34.0443 45.7177 34.022 45.7402 34.0189 45.7469L34.0678 45.9574L33.985 46.0064C33.9887 46.0159 34.0048 46.0424 34.0333 46.0858L33.9831 46.1959C33.9875 46.2215 33.9839 46.2557 33.9724 46.2985L33.9633 46.3186C33.945 46.3586 33.9166 46.3944 33.878 46.426L33.9309 46.4954L33.9005 46.7208L33.8334 46.7882C33.8409 46.8071 33.8434 46.828 33.8411 46.8508L33.8182 46.9009C33.7969 46.9476 33.8076 47.0035 33.8503 47.0687L33.6882 47.1326C33.6096 47.1636 33.5658 47.1891 33.5566 47.2091C33.5414 47.2424 33.5782 47.2854 33.667 47.3379C33.7558 47.3904 33.7914 47.4448 33.7738 47.5009C33.7647 47.5209 33.7454 47.5368 33.7159 47.5484C33.7057 47.6235 33.6915 47.681 33.6733 47.7211C33.6733 47.7211 33.6619 47.7283 33.6392 47.7427C33.6233 47.7599 33.6138 47.7718 33.6108 47.7785L33.62 47.9964C33.6139 48.0097 33.5931 48.0289 33.5575 48.0538L33.5911 48.1391C33.5729 48.1791 33.561 48.2138 33.5556 48.2433C33.5631 48.2623 33.5709 48.2893 33.579 48.3244C33.5872 48.3594 33.5806 48.4003 33.5593 48.447C33.563 48.4565 33.5456 48.477 33.5069 48.5087C33.4653 48.547 33.4414 48.5728 33.4353 48.5861C33.4323 48.5928 33.4392 48.6393 33.4562 48.7256C33.4532 48.7322 33.4471 48.7456 33.4379 48.7656C33.4386 48.7817 33.4378 48.8012 33.4354 48.824C33.4459 48.8363 33.4534 48.8552 33.4578 48.8808C33.4653 48.8998 33.4712 48.922 33.4756 48.9477C33.4635 48.9743 33.4423 48.9854 33.4121 48.9809L33.3374 48.9857L33.3009 49.0658C33.3114 49.078 33.3219 49.0903 33.3324 49.1026C33.3497 49.1176 33.3688 49.1374 33.3899 49.162C33.3973 49.1809 33.3843 49.2271 33.3508 49.3005L33.3167 49.3221C33.2954 49.3688 33.2975 49.4172 33.3229 49.4673L33.3905 49.5309L33.3077 49.58C33.3115 49.5895 33.3152 49.5989 33.3189 49.6084C33.3226 49.6179 33.3249 49.6307 33.3255 49.6468L33.2981 49.7068L33.227 49.6775C33.2171 49.6813 33.2122 49.6833 33.2122 49.6833C33.219 49.6861 33.2175 49.6894 33.2076 49.6933L33.1782 49.7049C33.2036 49.755 33.2263 49.8199 33.2464 49.8995L33.2104 50.1106L33.1464 50.2507C33.1553 50.3019 33.1516 50.3718 33.1353 50.4602L33.1115 50.486C33.0322 50.5009 32.9654 50.4971 32.9112 50.4747L32.8436 50.4111L32.7023 50.3766C32.6653 50.3692 32.6352 50.3647 32.6118 50.363C32.5884 50.3613 32.5733 50.359 32.5665 50.3562L32.5203 50.3252C32.503 50.3101 32.4894 50.3045 32.4796 50.3084C32.4728 50.3056 32.466 50.3028 32.4593 50.3C32.4427 50.3011 32.4193 50.2994 32.3891 50.2948C32.3657 50.2931 32.3405 50.2867 32.3134 50.2755L32.2015 50.2293C32.188 50.2237 32.1695 50.22 32.1461 50.2183C32.1265 50.226 32.0967 50.2296 32.0567 50.2289C31.9957 50.2038 31.9816 50.1464 32.0144 50.0569C32.0175 50.0502 32.0674 50.0114 32.1643 49.9404C32.2127 49.9049 32.2498 49.8766 32.2756 49.8555C32.3013 49.8344 32.3206 49.8186 32.3335 49.8081L32.2283 49.8003C32.1717 49.8007 32.1298 49.7953 32.1027 49.7841L32.0925 49.7799L32.1397 49.5972L32.1391 49.4662C32.1605 49.4195 32.2074 49.3873 32.2799 49.3697C32.2731 49.3669 32.2638 49.3432 32.2519 49.2987C32.237 49.2608 32.2337 49.2238 32.2422 49.1876C32.2415 49.1715 32.2496 49.1273 32.2665 49.055L32.2497 49.0124L32.2817 48.9423L32.3203 48.9107C32.3132 48.8205 32.2655 48.7572 32.1774 48.7209C32.1774 48.7209 32.1574 48.7205 32.1174 48.7199L32.061 48.6847C32.0437 48.6696 32.0249 48.6579 32.0046 48.6495L31.8734 48.6191C31.8297 48.609 31.7961 48.6031 31.7728 48.6014C31.7562 48.6024 31.7445 48.6016 31.7377 48.5988C31.7279 48.6027 31.7124 48.5923 31.6914 48.5678C31.6704 48.5433 31.6565 48.5296 31.6497 48.5268L31.5999 48.53C31.5532 48.5266 31.5264 48.5234 31.5196 48.5206L31.4957 48.5465C31.5025 48.5493 31.5078 48.5554 31.5115 48.5649C31.5183 48.5677 31.5269 48.5752 31.5374 48.5875L31.5192 48.6275L31.4775 48.5865C31.448 48.5981 31.4302 48.6106 31.4241 48.6239C31.4421 48.6551 31.4506 48.6983 31.4496 48.7534L31.3825 48.8208C31.3636 48.8447 31.3446 48.8686 31.3256 48.8925C31.3097 48.9097 31.2953 48.9236 31.2824 48.9341C31.2801 48.9569 31.2622 49.005 31.2286 49.0784C31.1118 49.2284 31.0564 49.2967 31.0625 49.2833C31.0595 49.29 31.0568 49.3047 31.0544 49.3276C31.0551 49.3437 31.0528 49.3665 31.0473 49.396L31.022 49.5044C31.022 49.5044 31.0042 49.5169 30.9686 49.5419C30.9361 49.5602 30.9153 49.5793 30.9061 49.5993L30.897 49.6193C30.8848 49.646 30.8798 49.6836 30.8818 49.732L30.8727 49.752C30.8574 49.7854 30.8159 49.788 30.7482 49.7601C30.7482 49.7601 30.7226 49.7455 30.6714 49.7165L30.589 49.6587C30.5724 49.6597 30.5524 49.6594 30.529 49.6577C30.5057 49.656 30.4804 49.6495 30.4533 49.6383L30.372 49.6047L29.9988 49.522C29.9755 49.5203 29.9536 49.5153 29.9333 49.5069C29.9129 49.4985 29.896 49.4915 29.8824 49.4859ZM33.8916 44.2791C33.9045 44.2686 33.9072 44.2538 33.8998 44.2349C33.896 44.2254 33.8776 44.2218 33.8444 44.2239C33.8488 44.2495 33.8645 44.2679 33.8916 44.2791ZM33.9045 45.5212C33.9519 45.5408 33.99 45.5368 34.0188 45.509C34.009 45.5129 34.0114 45.4901 34.0259 45.4406L33.9603 45.4254C33.94 45.417 33.9185 45.42 33.8958 45.4344C33.886 45.4383 33.8817 45.4564 33.8831 45.4886C33.8906 45.5076 33.8977 45.5184 33.9045 45.5212ZM32.363 45.8006C32.3661 45.7939 32.362 45.7764 32.3508 45.7479L32.3213 45.7596C32.325 45.769 32.3303 45.7752 32.3371 45.778C32.3506 45.7836 32.3593 45.7911 32.363 45.8006ZM32.3253 47.7354L32.4905 47.7441C32.5139 47.7459 32.5483 47.7323 32.5937 47.7035L32.7059 47.4049C32.6669 47.3492 32.6907 47.244 32.7774 47.0895L32.7606 47.0469L32.8022 46.85C32.7991 46.8567 32.8215 46.8342 32.8692 46.7826L32.8311 46.7074L32.9409 46.7051L32.8778 46.6315C32.893 46.5982 32.9011 46.5539 32.9021 46.4988C32.9038 46.4599 32.9058 46.429 32.9082 46.4062C32.9136 46.3767 32.9175 46.3506 32.9198 46.3278C32.9564 46.2477 33.0041 46.1961 33.0631 46.1728L32.9807 46.1151L32.8755 46.1073L32.8664 46.1273C32.8542 46.154 32.8232 46.1689 32.7734 46.1722C32.749 46.2255 32.7217 46.2499 32.6916 46.2454C32.6794 46.2721 32.6657 46.3021 32.6504 46.3355C32.642 46.3716 32.6305 46.4144 32.6159 46.4639C32.6129 46.4706 32.5936 46.4864 32.558 46.5114L32.5453 46.5656C32.5423 46.5723 32.5377 46.5823 32.5316 46.5956C32.5354 46.6051 32.5342 46.6165 32.5281 46.6298C32.519 46.6499 32.5064 46.6685 32.4905 46.6857C32.4814 46.7057 32.4707 46.729 32.4585 46.7557C32.4335 46.793 32.4133 46.8282 32.3981 46.8616C32.3859 46.8883 32.3752 46.9116 32.3661 46.9316L32.3032 47.0959C32.2751 47.1398 32.2263 47.1673 32.1568 47.1782L31.9983 47.2079C31.962 47.2167 31.9325 47.2283 31.9098 47.2427C31.8902 47.2505 31.8739 47.2596 31.8611 47.2702L31.9627 47.3122C31.9726 47.3083 31.9907 47.3039 32.0171 47.2989C32.0534 47.2901 32.0749 47.2871 32.0817 47.2899L32.0918 47.2941C32.1189 47.3053 32.1271 47.3404 32.1163 47.3993C32.0895 47.4755 32.0799 47.5231 32.0874 47.542C32.2392 47.6681 32.3186 47.7326 32.3253 47.7354ZM32.3148 45.959C32.3277 45.9485 32.3304 45.9338 32.3229 45.9148C32.3161 45.912 32.2961 45.9117 32.2629 45.9138C32.2674 45.9395 32.2846 45.9545 32.3148 45.959ZM31.6937 46.9751L31.8101 47.0113L31.8329 46.9613L31.8207 46.9086C31.8207 46.9086 31.7973 46.9069 31.7506 46.9035L31.658 46.8415C31.6655 46.8604 31.6425 46.8668 31.5889 46.8605C31.5384 46.8476 31.5237 46.8534 31.5447 46.8779L31.6057 46.9031C31.6305 46.9371 31.6598 46.9611 31.6937 46.9751ZM33.0647 48.445L33.0896 48.4434C33.0964 48.4462 33.0998 48.4476 33.0998 48.4476C33.1028 48.4409 33.1077 48.439 33.1145 48.4418L33.1079 48.4034C33.0988 48.4234 33.0844 48.4373 33.0647 48.445ZM32.9525 48.7436C32.9518 48.7274 32.9591 48.7027 32.9744 48.6693C33.0045 48.6739 33.0389 48.6603 33.0775 48.6287C33.064 48.6231 33.0436 48.6147 33.0165 48.6035C32.9992 48.5884 32.9752 48.5706 32.9443 48.5499C32.8928 48.5921 32.8588 48.6137 32.8422 48.6148C32.8324 48.6186 32.8244 48.6272 32.8183 48.6406L32.8046 48.6706L32.8986 48.65L32.9098 48.6784L32.9017 48.7226L32.9525 48.7436ZM32.5388 48.6441C32.5523 48.6497 32.5689 48.6486 32.5886 48.6409C32.6082 48.6331 32.6109 48.6184 32.5967 48.5966C32.5763 48.5883 32.557 48.6041 32.5388 48.6441ZM32.8126 49.4469C32.8187 49.4336 32.818 49.4174 32.8105 49.3985C32.8031 49.3796 32.7865 49.3806 32.7607 49.4017C32.7516 49.4217 32.7689 49.4368 32.8126 49.4469ZM30.202 49.1302L30.297 49.1338C30.3672 49.1389 30.388 49.1198 30.3595 49.0763L30.329 49.0637C30.3019 49.0525 30.2687 49.0547 30.2294 49.0702L30.202 49.1302ZM30.3241 49.4185C30.337 49.4079 30.3397 49.3932 30.3322 49.3743C30.3285 49.3648 30.31 49.3611 30.2768 49.3633C30.2812 49.3889 30.297 49.4073 30.3241 49.4185ZM36.285 49.8935C36.2579 49.8823 36.2011 49.839 36.1147 49.7637C36.0733 49.7308 36.0372 49.704 36.0064 49.6833C35.9854 49.6588 35.9598 49.6442 35.9296 49.6397C35.9069 49.6541 35.8688 49.6582 35.8153 49.652C35.7919 49.6502 35.7614 49.6376 35.7237 49.6142L35.648 49.5948L35.5667 49.5612C35.5396 49.55 35.509 49.5374 35.4752 49.5234C35.448 49.5122 35.416 49.503 35.3791 49.4957C35.3655 49.4901 35.352 49.4845 35.3384 49.4789C35.3279 49.4666 35.3174 49.4543 35.3069 49.4421C35.2971 49.4459 35.282 49.4437 35.2616 49.4353C35.2345 49.4241 35.2154 49.4043 35.2042 49.3759C35.1862 49.3447 35.1738 49.3277 35.167 49.3249C35.1603 49.3221 35.1403 49.3217 35.1071 49.3239L35.0847 49.2671C35.0667 49.2359 35.0516 49.2336 35.0394 49.2603L35.0506 49.2887C35.0415 49.3087 35.032 49.3207 35.0222 49.3245L34.6053 49.1524L34.4924 49.082C34.4857 49.0792 34.4785 49.0684 34.4711 49.0494C34.4636 49.0305 34.4565 49.0196 34.4497 49.0168C34.4633 49.0224 34.4501 49.0249 34.4101 49.0242C34.3738 49.0331 34.332 49.0277 34.2845 49.0081C34.271 49.0025 34.2469 48.9846 34.2123 48.9545L34.226 48.9245L34.2646 48.8928C34.2745 48.889 34.2824 48.8804 34.2885 48.867C34.2977 48.847 34.2975 48.8033 34.288 48.736L34.3073 48.7202C34.3171 48.7163 34.3235 48.711 34.3266 48.7043L34.4109 48.5727C34.417 48.5593 34.4197 48.5446 34.419 48.5284L34.4225 48.4942C34.4317 48.4742 34.4457 48.4523 34.4647 48.4284L34.5023 48.3725C34.5053 48.3659 34.505 48.3578 34.5012 48.3483L34.4946 48.3099C34.4946 48.3099 34.4961 48.3066 34.4992 48.2999C34.509 48.296 34.5203 48.2888 34.5332 48.2783L34.6552 48.3287C34.6627 48.3476 34.6717 48.3632 34.6822 48.3755C34.6927 48.3877 34.7217 48.4037 34.7691 48.4232L34.8505 48.4568C34.8972 48.4603 34.9198 48.4815 34.9181 48.5204C34.9164 48.5594 34.919 48.5803 34.9258 48.5831L35.0061 48.5924C35.0196 48.598 35.0411 48.595 35.0706 48.5834C35.1069 48.5746 35.1386 48.5758 35.1657 48.587C35.2162 48.5999 35.2584 48.6133 35.2922 48.6273C35.3292 48.6347 35.3612 48.6439 35.3883 48.6551C35.4019 48.6607 35.4139 48.6696 35.4244 48.6819C35.438 48.6875 35.45 48.6964 35.4605 48.7087C35.471 48.721 35.4997 48.7288 35.5464 48.7323C35.5434 48.7389 35.5437 48.747 35.5475 48.7565C35.5542 48.7593 35.5847 48.7719 35.639 48.7943C35.639 48.7943 35.6408 48.799 35.6446 48.8085C35.6551 48.8207 35.6637 48.8283 35.6705 48.8311C35.6803 48.8272 35.6947 48.8133 35.7137 48.7894L35.7747 48.8146C35.8018 48.8258 35.8255 48.8356 35.8459 48.844C35.873 48.8552 35.9016 48.8631 35.9318 48.8676L36.038 48.8996C36.038 48.8996 36.0485 48.9118 36.0695 48.9364C36.0807 48.9648 36.1116 48.9854 36.1621 48.9984L36.1336 49.0342L36.1392 49.0484L36.1901 49.0694C36.2097 49.0616 36.2256 49.0444 36.2378 49.0177C36.3666 49.0709 36.4363 49.1036 36.4468 49.1159L36.6908 49.2166L36.6451 49.3167C36.5953 49.3199 36.5658 49.3315 36.5567 49.3515L36.5643 49.4142C36.5596 49.4598 36.5572 49.4826 36.5572 49.4826L36.4715 49.6969L36.3846 49.887C36.3755 49.907 36.3574 49.9115 36.3303 49.9003C36.3204 49.9041 36.3054 49.9019 36.285 49.8935ZM36.267 49.3509C36.2731 49.3375 36.2625 49.3252 36.2354 49.3141C36.2429 49.333 36.2534 49.3453 36.267 49.3509ZM34.6876 48.9723C34.7215 48.9863 34.7445 48.98 34.7567 48.9533L34.7602 48.9191C34.8107 48.932 34.8436 48.9218 34.8588 48.8884C34.8588 48.8884 34.8514 48.8695 34.8364 48.8316L34.8049 48.7948C34.7876 48.7797 34.7722 48.7694 34.7586 48.7638C34.7247 48.7498 34.7017 48.7561 34.6895 48.7828L34.6779 48.8613L34.7104 48.9223C34.6969 48.9167 34.6803 48.9178 34.6606 48.9255C34.665 48.9511 34.674 48.9667 34.6876 48.9723ZM34.5752 48.7951C34.6016 48.7901 34.6209 48.7743 34.6331 48.7476C34.6361 48.741 34.6222 48.7273 34.5914 48.7066C34.5656 48.7277 34.5602 48.7572 34.5752 48.7951ZM35.4633 49.1261C35.4768 49.1317 35.4931 49.1225 35.512 49.0986C35.4924 49.1064 35.4761 49.1155 35.4633 49.1261ZM35.9204 49.4218L35.9646 49.4044C35.9669 49.3816 35.9447 49.3685 35.898 49.365C35.8926 49.3945 35.9 49.4134 35.9204 49.4218ZM36.2332 52.1436C36.2196 52.138 36.211 52.1304 36.2073 52.121L36.1757 52.0842C36.1554 52.0758 36.1283 52.0646 36.0944 52.0506C36.0673 52.0394 36.0383 52.0235 36.0074 52.0028C36.0037 51.9933 36.0079 51.9752 36.0201 51.9486C36.014 51.9619 36.022 51.9533 36.044 51.9227C36.066 51.8922 36.1021 51.8397 36.1522 51.7652L36.1705 51.7252C36.1857 51.6919 36.1945 51.6638 36.1969 51.641L36.2075 51.5383C36.2075 51.5383 36.2203 51.5278 36.2461 51.5067L36.2893 51.4651C36.2886 51.4489 36.2989 51.4175 36.3202 51.3708L36.3634 51.3292L36.4 51.2491L36.4762 51.1617L36.4233 51.0922L36.5244 51.0032L36.5213 50.9305C36.5501 50.9028 36.5841 50.8812 36.6234 50.8657L36.628 50.8557C36.6063 50.815 36.5873 50.7596 36.571 50.6894L36.636 50.5735C36.6655 50.5619 36.6866 50.5509 36.6995 50.5403C36.7178 50.5003 36.7266 50.4722 36.7259 50.4561L36.7228 50.3834C36.7289 50.3701 36.7512 50.3476 36.7899 50.316C36.8254 50.291 36.8478 50.2685 36.8569 50.2485L36.8426 50.1475C36.8314 50.1191 36.827 50.0935 36.8294 50.0707L36.9071 49.9006C36.9237 49.8995 36.9467 49.8931 36.9762 49.8815C36.9748 49.8492 36.9633 49.8128 36.9416 49.7721C36.9612 49.7643 36.9771 49.7471 36.9893 49.7204C36.9985 49.7004 37.0057 49.6757 37.0111 49.6462C37.0165 49.6167 37.0186 49.5858 37.0172 49.5536C37.1032 49.5415 37.1568 49.5478 37.1778 49.5723L37.2129 49.5749C37.2258 49.5644 37.2322 49.5591 37.2322 49.5591C37.2352 49.5524 37.2368 49.5491 37.2368 49.5491C37.2489 49.5224 37.2408 49.4873 37.2123 49.4438L37.1208 49.4061C37.1238 49.3994 37.122 49.3947 37.1152 49.3919C37.1183 49.3852 37.1213 49.3785 37.1243 49.3719C37.1365 49.3452 37.1619 49.316 37.2005 49.2844L37.2224 49.2101C37.2186 49.2007 37.2381 49.1492 37.2807 49.0559C37.296 49.0225 37.3127 48.9858 37.331 48.9458C37.3493 48.9058 37.3657 48.861 37.3802 48.8115C37.4209 48.8283 37.4511 48.8328 37.4707 48.8251C37.4602 48.8128 37.4588 48.7805 37.4666 48.7282L37.4757 48.7082C37.4849 48.6882 37.4835 48.6559 37.4716 48.6114L37.5447 48.4513L37.5651 48.4597C37.5854 48.4681 37.6122 48.4712 37.6454 48.4691C37.6884 48.463 37.7115 48.4567 37.7145 48.45C37.7297 48.4167 37.6733 48.3815 37.5452 48.3445C37.6035 48.3051 37.6319 48.2693 37.6305 48.237L37.6274 48.1643C37.6366 48.1443 37.6593 48.1299 37.6955 48.1211L37.7387 48.0795L37.757 48.0394L37.8092 47.7399C37.8275 47.6999 37.8823 47.6591 37.9738 47.6176C37.9799 47.6042 37.9792 47.5881 37.9718 47.5692C38.0117 47.5698 38.0416 47.5663 38.0612 47.5585L38.0703 47.5385C38.0493 47.514 38.0286 47.4975 38.0083 47.4891C37.9951 47.4123 37.9945 47.3605 38.0067 47.3339C38.0128 47.3205 38.0257 47.31 38.0453 47.3022C38.0552 47.2984 38.0646 47.2864 38.0738 47.2664L38.1778 47.012C38.1636 46.9903 38.1588 46.9566 38.1636 46.911C38.1636 46.911 38.1988 46.878 38.2692 46.8119C38.3349 46.6329 38.3822 46.4939 38.4113 46.3949C38.4503 46.292 38.4743 46.2306 38.4834 46.2106C38.4926 46.1906 38.5025 46.1511 38.5134 46.0921C38.5242 46.0332 38.5296 46.0037 38.5296 46.0037L38.5717 45.9378C38.5914 45.9301 38.6163 45.9285 38.6464 45.933L38.7176 45.9624C38.7207 45.9557 38.7373 45.9547 38.7674 45.9592C38.781 45.9648 38.7778 46.0071 38.7578 46.086C38.7426 46.1194 38.7519 46.1431 38.7858 46.1571C38.8265 46.1738 38.8583 46.1394 38.8813 46.0538L39.0374 46.0825C39.0486 46.1109 39.0699 46.1435 39.1015 46.1803C39.1354 46.1943 39.1599 46.1847 39.1752 46.1513L39.1889 46.1213L39.2748 46.1449L39.3266 46.1901C39.4148 46.2264 39.4622 46.246 39.469 46.2488L39.4736 46.2388C39.4736 46.2388 39.472 46.2422 39.469 46.2488L39.4644 46.2588C39.4461 46.2989 39.4562 46.3387 39.4945 46.3783L39.5453 46.3993C39.5497 46.4249 39.559 46.4485 39.5733 46.4703L39.6038 46.4829C39.6106 46.4857 39.617 46.4804 39.6231 46.4671C39.6143 46.4158 39.6156 46.3688 39.6271 46.326L39.6454 46.286L39.6748 46.2744C39.6959 46.2989 39.7052 46.3226 39.7028 46.3454L39.8228 46.3473C39.8431 46.3557 39.8653 46.3689 39.8894 46.3867L39.9865 46.4387L39.9667 46.5614C39.9884 46.602 40.0074 46.6575 40.0237 46.7276C40.02 46.7181 40.001 46.742 39.9669 46.7993C39.9435 46.7975 39.9257 46.81 39.9135 46.8367C39.9074 46.85 39.9001 46.8748 39.8917 46.9109C39.8832 46.9471 39.8751 46.9913 39.8674 47.0436L39.8725 47.1647L39.8496 47.2147C39.8439 47.3154 39.8091 47.4358 39.7451 47.5759C39.6933 47.6893 39.682 47.7758 39.7112 47.8354C39.6868 47.8888 39.6603 48.0086 39.6316 48.195L39.6367 48.316C39.5913 48.3449 39.5402 48.3951 39.4833 48.4668C39.484 48.4829 39.4798 48.501 39.4706 48.521C39.4615 48.541 39.4539 48.5577 39.4478 48.571C39.4424 48.6005 39.4336 48.6286 39.4214 48.6553C39.419 48.6781 39.4133 48.6995 39.4041 48.7195C39.395 48.7395 39.3859 48.7595 39.3767 48.7795C39.3744 48.8023 39.3788 48.8279 39.39 48.8564C39.4056 48.9104 39.3741 49.0322 39.2956 49.2217C39.3234 49.2491 39.3361 49.2742 39.3338 49.297C39.3148 49.3208 39.3109 49.347 39.3221 49.3754C39.3536 49.4122 39.3679 49.4339 39.3648 49.4406L39.3329 49.5107C39.3386 49.5685 39.3388 49.6122 39.3334 49.6417C39.3378 49.6673 39.3401 49.6801 39.3401 49.6801C39.3807 49.6969 39.4182 49.6767 39.4524 49.6195C39.4933 49.565 39.5172 49.5392 39.524 49.542C39.5382 49.5637 39.5559 49.5869 39.5769 49.6114C39.604 49.6226 39.6282 49.6048 39.6495 49.5581C39.6587 49.5381 39.6573 49.5059 39.6454 49.4613C39.6342 49.4329 39.6423 49.3887 39.6697 49.3286C39.6758 49.3153 39.6835 49.2986 39.6926 49.2786C39.7085 49.2614 39.726 49.2409 39.7449 49.217C39.7707 49.1959 39.7881 49.1753 39.7972 49.1553C39.8162 49.1314 39.8336 49.1109 39.8496 49.0937L39.8983 49.0662C39.9044 49.0529 39.912 49.0362 39.9212 49.0162C39.9303 48.9962 39.9376 48.9715 39.943 48.942L39.9922 48.8077C40.0126 48.8161 40.0458 48.8139 40.0919 48.8013C40.0949 48.7946 40.093 48.7899 40.0863 48.7871C40.0788 48.7681 40.0683 48.7558 40.0547 48.7503C40.0496 48.7085 40.0501 48.681 40.0562 48.6676C40.0623 48.6543 40.0847 48.6318 40.1233 48.6002L40.1949 48.5227C40.2508 48.5061 40.2818 48.4912 40.2879 48.4778C40.2804 48.4589 40.2723 48.4238 40.2634 48.3726C40.2756 48.3459 40.2965 48.3268 40.3259 48.3152C40.3615 48.2902 40.3793 48.2777 40.3793 48.2777C40.3816 48.2549 40.3969 48.2216 40.425 48.1777C40.4311 48.1643 40.4651 48.1427 40.5271 48.1128L40.4935 48.0276L40.5662 47.9743C40.6939 47.924 40.7654 47.8821 40.7806 47.8488C40.7897 47.8288 40.7884 47.7965 40.7765 47.752C40.7578 47.7046 40.7622 47.6509 40.7896 47.5909L40.817 47.5308C40.8753 47.4915 40.9287 47.454 40.9771 47.4185C41.0323 47.3858 41.0774 47.3489 41.1122 47.3078C41.1312 47.284 41.1422 47.2687 41.1453 47.262C41.1551 47.2581 41.1585 47.2595 41.1554 47.2662C41.1676 47.2395 41.1669 47.2234 41.1534 47.2178C41.1466 47.215 41.1236 47.2213 41.0843 47.2368C41.0632 47.2123 41.0612 47.1639 41.0781 47.0916L41.1146 47.0115C41.1336 46.9876 41.151 46.9671 41.167 46.9499C41.1897 46.9354 41.209 46.9196 41.2249 46.9024L41.3255 46.9202C41.3798 46.9426 41.4159 46.9694 41.4338 47.0006L41.4608 47.0474C41.4842 47.0491 41.5223 47.045 41.5751 47.0351L41.6555 47.0445L41.7953 47.1617L41.745 47.2718C41.7403 47.3174 41.7515 47.3458 41.7786 47.357C41.8254 47.3604 41.8548 47.3488 41.867 47.3221L41.8797 47.2679C41.879 47.2518 41.8833 47.2337 41.8924 47.2137C41.8985 47.2004 41.9064 47.1917 41.9163 47.1879L42.0113 47.1914C42.0371 47.1704 42.065 47.1621 42.0952 47.1666L42.2396 47.2738C42.2531 47.2794 42.2618 47.2869 42.2655 47.2964L42.2869 47.329C42.3065 47.3212 42.3314 47.3196 42.3616 47.3242L42.6305 47.4233C42.6312 47.4394 42.6304 47.4589 42.628 47.4817C42.6355 47.5007 42.638 47.5215 42.6356 47.5443C42.6356 47.5443 42.6179 47.5568 42.5823 47.5818C42.5633 47.6057 42.5459 47.6262 42.53 47.6434C42.5208 47.6634 42.5117 47.6834 42.5026 47.7035C42.4934 47.7235 42.4963 47.7524 42.5112 47.7903C42.5014 47.7942 42.4916 47.798 42.4818 47.8019C42.4787 47.8086 42.4674 47.8158 42.4477 47.8235L42.4 47.8752L42.3497 47.9852L42.3553 47.9994L42.3177 48.0553C42.3184 48.0714 42.3096 48.0995 42.2913 48.1395C42.2798 48.1823 42.268 48.2171 42.2558 48.2438C42.2528 48.2505 42.2467 48.2638 42.2375 48.2838C42.2352 48.3066 42.2313 48.3328 42.2259 48.3622L42.2051 48.4607L42.1243 48.5582C42.0827 48.5965 42.0508 48.6309 42.0288 48.6614C42.0332 48.6871 42.0377 48.7127 42.0421 48.7383C42.0465 48.7639 42.0528 48.7942 42.0609 48.8293C42.0528 48.7942 42.0465 48.7639 42.0421 48.7383C42.0377 48.7127 42.0317 48.6904 42.0242 48.6715C42.0242 48.6715 42.0258 48.6681 42.0288 48.6614C41.9972 48.466 41.9651 48.2982 41.9325 48.1579C41.903 48.0109 41.8744 47.8881 41.8469 47.7896L41.8276 47.8054C41.8423 47.9145 41.8665 48.0553 41.9005 48.2279C41.9413 48.4033 41.9864 48.6043 42.036 48.8309C42.015 48.8064 42.0057 48.7827 42.008 48.7599C41.9575 48.747 41.9281 48.7586 41.9196 48.7947L41.9329 48.8716C41.923 48.8754 41.9139 48.8955 41.9054 48.9316C41.916 48.9439 41.9215 48.9581 41.9222 48.9742C41.9297 48.9932 41.9372 49.0121 41.9446 49.031L41.8811 49.0643C41.8682 49.0748 41.8569 49.082 41.8471 49.0859C41.844 49.0926 41.841 49.0992 41.8379 49.1059C41.8257 49.1326 41.8434 49.1557 41.8908 49.1753C41.8248 49.267 41.7914 49.3047 41.7907 49.2886C41.7907 49.2886 41.8057 49.3265 41.8355 49.4022C41.8294 49.4156 41.8184 49.4309 41.8025 49.4481C41.7934 49.4681 41.7793 49.49 41.7604 49.5139C41.7407 49.5217 41.7146 49.5347 41.6821 49.553C41.6526 49.5646 41.6167 49.5815 41.5744 49.6036L41.4972 49.6669C41.4728 49.7202 41.4677 49.7578 41.482 49.7795C41.4992 49.7946 41.5165 49.8097 41.5338 49.8247C41.5565 49.8103 41.5746 49.8059 41.5882 49.8115C41.6153 49.8227 41.6231 49.8497 41.6116 49.8925C41.6055 49.9059 41.5681 49.9261 41.4993 49.9532C41.4977 49.9921 41.505 50.0467 41.5213 50.1169L41.4079 50.1533C41.3551 50.1632 41.3226 50.1815 41.3104 50.2082L41.3124 50.2566L41.3429 50.2692C41.37 50.2804 41.4078 50.2682 41.4563 50.2327L41.4969 50.2495L41.4934 50.2837C41.4934 50.2837 41.4854 50.2923 41.4695 50.3096C41.4604 50.3296 41.4433 50.3582 41.4182 50.3954C41.3901 50.4393 41.3651 50.4765 41.3431 50.5071C41.3309 50.5338 41.3217 50.5538 41.3156 50.5671C41.2604 50.5998 41.2282 50.6262 41.2191 50.6462C41.2116 50.6273 41.2045 50.6164 41.1977 50.6136C41.1842 50.608 41.1698 50.6219 41.1546 50.6552C41.1363 50.6952 41.1106 50.7956 41.0774 50.9564C41.0758 50.9953 41.0707 51.0329 41.0623 51.069C41.0538 51.1052 41.0454 51.1413 41.0369 51.1775C40.9919 51.2937 40.9694 51.3518 40.9694 51.3518C40.9406 51.3795 40.9232 51.4001 40.9171 51.4134L40.8851 51.4835C40.8241 51.6169 40.7767 51.6766 40.7428 51.6626C40.7459 51.6559 40.744 51.6512 40.7372 51.6484L40.7505 51.7252C40.7542 51.7347 40.7531 51.7461 40.747 51.7594L40.7333 51.7895C40.7475 51.8112 40.7538 51.8415 40.7521 51.8805L40.7039 52.039L40.6765 52.099L40.6206 52.1949C40.601 52.2026 40.5795 52.2056 40.5561 52.2039C40.5259 52.1994 40.5047 52.2105 40.4926 52.2371L40.4525 52.3514L40.4977 52.3582C40.5316 52.3722 40.5458 52.3939 40.5404 52.4234C40.5479 52.4423 40.5357 52.469 40.5039 52.5035L40.4515 52.5651C40.4553 52.5746 40.4578 52.5954 40.4592 52.6277C40.4501 52.6477 40.4406 52.6597 40.4308 52.6636L40.4125 52.7036C40.3966 52.7208 40.3856 52.7361 40.3795 52.7494L40.2663 53.0238C40.2774 53.0522 40.2819 53.0778 40.2795 53.1006L40.2124 53.168C40.1949 53.2242 40.18 53.2656 40.1678 53.2923C40.1586 53.3123 40.1605 53.3171 40.1734 53.3065C40.1324 53.361 40.107 53.3901 40.0972 53.394L40.1038 53.4324C40.1045 53.4485 40.1033 53.4599 40.1003 53.4666C40.104 53.4761 40.1043 53.4842 40.1013 53.4908C40.0769 53.5442 40.053 53.57 40.0297 53.5683C40.0297 53.5683 40.0263 53.5669 40.0195 53.5641L40.0297 53.5683C40.0327 53.5616 40.0342 53.5583 40.0342 53.5583L39.9666 53.4947L39.8751 53.4569C39.8615 53.4513 39.8431 53.4476 39.8197 53.4459L39.7384 53.4123L39.7023 53.3855C39.6887 53.3799 39.6736 53.3777 39.657 53.3788L39.6118 53.372L39.447 53.2564C39.4403 53.2536 39.4221 53.258 39.3927 53.2696C39.3632 53.2812 39.3383 53.2828 39.3179 53.2744C39.2908 53.2632 39.254 53.2203 39.2076 53.1456C39.1947 53.1562 39.1486 53.1689 39.0694 53.1837C39.0219 53.1641 39.0104 53.1276 39.0347 53.0743L39.2719 52.6608L39.2947 52.6108C39.2775 52.5957 39.2537 52.5859 39.2236 52.5814C39.2696 52.5687 39.2984 52.5409 39.3099 52.4981L39.3262 52.4097L39.3307 52.3997C39.3399 52.3797 39.3693 52.368 39.4191 52.3648C39.4147 52.3392 39.4118 52.3103 39.4105 52.278C39.4128 52.2552 39.4137 52.2357 39.413 52.2196C39.4221 52.1995 39.4297 52.1829 39.4358 52.1695C39.4487 52.159 39.4658 52.1304 39.4871 52.0837L39.484 52.011C39.5277 52.0212 39.5704 52.0071 39.6121 51.9688C39.6114 51.9526 39.5972 51.9309 39.5694 51.9036C39.5914 51.873 39.607 51.8477 39.6161 51.8277C39.6351 51.8038 39.6442 51.7838 39.6435 51.7677L39.6622 51.6208L39.7283 51.5291L39.7852 51.4575L39.8155 51.2322C39.8247 51.2122 39.8538 51.1925 39.9029 51.1731C39.8924 51.1609 39.8834 51.1453 39.876 51.1263C39.8685 51.1074 39.8611 51.0884 39.8536 51.0695C39.8854 51.0351 39.9196 50.9778 39.9562 50.8978C39.9653 50.8778 39.9748 50.8658 39.9846 50.862L39.9907 50.7693C40.0211 50.7026 40.0511 50.6635 40.0806 50.6518C40.1101 50.6402 40.1324 50.6177 40.1476 50.5844C40.172 50.531 40.1745 50.4726 40.1552 50.4091C40.1694 50.4308 40.1814 50.4398 40.1913 50.4359C40.2184 50.4471 40.2399 50.4441 40.2558 50.4269L40.178 50.3591C40.1743 50.3496 40.1706 50.3401 40.1668 50.3307C40.1661 50.3145 40.1605 50.3003 40.15 50.2881C40.1727 50.2736 40.2056 50.2634 40.2486 50.2574C40.2425 50.2708 40.2432 50.2869 40.2507 50.3058C40.2537 50.2992 40.2651 50.292 40.2847 50.2842C40.2142 50.1917 40.1857 50.1482 40.1993 50.1538C40.1722 50.1426 40.1442 50.1509 40.1154 50.1786L40.0606 50.2987C40.0304 50.2942 40.0077 50.3086 39.9925 50.3419L39.9651 50.402C39.9553 50.4059 39.9359 50.4217 39.9072 50.4494L39.8534 50.5937C39.8435 50.5976 39.8273 50.6067 39.8046 50.6211C39.7849 50.6289 39.7554 50.6405 39.7161 50.656C39.7379 50.6967 39.7372 50.7598 39.7142 50.8455C39.702 50.8721 39.691 50.8874 39.6812 50.8913C39.6222 50.9145 39.5757 50.9548 39.5415 51.012C39.5195 51.0426 39.4975 51.0731 39.4754 51.1037C39.4565 51.1276 39.4326 51.1534 39.4038 51.1811L39.4501 51.2121L39.3815 51.3622L39.2942 51.4213C39.2979 51.4307 39.294 51.4569 39.2825 51.4997C39.2801 51.5225 39.2744 51.5439 39.2653 51.5639C39.2629 51.5868 39.2538 51.6068 39.2378 51.624L39.1799 51.6714L39.1494 51.6588L39.1021 51.6036C38.9839 51.7213 38.9309 51.7668 38.9431 51.7401L38.9879 51.8538C38.9832 51.8994 38.9701 51.9456 38.9488 51.9922L38.9031 52.0923C38.8933 52.0962 38.8736 52.1039 38.8442 52.1155C38.8245 52.1233 38.8018 52.1377 38.7761 52.1588C38.7503 52.1799 38.7268 52.2138 38.7055 52.2605L38.7167 52.2889C38.7204 52.2983 38.7192 52.3097 38.7131 52.3231L38.5821 52.5306C38.573 52.5506 38.5487 52.5684 38.5094 52.5839L38.4957 52.6139C38.4836 52.6406 38.4624 52.6516 38.4322 52.6471C38.4387 52.7211 38.4362 52.7796 38.4247 52.8224C38.4186 52.8357 38.4027 52.853 38.3769 52.874C38.3468 52.8695 38.3132 52.8636 38.2763 52.8563C38.2363 52.8556 38.1963 52.855 38.1563 52.8543L38.0389 52.7939L37.926 52.7235L37.7654 52.7048C37.7451 52.6964 37.733 52.6875 37.7293 52.678C37.7323 52.6713 37.7378 52.6419 37.7455 52.5896C37.7306 52.5517 37.7243 52.5213 37.7267 52.4985L37.7591 52.3216C37.7818 52.3072 37.8033 52.3042 37.8237 52.3126L37.8556 52.2426C37.916 52.2516 37.9541 52.2475 37.97 52.2303C37.9754 52.2008 37.9679 52.1819 37.9476 52.1735C37.9039 52.1634 37.8698 52.185 37.8455 52.2384L37.7845 52.2132L37.9053 52.0015L37.9216 51.913L37.9276 51.8204C37.9489 51.7737 37.9935 51.7643 38.0613 51.7923L38.0928 51.8291C38.1199 51.8403 38.143 51.834 38.1619 51.8101C38.1131 51.7582 38.0717 51.7253 38.0378 51.7113L38.0028 51.7087C38.0058 51.702 38.0202 51.6881 38.046 51.6671C38.0348 51.6387 38.0258 51.623 38.019 51.6202L37.9433 51.6009C37.9395 51.5914 37.9483 51.5633 37.9696 51.5166C37.9879 51.4766 38.0133 51.4474 38.0458 51.4292L38.089 51.3875C38.0816 51.3686 38.0707 51.3482 38.0565 51.3265C38.049 51.3076 38.0363 51.2825 38.0183 51.2513C38.0146 51.2418 38.0158 51.2304 38.0218 51.2171C38.031 51.1971 38.0383 51.1723 38.0437 51.1428L38.1666 50.9795C38.1629 50.9701 38.1591 50.9606 38.1554 50.9511C38.1517 50.9416 38.1461 50.9274 38.1386 50.9085L38.1685 50.79C38.1648 50.7806 38.1577 50.7697 38.1472 50.7574C38.1465 50.7413 38.1439 50.7204 38.1395 50.6948C38.1493 50.6909 38.1573 50.6823 38.1634 50.669C38.1756 50.6423 38.1776 50.6114 38.1694 50.5764L38.1877 50.5363L38.2228 50.5389C38.2936 50.5602 38.3366 50.5542 38.3519 50.5209C38.3641 50.4942 38.3276 50.4593 38.2426 50.4163C38.2466 50.3545 38.2577 50.3036 38.276 50.2636L38.3101 50.242L38.3192 50.2219C38.3202 50.1669 38.3102 50.127 38.2892 50.1025L38.2881 50.0783C38.2912 50.0716 38.2976 50.0664 38.3074 50.0625L38.2805 50.0157C38.3743 49.9513 38.4212 49.9192 38.4212 49.9192C38.4364 49.8858 38.4298 49.8474 38.4013 49.8039C38.4044 49.7973 38.4305 49.7843 38.4796 49.7649L38.3566 49.6903C38.3514 49.6486 38.3455 49.6263 38.3387 49.6235C38.2987 49.6228 38.2723 49.6278 38.2594 49.6383L38.2366 49.6884L38.1924 49.7058L38.1741 49.7458C38.1748 49.7619 38.174 49.7814 38.1716 49.8042C38.1692 49.827 38.1654 49.8532 38.1599 49.8827C38.1447 49.916 38.1224 49.9385 38.0929 49.9501C38.0566 49.9589 38.037 49.9667 38.0339 49.9734L38.0569 50.1612C38.0606 50.1707 38.0579 50.1854 38.0488 50.2054C38.0427 50.2188 38.04 50.2335 38.0407 50.2497C38.037 50.2402 38.0256 50.2474 38.0066 50.2713C37.9765 50.2668 37.9519 50.2764 37.933 50.3003L37.8999 50.3462C37.9149 50.384 37.9325 50.4072 37.9528 50.4156L37.7036 51.0143L37.6695 51.0359C37.6672 51.0587 37.6553 51.0935 37.634 51.1402C37.6249 51.1602 37.601 51.186 37.5624 51.2177L37.5146 51.2693C37.5116 51.276 37.5085 51.2826 37.5055 51.2893C37.5092 51.2988 37.5114 51.3116 37.5121 51.3277C37.5165 51.3533 37.4998 51.39 37.4618 51.4378C37.4737 51.4823 37.4561 51.5385 37.4091 51.6063C37.3823 51.6825 37.3583 51.7439 37.337 51.7906C37.3224 51.8401 37.3057 51.8768 37.2867 51.9007C37.2911 51.9263 37.2922 51.9505 37.2898 51.9733C37.2905 51.9894 37.2912 52.0056 37.2919 52.0217C37.26 52.0561 37.2267 52.0939 37.1918 52.135C37.1667 52.1722 37.1352 52.2147 37.0973 52.2625L37.1162 52.3535L37.0979 52.3935C37.0782 52.4013 37.0518 52.4062 37.0186 52.4084C36.9922 52.4133 36.9624 52.4169 36.9291 52.419C36.8885 52.4022 36.8505 52.3707 36.8152 52.3244L36.7364 52.2324C36.7069 52.244 36.679 52.2523 36.6526 52.2572C36.6224 52.2527 36.5938 52.2449 36.5667 52.2337C36.5433 52.2319 36.5248 52.2283 36.5113 52.2227L36.378 52.1439C36.3713 52.1411 36.3464 52.1427 36.3033 52.1487L36.2332 52.1436ZM41.5788 47.2388C41.591 47.2121 41.5933 47.1893 41.5859 47.1704L41.5381 47.222L41.5788 47.2388ZM39.2847 46.7317L39.3345 46.7285L39.3279 46.6901C39.3181 46.6939 39.3116 46.6992 39.3086 46.7059C39.3055 46.7126 39.2976 46.7212 39.2847 46.7317ZM41.5562 47.7647L41.6106 47.7514C41.6136 47.7448 41.6001 47.7392 41.5699 47.7346C41.5601 47.7385 41.5555 47.7485 41.5562 47.7647ZM41.6564 47.8893C41.6706 47.911 41.6937 47.9047 41.7255 47.8702C41.7218 47.8608 41.7131 47.8532 41.6996 47.8476C41.6724 47.8364 41.6581 47.8503 41.6564 47.8893ZM38.7476 46.9024C38.7648 46.9174 38.7833 46.9211 38.803 46.9134C38.8226 46.9056 38.8235 46.8861 38.8055 46.8549C38.7821 46.8532 38.7628 46.869 38.7476 46.9024ZM39.3837 47.4148C39.4169 47.4126 39.4384 47.4096 39.4482 47.4057C39.4455 47.3412 39.4536 47.2969 39.4725 47.2731C39.4922 47.2653 39.5118 47.2576 39.5315 47.2498C39.5542 47.2354 39.5769 47.221 39.5996 47.2066C39.5514 47.1708 39.5157 47.1521 39.4923 47.1504C39.4516 47.1336 39.4264 47.1271 39.4166 47.131C39.3735 47.137 39.3459 47.1534 39.3337 47.1801C39.2789 47.3001 39.2955 47.3784 39.3837 47.4148ZM38.9874 47.7268C39.0002 47.7163 39.0029 47.7016 38.9955 47.6826C38.9917 47.6731 38.9733 47.6695 38.9401 47.6716C38.9445 47.6972 38.9603 47.7156 38.9874 47.7268ZM38.412 47.8223C38.4181 47.809 38.4175 47.7928 38.41 47.7739C38.4093 47.7577 38.3942 47.7555 38.3648 47.7671C38.3556 47.7871 38.3714 47.8055 38.412 47.8223ZM41.2097 49.132C41.2128 49.1253 41.2087 49.1078 41.1975 49.0793L41.168 49.091C41.1717 49.1004 41.177 49.1066 41.1838 49.1094C41.1973 49.115 41.206 49.1225 41.2097 49.132ZM37.9434 47.8429C37.9577 47.8646 37.9792 47.8616 38.008 47.8339C38.0042 47.8244 37.9956 47.8169 37.982 47.8113C37.9617 47.8029 37.9488 47.8134 37.9434 47.8429ZM41.4284 49.3412C41.4277 49.325 41.4175 49.3208 41.3979 49.3286L41.4101 49.3812L41.4284 49.3412ZM41.1569 49.3005C41.1661 49.2804 41.1669 49.261 41.1595 49.242C41.1459 49.2364 41.1293 49.2375 41.1096 49.2453C41.1005 49.2653 41.1163 49.2837 41.1569 49.3005ZM38.806 48.865C38.8256 48.8572 38.84 48.8434 38.8491 48.8234C38.8122 48.816 38.7809 48.8229 38.7551 48.844L38.806 48.865ZM38.8111 48.986L38.8045 48.9476L38.7196 48.9483L38.8111 48.986ZM39.1701 49.2056C39.1761 49.1922 39.1656 49.18 39.1385 49.1688C39.1497 49.1972 39.1602 49.2095 39.1701 49.2056ZM38.0053 49.5334C38.012 49.5362 38.0203 49.5356 38.0302 49.5318L38.0032 49.485C37.9964 49.4822 37.9881 49.4827 37.9783 49.4866L38.0053 49.5334ZM38.8472 50.0713L38.8792 50.0012C38.8301 50.0206 38.7987 50.0275 38.7852 50.0219C38.792 50.0247 38.7923 50.0327 38.7862 50.0461L38.8472 50.0713ZM37.9444 49.7461L38.0201 49.7655C38.0286 49.7293 38.0174 49.7009 37.9865 49.6802L37.9444 49.7461ZM40.3548 51.1099C40.4039 51.0906 40.4361 51.0642 40.4513 51.0309L40.465 51.0008C40.4643 50.9847 40.4569 50.9658 40.4426 50.944C40.4351 50.9251 40.4273 50.8981 40.4192 50.863L40.3486 50.9647C40.3364 50.9914 40.3385 51.0398 40.3548 51.1099ZM39.2099 50.7324C39.3042 50.7555 39.3531 50.7717 39.3569 50.7812L39.3833 50.6969C39.3646 50.6496 39.3402 50.6237 39.31 50.6191C39.2904 50.6269 39.257 50.6646 39.2099 50.7324ZM40.9841 51.346C40.9841 51.346 40.9792 51.3479 40.9694 51.3518C40.9762 51.3546 40.9796 51.356 40.9796 51.356C40.9826 51.3493 40.9841 51.346 40.9841 51.346ZM38.8832 50.9186L38.8766 50.8802L38.8664 50.876L38.8629 50.9102L38.8832 50.9186ZM37.498 50.644C37.5153 50.6591 37.5402 50.6575 37.5728 50.6392C37.5616 50.6108 37.5461 50.6005 37.5265 50.6082C37.5068 50.616 37.4974 50.6279 37.498 50.644ZM37.0813 50.7098C37.0911 50.706 37.0991 50.6974 37.1052 50.684C37.1143 50.664 37.1053 50.6484 37.0782 50.6372C37.0623 50.6544 37.0633 50.6786 37.0813 50.7098ZM40.0724 52.5751C40.0995 52.5862 40.1229 52.588 40.1425 52.5802C40.133 52.5129 40.146 52.4667 40.1816 52.4418C40.2012 52.434 40.2209 52.4263 40.2405 52.4185C40.2602 52.4108 40.2814 52.3997 40.3041 52.3853C40.28 52.3674 40.2578 52.3543 40.2375 52.3459C40.2202 52.3308 40.2047 52.3205 40.1912 52.3149C40.1709 52.3065 40.1441 52.3034 40.1109 52.3055C40.0678 52.3115 40.0372 52.3346 40.0189 52.3746C39.9868 52.4802 40.0046 52.5471 40.0724 52.5751ZM37.227 51.317C37.2398 51.3065 37.2391 51.2903 37.2249 51.2686C37.2242 51.2525 37.2091 51.2502 37.1797 51.2618C37.1841 51.2874 37.1998 51.3058 37.227 51.317ZM36.5767 52C36.5964 51.9922 36.6348 51.9962 36.6921 52.0119C36.7395 52.0315 36.7705 52.0166 36.7851 51.9671L36.7886 51.9329L36.7525 51.9061L36.6473 51.8983C36.6405 51.8955 36.6387 51.8908 36.6417 51.8841L36.6214 51.8757C36.5943 51.8645 36.5761 51.8689 36.567 51.8889C36.5487 51.9289 36.552 51.966 36.5767 52ZM43.2402 55.0246L43.1725 54.961C43.0905 54.9113 43.0137 54.8677 42.9422 54.8302C42.8744 54.8023 42.8149 54.7737 42.7638 54.7447L42.6733 54.7311L42.4567 54.5703L42.3515 54.5626L42.0851 54.405L41.928 54.352C41.9144 54.3464 41.8993 54.3442 41.8827 54.3452L41.8375 54.3385L41.4379 54.1021L41.3576 54.0927C41.3471 54.0805 41.3298 54.0654 41.3057 54.0475C41.2884 54.0325 41.2677 54.016 41.2437 53.9982L41.204 54.0056C41.1935 53.9933 41.1611 53.976 41.1069 53.9536L41.082 53.9552L40.899 53.8796C40.7973 53.8377 40.7825 53.7642 40.8547 53.6592L40.9344 53.5375C40.9625 53.4936 40.9827 53.4583 40.9948 53.4316C41.0101 53.3983 41.0223 53.3716 41.0314 53.3516C41.0443 53.341 41.0654 53.3299 41.0949 53.3183C41.1274 53.3 41.175 53.284 41.2377 53.2702L41.2469 53.2502L41.1543 53.1882L41.1624 53.144C41.1838 53.0973 41.2141 53.0662 41.2534 53.0507C41.3184 53.0142 41.3635 52.9773 41.3885 52.94C41.3577 52.9194 41.3461 52.8829 41.3539 52.8306L41.3737 52.708C41.3737 52.708 41.4216 52.6207 41.5174 52.4462L41.5748 52.5056C41.5847 52.5017 41.5972 52.4831 41.6124 52.4498L41.6398 52.3897C41.6286 52.3613 41.6208 52.3343 41.6164 52.3087L41.6154 52.2845C41.6215 52.2711 41.6404 52.2473 41.6723 52.2128C41.7041 52.1784 41.72 52.1612 41.72 52.1612C41.7322 52.1345 41.7293 52.1056 41.7113 52.0744C41.7235 52.0477 41.7455 52.0171 41.7774 51.9827C41.7774 51.9827 41.7752 51.9699 41.7707 51.9443C41.7799 51.9243 41.7878 51.9157 41.7946 51.9185C41.8031 51.8823 41.8232 51.847 41.8551 51.8126C41.8906 51.7876 41.9084 51.7752 41.9084 51.7752L41.9338 51.6667C41.9422 51.6305 41.9461 51.6044 41.9454 51.5883C41.9478 51.5655 41.9505 51.5507 41.9535 51.544C41.9596 51.5307 41.9823 51.5163 42.0216 51.5008C42.0609 51.4853 42.0836 51.4709 42.0897 51.4576C42.0897 51.4576 42.0921 51.4347 42.0968 51.3891C42.0856 51.3607 42.0815 51.3432 42.0846 51.3365L42.2131 51.1874C42.1853 51.1601 42.1968 51.1172 42.2476 51.0589L42.3329 50.9514C42.3414 50.9153 42.3468 50.8858 42.3491 50.863C42.3583 50.843 42.3659 50.8263 42.372 50.813L42.4563 50.6813L42.5391 50.6322C42.5384 50.6161 42.5404 50.5852 42.5452 50.5396L42.6284 50.3837C42.6264 50.3353 42.6269 50.3077 42.6299 50.3011L42.789 50.1645C42.789 50.1645 42.7871 50.1598 42.7834 50.1503C42.7864 50.1437 42.7876 50.1323 42.7869 50.1161C42.796 50.0961 42.8067 50.0728 42.8189 50.0461C42.8409 50.0155 42.8659 49.9783 42.894 49.9344L42.9285 49.8059C42.9323 49.8154 42.9619 49.7682 43.0174 49.6642L43.0245 49.5958C43.0238 49.5797 43.0216 49.5669 43.0179 49.5574C43.0209 49.5507 43.024 49.5441 43.027 49.5374C43.0399 49.5268 43.0528 49.5163 43.0656 49.5058C43.0785 49.4952 43.0895 49.4799 43.0986 49.4599L43.2606 49.1581L43.6339 48.4203C43.7043 48.3542 43.7471 48.3045 43.7624 48.2712L43.7751 48.2169C43.7811 48.2036 43.7823 48.1922 43.7786 48.1827C43.7749 48.1733 43.7745 48.1652 43.7776 48.1585L43.8222 48.0342C43.8283 48.0209 43.8586 47.9898 43.9132 47.941C43.9372 47.9588 43.9647 47.9781 43.9955 47.9988C44.0294 48.0128 44.0603 48.0334 44.0881 48.0607C44.0993 48.0892 44.1206 48.1218 44.1522 48.1586C44.1589 48.1614 44.1786 48.1536 44.2111 48.1353C44.2406 48.1237 44.2621 48.1207 44.2757 48.1263L44.3184 48.1915C44.3469 48.235 44.3987 48.2802 44.474 48.3271C44.4997 48.306 44.5224 48.2916 44.5421 48.2839L44.628 48.3074C44.6581 48.312 44.6834 48.3184 44.7037 48.3268L44.7307 48.3736C44.7381 48.3926 44.757 48.4043 44.7871 48.4088L44.8979 48.4308C44.9281 48.4353 44.9499 48.4404 44.9635 48.446C44.9771 48.4516 44.9872 48.4558 44.994 48.4586L45.1542 48.5842C45.1708 48.5831 45.1859 48.5853 45.1994 48.5909C45.2228 48.5927 45.2496 48.5958 45.2797 48.6003L45.3621 48.6581C45.3567 48.6876 45.3709 48.7093 45.4048 48.7233C45.4116 48.7261 45.4331 48.7231 45.4694 48.7143C45.5087 48.6988 45.5287 48.6991 45.5293 48.7153C45.5293 48.7153 45.5466 48.7303 45.5812 48.7605C45.6009 48.7527 45.6224 48.7497 45.6458 48.7514L45.7078 48.8008C45.7183 48.8131 45.7254 48.824 45.7292 48.8334C45.7397 48.8457 45.7483 48.8532 45.7551 48.856L45.8105 48.867C45.8044 48.8804 45.8042 48.916 45.81 48.9739C45.8327 48.9594 45.8449 48.9328 45.8466 48.8938L45.9416 48.8974C45.9522 48.9096 45.9679 48.9281 45.9889 48.9526C46.01 48.9771 46.0344 49.0031 46.0622 49.0304C46.0561 49.0437 46.0586 49.0646 46.0698 49.093L46.1003 49.1056L46.1933 49.0608C46.2099 49.0597 46.2284 49.0633 46.2487 49.0717C46.2758 49.0829 46.3045 49.0908 46.3346 49.0953L46.4012 49.1347L46.2073 49.5065C46.1612 49.5192 46.1305 49.5422 46.1153 49.5756L46.0889 49.6598L45.8492 50.1317C45.8279 50.1784 45.78 50.1864 45.7054 50.1556C45.6942 50.1272 45.68 50.1055 45.6627 50.0904C45.6386 50.0725 45.6029 50.0538 45.5554 50.0342C45.511 50.0079 45.4568 49.9856 45.3927 49.967C45.3792 49.9614 45.3622 49.9545 45.3419 49.9461C45.3246 49.931 45.3005 49.9131 45.2697 49.8925L45.1828 49.8447L45.0109 49.7975L44.8427 49.7162C44.8291 49.7106 44.8171 49.7016 44.8066 49.6894L44.7705 49.6626C44.7193 49.6335 44.6767 49.612 44.6428 49.598C44.6157 49.5868 44.5988 49.5798 44.592 49.577C44.574 49.5458 44.5515 49.5246 44.5244 49.5134C44.5108 49.5078 44.481 49.5113 44.4349 49.524C44.3888 49.5367 44.359 49.5403 44.3455 49.5347C44.3363 49.5547 44.3269 49.5666 44.317 49.5705L44.3043 49.6247C44.305 49.6409 44.3008 49.6589 44.2917 49.679C44.2856 49.6923 44.2798 49.7137 44.2744 49.7432C44.1945 49.7419 44.113 49.8232 44.0301 49.9872L44.0662 50.014L44.1373 50.0434C44.1411 50.0528 44.1368 50.0709 44.1247 50.0976C44.1125 50.1243 44.0867 50.1454 44.0474 50.1608C43.9983 50.1802 43.9737 50.1899 43.9737 50.1899C43.9734 50.2611 43.9614 50.3315 43.9378 50.401C43.9317 50.4143 43.9044 50.4388 43.856 50.4743C43.8075 50.5098 43.7757 50.5442 43.7605 50.5775L43.7538 50.5391L43.7142 50.5465L43.7005 50.5766C43.7079 50.5955 43.732 50.6134 43.7727 50.6302C43.7666 50.6435 43.759 50.6602 43.7498 50.6802C43.7505 50.6963 43.7497 50.7158 43.7473 50.7386C43.7568 50.806 43.7752 50.8452 43.8023 50.8564L43.8872 50.8558C43.8909 50.8653 43.8984 50.8842 43.9096 50.9126C43.9306 50.9372 43.9445 50.9508 43.9512 50.9536C43.9475 50.9441 43.9838 50.9353 44.06 50.9272C44.118 50.959 44.1635 50.9739 44.1968 50.9717C44.2229 51.038 44.2461 51.0754 44.2664 51.0838L44.3071 51.1005L44.392 51.0999C44.3988 51.1027 44.4105 51.1036 44.4271 51.1025C44.4437 51.1014 44.4603 51.1003 44.4769 51.0993L44.547 51.1045C44.5674 51.1128 44.585 51.136 44.5999 51.1739C44.6186 51.2212 44.6313 51.2463 44.6381 51.2491C44.6645 51.2441 44.6996 51.2467 44.7433 51.2568C44.7433 51.2568 44.7402 51.2635 44.7341 51.2769C44.7379 51.2863 44.7352 51.3011 44.726 51.3211C44.7139 51.3478 44.6922 51.3864 44.661 51.4369C44.6397 51.4836 44.6089 51.5423 44.5686 51.6129L44.53 51.6445C44.5276 51.6673 44.5097 51.7154 44.4762 51.7888C44.4633 51.7993 44.4459 51.8199 44.4239 51.8504C44.4019 51.881 44.3878 51.9029 44.3817 51.9163L44.3726 51.9363C44.3665 51.9496 44.358 51.9858 44.3472 52.0447L44.3289 52.0847C44.3076 52.1314 44.2758 52.1659 44.2334 52.188C44.1352 52.2267 44.0793 52.2433 44.0657 52.2377L43.9879 52.1699C43.9744 52.1643 43.9559 52.1607 43.9325 52.1589L43.867 52.1438C43.8595 52.1248 43.8471 52.1078 43.8298 52.0927C43.8224 52.0738 43.8066 52.0554 43.7825 52.0375C43.7659 52.0386 43.7459 52.0383 43.7226 52.0366C43.709 52.031 43.6871 52.0259 43.657 52.0214L43.5588 51.9452C43.5002 51.8972 43.4607 51.869 43.4404 51.8606L43.3296 51.8386C43.316 51.833 43.3097 51.8027 43.3107 51.7476C43.3409 51.7521 43.3654 51.7424 43.3844 51.7186L43.3946 51.7228C43.4081 51.7284 43.4285 51.7368 43.4556 51.7479C43.4827 51.7591 43.5083 51.7737 43.5323 51.7915L43.5608 51.7557L43.5699 51.7357C43.5791 51.7157 43.5762 51.6867 43.5612 51.6489C43.5545 51.6461 43.5409 51.6405 43.5206 51.6321C43.5101 51.6198 43.4928 51.6047 43.4687 51.5869C43.4491 51.5946 43.4301 51.6185 43.4118 51.6585C43.3945 51.6435 43.3666 51.6517 43.328 51.6834C43.3205 51.6644 43.2922 51.6646 43.2431 51.684L43.2111 51.754C43.1914 51.7618 43.1672 51.7795 43.1384 51.8073C43.0818 51.8077 43.0459 51.8246 43.0307 51.858C43.0307 51.858 43.0344 51.8674 43.0419 51.8864C43.0456 51.8958 43.0445 51.9072 43.0384 51.9206L43.0201 51.9606C43.0109 51.9806 43.0018 52.0006 42.9927 52.0206C42.9835 52.0407 42.968 52.0659 42.9459 52.0965L42.9582 52.1491C42.9263 52.1835 42.8374 52.2459 42.6914 52.3363L42.6823 52.3563C42.6701 52.383 42.6696 52.4105 42.6808 52.4389C42.7126 52.4045 42.7697 52.3765 42.852 52.355C42.8639 52.3996 42.8622 52.4385 42.847 52.4719C42.844 52.4786 42.785 52.5018 42.6702 52.5416L42.6789 52.6284L42.7241 52.6352C42.7512 52.6464 42.7556 52.672 42.7373 52.712C42.7177 52.7198 42.6886 52.7395 42.65 52.7711C42.6242 52.7922 42.6052 52.8161 42.5931 52.8427L42.6099 52.8854C42.6068 52.892 42.5667 52.927 42.4895 52.9902L42.4834 53.0829C42.4682 53.1162 42.4353 53.1265 42.3848 53.1135C42.3885 53.123 42.404 53.1333 42.4311 53.1445L42.4275 53.1787C42.3981 53.1904 42.3754 53.2048 42.3594 53.222C42.3547 53.2676 42.3678 53.3008 42.3986 53.3214C42.4325 53.3354 42.4581 53.3499 42.4754 53.365C42.5327 53.3807 42.5884 53.3998 42.6427 53.4222C42.6969 53.4446 42.7545 53.4683 42.8155 53.4935C42.8101 53.523 42.8209 53.5433 42.8481 53.5545C42.8616 53.5601 42.9058 53.5427 42.9807 53.5023C43.0214 53.5191 43.0317 53.5669 43.0118 53.6459L43.0423 53.6585C43.0514 53.6385 43.0624 53.6232 43.0753 53.6127C43.1319 53.6123 43.2061 53.635 43.2979 53.6808L43.3971 53.7812C43.3941 53.7879 43.4197 53.8024 43.4739 53.8248C43.501 53.836 43.5164 53.8463 43.5201 53.8558L43.666 53.8804C43.6864 53.8888 43.7064 53.8891 43.726 53.8813C43.7358 53.8775 43.7611 53.8839 43.8018 53.9007C43.8499 53.9364 43.8587 53.9877 43.8283 54.0544C43.8161 54.0811 43.7739 54.1469 43.7018 54.2519C43.7018 54.2519 43.692 54.2558 43.6723 54.2635C43.6594 54.2741 43.65 54.286 43.6439 54.2993L43.5296 54.5495C43.5296 54.5495 43.5063 54.5478 43.4595 54.5443C43.4643 54.6573 43.453 54.7438 43.4256 54.8038C43.4103 54.8372 43.3748 54.8622 43.3189 54.8787L43.29 55.0214C43.2568 55.0235 43.2402 55.0246 43.2402 55.0246ZM45.8408 49.4623L45.8509 49.4665C45.8916 49.4832 45.9362 49.4739 45.9846 49.4384C45.9765 49.4033 45.9656 49.383 45.952 49.3774L45.798 49.397C45.8062 49.4321 45.8204 49.4539 45.8408 49.4623ZM45.5618 49.5968C45.5648 49.5902 45.5608 49.5726 45.5496 49.5442C45.5496 49.5442 45.5398 49.5481 45.5201 49.5558L45.5618 49.5968ZM43.9219 49.0862L44.023 48.9972L43.9813 48.9562L43.9543 48.9094C43.9014 48.9192 43.8644 48.9475 43.843 48.9942C43.8715 49.0377 43.8978 49.0684 43.9219 49.0862ZM43.3204 49.7418C43.3265 49.7284 43.3292 49.7137 43.3285 49.6975C43.3346 49.6842 43.3373 49.6695 43.3366 49.6533L43.2654 49.6239L43.237 49.6598L43.264 49.7066L43.3204 49.7418ZM42.6152 50.3069C42.6213 50.2935 42.6262 50.2916 42.6299 50.3011L42.6152 50.3069ZM43.0637 50.7537C43.122 50.7143 43.1335 50.6715 43.0982 50.6252C43.0884 50.6291 43.0691 50.6449 43.0403 50.6727C43.0311 50.6927 43.039 50.7197 43.0637 50.7537ZM42.7694 50.763L42.8481 50.6171L42.8313 50.5745L42.7602 50.5451L42.7363 50.5709C42.7363 50.5709 42.7373 50.5951 42.7394 50.6436C42.7499 50.6558 42.7407 50.6758 42.712 50.7036C42.7323 50.712 42.7514 50.7318 42.7694 50.763ZM42.7828 51.0777C42.7889 51.0644 42.7965 51.0477 42.8056 51.0277C42.8148 51.0077 42.8273 50.9891 42.8432 50.9719C42.8364 50.9691 42.8183 50.9735 42.7888 50.9851C42.7797 51.0051 42.7777 51.036 42.7828 51.0777ZM44.012 51.5615L44.0222 51.5656C44.0358 51.5712 44.0727 51.5786 44.133 51.5876L44.105 51.5166C44.1006 51.491 44.0738 51.4879 44.0247 51.5072C44.0125 51.5339 44.0083 51.552 44.012 51.5615ZM42.5551 52.1849C42.565 52.181 42.5643 52.1649 42.5531 52.1365C42.5395 52.1309 42.5278 52.13 42.518 52.1339L42.5551 52.1849ZM42.3784 52.4925C42.392 52.4981 42.4221 52.5026 42.4689 52.506L42.4749 52.4134C42.4448 52.4089 42.4251 52.4166 42.416 52.4366L42.3784 52.4925ZM41.8757 52.5347C41.8818 52.5213 41.8894 52.5047 41.8986 52.4847C41.9077 52.4646 41.9187 52.4494 41.9316 52.4388C41.9279 52.4294 41.9113 52.4304 41.8818 52.442L41.8757 52.5347ZM41.7854 52.759C41.7983 52.7485 41.801 52.7337 41.7935 52.7148C41.786 52.6959 41.7691 52.6889 41.7427 52.6938C41.7433 52.7099 41.7576 52.7317 41.7854 52.759ZM41.4324 53.2674C41.4649 53.2491 41.4805 53.2238 41.4791 53.1915L41.4384 53.1747L41.3907 53.2264C41.3981 53.2453 41.412 53.259 41.4324 53.2674ZM42.7554 54.3131C42.7615 54.2998 42.7608 54.2836 42.7534 54.2647C42.7496 54.2552 42.7346 54.2529 42.7081 54.2579C42.699 54.2779 42.7148 54.2963 42.7554 54.3131ZM42.6854 54.5458L42.8821 54.5914L42.8836 54.5087C42.8853 54.4698 42.8658 54.4419 42.8251 54.4251L42.7199 54.4174C42.7108 54.4374 42.7016 54.4574 42.6925 54.4774C42.6901 54.5002 42.6878 54.523 42.6854 54.5458Z" fill="#503613"/>
<defs>
<filter id="filter0_n_522_178" x="36.9062" y="7.87231" width="15.9351" height="13.6927" filterUnits="userSpaceOnUse" color-interpolation-filters="sRGB">
<feFlood flood-opacity="0" result="BackgroundImageFix"/>
<feBlend mode="normal" in="SourceGraphic" in2="BackgroundImageFix" result="shape"/>
<feTurbulence type="fractalNoise" baseFrequency="2 2" stitchTiles="stitch" numOctaves="3" result="noise" seed="2277" />
<feColorMatrix in="noise" type="luminanceToAlpha" result="alphaNoise" />
<feComponentTransfer in="alphaNoise" result="coloredNoise1">
<feFuncA type="discrete" tableValues="1 1 1 1 1 1 1 1 1 1 1 1 1 1 1 1 1 1 1 1 1 1 1 1 1 1 1 1 1 1 1 1 1 1 1 1 1 1 1 1 1 1 1 1 1 1 1 1 1 1 1 0 0 0 0 0 0 0 0 0 0 0 0 0 0 0 0 0 0 0 0 0 0 0 0 0 0 0 0 0 0 0 0 0 0 0 0 0 0 0 0 0 0 0 0 0 0 0 0 0 "/>
</feComponentTransfer>
<feComposite operator="in" in2="shape" in="coloredNoise1" result="noise1Clipped" />
<feFlood flood-color="rgba(0, 0, 0, 0.25)" result="color1Flood" />
<feComposite operator="in" in2="noise1Clipped" in="color1Flood" result="color1" />
<feMerge result="effect1_noise_522_178">
<feMergeNode in="shape" />
<feMergeNode in="color1" />
</feMerge>
</filter>
<filter id="filter1_n_522_178" x="12.3032" y="34.7089" width="39.9385" height="25.4077" filterUnits="userSpaceOnUse" color-interpolation-filters="sRGB">
<feFlood flood-opacity="0" result="BackgroundImageFix"/>
<feBlend mode="normal" in="SourceGraphic" in2="BackgroundImageFix" result="shape"/>
<feTurbulence type="fractalNoise" baseFrequency="2 2" stitchTiles="stitch" numOctaves="3" result="noise" seed="4379" />
<feColorMatrix in="noise" type="luminanceToAlpha" result="alphaNoise" />
<feComponentTransfer in="alphaNoise" result="coloredNoise1">
<feFuncA type="discrete" tableValues="1 1 1 1 1 1 1 1 1 1 1 1 1 1 1 1 1 1 1 1 1 1 1 1 1 1 1 1 1 1 1 1 1 1 1 1 1 1 1 1 1 1 1 1 1 1 1 1 1 1 1 0 0 0 0 0 0 0 0 0 0 0 0 0 0 0 0 0 0 0 0 0 0 0 0 0 0 0 0 0 0 0 0 0 0 0 0 0 0 0 0 0 0 0 0 0 0 0 0 0 "/>
</feComponentTransfer>
<feComposite operator="in" in2="shape" in="coloredNoise1" result="noise1Clipped" />
<feFlood flood-color="rgba(0, 0, 0, 0.25)" result="color1Flood" />
<feComposite operator="in" in2="noise1Clipped" in="color1Flood" result="color1" />
<feMerge result="effect1_noise_522_178">
<feMergeNode in="shape" />
<feMergeNode in="color1" />
</feMerge>
</filter>
</defs>
</svg>
