<svg width="126" height="101" viewBox="0 0 126 101" fill="none" xmlns="http://www.w3.org/2000/svg">
<g filter="url(#filter0_d_462_703)">
<path d="M37.836 23.127C52.2294 14.9546 63.4791 11.6276 79.0463 10.7099C85.0865 10.3538 86.1399 8.57249 92.7449 13.3735C100.169 18.77 78.1793 30.9285 63.8602 35.3069C49.2839 39.764 17.4811 45.1061 24.4323 32.4477C28.2506 25.4944 31.0086 27.0035 37.836 23.127Z" fill="#D77B7B" stroke="#630E0E"/>
<g filter="url(#filter1_i_462_703)">
<path d="M44.702 25.2275C55.0602 20.5594 62.9071 18.2203 73.4654 16.5607C77.5621 15.9168 80.9858 14.1916 85.0432 15.7084C89.6039 17.4132 70.9799 29.0126 60.9804 32.0513C50.8014 35.1446 29.2054 36.2883 34.9168 30.3064C38.0541 27.0205 39.7886 27.4417 44.702 25.2275Z" fill="#630E0E"/>
</g>
<path d="M44.702 25.2275C55.0602 20.5594 62.9071 18.2203 73.4654 16.5607C77.5621 15.9168 80.9858 14.1916 85.0432 15.7084C89.6039 17.4132 70.9799 29.0126 60.9804 32.0513C50.8014 35.1446 29.2054 36.2883 34.9168 30.3064C38.0541 27.0205 39.7886 27.4417 44.702 25.2275Z" stroke="#630E0E"/>
<path d="M96.6658 43.5069C98.5953 33.6766 94.0996 17.8701 94.0996 17.8701C94.0996 17.8701 76.4381 31.5329 62.8509 35.6269C49.2636 39.7209 24.5149 38.8367 24.5149 38.8367C24.5149 38.8367 28.4037 47.1843 32.0364 52.7937C35.6691 58.4031 43.1191 67.5641 43.1191 67.5641C43.1191 67.5641 47.7131 71.5155 51.6215 72.5479C55.5299 73.5804 63.1352 72.8516 63.1352 72.8516C63.1352 72.8516 77.7999 71.3464 84.0781 66.5413C92.4804 60.1106 94.6778 53.6355 96.6658 43.5069Z" fill="#D77B7B" stroke="#630E0E"/>
<path d="M24.7483 38.3893C25.3319 40.3262 28.1851 46.5343 29.5387 49.3963C29.5387 49.3963 21.8573 43.3034 17.7626 45.7761C12.7749 48.7881 16.8675 58.5928 18.1366 59.2457C33.3984 67.0976 31.4961 60.3766 37.344 60.6268L42.5476 68.1137C42.5476 68.1137 39.0629 70.7002 32.6968 71.0819C27.5339 71.3914 19.7679 69.9262 16.0633 67.0389C10.3044 62.5505 6.05416 57.7827 7.03244 50.5184C7.75282 45.1691 9.91716 41.5114 14.6649 39.1638C18.2036 37.414 24.7483 38.3893 24.7483 38.3893Z" fill="#D77B7B"/>
<path d="M95.189 49.6113C95.189 49.6113 122.822 45.0393 120.038 53.8198C114.749 70.505 98.7442 74.4768 81.1782 81.3747C60.4898 89.4988 37.5242 93.019 24.2891 84.5564C19.1059 81.2423 32.6968 71.0819 32.6968 71.0819C39.0629 70.7002 42.5476 68.1137 42.5476 68.1137C42.5476 68.1137 55.8872 76.922 69.7364 72.7491C95.3771 65.0233 95.189 49.6113 95.189 49.6113Z" fill="#D77B7B"/>
<path d="M42.5476 68.1137L37.344 60.6268C31.4961 60.3766 33.3984 67.0976 18.1366 59.2457C16.8675 58.5928 12.7749 48.7881 17.7626 45.7761C21.8573 43.3034 29.5387 49.3963 29.5387 49.3963C28.1851 46.5343 25.3319 40.3262 24.7483 38.3893C24.7483 38.3893 18.2036 37.414 14.6649 39.1638C9.91716 41.5114 7.75282 45.1691 7.03244 50.5184C6.05416 57.7827 10.3044 62.5505 16.0633 67.0389C19.7679 69.9262 27.5339 71.3914 32.6968 71.0819M42.5476 68.1137C42.5476 68.1137 39.0629 70.7002 32.6968 71.0819M42.5476 68.1137C42.5476 68.1137 55.8872 76.922 69.7364 72.7491C95.3771 65.0233 95.189 49.6113 95.189 49.6113C95.189 49.6113 122.822 45.0393 120.038 53.8198C114.749 70.505 98.7442 74.4768 81.1782 81.3747C60.4898 89.4988 37.5242 93.019 24.2891 84.5564C19.1059 81.2423 32.6968 71.0819 32.6968 71.0819M42.5476 68.1137L32.6968 71.0819" stroke="#630E0E"/>
</g>
<defs>
<filter id="filter0_d_462_703" x="2.3916" y="9.59302" width="122.343" height="88.3392" filterUnits="userSpaceOnUse" color-interpolation-filters="sRGB">
<feFlood flood-opacity="0" result="BackgroundImageFix"/>
<feColorMatrix in="SourceAlpha" type="matrix" values="0 0 0 0 0 0 0 0 0 0 0 0 0 0 0 0 0 0 127 0" result="hardAlpha"/>
<feOffset dy="4"/>
<feGaussianBlur stdDeviation="2"/>
<feComposite in2="hardAlpha" operator="out"/>
<feColorMatrix type="matrix" values="0 0 0 0 0 0 0 0 0 0 0 0 0 0 0 0 0 0 0.25 0"/>
<feBlend mode="normal" in2="BackgroundImageFix" result="effect1_dropShadow_462_703"/>
<feBlend mode="normal" in="SourceGraphic" in2="effect1_dropShadow_462_703" result="shape"/>
</filter>
<filter id="filter1_i_462_703" x="33.4707" y="14.6013" width="52.7793" height="24.4845" filterUnits="userSpaceOnUse" color-interpolation-filters="sRGB">
<feFlood flood-opacity="0" result="BackgroundImageFix"/>
<feBlend mode="normal" in="SourceGraphic" in2="BackgroundImageFix" result="shape"/>
<feColorMatrix in="SourceAlpha" type="matrix" values="0 0 0 0 0 0 0 0 0 0 0 0 0 0 0 0 0 0 127 0" result="hardAlpha"/>
<feOffset dy="4"/>
<feGaussianBlur stdDeviation="2"/>
<feComposite in2="hardAlpha" operator="arithmetic" k2="-1" k3="1"/>
<feColorMatrix type="matrix" values="0 0 0 0 0 0 0 0 0 0 0 0 0 0 0 0 0 0 0.25 0"/>
<feBlend mode="normal" in2="shape" result="effect1_innerShadow_462_703"/>
</filter>
</defs>
</svg>
