<svg width="121" height="146" viewBox="0 0 121 146" fill="none" xmlns="http://www.w3.org/2000/svg">
<g filter="url(#filter0_d_373_568)">
<ellipse cx="45.1236" cy="44.6587" rx="45.1236" ry="44.6587" transform="matrix(0.941146 0.338001 -0.294073 0.955783 26.4604 29.4241)" fill="#F4BD5D"/>
<ellipse cx="39.2379" cy="36.8096" rx="39.2379" ry="36.8096" transform="matrix(0.941146 0.338001 -0.294073 0.955783 29.5078 38.562)" fill="#FEF0D9"/>
<path fill-rule="evenodd" clip-rule="evenodd" d="M69.5807 47.6929L72.0548 42.3694C72.0548 42.3694 67.2434 29.8038 72.9783 24.6408C79.6586 18.6267 90.409 19.401 97.4422 26.6351C103.699 33.0705 104.978 42.7439 99.677 48.6815C95.0967 53.8112 82.9581 49.4667 82.9581 49.4667L80.484 54.7902L69.5807 47.6929ZM87.1971 26.4554C74.2758 21.849 74.9654 36.1065 74.9654 36.1065C74.9654 36.1065 78.7495 27.965 86.1725 33.291C93.486 38.5384 88.128 46.6766 88.128 46.6766C88.128 46.6766 91.2782 47.5108 95.4178 43.0291C99.5573 38.5475 96.0577 29.6141 87.1971 26.4554Z" fill="#F4BA62" stroke="#E2B061"/>
<path d="M41.845 118.278C42.163 113.671 46.3408 106.436 46.398 108.935C46.4357 110.581 46.2936 111.835 45.5614 113.684C44.6617 115.957 41.6996 120.385 41.845 118.278Z" fill="#F88B53" stroke="#DB7E52"/>
<path d="M65.3654 63.8785C66.4194 58.8981 71.5681 54.1874 71.2144 57.0833C70.9814 58.9915 70.6419 60.2996 69.6446 61.7876C68.4192 63.6161 64.8832 66.1569 65.3654 63.8785Z" fill="#F88B53" stroke="#DB7E52"/>
<path d="M77.3209 75.2327C79.5013 72.1706 84.8499 70.1959 83.7873 72.034C83.0871 73.2451 82.4648 74.0355 81.2733 74.7989C79.8091 75.7369 76.3235 76.6335 77.3209 75.2327Z" fill="#F88B53" stroke="#DB7E52"/>
<path d="M79.7821 85.7474C83.2963 84.3391 89.0596 85.4649 87.1686 86.4372C85.9225 87.0779 84.9626 87.4106 83.5118 87.4275C81.729 87.4481 78.1745 86.3916 79.7821 85.7474Z" fill="#F88B53" stroke="#DB7E52"/>
<path d="M79.0878 99.7653C82.7985 98.8925 88.3866 100.831 86.3587 101.512C85.0225 101.96 84.0165 102.147 82.5663 101.954C80.7842 101.716 77.3903 100.165 79.0878 99.7653Z" fill="#F88B53" stroke="#DB7E52"/>
<path d="M71.7191 111.395C75.3758 112.864 78.9957 117.62 76.8796 116.976C75.4853 116.552 74.5224 116.115 73.4034 115.123C72.0283 113.904 70.0464 110.723 71.7191 111.395Z" fill="#F88B53" stroke="#DB7E52"/>
<path d="M61.1316 114.057C62.6532 117.694 61.7083 123.37 60.6747 121.394C59.9936 120.093 59.6299 119.103 59.5671 117.649C59.49 115.863 60.4355 112.393 61.1316 114.057Z" fill="#F88B53" stroke="#DB7E52"/>
<path d="M53.5419 59.7983C53.4922 55.9353 50.3023 50.8941 50.1349 53.0537C50.0246 54.4767 50.0851 55.5123 50.6165 56.8944C51.2695 58.5929 53.5646 61.5655 53.5419 59.7983Z" fill="#F88B53" stroke="#DB7E52"/>
<path d="M38.746 64.6893C36.7115 61.2883 31.4713 58.4624 32.4473 60.4643C33.0903 61.7834 33.6748 62.6708 34.8276 63.6227C36.2442 64.7924 39.6767 66.2451 38.746 64.6893Z" fill="#F88B53" stroke="#DB7E52"/>
<path d="M31.5393 75.7942C29.0507 72.695 23.5002 70.6337 24.7476 72.4901C25.5696 73.7134 26.2715 74.5143 27.5404 75.2972C29.0996 76.2593 32.6777 77.212 31.5393 75.7942Z" fill="#F88B53" stroke="#DB7E52"/>
<path d="M28.2931 90.054C24.5502 88.8655 19.0153 90.3334 21.0671 91.1863C22.4191 91.7484 23.4324 92.0214 24.8784 91.9505C26.6554 91.8633 30.0053 90.5977 28.2931 90.054Z" fill="#F88B53" stroke="#DB7E52"/>
<path d="M33.0976 100.542C29.8634 102.471 27.4753 107.628 29.3979 106.714C30.6647 106.112 31.5041 105.555 32.36 104.431C33.4119 103.05 34.5772 99.6592 33.0976 100.542Z" fill="#F88B53" stroke="#DB7E52"/>
<ellipse cx="3.92379" cy="4.05988" rx="3.92379" ry="4.05988" transform="matrix(0.941146 0.338001 -0.294073 0.955783 53.1919 81.5412)" fill="#442724"/>
<path d="M63.9006 69.5868L57.1893 85.1233" stroke="#442724" stroke-width="3" stroke-linecap="round"/>
<path d="M66.6607 92.9854L54.513 86.7697" stroke="#442724" stroke-width="3" stroke-linecap="round"/>
</g>
<defs>
<filter id="filter0_d_373_568" x="7.33154" y="20.1103" width="100.158" height="120.589" filterUnits="userSpaceOnUse" color-interpolation-filters="sRGB">
<feFlood flood-opacity="0" result="BackgroundImageFix"/>
<feColorMatrix in="SourceAlpha" type="matrix" values="0 0 0 0 0 0 0 0 0 0 0 0 0 0 0 0 0 0 127 0" result="hardAlpha"/>
<feOffset dy="4"/>
<feGaussianBlur stdDeviation="2"/>
<feComposite in2="hardAlpha" operator="out"/>
<feColorMatrix type="matrix" values="0 0 0 0 0 0 0 0 0 0 0 0 0 0 0 0 0 0 0.25 0"/>
<feBlend mode="normal" in2="BackgroundImageFix" result="effect1_dropShadow_373_568"/>
<feBlend mode="normal" in="SourceGraphic" in2="effect1_dropShadow_373_568" result="shape"/>
</filter>
</defs>
</svg>
