<svg width="269" height="97" viewBox="0 0 269 97" fill="none" xmlns="http://www.w3.org/2000/svg">
<path fill-rule="evenodd" clip-rule="evenodd" d="M50.6848 58.8632C49.4524 59.452 46.4274 61.3176 46.4274 61.3176C46.4274 61.3176 47.5123 63.0843 48.5561 63.9607C49.6399 64.8706 50.3526 65.3058 51.6309 66.0374C54.1487 67.4784 55.7784 67.8835 58.7267 68.8693C61.6246 69.8383 66.5982 71.0352 66.5982 71.0352L72.6817 72.4564C72.6817 72.4564 73.3881 70.2237 74.1008 68.8693C74.9173 67.3177 75.2828 66.2908 76.7026 65.0934C78.5207 63.56 80.251 62.4452 82.8522 62.8279C84.7425 63.106 85.6905 64.1495 86.8732 65.0934C88.6379 66.502 89.2384 67.5477 91.8402 68.3029C93.8368 68.8824 95.8611 69.4357 97.5168 68.8693C98.2372 68.6229 98.8894 67.7124 99.6455 67.5477C102.247 66.9814 104.52 69.9948 108.397 70.7283C114.591 71.9002 117.906 73.3042 124.244 73.7779C132.371 74.3853 136.905 72.5672 145.058 72.2676C153.455 71.9591 158.334 73.5585 166.582 72.2676C171.828 71.4466 174.583 70.3616 179.591 68.8693C182.952 67.8677 184.604 66.7385 188.106 66.1166C189.565 65.8575 190.407 65.5143 191.89 65.6598C193.613 65.8287 194.492 66.415 195.911 67.1702C197.372 67.9472 199.976 67.7236 201.588 67.1702C201.588 67.1702 203.341 66.3993 204.19 65.6598C205.25 64.7355 205.998 63.3803 207.264 62.6391C210.812 60.5624 219.202 66.0374 219.202 66.0374C220.344 65.3172 221.557 64.4956 222.402 63.7719C224.131 62.2907 225.95 59.996 225.95 59.996C225.95 59.996 221.462 57.5209 218.381 56.2201C215.347 54.9391 213.516 54.4271 210.339 53.3882L195.911 49.9899C195.911 49.9899 188.28 48.4924 184.322 47.9132C170.13 45.8365 160.168 44.2803 143.403 43.9485C126.638 43.6167 98.4629 46.2141 98.4629 46.2141C92.1064 46.7722 88.5843 47.4343 82.3792 48.6684C76.2838 49.8806 72.8519 50.611 67.0051 52.4442C63.426 53.5664 61.6686 54.0542 58.2536 55.4649C54.7224 56.9237 54.0965 57.2332 50.6848 58.8632ZM83.0888 59.6184C83.1625 58.5722 84.4414 58.0529 85.6905 57.7305C86.7452 57.4583 87.8193 57.5417 88.5288 57.7305C89.7207 58.0476 90.421 58.8632 90.421 59.8072C90.421 60.7072 89.5889 61.0109 88.5288 61.3176C87.1394 61.7195 85.2175 61.5063 84.2714 61.1288C83.4208 60.7893 83.0353 60.3763 83.0888 59.6184Z" fill="#43270F"/>
<path d="M46.1908 51.3115C45.3415 53.0647 44.9846 54.1517 45.0082 56.0313C45.0222 57.147 45.1763 57.7744 45.4813 58.8632C45.7554 59.8419 46.4274 61.3176 46.4274 61.3176C46.4274 61.3176 49.4524 59.452 50.6848 58.8632C54.0965 57.2332 54.7224 56.9237 58.2536 55.4649C61.6686 54.0542 63.426 53.5664 67.0051 52.4442C72.8519 50.611 76.2838 49.8806 82.3792 48.6684C88.5843 47.4343 92.1064 46.7722 98.4629 46.2141C98.4629 46.2141 126.638 43.6167 143.403 43.9485C160.168 44.2803 170.13 45.8365 184.322 47.9132C188.28 48.4924 195.911 49.9899 195.911 49.9899L210.339 53.3882C213.516 54.4271 215.347 54.9391 218.381 56.2201C221.462 57.5209 225.95 59.996 225.95 59.996C225.95 59.996 227.921 57.4759 228.315 55.6537C228.598 54.346 228.479 53.5761 228.315 52.2555C228.205 51.3629 228.135 50.8559 227.842 49.9899C227.25 48.2391 226.555 47.1188 225.24 45.8365C223.499 44.1373 220.521 42.8195 217.672 41.8718C206.318 38.0959 193.31 36.0192 193.31 36.0192C193.31 36.0192 183.944 34.9551 177.935 34.32C170.553 33.5398 166.447 32.7906 159.013 32.4321C152.006 32.0942 148.056 32.3264 141.037 32.4321L140.787 32.4359C128.551 32.6202 121.586 32.7251 109.343 33.7537C100.34 34.5101 87.3462 36.3968 87.3462 36.3968C87.3462 36.3968 80.6018 37.0416 76.4661 37.7183C72.0982 38.433 70.3237 38.757 66.059 39.7951C63.1527 40.5024 60.9751 40.9823 58.2536 42.0606C55.0407 43.3336 53.2229 44.1054 50.6848 46.2141C48.6082 47.9393 47.2718 49.08 46.1908 51.3115Z" fill="#5E3716"/>
<path fill-rule="evenodd" clip-rule="evenodd" d="M232.809 55.0874C232.573 54.3322 235.411 49.8011 236.357 47.158C236.594 46.4972 236.763 43.4953 235.648 41.3054C235.359 40.739 233.282 38.0959 230.917 36.7744C228.879 35.6359 228.137 35.035 226.187 34.1313C220.577 31.5313 216.947 30.7113 210.339 29.2226C203.732 27.734 198.208 26.9343 190.944 26.0131C182.049 24.885 168.001 24.1252 168.001 24.1252C168.001 24.1252 153.013 23.3785 143.403 23.37C130.555 23.3586 127.92 23.5014 110.526 24.5028C97.5214 25.2514 83.3446 27.0295 74.3373 28.4674C63.6937 30.1666 49.5022 35.6416 44.7717 39.4175C39.3316 43.7597 37.6759 47.9132 37.6759 47.9132C37.6759 47.9132 35.0653 47.3465 33.1819 47.7244C31.7798 48.0058 29.6341 48.6684 29.6341 48.6684C29.6341 48.6684 27.372 47.3762 25.1401 47.3468C22.8238 47.3163 20.3057 47.673 18.7539 49.046C18.0323 49.6843 17.3348 50.9339 17.3348 50.9339C17.3348 50.9339 20.1143 52.4119 21.5922 52.633C23.0701 52.8542 24.717 52.0022 25.1401 52.2555C26.0862 52.8218 24.5618 54.7784 25.1401 56.0313C25.682 57.2054 26.0862 57.1641 27.2688 57.5417C28.1307 57.8169 29.0668 57.7235 29.8706 57.3529C30.7357 56.954 31.1225 56.4318 31.2897 56.0313C31.5263 55.4649 31.2167 54.6542 31.7628 53.9546C32.5713 52.9188 34.6011 52.0667 35.3107 52.633C36.1469 53.3005 34.7229 54.9941 34.6011 56.4089C34.5061 57.5122 34.4164 58.2086 34.6011 59.2408C34.7858 60.273 34.9289 60.8222 35.5472 61.6951C36.3187 62.7843 36.8746 62.8777 38.3855 63.9607C39.4943 64.7554 40.8111 65.3785 41.2238 66.0374C41.6969 66.7926 39.5501 67.616 39.5681 68.8693C39.5805 69.7322 39.6407 70.189 40.2777 70.946C40.8649 71.6439 41.1901 71.9593 42.1699 72.2676C43.6333 72.728 44.7717 72.6452 46.1908 72.2676C47.9999 71.7863 49.2657 70.1909 50.4483 70.1909C51.6309 70.1909 52.0693 70.4273 52.8135 71.1348C53.5649 71.849 53.4519 72.4383 53.9962 73.4004C55.1302 75.405 56.6584 76.5146 59.1997 77.365C61.0208 77.9744 61.9739 78.0327 64.1667 78.1202C68.8973 78.309 70.7895 76.4211 71.499 76.7986C72.3479 77.2504 71.5174 78.1464 71.9721 78.8754C72.4993 79.7206 73.0131 80.0146 74.1008 80.3857C75.4624 80.8503 76.4354 80.8151 77.8852 80.5745C79.5454 80.299 80.7235 79.4418 81.9061 78.8754C82.2987 78.6874 82.865 78.7911 83.3133 78.8732L83.3253 78.8754C84.0998 79.0172 84.981 79.8193 84.981 79.8193L90.421 84.5392C90.421 84.5392 92.7638 85.6531 94.442 85.8607C95.5373 85.9962 96.1794 85.9636 97.2803 85.8607C99.7505 85.6299 101.209 85.1691 103.193 83.9728C104.236 83.3445 104.274 81.8944 105.559 82.0849C106.524 82.228 106.283 83.3474 107.214 83.5952C108.633 83.9728 109.83 84.0044 111.472 83.784C112.624 83.6294 113.261 83.4185 114.31 83.0288C115.212 82.6939 115.47 81.7027 116.439 81.8961C117.385 82.0849 118.028 83.1155 119.277 83.784C121.388 84.9138 122.901 85.4479 125.427 85.6719C131.813 86.2383 135.124 86.0495 142.457 85.1056C144.946 84.7851 147.424 82.6088 148.133 82.6512C148.843 82.6937 150.695 84.2366 152.627 84.728C154.571 85.2224 155.824 85.4006 157.831 85.1056C159.298 84.8898 160.081 84.5616 161.379 83.9728C162.696 83.3751 162.948 81.9495 164.453 82.0849C165.446 82.1741 165.689 82.7717 166.582 83.2176C168.415 84.1332 171.786 84.9168 171.786 84.9168C171.786 84.9168 174.984 85.8801 177.462 86.0495C179.77 86.2073 181.247 86.2383 183.612 85.8607C185.435 85.5697 186.564 85.0127 188.106 84.1839C189.087 83.6564 190.015 82.5515 190.708 82.6735C191.654 82.84 190.903 84.2718 191.654 85.1056C192.42 85.9563 192.782 86.5249 194.256 86.8047C195.718 87.0824 196.857 87.1823 198.04 86.4271C198.656 86.0336 199.178 85.672 199.116 84.9327C199.077 84.4675 199.223 83.9099 199.459 83.784C199.932 83.5323 200.469 83.9777 201.588 84.1616C204.046 84.5654 205.473 84.728 207.974 84.728C209.157 84.728 211.281 84.7899 212.232 83.784C212.655 83.3357 212.908 83.0563 212.941 82.4625C212.967 81.9966 212.576 81.5177 212.232 81.1409C211.839 80.7112 210.852 80.4752 210.103 80.1969C209.014 79.7925 207.974 80.33 207.974 79.6305C207.974 79.253 209.388 78.8046 209.866 78.1202C210.293 77.5094 210.339 77.1205 210.339 76.4211C210.339 76.0435 210.193 75.7151 210.339 75.2883C210.448 74.9702 210.535 74.7912 210.812 74.5331L210.843 74.5043C211.106 74.2589 211.327 74.0528 211.758 73.9667C212.705 73.7779 213.978 74.9348 216.016 75.4771C216.725 75.6659 218.69 75.7152 219.8 75.2883C220.983 74.8336 221.912 74.5614 222.402 73.5891C222.781 72.8367 222.402 71.5124 222.402 71.5124C222.402 71.5124 225.879 71.631 227.842 70.946C229.298 70.438 231.154 69.0581 231.154 69.0581C231.154 69.0581 231.274 70.5424 231.863 71.3236C232.54 72.2213 233.329 72.4977 234.465 73.0228C235.578 73.5373 236.2 73.8561 237.54 73.9667C238.879 74.0773 240.125 74.106 241.324 73.4004C242.422 72.7542 242.796 72.4886 242.743 71.3236C242.71 70.598 242.808 70.2102 242.27 69.6245C241.884 69.2039 241.818 69.0302 241.088 68.6805C240.587 68.4406 240.273 68.2214 239.668 68.1141C239.127 68.0182 238.47 68.1015 238.013 67.7365C237.556 67.3716 237.572 67.0934 237.776 66.6038C238.013 66.0374 239.169 66.2276 240.378 66.0374C241.481 65.864 242.669 65.8469 243.689 65.471C244.411 65.2052 245.114 65.1537 245.345 64.527C245.576 63.9004 244.843 63.2526 245.345 62.4503C245.582 62.0727 246.455 62.3047 247.474 62.2615C248.704 62.2094 249.396 62.2311 250.549 61.8839C251.167 61.6976 251.486 61.5387 252.086 61.3176L253.623 60.7512C253.623 60.7512 252.441 59.6184 251.968 59.2408C251.22 58.6438 249.068 57.7553 246.291 58.1081C243.443 58.4699 241.324 60.3736 240.378 60.1848C239.432 59.996 237.566 58.3337 235.884 57.1641C234.302 56.064 232.985 55.6488 232.809 55.0874ZM45.0082 56.0313C44.9846 54.1517 45.3415 53.0647 46.1908 51.3115C47.2718 49.08 48.6082 47.9393 50.6848 46.2141C53.2229 44.1054 55.0407 43.3336 58.2536 42.0606C60.9751 40.9823 63.1527 40.5024 66.059 39.7951C70.3237 38.757 72.0982 38.433 76.4661 37.7183C80.6018 37.0416 87.3462 36.3968 87.3462 36.3968C87.3462 36.3968 100.34 34.5101 109.343 33.7537C121.586 32.7251 128.551 32.6202 140.787 32.4359L141.037 32.4321C148.056 32.3264 152.006 32.0942 159.013 32.4321C166.447 32.7906 170.553 33.5398 177.935 34.32C183.944 34.9551 193.31 36.0192 193.31 36.0192C193.31 36.0192 206.318 38.0959 217.672 41.8718C220.521 42.8195 223.499 44.1373 225.24 45.8365C226.555 47.1188 227.25 48.2391 227.842 49.9899C228.135 50.8559 228.205 51.3629 228.315 52.2555C228.479 53.5761 228.598 54.346 228.315 55.6537C227.921 57.4759 225.95 59.996 225.95 59.996C225.95 59.996 224.131 62.2907 222.402 63.7719C221.557 64.4956 220.344 65.3172 219.202 66.0374C217.534 67.0894 216.016 67.9253 216.016 67.9253C211.637 70.2316 204.663 72.2676 204.663 72.2676C204.663 72.2676 197.803 74.1626 191.89 75.2883C183.529 76.8802 176.663 77.7216 168.001 78.4978C159.086 79.2967 154.04 79.3235 145.058 79.4418C134.981 79.5744 128.377 79.5236 118.331 78.8754C106.272 78.0973 100.351 77.9057 88.5288 75.8547C82.2669 74.7683 72.6817 72.4564 72.6817 72.4564L66.5982 71.0352C66.5982 71.0352 61.6246 69.8383 58.7267 68.8693C55.7784 67.8835 54.1487 67.4784 51.6309 66.0374C50.3526 65.3058 49.6399 64.8706 48.5561 63.9607C47.5123 63.0843 46.4274 61.3176 46.4274 61.3176C46.4274 61.3176 45.7554 59.8419 45.4813 58.8632C45.1763 57.7744 45.0222 57.147 45.0082 56.0313Z" fill="#804B1E"/>
<path d="M191.89 75.2883C197.803 74.1626 204.663 72.2676 204.663 72.2676C204.663 72.2676 211.637 70.2316 216.016 67.9253C216.016 67.9253 217.534 67.0894 219.202 66.0374C219.202 66.0374 210.812 60.5624 207.264 62.6391C205.998 63.3803 205.25 64.7355 204.19 65.6598C203.341 66.3993 201.588 67.1702 201.588 67.1702C199.976 67.7236 197.372 67.9472 195.911 67.1702C194.492 66.415 193.613 65.8287 191.89 65.6598C190.407 65.5143 189.565 65.8575 188.106 66.1166C184.604 66.7385 182.952 67.8677 179.591 68.8693C174.583 70.3616 171.828 71.4466 166.582 72.2676C158.334 73.5585 153.455 71.9591 145.058 72.2676C136.905 72.5672 132.371 74.3853 124.244 73.7779C117.906 73.3042 114.591 71.9002 108.397 70.7283C104.52 69.9948 102.247 66.9814 99.6455 67.5477C98.8894 67.7124 98.2372 68.6229 97.5168 68.8693C95.8611 69.4357 93.8368 68.8824 91.8402 68.3029C89.2384 67.5477 88.6379 66.502 86.8732 65.0934C85.6905 64.1495 84.7425 63.106 82.8522 62.8279C80.251 62.4452 78.5207 63.56 76.7026 65.0934C75.2828 66.2908 74.9173 67.3177 74.1008 68.8693C73.3881 70.2237 72.6817 72.4564 72.6817 72.4564C72.6817 72.4564 82.2669 74.7683 88.5288 75.8547C100.351 77.9057 106.272 78.0973 118.331 78.8754C128.377 79.5236 134.981 79.5744 145.058 79.4418C154.04 79.3235 159.086 79.2967 168.001 78.4978C176.663 77.7216 183.529 76.8802 191.89 75.2883Z" fill="#33200F"/>
<path d="M85.6905 57.7305C84.4414 58.0529 83.1625 58.5722 83.0888 59.6184C83.0353 60.3763 83.4208 60.7893 84.2714 61.1288C85.2175 61.5063 87.1394 61.7195 88.5288 61.3176C89.5889 61.0109 90.421 60.7072 90.421 59.8072C90.421 58.8632 89.7207 58.0476 88.5288 57.7305C87.8193 57.5417 86.7452 57.4583 85.6905 57.7305Z" fill="#2F1A08"/>
<path d="M15.206 60.5624C17.4401 61.1568 20.1731 60.7512 21.1192 61.5063C21.3513 61.6916 20.4565 61.9926 19.9365 62.8279C19.397 63.6947 19.1831 64.2093 19.4635 65.0934C19.7364 65.9541 20.2409 66.2533 21.1192 66.6038C23.0114 67.359 25.2809 67.3723 27.5053 67.3589C29.5458 67.3467 31.9993 66.7926 31.9993 66.7926C31.0532 68.8693 32.2358 74.3443 45.9543 76.9874C41.6969 79.4418 40.4196 84.0861 60.8554 83.784C61.7227 85.3573 67.4781 87.7917 81.1966 85.2944C81.1966 85.2944 82.8072 87.4423 84.981 88.6926C86.9353 89.8167 88.5289 90.0929 93.7324 90.9582C97.6189 91.6044 102.733 92.0272 108.397 91.3358C113.796 90.6766 121.642 87.7487 121.642 87.7487C121.642 87.7487 122.373 89.4573 123.298 90.3918C124.031 91.1326 126.211 92.137 127.319 92.4685C130.63 93.4597 132.049 93.2237 135.834 93.0349C139.375 92.8583 143.403 90.0142 143.403 90.0142C143.403 90.0142 146.234 90.6896 148.133 90.9582C150.032 91.2267 151.587 91.396 153.81 91.3358C157.014 91.249 161.615 89.6366 161.615 89.6366C161.615 89.6366 163.584 91.2541 164.926 91.7133C168.238 92.8461 168.637 92.7428 171.549 93.0349C174.3 93.3108 176.587 93.359 179.355 93.2237C181.871 93.1007 183.154 93.0088 185.504 92.2797C187.202 91.7529 189.762 90.5806 189.762 90.5806C189.762 90.5806 192.356 91.7127 194.256 92.2797C197.721 93.3141 200.011 93.2225 203.717 93.0349C206.627 92.8875 208.367 92.5331 211.049 91.9021C213.586 91.3052 214.597 91.147 216.962 90.0142C219.733 88.6871 221.818 87.5973 220.983 85.1056C220.304 83.0811 216.016 81.1409 216.016 81.1409C216.016 81.1409 221.456 81.3297 224.767 81.1409C226.35 81.0507 228.11 80.8781 230.207 80.1969C231.895 79.6489 234.938 78.1202 234.938 78.1202C234.938 78.1202 238.627 78.6167 240.378 78.4978C242.129 78.3788 245.693 77.7418 247.237 76.0435C248.344 74.8264 247.71 73.0228 247.71 73.0228C247.71 73.0228 250.499 73.241 252.441 73.2116C253.734 73.1919 254.984 72.9342 256.225 72.6452C257.627 72.3188 259.537 71.3236 259.773 70.3796C259.94 69.7131 259.773 69.2469 259.3 68.6805C258.628 67.8754 255.516 66.7926 255.516 66.7926C255.279 65.0934 255.504 63.63 255.043 62.4503C254.581 61.2707 253.623 60.7512 253.623 60.7512L252.086 61.3176C251.486 61.5387 251.167 61.6976 250.549 61.8839C249.396 62.2311 248.704 62.2094 247.474 62.2615C246.455 62.3047 245.582 62.0727 245.345 62.4503C244.843 63.2526 245.576 63.9004 245.345 64.527C245.114 65.1537 244.411 65.2052 243.689 65.471C242.669 65.8469 241.481 65.864 240.378 66.0374C239.169 66.2276 238.013 66.0374 237.776 66.6038C237.572 67.0934 237.556 67.3716 238.013 67.7365C238.47 68.1015 239.127 68.0182 239.668 68.1141C240.273 68.2214 240.587 68.4406 241.088 68.6805C241.818 69.0302 241.884 69.2039 242.27 69.6245C242.808 70.2102 242.71 70.598 242.743 71.3236C242.796 72.4886 242.422 72.7542 241.324 73.4004C240.125 74.106 238.879 74.0773 237.54 73.9667C236.2 73.8561 235.578 73.5373 234.465 73.0228C233.329 72.4977 232.54 72.2213 231.863 71.3236C231.274 70.5424 231.154 69.0581 231.154 69.0581C231.154 69.0581 229.298 70.438 227.842 70.946C225.879 71.631 222.402 71.5124 222.402 71.5124C222.402 71.5124 222.781 72.8367 222.402 73.5891C221.912 74.5614 220.983 74.8336 219.8 75.2883C218.69 75.7152 216.725 75.6659 216.016 75.4771C213.978 74.9348 212.705 73.7779 211.758 73.9667C211.327 74.0528 211.106 74.2589 210.843 74.5043L210.812 74.5331C210.535 74.7912 210.448 74.9702 210.339 75.2883C210.193 75.7151 210.339 76.0435 210.339 76.4211C210.339 77.1205 210.293 77.5094 209.866 78.1202C209.388 78.8046 207.974 79.253 207.974 79.6305C207.974 80.33 209.014 79.7925 210.103 80.1969C210.852 80.4752 211.839 80.7112 212.232 81.1409C212.576 81.5177 212.967 81.9966 212.941 82.4625C212.908 83.0563 212.655 83.3357 212.232 83.784C211.281 84.7899 209.157 84.728 207.974 84.728C205.473 84.728 204.046 84.5654 201.588 84.1616C200.469 83.9777 199.932 83.5323 199.459 83.784C199.223 83.9099 199.077 84.4675 199.116 84.9327C199.178 85.672 198.656 86.0336 198.04 86.4271C196.857 87.1823 195.718 87.0824 194.256 86.8047C192.782 86.5249 192.42 85.9563 191.654 85.1056C190.903 84.2718 191.654 82.84 190.708 82.6735C190.015 82.5515 189.087 83.6564 188.106 84.1839C186.564 85.0127 185.435 85.5697 183.612 85.8607C181.247 86.2383 179.77 86.2073 177.462 86.0495C174.984 85.8801 171.786 84.9168 171.786 84.9168C171.786 84.9168 168.415 84.1332 166.582 83.2176C165.689 82.7717 165.446 82.1741 164.453 82.0849C162.948 81.9495 162.696 83.3751 161.379 83.9728C160.081 84.5616 159.298 84.8898 157.831 85.1056C155.824 85.4006 154.571 85.2224 152.627 84.728C150.695 84.2366 148.843 82.6937 148.133 82.6512C147.424 82.6088 144.946 84.7851 142.457 85.1056C135.124 86.0495 131.813 86.2383 125.427 85.6719C122.901 85.4479 121.388 84.9138 119.277 83.784C118.028 83.1155 117.385 82.0849 116.439 81.8961C115.47 81.7027 115.212 82.6939 114.31 83.0288C113.261 83.4185 112.624 83.6294 111.472 83.784C109.83 84.0044 108.633 83.9728 107.214 83.5952C106.283 83.3474 106.524 82.228 105.559 82.0849C104.274 81.8944 104.236 83.3445 103.193 83.9728C101.209 85.1691 99.7505 85.6299 97.2803 85.8607C96.1794 85.9636 95.5373 85.9962 94.442 85.8607C92.7638 85.6531 90.421 84.5392 90.421 84.5392L84.981 79.8193C84.981 79.8193 84.0998 79.0172 83.3253 78.8754L83.3133 78.8732C82.865 78.7911 82.2987 78.6874 81.9061 78.8754C80.7235 79.4418 79.5454 80.299 77.8852 80.5745C76.4354 80.8151 75.4624 80.8503 74.1008 80.3857C73.0131 80.0146 72.4993 79.7206 71.9721 78.8754C71.5174 78.1464 72.3479 77.2504 71.499 76.7986C70.7895 76.4211 68.8973 78.309 64.1667 78.1202C61.9739 78.0327 61.0208 77.9744 59.1997 77.365C56.6584 76.5146 55.1302 75.405 53.9962 73.4004C53.4519 72.4383 53.5649 71.849 52.8135 71.1348C52.0693 70.4273 51.6309 70.1909 50.4483 70.1909C49.2657 70.1909 47.9999 71.7863 46.1908 72.2676C44.7717 72.6452 43.6333 72.728 42.1699 72.2676C41.1901 71.9593 40.8649 71.6439 40.2777 70.946C39.6407 70.189 39.5805 69.7322 39.5681 68.8693C39.5501 67.616 41.6969 66.7926 41.2238 66.0374C40.8111 65.3785 39.4943 64.7554 38.3855 63.9607C36.8746 62.8777 36.3187 62.7843 35.5472 61.6951C34.9289 60.8222 34.7858 60.273 34.6011 59.2408C34.4164 58.2086 34.5061 57.5122 34.6011 56.4089C34.7229 54.9941 36.1469 53.3005 35.3107 52.633C34.6011 52.0667 32.5713 52.9188 31.7628 53.9546C31.2167 54.6542 31.5263 55.4649 31.2897 56.0313C31.1225 56.4318 30.7357 56.954 29.8706 57.3529C29.0668 57.7235 28.1307 57.8169 27.2688 57.5417C26.0862 57.1641 25.682 57.2054 25.1401 56.0313C24.5618 54.7784 26.0862 52.8218 25.1401 52.2555C24.717 52.0022 23.0701 52.8542 21.5922 52.633C20.1143 52.4119 17.3348 50.9339 17.3348 50.9339C17.3348 50.9339 16.6252 51.6891 16.3887 53.1994C16.2354 54.1778 16.1521 55.4649 16.1521 55.4649C16.1521 55.4649 12.9158 56.7781 12.8408 58.2969C12.776 59.6085 14.4965 60.3736 15.206 60.5624Z" fill="#633916"/>
<path d="M0.0684182 64.7158C0.0684182 65.0845 -0.0855228 65.3122 0.0684183 65.6598C0.222359 66.0074 1.01592 66.3161 1.72409 66.6038C2.43227 66.8914 6.41562 67.04 7.4007 66.7926C8.38578 66.5451 9.30767 66.4887 9.76595 65.8486C10.2242 65.2085 10.058 64.6601 9.76595 63.9607C9.47386 63.2612 7.92322 62.2813 7.4007 62.0727C6.87818 61.8642 6.55206 61.7955 5.98155 61.6951C5.41104 61.5948 3.37978 61.5063 2.67021 61.8839C1.96063 62.2615 1.77675 62.2448 1.25104 62.6391C0.725336 63.0335 0.427301 63.4164 0.304954 63.7719C0.182606 64.1273 0.0684182 64.3472 0.0684182 64.7158Z" fill="#804B1E"/>
<path d="M23.4844 36.3968C22.5295 36.7513 21.7834 37.1305 21.3557 37.7183C20.928 38.3061 20.6133 38.7726 20.8826 39.4175C21.1519 40.0623 21.8114 40.1962 22.5383 40.5502C23.2653 40.9043 28.9071 40.9043 29.6341 40.5502C30.361 40.1962 31.0411 40.0676 31.2897 39.4175C31.5351 38.776 30.9625 38.177 30.3676 37.5546L30.3436 37.5295C29.7403 36.8982 29.0359 36.5201 27.9784 36.208C26.9208 35.8959 24.4394 36.0423 23.4844 36.3968Z" fill="#43270F"/>
<path d="M12.1312 71.1348C11.965 71.5438 11.8254 72.2913 12.1312 72.6452C12.437 72.9991 12.8186 73.0425 13.3138 73.2116C13.809 73.3807 15.789 73.5632 16.6252 73.4004C17.4613 73.2375 18.1732 73.1318 18.6157 72.6452C19.0582 72.1586 19.0443 71.5191 18.9904 71.1348C18.9366 70.7505 18.8704 70.5198 18.6157 70.1909C18.361 69.8619 17.9963 69.5976 17.5713 69.4357C17.1462 69.2738 16.8579 69.2795 16.3887 69.2469C15.9194 69.2143 14.8793 69.24 14.2599 69.4357C13.6406 69.6314 13.2031 69.8727 12.8408 70.1909C12.4785 70.509 12.2974 70.7259 12.1312 71.1348Z" fill="#633916"/>
<path d="M53.9962 86.0495C54.9105 85.9448 55.82 86.0484 56.3614 86.2383C56.9029 86.4283 57.0822 86.6986 57.544 86.9935C58.0059 87.2884 58.2059 87.3347 58.4901 87.7487C58.7744 88.1627 58.9603 88.6972 58.7267 89.0702C58.493 89.4433 57.9637 89.3881 57.544 89.6366C57.1244 89.8851 52.94 89.8683 52.3405 89.6366C51.741 89.4049 51.2219 89.3384 50.9213 88.8814C50.6208 88.4245 50.7759 88.2295 50.9213 87.7487C51.0667 87.2679 51.4327 87.1571 51.8674 86.8047C52.3022 86.4523 53.0818 86.1543 53.9962 86.0495Z" fill="#5E3716"/>
<path d="M154.519 95.3004C154.253 95.8505 154.166 96.216 154.519 96.622C154.873 97.028 155.229 96.9996 155.702 96.9996H159.013C159.723 96.9996 160.91 96.8348 161.142 96.4332C161.374 96.0315 161.288 95.7272 161.142 95.3004C160.996 94.8736 160.359 94.5925 159.959 94.3565C159.559 94.1204 159.495 93.8907 159.013 93.7901C158.532 93.6895 157.375 93.5316 156.412 93.7901C155.449 94.0486 154.786 94.7504 154.519 95.3004Z" fill="#43270F"/>
<path d="M235.174 84.9168C235.011 85.3939 234.855 86.27 235.174 86.6159C235.494 86.9619 235.869 87.0009 236.357 87.1823C236.845 87.3637 237.208 87.4531 237.776 87.5599C238.345 87.6667 240.717 87.654 241.561 87.5599C242.404 87.4658 243.083 87.4021 243.689 87.1823C244.296 86.9625 244.808 86.8841 245.109 86.4271C245.409 85.9702 245.293 85.6002 245.109 85.1056C244.924 84.6109 244.581 84.3867 244.162 83.9728C243.744 83.559 243.171 83.0432 242.743 82.84C242.316 82.6369 242.04 82.5683 241.561 82.4625C241.081 82.3566 239.056 82.3621 238.486 82.4625C237.915 82.5628 237.568 82.6001 237.067 82.84C236.566 83.0799 236.244 83.3816 235.884 83.784C235.524 84.1865 235.338 84.4396 235.174 84.9168Z" fill="#804B1E"/>
<path d="M243.453 47.9132C242.933 48.3122 242.698 48.3019 242.507 48.8572C242.384 49.2126 242.355 49.4531 242.507 49.8011C242.744 50.3448 243.204 50.5563 243.926 50.5563H245.582C246.408 50.5563 246.528 50.3675 247.71 49.9899C248.317 49.7963 248.369 48.9795 248.183 48.4796C248.015 48.0269 247.905 48.0476 247.474 47.7244C247.474 47.7244 246.858 47.2921 246.291 47.158C245.665 47.01 244.635 47.158 244.635 47.158C244.09 47.3403 243.879 47.5861 243.453 47.9132Z" fill="#5E3716"/>
<path d="M264.504 64.9046C264.051 65.2083 264.031 65.471 263.794 65.6598C263.265 66.082 263.283 66.7349 263.557 66.9814L263.597 67.0169C263.864 67.2575 264.186 67.5477 264.504 67.5477H266.869C266.869 67.5477 267.82 67.5555 268.288 67.1702C268.695 66.8354 269.032 66.5029 268.998 66.0374C268.968 65.641 268.761 65.471 268.525 65.2822C268.151 64.9837 267.887 64.5205 267.342 64.3382C266.575 64.082 265.971 64.0659 265.213 64.3382C264.909 64.4473 264.759 64.7337 264.504 64.9046Z" fill="#804B1E"/>
<path d="M255.279 77.365C254.486 77.5638 253.8 78.1599 253.387 78.4978C252.974 78.8356 252.618 79.0227 252.441 79.4418C252.263 79.8608 252.209 80.1729 252.441 80.5745C252.663 80.9579 253.054 81.1093 253.552 81.3019L253.623 81.3297C254.155 81.5362 255.062 81.4783 255.989 81.5185C256.916 81.5587 258.206 81.7104 258.827 81.5185C259.448 81.3266 259.916 81.2249 260.246 80.7633C260.577 80.3017 260.368 79.5681 260.246 79.253C260.125 78.9378 260.008 78.7689 259.773 78.4978C259.538 78.2267 259.268 77.9665 258.827 77.7426C258.386 77.5187 257.982 77.4527 257.408 77.365C256.834 77.2773 256.072 77.1663 255.279 77.365Z" fill="#43270F"/>
<path d="M174.861 12.8507C175.653 13.2171 176.753 13.9834 176.753 13.9834L177.462 14.0542C177.462 14.0542 178.576 13.1856 179.355 12.8507C180.133 12.5157 180.635 12.3172 181.483 12.2843C182.331 12.2513 182.968 12.5709 183.612 12.6619C184.256 12.7529 184.769 12.6991 185.268 12.8507C185.766 13.0022 186.45 13.4171 186.45 13.4171L185.504 12.2843C185.504 12.2843 184.363 11.3524 183.612 10.7739C182.528 9.93881 182.12 9.16946 180.774 8.69721C179.148 8.12706 177.999 8.39399 176.28 8.69721C174.718 8.97269 173.8 9.22886 172.495 10.0188C171.54 10.5967 170.367 11.8258 170.367 11.8258C170.367 11.8258 173.26 12.1112 174.861 12.8507Z" fill="#814C1D"/>
<path d="M159.959 13.0395L176.753 13.9834C176.753 13.9834 175.653 13.2171 174.861 12.8507C173.26 12.1112 170.367 11.8258 170.367 11.8258L169.894 11.7179C169.894 11.7179 168.664 10.9939 167.765 10.7739C166.521 10.4696 165.72 10.5477 164.453 10.7739C162.463 11.1297 159.959 13.0395 159.959 13.0395Z" fill="#5E3716"/>
<path d="M188.579 13.7946C187.765 13.5869 186.45 13.4171 186.45 13.4171C186.45 13.4171 185.766 13.0022 185.268 12.8507C184.769 12.6991 184.256 12.7529 183.612 12.6619C182.968 12.5709 182.331 12.2513 181.483 12.2843C180.635 12.3172 180.133 12.5157 179.355 12.8507C178.576 13.1856 177.462 14.0542 177.462 14.0542C177.462 14.0542 192.147 15.8019 191.89 15.4938C191.633 15.1856 191.502 14.9977 191.181 14.7386C190.859 14.4795 189.393 14.0024 188.579 13.7946Z" fill="#5E3716"/>
<path d="M156.412 6.0541C156.176 6.61801 155.837 8.42603 156.412 8.50841C156.987 8.59079 157.31 8.34169 157.831 8.13083C158.352 7.91996 159.455 7.28476 159.723 6.80927C159.991 6.33378 160.105 5.83744 159.959 5.48772C159.813 5.13799 159.637 4.93411 159.25 4.73254C158.863 4.53097 157.998 4.43764 157.358 4.73254C156.718 5.02744 156.647 5.49018 156.412 6.0541Z" fill="#5E3716"/>
<path d="M163.507 1.52305C163.381 1.90713 163.261 3.17061 163.507 3.59978L163.532 3.6423C163.765 4.04969 163.937 4.34873 164.453 4.54375C164.988 4.74549 166.62 3.05773 166.819 2.8446C167.018 2.63147 167.16 2.52222 167.292 2.27822C167.424 2.03422 167.622 1.22948 167.292 0.767871C166.961 0.306257 166.53 0.0963096 165.873 0.0126954C165.215 -0.0709188 164.299 0.274504 163.98 0.579077C163.661 0.883649 163.633 1.13896 163.507 1.52305Z" fill="#814C1D"/>
<path d="M121.879 1.65862C121.425 1.42781 120.542 1.44901 120.223 1.65862C119.904 1.86823 119.889 2.10328 119.75 2.41379C119.611 2.72431 119.345 3.34524 119.514 3.92414C119.683 4.50305 121.588 5.83748 122.115 5.62329C122.642 5.4091 122.847 5.11938 123.062 4.67932C123.276 4.23927 122.807 2.99559 122.588 2.60259C122.37 2.20959 122.333 1.88943 121.879 1.65862Z" fill="#5E3716"/>
<path d="M128.029 7.51123C127.345 7.69427 126.926 7.93772 126.609 8.4552C126.293 8.97267 126.201 9.51083 126.609 10.0346C127.017 10.5584 127.721 10.543 128.502 10.7207C129.282 10.8984 130.355 11.4578 131.103 10.9095C131.852 10.3613 131.336 9.33094 131.103 8.83278C130.871 8.33462 130.707 8.00001 130.157 7.70002C129.607 7.40004 128.713 7.32819 128.029 7.51123Z" fill="#814C1D"/>
<path d="M111.945 6.94487C110.337 7.05233 107.924 7.88881 107.924 7.88881H102.957C101.774 7.88881 100.094 8.09496 98.6994 9.0216L98.6225 9.07268C97.7339 9.66256 97.3905 9.8905 97.0438 10.7207C96.5707 11.8535 96.5707 13.3639 96.5707 13.3639L119.277 12.2311C119.277 12.2311 119.334 11.5383 119.277 11.0983C119.22 10.6583 119.181 9.62648 118.568 8.83281C118.189 8.34276 117.621 7.88884 117.148 7.70005C116.009 7.24537 113.887 6.81507 111.945 6.94487Z" fill="#5E3716"/>
<path d="M87.5828 11.0983C87.1357 12.0669 87.3462 13.7414 87.3462 13.7414L96.5707 13.3639C96.5707 13.3639 96.5707 11.8535 97.0438 10.7207C97.3905 9.8905 97.7339 9.66256 98.6225 9.07268L98.6994 9.0216C100.094 8.09496 101.774 7.88881 102.957 7.88881H107.924C107.924 7.88881 106.978 6.93661 104.613 6.00088C103.905 5.72114 103.487 5.58324 102.72 5.43452C101.908 5.2769 100.592 5.2457 100.592 5.2457C100.592 5.2457 97.7513 5.24675 96.3342 6.00088C94.915 6.75608 94.442 8.07763 93.2594 8.83278C92.6823 9.20124 92.1061 8.83278 91.3672 8.83278C90.6282 8.83278 89.2384 9.21039 89.0019 9.39919C88.0558 10.1544 87.9917 10.2124 87.5828 11.0983Z" fill="#814C1D"/>
<path d="M233.046 81.1409C232.523 81.362 232.173 81.6827 232.1 81.8961C232.027 82.1095 231.997 82.2708 232.1 82.4625C232.203 82.6541 232.344 82.7388 232.573 82.84C232.801 82.9413 233.293 82.84 233.755 82.84H234.938C234.938 82.84 235.629 82.7979 235.648 82.6512C235.666 82.5046 235.997 81.8954 235.884 81.7073C235.771 81.5191 235.854 81.4577 235.648 81.3297C235.441 81.2017 235.054 81.0881 234.701 80.9521C234.348 80.8161 233.568 80.9198 233.046 81.1409Z" fill="#33200F"/>
</svg>
