<svg width="820" height="605" viewBox="0 0 820 605" fill="none" xmlns="http://www.w3.org/2000/svg">
<g filter="url(#filter0_f_894_66)">
<path d="M719.5 302.5C719.5 414.338 623.689 505 505.5 505C387.311 505 100 398.338 100 286.5C100 174.662 387.311 100 505.5 100C623.689 100 719.5 190.662 719.5 302.5Z" fill="#EFD2F7"/>
</g>
<path d="M137.98 210.049C127.654 220.19 126.573 229.894 132.606 246.093C138.273 261.31 147.3 266.73 161.577 272.583C173.263 277.374 180.812 278.516 190.234 271.859C198.519 266.006 201.606 259.169 202.518 248.086C203.431 237.004 202.904 225.162 194.909 215.102C186.711 204.786 175.951 202.862 164.835 201.875C153.719 200.888 146.048 202.126 137.98 210.049Z" fill="#FFDF58"/>
<path fill-rule="evenodd" clip-rule="evenodd" d="M51.0628 242.342C27.1533 402.71 213.369 442.026 213.369 442.026C213.369 442.026 306.738 444.271 353.131 420.397C399.525 396.524 467.872 319.925 422.568 294.32C400.804 282.02 386.556 254.484 386.556 254.484C386.556 254.484 421.389 158.627 387.33 153.549C359.971 149.47 315.885 187.237 315.885 187.237C315.885 187.237 276.468 174.093 253.82 170.716C231.171 167.339 199.609 169.901 199.609 169.901C199.609 169.901 177.021 120.959 151.643 118.41C126.264 115.862 109.954 212.74 109.954 212.74C109.954 212.74 53.8864 223.404 51.0628 242.342ZM132.606 246.093C126.573 229.894 127.654 220.19 137.98 210.049C146.048 202.126 153.719 200.888 164.835 201.875C175.951 202.862 186.711 204.786 194.909 215.102C202.904 225.162 203.431 237.004 202.518 248.086C201.606 259.169 198.519 266.006 190.234 271.859C180.812 278.516 173.263 277.374 161.577 272.583C147.3 266.73 138.273 261.31 132.606 246.093Z" fill="#901B8E"/>
<path d="M313.866 386.753L317.415 347.314C317.415 347.314 335.656 338.973 345.557 332.462C355.459 325.951 375.842 311.061 375.842 311.061C375.842 311.061 367.282 343.451 355.536 357.369C343.791 371.287 313.866 386.753 313.866 386.753Z" fill="#F9FFF9"/>
<path d="M126.875 354.571L135.133 314.975C135.133 314.975 122.999 302.092 115.977 292.482C108.956 282.873 95.0171 261.698 95.0171 261.698C95.0171 261.698 95.8877 301.01 102.073 318.211C108.258 335.413 126.875 354.571 126.875 354.571Z" fill="#F9FFF9"/>
<path d="M131.945 357.399L141.943 316.256C141.943 316.256 147.357 323.361 151.608 327.003C156.235 330.966 164.685 335.282 164.685 335.282L156.138 379.548L140.255 367.561L131.945 357.399Z" fill="#F9FFF9"/>
<path d="M161.876 382.294L168.63 336.997C168.63 336.997 179.174 343.618 186.385 346.925C193.491 350.183 205.162 353.801 205.162 353.801L198.621 397.674C198.621 397.674 183.933 393.631 176.758 390.628C169.583 387.625 161.876 382.294 161.876 382.294Z" fill="#F9FFF9"/>
<path d="M203.75 398.438L213.234 354.368L235.179 357.639C243.915 358.942 258.266 359.104 258.266 359.104L254.865 399.502C254.865 399.502 237.281 403.437 228.545 402.135L203.75 398.438Z" fill="#F9FFF9"/>
<path d="M259.071 283.933C256.108 267.183 276.719 244.062 276.719 244.062C276.719 244.062 317.304 228.947 332.589 244.873C346.153 259.005 349.869 269.641 340.1 286.997C328.759 307.147 298.19 316.936 277.843 307.26C264.905 301.108 261.634 298.423 259.071 283.933Z" fill="#F2CE36"/>
<path d="M221.113 325.901C206.691 322.554 185.038 299.821 195.7 285.396C204.618 273.33 209.237 286.587 225.831 290.437C236.73 292.966 254.49 288.227 254.3 301.43C254.159 311.293 248.429 316.969 241.658 320.919C234.886 324.868 228.709 327.663 221.113 325.901Z" fill="#E886DD" stroke="#8F5AC8" stroke-width="2"/>
<path d="M310.508 350.656L307.886 387.782C307.886 387.782 292.61 394.205 283.303 396.345C273.997 398.484 260.223 398.739 260.223 398.739C260.223 398.739 264.597 385.036 265.736 377.392C266.876 369.747 266.28 358.113 266.28 358.113L287.267 356.084L310.508 350.656Z" fill="#F9FFF9"/>
<ellipse cx="169.014" cy="254.307" rx="11.2375" ry="21.3098" transform="rotate(8.47988 169.014 254.307)" fill="#583000"/>
<path d="M310.037 291.57C308.302 303.21 301.918 311.905 295.78 310.99C289.642 310.074 286.072 299.896 287.808 288.256C289.543 276.615 295.926 267.921 302.065 268.836C308.203 269.751 311.773 279.929 310.037 291.57Z" fill="#583000"/>
<path d="M238.203 231.837C238.302 212.284 237.346 170.757 237.337 169.257L255.28 170.058L274.101 174.738C274.101 174.738 260.848 189.639 253.951 200.461C246.621 211.965 238.203 231.837 238.203 231.837Z" fill="#8F5AC8"/>
<path d="M262.824 223.017C270.734 205.215 290.266 179.646 291.976 179.901L316.132 187.874C316.132 187.874 304.752 195.058 294.248 201.786C283.082 208.937 262.824 223.017 262.824 223.017Z" fill="#8F5AC8"/>
<path d="M226.508 225.62C228.283 206.123 222.903 170.025 221.298 169.363L199.377 169.842C199.377 169.842 203.743 179.778 209.58 191.023C215.785 202.977 226.508 225.62 226.508 225.62Z" fill="#8F5AC8"/>
<path d="M367.359 290.424C384.366 285.777 398.425 271.857 399.283 273.026C403.4 278.633 413.185 287.886 413.185 287.886C413.185 287.886 400.054 293.425 393.863 294.375C381.056 296.342 357.156 293.211 367.359 290.424Z" fill="#8F5AC8"/>
<path d="M102.548 257.43C91.1794 243.501 83.6418 220.01 82.2929 220.457C75.8226 222.601 64.0213 227.725 64.0213 227.725C64.0213 227.725 74.1025 240.431 78.6497 244.894C88.0566 254.127 109.368 265.787 102.548 257.43Z" fill="#8F5AC8"/>
<path d="M379.69 316.137C406.935 317.078 430.375 302.23 430.967 300.856C430.967 300.856 436.6 310.167 436.824 315.914C437.047 321.662 435.122 335.511 435.122 335.511C435.122 335.511 418.041 332.473 410.916 331.411C398.174 329.511 366.192 315.67 379.69 316.137Z" fill="#8F5AC8"/>
<path d="M379.374 238.52L392.505 236.419C392.505 236.419 390.303 254.338 379.799 261.066C368.633 268.218 350.506 273.872 350.506 273.872L379.374 238.52Z" fill="#8F5AC8"/>
<path d="M111.095 212.423L95.4103 216.017C95.4103 216.017 96.2935 230.877 104.378 240.376C112.972 250.474 128.663 261.17 128.663 261.17L111.095 212.423Z" fill="#8F5AC8"/>
<path d="M78.4196 359.768C78.4196 359.768 87.0337 336.23 97.5494 325.31C102.579 320.087 81.4257 324.138 74.7974 326.401C68.1691 328.664 62.0681 332.663 62.0681 332.663C62.0681 332.663 66.3216 341.907 69.5145 347.2C72.7073 352.492 78.4196 359.768 78.4196 359.768Z" fill="#8F5AC8"/>
<path d="M367.227 411.831C367.227 411.831 365.853 386.804 358.98 373.291C355.693 366.828 374.745 376.873 380.425 380.972C386.104 385.07 392.484 390.929 392.484 390.929C392.484 390.929 385.719 398.53 381.121 402.661C376.523 406.793 367.227 411.831 367.227 411.831Z" fill="#8F5AC8"/>
<path d="M55.8288 317.06C55.8288 317.06 72.198 298.701 85.7574 292.868C92.2425 290.079 71.4263 285.139 64.5453 284.516C57.6642 283.893 49.6229 285.218 49.6229 285.218C49.6229 285.218 50.562 295.194 51.5752 301.434C52.5883 307.674 55.8288 317.06 55.8288 317.06Z" fill="#8F5AC8"/>
<path d="M400.826 383.826C400.826 383.826 390.524 361.491 379.256 351.956C373.867 347.396 395.218 348.743 401.982 350.155C408.745 351.566 423.145 355.271 423.145 355.271C423.145 355.271 422.826 357.409 415.818 367.293C408.81 377.176 400.826 383.826 400.826 383.826Z" fill="#8F5AC8"/>
<path d="M49.2572 279.856C49.2572 279.856 100.099 261 85.7635 258.863C76.7669 257.522 67.8854 257.534 60.8075 255.142C54.2499 252.927 50.4495 248.409 50.4495 248.409C50.4495 248.409 49.1044 255.477 49.003 262.019C48.9016 268.562 49.2572 279.856 49.2572 279.856Z" fill="#8F5AC8"/>
<path d="M362.237 209.677L348.121 210.535C348.121 210.535 356.192 218.888 360.887 224.777C365.581 230.666 372.164 240.695 372.164 240.695C372.164 240.695 384.879 214.423 388.586 199.17C392.293 183.916 391.148 162.577 391.148 162.577C391.148 162.577 370.363 169.742 357.664 176.51C344.966 183.278 326.115 197.238 326.115 197.238C326.115 197.238 335.563 193.458 342.13 192.787C347.597 192.229 359.515 196.01 359.515 196.01C359.515 196.01 349.273 196.076 343.533 196.785C337.794 197.494 334.02 199.008 334.02 199.008C334.02 199.008 340.485 201.373 346.469 203.301C352.453 205.229 362.237 209.677 362.237 209.677Z" fill="#FF9AE7" stroke="#DA7ECE" stroke-width="2"/>
<path d="M152.45 176.568L164.573 184.788C164.573 184.788 153.329 186.95 146.287 189.007C139.244 191.065 128.506 195.324 128.506 195.324C128.506 195.324 130.021 168.133 134.165 154.312C138.31 140.492 149.732 124.546 149.732 124.546C149.732 124.546 164.704 141.229 172.685 153.277C180.666 165.325 190.606 186.246 190.606 186.246C190.606 186.246 184.056 178.256 178.549 174.222C173.964 170.863 161.533 167.418 161.533 167.418C161.533 167.418 170.599 172.95 175.353 176.572C180.106 180.194 182.72 183.389 182.72 183.389C182.72 183.389 175.824 181.765 169.568 180.058C163.311 178.352 152.45 176.568 152.45 176.568Z" fill="#FF9AE7" stroke="#DA7ECE" stroke-width="2"/>
<line y1="-1" x2="43.2138" y2="-1" transform="matrix(0.996579 -0.0826419 0.0536807 0.998558 250.182 326.049)" stroke="black" stroke-width="2"/>
<path d="M248.353 333.756L288.67 349.273" stroke="black" stroke-width="2"/>
<line y1="-1" x2="28.244" y2="-1" transform="matrix(0.986866 0.161541 -0.159719 0.987163 249.635 329.714)" stroke="black" stroke-width="2"/>
<line y1="-1" x2="43.3471" y2="-1" transform="matrix(-0.82666 -0.574028 -0.523241 0.84542 192.553 314.515)" stroke="black" stroke-width="2"/>
<path d="M190.48 322.156L147.962 315.299" stroke="black" stroke-width="2"/>
<line y1="-1" x2="28.3405" y2="-1" transform="matrix(-0.933716 -0.356862 -0.331402 0.943874 191.286 317.985)" stroke="black" stroke-width="2"/>
<defs>
<filter id="filter0_f_894_66" x="0" y="0" width="819.5" height="605" filterUnits="userSpaceOnUse" color-interpolation-filters="sRGB">
<feFlood flood-opacity="0" result="BackgroundImageFix"/>
<feBlend mode="normal" in="SourceGraphic" in2="BackgroundImageFix" result="shape"/>
<feGaussianBlur stdDeviation="50" result="effect1_foregroundBlur_894_66"/>
</filter>
</defs>
</svg>
