<svg width="439" height="338" viewBox="0 0 439 338" fill="none" xmlns="http://www.w3.org/2000/svg">
<path d="M257.5 276.5L245.55 285.5C245.55 285.5 247.804 282.771 248 280.5C248.196 278.229 246.5 274 246.5 274C246.5 274 248.822 276.539 251 277C253.3 277.487 257.5 276.5 257.5 276.5Z" fill="#111110" stroke="#353333"/>
<g filter="url(#filter0_d_219_23)">
<path d="M217.545 172.5C217.545 178 177.545 230.5 177.545 230.5L157.045 217C157.045 217 141.045 207.5 142.045 202C143.045 196.5 159.045 174 159.045 174L179.545 146.5L200.045 158C200.045 158 217.545 167 217.545 172.5Z" fill="#FDF9EF"/>
<path d="M217.545 172.5C217.545 178 177.545 230.5 177.545 230.5L157.045 217C157.045 217 141.045 207.5 142.045 202C143.045 196.5 159.045 174 159.045 174L179.545 146.5L200.045 158C200.045 158 217.545 167 217.545 172.5Z" stroke="#FDFAEF"/>
</g>
<path d="M171.17 201.5L168.045 184.378L188.045 175.5V193.89L171.17 201.5Z" fill="#E25236" stroke="#EA4027"/>
<path d="M177.339 159.166C176.853 158.898 176.501 158.56 176.281 158.151C176.057 157.75 176.056 157.349 176.278 156.947C176.437 156.658 176.619 156.491 176.822 156.445C177.022 156.407 177.175 156.417 177.281 156.476C177.341 156.509 177.384 156.558 177.409 156.621C177.437 156.696 177.458 156.792 177.472 156.909C177.504 157.084 177.598 157.3 177.754 157.554C177.906 157.817 178.168 158.05 178.54 158.256C178.942 158.478 179.316 158.571 179.663 158.535C180.017 158.503 180.283 158.327 180.459 158.009C180.597 157.759 180.634 157.521 180.569 157.298C180.512 157.078 180.418 156.882 180.285 156.71C180.093 156.485 179.855 156.269 179.573 156.064C179.516 156.023 179.472 155.978 179.439 155.93C179.41 155.875 179.402 155.791 179.414 155.679C179.43 155.49 179.479 155.319 179.563 155.167C179.609 155.084 179.67 155.028 179.745 155C179.819 154.972 179.905 154.96 180.002 154.964C180.191 154.98 180.41 154.987 180.659 154.986C180.919 154.981 181.163 154.933 181.392 154.841C181.628 154.754 181.814 154.589 181.948 154.346C182.103 154.065 182.111 153.818 181.972 153.602C181.846 153.384 181.661 153.207 181.418 153.073C181.175 152.939 180.932 152.859 180.689 152.834C180.45 152.801 180.26 152.785 180.121 152.787C179.934 152.803 179.806 152.792 179.738 152.754C179.632 152.695 179.587 152.597 179.605 152.458C179.622 152.319 179.658 152.2 179.712 152.101C179.784 151.972 179.887 151.866 180.022 151.782C180.169 151.695 180.362 151.643 180.599 151.626C180.938 151.585 181.257 151.608 181.556 151.694C181.863 151.784 182.138 151.897 182.38 152.031C182.942 152.341 183.3 152.722 183.456 153.175C183.616 153.62 183.573 154.066 183.326 154.513C183.116 154.893 182.815 155.187 182.422 155.396C182.03 155.604 181.635 155.718 181.239 155.737C181.575 156.061 181.769 156.426 181.822 156.831C181.883 157.241 181.79 157.67 181.542 158.117C181.27 158.611 180.902 158.981 180.438 159.23C179.977 159.49 179.477 159.615 178.938 159.605C178.395 159.602 177.862 159.456 177.339 159.166Z" fill="#EE4E2C"/>
<path d="M180.607 219.548C181.092 219.816 181.445 220.155 181.665 220.563C181.889 220.964 181.89 221.366 181.668 221.768C181.508 222.056 181.327 222.223 181.123 222.269C180.924 222.307 180.771 222.297 180.665 222.238C180.604 222.205 180.562 222.157 180.537 222.094C180.509 222.019 180.488 221.923 180.473 221.806C180.442 221.63 180.348 221.415 180.191 221.16C180.039 220.898 179.777 220.664 179.406 220.459C179.004 220.236 178.629 220.143 178.283 220.18C177.928 220.212 177.663 220.387 177.487 220.705C177.349 220.956 177.312 221.193 177.376 221.417C177.433 221.636 177.528 221.832 177.661 222.004C177.853 222.23 178.09 222.445 178.373 222.65C178.429 222.692 178.474 222.736 178.507 222.784C178.536 222.839 178.544 222.923 178.532 223.035C178.516 223.225 178.466 223.395 178.383 223.547C178.337 223.63 178.276 223.686 178.201 223.714C178.126 223.742 178.04 223.754 177.944 223.75C177.754 223.734 177.535 223.727 177.287 223.729C177.027 223.734 176.783 223.782 176.554 223.873C176.317 223.96 176.132 224.125 175.998 224.368C175.843 224.649 175.835 224.897 175.973 225.112C176.1 225.331 176.285 225.507 176.528 225.641C176.77 225.775 177.013 225.855 177.257 225.88C177.496 225.914 177.685 225.929 177.825 225.927C178.012 225.912 178.139 225.923 178.208 225.96C178.314 226.019 178.358 226.118 178.341 226.257C178.324 226.396 178.288 226.514 178.233 226.613C178.162 226.742 178.059 226.848 177.923 226.932C177.776 227.019 177.584 227.071 177.347 227.089C177.008 227.129 176.688 227.106 176.389 227.02C176.083 226.93 175.808 226.818 175.565 226.684C175.004 226.374 174.645 225.992 174.489 225.54C174.329 225.095 174.373 224.649 174.62 224.201C174.83 223.822 175.131 223.528 175.523 223.319C175.916 223.11 176.311 222.996 176.707 222.978C176.371 222.653 176.177 222.289 176.124 221.883C176.063 221.473 176.156 221.044 176.403 220.597C176.676 220.104 177.044 219.733 177.508 219.484C177.969 219.224 178.469 219.099 179.007 219.11C179.55 219.113 180.083 219.259 180.607 219.548Z" fill="#EE4E2C"/>
<g filter="url(#filter1_d_219_23)">
<path d="M159 48.2035C159 58.1889 86.4604 153.504 86.4604 153.504L49.2839 128.994C49.2839 128.994 20.2681 111.747 22.0816 101.761C23.8951 91.776 52.9109 50.9268 52.9109 50.9268L90.0875 1L127.264 21.8785C127.264 21.8785 159 38.2182 159 48.2035Z" fill="#FDF9EF"/>
<path d="M159 48.2035C159 58.1889 86.4604 153.504 86.4604 153.504L49.2839 128.994C49.2839 128.994 20.2681 111.747 22.0816 101.761C23.8951 91.776 52.9109 50.9268 52.9109 50.9268L90.0875 1L127.264 21.8785C127.264 21.8785 159 38.2182 159 48.2035Z" stroke="#FDFAEF"/>
</g>
<path d="M86.8923 25.9208C85.6731 25.1749 84.6894 24.4731 83.9414 23.8153C83.2005 23.1869 82.8251 22.5946 82.8152 22.0384C82.8093 21.8847 82.8367 21.6764 82.8975 21.4135C82.9583 21.1506 83.0444 20.9281 83.1557 20.7461C83.5008 20.182 83.9747 19.9593 84.5774 20.0779C85.6413 20.1786 86.6889 20.2443 87.7204 20.2752C88.7519 20.3061 89.7587 20.2343 90.7408 20.0598C92.4409 19.7745 93.5137 19.2679 93.959 18.54C94.1817 18.176 94.2142 17.7958 94.0567 17.3993C93.8991 17.0028 93.5474 16.6375 93.0014 16.3035C92.5829 16.0474 92.0945 15.8237 91.5364 15.6323C90.9965 15.452 90.4833 15.3506 89.9969 15.3281C89.7006 15.3219 89.4336 15.3086 89.1959 15.2882C88.9876 15.2608 88.8107 15.2026 88.6651 15.1135C88.4285 14.9688 88.3189 14.7392 88.3363 14.4246C88.3536 14.1101 88.4458 13.8164 88.6128 13.5434C88.8021 13.2341 89.0677 12.9839 89.4096 12.793C89.7808 12.5949 90.283 12.4895 90.9161 12.4767C91.5785 12.4568 92.2838 12.5507 93.0321 12.7584C93.8097 12.959 94.5624 13.282 95.2903 13.7274C96.4368 14.4288 97.1923 15.2787 97.5568 16.277C97.9507 17.2683 97.8526 18.2462 97.2626 19.2106C96.884 19.8294 96.3801 20.3464 95.7509 20.7617C95.1328 21.1588 94.4697 21.4659 93.7617 21.683C92.6976 22.0323 91.5745 22.233 90.3923 22.285C89.21 22.337 88.1163 22.3056 87.1112 22.1908C87.4094 22.3983 87.7804 22.6503 88.2242 22.9468C88.6791 23.2251 89.0431 23.4478 89.3161 23.6148C90.3897 24.2717 91.2097 24.6483 91.776 24.7447C92.3534 24.8228 92.8383 24.8069 93.2307 24.6969C93.5939 24.5939 93.8482 24.587 93.9938 24.676C94.194 24.7985 94.3051 25.0666 94.3271 25.4802C94.3785 25.8868 94.2538 26.3357 93.9532 26.827C93.3743 27.7733 92.5094 28.1445 91.3587 27.9407C90.2373 27.7297 88.7485 27.0565 86.8923 25.9208Z" fill="#E25236"/>
<path d="M89.8334 131.727C88.6216 130.969 87.5545 130.402 86.632 130.027C85.7389 129.644 85.0413 129.573 84.5392 129.812C84.3989 129.875 84.2248 129.993 84.0167 130.165C83.8086 130.337 83.648 130.513 83.5348 130.694C83.1842 131.254 83.1964 131.778 83.5716 132.264C84.1367 133.171 84.6633 134.079 85.1514 134.989C85.6396 135.898 86.0248 136.831 86.3072 137.787C86.8109 139.436 86.8365 140.622 86.384 141.346C86.1577 141.707 85.832 141.906 85.4069 141.942C84.9818 141.978 84.4979 141.827 83.9553 141.487C83.5393 141.227 83.121 140.89 82.7006 140.476C82.2982 140.073 81.9784 139.659 81.7411 139.234C81.6032 138.972 81.4721 138.739 81.3478 138.535C81.2303 138.361 81.0992 138.229 80.9545 138.138C80.7193 137.991 80.4649 137.996 80.1913 138.152C79.9176 138.308 79.6959 138.521 79.5262 138.793C79.3339 139.1 79.2286 139.449 79.2104 139.841C79.199 140.261 79.3288 140.758 79.6 141.33C79.878 141.931 80.2769 142.521 80.7968 143.097C81.3235 143.704 81.9486 144.233 82.6721 144.685C83.8115 145.398 84.9093 145.695 85.9654 145.575C87.0282 145.485 87.8594 144.961 88.459 144.002C88.8436 143.387 89.0813 142.706 89.172 141.957C89.2514 141.227 89.2302 140.496 89.1083 139.766C88.9458 138.658 88.624 137.563 88.1427 136.482C87.6613 135.401 87.145 134.436 86.5935 133.588C86.9123 133.762 87.3034 133.982 87.7669 134.247C88.2191 134.529 88.5808 134.756 88.8521 134.925C89.9192 135.593 90.6223 136.158 90.9614 136.622C91.2891 137.104 91.4913 137.545 91.5681 137.945C91.6381 138.316 91.7454 138.547 91.8901 138.637C92.089 138.762 92.3785 138.741 92.7585 138.576C93.1452 138.441 93.4913 138.129 93.7967 137.641C94.385 136.7 94.331 135.76 93.6348 134.822C92.9454 133.913 91.6783 132.881 89.8334 131.727Z" fill="#E25236"/>
<g filter="url(#filter2_d_219_23)">
<path d="M209 262.38C209 267.88 249 320.38 249 320.38L269.5 306.88C269.5 306.88 285.5 297.38 284.5 291.88C283.5 286.38 267.5 263.88 267.5 263.88L247 236.38L226.5 247.88C226.5 247.88 209 256.88 209 262.38Z" fill="#FDF9EF"/>
<path d="M209 262.38C209 267.88 249 320.38 249 320.38L269.5 306.88C269.5 306.88 285.5 297.38 284.5 291.88C283.5 286.38 267.5 263.88 267.5 263.88L247 236.38L226.5 247.88C226.5 247.88 209 256.88 209 262.38Z" stroke="#FDFAEF"/>
</g>
<path d="M249.051 249.808C248.837 249.935 248.602 249.954 248.344 249.865C248.09 249.765 247.769 249.546 247.382 249.208C247.191 249.042 247.014 248.877 246.852 248.713C246.692 248.538 246.547 248.364 246.416 248.19C246.408 248.381 246.381 248.523 246.333 248.616C246.289 248.698 246.198 248.78 246.061 248.862C245.724 249.062 245.364 249.271 244.981 249.489C244.595 249.699 244.252 249.889 243.952 250.058C244.011 250.19 244.073 250.325 244.137 250.464C244.204 250.592 244.274 250.718 244.347 250.842C244.413 250.952 244.481 251.06 244.554 251.166C244.633 251.268 244.706 251.368 244.774 251.467C244.909 251.648 244.926 251.847 244.823 252.066C244.721 252.285 244.542 252.471 244.287 252.622C244.067 252.752 243.9 252.721 243.786 252.529C243.716 252.412 243.643 252.218 243.566 251.947C243.507 251.769 243.455 251.618 243.41 251.496C243.361 251.367 243.316 251.268 243.275 251.199C243.161 251.006 243.025 250.91 242.867 250.911C242.738 250.913 242.647 250.869 242.594 250.78C242.545 250.697 242.503 250.587 242.468 250.45C242.44 250.309 242.428 250.171 242.433 250.038C242.434 249.898 242.449 249.791 242.48 249.718C242.512 249.661 242.556 249.603 242.612 249.541C242.669 249.48 242.747 249.415 242.846 249.347C242.657 248.417 242.562 247.576 242.561 246.822C242.564 246.058 242.664 245.412 242.863 244.885C243.057 244.351 243.351 243.967 243.743 243.735C243.984 243.592 244.208 243.57 244.416 243.67C244.62 243.763 244.834 243.998 245.059 244.377L245.335 244.841C245.747 245.536 246.178 246.145 246.629 246.669C247.079 247.192 247.488 247.591 247.856 247.866C248.236 248.161 248.633 248.353 249.049 248.442C249.172 248.461 249.264 248.491 249.324 248.529C249.38 248.561 249.425 248.605 249.457 248.66C249.519 248.763 249.539 248.891 249.517 249.043C249.503 249.191 249.454 249.336 249.371 249.478C249.288 249.621 249.181 249.731 249.051 249.808ZM243.624 248.801C243.953 248.587 244.243 248.401 244.493 248.243C244.74 248.078 244.949 247.945 245.121 247.843L245.843 247.414C245.715 247.23 245.581 247.035 245.44 246.83C245.307 246.621 245.171 246.399 245.032 246.165L244.677 245.567C244.558 245.367 244.457 245.251 244.372 245.217C244.29 245.173 244.187 245.188 244.063 245.261C243.726 245.461 243.519 245.882 243.444 246.522C243.368 247.162 243.428 247.922 243.624 248.801Z" fill="#171717"/>
<path d="M252.716 307.147C252.499 307.267 252.364 307.46 252.31 307.727C252.268 307.998 252.294 308.385 252.39 308.89C252.436 309.138 252.489 309.374 252.548 309.598C252.619 309.824 252.695 310.037 252.779 310.238C252.61 310.148 252.474 310.1 252.37 310.094C252.277 310.09 252.16 310.127 252.02 310.205C251.677 310.394 251.315 310.599 250.934 310.819C250.556 311.046 250.219 311.246 249.922 311.419C249.838 311.301 249.752 311.179 249.665 311.054C249.588 310.931 249.515 310.807 249.446 310.681C249.384 310.569 249.325 310.455 249.27 310.339C249.222 310.22 249.173 310.105 249.122 309.996C249.035 309.789 248.871 309.674 248.63 309.651C248.389 309.629 248.139 309.689 247.88 309.833C247.656 309.956 247.598 310.116 247.706 310.312C247.772 310.431 247.902 310.593 248.097 310.796C248.221 310.937 248.324 311.059 248.407 311.159C248.494 311.266 248.557 311.355 248.595 311.425C248.704 311.621 248.718 311.787 248.637 311.923C248.57 312.033 248.562 312.134 248.612 312.225C248.658 312.309 248.732 312.401 248.833 312.5C248.941 312.596 249.053 312.676 249.17 312.739C249.291 312.809 249.391 312.85 249.471 312.861C249.535 312.862 249.608 312.853 249.69 312.836C249.772 312.818 249.867 312.784 249.976 312.733C250.682 313.366 251.36 313.873 252.01 314.255C252.67 314.64 253.278 314.88 253.833 314.975C254.392 315.077 254.871 315.018 255.271 314.798C255.516 314.662 255.648 314.48 255.667 314.25C255.69 314.027 255.595 313.723 255.382 313.337L255.121 312.865C254.731 312.158 254.423 311.477 254.199 310.824C253.976 310.171 253.838 309.616 253.787 309.16C253.725 308.683 253.76 308.243 253.894 307.84C253.939 307.723 253.961 307.629 253.958 307.558C253.959 307.493 253.944 307.433 253.913 307.377C253.855 307.272 253.755 307.19 253.613 307.131C253.477 307.069 253.328 307.038 253.163 307.037C252.998 307.037 252.849 307.073 252.716 307.147ZM250.84 312.337C251.191 312.162 251.498 312.006 251.761 311.87C252.028 311.741 252.249 311.628 252.424 311.531L253.159 311.125C253.253 311.328 253.354 311.543 253.459 311.768C253.572 311.989 253.695 312.218 253.826 312.456L254.163 313.065C254.275 313.268 254.324 313.415 254.31 313.505C254.306 313.598 254.242 313.68 254.116 313.749C253.773 313.939 253.306 313.904 252.715 313.646C252.124 313.387 251.499 312.951 250.84 312.337Z" fill="#050505"/>
<path d="M243.433 280.143C246.196 278.271 246.114 273.735 246.114 273.735C246.114 273.735 250.064 275.141 253.615 273.244C257.383 271.231 256.059 265.955 252.927 264.257C246.948 261.015 235.978 261.966 235.978 261.966C235.978 261.966 233.46 273.396 236.1 278.09C237.727 280.983 239.731 282.652 243.433 280.143Z" fill="#111110" stroke="#353333"/>
<g filter="url(#filter3_d_219_23)">
<path d="M207 75.3513C207 79.4891 236.651 118.987 236.651 118.987L251.847 108.83C251.847 108.83 263.708 101.683 262.967 97.5452C262.225 93.4074 250.365 76.4798 250.365 76.4798L235.169 55.7905L219.972 64.4424C219.972 64.4424 207 71.2134 207 75.3513Z" fill="#FDF9EF"/>
<path d="M207 75.3513C207 79.4891 236.651 118.987 236.651 118.987L251.847 108.83C251.847 108.83 263.708 101.683 262.967 97.5452C262.225 93.4074 250.365 76.4798 250.365 76.4798L235.169 55.7905L219.972 64.4424C219.972 64.4424 207 71.2134 207 75.3513Z" stroke="#FDFAEF"/>
</g>
<path d="M239.547 69.4741C239.334 69.602 239.1 69.6217 238.844 69.5329C238.591 69.4332 238.273 69.214 237.89 68.8753C237.7 68.7094 237.525 68.5443 237.364 68.3798C237.205 68.2043 237.061 68.0295 236.932 67.8555C236.924 68.0473 236.896 68.19 236.849 68.2838C236.804 68.3665 236.714 68.4491 236.577 68.5317C236.241 68.734 235.883 68.9452 235.502 69.1654C235.117 69.3786 234.775 69.5706 234.476 69.7412C234.535 69.8737 234.596 70.0097 234.659 70.1492C234.725 70.2776 234.794 70.404 234.867 70.5283C234.932 70.6388 235 70.7472 235.071 70.8536C235.15 70.9558 235.222 71.0566 235.29 71.1561C235.424 71.3371 235.439 71.5379 235.336 71.7585C235.234 71.9791 235.056 72.1657 234.802 72.3185C234.583 72.4506 234.417 72.42 234.304 72.2266C234.235 72.1092 234.163 71.9146 234.087 71.6426C234.028 71.4631 233.977 71.312 233.933 71.1891C233.885 71.0593 233.841 70.9599 233.8 70.8908C233.687 70.6975 233.552 70.6014 233.395 70.6025C233.267 70.6051 233.177 70.5614 233.124 70.4717C233.076 70.3888 233.034 70.2784 233 70.1403C232.972 69.9982 232.961 69.8602 232.966 69.7263C232.967 69.5856 232.983 69.478 233.014 69.4035C233.046 69.347 233.09 69.2877 233.146 69.2257C233.202 69.1637 233.28 69.0983 233.379 69.0295C233.194 68.0951 233.102 67.2491 233.104 66.4916C233.108 65.723 233.21 65.0733 233.409 64.5424C233.605 64.0046 233.897 63.618 234.288 63.3827C234.528 63.2382 234.751 63.2158 234.958 63.3155C235.16 63.4083 235.372 63.6445 235.595 64.0244L235.867 64.4905C236.275 65.1879 236.702 65.7992 237.148 66.3242C237.594 66.8493 238 67.2494 238.365 67.5246C238.742 67.8204 239.136 68.0122 239.549 68.0998C239.672 68.1193 239.763 68.1484 239.823 68.1871C239.878 68.219 239.922 68.2625 239.955 68.3177C240.015 68.4213 240.035 68.5497 240.013 68.7028C239.998 68.8518 239.949 68.998 239.866 69.1413C239.783 69.2847 239.677 69.3956 239.547 69.4741ZM234.154 68.4781C234.482 68.262 234.771 68.0741 235.02 67.9145C235.266 67.7479 235.474 67.613 235.645 67.5098L236.365 67.0763C236.238 66.8912 236.105 66.6958 235.966 66.49C235.834 66.28 235.7 66.0577 235.562 65.8229L235.211 65.2221C235.094 65.0218 234.993 64.9051 234.909 64.8718C234.827 64.8275 234.725 64.8426 234.601 64.9169C234.266 65.1192 234.059 65.5424 233.982 66.1867C233.905 66.8309 233.962 67.5947 234.154 68.4781Z" fill="#171717"/>
<path d="M237.812 104.723C237.596 104.845 237.461 105.04 237.407 105.308C237.363 105.58 237.389 105.97 237.482 106.476C237.527 106.726 237.579 106.963 237.637 107.188C237.706 107.415 237.782 107.629 237.864 107.831C237.697 107.741 237.562 107.693 237.458 107.687C237.365 107.684 237.249 107.721 237.11 107.8C236.768 107.991 236.407 108.198 236.027 108.421C235.651 108.65 235.315 108.852 235.018 109.027C234.936 108.909 234.851 108.787 234.764 108.661C234.688 108.538 234.616 108.414 234.547 108.287C234.486 108.175 234.428 108.061 234.374 107.944C234.327 107.824 234.278 107.709 234.228 107.6C234.141 107.391 233.979 107.276 233.739 107.255C233.5 107.233 233.251 107.295 232.993 107.439C232.769 107.565 232.711 107.726 232.818 107.922C232.883 108.042 233.012 108.203 233.205 108.407C233.328 108.549 233.431 108.67 233.513 108.771C233.599 108.879 233.661 108.968 233.699 109.038C233.806 109.235 233.819 109.402 233.739 109.538C233.672 109.649 233.663 109.751 233.713 109.842C233.759 109.926 233.832 110.018 233.932 110.118C234.039 110.214 234.15 110.294 234.267 110.357C234.387 110.427 234.486 110.468 234.565 110.478C234.629 110.479 234.702 110.471 234.783 110.452C234.864 110.434 234.959 110.4 235.068 110.348C235.768 110.982 236.441 111.49 237.086 111.871C237.741 112.256 238.345 112.495 238.897 112.589C239.453 112.69 239.93 112.629 240.328 112.406C240.572 112.269 240.704 112.085 240.724 111.854C240.747 111.629 240.654 111.324 240.444 110.938L240.185 110.463C239.799 109.754 239.496 109.071 239.275 108.415C239.055 107.759 238.92 107.202 238.871 106.743C238.81 106.264 238.847 105.821 238.981 105.416C239.027 105.299 239.048 105.204 239.046 105.132C239.047 105.067 239.032 105.007 239.001 104.951C238.944 104.845 238.845 104.763 238.704 104.705C238.57 104.642 238.421 104.611 238.257 104.612C238.093 104.612 237.945 104.649 237.812 104.723ZM235.929 109.947C236.279 109.77 236.584 109.612 236.846 109.474C237.112 109.344 237.332 109.229 237.507 109.132L238.239 108.721C238.333 108.925 238.432 109.14 238.536 109.366C238.648 109.588 238.769 109.818 238.899 110.057L239.231 110.668C239.342 110.872 239.391 111.019 239.376 111.11C239.373 111.204 239.308 111.286 239.182 111.356C238.84 111.548 238.376 111.515 237.789 111.257C237.203 110.999 236.583 110.562 235.929 109.947Z" fill="#050505"/>
<path d="M235.408 92.5387C237.455 91.1305 237.395 87.7176 237.395 87.7176C237.395 87.7176 240.323 88.7755 242.955 87.3484C245.748 85.8339 244.767 81.8647 242.445 80.5867C238.013 78.1477 229.881 78.8632 229.881 78.8632C229.881 78.8632 228.014 87.4627 229.971 90.9938C231.178 93.1705 232.663 94.4261 235.408 92.5387Z" fill="#111110" stroke="#353333"/>
<g filter="url(#filter4_d_219_23)">
<path d="M2 223.204C1.99991 233.189 74.5396 328.504 74.5396 328.504L111.716 303.994C111.716 303.994 140.732 286.747 138.918 276.761C137.105 266.776 108.089 225.927 108.089 225.927L70.9125 176L33.736 196.878C33.736 196.878 2.00011 213.218 2 223.204Z" fill="#FDF9EF"/>
<path d="M2 223.204C1.99991 233.189 74.5396 328.504 74.5396 328.504L111.716 303.994C111.716 303.994 140.732 286.747 138.918 276.761C137.105 266.776 108.089 225.927 108.089 225.927L70.9125 176L33.736 196.878C33.736 196.878 2.00011 213.218 2 223.204Z" stroke="#FDFAEF"/>
</g>
<path d="M74.4578 200.842C74.7493 200.631 74.886 200.433 74.8677 200.249C74.8495 200.064 74.7327 199.869 74.5175 199.663C73.7768 198.981 73.0069 198.213 72.2077 197.36C71.4086 196.506 70.6649 195.604 69.9767 194.654C69.5075 194.006 69.1161 193.409 68.8025 192.862C68.4782 192.323 68.2907 191.735 68.24 191.096C68.2363 191 68.2311 190.914 68.2244 190.836C68.199 190.756 68.1707 190.694 68.1395 190.651C68.0378 190.51 67.8644 190.43 67.6194 190.41C67.3558 190.387 67.0807 190.405 66.7944 190.464C66.508 190.523 66.2676 190.623 66.0733 190.764C65.8141 190.952 65.6931 191.171 65.7102 191.422C65.7165 191.681 65.8027 191.948 65.9688 192.223C66.1271 192.487 66.3001 192.748 66.4878 193.007C66.6755 193.267 66.9028 193.546 67.1698 193.847C67.4182 194.144 67.6955 194.471 68.0016 194.825C68.4153 195.283 68.8642 195.789 69.3483 196.344C69.8246 196.888 70.2935 197.478 70.7549 198.116C71.2788 198.839 71.682 199.453 71.9642 199.956C72.2387 200.449 72.416 200.773 72.496 200.929C72.5966 201.136 72.764 201.254 72.9982 201.282C73.2324 201.309 73.481 201.278 73.7439 201.186C74.0146 201.105 74.2526 200.99 74.4578 200.842ZM68.2626 205.279C68.6946 204.966 69.0321 204.557 69.2753 204.052C69.5077 203.554 69.6715 203.007 69.7668 202.412C69.8621 201.816 69.9016 201.211 69.8852 200.597C69.858 199.991 69.8023 199.414 69.7182 198.866C69.6232 198.326 69.5148 197.869 69.393 197.497C69.2791 197.135 69.1439 196.846 68.9875 196.63C68.8154 196.392 68.5218 196.169 68.1066 195.959C67.7785 195.801 67.3465 195.637 66.8107 195.465C66.2748 195.294 65.6894 195.133 65.0545 194.984C64.4088 194.842 63.7718 194.736 63.1436 194.664C62.5046 194.6 61.9125 194.6 61.3673 194.666C60.8221 194.731 60.3821 194.885 60.0474 195.128C59.745 195.347 59.5955 195.595 59.5989 195.873C59.5836 196.147 59.6581 196.398 59.8223 196.624C59.9552 196.808 60.1338 196.975 60.358 197.125C60.5822 197.276 60.8099 197.374 61.0411 197.421C61.2724 197.467 61.4744 197.428 61.6472 197.303C61.7552 197.225 61.85 197.14 61.9315 197.048C61.9944 196.953 62.0961 196.854 62.2365 196.753C62.3769 196.651 62.5638 196.557 62.7973 196.47C63.02 196.391 63.2995 196.345 63.6357 196.332C63.9132 196.329 64.2807 196.359 64.7384 196.423C65.1882 196.475 65.6708 196.562 66.1862 196.683C66.7016 196.804 67.211 196.961 67.7145 197.157C67.8292 197.633 67.8938 198.154 67.9084 198.72C67.9151 199.275 67.8953 199.816 67.8492 200.343C67.7639 201.294 67.5869 202.072 67.318 202.679C67.0384 203.293 66.5584 203.846 65.878 204.339C65.7376 204.44 65.6693 204.539 65.673 204.635C65.666 204.739 65.7133 204.861 65.8149 205.002C66.0417 205.315 66.3795 205.531 66.8282 205.651C67.2661 205.778 67.7443 205.654 68.2626 205.279Z" fill="#050505"/>
<path d="M74.0107 305.276C74.3063 305.07 74.538 305.007 74.706 305.085C74.874 305.163 75.0198 305.337 75.1436 305.609C75.5428 306.533 76.0134 307.513 76.5554 308.549C77.0973 309.585 77.7033 310.585 78.3733 311.548C78.8301 312.205 79.2648 312.771 79.6774 313.248C80.079 313.732 80.5727 314.103 81.1585 314.361C81.248 314.396 81.3282 314.43 81.3991 314.462C81.4667 314.512 81.5157 314.559 81.5461 314.603C81.6451 314.746 81.6637 314.936 81.6018 315.174C81.5366 315.43 81.4288 315.684 81.2784 315.935C81.128 316.185 80.9543 316.379 80.7572 316.516C80.4945 316.699 80.2476 316.741 80.0163 316.642C79.7741 316.55 79.5506 316.381 79.346 316.134C79.149 315.897 78.9592 315.647 78.7764 315.385C78.5937 315.122 78.4046 314.815 78.209 314.464C78.0101 314.131 77.7938 313.762 77.5602 313.356C77.2647 312.814 76.9349 312.224 76.5709 311.583C76.2145 310.954 75.8117 310.317 75.3625 309.671C74.8524 308.938 74.4063 308.355 74.0241 307.922C73.6496 307.5 73.402 307.226 73.2811 307.099C73.1188 306.936 73.0632 306.739 73.1141 306.509C73.165 306.278 73.2771 306.054 73.4503 305.836C73.616 305.607 73.8028 305.421 74.0107 305.276ZM67.778 309.66C68.2159 309.355 68.7134 309.172 69.2707 309.109C69.817 309.054 70.3871 309.079 70.981 309.186C71.5749 309.293 72.1588 309.455 72.7327 309.673C73.2957 309.899 73.822 310.142 74.3117 310.402C74.7904 310.67 75.1856 310.923 75.4973 311.161C75.8014 311.388 76.0296 311.611 76.1818 311.83C76.3493 312.071 76.4635 312.422 76.5244 312.883C76.5649 313.244 76.5777 313.706 76.5629 314.269C76.5481 314.831 76.5064 315.437 76.4379 316.086C76.3584 316.742 76.2489 317.378 76.1094 317.995C75.959 318.619 75.7629 319.178 75.5211 319.671C75.2793 320.164 74.9888 320.529 74.6495 320.765C74.343 320.978 74.0594 321.037 73.7986 320.942C73.5345 320.866 73.3225 320.713 73.1626 320.483C73.0332 320.297 72.9344 320.074 72.8664 319.812C72.7983 319.551 72.7805 319.304 72.8129 319.07C72.8453 318.836 72.949 318.659 73.1241 318.537C73.2336 318.461 73.3452 318.399 73.4589 318.353C73.5693 318.324 73.6957 318.261 73.838 318.162C73.9803 318.063 74.1309 317.918 74.2899 317.726C74.4379 317.542 74.5735 317.293 74.6968 316.98C74.7915 316.719 74.8843 316.362 74.9752 315.909C75.0738 315.467 75.1511 314.983 75.2073 314.457C75.2635 313.93 75.2826 313.397 75.2645 312.858C74.8524 312.592 74.3818 312.359 73.8526 312.159C73.331 311.969 72.8138 311.809 72.3008 311.679C71.3752 311.446 70.5819 311.356 69.9209 311.41C69.2489 311.471 68.5681 311.742 67.8785 312.221C67.7362 312.32 67.6204 312.352 67.5309 312.317C67.4305 312.289 67.3308 312.204 67.2318 312.062C67.011 311.745 66.9183 311.354 66.9535 310.891C66.9778 310.436 67.2526 310.025 67.778 309.66Z" fill="#050505"/>
<path d="M57.708 276.13C61.7425 280.282 67.4256 280.101 72.3304 277.033C72.3304 277.033 76.3846 273.759 77.6177 271.399C78.9515 268.845 77.4404 264.307 77.4404 264.307L79.5692 267.101L81.698 269.896C81.698 269.896 82.5119 272.858 82.2032 275.131C81.8945 277.404 80.5043 282.046 80.5043 282.046L89.3209 275.328L97.5864 269.031C97.5864 269.031 93.8957 269.063 91.4069 268.922C88.9823 268.783 84.4532 267.796 84.4532 267.796L79.6446 262.628C79.6446 262.628 83.2408 264.004 85.6602 263.665C88.3363 263.29 89.7467 262.15 91.9447 260.483C95.0829 258.102 98.7123 255.094 99.2131 251.734C99.7138 248.373 98.3685 245.161 95.6114 242.434C93.2287 240.078 90.8066 238.968 87.6606 238.857C84.5146 238.745 78.3979 242.702 78.3979 242.702C78.3979 242.702 73.5848 234.877 69.9418 233.89C66.2988 232.903 61.9091 234.25 58.4159 237.051C55.1127 239.7 53.3184 242.793 53.4107 246.485C53.503 250.177 60.2137 256.557 60.2137 256.557C60.2137 256.557 53.8216 261.992 53.3323 265.814C52.8431 269.636 54.8756 273.215 57.708 276.13Z" fill="#111110" stroke="#353333"/>
<path d="M88.7638 52.9603C96.492 56.1554 96.4459 66.7354 96.4459 66.7354C96.4459 66.7354 109.253 61.5231 115.096 70.9288C119.405 77.8646 115.586 82.9914 109.141 88.1119C100.982 94.5939 79.7021 94.2608 79.7021 94.2608C79.7021 94.2608 67.4015 69.1604 74.441 58.5513C78.3032 52.7306 82.0902 50.2012 88.7638 52.9603Z" fill="#E25236" stroke="#EA4027"/>
<g filter="url(#filter5_d_219_23)">
<path d="M286.432 125.356C282.097 132.709 296.672 235.885 296.672 235.885L335.988 234.742C335.988 234.742 365.857 235.235 368.793 227.057C371.729 218.879 367.082 175.604 367.082 175.604L360.081 121.932L322.34 120.402C322.34 120.402 290.767 118.003 286.432 125.356Z" fill="#FDF9EF" stroke="#FDFAEF"/>
<path d="M309.39 184.703C310.349 189.338 314.431 191.712 319.274 191.754C319.274 191.754 323.61 191.281 325.548 190.196C327.643 189.023 328.635 185.232 328.635 185.232L328.868 188.093L329.101 190.955C329.101 190.955 328.332 193.354 327.085 194.784C325.838 196.215 322.756 198.802 322.756 198.802L332.006 198.05L340.677 197.344C340.677 197.344 338.064 195.744 336.376 194.552C334.732 193.391 331.991 190.719 331.991 190.719L330.948 185.044C330.948 185.044 332.856 187.573 334.712 188.403C336.766 189.321 338.275 189.156 340.578 188.974C343.865 188.713 347.783 188.236 349.658 186.14C351.532 184.045 352.041 181.24 351.335 178.149C350.725 175.477 349.523 173.648 347.359 172.188C345.195 170.728 339.097 170.765 339.097 170.765C339.097 170.765 339.254 163.257 337.137 160.975C335.019 158.693 331.319 157.691 327.591 158.086C324.066 158.459 321.402 159.801 319.794 162.386C318.187 164.97 320.02 172.317 320.02 172.317C320.02 172.317 313.058 173.252 310.983 175.671C308.907 178.089 308.717 181.449 309.39 184.703Z" fill="#E25236" stroke="#EA4027"/>
<path d="M301.303 139.889C300.811 139.785 300.374 139.572 299.99 139.251C299.613 138.941 299.286 138.579 299.01 138.167C298.742 137.764 298.511 137.37 298.318 136.983C298.158 136.985 297.996 136.977 297.831 136.96C297.675 136.944 297.521 136.92 297.368 136.888C296.825 136.773 296.365 136.564 295.986 136.262C295.607 135.961 295.335 135.593 295.17 135.159C295.014 134.727 294.98 134.259 295.069 133.756C295.204 133.076 295.563 132.536 296.143 132.136C296.632 131.797 297.05 131.664 297.397 131.738C297.575 131.776 297.698 131.868 297.764 132.015C297.832 132.153 297.895 132.357 297.953 132.627C298.065 133.102 298.21 133.589 298.387 134.088C298.575 134.579 298.793 135.077 299.041 135.582C299.608 135.498 300.113 135.246 300.556 134.827C301 134.407 301.286 133.852 301.414 133.162C301.528 132.583 301.507 132.078 301.351 131.646C301.194 131.214 300.945 130.865 300.603 130.597C300.271 130.323 299.885 130.139 299.444 130.046C298.978 129.947 298.547 129.953 298.151 130.064C297.766 130.168 297.423 130.321 297.123 130.524C296.825 130.717 296.582 130.905 296.393 131.086C296.348 131.13 296.294 131.154 296.231 131.158C296.168 131.163 296.116 131.16 296.073 131.151C295.946 131.124 295.868 131.055 295.839 130.942C295.818 130.831 295.824 130.7 295.856 130.547C295.909 130.257 296.048 129.977 296.274 129.705C296.51 129.428 296.808 129.19 297.169 128.992C297.539 128.796 297.953 128.662 298.411 128.591C298.869 128.52 299.356 128.539 299.873 128.648C300.916 128.87 301.661 129.369 302.107 130.146C302.554 130.923 302.666 131.877 302.444 133.008C302.261 133.952 301.908 134.741 301.384 135.374C300.868 136.009 300.254 136.459 299.542 136.725C299.716 136.992 299.927 137.249 300.176 137.497C300.423 137.753 300.696 137.97 300.994 138.149C301.293 138.327 301.595 138.449 301.9 138.514C302.129 138.562 302.334 138.579 302.514 138.564C302.703 138.551 302.814 138.548 302.848 138.555C302.916 138.57 302.954 138.64 302.963 138.766C302.979 138.902 302.974 139.029 302.949 139.148C302.871 139.513 302.671 139.745 302.349 139.845C302.033 139.955 301.685 139.97 301.303 139.889ZM297.775 135.473C297.557 135.037 297.395 134.63 297.289 134.253C297.183 133.876 297.087 133.471 297.002 133.036C296.965 132.922 296.908 132.857 296.831 132.84C296.713 132.815 296.581 132.872 296.437 133.009C296.292 133.147 296.2 133.331 296.16 133.562C296.086 133.954 296.197 134.327 296.494 134.682C296.799 135.04 297.226 135.303 297.775 135.473Z" fill="#EE4E2C"/>
<path d="M339.833 220.751C340.324 220.855 340.762 221.068 341.146 221.388C341.523 221.699 341.85 222.06 342.125 222.473C342.394 222.876 342.625 223.27 342.818 223.657C342.977 223.655 343.14 223.663 343.304 223.68C343.461 223.695 343.615 223.719 343.768 223.752C344.31 223.867 344.771 224.075 345.15 224.377C345.529 224.679 345.801 225.047 345.966 225.48C346.122 225.912 346.156 226.38 346.067 226.884C345.931 227.564 345.573 228.104 344.992 228.503C344.504 228.843 344.086 228.975 343.738 228.902C343.56 228.864 343.438 228.772 343.372 228.625C343.304 228.486 343.241 228.282 343.183 228.013C343.071 227.538 342.926 227.051 342.748 226.552C342.56 226.06 342.343 225.562 342.095 225.058C341.528 225.142 341.023 225.393 340.579 225.813C340.136 226.233 339.85 226.788 339.721 227.478C339.607 228.056 339.629 228.562 339.785 228.993C339.942 229.425 340.191 229.775 340.533 230.042C340.864 230.316 341.251 230.5 341.692 230.594C342.158 230.693 342.589 230.687 342.984 230.576C343.37 230.471 343.712 230.318 344.012 230.116C344.31 229.922 344.554 229.735 344.743 229.553C344.788 229.51 344.841 229.486 344.904 229.481C344.967 229.477 345.02 229.479 345.062 229.488C345.19 229.515 345.268 229.585 345.297 229.698C345.318 229.808 345.312 229.94 345.28 230.093C345.227 230.383 345.088 230.663 344.862 230.934C344.626 231.212 344.327 231.45 343.966 231.648C343.597 231.844 343.183 231.978 342.725 232.049C342.267 232.12 341.779 232.101 341.262 231.991C340.219 231.77 339.475 231.271 339.028 230.494C338.582 229.717 338.47 228.763 338.692 227.632C338.875 226.687 339.228 225.898 339.752 225.265C340.268 224.631 340.881 224.18 341.593 223.915C341.42 223.648 341.209 223.39 340.96 223.143C340.713 222.887 340.44 222.669 340.141 222.491C339.843 222.312 339.541 222.191 339.235 222.126C339.006 222.077 338.802 222.06 338.621 222.075C338.433 222.088 338.321 222.091 338.287 222.084C338.22 222.07 338.181 222 338.173 221.874C338.157 221.738 338.162 221.61 338.187 221.491C338.264 221.127 338.464 220.895 338.787 220.795C339.103 220.685 339.451 220.67 339.833 220.751ZM343.361 225.167C343.579 225.603 343.74 226.01 343.847 226.386C343.953 226.763 344.048 227.169 344.133 227.603C344.171 227.718 344.228 227.783 344.304 227.799C344.423 227.824 344.555 227.768 344.699 227.63C344.843 227.493 344.936 227.309 344.976 227.078C345.05 226.686 344.939 226.312 344.642 225.957C344.337 225.6 343.91 225.337 343.361 225.167Z" fill="#EE4E2C"/>
</g>
<defs>
<filter id="filter0_d_219_23" x="137.5" y="145.849" width="84.545" height="93.3252" filterUnits="userSpaceOnUse" color-interpolation-filters="sRGB">
<feFlood flood-opacity="0" result="BackgroundImageFix"/>
<feColorMatrix in="SourceAlpha" type="matrix" values="0 0 0 0 0 0 0 0 0 0 0 0 0 0 0 0 0 0 127 0" result="hardAlpha"/>
<feOffset dy="4"/>
<feGaussianBlur stdDeviation="2"/>
<feComposite in2="hardAlpha" operator="out"/>
<feColorMatrix type="matrix" values="0 0 0 0 0 0 0 0 0 0 0 0 0 0 0 0 0 0 0.25 0"/>
<feBlend mode="normal" in2="BackgroundImageFix" result="effect1_dropShadow_219_23"/>
<feBlend mode="normal" in="SourceGraphic" in2="effect1_dropShadow_219_23" result="shape"/>
</filter>
<filter id="filter1_d_219_23" x="17.5" y="0.348755" width="146" height="161.83" filterUnits="userSpaceOnUse" color-interpolation-filters="sRGB">
<feFlood flood-opacity="0" result="BackgroundImageFix"/>
<feColorMatrix in="SourceAlpha" type="matrix" values="0 0 0 0 0 0 0 0 0 0 0 0 0 0 0 0 0 0 127 0" result="hardAlpha"/>
<feOffset dy="4"/>
<feGaussianBlur stdDeviation="2"/>
<feComposite in2="hardAlpha" operator="out"/>
<feColorMatrix type="matrix" values="0 0 0 0 0 0 0 0 0 0 0 0 0 0 0 0 0 0 0.25 0"/>
<feBlend mode="normal" in2="BackgroundImageFix" result="effect1_dropShadow_219_23"/>
<feBlend mode="normal" in="SourceGraphic" in2="effect1_dropShadow_219_23" result="shape"/>
</filter>
<filter id="filter2_d_219_23" x="204.5" y="235.729" width="84.5451" height="93.3252" filterUnits="userSpaceOnUse" color-interpolation-filters="sRGB">
<feFlood flood-opacity="0" result="BackgroundImageFix"/>
<feColorMatrix in="SourceAlpha" type="matrix" values="0 0 0 0 0 0 0 0 0 0 0 0 0 0 0 0 0 0 127 0" result="hardAlpha"/>
<feOffset dy="4"/>
<feGaussianBlur stdDeviation="2"/>
<feComposite in2="hardAlpha" operator="out"/>
<feColorMatrix type="matrix" values="0 0 0 0 0.740385 0 0 0 0 0.621685 0 0 0 0 0.434264 0 0 0 0.42 0"/>
<feBlend mode="normal" in2="BackgroundImageFix" result="effect1_dropShadow_219_23"/>
<feBlend mode="normal" in="SourceGraphic" in2="effect1_dropShadow_219_23" result="shape"/>
</filter>
<filter id="filter3_d_219_23" x="202.5" y="55.1357" width="65" height="72.5298" filterUnits="userSpaceOnUse" color-interpolation-filters="sRGB">
<feFlood flood-opacity="0" result="BackgroundImageFix"/>
<feColorMatrix in="SourceAlpha" type="matrix" values="0 0 0 0 0 0 0 0 0 0 0 0 0 0 0 0 0 0 127 0" result="hardAlpha"/>
<feOffset dy="4"/>
<feGaussianBlur stdDeviation="2"/>
<feComposite in2="hardAlpha" operator="out"/>
<feColorMatrix type="matrix" values="0 0 0 0 0.740385 0 0 0 0 0.621685 0 0 0 0 0.434264 0 0 0 0.42 0"/>
<feBlend mode="normal" in2="BackgroundImageFix" result="effect1_dropShadow_219_23"/>
<feBlend mode="normal" in="SourceGraphic" in2="effect1_dropShadow_219_23" result="shape"/>
</filter>
<filter id="filter4_d_219_23" x="-2.5" y="175.349" width="146" height="161.83" filterUnits="userSpaceOnUse" color-interpolation-filters="sRGB">
<feFlood flood-opacity="0" result="BackgroundImageFix"/>
<feColorMatrix in="SourceAlpha" type="matrix" values="0 0 0 0 0 0 0 0 0 0 0 0 0 0 0 0 0 0 127 0" result="hardAlpha"/>
<feOffset dy="4"/>
<feGaussianBlur stdDeviation="2"/>
<feComposite in2="hardAlpha" operator="out"/>
<feColorMatrix type="matrix" values="0 0 0 0 0 0 0 0 0 0 0 0 0 0 0 0 0 0 0.25 0"/>
<feBlend mode="normal" in2="BackgroundImageFix" result="effect1_dropShadow_219_23"/>
<feBlend mode="normal" in="SourceGraphic" in2="effect1_dropShadow_219_23" result="shape"/>
</filter>
<filter id="filter5_d_219_23" x="281.127" y="119.528" width="93.139" height="124.87" filterUnits="userSpaceOnUse" color-interpolation-filters="sRGB">
<feFlood flood-opacity="0" result="BackgroundImageFix"/>
<feColorMatrix in="SourceAlpha" type="matrix" values="0 0 0 0 0 0 0 0 0 0 0 0 0 0 0 0 0 0 127 0" result="hardAlpha"/>
<feOffset dy="4"/>
<feGaussianBlur stdDeviation="2"/>
<feComposite in2="hardAlpha" operator="out"/>
<feColorMatrix type="matrix" values="0 0 0 0 0 0 0 0 0 0 0 0 0 0 0 0 0 0 0.25 0"/>
<feBlend mode="normal" in2="BackgroundImageFix" result="effect1_dropShadow_219_23"/>
<feBlend mode="normal" in="SourceGraphic" in2="effect1_dropShadow_219_23" result="shape"/>
</filter>
</defs>
</svg>
