<svg width="253" height="245" viewBox="0 0 253 245" fill="none" xmlns="http://www.w3.org/2000/svg">
<path d="M190.172 60.445C191.284 71.3806 173.453 84.5329 173.453 84.5329C173.453 84.5329 147.584 68.6881 140.624 68.4549C133.584 68.219 125.432 74.8336 125.432 74.8336C125.432 74.8336 113.195 71.8109 107.016 67.0328C101.21 62.5427 95.3336 52.31 95.3336 52.31C95.3336 52.31 105.085 54.5812 111.166 54.6724C122.651 54.8446 135.206 41.5059 135.206 41.5059C135.206 41.5059 155.423 30.9534 170.662 42.4068C176.293 46.6382 170.059 59.2678 177.102 59.2527C182.08 59.2419 186.121 49.4979 186.121 49.4979C186.121 49.4979 189.655 55.3607 190.172 60.445Z" fill="#303338" stroke="black" stroke-linecap="round"/>
<path d="M183.174 222.163L147.651 211.813L153.665 191.171L154.916 161.851C154.916 161.851 185.091 168.038 193.058 170.36C201.026 172.681 213.001 178.774 213.001 178.774C213.001 178.774 200.871 189.027 195.046 197.499C189.222 205.971 183.174 222.163 183.174 222.163Z" fill="#501D46" stroke="#84008A" stroke-linecap="round"/>
<path d="M159.852 216.409L177.548 147.092L147.311 145.053L134.015 213.569L159.852 216.409Z" fill="#ECA675" stroke="#EAA896" stroke-opacity="0.19" stroke-linecap="round"/>
<path d="M123.346 211.302C107.817 216.824 93.0805 182.552 93.0805 182.552C93.0805 182.552 110.699 179.24 118.349 175.447C125.999 171.654 132.258 163.127 132.258 163.127C132.258 163.127 121.104 170.481 112.442 172.735C103.78 174.989 89.0319 175.192 89.0319 175.192L91.8453 126.289C91.8453 126.289 107.548 122.488 109.368 120.708C115.286 114.924 106.566 111.421 108.282 101.504C109.509 94.408 110.109 75.4016 114.795 75.3343C119.481 75.267 125.701 80.341 125.701 80.341C125.701 80.341 136.19 71.225 143.148 73.4961C155.588 77.5567 172.73 99.9397 181.361 112.496C189.991 125.053 187.348 137.802 187.348 137.802C187.348 137.802 148.332 202.416 123.346 211.302Z" fill="#ECA675" stroke="#7A5626" stroke-linecap="round"/>
<path d="M101.795 168.392C106.956 156.341 123.493 122.78 88.5861 108.87C75.6678 103.723 64.945 104.623 53.1081 111.922C40.802 119.509 37.006 129.625 34.3465 143.836C29.9611 167.268 58.6397 199.839 58.6397 199.839C58.6397 199.839 98.1386 176.927 101.795 168.392Z" fill="#A86441" stroke="#7A5626" stroke-linecap="round"/>
<g filter="url(#filter0_n_473_30)">
<path d="M136.706 90.7745C133.982 91.3006 130.167 93.5564 130.167 93.5564C130.167 93.5564 131.204 86.0348 135.844 84.7946C143.357 82.7866 153.908 97.8693 153.908 97.8693C153.908 97.8693 143.841 89.3968 136.706 90.7745Z" fill="#1E0700"/>
<path d="M136.706 90.7745C133.982 91.3006 130.167 93.5564 130.167 93.5564C130.167 93.5564 131.204 86.0348 135.844 84.7946C143.357 82.7866 153.908 97.8693 153.908 97.8693C153.908 97.8693 143.841 89.3968 136.706 90.7745Z" stroke="#1A0B08" stroke-linecap="round"/>
</g>
<g filter="url(#filter1_n_473_30)">
<path d="M117.778 89.5827C119.587 90.0921 122.019 91.8108 122.019 91.8108C122.019 91.8108 121.818 86.7699 118.76 85.6747C113.81 83.9014 105.664 93.2637 105.664 93.2637C105.664 93.2637 113.041 88.2491 117.778 89.5827Z" fill="#1E0700"/>
<path d="M117.778 89.5827C119.587 90.0921 122.019 91.8108 122.019 91.8108C122.019 91.8108 121.818 86.7699 118.76 85.6747C113.81 83.9014 105.664 93.2637 105.664 93.2637C105.664 93.2637 113.041 88.2491 117.778 89.5827Z" stroke="#1A0B08" stroke-linecap="round"/>
</g>
<path d="M230.523 124.143C223.923 125.865 216.938 108.207 216.938 108.207L210.217 106.249L199.138 110.312C199.138 110.312 195.21 101.803 196.054 95.8728C196.687 91.4266 196.673 84.3552 201.131 83.8114C204.911 83.3503 211.215 99.2484 211.215 99.2484L214.776 101.327C214.776 101.327 221.847 84.2067 226.471 84.424C234.912 84.8206 235.297 104.181 235.297 104.181C235.297 104.181 238.278 122.119 230.523 124.143Z" fill="#707FC4" stroke="#2D3C5D" stroke-linecap="round"/>
<path d="M113.247 80.4564C110.482 82.107 109.089 87.5776 109.089 87.5776C109.089 87.5776 105.33 77.8619 109.645 73.1574C114.312 68.0702 124.545 73.8531 124.545 73.8531C124.545 73.8531 132.135 67.4503 138.043 66.8491C144.065 66.2364 152.925 71.1848 152.925 71.1848C152.925 71.1848 177.136 77.978 187.234 88.4614C193.653 95.1246 196 106.639 196 106.639C196 106.639 202.795 108.659 206.64 107.656C211.051 106.504 216.479 104.273 216.479 104.273L217.958 109.922L188.326 129.401L180.381 111.983C180.381 111.983 157.341 72.1146 137.926 76.1892C132.244 77.3816 124.568 82.7131 124.568 82.7131C124.568 82.7131 117.439 77.9543 113.247 80.4564Z" fill="#E2DCD0" stroke="#1A0B08" stroke-linecap="round"/>
<path d="M153.189 71.2513C153.189 71.2513 158.444 74.1783 160.511 76.5092C162.577 78.84 163.772 83.1882 163.772 83.1882" stroke="#1A0B08" stroke-linecap="round"/>
<path d="M195.599 104.439C195.599 104.439 197.493 109.447 197.342 112.758C197.19 116.07 194.824 121.399 194.824 121.399" stroke="#1A0B08" stroke-linecap="round"/>
<path d="M119.519 150.319C119.016 152.862 114.744 154.938 114.744 154.938C114.744 154.938 114.817 150.529 116.549 148.695C117.39 147.805 118.12 146.812 119.039 147.08C120.097 147.387 119.79 148.949 119.519 150.319Z" fill="#9D6256" fill-opacity="0.8" stroke="#BC8A73" stroke-linecap="round"/>
<path d="M130.732 113.829C130.732 113.829 128.076 100.05 134.047 97.0885C140.368 93.9532 146.728 99.8535 149.589 106.304C152.449 112.752 155.728 119.47 147.574 123.944C134.556 131.088 130.732 113.829 130.732 113.829Z" fill="url(#paint0_radial_473_30)" stroke="#6C6C6C" stroke-linecap="round"/>
<path d="M140.723 117.615C136.822 114.916 132.623 116.817 132.623 116.817C132.623 116.817 134.328 121.578 136.116 122.703C138.169 123.996 141.46 125.616 142.356 124.521C143.165 123.534 143.688 119.666 140.723 117.615Z" fill="black" stroke="black" stroke-linecap="round"/>
<path d="M106.894 109.428C106.894 109.428 106.188 96.5951 110.551 93.3024C115.171 89.8161 119.079 94.8842 120.527 100.759C121.974 106.632 123.687 112.727 117.693 117.631C108.123 125.461 106.894 109.428 106.894 109.428Z" fill="url(#paint1_radial_473_30)" stroke="#6C6C6C" stroke-linecap="round"/>
<path d="M113.481 112.197C111.501 110.664 107.955 112.104 107.955 112.104C107.955 112.104 108.743 116.473 109.885 117.393C111.197 118.449 113.336 119.714 114.044 118.604C114.683 117.603 115.685 113.903 113.481 112.197Z" fill="black" stroke="black" stroke-linecap="round"/>
<g filter="url(#filter2_f_473_30)">
<path d="M140.867 129.635C140.867 129.635 148.142 130.705 152.886 129.491C156.375 128.599 161.025 123.009 161.025 123.009" stroke="#9D6256" stroke-opacity="0.8" stroke-linecap="round"/>
</g>
<path d="M95.7854 182.428L97.9661 174.943C97.9661 174.943 109.577 173.434 116.169 171.564C122.76 169.693 149.711 145.752 149.711 145.752C149.711 145.752 131.379 171.138 115.125 177.688C108.122 180.51 95.7854 182.428 95.7854 182.428Z" fill="#7A5626" stroke="#7A5626" stroke-linecap="round"/>
<path d="M110.796 174.47C109.13 175.635 107.976 175.97 107.42 177.88C105.651 183.953 122.965 173.373 122.965 173.373L122.448 172.188C122.448 172.188 114.355 171.983 110.796 174.47Z" fill="#B58476" stroke="#BC8A73" stroke-linecap="round"/>
<path d="M141.722 142.788C141.722 142.788 147.59 144.512 149.976 146.211C152.362 147.911 153.939 151.49 153.939 151.49" stroke="#7A5626" stroke-linecap="round"/>
<defs>
<filter id="filter0_n_473_30" x="129.531" y="84.1104" width="24.7871" height="14.1415" filterUnits="userSpaceOnUse" color-interpolation-filters="sRGB">
<feFlood flood-opacity="0" result="BackgroundImageFix"/>
<feBlend mode="normal" in="SourceGraphic" in2="BackgroundImageFix" result="shape"/>
<feTurbulence type="fractalNoise" baseFrequency="0.25 0.25" stitchTiles="stitch" numOctaves="3" result="noise" seed="6770" />
<feColorMatrix in="noise" type="luminanceToAlpha" result="alphaNoise" />
<feComponentTransfer in="alphaNoise" result="coloredNoise1">
<feFuncA type="discrete" tableValues="1 1 1 1 1 1 1 1 1 1 1 1 1 1 1 1 1 1 1 1 1 1 1 1 1 1 1 1 1 1 1 1 1 1 1 1 1 1 1 1 1 1 1 1 1 1 1 1 1 1 1 0 0 0 0 0 0 0 0 0 0 0 0 0 0 0 0 0 0 0 0 0 0 0 0 0 0 0 0 0 0 0 0 0 0 0 0 0 0 0 0 0 0 0 0 0 0 0 0 0 "/>
</feComponentTransfer>
<feComposite operator="in" in2="shape" in="coloredNoise1" result="noise1Clipped" />
<feFlood flood-color="rgba(0, 0, 0, 0.25)" result="color1Flood" />
<feComposite operator="in" in2="noise1Clipped" in="color1Flood" result="color1" />
<feMerge result="effect1_noise_473_30">
<feMergeNode in="shape" />
<feMergeNode in="color1" />
</feMerge>
</filter>
<filter id="filter1_n_473_30" x="105.287" y="84.9511" width="17.2715" height="8.7262" filterUnits="userSpaceOnUse" color-interpolation-filters="sRGB">
<feFlood flood-opacity="0" result="BackgroundImageFix"/>
<feBlend mode="normal" in="SourceGraphic" in2="BackgroundImageFix" result="shape"/>
<feTurbulence type="fractalNoise" baseFrequency="0.25 0.25" stitchTiles="stitch" numOctaves="3" result="noise" seed="6770" />
<feColorMatrix in="noise" type="luminanceToAlpha" result="alphaNoise" />
<feComponentTransfer in="alphaNoise" result="coloredNoise1">
<feFuncA type="discrete" tableValues="1 1 1 1 1 1 1 1 1 1 1 1 1 1 1 1 1 1 1 1 1 1 1 1 1 1 1 1 1 1 1 1 1 1 1 1 1 1 1 1 1 1 1 1 1 1 1 1 1 1 1 0 0 0 0 0 0 0 0 0 0 0 0 0 0 0 0 0 0 0 0 0 0 0 0 0 0 0 0 0 0 0 0 0 0 0 0 0 0 0 0 0 0 0 0 0 0 0 0 0 "/>
</feComponentTransfer>
<feComposite operator="in" in2="shape" in="coloredNoise1" result="noise1Clipped" />
<feFlood flood-color="rgba(0, 0, 0, 0.25)" result="color1Flood" />
<feComposite operator="in" in2="noise1Clipped" in="color1Flood" result="color1" />
<feMerge result="effect1_noise_473_30">
<feMergeNode in="shape" />
<feMergeNode in="color1" />
</feMerge>
</filter>
<filter id="filter2_f_473_30" x="136.366" y="118.509" width="29.1582" height="16.0615" filterUnits="userSpaceOnUse" color-interpolation-filters="sRGB">
<feFlood flood-opacity="0" result="BackgroundImageFix"/>
<feBlend mode="normal" in="SourceGraphic" in2="BackgroundImageFix" result="shape"/>
<feGaussianBlur stdDeviation="2" result="effect1_foregroundBlur_473_30"/>
</filter>
<radialGradient id="paint0_radial_473_30" cx="0" cy="0" r="1" gradientUnits="userSpaceOnUse" gradientTransform="translate(141.232 111.414) rotate(105.714) scale(26.5966 24.3959)">
<stop stop-color="#EDE5DA"/>
<stop offset="1" stop-color="#BCB5AC"/>
</radialGradient>
<radialGradient id="paint1_radial_473_30" cx="0" cy="0" r="1" gradientUnits="userSpaceOnUse" gradientTransform="translate(114.34 106.283) rotate(102.084) scale(27.5726 17.3605)">
<stop stop-color="#EDE5DA"/>
<stop offset="1" stop-color="#BCB5AC"/>
</radialGradient>
</defs>
</svg>
