<svg width="108" height="112" viewBox="0 0 108 112" fill="none" xmlns="http://www.w3.org/2000/svg">
<path d="M58.6492 65.6932L1.30898 40.6438L6.49406 34.728L63.1798 58.0493C63.1798 58.0493 68.9523 55.8632 84.6254 55.8554C98.891 55.8483 109.707 71.7995 100.366 82.1688C91.746 91.7385 75.9003 89.4586 69.0201 82.1843C62.1398 74.91 58.6492 65.6932 58.6492 65.6932Z" fill="#6C6C6C" stroke="black"/>
<path d="M73.9197 77.6939C73.9197 77.6939 86.6096 82.5081 91.2542 77.7156C101.339 67.3095 82.4775 63.2555 82.4775 63.2555" stroke="black"/>
<path d="M51.8288 24.5312L30.5943 2.75742L34.1093 1.1517L55.3826 22.0468C55.3826 22.0468 58.4381 22.1816 65.5785 25.138C72.0777 27.8288 73.8946 36.8413 67.6187 39.6082C61.8267 42.1619 55.0536 38.1733 53.3378 33.6955C51.622 29.2176 51.8288 24.5312 51.8288 24.5312Z" fill="#6C6C6C" stroke="black"/>
<path d="M56.4448 32.6587C56.4448 32.6587 61.2864 37.1587 64.3362 35.9417C70.9584 33.2992 63.1575 27.9659 63.1575 27.9659" stroke="black"/>
</svg>
