<svg width="234" height="272" viewBox="0 0 234 272" fill="none" xmlns="http://www.w3.org/2000/svg">
<path d="M147.425 257.274C139.266 254.118 136.451 238.86 136.451 238.86L153.005 231.722L154.16 233.977L170.521 223.833L185.151 227.592C185.151 227.592 208.445 230.033 209.792 229.501C214.433 227.667 218.261 222.523 220.186 222.523C221.47 222.523 218.839 227.596 218.839 227.596C218.839 227.596 227.012 217.221 227.308 221.209C227.381 222.193 226.785 223.248 226.156 224.069C227.458 222.81 229.523 221.197 231.543 221.209C237.308 221.246 221.342 231.73 221.342 231.73L213.257 233.983C213.257 233.983 211.48 236.308 209.793 236.801C205.942 237.928 188.039 230.975 188.039 230.975C188.039 230.975 157.628 261.22 147.425 257.274Z" fill="#EBBBA1" stroke="#9D6256" stroke-opacity="0.8" stroke-linecap="round"/>
<path d="M184.766 227.802L188.231 231.184" stroke="#9D6256" stroke-opacity="0.8" stroke-linecap="round"/>
<g filter="url(#filter0_d_462_1213)">
<path d="M49.4682 171.41L38.922 182.307C38.922 182.307 34.1704 177.026 33.5314 173.101C32.8924 169.175 34.4945 161.828 34.4945 161.828C34.4945 161.828 50.2177 166.713 57.9786 166.713C66.8336 166.713 74.341 164.27 74.341 164.27C74.341 164.27 89.3022 201.384 114.958 197.526C142.445 193.392 128.433 165.022 128.433 165.022C128.433 165.022 136.751 167.652 142.293 166.713C147.525 165.826 156.346 162.955 156.346 162.955C156.346 162.955 157.1 177.198 154.958 183.434C152.815 189.671 145.718 197.526 145.718 197.526C145.718 197.526 150.552 215.587 143.985 223.454C139.75 228.526 131.665 235.102 131.665 235.102L108.758 240.927L86.6205 245.248C86.6205 245.248 89.8986 228.807 88.5455 220.26C87.1923 211.712 80.8455 201.283 80.8455 201.283C80.8455 201.283 70.0609 194.23 63.5206 188.507C56.9803 182.784 49.4682 171.41 49.4682 171.41Z" fill="#F0F0F0"/>
<path d="M49.4682 171.41L38.922 182.307C38.922 182.307 34.1704 177.026 33.5314 173.101C32.8924 169.175 34.4945 161.828 34.4945 161.828C34.4945 161.828 50.2177 166.713 57.9786 166.713C66.8336 166.713 74.341 164.27 74.341 164.27C74.341 164.27 89.3022 201.384 114.958 197.526C142.445 193.392 128.433 165.022 128.433 165.022C128.433 165.022 136.751 167.652 142.293 166.713C147.525 165.826 156.346 162.955 156.346 162.955C156.346 162.955 157.1 177.198 154.958 183.434C152.815 189.671 145.718 197.526 145.718 197.526C145.718 197.526 150.552 215.587 143.985 223.454C139.75 228.526 131.665 235.102 131.665 235.102L108.758 240.927L86.6205 245.248C86.6205 245.248 89.8986 228.807 88.5455 220.26C87.1923 211.712 80.8455 201.283 80.8455 201.283C80.8455 201.283 70.0609 194.23 63.5206 188.507C56.9803 182.784 49.4682 171.41 49.4682 171.41Z" stroke="#6C6C6C" stroke-width="2" stroke-linecap="round"/>
</g>
<g filter="url(#filter1_i_462_1213)">
<path d="M117.846 257.46C107.258 258.4 95.7085 258.4 95.7085 258.4C95.7085 258.4 99.8999 256.615 104.178 254.642C108.285 252.749 113.033 250.884 113.033 250.884C113.033 250.884 120.628 250.778 125.161 250.12C129.694 249.463 138.636 247.315 138.636 247.315V253.515C138.636 253.515 125.322 256.797 117.846 257.46Z" fill="white"/>
</g>
<path d="M117.846 257.46C107.258 258.4 95.7085 258.4 95.7085 258.4C95.7085 258.4 99.8999 256.615 104.178 254.642C108.285 252.749 113.033 250.884 113.033 250.884C113.033 250.884 120.628 250.778 125.161 250.12C129.694 249.463 138.636 247.315 138.636 247.315V253.515C138.636 253.515 125.322 256.797 117.846 257.46Z" stroke="#6C6C6C" stroke-width="2" stroke-linecap="round"/>
<path d="M157.167 174.604C157.167 174.604 169.043 187.456 166.562 197.051C164.991 203.125 157.167 210.584 157.167 210.584L157.693 218.569C157.693 218.569 154.613 219.132 151.533 219.132C150.246 219.354 148.934 219.677 147.935 219.948C146.67 220.455 145.758 221.011 145.758 221.011L146.216 220.447V214.219V197.051C146.216 197.051 151.056 193.013 153.458 188.319C155.861 183.626 157.167 174.604 157.167 174.604Z" fill="#5E9CC5"/>
<path d="M157.167 210.584C157.167 210.584 164.991 203.125 166.562 197.051C169.043 187.456 157.167 174.604 157.167 174.604C157.167 174.604 155.861 183.626 153.458 188.319C151.056 193.013 146.216 197.051 146.216 197.051V214.219M157.167 210.584L157.693 218.569M157.167 210.584C157.167 210.584 153.131 210.716 150.903 211.19C148.676 211.663 146.216 214.219 146.216 214.219M157.693 218.569C157.693 218.569 154.613 219.132 151.533 219.132M157.693 218.569C157.693 218.569 154.806 218.569 151.533 219.132M151.533 219.132C148.838 219.132 145.758 221.011 145.758 221.011L146.216 220.447M151.533 219.132C148.926 219.581 146.216 220.447 146.216 220.447M146.216 214.219V220.447" stroke="#2D3C5D" stroke-width="2" stroke-linecap="round"/>
<g filter="url(#filter2_i_462_1213)">
<path d="M164.396 152.285L145.598 107.718C145.598 107.718 143.467 126.419 122.405 143.163C110.93 152.285 99.9443 147.594 99.9443 147.594V150.721C99.9443 150.721 108.482 153.515 114.189 156.943C121.203 161.156 130.975 166.455 139.022 166.525C147.347 166.597 156.924 161.64 156.924 161.64V174.04C156.924 174.04 162.489 180.271 164.396 184.75C166.303 189.228 167.704 197.15 167.704 197.15C167.704 197.15 169.111 190.066 169.523 182.258C170.5 163.753 164.396 152.285 164.396 152.285Z" fill="url(#paint0_linear_462_1213)"/>
</g>
<path d="M164.396 152.285L145.598 107.718C145.598 107.718 143.467 126.419 122.405 143.163C110.93 152.285 99.9443 147.594 99.9443 147.594V150.721C99.9443 150.721 108.482 153.515 114.189 156.943C121.203 161.156 130.975 166.455 139.022 166.525C147.347 166.597 156.924 161.64 156.924 161.64V174.04C156.924 174.04 162.489 180.271 164.396 184.75C166.303 189.228 167.704 197.15 167.704 197.15C167.704 197.15 169.111 190.066 169.523 182.258C170.5 163.753 164.396 152.285 164.396 152.285Z" stroke="#D9A847" stroke-width="2"/>
<g filter="url(#filter3_i_462_1213)">
<path d="M127.46 34.6311C127.46 34.6311 124.03 26.5021 126.883 22.7945C129.469 19.4341 133.221 19.5636 137.47 19.7884C144.785 20.1753 146.635 24.8485 149.983 28.6189C159.993 39.8919 164.115 46.9475 165.383 60.1832C167.308 80.2867 158.241 75.9657 157.746 86.8626C157.66 88.7684 158.248 88.4183 157.683 90.2445C156.822 93.0276 151.715 97.1962 151.715 97.1962L155.565 85.3596C155.565 85.3596 159.448 74.2556 152.87 63.3772C145.94 51.9164 127.46 34.6311 127.46 34.6311Z" fill="url(#paint1_linear_462_1213)"/>
</g>
<path d="M127.46 34.6311C127.46 34.6311 124.03 26.5021 126.883 22.7945C129.469 19.4341 133.221 19.5636 137.47 19.7884C144.785 20.1753 146.635 24.8485 149.983 28.6189C159.993 39.8919 164.115 46.9475 165.383 60.1832C167.308 80.2867 158.241 75.9657 157.746 86.8626C157.66 88.7684 158.248 88.4183 157.683 90.2445C156.822 93.0276 151.715 97.1962 151.715 97.1962L155.565 85.3596C155.565 85.3596 159.448 74.2556 152.87 63.3772C145.94 51.9164 127.46 34.6311 127.46 34.6311Z" stroke="#D9A847" stroke-width="2"/>
<g filter="url(#filter4_i_462_1213)">
<path d="M127.46 34.2553C127.46 34.2553 128.423 31.625 125.728 22.6066C124.817 19.5581 119.568 17.7247 117.45 17.9095C93.7729 19.9762 76.448 39.5161 66.0531 50.789C60.2538 57.0781 57.7756 70.8925 57.7756 70.8925L51.8082 79.3473C51.8082 79.3473 53.4034 58.9182 60.0856 48.1587C67.0434 36.9555 85.8805 25.9885 85.8805 25.9885C85.8805 25.9885 73.0725 30.255 66.0531 35.0068C55.6278 42.0644 51.3251 48.3904 44.8782 59.0559C34.4092 76.3753 35.5421 91.4211 30.0559 111.1C20.5615 145.155 -5.96411 164.254 2.72148 193.956C7.38661 209.909 28.3239 219.132 28.3239 219.132L27.1683 214.811C27.1683 214.811 32.4667 221.211 36.6014 223.266C40.736 225.32 48.3432 225.332 48.3432 225.332V220.447C48.3432 220.447 32.2597 211.357 31.7889 201.096C31.4665 194.069 38.5257 182.495 38.5257 182.495C38.5257 182.495 33.8084 177.471 32.9439 173.289C32.0794 169.107 34.0983 161.076 34.0983 161.076C34.0983 161.076 49.2805 166.268 59.3156 165.961C65.2573 165.78 69.8019 167.277 74.3305 163.519C76.8563 161.423 77.2854 159.861 78.9511 156.567C82.6092 149.334 86.6505 149.052 86.6505 149.052L89.5495 131.955C89.5495 131.955 77.2289 116.722 74.1496 117.112C63.7553 118.427 52.4064 108.602 56.0438 102.833C62.2037 93.0627 66.9598 108.55 72.598 104.711C78.5236 100.677 76.448 87.0504 76.448 87.0504C76.448 87.0504 79.7109 84.6969 80.8761 82.1655C82.0413 79.6342 82.4155 74.0865 82.4155 74.0865C82.4155 74.0865 97.4131 67.1085 105.515 60.5589C115.968 52.1092 127.46 34.2553 127.46 34.2553Z" fill="url(#paint2_linear_462_1213)"/>
</g>
<path d="M127.46 34.2553C127.46 34.2553 128.423 31.625 125.728 22.6066C124.817 19.5581 119.568 17.7247 117.45 17.9095C93.7729 19.9762 76.448 39.5161 66.0531 50.789C60.2538 57.0781 57.7756 70.8925 57.7756 70.8925L51.8082 79.3473C51.8082 79.3473 53.4034 58.9182 60.0856 48.1587C67.0434 36.9555 85.8805 25.9885 85.8805 25.9885C85.8805 25.9885 73.0725 30.255 66.0531 35.0068C55.6278 42.0644 51.3251 48.3904 44.8782 59.0559C34.4092 76.3753 35.5421 91.4211 30.0559 111.1C20.5615 145.155 -5.96411 164.254 2.72148 193.956C7.38661 209.909 28.3239 219.132 28.3239 219.132L27.1683 214.811C27.1683 214.811 32.4667 221.211 36.6014 223.266C40.736 225.32 48.3432 225.332 48.3432 225.332V220.447C48.3432 220.447 32.2597 211.357 31.7889 201.096C31.4665 194.069 38.5257 182.495 38.5257 182.495C38.5257 182.495 33.8084 177.471 32.9439 173.289C32.0794 169.107 34.0983 161.076 34.0983 161.076C34.0983 161.076 49.2805 166.268 59.3156 165.961C65.2573 165.78 69.8019 167.277 74.3305 163.519C76.8563 161.423 77.2854 159.861 78.9511 156.567C82.6092 149.334 86.6505 149.052 86.6505 149.052L89.5495 131.955C89.5495 131.955 77.2289 116.722 74.1496 117.112C63.7553 118.427 52.4064 108.602 56.0438 102.833C62.2037 93.0627 66.9598 108.55 72.598 104.711C78.5236 100.677 76.448 87.0504 76.448 87.0504C76.448 87.0504 79.7109 84.6969 80.8761 82.1655C82.0413 79.6342 82.4155 74.0865 82.4155 74.0865C82.4155 74.0865 97.4131 67.1085 105.515 60.5589C115.968 52.1092 127.46 34.2553 127.46 34.2553Z" stroke="#D9A847" stroke-width="2"/>
<path d="M49.5092 171.034L39.3068 181.931C39.3068 181.931 34.4443 177.037 33.7245 172.725C33.0765 168.844 34.6867 162.392 34.6867 162.392C34.6867 162.392 40.3753 164.54 43.1568 166.337C45.9383 168.135 49.5092 171.034 49.5092 171.034Z" fill="#D9D9D9" stroke="#505050" stroke-width="0.8" stroke-linecap="round"/>
<path d="M87.2388 154.2V129.512L114.369 147.852C114.369 147.852 113.448 153.435 113.788 156.786C114.129 160.138 116.114 165.016 116.114 165.016C116.114 165.016 114.147 170.736 111.463 171.364C100.417 173.951 87.2388 154.2 87.2388 154.2Z" fill="#EFBFA8" stroke="#683A1D" stroke-width="2"/>
<path d="M72.8371 103.322C78.701 99.6856 76.3162 86.6095 76.3162 86.6095C76.3162 86.6095 79.7476 83.6818 80.9554 81.0998C82.1632 78.5179 82.5018 73.3864 82.5018 73.3864C82.5018 73.3864 100.303 64.9392 108.984 57.4084C117.665 49.8777 126.96 34.819 126.96 34.819L150.543 59.0613C150.543 59.0613 154.837 66.7309 155.955 72.1008C158.379 83.7399 152.669 86.6095 149.479 101.853C148.028 108.79 150.543 111.492 150.543 118.565C150.543 128.666 133.241 149.052 122.708 149.052C92.5294 149.052 74.19 118.565 74.19 118.565C74.19 118.565 65.2987 120.402 59.3059 113.239C56.1164 109.427 53.6 106.019 56.6898 101.853C62.6823 93.772 67.2563 106.783 72.8371 103.322Z" fill="#EFBFA8" stroke="#683A1D" stroke-width="2"/>
<path d="M107.352 126.649C107.352 126.649 107.54 125.791 107.92 125.442C108.301 125.093 109.301 124.862 109.301 124.862" stroke="#A02B62" stroke-opacity="0.8" stroke-linecap="round"/>
<path d="M136.237 130.032C136.237 130.032 136.312 129.158 136.05 128.716C135.789 128.275 134.899 127.772 134.899 127.772" stroke="#A02B62" stroke-opacity="0.8" stroke-linecap="round"/>
<g filter="url(#filter5_i_462_1213)">
<path d="M52.3857 77.3559C52.3857 77.3559 53.9031 56.1492 62.2032 46.1673C66.0981 41.4831 68.1297 39.608 72.7906 35.6458C77.4515 31.6837 78.7581 30.1972 86.073 26.0638C88.9746 24.4243 94.158 23.0577 94.158 23.0577C94.158 23.0577 83.0097 20.4363 80.1056 14.4549C77.9881 10.0937 81.8381 -0.200028 86.843 1.11516C95.2159 3.31535 103.783 14.7908 103.783 14.7908L112.06 14.2272C112.06 14.2272 118.585 -0.490185 125.535 1.639C129.391 2.82027 131.744 5.12414 132.658 8.96644C133.9 14.1884 125.535 20.8031 125.535 20.8031C125.535 20.8031 123.192 17.0168 113.6 17.7969C112.06 17.9222 109.328 18.6592 106.67 19.4879C102.533 20.7781 96.468 23.8092 96.468 23.8092C96.468 23.8092 81.0681 31.7003 67.2082 48.0461C60.4301 56.0399 57.1982 70.9679 57.1982 70.9679L52.3857 77.3559Z" fill="#1E1E1D"/>
</g>
<path d="M52.3857 77.3559C52.3857 77.3559 53.9031 56.1492 62.2032 46.1673C66.0981 41.4831 68.1297 39.608 72.7906 35.6458C77.4515 31.6837 78.7581 30.1972 86.073 26.0638C88.9746 24.4243 94.158 23.0577 94.158 23.0577C94.158 23.0577 83.0097 20.4363 80.1056 14.4549C77.9881 10.0937 81.8381 -0.200028 86.843 1.11516C95.2159 3.31535 103.783 14.7908 103.783 14.7908L112.06 14.2272C112.06 14.2272 118.585 -0.490185 125.535 1.639C129.391 2.82027 131.744 5.12414 132.658 8.96644C133.9 14.1884 125.535 20.8031 125.535 20.8031C125.535 20.8031 123.192 17.0168 113.6 17.7969C112.06 17.9222 109.328 18.6592 106.67 19.4879C102.533 20.7781 96.468 23.8092 96.468 23.8092C96.468 23.8092 81.0681 31.7003 67.2082 48.0461C60.4301 56.0399 57.1982 70.9679 57.1982 70.9679L52.3857 77.3559Z" stroke="black" stroke-width="2"/>
<path d="M119.375 17.1579C119.375 17.1579 120.182 14.1896 121.685 12.6487C123.189 11.1079 127.075 9.26685 127.075 9.26685" stroke="black" stroke-width="4" stroke-linecap="round"/>
<path d="M112.446 14.1517L114.563 17.1579" stroke="black" stroke-width="4" stroke-linecap="round"/>
<path d="M104.361 15.2792L106.863 19.0368" stroke="black" stroke-width="4" stroke-linecap="round"/>
<path d="M101.281 21.1035C101.281 21.1035 98.0944 17.6082 95.313 16.0307C92.5316 14.4532 87.4205 13.1018 87.4205 13.1018" stroke="black" stroke-width="4" stroke-linecap="round"/>
<path d="M68.3744 110.348C67.0269 112.791 67.0268 114.294 67.6044 115.233" stroke="#9D6256" stroke-opacity="0.8" stroke-width="2" stroke-linecap="round"/>
<path d="M61.4443 105.087C63.6003 105.989 70.6843 110.16 71.2618 113.354" stroke="#9D6256" stroke-opacity="0.8" stroke-width="2" stroke-linecap="round"/>
<path d="M87.4314 149.052C87.4314 149.052 87.5484 152.782 88.2014 154.876C89.5489 159.197 92.9821 161.711 98.0188 164.646C103.056 167.581 111.686 169.531 111.686 169.531C111.686 169.531 109.022 182.677 102.254 183.998C90.7039 186.253 74.9189 162.579 74.9189 162.579L84.3514 149.052H87.4314Z" fill="#6CA6CE" stroke="#2D3C5D" stroke-width="2" stroke-linecap="round"/>
<path d="M124.391 179.865C118.817 182.321 112.263 169.531 112.263 169.531C112.263 169.531 115.921 166.901 114.958 162.767C113.463 156.344 114.381 154.5 114.381 154.5C114.381 154.5 117.712 158.197 120.156 160.325C122.599 162.453 127.086 164.458 127.086 164.458C127.086 164.458 130.358 177.234 124.391 179.865Z" fill="#69A5CF" stroke="#2D3C5D" stroke-width="2" stroke-linecap="round"/>
<g filter="url(#filter6_i_462_1213)">
<path d="M93.3982 190.01C83.2044 183.56 74.3408 162.767 74.3408 162.767C74.3408 162.767 91.4732 187.568 102.446 183.998C108.651 181.979 112.071 170.095 112.071 170.095C112.071 170.095 119.276 185.19 126.123 178.925C129.203 176.107 127.471 164.646 127.471 164.646C127.471 164.646 134.042 179.573 130.358 186.253C126.612 193.044 121.484 196.301 113.611 196.962C105.368 197.654 100.34 194.403 93.3982 190.01Z" fill="url(#paint3_linear_462_1213)"/>
</g>
<path d="M93.3982 190.01C83.2044 183.56 74.3408 162.767 74.3408 162.767C74.3408 162.767 91.4732 187.568 102.446 183.998C108.651 181.979 112.071 170.095 112.071 170.095C112.071 170.095 119.276 185.19 126.123 178.925C129.203 176.107 127.471 164.646 127.471 164.646C127.471 164.646 134.042 179.573 130.358 186.253C126.612 193.044 121.484 196.301 113.611 196.962C105.368 197.654 100.34 194.403 93.3982 190.01Z" stroke="#2D3C5D" stroke-width="2" stroke-linecap="round"/>
<g filter="url(#filter7_f_462_1213)">
<path d="M69.1436 185.689C69.1436 185.689 73.5506 189.82 75.881 192.829C78.2115 195.837 80.6935 201.095 80.6935 201.095" stroke="#6C6C6C" stroke-width="2" stroke-linecap="round"/>
</g>
<g filter="url(#filter8_f_462_1213)">
<path d="M138.857 185.501C138.857 185.501 141.817 189.316 143.277 191.988C144.738 194.661 146.033 199.141 146.033 199.141" stroke="#6C6C6C" stroke-width="2" stroke-linecap="round"/>
</g>
<g filter="url(#filter9_f_462_1213)">
<path d="M127.663 229.466C127.663 229.466 121.82 231.313 118.204 232.601C114.588 233.889 109.183 235.778 109.183 235.778" stroke="#6C6C6C" stroke-linecap="round"/>
</g>
<g filter="url(#filter10_f_462_1213)">
<ellipse cx="10.6158" cy="12.3321" rx="10.6158" ry="12.3321" transform="matrix(0.629258 -0.777197 0.791836 0.610734 74.6392 117.455)" fill="#EAA896" fill-opacity="0.19"/>
</g>
<g filter="url(#filter11_f_462_1213)">
<path d="M145.014 108.486C150.407 112.645 151.788 119.711 148.099 124.268C144.409 128.824 137.047 129.146 131.654 124.987C126.261 120.827 124.879 113.761 128.569 109.204C132.258 104.648 139.621 104.326 145.014 108.486Z" fill="#EAA896" fill-opacity="0.19"/>
</g>
<g filter="url(#filter12_f_462_1213)">
<path d="M145.014 108.486C150.407 112.645 151.788 119.711 148.099 124.268C144.409 128.824 137.047 129.146 131.654 124.987C126.261 120.827 124.879 113.761 128.569 109.204C132.258 104.648 139.621 104.326 145.014 108.486Z" fill="#EAA896" fill-opacity="0.19"/>
</g>
<g filter="url(#filter13_f_462_1213)">
<path d="M96.8888 106.982C102.282 111.142 103.663 118.208 99.9738 122.764C96.2845 127.321 88.9218 127.643 83.5287 123.483C78.1356 119.324 76.7544 112.258 80.4437 107.701C84.133 103.144 91.4957 102.823 96.8888 106.982Z" fill="#EAA896" fill-opacity="0.19"/>
</g>
<g filter="url(#filter14_f_462_1213)">
<path d="M96.8888 106.982C102.282 111.142 103.663 118.208 99.9738 122.764C96.2845 127.321 88.9218 127.643 83.5287 123.483C78.1356 119.324 76.7544 112.258 80.4437 107.701C84.133 103.144 91.4957 102.823 96.8888 106.982Z" fill="#EAA896" fill-opacity="0.19"/>
</g>
<g filter="url(#filter15_i_462_1213)">
<path d="M88.779 220.26C87.7732 210.807 80.5015 200.908 80.5015 200.908C80.5015 200.908 75.5121 199.405 64.9248 190.574C58.3655 185.103 48.9473 171.598 48.9473 171.598C48.9473 171.598 28.7297 190.934 32.1999 204.665C35.6661 218.381 48.9473 220.26 48.9473 220.26V230.03C48.9473 230.03 55.2635 227.587 60.1123 227.587C64.9612 227.587 72.8016 230.03 72.8016 230.03L74.5498 223.454L75.5121 248.818L86.469 245.624C86.469 245.624 89.5788 227.777 88.779 220.26Z" fill="url(#paint4_linear_462_1213)"/>
</g>
<path d="M88.779 220.26C87.7732 210.807 80.5015 200.908 80.5015 200.908C80.5015 200.908 75.5121 199.405 64.9248 190.574C58.3655 185.103 48.9473 171.598 48.9473 171.598C48.9473 171.598 28.7297 190.934 32.1999 204.665C35.6661 218.381 48.9473 220.26 48.9473 220.26V230.03C48.9473 230.03 55.2635 227.587 60.1123 227.587C64.9612 227.587 72.8016 230.03 72.8016 230.03L74.5498 223.454L75.5121 248.818L86.469 245.624C86.469 245.624 89.5788 227.777 88.779 220.26Z" stroke="#2D3C5D" stroke-width="2" stroke-linecap="round"/>
<path d="M48.9312 229.842V220.635C48.9312 220.635 53.4772 217.872 58.3636 218.569C67.026 219.804 74.5335 223.641 74.5335 223.641L72.801 229.842C72.801 229.842 65.4944 227.529 60.6736 227.587C56.1478 227.642 48.9312 229.842 48.9312 229.842Z" stroke="#2D3C5D" stroke-width="2" stroke-linecap="round"/>
<g filter="url(#filter16_f_462_1213)">
<path d="M75.8812 205.605C75.8812 205.605 79.5387 210.49 79.5387 214.247C79.5387 218.941 74.5337 223.454 74.5337 223.454" stroke="#2D3C5D" stroke-width="2" stroke-linecap="round"/>
</g>
<g filter="url(#filter17_f_462_1213)">
<path d="M155.341 198.95C155.341 198.95 155.178 200.354 154.376 202.871C153.497 205.629 151.532 208.36 151.532 208.36" stroke="#2D3C5D" stroke-width="2" stroke-linecap="round"/>
</g>
<g filter="url(#filter18_f_462_1213)">
<path d="M53.5518 207.484C53.5518 207.484 55.1804 209.689 56.1581 212.413C57.3096 215.622 57.7867 218.381 57.7867 218.381" stroke="#3C6BAD" stroke-width="2" stroke-linecap="round"/>
</g>
<g filter="url(#filter19_f_462_1213)">
<path d="M45.2739 211.805C45.2739 211.805 47.3467 213.326 48.5911 215.205C50.0566 217.417 50.6639 219.32 50.6639 219.32" stroke="#3278C9" stroke-width="2" stroke-linecap="round"/>
</g>
<ellipse cx="1.15233" cy="0.778965" rx="1.15233" ry="0.778965" transform="matrix(0.908303 -0.418313 0.320071 0.947393 118.809 117.318)" fill="#9D6256" fill-opacity="0.19"/>
<g filter="url(#filter20_i_462_1213)">
<path d="M113.042 73.9475C115.144 74.0928 119.072 75.2571 118.049 72.2985C117.264 70.0254 106.312 70.4311 100.497 73.0612C96.5596 74.8419 91.8587 80.064 91.8587 80.064C91.8587 80.064 96.8253 76.658 100.31 75.6323C105.452 74.1191 108.821 73.6558 113.042 73.9475Z" fill="#D8AB5B"/>
</g>
<path d="M113.042 73.9475C115.144 74.0928 119.072 75.2571 118.049 72.2985C117.264 70.0254 106.312 70.4311 100.497 73.0612C96.5596 74.8419 91.8587 80.064 91.8587 80.064C91.8587 80.064 96.8253 76.658 100.31 75.6323C105.452 74.1191 108.821 73.6558 113.042 73.9475Z" stroke="#A3771F" stroke-linecap="round"/>
<g filter="url(#filter21_i_462_1213)">
<path d="M143.813 77.8157C142.273 77.8157 140.025 79.3321 140.573 76.8772C140.995 74.9911 147.45 75.518 150.921 77.8157C153.272 79.3713 154.016 83.4402 154.016 83.4402C154.016 83.4402 152.668 81.3735 151.078 79.9675C148.591 77.7702 146.299 77.8157 143.813 77.8157Z" fill="#D8AB5B"/>
</g>
<path d="M143.813 77.8157C142.273 77.8157 140.025 79.3321 140.573 76.8772C140.995 74.9911 147.45 75.518 150.921 77.8157C153.272 79.3713 154.016 83.4402 154.016 83.4402C154.016 83.4402 152.668 81.3735 151.078 79.9675C148.591 77.7702 146.299 77.8157 143.813 77.8157Z" stroke="#A3771F" stroke-linecap="round"/>
<path d="M60.1381 267.418C53.1656 261.241 50.2636 229.603 50.2636 229.603C50.2636 229.603 55.8445 227.694 60.1381 227.39C64.4318 227.087 72.4265 228.805 72.4265 228.805L75.3034 248.607C75.3034 248.607 109.603 240.553 127.663 235.831C138.442 233.013 146.913 220.26 146.913 220.26C146.913 220.26 160.629 218.241 165.658 219.521C168.911 220.348 180.751 225.877 179.83 229.466C179.474 230.855 171.64 226.793 166.384 226.346C162.804 226.041 159.81 225.896 159.81 225.896C159.81 225.896 165.273 228.151 170.205 230.029C175.823 232.169 180.6 234.914 177.328 234.914C175.711 234.914 161.35 232.66 161.35 232.66C161.35 232.66 172.9 235.854 175.21 237.921C177.52 239.987 158.655 236.981 158.655 236.981C158.655 236.981 168.444 239.261 167.318 241.49C166.567 242.976 159.233 239.799 152.775 243.745C149.558 245.71 147.296 246.646 143.448 247.406C139.248 248.235 137.537 247.454 132.476 247.406C101.96 247.117 71.1057 277.134 60.1381 267.418Z" fill="#ECC0A7" stroke="#9D6256" stroke-opacity="0.8" stroke-width="2" stroke-linecap="round"/>
<path d="M135.749 92.499C134.249 95.4909 134.628 99.7366 134.628 99.7366L148.084 97.6662C148.084 97.6662 148.436 93.6121 150.008 91.278C151.267 89.4097 153.277 88.0832 153.277 88.0832L150.202 86.5811L151.164 83.1992L148.088 84.703L148.665 82.2605C148.665 82.2605 143.934 83.8373 141.269 85.8322C138.947 87.5699 137.035 89.9322 135.749 92.499Z" fill="black" stroke="#28201F"/>
<path d="M134.82 98.0457C135.686 92.1283 141.714 83.4454 146.356 87.3338C149.047 89.5874 148.767 93.8718 148.083 98.042C147.313 102.739 146.351 104.648 142.608 105.647C136.919 107.165 133.857 104.622 134.82 98.0457Z" fill="#F0F2F0" stroke="#28201F"/>
<path d="M146.121 98.8733C145.224 103.282 142.385 105.185 139.476 104.621C135.171 103.787 134.411 100.183 135.171 96.4446C135.932 92.7063 139.321 90.5202 142.23 91.0839C145.139 91.6476 146.881 95.135 146.121 98.8733Z" fill="url(#paint5_radial_462_1213)"/>
<path d="M143.676 100.014C143.287 101.927 141.201 102.485 139.865 102.226C138.528 101.967 137.092 100.236 137.481 98.3234C137.87 96.4108 139.907 93.5573 142.23 94.19C144.989 94.9415 144.065 98.1018 143.676 100.014Z" fill="black"/>
<path d="M142.13 91.5739C144.66 92.0641 146.36 95.1882 145.63 98.7782C145.199 100.898 144.312 102.36 143.24 103.225C142.174 104.085 140.889 104.386 139.576 104.131C137.57 103.743 136.448 102.731 135.885 101.422C135.308 100.079 135.292 98.3586 135.662 96.5394C136.374 93.0377 139.525 91.0693 142.13 91.5739ZM142.365 93.7083C140.953 93.3236 139.683 94.0193 138.772 94.9567C137.859 95.8966 137.205 97.1741 136.991 98.2281C136.765 99.3364 137.07 100.382 137.61 101.177C138.142 101.963 138.939 102.555 139.765 102.716C140.533 102.864 141.498 102.779 142.336 102.385C143.189 101.984 143.935 101.249 144.167 100.109C144.352 99.1982 144.704 97.8399 144.633 96.6335C144.598 96.0177 144.452 95.3953 144.089 94.865C143.72 94.3249 143.155 93.9234 142.365 93.7083ZM137.972 98.4184C138.147 97.5599 138.705 96.4543 139.489 95.6476C140.275 94.8383 141.184 94.4236 142.094 94.6713C142.684 94.8319 143.038 95.1077 143.26 95.4313C143.488 95.7646 143.604 96.1933 143.633 96.7003C143.694 97.7396 143.389 98.9173 143.185 99.9188C143.028 100.691 142.536 101.191 141.915 101.483C141.28 101.782 140.533 101.846 139.964 101.736C139.454 101.637 138.864 101.236 138.442 100.613C138.026 100 137.809 99.2227 137.972 98.4184Z" stroke="black"/>
<path d="M142.969 93.3149C144.025 93.5196 144.688 94.5849 144.465 95.6857C144.241 96.7866 143.21 97.5245 142.154 97.3198C141.098 97.1152 140.434 96.0491 140.658 94.9482C140.883 93.8475 141.913 93.1103 142.969 93.3149Z" fill="url(#paint6_radial_462_1213)" stroke="#122949" stroke-width="0.2"/>
<path d="M124.586 101.705C124.586 101.705 124.49 106.079 125.405 108.353C126.388 110.798 128.468 110.946 129.991 113.292C131.128 115.045 124.586 118.239 124.586 118.239" stroke="#9D6256" stroke-opacity="0.8"/>
<g filter="url(#filter22_f_462_1213)">
<path d="M94.9385 90.4324C94.9385 90.4324 96.1364 85.4359 102.446 82.5413C105.532 81.1256 113.033 81.0382 113.033 81.0382" stroke="#9D6256" stroke-opacity="0.8" stroke-width="2" stroke-linecap="round"/>
</g>
<g filter="url(#filter23_f_462_1213)">
<path d="M134.074 92.1995C134.074 92.1995 134.003 89.1707 139.315 84.9124C141.95 82.8004 147.193 81.414 147.193 81.414" stroke="#9D6256" stroke-opacity="0.8" stroke-width="2" stroke-linecap="round"/>
</g>
<path d="M97.6859 89.2083C94.8329 92.8771 95.362 97.9478 95.362 97.9478L115.512 98.6993C115.512 98.6993 116.908 97.5232 117.353 95.6932C118.239 92.0517 115.899 86.2951 115.899 86.2951L119.193 83.1999L115.512 83.7461L116.48 81.015L111.056 83.1999L112.412 80.2867L108.538 83.1999C108.538 83.1999 101.367 84.4744 97.6859 89.2083Z" fill="black" stroke="#28201F"/>
<path d="M95.7514 95.1295C97.2126 89.1191 104.36 85.7353 111.012 85.7354C117.156 85.7354 117.078 97.0083 116.295 101.142C115.31 106.344 108.751 106.451 103.382 105.275C97.569 104.002 94.3959 100.705 95.7514 95.1295Z" fill="url(#paint7_linear_462_1213)" stroke="#28201F"/>
<path d="M112.869 97.6349C111.992 101.877 108.312 104.749 104.65 104.051C100.988 103.353 98.7296 99.3482 99.6065 95.1065C100.483 90.8648 104.163 87.9923 107.825 88.6904C111.488 89.3886 113.746 93.3932 112.869 97.6349Z" fill="url(#paint8_radial_462_1213)"/>
<path d="M109.954 98.3235C109.361 101.193 106.923 101.514 105.241 101.193C103.558 100.872 101.805 98.8027 102.254 96.6325C102.254 93.8143 105.191 91.6147 106.874 91.9355C108.556 92.2562 110.724 94.599 109.954 98.3235Z" fill="black"/>
<path d="M107.725 89.1802C111.049 89.8142 113.213 93.4987 112.377 97.5413C111.542 101.584 108.076 104.195 104.751 103.562C101.427 102.928 99.2619 99.243 100.098 95.2003C100.933 91.1575 104.4 88.5464 107.725 89.1802ZM109.462 98.2301C109.197 99.5138 108.542 100.172 107.806 100.501C107.039 100.843 106.123 100.853 105.342 100.704C104.651 100.572 103.894 100.063 103.358 99.3139C102.828 98.5716 102.554 97.6482 102.745 96.7258L102.755 96.676L102.755 96.6254C102.755 95.3916 103.401 94.2639 104.269 93.4716C104.701 93.0776 105.174 92.7798 105.624 92.5997C106.079 92.4175 106.476 92.3686 106.773 92.4251C108.141 92.686 110.185 94.7313 109.462 98.2301ZM110.444 98.4173C111.261 94.4672 108.972 91.8265 106.975 91.4458C106.43 91.342 105.83 91.4476 105.26 91.6756C104.686 91.9058 104.109 92.2739 103.596 92.742C102.587 93.6634 101.772 95.0245 101.753 96.5865C101.515 97.817 101.892 98.9955 102.538 99.8991C103.188 100.807 104.148 101.494 105.14 101.683C106.042 101.855 107.185 101.864 108.206 101.409C109.257 100.94 110.117 100.003 110.444 98.4173Z" stroke="black"/>
<path d="M108.562 91.0858C109.708 91.3044 110.427 92.454 110.181 93.6449C109.935 94.8356 108.813 95.6345 107.667 95.4161C106.521 95.1977 105.802 94.0478 106.048 92.8571C106.295 91.6661 107.416 90.8673 108.562 91.0858Z" fill="url(#paint9_radial_462_1213)" stroke="#122949" stroke-width="0.2"/>
<path d="M122.651 133.645C116.473 132.68 108.549 126.174 108.549 126.174C108.549 126.174 116.021 126.036 121.064 126.931C122.194 127.131 123.768 128.833 123.768 128.833C123.768 128.833 126.399 127.516 128.085 127.546C130.573 127.59 135.363 128.833 135.363 128.833C135.363 128.833 126.694 134.277 122.651 133.645Z" fill="#C76C90" stroke="#A02964" stroke-opacity="0.8" stroke-linecap="round"/>
<path d="M108.991 126.318C108.991 126.318 116.752 129.037 121.654 129.549C126.557 130.061 134.594 129.136 134.594 129.136" stroke="#A02964" stroke-opacity="0.8"/>
<defs>
<filter id="filter0_d_462_1213" x="28.3809" y="160.549" width="133.094" height="93.9659" filterUnits="userSpaceOnUse" color-interpolation-filters="sRGB">
<feFlood flood-opacity="0" result="BackgroundImageFix"/>
<feColorMatrix in="SourceAlpha" type="matrix" values="0 0 0 0 0 0 0 0 0 0 0 0 0 0 0 0 0 0 127 0" result="hardAlpha"/>
<feOffset dy="4"/>
<feGaussianBlur stdDeviation="2"/>
<feComposite in2="hardAlpha" operator="out"/>
<feColorMatrix type="matrix" values="0 0 0 0 0 0 0 0 0 0 0 0 0 0 0 0 0 0 0.25 0"/>
<feBlend mode="normal" in2="BackgroundImageFix" result="effect1_dropShadow_462_1213"/>
<feBlend mode="normal" in="SourceGraphic" in2="effect1_dropShadow_462_1213" result="shape"/>
</filter>
<filter id="filter1_i_462_1213" x="95.3169" y="246.046" width="44.3188" height="17.3538" filterUnits="userSpaceOnUse" color-interpolation-filters="sRGB">
<feFlood flood-opacity="0" result="BackgroundImageFix"/>
<feBlend mode="normal" in="SourceGraphic" in2="BackgroundImageFix" result="shape"/>
<feColorMatrix in="SourceAlpha" type="matrix" values="0 0 0 0 0 0 0 0 0 0 0 0 0 0 0 0 0 0 127 0" result="hardAlpha"/>
<feOffset dy="4"/>
<feGaussianBlur stdDeviation="2"/>
<feComposite in2="hardAlpha" operator="arithmetic" k2="-1" k3="1"/>
<feColorMatrix type="matrix" values="0 0 0 0 0 0 0 0 0 0 0 0 0 0 0 0 0 0 0.25 0"/>
<feBlend mode="normal" in2="shape" result="effect1_innerShadow_462_1213"/>
</filter>
<filter id="filter2_i_462_1213" x="98.9443" y="103.813" width="71.6846" height="97.5316" filterUnits="userSpaceOnUse" color-interpolation-filters="sRGB">
<feFlood flood-opacity="0" result="BackgroundImageFix"/>
<feBlend mode="normal" in="SourceGraphic" in2="BackgroundImageFix" result="shape"/>
<feColorMatrix in="SourceAlpha" type="matrix" values="0 0 0 0 0 0 0 0 0 0 0 0 0 0 0 0 0 0 127 0" result="hardAlpha"/>
<feOffset dy="4"/>
<feGaussianBlur stdDeviation="2"/>
<feComposite in2="hardAlpha" operator="arithmetic" k2="-1" k3="1"/>
<feColorMatrix type="matrix" values="0 0 0 0 0 0 0 0 0 0 0 0 0 0 0 0 0 0 0.25 0"/>
<feBlend mode="normal" in2="shape" result="effect1_innerShadow_462_1213"/>
</filter>
<filter id="filter3_i_462_1213" x="124.749" y="18.6874" width="41.9019" height="85.4353" filterUnits="userSpaceOnUse" color-interpolation-filters="sRGB">
<feFlood flood-opacity="0" result="BackgroundImageFix"/>
<feBlend mode="normal" in="SourceGraphic" in2="BackgroundImageFix" result="shape"/>
<feColorMatrix in="SourceAlpha" type="matrix" values="0 0 0 0 0 0 0 0 0 0 0 0 0 0 0 0 0 0 127 0" result="hardAlpha"/>
<feOffset dy="4"/>
<feGaussianBlur stdDeviation="2"/>
<feComposite in2="hardAlpha" operator="arithmetic" k2="-1" k3="1"/>
<feColorMatrix type="matrix" values="0 0 0 0 0 0 0 0 0 0 0 0 0 0 0 0 0 0 0.25 0"/>
<feBlend mode="normal" in2="shape" result="effect1_innerShadow_462_1213"/>
</filter>
<filter id="filter4_i_462_1213" x="0" y="16.8969" width="128.627" height="213.437" filterUnits="userSpaceOnUse" color-interpolation-filters="sRGB">
<feFlood flood-opacity="0" result="BackgroundImageFix"/>
<feBlend mode="normal" in="SourceGraphic" in2="BackgroundImageFix" result="shape"/>
<feColorMatrix in="SourceAlpha" type="matrix" values="0 0 0 0 0 0 0 0 0 0 0 0 0 0 0 0 0 0 127 0" result="hardAlpha"/>
<feOffset dy="4"/>
<feGaussianBlur stdDeviation="2"/>
<feComposite in2="hardAlpha" operator="arithmetic" k2="-1" k3="1"/>
<feColorMatrix type="matrix" values="0 0 0 0 0 0 0 0 0 0 0 0 0 0 0 0 0 0 0.25 0"/>
<feBlend mode="normal" in2="shape" result="effect1_innerShadow_462_1213"/>
</filter>
<filter id="filter5_i_462_1213" x="51.1465" y="-0.000610352" width="82.6372" height="84.6632" filterUnits="userSpaceOnUse" color-interpolation-filters="sRGB">
<feFlood flood-opacity="0" result="BackgroundImageFix"/>
<feBlend mode="normal" in="SourceGraphic" in2="BackgroundImageFix" result="shape"/>
<feColorMatrix in="SourceAlpha" type="matrix" values="0 0 0 0 0 0 0 0 0 0 0 0 0 0 0 0 0 0 127 0" result="hardAlpha"/>
<feOffset dy="4"/>
<feGaussianBlur stdDeviation="2"/>
<feComposite in2="hardAlpha" operator="arithmetic" k2="-1" k3="1"/>
<feColorMatrix type="matrix" values="0 0 0 0 0 0 0 0 0 0 0 0 0 0 0 0 0 0 0.25 0"/>
<feBlend mode="normal" in2="shape" result="effect1_innerShadow_462_1213"/>
</filter>
<filter id="filter6_i_462_1213" x="73.4209" y="162.199" width="59.0586" height="39.8558" filterUnits="userSpaceOnUse" color-interpolation-filters="sRGB">
<feFlood flood-opacity="0" result="BackgroundImageFix"/>
<feBlend mode="normal" in="SourceGraphic" in2="BackgroundImageFix" result="shape"/>
<feColorMatrix in="SourceAlpha" type="matrix" values="0 0 0 0 0 0 0 0 0 0 0 0 0 0 0 0 0 0 127 0" result="hardAlpha"/>
<feOffset dy="4"/>
<feGaussianBlur stdDeviation="2"/>
<feComposite in2="hardAlpha" operator="arithmetic" k2="-1" k3="1"/>
<feColorMatrix type="matrix" values="0 0 0 0 0 0 0 0 0 0 0 0 0 0 0 0 0 0 0.25 0"/>
<feBlend mode="normal" in2="shape" result="effect1_innerShadow_462_1213"/>
</filter>
<filter id="filter7_f_462_1213" x="64.1436" y="180.689" width="21.5503" height="25.4066" filterUnits="userSpaceOnUse" color-interpolation-filters="sRGB">
<feFlood flood-opacity="0" result="BackgroundImageFix"/>
<feBlend mode="normal" in="SourceGraphic" in2="BackgroundImageFix" result="shape"/>
<feGaussianBlur stdDeviation="2" result="effect1_foregroundBlur_462_1213"/>
</filter>
<filter id="filter8_f_462_1213" x="133.856" y="180.502" width="17.1787" height="23.6377" filterUnits="userSpaceOnUse" color-interpolation-filters="sRGB">
<feFlood flood-opacity="0" result="BackgroundImageFix"/>
<feBlend mode="normal" in="SourceGraphic" in2="BackgroundImageFix" result="shape"/>
<feGaussianBlur stdDeviation="2" result="effect1_foregroundBlur_462_1213"/>
</filter>
<filter id="filter9_f_462_1213" x="104.683" y="224.966" width="27.481" height="15.3116" filterUnits="userSpaceOnUse" color-interpolation-filters="sRGB">
<feFlood flood-opacity="0" result="BackgroundImageFix"/>
<feBlend mode="normal" in="SourceGraphic" in2="BackgroundImageFix" result="shape"/>
<feGaussianBlur stdDeviation="2" result="effect1_foregroundBlur_462_1213"/>
</filter>
<filter id="filter10_f_462_1213" x="75.252" y="101.565" width="31.6646" height="30.3427" filterUnits="userSpaceOnUse" color-interpolation-filters="sRGB">
<feFlood flood-opacity="0" result="BackgroundImageFix"/>
<feBlend mode="normal" in="SourceGraphic" in2="BackgroundImageFix" result="shape"/>
<feGaussianBlur stdDeviation="2" result="effect1_foregroundBlur_462_1213"/>
</filter>
<filter id="filter11_f_462_1213" x="122.501" y="101.565" width="31.6646" height="30.3427" filterUnits="userSpaceOnUse" color-interpolation-filters="sRGB">
<feFlood flood-opacity="0" result="BackgroundImageFix"/>
<feBlend mode="normal" in="SourceGraphic" in2="BackgroundImageFix" result="shape"/>
<feGaussianBlur stdDeviation="2" result="effect1_foregroundBlur_462_1213"/>
</filter>
<filter id="filter12_f_462_1213" x="122.501" y="101.565" width="31.6646" height="30.3427" filterUnits="userSpaceOnUse" color-interpolation-filters="sRGB">
<feFlood flood-opacity="0" result="BackgroundImageFix"/>
<feBlend mode="normal" in="SourceGraphic" in2="BackgroundImageFix" result="shape"/>
<feGaussianBlur stdDeviation="2" result="effect1_foregroundBlur_462_1213"/>
</filter>
<filter id="filter13_f_462_1213" x="74.3765" y="100.061" width="31.6646" height="30.3427" filterUnits="userSpaceOnUse" color-interpolation-filters="sRGB">
<feFlood flood-opacity="0" result="BackgroundImageFix"/>
<feBlend mode="normal" in="SourceGraphic" in2="BackgroundImageFix" result="shape"/>
<feGaussianBlur stdDeviation="2" result="effect1_foregroundBlur_462_1213"/>
</filter>
<filter id="filter14_f_462_1213" x="74.3765" y="100.061" width="31.6646" height="30.3427" filterUnits="userSpaceOnUse" color-interpolation-filters="sRGB">
<feFlood flood-opacity="0" result="BackgroundImageFix"/>
<feBlend mode="normal" in="SourceGraphic" in2="BackgroundImageFix" result="shape"/>
<feGaussianBlur stdDeviation="2" result="effect1_foregroundBlur_462_1213"/>
</filter>
<filter id="filter15_i_462_1213" x="30.7993" y="170.068" width="59.1108" height="84.0682" filterUnits="userSpaceOnUse" color-interpolation-filters="sRGB">
<feFlood flood-opacity="0" result="BackgroundImageFix"/>
<feBlend mode="normal" in="SourceGraphic" in2="BackgroundImageFix" result="shape"/>
<feColorMatrix in="SourceAlpha" type="matrix" values="0 0 0 0 0 0 0 0 0 0 0 0 0 0 0 0 0 0 127 0" result="hardAlpha"/>
<feOffset dy="4"/>
<feGaussianBlur stdDeviation="2"/>
<feComposite in2="hardAlpha" operator="arithmetic" k2="-1" k3="1"/>
<feColorMatrix type="matrix" values="0 0 0 0 0 0 0 0 0 0 0 0 0 0 0 0 0 0 0.25 0"/>
<feBlend mode="normal" in2="shape" result="effect1_innerShadow_462_1213"/>
</filter>
<filter id="filter16_f_462_1213" x="69.5337" y="200.605" width="15.0049" height="27.8489" filterUnits="userSpaceOnUse" color-interpolation-filters="sRGB">
<feFlood flood-opacity="0" result="BackgroundImageFix"/>
<feBlend mode="normal" in="SourceGraphic" in2="BackgroundImageFix" result="shape"/>
<feGaussianBlur stdDeviation="2" result="effect1_foregroundBlur_462_1213"/>
</filter>
<filter id="filter17_f_462_1213" x="146.532" y="193.951" width="13.8101" height="19.4091" filterUnits="userSpaceOnUse" color-interpolation-filters="sRGB">
<feFlood flood-opacity="0" result="BackgroundImageFix"/>
<feBlend mode="normal" in="SourceGraphic" in2="BackgroundImageFix" result="shape"/>
<feGaussianBlur stdDeviation="2" result="effect1_foregroundBlur_462_1213"/>
</filter>
<filter id="filter18_f_462_1213" x="48.5518" y="202.483" width="14.2354" height="20.8975" filterUnits="userSpaceOnUse" color-interpolation-filters="sRGB">
<feFlood flood-opacity="0" result="BackgroundImageFix"/>
<feBlend mode="normal" in="SourceGraphic" in2="BackgroundImageFix" result="shape"/>
<feGaussianBlur stdDeviation="2" result="effect1_foregroundBlur_462_1213"/>
</filter>
<filter id="filter19_f_462_1213" x="40.2739" y="206.805" width="15.3901" height="17.5157" filterUnits="userSpaceOnUse" color-interpolation-filters="sRGB">
<feFlood flood-opacity="0" result="BackgroundImageFix"/>
<feBlend mode="normal" in="SourceGraphic" in2="BackgroundImageFix" result="shape"/>
<feGaussianBlur stdDeviation="2" result="effect1_foregroundBlur_462_1213"/>
</filter>
<filter id="filter20_i_462_1213" x="91.4873" y="70.3153" width="27.229" height="14.1605" filterUnits="userSpaceOnUse" color-interpolation-filters="sRGB">
<feFlood flood-opacity="0" result="BackgroundImageFix"/>
<feBlend mode="normal" in="SourceGraphic" in2="BackgroundImageFix" result="shape"/>
<feColorMatrix in="SourceAlpha" type="matrix" values="0 0 0 0 0 0 0 0 0 0 0 0 0 0 0 0 0 0 127 0" result="hardAlpha"/>
<feOffset dy="4"/>
<feGaussianBlur stdDeviation="2"/>
<feComposite in2="hardAlpha" operator="arithmetic" k2="-1" k3="1"/>
<feColorMatrix type="matrix" values="0 0 0 0 0 0 0 0 0 0 0 0 0 0 0 0 0 0 0.25 0"/>
<feBlend mode="normal" in2="shape" result="effect1_innerShadow_462_1213"/>
</filter>
<filter id="filter21_i_462_1213" x="139.989" y="75.23" width="14.519" height="12.4822" filterUnits="userSpaceOnUse" color-interpolation-filters="sRGB">
<feFlood flood-opacity="0" result="BackgroundImageFix"/>
<feBlend mode="normal" in="SourceGraphic" in2="BackgroundImageFix" result="shape"/>
<feColorMatrix in="SourceAlpha" type="matrix" values="0 0 0 0 0 0 0 0 0 0 0 0 0 0 0 0 0 0 127 0" result="hardAlpha"/>
<feOffset dy="4"/>
<feGaussianBlur stdDeviation="2"/>
<feComposite in2="hardAlpha" operator="arithmetic" k2="-1" k3="1"/>
<feColorMatrix type="matrix" values="0 0 0 0 0 0 0 0 0 0 0 0 0 0 0 0 0 0 0.25 0"/>
<feBlend mode="normal" in2="shape" result="effect1_innerShadow_462_1213"/>
</filter>
<filter id="filter22_f_462_1213" x="89.9375" y="76.0391" width="28.0967" height="19.3927" filterUnits="userSpaceOnUse" color-interpolation-filters="sRGB">
<feFlood flood-opacity="0" result="BackgroundImageFix"/>
<feBlend mode="normal" in="SourceGraphic" in2="BackgroundImageFix" result="shape"/>
<feGaussianBlur stdDeviation="2" result="effect1_foregroundBlur_462_1213"/>
</filter>
<filter id="filter23_f_462_1213" x="129.074" y="76.4139" width="23.1201" height="20.7854" filterUnits="userSpaceOnUse" color-interpolation-filters="sRGB">
<feFlood flood-opacity="0" result="BackgroundImageFix"/>
<feBlend mode="normal" in="SourceGraphic" in2="BackgroundImageFix" result="shape"/>
<feGaussianBlur stdDeviation="2" result="effect1_foregroundBlur_462_1213"/>
</filter>
<linearGradient id="paint0_linear_462_1213" x1="134.787" y1="107.718" x2="134.787" y2="201.283" gradientUnits="userSpaceOnUse">
<stop stop-color="#E3BE6D"/>
<stop offset="1" stop-color="#EDB851"/>
</linearGradient>
<linearGradient id="paint1_linear_462_1213" x1="145.7" y1="19.6897" x2="145.7" y2="97.1962" gradientUnits="userSpaceOnUse">
<stop stop-color="#E3BE6D"/>
<stop offset="1" stop-color="#EDB951"/>
</linearGradient>
<linearGradient id="paint2_linear_462_1213" x1="78.2789" y1="54.0009" x2="26.3301" y2="187.683" gradientUnits="userSpaceOnUse">
<stop stop-color="#E3BE6D"/>
<stop offset="1" stop-color="#EDB851"/>
</linearGradient>
<linearGradient id="paint3_linear_462_1213" x1="102.638" y1="182.307" x2="102.817" y2="196.872" gradientUnits="userSpaceOnUse">
<stop stop-color="#69A4D2"/>
<stop offset="1" stop-color="#357FB9"/>
</linearGradient>
<linearGradient id="paint4_linear_462_1213" x1="60.2891" y1="221.575" x2="88.1957" y2="245.917" gradientUnits="userSpaceOnUse">
<stop stop-color="#69A2CA"/>
<stop offset="1" stop-color="#2774AA"/>
</linearGradient>
<radialGradient id="paint5_radial_462_1213" cx="0" cy="0" r="1" gradientTransform="matrix(-2.60285 11.2759 -9.16224 -2.05691 140.669 98.3077)" gradientUnits="userSpaceOnUse">
<stop stop-color="#79BFF1"/>
<stop offset="0.643262" stop-color="#336E97"/>
<stop offset="1" stop-color="#224964"/>
</radialGradient>
<radialGradient id="paint6_radial_462_1213" cx="0" cy="0" r="1" gradientTransform="matrix(-0.387446 1.9048 -1.80525 -0.349798 142.561 95.3173)" gradientUnits="userSpaceOnUse">
<stop offset="0.653948" stop-color="#FFF7F7"/>
<stop offset="1" stop-color="#999494"/>
</radialGradient>
<linearGradient id="paint7_linear_462_1213" x1="116.667" y1="91.9504" x2="95.5684" y2="100.006" gradientUnits="userSpaceOnUse">
<stop stop-color="#F0F2F0"/>
<stop offset="1" stop-color="#DDDDDD"/>
</linearGradient>
<radialGradient id="paint8_radial_462_1213" cx="0" cy="0" r="1" gradientTransform="matrix(-3.0171 12.7917 -11.0397 -2.42412 106.306 96.9407)" gradientUnits="userSpaceOnUse">
<stop stop-color="#79BFF1"/>
<stop offset="0.643262" stop-color="#336E97"/>
<stop offset="1" stop-color="#224964"/>
</radialGradient>
<radialGradient id="paint9_radial_462_1213" cx="0" cy="0" r="1" gradientTransform="matrix(-0.42738 2.06724 -1.96831 -0.375243 108.115 93.2506)" gradientUnits="userSpaceOnUse">
<stop offset="0.653948" stop-color="#FFF7F7"/>
<stop offset="1" stop-color="#999494"/>
</radialGradient>
</defs>
</svg>
