<svg width="234" height="184" viewBox="0 0 234 184" fill="none" xmlns="http://www.w3.org/2000/svg">
<g filter="url(#filter0_i_600_82)">
<path d="M137.428 179.237C111.477 189.301 70.8832 173.932 70.8832 173.932C70.8832 173.932 69.4585 160.637 72.3784 153.089C75.2984 145.542 85.1157 128.053 85.1157 128.053C85.1157 128.053 98.6136 146.429 110.885 148.163C138.971 152.133 154.999 110.647 154.999 110.647L148.27 92.079C148.27 92.079 155.417 87.2189 160.607 85.6369C180.493 79.5749 207.711 110.647 207.711 110.647L190.888 133.005C190.888 133.005 176.371 152.814 164.345 162.563C154.724 170.362 148.934 174.775 137.428 179.237Z" fill="url(#paint0_radial_600_82)"/>
</g>
<path d="M137.428 179.237C111.477 189.301 70.8832 173.932 70.8832 173.932C70.8832 173.932 69.4585 160.637 72.3784 153.089C75.2984 145.542 85.1157 128.053 85.1157 128.053C85.1157 128.053 98.6136 146.429 110.885 148.163C138.971 152.133 154.999 110.647 154.999 110.647L148.27 92.079C148.27 92.079 155.417 87.2189 160.607 85.6369C180.493 79.5749 207.711 110.647 207.711 110.647L190.888 133.005C190.888 133.005 176.371 152.814 164.345 162.563C154.724 170.362 148.934 174.775 137.428 179.237Z" stroke="black"/>
<path d="M71.2837 154.2C74.1747 139.842 91.4715 122.747 91.4715 122.747L106.052 183L71.2837 174.663C71.2837 174.663 69.7071 162.03 71.2837 154.2Z" fill="url(#paint1_linear_600_82)" stroke="black"/>
<path d="M179.699 88.2631C191.427 93.6666 207.364 111 207.364 111C207.364 111 195.48 130.421 186.429 140.558C177.377 150.695 153.904 170.874 153.904 170.874C153.904 170.874 167.117 141.426 166.241 130.326C165.365 119.227 157.642 106.832 157.642 106.832V87.5052C157.642 87.5052 159.138 78.7897 179.699 88.2631Z" fill="url(#paint2_linear_600_82)" stroke="black"/>
<g filter="url(#filter1_i_600_82)">
<path d="M39.3484 23.4776C39.3484 23.4776 52.9098 19.1197 61.7792 17.0355C74.312 14.0903 82.2411 16.2631 94.304 11.7302C101.038 9.19966 96.9209 6.0459 110.753 3.39336C119.731 1.6717 126.829 6.0461 141.409 7.94029C148.028 8.80018 148.886 9.8353 148.886 9.8353C148.886 9.8353 157.395 3.52249 158.98 7.94029C160.475 12.1085 155.989 17.0355 155.989 17.0355L158.98 33.3302H167.204H179.915C179.915 33.3302 192.542 23.4776 199.139 23.4776H232.038C232.038 23.4776 238.235 48.109 219.169 66.2986C206.376 78.5035 194.78 83.3981 178.42 76.909C169.821 73.4985 155.989 68.9513 155.989 68.9513V84.1091C155.989 84.1091 161.955 87.5568 162.344 91.3092C162.679 94.537 158.98 98.8881 158.98 98.8881C158.98 98.8881 162.258 101.217 162.344 103.435C162.406 105.028 160.849 107.225 160.849 107.225L164.587 113.667C164.587 113.667 148.161 141.244 130.567 146.635C114.85 151.452 97.139 145.401 97.7557 146.546C97.9711 146.779 98.0114 146.823 97.8266 146.635C97.7933 146.602 97.7698 146.572 97.7557 146.546C96.2282 144.895 85.8945 133.76 84.584 128.446C84.584 128.446 61.7792 125.035 54.6761 120.488C47.7878 116.078 42.3391 103.435 42.3391 103.435C42.3391 103.435 32.5838 101.541 26.2637 101.541C19.5343 101.541 16.5436 94.3407 16.5436 94.3407C16.5436 94.3407 11.5901 91.9684 10.1882 89.0355C7.59613 83.6126 16.5436 75.0144 16.5436 75.0144C16.5436 75.0144 -2.55917 54.1519 1.58971 39.7723C3.76213 32.2429 6.55563 27.5355 13.179 23.4776C21.9253 18.1191 39.3484 23.4776 39.3484 23.4776Z" fill="url(#paint3_radial_600_82)"/>
</g>
<path d="M39.3484 23.4776C39.3484 23.4776 52.9098 19.1197 61.7792 17.0355C74.312 14.0903 82.2411 16.2631 94.304 11.7302C101.038 9.19966 96.9209 6.0459 110.753 3.39336C119.731 1.6717 126.829 6.0461 141.409 7.94029C148.028 8.80018 148.886 9.8353 148.886 9.8353C148.886 9.8353 157.395 3.52249 158.98 7.94029C160.475 12.1085 155.989 17.0355 155.989 17.0355L158.98 33.3302H167.204H179.915C179.915 33.3302 192.542 23.4776 199.139 23.4776H232.038C232.038 23.4776 238.235 48.109 219.169 66.2986C206.376 78.5035 194.78 83.3981 178.42 76.909C169.821 73.4985 155.989 68.9513 155.989 68.9513V84.1091C155.989 84.1091 161.955 87.5568 162.344 91.3092C162.679 94.537 158.98 98.8881 158.98 98.8881C158.98 98.8881 162.258 101.217 162.344 103.435C162.406 105.028 160.849 107.225 160.849 107.225L164.587 113.667C164.587 113.667 148.161 141.244 130.567 146.635C114.85 151.452 97.139 145.401 97.7557 146.546C97.9711 146.779 98.0114 146.823 97.8266 146.635C97.7933 146.602 97.7698 146.572 97.7557 146.546C96.2282 144.895 85.8945 133.76 84.584 128.446C84.584 128.446 61.7792 125.035 54.6761 120.488C47.7878 116.078 42.3391 103.435 42.3391 103.435C42.3391 103.435 32.5838 101.541 26.2637 101.541C19.5343 101.541 16.5436 94.3407 16.5436 94.3407C16.5436 94.3407 11.5901 91.9684 10.1882 89.0355C7.59613 83.6126 16.5436 75.0144 16.5436 75.0144C16.5436 75.0144 -2.55917 54.1519 1.58971 39.7723C3.76213 32.2429 6.55563 27.5355 13.179 23.4776C21.9253 18.1191 39.3484 23.4776 39.3484 23.4776Z" stroke="black"/>
<path d="M21.5863 75.574C21.5863 75.574 -5.06941 42.2158 5.88478 47.5319C14.1546 51.5453 15.7843 56.4564 23.0571 62.1158C30.5337 67.9338 42.4972 75.574 42.4972 75.574C42.4972 75.574 23.0571 93.91 18.2218 85.8056C16.1472 82.3284 21.5863 75.574 21.5863 75.574Z" fill="url(#paint4_linear_600_82)" stroke="black"/>
<path d="M35.7679 73.1052C35.7679 73.1052 19.5077 82.0133 20.8145 85.9894C21.9354 89.4 26.4222 85.9894 26.4222 85.9894C30.551 85.9894 41.7496 75.7579 41.7496 75.7579L35.7679 73.1052Z" fill="#C74949" stroke="black"/>
<path d="M22.0526 39.1174C18.4052 40.5044 11.2117 37.6006 12.3326 36.8437C14.5775 35.328 18.4158 36.579 22.0526 35.328C24.3411 34.5408 25.3421 31.9834 27.6604 32.6753C30.8356 33.623 25.1517 37.939 22.0526 39.1174Z" fill="#583000"/>
<path d="M104.524 19.0612C108.268 17.6394 112.99 17.7052 117.066 18.9002C121.162 20.1015 124.45 22.3941 125.515 25.2747L125.528 25.3105L125.547 25.345C126.996 27.9392 127.56 30.0193 127.52 31.7145C127.48 33.3938 126.846 34.7421 125.8 35.8876C124.744 37.0447 123.265 37.9975 121.542 38.849C119.82 39.6998 117.892 40.4323 115.953 41.1683C108.374 44.0462 100.604 41.4009 98.4426 35.5543C97.326 32.5327 97.0047 29.0935 97.8818 26.0758C98.7531 23.0787 100.811 20.471 104.524 19.0612Z" fill="white" stroke="black"/>
<g filter="url(#filter2_i_600_82)">
<path d="M110.659 30.7235C112.89 33.5185 110.329 38.5372 106.849 39.8587C103.369 41.1802 99.2147 38.6448 98.0558 35.509C96.897 32.3732 98.7789 28.7599 102.259 27.4384C105.739 26.1169 109.5 27.5877 110.659 30.7235Z" fill="#82AA5F"/>
</g>
<path d="M102.432 27.9075C105.703 26.6657 109.145 28.0701 110.192 30.9005L110.22 30.9765L110.27 31.0389C111.223 32.233 111.196 33.9639 110.442 35.6397C109.69 37.3095 108.269 38.7845 106.675 39.3897C105.101 39.9873 103.343 39.723 101.817 38.9115C100.288 38.0983 99.0536 36.7667 98.5231 35.3311C97.4774 32.5007 99.1618 29.1495 102.432 27.9075Z" stroke="#19490C" stroke-opacity="0.52"/>
<ellipse cx="3.37031" cy="3.40491" rx="3.37031" ry="3.40491" transform="matrix(0.934874 -0.35498 0.346645 0.937997 98.2007 31.9192)" fill="black"/>
<ellipse cx="1.49792" cy="1.51329" rx="1.49792" ry="1.51329" transform="matrix(0.934874 -0.35498 0.346645 0.937997 101.702 30.59)" fill="white"/>
<g filter="url(#filter3_f_600_82)">
<path d="M26.4219 42.4105C34.7961 60.6 54.8343 70.9579 63.8067 73.8632" stroke="#442F1E" stroke-opacity="0.32"/>
</g>
<g filter="url(#filter4_f_600_82)">
<path d="M180.821 33.6947C167.762 35.6553 156.042 52.0075 151.287 58.3263" stroke="#442F1E" stroke-opacity="0.32"/>
</g>
<g filter="url(#filter5_f_600_82)">
<path d="M180.821 33.6947C167.762 35.6553 156.042 52.0075 151.287 58.3263" stroke="#442F1E" stroke-opacity="0.32"/>
</g>
<g filter="url(#filter6_f_600_82)">
<path d="M98.5747 47.3369C119.51 53.0211 129.5 41.865 135.212 39.0001" stroke="#442F1E" stroke-opacity="0.32"/>
</g>
<g filter="url(#filter7_i_600_82)">
<path d="M193.511 36.8193C181.32 47.314 166.634 59.0805 166.634 59.0805C166.634 59.0805 166.888 64.5005 172.807 66.8445C188.228 72.9518 202.355 73.1648 214.948 62.1584C224.778 53.5674 228.084 31.0939 228.084 31.0939C228.084 31.0939 200.196 31.0641 193.511 36.8193Z" fill="url(#paint5_linear_600_82)"/>
</g>
<path d="M193.511 36.8193C181.32 47.314 166.634 59.0805 166.634 59.0805C166.634 59.0805 166.888 64.5005 172.807 66.8445C188.228 72.9518 202.355 73.1648 214.948 62.1584C224.778 53.5674 228.084 31.0939 228.084 31.0939C228.084 31.0939 200.196 31.0641 193.511 36.8193Z" stroke="#442F1E" stroke-opacity="0.96"/>
<path d="M155.399 17.0211L148.67 10.579C148.67 10.579 155.696 4.58988 158.39 7.54741C160.99 10.4012 155.399 17.0211 155.399 17.0211Z" fill="#D9D9D9"/>
<g filter="url(#filter8_f_600_82)">
<path d="M86.2373 133.737C86.2373 133.737 114.767 135.071 128.856 130.705C142.945 126.34 161.381 106.074 161.381 106.074" stroke="#7A5626"/>
</g>
<g filter="url(#filter9_f_600_82)">
<path d="M85.1157 128.053C85.1157 128.053 115.485 125.608 128.856 119.337C153.904 107.59 161.381 94.7053 161.381 94.7053" stroke="#7A5626"/>
</g>
<g filter="url(#filter10_f_600_82)">
<path d="M77.2646 124.263C77.2646 124.263 108.791 116.582 121.753 109.484C154.277 91.6737 154.277 84.8527 154.277 84.8527" stroke="#7A5626"/>
</g>
<g filter="url(#filter11_f_600_82)">
<ellipse cx="29.9449" cy="9.46224" rx="29.9449" ry="9.46224" transform="matrix(0.952604 -0.304214 0.296807 0.954937 73.5264 73.514)" fill="#D18888"/>
</g>
<g filter="url(#filter12_f_600_82)">
<path d="M39.8799 75.6754C39.8799 75.6754 55.4778 83.5322 64.1821 84.4017C77.2326 85.7055 95.4054 71.8757 95.4054 71.8757" stroke="#7A5626"/>
</g>
<g filter="url(#filter13_f_600_82)">
<path d="M20.4404 99.5315C20.4404 99.5315 29.1426 101.643 37.6374 99.5315C50.374 96.3663 54.0868 90.5369 54.0868 90.5369" stroke="#7A5626"/>
</g>
<defs>
<filter id="filter0_i_600_82" x="70.0356" y="84.3525" width="138.319" height="108.802" filterUnits="userSpaceOnUse" color-interpolation-filters="sRGB">
<feFlood flood-opacity="0" result="BackgroundImageFix"/>
<feBlend mode="normal" in="SourceGraphic" in2="BackgroundImageFix" result="shape"/>
<feColorMatrix in="SourceAlpha" type="matrix" values="0 0 0 0 0 0 0 0 0 0 0 0 0 0 0 0 0 0 127 0" result="hardAlpha"/>
<feOffset dy="10"/>
<feGaussianBlur stdDeviation="5"/>
<feComposite in2="hardAlpha" operator="arithmetic" k2="-1" k3="1"/>
<feColorMatrix type="matrix" values="0 0 0 0 0 0 0 0 0 0 0 0 0 0 0 0 0 0 0.25 0"/>
<feBlend mode="normal" in2="shape" result="effect1_innerShadow_600_82"/>
</filter>
<filter id="filter1_i_600_82" x="0.5" y="2.50012" width="233" height="156.525" filterUnits="userSpaceOnUse" color-interpolation-filters="sRGB">
<feFlood flood-opacity="0" result="BackgroundImageFix"/>
<feBlend mode="normal" in="SourceGraphic" in2="BackgroundImageFix" result="shape"/>
<feColorMatrix in="SourceAlpha" type="matrix" values="0 0 0 0 0 0 0 0 0 0 0 0 0 0 0 0 0 0 127 0" result="hardAlpha"/>
<feOffset dy="10"/>
<feGaussianBlur stdDeviation="5"/>
<feComposite in2="hardAlpha" operator="arithmetic" k2="-1" k3="1"/>
<feColorMatrix type="matrix" values="0 0 0 0 0 0 0 0 0 0 0 0 0 0 0 0 0 0 0.25 0"/>
<feBlend mode="normal" in2="shape" result="effect1_innerShadow_600_82"/>
</filter>
<filter id="filter2_i_600_82" x="97.7139" y="26.9532" width="13.7817" height="17.2635" filterUnits="userSpaceOnUse" color-interpolation-filters="sRGB">
<feFlood flood-opacity="0" result="BackgroundImageFix"/>
<feBlend mode="normal" in="SourceGraphic" in2="BackgroundImageFix" result="shape"/>
<feColorMatrix in="SourceAlpha" type="matrix" values="0 0 0 0 0 0 0 0 0 0 0 0 0 0 0 0 0 0 127 0" result="hardAlpha"/>
<feOffset dy="4"/>
<feGaussianBlur stdDeviation="4.5"/>
<feComposite in2="hardAlpha" operator="arithmetic" k2="-1" k3="1"/>
<feColorMatrix type="matrix" values="0 0 0 0 0.79547 0 0 0 0 0.981838 0 0 0 0 0.702286 0 0 0 0.25 0"/>
<feBlend mode="normal" in2="shape" result="effect1_innerShadow_600_82"/>
</filter>
<filter id="filter3_f_600_82" x="21.9678" y="38.2014" width="45.9932" height="40.1375" filterUnits="userSpaceOnUse" color-interpolation-filters="sRGB">
<feFlood flood-opacity="0" result="BackgroundImageFix"/>
<feBlend mode="normal" in="SourceGraphic" in2="BackgroundImageFix" result="shape"/>
<feGaussianBlur stdDeviation="2" result="effect1_foregroundBlur_600_82"/>
</filter>
<filter id="filter4_f_600_82" x="146.889" y="29.1982" width="38.0083" height="33.433" filterUnits="userSpaceOnUse" color-interpolation-filters="sRGB">
<feFlood flood-opacity="0" result="BackgroundImageFix"/>
<feBlend mode="normal" in="SourceGraphic" in2="BackgroundImageFix" result="shape"/>
<feGaussianBlur stdDeviation="2" result="effect1_foregroundBlur_600_82"/>
</filter>
<filter id="filter5_f_600_82" x="146.889" y="29.1982" width="38.0083" height="33.433" filterUnits="userSpaceOnUse" color-interpolation-filters="sRGB">
<feFlood flood-opacity="0" result="BackgroundImageFix"/>
<feBlend mode="normal" in="SourceGraphic" in2="BackgroundImageFix" result="shape"/>
<feGaussianBlur stdDeviation="2" result="effect1_foregroundBlur_600_82"/>
</filter>
<filter id="filter6_f_600_82" x="94.4463" y="34.549" width="44.9858" height="18.8822" filterUnits="userSpaceOnUse" color-interpolation-filters="sRGB">
<feFlood flood-opacity="0" result="BackgroundImageFix"/>
<feBlend mode="normal" in="SourceGraphic" in2="BackgroundImageFix" result="shape"/>
<feGaussianBlur stdDeviation="2" result="effect1_foregroundBlur_600_82"/>
</filter>
<filter id="filter7_i_600_82" x="166.123" y="30.5938" width="62.54" height="44.9368" filterUnits="userSpaceOnUse" color-interpolation-filters="sRGB">
<feFlood flood-opacity="0" result="BackgroundImageFix"/>
<feBlend mode="normal" in="SourceGraphic" in2="BackgroundImageFix" result="shape"/>
<feColorMatrix in="SourceAlpha" type="matrix" values="0 0 0 0 0 0 0 0 0 0 0 0 0 0 0 0 0 0 127 0" result="hardAlpha"/>
<feOffset dy="4"/>
<feGaussianBlur stdDeviation="2"/>
<feComposite in2="hardAlpha" operator="arithmetic" k2="-1" k3="1"/>
<feColorMatrix type="matrix" values="0 0 0 0 0 0 0 0 0 0 0 0 0 0 0 0 0 0 0.25 0"/>
<feBlend mode="normal" in2="shape" result="effect1_innerShadow_600_82"/>
</filter>
<filter id="filter8_f_600_82" x="82.2144" y="101.737" width="83.5361" height="36.6914" filterUnits="userSpaceOnUse" color-interpolation-filters="sRGB">
<feFlood flood-opacity="0" result="BackgroundImageFix"/>
<feBlend mode="normal" in="SourceGraphic" in2="BackgroundImageFix" result="shape"/>
<feGaussianBlur stdDeviation="2" result="effect1_foregroundBlur_600_82"/>
</filter>
<filter id="filter9_f_600_82" x="81.0757" y="90.454" width="84.7373" height="42.097" filterUnits="userSpaceOnUse" color-interpolation-filters="sRGB">
<feFlood flood-opacity="0" result="BackgroundImageFix"/>
<feBlend mode="normal" in="SourceGraphic" in2="BackgroundImageFix" result="shape"/>
<feGaussianBlur stdDeviation="2" result="effect1_foregroundBlur_600_82"/>
</filter>
<filter id="filter10_f_600_82" x="73.1465" y="80.8358" width="85.6309" height="47.9131" filterUnits="userSpaceOnUse" color-interpolation-filters="sRGB">
<feFlood flood-opacity="0" result="BackgroundImageFix"/>
<feBlend mode="normal" in="SourceGraphic" in2="BackgroundImageFix" result="shape"/>
<feGaussianBlur stdDeviation="2" result="effect1_foregroundBlur_600_82"/>
</filter>
<filter id="filter11_f_600_82" x="16.1948" y="0.609253" width="177.331" height="145.662" filterUnits="userSpaceOnUse" color-interpolation-filters="sRGB">
<feFlood flood-opacity="0" result="BackgroundImageFix"/>
<feBlend mode="normal" in="SourceGraphic" in2="BackgroundImageFix" result="shape"/>
<feGaussianBlur stdDeviation="30" result="effect1_foregroundBlur_600_82"/>
</filter>
<filter id="filter12_f_600_82" x="35.6543" y="67.4778" width="64.0518" height="21.511" filterUnits="userSpaceOnUse" color-interpolation-filters="sRGB">
<feFlood flood-opacity="0" result="BackgroundImageFix"/>
<feBlend mode="normal" in="SourceGraphic" in2="BackgroundImageFix" result="shape"/>
<feGaussianBlur stdDeviation="2" result="effect1_foregroundBlur_600_82"/>
</filter>
<filter id="filter13_f_600_82" x="16.3218" y="86.2657" width="42.1826" height="18.7064" filterUnits="userSpaceOnUse" color-interpolation-filters="sRGB">
<feFlood flood-opacity="0" result="BackgroundImageFix"/>
<feBlend mode="normal" in="SourceGraphic" in2="BackgroundImageFix" result="shape"/>
<feGaussianBlur stdDeviation="2" result="effect1_foregroundBlur_600_82"/>
</filter>
<radialGradient id="paint0_radial_600_82" cx="0" cy="0" r="1" gradientTransform="matrix(14.2062 34.1053 -47.8357 20.4728 135.959 161.779)" gradientUnits="userSpaceOnUse">
<stop stop-color="#C5AE77"/>
<stop offset="1" stop-color="#583000"/>
</radialGradient>
<linearGradient id="paint1_linear_600_82" x1="88.3173" y1="122.747" x2="88.3173" y2="183" gradientUnits="userSpaceOnUse">
<stop stop-color="#2A461E"/>
<stop offset="1" stop-color="#426834"/>
</linearGradient>
<linearGradient id="paint2_linear_600_82" x1="180.634" y1="83.8468" x2="180.634" y2="170.874" gradientUnits="userSpaceOnUse">
<stop stop-color="#233D19"/>
<stop offset="1" stop-color="#588546"/>
</linearGradient>
<radialGradient id="paint3_radial_600_82" cx="0" cy="0" r="1" gradientTransform="matrix(18.1393 84.9585 -135.401 29.7032 98.5743 63.2526)" gradientUnits="userSpaceOnUse">
<stop stop-color="#CDB395"/>
<stop offset="1" stop-color="#8E5D22"/>
</radialGradient>
<linearGradient id="paint4_linear_600_82" x1="24.9263" y1="70.4526" x2="56.1519" y2="87.5255" gradientUnits="userSpaceOnUse">
<stop stop-color="#79480D"/>
<stop offset="1" stop-color="#4C2E0B"/>
</linearGradient>
<linearGradient id="paint5_linear_600_82" x1="195.847" y1="26.7625" x2="189.891" y2="71.0861" gradientUnits="userSpaceOnUse">
<stop stop-color="#DFB2B2"/>
<stop offset="1" stop-color="#ED7F81"/>
</linearGradient>
</defs>
</svg>
