<svg width="187" height="228" viewBox="0 0 187 228" fill="none" xmlns="http://www.w3.org/2000/svg">
<g filter="url(#filter0_f_447_34)">
<path fill-rule="evenodd" clip-rule="evenodd" d="M139.956 6.8535C123.434 15.1089 142.532 51.2756 142.532 51.2756C142.532 51.2756 159.738 89.401 175.23 80.8892C189.369 73.1211 173.965 41.9569 173.965 41.9569C173.965 41.9569 157.594 -1.95978 139.956 6.8535ZM150.718 50.0316C145.575 38.023 132.791 12.6499 147.321 15.9345C153.68 17.372 167.044 43.3289 167.044 43.3289C167.044 43.3289 178.985 73.7956 167.238 71.14C158.298 69.1191 155.159 60.3979 150.718 50.0316Z" fill="#D9D9D9"/>
<path fill-rule="evenodd" clip-rule="evenodd" d="M139.956 6.8535C123.434 15.1089 142.532 51.2756 142.532 51.2756C142.532 51.2756 159.738 89.401 175.23 80.8892C189.369 73.1211 173.965 41.9569 173.965 41.9569C173.965 41.9569 157.594 -1.95978 139.956 6.8535ZM150.718 50.0316C145.575 38.023 132.791 12.6499 147.321 15.9345C153.68 17.372 167.044 43.3289 167.044 43.3289C167.044 43.3289 178.985 73.7956 167.238 71.14C158.298 69.1191 155.159 60.3979 150.718 50.0316Z" stroke="#6C6C6C" stroke-width="2" stroke-linecap="round"/>
</g>
<path d="M30.1102 105.913C30.1102 105.913 23.8767 60.4684 46.6319 58.1212C66.293 56.0931 82.1162 86.3182 82.1162 86.3182C82.1162 86.3182 120.957 96.9046 123.421 127.1C126.8 168.52 76.4837 176.804 76.4837 176.804C76.4837 176.804 82.3218 176.041 89.2506 173.832C96.1793 171.624 111.968 161.052 111.968 161.052C111.968 161.052 115.567 179.825 111.968 188.114C107.898 197.489 91.3158 206.753 91.3158 206.753L89.2506 213.444C89.2506 213.444 75.3111 216.062 68.7856 216.311C62.2601 216.56 56.2065 216.311 56.2065 216.311C56.2065 216.311 45.3172 214.718 44.0035 193.212C42.9794 176.448 45.9504 173.087 48.0715 172.728C41.9974 171.237 23.4393 165.1 18.2817 144.943C14.3687 129.65 30.1102 105.913 30.1102 105.913Z" fill="url(#paint0_linear_447_34)" stroke="#2B435B" stroke-linecap="round"/>
<g filter="url(#filter1_n_447_34)">
<path d="M53.0783 79.5466C54.9076 79.065 59.7289 81.3403 60.5241 79.5467C61.3831 77.6093 56.5055 76.1497 53.3744 76.7007C44.6691 78.2324 42.4436 88.2382 42.4436 88.2382C42.4436 88.2382 47.1676 81.1028 53.0783 79.5466Z" fill="#1E0700"/>
</g>
<g filter="url(#filter2_n_447_34)">
<path d="M72.5246 77.8614C71.2818 77.5338 66.4428 77.9486 65.8956 76.7526C65.3044 75.4608 68.6061 74.5098 70.7321 74.8887C76.6428 75.9423 79.7249 80.9134 79.7249 80.9134C79.7249 80.9134 76.5402 78.9199 72.5246 77.8614Z" fill="#1E0700"/>
</g>
<g filter="url(#filter3_i_447_34)">
<path d="M63.4039 28.6471C91.5657 31.699 97.9661 45.7382 91.0857 57.1832C84.2053 68.6282 73.3696 52.6834 70.2844 59.93C68.9444 63.0773 70.2844 68.6282 70.2844 68.6282C70.2844 68.6282 62.8964 62.2784 56.0435 64.6605C48.2085 67.3841 43.0883 73.1214 40.6825 82.2095C38.2767 91.2976 40.6825 112.119 40.6825 112.119C40.6825 112.119 35.4022 106.243 30.1218 134.246C24.8415 162.249 52.8433 174.227 52.8433 174.227C52.8433 174.227 49.6578 187.823 53.6433 200.932C57.6436 214.089 63.4039 216.497 63.4039 216.497C63.4039 216.497 43.6564 214.079 33.002 208.104C15.5133 198.296 6.69032 184.312 4.04019 166.597C2.37003 155.433 8.04045 139.434 8.04045 139.434C8.04045 139.434 0.999971 124.675 1 112.119C1.00005 90.1447 21.0348 24.0554 63.4039 28.6471Z" fill="url(#paint1_linear_447_34)"/>
</g>
<path d="M63.4039 28.6471C91.5657 31.699 97.9661 45.7382 91.0857 57.1832C84.2053 68.6282 73.3696 52.6834 70.2844 59.93C68.9444 63.0773 70.2844 68.6282 70.2844 68.6282C70.2844 68.6282 62.8964 62.2784 56.0435 64.6605C48.2085 67.3841 43.0883 73.1214 40.6825 82.2095C38.2767 91.2976 40.6825 112.119 40.6825 112.119C40.6825 112.119 35.4022 106.243 30.1218 134.246C24.8415 162.249 52.8433 174.227 52.8433 174.227C52.8433 174.227 49.6578 187.823 53.6433 200.932C57.6436 214.089 63.4039 216.497 63.4039 216.497C63.4039 216.497 43.6564 214.079 33.002 208.104C15.5133 198.296 6.69032 184.312 4.04019 166.597C2.37003 155.433 8.04045 139.434 8.04045 139.434C8.04045 139.434 0.999971 124.675 1 112.119C1.00005 90.1447 21.0348 24.0554 63.4039 28.6471Z" stroke="#2B435B" stroke-width="2" stroke-linecap="round"/>
<g filter="url(#filter4_d_447_34)">
<path d="M74.1248 58.0235C74.1248 58.0235 69.0045 55.3008 54.6036 57.1079C47.48 58.0018 39.7227 60.3125 39.7227 60.3125" stroke="#2B435B" stroke-width="2" stroke-linecap="round"/>
</g>
<g filter="url(#filter5_d_447_34)">
<path d="M71.526 57.4035C71.526 57.4035 66.2576 61.9911 51.404 61.9911C42.6028 61.9911 33.4824 70.8419 33.4824 70.8419" stroke="#2B435B" stroke-width="2" stroke-linecap="round"/>
</g>
<g filter="url(#filter6_d_447_34)">
<path d="M7.08057 136.307C7.08057 136.307 14.64 150.2 20.2014 156.755C30.6879 169.116 43.0828 173.694 43.0828 173.694" stroke="#2B435B" stroke-width="2" stroke-linecap="round"/>
</g>
<g filter="url(#filter7_i_447_34)">
<path d="M48.2321 100.142C47.7485 99.6416 45.2084 83.1533 52.3924 83.0504C57.8282 82.9725 61.993 92.6642 61.993 92.6642C61.993 92.6642 63.0377 101.455 58.9236 103.346C55.0781 105.112 51.1264 103.134 48.2321 100.142Z" fill="#7194BF"/>
</g>
<path d="M48.2321 100.142C47.7485 99.6416 45.2084 83.1533 52.3924 83.0504C57.8282 82.9725 61.993 92.6642 61.993 92.6642C61.993 92.6642 63.0377 101.455 58.9236 103.346C55.0781 105.112 51.1264 103.134 48.2321 100.142Z" stroke="#2B435B" stroke-width="3" stroke-linecap="round"/>
<path d="M61.8323 92.6641L48.7114 100.141C48.7114 100.141 53.8111 106.093 58.7921 103.346C63.773 100.599 61.8323 92.6641 61.8323 92.6641Z" fill="#F8EB82" stroke="#2B435B" stroke-linecap="round"/>
<path d="M58.2662 97.9003C57.3719 97.8844 56.4124 97.1817 56.4124 97.1817L60.7313 94.8365C60.7313 94.8365 62.2075 97.9701 58.2662 97.9003Z" fill="black" stroke="black" stroke-width="3" stroke-linecap="round"/>
<g filter="url(#filter8_i_447_34)">
<path d="M71.6832 95.7333C70.2419 94.3776 65.3262 81.3691 70.4493 79.9636C74.3257 78.9 79.7008 86.6479 79.7008 86.6479C79.7008 86.6479 82.4095 94.23 79.9273 96.6431C77.6072 98.8986 74.2427 98.1407 71.6832 95.7333Z" fill="#7194BF"/>
</g>
<path d="M71.6832 95.7333C70.2419 94.3776 65.3262 81.3691 70.4493 79.9636C74.3257 78.9 79.7008 86.6479 79.7008 86.6479C79.7008 86.6479 82.4095 94.23 79.9273 96.6431C77.6072 98.8986 74.2427 98.1407 71.6832 95.7333Z" stroke="#2B435B" stroke-width="3" stroke-linecap="round"/>
<path d="M79.5862 86.6771L70.4053 93.0936C70.4053 93.0936 74.3262 100.858 78.9429 97.1118C83.5595 93.3652 79.5862 86.6771 79.5862 86.6771Z" fill="#F8EB82" stroke="#2B435B" stroke-linecap="round"/>
<path d="M77.1112 92.2325C76.253 92.2595 75.2677 91.5636 75.2677 91.5636L79.1847 88.8728C79.1847 88.8728 80.8937 92.1132 77.1112 92.2325Z" fill="black" stroke="black" stroke-width="3" stroke-linecap="round"/>
<path d="M67.563 104.882C70.5235 102.361 75.703 102.674 81.5631 98.8885C86.4741 95.7165 93.9196 90.0594 100.525 89.775C111.504 89.3024 110.103 104.491 105.002 111.46C100.727 117.302 95.358 120.84 87.4054 116.927C80.4286 113.494 64.3197 112.707 67.008 107.405C67.7481 105.945 69.3224 106.549 69.3224 106.549C70.5975 106.683 71.5399 106.613 72.4877 106.546C69.6555 106.467 66.0979 106.13 67.563 104.882Z" fill="#5F8CB5" stroke="#2D3C5D" stroke-width="2" stroke-linecap="round"/>
<path d="M99.4062 135.086C99.4062 135.086 101.766 131.272 104.207 131.271C107.294 131.271 108.847 137.375 108.847 137.375" stroke="#2D3C5D" stroke-width="2" stroke-linecap="round"/>
<path d="M106.607 148.057C106.607 148.057 104.248 151.872 101.808 151.874C98.7208 151.875 97.166 145.771 97.166 145.771" stroke="#2D3C5D" stroke-width="2" stroke-linecap="round"/>
<path d="M92.8457 147.142C92.8457 147.142 92.5743 145.799 92.8457 145.005C93.1758 144.041 94.6058 143.022 94.6058 143.022" stroke="#2D3C5D" stroke-width="2" stroke-linecap="round"/>
<path d="M49.6431 113.417C49.6431 113.417 51.5632 109.45 55.7235 108.687C59.8837 107.924 63.724 104.566 63.724 104.566" stroke="#2D3C5D" stroke-linecap="round"/>
<ellipse cx="102.286" cy="141.648" rx="3.04019" ry="4.88319" fill="#252525"/>
<path d="M108.43 152.635C107.527 147.525 101.39 143.479 101.39 143.479L103.79 138.901C103.79 138.901 114.671 145.913 114.671 152.635C114.671 181.782 90.5 225.38 90.5 225.38L82 221.38L101.39 184.834C101.39 184.834 110.669 165.301 108.43 152.635Z" fill="#955C2F" stroke="#80592B" stroke-width="3" stroke-linecap="round"/>
<g filter="url(#filter9_f_447_34)">
<path fill-rule="evenodd" clip-rule="evenodd" d="M100.206 141.332C101.486 141.576 118.927 141.332 125.168 135.228C130.053 130.449 125.513 124.465 128.528 118.442C130.965 113.573 135.568 108.523 135.568 108.523C135.568 108.523 156.85 115.695 143.409 73.4248C138.358 57.5394 125.169 33.3726 112.047 44.2783C102.154 52.5002 114.127 81.2074 114.127 81.2074L128.528 102.877C128.528 102.877 120.42 111.246 118.447 115.695C117.072 118.798 118.288 120.806 119.489 122.789C120.71 124.806 121.916 126.797 120.367 129.887C116.416 137.771 100.206 141.332 100.206 141.332ZM120.367 75.256C120.367 75.256 114.208 58.4421 120.367 52.8239C124.048 49.4667 132.599 64.316 135.568 73.4248C138.245 81.6354 138.929 92.4998 135.568 95.3992C130.704 99.5962 120.367 75.256 120.367 75.256Z" fill="#D9D9D9"/>
<path fill-rule="evenodd" clip-rule="evenodd" d="M100.206 141.332C101.486 141.576 118.927 141.332 125.168 135.228C130.053 130.449 125.513 124.465 128.528 118.442C130.965 113.573 135.568 108.523 135.568 108.523C135.568 108.523 156.85 115.695 143.409 73.4248C138.358 57.5394 125.169 33.3726 112.047 44.2783C102.154 52.5002 114.127 81.2074 114.127 81.2074L128.528 102.877C128.528 102.877 120.42 111.246 118.447 115.695C117.072 118.798 118.288 120.806 119.489 122.789C120.71 124.806 121.916 126.797 120.367 129.887C116.416 137.771 100.206 141.332 100.206 141.332ZM120.367 75.256C120.367 75.256 114.208 58.4421 120.367 52.8239C124.048 49.4667 132.599 64.316 135.568 73.4248C138.245 81.6354 138.929 92.4998 135.568 95.3992C130.704 99.5962 120.367 75.256 120.367 75.256Z" stroke="#6C6C6C" stroke-width="2" stroke-linecap="round"/>
</g>
<defs>
<filter id="filter0_f_447_34" x="128.222" y="0.687195" width="57.9834" height="86.4383" filterUnits="userSpaceOnUse" color-interpolation-filters="sRGB">
<feFlood flood-opacity="0" result="BackgroundImageFix"/>
<feBlend mode="normal" in="SourceGraphic" in2="BackgroundImageFix" result="shape"/>
<feGaussianBlur stdDeviation="2" result="effect1_foregroundBlur_447_34"/>
</filter>
<filter id="filter1_n_447_34" x="42.4434" y="76.5831" width="18.1807" height="11.6551" filterUnits="userSpaceOnUse" color-interpolation-filters="sRGB">
<feFlood flood-opacity="0" result="BackgroundImageFix"/>
<feBlend mode="normal" in="SourceGraphic" in2="BackgroundImageFix" result="shape"/>
<feTurbulence type="fractalNoise" baseFrequency="0.25 0.25" stitchTiles="stitch" numOctaves="3" result="noise" seed="6770" />
<feColorMatrix in="noise" type="luminanceToAlpha" result="alphaNoise" />
<feComponentTransfer in="alphaNoise" result="coloredNoise1">
<feFuncA type="discrete" tableValues="1 1 1 1 1 1 1 1 1 1 1 1 1 1 1 1 1 1 1 1 1 1 1 1 1 1 1 1 1 1 1 1 1 1 1 1 1 1 1 1 1 1 1 1 1 1 1 1 1 1 1 0 0 0 0 0 0 0 0 0 0 0 0 0 0 0 0 0 0 0 0 0 0 0 0 0 0 0 0 0 0 0 0 0 0 0 0 0 0 0 0 0 0 0 0 0 0 0 0 0 "/>
</feComponentTransfer>
<feComposite operator="in" in2="shape" in="coloredNoise1" result="noise1Clipped" />
<feFlood flood-color="rgba(0, 0, 0, 0.25)" result="color1Flood" />
<feComposite operator="in" in2="noise1Clipped" in="color1Flood" result="color1" />
<feMerge result="effect1_noise_447_34">
<feMergeNode in="shape" />
<feMergeNode in="color1" />
</feMerge>
</filter>
<filter id="filter2_n_447_34" x="65.8257" y="74.8046" width="13.8994" height="6.10876" filterUnits="userSpaceOnUse" color-interpolation-filters="sRGB">
<feFlood flood-opacity="0" result="BackgroundImageFix"/>
<feBlend mode="normal" in="SourceGraphic" in2="BackgroundImageFix" result="shape"/>
<feTurbulence type="fractalNoise" baseFrequency="0.25 0.25" stitchTiles="stitch" numOctaves="3" result="noise" seed="6770" />
<feColorMatrix in="noise" type="luminanceToAlpha" result="alphaNoise" />
<feComponentTransfer in="alphaNoise" result="coloredNoise1">
<feFuncA type="discrete" tableValues="1 1 1 1 1 1 1 1 1 1 1 1 1 1 1 1 1 1 1 1 1 1 1 1 1 1 1 1 1 1 1 1 1 1 1 1 1 1 1 1 1 1 1 1 1 1 1 1 1 1 1 0 0 0 0 0 0 0 0 0 0 0 0 0 0 0 0 0 0 0 0 0 0 0 0 0 0 0 0 0 0 0 0 0 0 0 0 0 0 0 0 0 0 0 0 0 0 0 0 0 "/>
</feComponentTransfer>
<feComposite operator="in" in2="shape" in="coloredNoise1" result="noise1Clipped" />
<feFlood flood-color="rgba(0, 0, 0, 0.25)" result="color1Flood" />
<feComposite operator="in" in2="noise1Clipped" in="color1Flood" result="color1" />
<feMerge result="effect1_noise_447_34">
<feMergeNode in="shape" />
<feMergeNode in="color1" />
</feMerge>
</filter>
<filter id="filter3_i_447_34" x="0" y="27.4185" width="94.6274" height="194.071" filterUnits="userSpaceOnUse" color-interpolation-filters="sRGB">
<feFlood flood-opacity="0" result="BackgroundImageFix"/>
<feBlend mode="normal" in="SourceGraphic" in2="BackgroundImageFix" result="shape"/>
<feColorMatrix in="SourceAlpha" type="matrix" values="0 0 0 0 0 0 0 0 0 0 0 0 0 0 0 0 0 0 127 0" result="hardAlpha"/>
<feOffset dy="4"/>
<feGaussianBlur stdDeviation="2"/>
<feComposite in2="hardAlpha" operator="arithmetic" k2="-1" k3="1"/>
<feColorMatrix type="matrix" values="0 0 0 0 0 0 0 0 0 0 0 0 0 0 0 0 0 0 0.25 0"/>
<feBlend mode="normal" in2="shape" result="effect1_innerShadow_447_34"/>
</filter>
<filter id="filter4_d_447_34" x="34.7222" y="55.4886" width="44.4028" height="13.8242" filterUnits="userSpaceOnUse" color-interpolation-filters="sRGB">
<feFlood flood-opacity="0" result="BackgroundImageFix"/>
<feColorMatrix in="SourceAlpha" type="matrix" values="0 0 0 0 0 0 0 0 0 0 0 0 0 0 0 0 0 0 127 0" result="hardAlpha"/>
<feOffset dy="4"/>
<feGaussianBlur stdDeviation="2"/>
<feComposite in2="hardAlpha" operator="out"/>
<feColorMatrix type="matrix" values="0 0 0 0 0 0 0 0 0 0 0 0 0 0 0 0 0 0 0.25 0"/>
<feBlend mode="normal" in2="BackgroundImageFix" result="effect1_dropShadow_447_34"/>
<feBlend mode="normal" in="SourceGraphic" in2="effect1_dropShadow_447_34" result="shape"/>
</filter>
<filter id="filter5_d_447_34" x="28.4707" y="56.4156" width="48.0674" height="23.4142" filterUnits="userSpaceOnUse" color-interpolation-filters="sRGB">
<feFlood flood-opacity="0" result="BackgroundImageFix"/>
<feColorMatrix in="SourceAlpha" type="matrix" values="0 0 0 0 0 0 0 0 0 0 0 0 0 0 0 0 0 0 127 0" result="hardAlpha"/>
<feOffset dy="4"/>
<feGaussianBlur stdDeviation="2"/>
<feComposite in2="hardAlpha" operator="out"/>
<feColorMatrix type="matrix" values="0 0 0 0 0 0 0 0 0 0 0 0 0 0 0 0 0 0 0.25 0"/>
<feBlend mode="normal" in2="BackgroundImageFix" result="effect1_dropShadow_447_34"/>
<feBlend mode="normal" in="SourceGraphic" in2="effect1_dropShadow_447_34" result="shape"/>
</filter>
<filter id="filter6_d_447_34" x="2.08057" y="135.307" width="46.0024" height="47.3873" filterUnits="userSpaceOnUse" color-interpolation-filters="sRGB">
<feFlood flood-opacity="0" result="BackgroundImageFix"/>
<feColorMatrix in="SourceAlpha" type="matrix" values="0 0 0 0 0 0 0 0 0 0 0 0 0 0 0 0 0 0 127 0" result="hardAlpha"/>
<feOffset dy="4"/>
<feGaussianBlur stdDeviation="2"/>
<feComposite in2="hardAlpha" operator="out"/>
<feColorMatrix type="matrix" values="0 0 0 0 0 0 0 0 0 0 0 0 0 0 0 0 0 0 0.25 0"/>
<feBlend mode="normal" in2="BackgroundImageFix" result="effect1_dropShadow_447_34"/>
<feBlend mode="normal" in="SourceGraphic" in2="effect1_dropShadow_447_34" result="shape"/>
</filter>
<filter id="filter7_i_447_34" x="45.9028" y="81.5499" width="17.7085" height="27.9686" filterUnits="userSpaceOnUse" color-interpolation-filters="sRGB">
<feFlood flood-opacity="0" result="BackgroundImageFix"/>
<feBlend mode="normal" in="SourceGraphic" in2="BackgroundImageFix" result="shape"/>
<feColorMatrix in="SourceAlpha" type="matrix" values="0 0 0 0 0 0 0 0 0 0 0 0 0 0 0 0 0 0 127 0" result="hardAlpha"/>
<feOffset dy="4"/>
<feGaussianBlur stdDeviation="2"/>
<feComposite in2="hardAlpha" operator="arithmetic" k2="-1" k3="1"/>
<feColorMatrix type="matrix" values="0 0 0 0 0 0 0 0 0 0 0 0 0 0 0 0 0 0 0.25 0"/>
<feBlend mode="normal" in2="shape" result="effect1_innerShadow_447_34"/>
</filter>
<filter id="filter8_i_447_34" x="66.6626" y="78.3716" width="15.8208" height="25.1111" filterUnits="userSpaceOnUse" color-interpolation-filters="sRGB">
<feFlood flood-opacity="0" result="BackgroundImageFix"/>
<feBlend mode="normal" in="SourceGraphic" in2="BackgroundImageFix" result="shape"/>
<feColorMatrix in="SourceAlpha" type="matrix" values="0 0 0 0 0 0 0 0 0 0 0 0 0 0 0 0 0 0 127 0" result="hardAlpha"/>
<feOffset dy="4"/>
<feGaussianBlur stdDeviation="2"/>
<feComposite in2="hardAlpha" operator="arithmetic" k2="-1" k3="1"/>
<feColorMatrix type="matrix" values="0 0 0 0 0 0 0 0 0 0 0 0 0 0 0 0 0 0 0.25 0"/>
<feBlend mode="normal" in2="shape" result="effect1_innerShadow_447_34"/>
</filter>
<filter id="filter9_f_447_34" x="95.9912" y="36.5426" width="56.8691" height="109.848" filterUnits="userSpaceOnUse" color-interpolation-filters="sRGB">
<feFlood flood-opacity="0" result="BackgroundImageFix"/>
<feBlend mode="normal" in="SourceGraphic" in2="BackgroundImageFix" result="shape"/>
<feGaussianBlur stdDeviation="2" result="effect1_foregroundBlur_447_34"/>
</filter>
<linearGradient id="paint0_linear_447_34" x1="70.7642" y1="140.885" x2="70.6331" y2="216.422" gradientUnits="userSpaceOnUse">
<stop stop-color="#A2CBEA"/>
<stop offset="1" stop-color="#608CB5"/>
</linearGradient>
<linearGradient id="paint1_linear_447_34" x1="109.857" y1="149.073" x2="-27.0374" y2="153.716" gradientUnits="userSpaceOnUse">
<stop offset="0.549138" stop-color="#628EB6"/>
<stop offset="0.935064" stop-color="#4C7194"/>
</linearGradient>
</defs>
</svg>
