<svg width="210" height="335" viewBox="0 0 210 335" fill="none" xmlns="http://www.w3.org/2000/svg">
<path d="M168.203 80.7984C168.203 80.7984 158.617 94.5383 149.395 98.6932C133.69 105.769 102.741 104.07 108.17 123.25C116.116 151.323 156.56 138.136 156.56 138.136C156.56 138.136 175.77 135.673 179.843 145.663C181.844 150.57 179.843 161.386 179.843 161.386C179.843 161.386 195.915 152.906 200.93 143.976C206.781 133.556 206.06 124.451 202.859 112.705C197.813 94.1942 168.203 80.7984 168.203 80.7984Z" fill="url(#paint0_linear_606_121)" stroke="#9A711F" stroke-width="3"/>
<g filter="url(#filter0_g_606_121)">
<path d="M151.087 161.5C143.237 145.811 157.166 139.176 157.166 139.176C157.166 139.176 112.657 141.431 111.68 124.486C110.485 103.781 150.544 112.341 155.538 107.367C156.384 106.524 168.312 89.5541 171.822 82.8453C171.822 82.8453 146.115 58.3241 125.901 50.5736C101.33 41.1526 80.7196 62.3022 59.1364 46.6409C46.3791 37.3838 34.8189 13.4438 34.8189 13.4438L37.8586 38.4284L24.2886 5C24.2886 5 21.5083 28.2528 27.9796 40.2791C33.2086 49.9967 48.1718 59.2488 48.1718 59.2488L37.8586 56.0101C37.8586 56.0101 40.2007 63.8061 43.2866 67.6926C47.33 72.785 56.9652 76.5992 56.9652 76.5992C56.9652 76.5992 58.1978 124.326 48.1718 152.015C34.6018 189.492 12.2384 199.093 12.2384 199.093L24.2886 206.958L9.19873 219.103H21.9003C21.9003 219.103 17.5605 223.562 16.5808 227.316C15.3019 232.217 16.5808 238.999 18.6435 240.155C19.7012 240.748 24.2886 230.092 24.2886 230.092L21.9003 245.592C21.9003 245.592 24.4727 278.561 28.631 269.767C30.005 266.861 30.4765 261.67 30.4765 261.67C30.4765 261.67 33.772 277.153 40.4641 283.3C43.6123 286.191 40.1622 253.44 51.6457 243.972C60.7648 236.454 67.2784 214.361 67.2784 214.361C67.2784 214.361 69.0363 231.671 75.3119 240.155C81.8018 248.929 93.0072 252.994 99.3036 252.994C104.11 252.994 96.8068 240.155 96.8068 240.155C96.8068 240.155 122.644 279.251 122.644 269.767V261.67C122.644 261.67 138.168 298.337 142.836 302.154C146.627 305.254 147.287 290.009 147.287 290.009C147.287 290.009 155.212 320.661 156.732 314.877C158.035 309.918 159.989 302.154 159.989 302.154C159.989 302.154 160.595 334.508 165.742 328.179C172.799 319.504 177.85 307.299 182.895 296.255C187.94 285.21 189.3 264.793 189.3 264.793C189.3 264.793 192.517 279.853 197.659 285.845C199.644 288.158 203.749 265.731 200.699 252.994C196.892 237.099 180.615 214.13 180.615 214.13C180.615 214.13 197.682 233.05 196.574 226.159C194.619 214.014 168.565 196.432 151.087 161.5Z" fill="url(#paint1_linear_606_121)"/>
<path d="M151.087 161.5C143.237 145.811 157.166 139.176 157.166 139.176C157.166 139.176 112.657 141.431 111.68 124.486C110.485 103.781 150.544 112.341 155.538 107.367C156.384 106.524 168.312 89.5541 171.822 82.8453C171.822 82.8453 146.115 58.3241 125.901 50.5736C101.33 41.1526 80.7196 62.3022 59.1364 46.6409C46.3791 37.3838 34.8189 13.4438 34.8189 13.4438L37.8586 38.4284L24.2886 5C24.2886 5 21.5083 28.2528 27.9796 40.2791C33.2086 49.9967 48.1718 59.2488 48.1718 59.2488L37.8586 56.0101C37.8586 56.0101 40.2007 63.8061 43.2866 67.6926C47.33 72.785 56.9652 76.5992 56.9652 76.5992C56.9652 76.5992 58.1978 124.326 48.1718 152.015C34.6018 189.492 12.2384 199.093 12.2384 199.093L24.2886 206.958L9.19873 219.103H21.9003C21.9003 219.103 17.5605 223.562 16.5808 227.316C15.3019 232.217 16.5808 238.999 18.6435 240.155C19.7012 240.748 24.2886 230.092 24.2886 230.092L21.9003 245.592C21.9003 245.592 24.4727 278.561 28.631 269.767C30.005 266.861 30.4765 261.67 30.4765 261.67C30.4765 261.67 33.772 277.153 40.4641 283.3C43.6123 286.191 40.1622 253.44 51.6457 243.972C60.7648 236.454 67.2784 214.361 67.2784 214.361C67.2784 214.361 69.0363 231.671 75.3119 240.155C81.8018 248.929 93.0072 252.994 99.3036 252.994C104.11 252.994 96.8068 240.155 96.8068 240.155C96.8068 240.155 122.644 279.251 122.644 269.767V261.67C122.644 261.67 138.168 298.337 142.836 302.154C146.627 305.254 147.287 290.009 147.287 290.009C147.287 290.009 155.212 320.661 156.732 314.877C158.035 309.918 159.989 302.154 159.989 302.154C159.989 302.154 160.595 334.508 165.742 328.179C172.799 319.504 177.85 307.299 182.895 296.255C187.94 285.21 189.3 264.793 189.3 264.793C189.3 264.793 192.517 279.853 197.659 285.845C199.644 288.158 203.749 265.731 200.699 252.994C196.892 237.099 180.615 214.13 180.615 214.13C180.615 214.13 197.682 233.05 196.574 226.159C194.619 214.014 168.565 196.432 151.087 161.5Z" stroke="#244A6E" stroke-width="3"/>
</g>
<g filter="url(#filter1_n_606_121)">
<path fill-rule="evenodd" clip-rule="evenodd" d="M179.401 107.692C179.401 107.692 173.498 108.202 171.534 111.461C169.797 114.345 170.513 120.434 170.513 120.434L169.701 127.566C170.776 128.364 172.15 128.856 173.602 129.366L178.488 131.62C179.566 131.042 179.741 136.544 179.904 141.685C179.975 143.903 180.043 146.054 180.181 147.62L179.312 161.5C179.312 161.5 196.899 154.005 201.937 143.406C206.007 134.844 206.721 127.936 204.766 118.558C202.725 108.765 193.642 97.7666 193.642 97.7666L179.401 107.692Z" fill="url(#paint2_linear_606_121)"/>
<path d="M169.701 127.566L164.982 138.019C164.982 138.019 172.482 139.034 175.621 140.68C179.26 142.588 180.181 147.62 180.181 147.62C180.043 146.054 179.975 143.903 179.904 141.685C179.741 136.544 179.566 131.042 178.488 131.62L173.602 129.366C172.15 128.856 170.776 128.364 169.701 127.566Z" fill="url(#paint3_linear_606_121)"/>
<path d="M180.181 147.62L179.312 161.5C179.312 161.5 196.899 154.005 201.937 143.406C206.007 134.844 206.721 127.936 204.766 118.558C202.725 108.765 193.642 97.7666 193.642 97.7666L179.401 107.692C179.401 107.692 173.498 108.202 171.534 111.461C169.797 114.345 170.513 120.434 170.513 120.434L169.701 127.566M180.181 147.62C180.181 147.62 179.26 142.588 175.621 140.68C172.482 139.034 164.982 138.019 164.982 138.019L169.701 127.566M180.181 147.62C180.043 146.054 179.975 143.903 179.904 141.685C179.741 136.544 179.566 131.042 178.488 131.62M178.488 131.62L173.602 129.366M178.488 131.62C176.97 130.538 175.237 129.94 173.602 129.366M169.701 127.566C170.776 128.364 172.15 128.856 173.602 129.366M169.701 127.566L173.602 129.366" stroke="#0D4D0A" stroke-width="3"/>
</g>
<path d="M170.627 128.65C170.627 128.65 143.705 125.527 137.517 122.173C135.967 121.333 136.593 118.999 137.517 117.43C138.403 115.924 141.316 115.348 141.316 115.348" stroke="#0D4D0A" stroke-width="3"/>
<path d="M190.82 120.091L184.823 116.685C184.823 116.685 183.66 113.773 184.823 112.726C186.374 111.33 189.199 115.814 189.199 115.814L190.82 120.091Z" fill="#0B4208" stroke="#0D4D0A" stroke-width="6"/>
<path d="M145.333 85.7246C145.333 94.24 135.841 98.2293 123.703 98.2293C111.442 95.437 106.469 92.7831 106.469 84.2678C106.469 75.7524 111.566 68.8494 123.703 68.8494C135.841 68.8494 145.333 77.2093 145.333 85.7246Z" fill="url(#paint4_linear_606_121)"/>
<path d="M115.03 67.5515C117.658 67.1532 120.421 67.2745 123.838 67.6482C129.694 68.2887 133.238 69.0567 137.752 72.7488C139.003 73.7721 140.303 75.3308 141.44 76.8865C140.111 75.8646 138.693 74.7734 137.474 73.8406C135.61 72.4144 132.45 71.1579 129.757 70.2712C128.389 69.8209 127.101 69.4528 126.096 69.197C125.593 69.0692 125.155 68.9685 124.81 68.8982C124.579 68.8513 124.336 68.8062 124.134 68.7869L123.947 68.7771C123.783 68.7771 123.595 68.8111 123.465 68.8367C123.307 68.8678 123.115 68.9121 122.898 68.9656C122.464 69.0729 121.899 69.2265 121.248 69.4167C119.944 69.7977 118.27 70.331 116.554 70.9451C114.841 71.5582 113.068 72.2586 111.576 72.9734C110.831 73.3306 110.141 73.6983 109.558 74.0681C108.986 74.4305 108.463 74.8281 108.096 75.2585C107.207 76.301 106.667 77.3013 106.363 78.4744C106.069 79.6135 106.012 80.8708 106.012 82.3826C106.012 83.894 106.347 85.5361 106.963 87.196C106.957 87.1827 106.951 87.1693 106.945 87.156C106.543 86.2074 106.227 85.3453 106.014 84.7205C105.907 84.4087 105.826 84.1566 105.771 83.9841C105.744 83.8979 105.724 83.8309 105.711 83.7869C105.704 83.7649 105.699 83.7486 105.696 83.738C105.695 83.7328 105.693 83.7286 105.692 83.7263L105.691 83.7244L105.566 83.2947L105.162 83.1013L95.3096 78.4001C96.1418 77.8198 97.2866 77.0274 98.5801 76.1433C101.234 74.3294 104.499 72.1449 106.988 70.6316C109.897 68.8634 112.421 67.9471 115.03 67.5515Z" fill="black" stroke="black" stroke-width="2"/>
<path d="M133.066 82.3043C136.728 82.3044 139.623 85.0201 139.623 88.2819C139.623 91.5436 136.728 94.2593 133.066 94.2594C129.404 94.2594 126.509 91.5437 126.509 88.2819C126.509 85.02 129.404 82.3043 133.066 82.3043Z" fill="url(#paint5_radial_606_121)" stroke="black"/>
<ellipse cx="134.586" cy="88.513" rx="2.93112" ry="3.0074" fill="black"/>
<ellipse cx="133.175" cy="87.0093" rx="1.51984" ry="1.5037" fill="white"/>
<defs>
<filter id="filter0_g_606_121" x="0.942871" y="0.435791" width="206.348" height="334.064" filterUnits="userSpaceOnUse" color-interpolation-filters="sRGB">
<feFlood flood-opacity="0" result="BackgroundImageFix"/>
<feBlend mode="normal" in="SourceGraphic" in2="BackgroundImageFix" result="shape"/>
<feTurbulence type="fractalNoise" baseFrequency="2 2" numOctaves="3" seed="7824" />
<feDisplacementMap in="shape" scale="8" xChannelSelector="R" yChannelSelector="G" result="displacedImage" width="100%" height="100%" />
<feMerge result="effect1_texture_606_121">
<feMergeNode in="displacedImage"/>
</feMerge>
</filter>
<filter id="filter1_n_606_121" x="162.781" y="95.7434" width="44.5244" height="68.1005" filterUnits="userSpaceOnUse" color-interpolation-filters="sRGB">
<feFlood flood-opacity="0" result="BackgroundImageFix"/>
<feBlend mode="normal" in="SourceGraphic" in2="BackgroundImageFix" result="shape"/>
<feTurbulence type="fractalNoise" baseFrequency="2 2" stitchTiles="stitch" numOctaves="3" result="noise" seed="3829" />
<feColorMatrix in="noise" type="luminanceToAlpha" result="alphaNoise" />
<feComponentTransfer in="alphaNoise" result="coloredNoise1">
<feFuncA type="discrete" tableValues="1 1 1 1 1 1 1 1 1 1 1 1 1 1 1 1 1 1 1 1 1 1 1 1 1 1 1 1 1 1 1 1 1 1 1 1 1 1 1 1 1 1 1 1 1 1 1 1 1 1 1 0 0 0 0 0 0 0 0 0 0 0 0 0 0 0 0 0 0 0 0 0 0 0 0 0 0 0 0 0 0 0 0 0 0 0 0 0 0 0 0 0 0 0 0 0 0 0 0 0 "/>
</feComponentTransfer>
<feComposite operator="in" in2="shape" in="coloredNoise1" result="noise1Clipped" />
<feFlood flood-color="rgba(0, 0, 0, 0.25)" result="color1Flood" />
<feComposite operator="in" in2="noise1Clipped" in="color1Flood" result="color1" />
<feMerge result="effect1_noise_606_121">
<feMergeNode in="shape" />
<feMergeNode in="color1" />
</feMerge>
</filter>
<linearGradient id="paint0_linear_606_121" x1="153.529" y1="81.9724" x2="160.01" y2="162.973" gradientUnits="userSpaceOnUse">
<stop stop-color="#FAE99E"/>
<stop offset="1" stop-color="#FFD23D"/>
</linearGradient>
<linearGradient id="paint1_linear_606_121" x1="201.79" y1="50.2787" x2="-4.67777" y2="270.725" gradientUnits="userSpaceOnUse">
<stop stop-color="white"/>
<stop offset="0.258013" stop-color="#D7EFF5"/>
<stop offset="0.320513" stop-color="#C5E7F0"/>
<stop offset="0.402243" stop-color="#A9DBEA"/>
<stop offset="0.488782" stop-color="#83C1E9"/>
<stop offset="0.565705" stop-color="#7AB9E5"/>
<stop offset="0.695513" stop-color="#5597D5"/>
<stop offset="0.873397" stop-color="#232C79"/>
</linearGradient>
<linearGradient id="paint2_linear_606_121" x1="181.701" y1="105.401" x2="212.164" y2="167.668" gradientUnits="userSpaceOnUse">
<stop stop-color="#9EC596"/>
<stop offset="0.5" stop-color="#275E4F"/>
<stop offset="1" stop-color="#052423"/>
</linearGradient>
<linearGradient id="paint3_linear_606_121" x1="181.701" y1="105.401" x2="212.164" y2="167.668" gradientUnits="userSpaceOnUse">
<stop stop-color="#9EC596"/>
<stop offset="0.5" stop-color="#275E4F"/>
<stop offset="1" stop-color="#052423"/>
</linearGradient>
<linearGradient id="paint4_linear_606_121" x1="133.717" y1="83.655" x2="145.103" y2="92.2035" gradientUnits="userSpaceOnUse">
<stop stop-color="white"/>
<stop offset="1" stop-color="#DEF1F6"/>
</linearGradient>
<radialGradient id="paint5_radial_606_121" cx="0" cy="0" r="1" gradientTransform="matrix(5.21089 15.2683 -16.633 6.44442 133.608 88.8601)" gradientUnits="userSpaceOnUse">
<stop stop-color="#B73A90"/>
<stop offset="0.5" stop-color="#551544"/>
<stop offset="1" stop-color="#1C061B"/>
</radialGradient>
</defs>
</svg>
