<svg width="228" height="435" viewBox="0 0 228 435" fill="none" xmlns="http://www.w3.org/2000/svg">
<g filter="url(#filter0_f_330_15)">
<path d="M100.283 89.1005C69.3234 59.7139 112.123 -1.89085 161.244 6.94041C183.657 10.9699 200.796 15.0534 212.521 34.6893C224.378 54.5479 224.325 66.7543 219.106 91.0354C208.106 142.215 118.429 172.25 117.102 187.521C115.866 201.745 158.164 187.738 163.337 199.437C176.267 228.675 123.794 230.193 123.794 230.193C123.794 230.193 79.8484 218.049 71.7193 200.245C58.2643 170.777 84.6314 147.545 112.132 130.401C145.828 109.396 194.808 87.4768 176.037 53.3151C153.973 13.1618 114.822 102.901 100.283 89.1005Z" fill="#E82ABB"/>
<ellipse cx="133.57" cy="260.676" rx="19.8825" ry="20.8169" transform="rotate(4.96698 133.57 260.676)" fill="#E82ABB"/>
</g>
<g filter="url(#filter1_f_330_15)">
<path d="M34.633 283.613C15.6048 279.255 20.2199 246.156 42.3918 238.606C52.5083 235.161 60.4571 232.91 69.4682 237.816C78.5815 242.777 81.1494 247.461 84.1445 257.914C90.4577 279.948 59.7734 311.397 62.465 317.536C64.9721 323.255 79.479 308.482 84.0991 311.809C95.6451 320.121 74.284 332.378 74.284 332.378C74.284 332.378 53.548 337.508 46.4114 332.503C34.5992 324.22 40.5655 309.462 48.2923 296.782C57.7598 281.246 73.3487 261.959 58.3439 253.062C40.7073 242.605 43.5693 285.659 34.633 283.613Z" fill="#E82ABB" fill-opacity="0.48"/>
<ellipse cx="84.7917" cy="341.868" rx="9.33598" ry="9.10384" transform="rotate(-23.6732 84.7917 341.868)" fill="#E82ABB" fill-opacity="0.48"/>
</g>
<g filter="url(#filter2_f_330_15)">
<path d="M143.227 320.275C132.055 301.191 161.961 275.881 185.033 287.05C195.561 292.146 203.469 296.549 206.497 308.078C209.559 319.737 207.806 325.902 201.787 337.468C189.101 361.845 140.45 364.795 137.632 372.336C135.008 379.359 157.933 378.049 158.84 384.67C161.106 401.218 134.909 394.825 134.909 394.825C134.909 394.825 114.868 382.688 113.362 372.577C110.868 355.84 127.21 347.691 143.252 342.775C162.907 336.752 190.259 332.353 185.798 312.517C180.553 289.204 148.474 329.237 143.227 320.275Z" fill="#E82ABB" fill-opacity="0.21"/>
<ellipse cx="135.438" cy="411.573" rx="10.2099" ry="10.9318" transform="rotate(20.4869 135.438 411.573)" fill="#E82ABB" fill-opacity="0.21"/>
</g>
<g filter="url(#filter3_f_330_15)">
<path d="M12.9952 132.212C0.447627 125.698 8.91534 102.6 25.5412 101.066C33.1273 100.366 39.0153 100.146 44.506 105.284C50.059 110.481 51.1019 114.319 51.5257 122.402C52.4191 139.438 26.0751 156.733 26.9728 161.645C27.8091 166.22 40.2487 158.113 42.9351 161.333C49.6485 169.381 32.8393 174.459 32.8393 174.459C32.8393 174.459 17.5967 174.498 13.426 169.62C6.52277 161.546 13.0178 151.938 20.4077 144.143C29.4624 134.592 43.3718 123.414 34.3447 114.332C23.7342 103.657 18.8879 135.271 12.9952 132.212Z" fill="#E82ABB" fill-opacity="0.23"/>
<ellipse cx="38.6431" cy="183.174" rx="6.65295" ry="6.78123" transform="rotate(-10.3577 38.6431 183.174)" fill="#E82ABB" fill-opacity="0.23"/>
</g>
<defs>
<filter id="filter0_f_330_15" x="64.0955" y="2.08276" width="162.362" height="283.405" filterUnits="userSpaceOnUse" color-interpolation-filters="sRGB">
<feFlood flood-opacity="0" result="BackgroundImageFix"/>
<feBlend mode="normal" in="SourceGraphic" in2="BackgroundImageFix" result="shape"/>
<feGaussianBlur stdDeviation="2" result="effect1_foregroundBlur_330_15"/>
</filter>
<filter id="filter1_f_330_15" x="18.7166" y="230.98" width="79.3765" height="124.032" filterUnits="userSpaceOnUse" color-interpolation-filters="sRGB">
<feFlood flood-opacity="0" result="BackgroundImageFix"/>
<feBlend mode="normal" in="SourceGraphic" in2="BackgroundImageFix" result="shape"/>
<feGaussianBlur stdDeviation="2" result="effect1_foregroundBlur_330_15"/>
</filter>
<filter id="filter2_f_330_15" x="109.108" y="280.307" width="102.867" height="146.115" filterUnits="userSpaceOnUse" color-interpolation-filters="sRGB">
<feFlood flood-opacity="0" result="BackgroundImageFix"/>
<feBlend mode="normal" in="SourceGraphic" in2="BackgroundImageFix" result="shape"/>
<feGaussianBlur stdDeviation="2" result="effect1_foregroundBlur_330_15"/>
</filter>
<filter id="filter3_f_330_15" x="2.97656" y="96.6972" width="52.5713" height="97.2556" filterUnits="userSpaceOnUse" color-interpolation-filters="sRGB">
<feFlood flood-opacity="0" result="BackgroundImageFix"/>
<feBlend mode="normal" in="SourceGraphic" in2="BackgroundImageFix" result="shape"/>
<feGaussianBlur stdDeviation="2" result="effect1_foregroundBlur_330_15"/>
</filter>
</defs>
</svg>
