<svg width="142" height="119" viewBox="0 0 142 119" fill="none" xmlns="http://www.w3.org/2000/svg">
<path d="M71 1.5C103.321 1.5 129.5 27.4793 129.5 59.5C129.5 91.5207 103.321 117.5 71 117.5C38.6795 117.5 12.5 91.5207 12.5 59.5C12.5 27.4793 38.6795 1.5 71 1.5Z" fill="url(#paint0_radial_281_93)" stroke="#7F0A62" stroke-width="3"/>
<mask id="path-2-outside-1_281_93" maskUnits="userSpaceOnUse" x="52" y="25" width="30" height="62" fill="black">
<rect fill="white" x="52" y="25" width="30" height="62"/>
<path d="M69.9275 84V37.6L57.7675 40.24L56.0075 33.76L70.8075 28H78.4075V84H69.9275Z"/>
</mask>
<path d="M69.9275 84V37.6L57.7675 40.24L56.0075 33.76L70.8075 28H78.4075V84H69.9275Z" fill="white"/>
<path d="M69.9275 84H66.9275V87H69.9275V84ZM69.9275 37.6H72.9275V33.8788L69.291 34.6683L69.9275 37.6ZM57.7675 40.24L54.8724 41.0263L55.6193 43.7763L58.404 43.1717L57.7675 40.24ZM56.0075 33.76L54.9194 30.9643L52.4052 31.9428L53.1124 34.5463L56.0075 33.76ZM70.8075 28V25H70.2443L69.7194 25.2043L70.8075 28ZM78.4075 28H81.4075V25H78.4075V28ZM78.4075 84V87H81.4075V84H78.4075ZM69.9275 84H72.9275V37.6H69.9275H66.9275V84H69.9275ZM69.9275 37.6L69.291 34.6683L57.131 37.3083L57.7675 40.24L58.404 43.1717L70.564 40.5317L69.9275 37.6ZM57.7675 40.24L60.6626 39.4537L58.9026 32.9737L56.0075 33.76L53.1124 34.5463L54.8724 41.0263L57.7675 40.24ZM56.0075 33.76L57.0956 36.5557L71.8956 30.7957L70.8075 28L69.7194 25.2043L54.9194 30.9643L56.0075 33.76ZM70.8075 28V31H78.4075V28V25H70.8075V28ZM78.4075 28H75.4075V84H78.4075H81.4075V28H78.4075ZM78.4075 84V81H69.9275V84V87H78.4075V84Z" fill="white" mask="url(#path-2-outside-1_281_93)"/>
<defs>
<radialGradient id="paint0_radial_281_93" cx="0" cy="0" r="1" gradientTransform="matrix(0.472441 129.5 -130.588 0.533613 71 59.5)" gradientUnits="userSpaceOnUse">
<stop stop-color="#BC3D85"/>
<stop offset="1" stop-color="#901159"/>
</radialGradient>
</defs>
</svg>
