<svg width="142" height="119" viewBox="0 0 142 119" fill="none" xmlns="http://www.w3.org/2000/svg">
<path d="M69 1.5C101.321 1.5 127.5 27.4793 127.5 59.5C127.5 91.5207 101.321 117.5 69 117.5C36.6795 117.5 10.5 91.5207 10.5 59.5C10.5 27.4793 36.6795 1.5 69 1.5Z" fill="url(#paint0_radial_281_96)" stroke="#6D194C" stroke-width="3"/>
<mask id="path-2-outside-1_281_96" maskUnits="userSpaceOnUse" x="45" y="29" width="52" height="62" fill="black">
<rect fill="white" x="45" y="29" width="52" height="62"/>
<path d="M93.6688 74.8H85.5088V88H76.9488V74.8H54.2288L48.7088 69.76L63.8288 32H73.1888L58.6288 66.96H76.9488V51.28H85.5088V66.96H93.6688V74.8Z"/>
</mask>
<path d="M93.6688 74.8H85.5088V88H76.9488V74.8H54.2288L48.7088 69.76L63.8288 32H73.1888L58.6288 66.96H76.9488V51.28H85.5088V66.96H93.6688V74.8Z" fill="white"/>
<path d="M93.6688 74.8V77.8H96.6688V74.8H93.6688ZM85.5088 74.8V71.8H82.5088V74.8H85.5088ZM85.5088 88V91H88.5088V88H85.5088ZM76.9488 88H73.9488V91H76.9488V88ZM76.9488 74.8H79.9488V71.8H76.9488V74.8ZM54.2288 74.8L52.2059 77.0155L53.0652 77.8H54.2288V74.8ZM48.7088 69.76L45.9237 68.6448L45.1512 70.5741L46.6859 71.9755L48.7088 69.76ZM63.8288 32V29H61.7985L61.0437 30.8848L63.8288 32ZM73.1888 32L75.9582 33.1534L77.688 29H73.1888V32ZM58.6287 66.96L55.8593 65.8066L54.1295 69.96H58.6287V66.96ZM76.9488 66.96V69.96H79.9488V66.96H76.9488ZM76.9488 51.28V48.28H73.9488V51.28H76.9488ZM85.5088 51.28H88.5088V48.28H85.5088V51.28ZM85.5088 66.96H82.5088V69.96H85.5088V66.96ZM93.6688 66.96H96.6688V63.96H93.6688V66.96ZM93.6688 74.8V71.8H85.5088V74.8V77.8H93.6688V74.8ZM85.5088 74.8H82.5088V88H85.5088H88.5088V74.8H85.5088ZM85.5088 88V85H76.9488V88V91H85.5088V88ZM76.9488 88H79.9488V74.8H76.9488H73.9488V88H76.9488ZM76.9488 74.8V71.8H54.2288V74.8V77.8H76.9488V74.8ZM54.2288 74.8L56.2516 72.5845L50.7316 67.5445L48.7088 69.76L46.6859 71.9755L52.2059 77.0155L54.2288 74.8ZM48.7088 69.76L51.4938 70.8752L66.6138 33.1152L63.8288 32L61.0437 30.8848L45.9237 68.6448L48.7088 69.76ZM63.8288 32V35H73.1888V32V29H63.8288V32ZM73.1888 32L70.4193 30.8466L55.8593 65.8066L58.6287 66.96L61.3982 68.1134L75.9582 33.1534L73.1888 32ZM58.6287 66.96V69.96H76.9488V66.96V63.96H58.6287V66.96ZM76.9488 66.96H79.9488V51.28H76.9488H73.9488V66.96H76.9488ZM76.9488 51.28V54.28H85.5088V51.28V48.28H76.9488V51.28ZM85.5088 51.28H82.5088V66.96H85.5088H88.5088V51.28H85.5088ZM85.5088 66.96V69.96H93.6688V66.96V63.96H85.5088V66.96ZM93.6688 66.96H90.6688V74.8H93.6688H96.6688V66.96H93.6688Z" fill="white" mask="url(#path-2-outside-1_281_96)"/>
<defs>
<radialGradient id="paint0_radial_281_96" cx="0" cy="0" r="1" gradientTransform="matrix(2.74249e-06 115 -115.967 0.0507996 69 59.5)" gradientUnits="userSpaceOnUse">
<stop offset="0.240385" stop-color="#BC45D1"/>
<stop offset="1" stop-color="#410F51"/>
</radialGradient>
</defs>
</svg>
