<svg width="142" height="119" viewBox="0 0 142 119" fill="none" xmlns="http://www.w3.org/2000/svg">
<path d="M71 1.5C103.321 1.5 129.5 27.4793 129.5 59.5C129.5 91.5207 103.321 117.5 71 117.5C38.6795 117.5 12.5 91.5207 12.5 59.5C12.5 27.4793 38.6795 1.5 71 1.5Z" fill="url(#paint0_radial_281_95)" stroke="#6D194C" stroke-width="3"/>
<mask id="path-2-outside-1_281_95" maskUnits="userSpaceOnUse" x="46" y="27" width="46" height="64" fill="black">
<rect fill="white" x="46" y="27" width="46" height="64"/>
<path d="M68.9184 87.72C66.3051 87.72 63.7451 87.4 61.2384 86.76C58.7318 86.12 56.3051 85.2667 53.9584 84.2L50.5984 82.68L52.9984 76.6L56.1984 77.72C58.3851 78.52 60.4118 79.08 62.2784 79.4C64.1451 79.72 66.0118 79.88 67.8784 79.88C71.8251 79.88 74.7851 79.1333 76.7584 77.64C78.7851 76.0933 79.7984 73.8267 79.7984 70.84C79.7984 68.0667 78.8918 65.9333 77.0784 64.44C75.3184 62.8933 72.7851 62.12 69.4784 62.12H59.3184V54.52H68.9984C71.9318 54.52 74.2518 53.7467 75.9584 52.2C77.7184 50.6533 78.5984 48.6533 78.5984 46.2C78.5984 43.5333 77.7718 41.5067 76.1184 40.12C74.4651 38.7333 72.0384 38.04 68.8384 38.04C66.9718 38.04 65.1051 38.2 63.2384 38.52C61.4251 38.7867 59.5318 39.24 57.5584 39.88L54.5184 41L52.5184 35.24L55.8784 33.64C58.2251 32.52 60.6518 31.6667 63.1584 31.08C65.6651 30.4933 68.1451 30.2 70.5984 30.2C74.1718 30.2 77.1851 30.8133 79.6384 32.04C82.0918 33.2133 83.9584 34.8667 85.2384 37C86.5718 39.1333 87.2384 41.6667 87.2384 44.6C87.2384 47.3733 86.4918 49.88 84.9984 52.12C83.5584 54.36 81.5318 56.0133 78.9184 57.08V57.32C82.0118 58.3867 84.4118 60.1733 86.1184 62.68C87.8784 65.1867 88.7584 68.12 88.7584 71.48C88.7584 74.7333 87.9318 77.5867 86.2784 80.04C84.6784 82.4933 82.3851 84.3867 79.3984 85.72C76.4118 87.0533 72.9184 87.72 68.9184 87.72Z"/>
</mask>
<path d="M68.9184 87.72C66.3051 87.72 63.7451 87.4 61.2384 86.76C58.7318 86.12 56.3051 85.2667 53.9584 84.2L50.5984 82.68L52.9984 76.6L56.1984 77.72C58.3851 78.52 60.4118 79.08 62.2784 79.4C64.1451 79.72 66.0118 79.88 67.8784 79.88C71.8251 79.88 74.7851 79.1333 76.7584 77.64C78.7851 76.0933 79.7984 73.8267 79.7984 70.84C79.7984 68.0667 78.8918 65.9333 77.0784 64.44C75.3184 62.8933 72.7851 62.12 69.4784 62.12H59.3184V54.52H68.9984C71.9318 54.52 74.2518 53.7467 75.9584 52.2C77.7184 50.6533 78.5984 48.6533 78.5984 46.2C78.5984 43.5333 77.7718 41.5067 76.1184 40.12C74.4651 38.7333 72.0384 38.04 68.8384 38.04C66.9718 38.04 65.1051 38.2 63.2384 38.52C61.4251 38.7867 59.5318 39.24 57.5584 39.88L54.5184 41L52.5184 35.24L55.8784 33.64C58.2251 32.52 60.6518 31.6667 63.1584 31.08C65.6651 30.4933 68.1451 30.2 70.5984 30.2C74.1718 30.2 77.1851 30.8133 79.6384 32.04C82.0918 33.2133 83.9584 34.8667 85.2384 37C86.5718 39.1333 87.2384 41.6667 87.2384 44.6C87.2384 47.3733 86.4918 49.88 84.9984 52.12C83.5584 54.36 81.5318 56.0133 78.9184 57.08V57.32C82.0118 58.3867 84.4118 60.1733 86.1184 62.68C87.8784 65.1867 88.7584 68.12 88.7584 71.48C88.7584 74.7333 87.9318 77.5867 86.2784 80.04C84.6784 82.4933 82.3851 84.3867 79.3984 85.72C76.4118 87.0533 72.9184 87.72 68.9184 87.72Z" fill="white"/>
<path d="M61.2384 86.76L60.4963 89.6668L61.2384 86.76ZM53.9584 84.2L55.1998 81.4689L55.1949 81.4667L53.9584 84.2ZM50.5984 82.68L47.808 81.5785L46.759 84.2358L49.3619 85.4133L50.5984 82.68ZM52.9984 76.6L53.9895 73.7684L51.267 72.8156L50.208 75.4985L52.9984 76.6ZM56.1984 77.72L57.2292 74.9026L57.2094 74.8954L57.1895 74.8884L56.1984 77.72ZM62.2784 79.4L62.7853 76.4431H62.7853L62.2784 79.4ZM76.7584 77.64L78.5688 80.0322L78.5785 80.0249L76.7584 77.64ZM77.0784 64.44L75.0981 66.6935L75.1342 66.7252L75.1713 66.7558L77.0784 64.44ZM59.3184 62.12H56.3184V65.12H59.3184V62.12ZM59.3184 54.52V51.52H56.3184V54.52H59.3184ZM75.9584 52.2L73.9781 49.9465L73.9609 49.9616L73.9439 49.977L75.9584 52.2ZM76.1184 40.12L78.0463 37.8214L76.1184 40.12ZM63.2384 38.52L63.6749 41.4881L63.7102 41.4829L63.7453 41.4769L63.2384 38.52ZM57.5584 39.88L56.6329 37.0263L56.5767 37.0445L56.5213 37.065L57.5584 39.88ZM54.5184 41L51.6844 41.984L52.6871 44.8718L55.5556 43.815L54.5184 41ZM52.5184 35.24L51.2286 32.5314L48.8033 33.6864L49.6844 36.224L52.5184 35.24ZM55.8784 33.64L57.1682 36.3486L57.1706 36.3474L55.8784 33.64ZM63.1584 31.08L62.4748 28.1589L62.4748 28.1589L63.1584 31.08ZM79.6384 32.04L78.2968 34.7233L78.3203 34.735L78.3441 34.7464L79.6384 32.04ZM85.2384 37L82.666 38.5435L82.68 38.5669L82.6944 38.59L85.2384 37ZM84.9984 52.12L82.5023 50.4559L82.4884 50.4767L82.4749 50.4977L84.9984 52.12ZM78.9184 57.08L77.7847 54.3025L75.9184 55.0642V57.08H78.9184ZM78.9184 57.32H75.9184V59.4589L77.9405 60.1561L78.9184 57.32ZM86.1184 62.68L83.6386 64.3684L83.6508 64.3862L83.6632 64.4039L86.1184 62.68ZM86.2784 80.04L83.7906 78.3634L83.778 78.3822L83.7656 78.4012L86.2784 80.04ZM79.3984 85.72L80.6214 88.4594L79.3984 85.72ZM68.9184 87.72V84.72C66.5528 84.72 64.2423 84.4307 61.9806 83.8532L61.2384 86.76L60.4963 89.6668C63.248 90.3693 66.0574 90.72 68.9184 90.72V87.72ZM61.2384 86.76L61.9806 83.8532C59.6446 83.2568 57.385 82.4622 55.1998 81.4689L53.9584 84.2L52.717 86.9311C55.2252 88.0712 57.819 88.9832 60.4963 89.6668L61.2384 86.76ZM53.9584 84.2L55.1949 81.4667L51.8349 79.9467L50.5984 82.68L49.3619 85.4133L52.7219 86.9333L53.9584 84.2ZM50.5984 82.68L53.3889 83.7815L55.7889 77.7015L52.9984 76.6L50.208 75.4985L47.808 81.5785L50.5984 82.68ZM52.9984 76.6L52.0074 79.4316L55.2074 80.5516L56.1984 77.72L57.1895 74.8884L53.9895 73.7684L52.9984 76.6ZM56.1984 77.72L55.1677 80.5374C57.4874 81.386 59.6914 82.0003 61.7715 82.3569L62.2784 79.4L62.7853 76.4431C61.1322 76.1597 59.2828 75.654 57.2292 74.9026L56.1984 77.72ZM62.2784 79.4L61.7715 82.3569C63.8032 82.7052 65.8394 82.88 67.8784 82.88V79.88V76.88C66.1841 76.88 64.487 76.7348 62.7853 76.4431L62.2784 79.4ZM67.8784 79.88V82.88C72.1178 82.88 75.8457 82.0929 78.5688 80.0322L76.7584 77.64L74.9481 75.2478C73.7245 76.1737 71.5324 76.88 67.8784 76.88V79.88ZM76.7584 77.64L78.5785 80.0249C81.4818 77.8091 82.7984 74.581 82.7984 70.84H79.7984H76.7984C76.7984 73.0724 76.0884 74.3775 74.9384 75.2551L76.7584 77.64ZM79.7984 70.84H82.7984C82.7984 67.3501 81.6187 64.2927 78.9856 62.1242L77.0784 64.44L75.1713 66.7558C76.1648 67.574 76.7984 68.7832 76.7984 70.84H79.7984ZM77.0784 64.44L79.0588 62.1865C76.5628 59.9931 73.2163 59.12 69.4784 59.12V62.12V65.12C72.3539 65.12 74.0741 65.7936 75.0981 66.6935L77.0784 64.44ZM69.4784 62.12V59.12H59.3184V62.12V65.12H69.4784V62.12ZM59.3184 62.12H62.3184V54.52H59.3184H56.3184V62.12H59.3184ZM59.3184 54.52V57.52H68.9984V54.52V51.52H59.3184V54.52ZM68.9984 54.52V57.52C72.4657 57.52 75.5761 56.5951 77.973 54.423L75.9584 52.2L73.9439 49.977C72.9274 50.8982 71.3978 51.52 68.9984 51.52V54.52ZM75.9584 52.2L77.9388 54.4535C80.3808 52.3074 81.5984 49.47 81.5984 46.2H78.5984H75.5984C75.5984 47.8367 75.056 48.9992 73.9781 49.9465L75.9584 52.2ZM78.5984 46.2H81.5984C81.5984 42.8746 80.5366 39.9101 78.0463 37.8214L76.1184 40.12L74.1906 42.4186C75.0069 43.1032 75.5984 44.1921 75.5984 46.2H78.5984ZM76.1184 40.12L78.0463 37.8214C75.6449 35.8073 72.4138 35.04 68.8384 35.04V38.04V41.04C71.663 41.04 73.2854 41.6593 74.1906 42.4186L76.1184 40.12ZM68.8384 38.04V35.04C66.7994 35.04 64.7632 35.2148 62.7315 35.5631L63.2384 38.52L63.7453 41.4769C65.447 41.1851 67.1441 41.04 68.8384 41.04V38.04ZM63.2384 38.52L62.802 35.5519C60.8027 35.8459 58.7453 36.3412 56.6329 37.0263L57.5584 39.88L58.4839 42.7337C60.3182 42.1388 62.0475 41.7274 63.6749 41.4881L63.2384 38.52ZM57.5584 39.88L56.5213 37.065L53.4813 38.185L54.5184 41L55.5556 43.815L58.5956 42.695L57.5584 39.88ZM54.5184 41L57.3525 40.016L55.3525 34.256L52.5184 35.24L49.6844 36.224L51.6844 41.984L54.5184 41ZM52.5184 35.24L53.8082 37.9486L57.1682 36.3486L55.8784 33.64L54.5886 30.9314L51.2286 32.5314L52.5184 35.24ZM55.8784 33.64L57.1706 36.3474C59.3247 35.3194 61.5475 34.5381 63.8421 34.0011L63.1584 31.08L62.4748 28.1589C59.7561 28.7952 57.1255 29.7206 54.5863 30.9326L55.8784 33.64ZM63.1584 31.08L63.8421 34.0011C66.1357 33.4643 68.3863 33.2 70.5984 33.2V30.2V27.2C67.9039 27.2 65.1945 27.5224 62.4748 28.1589L63.1584 31.08ZM70.5984 30.2V33.2C73.8419 33.2 76.3666 33.7582 78.2968 34.7233L79.6384 32.04L80.9801 29.3567C78.0036 27.8685 74.5016 27.2 70.5984 27.2V30.2ZM79.6384 32.04L78.3441 34.7464C80.3181 35.6905 81.7168 36.9616 82.666 38.5435L85.2384 37L87.8109 35.4565C86.2001 32.7717 83.8655 30.7362 80.9328 29.3336L79.6384 32.04ZM85.2384 37L82.6944 38.59C83.6832 40.172 84.2384 42.134 84.2384 44.6H87.2384H90.2384C90.2384 41.1993 89.4604 38.0947 87.7824 35.41L85.2384 37ZM87.2384 44.6H84.2384C84.2384 46.8 83.6567 48.7242 82.5023 50.4559L84.9984 52.12L87.4946 53.7841C89.3268 51.0358 90.2384 47.9467 90.2384 44.6H87.2384ZM84.9984 52.12L82.4749 50.4977C81.389 52.1869 79.8633 53.4541 77.7847 54.3025L78.9184 57.08L80.0521 59.8575C83.2002 58.5726 85.7279 56.5331 87.522 53.7423L84.9984 52.12ZM78.9184 57.08H75.9184V57.32H78.9184H81.9184V57.08H78.9184ZM78.9184 57.32L77.9405 60.1561C80.4738 61.0297 82.3252 62.4392 83.6386 64.3684L86.1184 62.68L88.5982 60.9916C86.4984 57.9074 83.5497 55.7436 79.8964 54.4839L78.9184 57.32ZM86.1184 62.68L83.6632 64.4039C85.0342 66.3566 85.7584 68.6742 85.7584 71.48H88.7584H91.7584C91.7584 67.5658 90.7226 64.0167 88.5737 60.9561L86.1184 62.68ZM88.7584 71.48H85.7584C85.7584 74.198 85.077 76.4546 83.7906 78.3634L86.2784 80.04L88.7662 81.7166C90.7865 78.7187 91.7584 75.2686 91.7584 71.48H88.7584ZM86.2784 80.04L83.7656 78.4012C82.5168 80.3161 80.6988 81.8541 78.1755 82.9806L79.3984 85.72L80.6214 88.4594C84.0714 86.9193 86.8401 84.6706 88.7913 81.6788L86.2784 80.04ZM79.3984 85.72L78.1755 82.9806C75.6494 84.1083 72.5888 84.72 68.9184 84.72V87.72V90.72C73.2481 90.72 77.1741 89.9984 80.6214 88.4594L79.3984 85.72Z" fill="white" mask="url(#path-2-outside-1_281_95)"/>
<defs>
<radialGradient id="paint0_radial_281_95" cx="0" cy="0" r="1" gradientTransform="matrix(2.74249e-06 115 -115.967 0.0507996 71 59.5)" gradientUnits="userSpaceOnUse">
<stop offset="0.240385" stop-color="#CA7B64"/>
<stop offset="1" stop-color="#FF2A0A"/>
</radialGradient>
</defs>
</svg>
