<svg width="293" height="260" viewBox="0 0 293 260" fill="none" xmlns="http://www.w3.org/2000/svg">
<rect x="2" y="2" width="288.859" height="256.007" rx="38" fill="url(#paint0_radial_838_61)" stroke="#101C5A" stroke-width="4"/>
<path d="M15.1525 191.866C9.30908 190.115 5.99269 191.136 5.06492 191.866C4.62988 192.812 4.34519 193.818 4.20763 194.874H13.6014L18.9785 195.694C20.9495 196.56 28.3697 198.292 42.2826 198.292C56.1955 198.292 58.5144 200.571 57.9347 201.711C56.1955 202.759 50.1434 204.856 39.8479 204.856C29.5523 204.856 38.5725 207.499 44.3696 208.821C78.0388 208.493 81.1229 210.052 78.4562 210.872C70.9432 212.076 80.6591 213.288 86.4561 213.744C102.595 214.072 100.833 215.704 97.9343 216.479C89.5865 215.822 84.2533 216.752 82.6301 217.299C77.0649 218.393 69.4128 217.755 66.2824 217.299C47.6391 214.017 17.9 216.068 8.10773 216.479C9.42207 217.856 3.49115 219.177 5.06484 220.566L18.9785 218.53C50.9782 217.108 60.6013 220.581 61.4129 222.495C51.1173 223.589 54.8042 226.05 57.9347 227.144L71.1519 230.152L82.6301 230.563L86.4561 231.11L93.4126 231.657H115.673L137.586 230.152L149.412 228.785L162.977 225.777C170.49 223.042 173.76 225.275 174.455 226.734C153.864 231.766 160.542 235.941 166.455 237.4C205.411 235.102 215.909 248.348 215.446 253.222C193.905 256.359 257.046 258.419 265.906 254.528L238.802 236.853C234.86 235.804 224.333 233.817 213.759 234.255C200.542 234.802 183.499 230.836 192.89 228.785C196.252 228.01 206.385 226.925 220.02 228.785C223.266 228.329 225.237 226.98 207.151 225.23C197.527 223.954 185.377 221.784 213.759 223.316C242.141 224.847 256.194 219.943 259.672 217.299L276.833 216.479C295.383 253.222 285.598 211.45 287.389 208.137C271.894 207.153 261.135 207.317 259.672 208.137L242.281 215.248C237.527 215.658 222.942 216.479 202.629 216.479C182.316 216.479 164.252 212.012 157.76 209.778C150.803 212.404 116.369 210.234 100.021 208.821C69.9694 207.946 71.7317 205.813 76.3693 204.856C89.1692 206.825 110.224 205.676 119.151 204.856C134.456 208.575 143.151 204.034 145.586 201.298C137.196 200.831 132.586 199.373 130.977 198.292L124.717 199.249C120.84 200.033 116.577 199.947 112.543 199.434C111.383 200.557 103.291 202.094 80.1953 199.249C57.0999 196.405 47.8478 193.376 46.1087 192.217C35.6011 192.846 20.0839 193.343 15.1525 191.866Z" fill="#F5EBED"/>
<path fill-rule="evenodd" clip-rule="evenodd" d="M38.584 236.929C14.0583 238.16 56.9576 237.445 60.3694 237.673C67.8824 237.673 75.5577 239.861 78.4562 240.955C76.2302 241.939 78.6881 242.641 80.1953 242.869L90.2822 243.279C106.792 241.42 120.581 242.96 125.412 243.963C134.873 245.604 148.137 244.647 153.586 243.963L157.76 242.322C149.969 243.963 136.195 243.462 130.282 243.006C113.586 240.271 103.152 240.317 100.021 240.681L93.4126 240.545L90.9778 240.271L90.63 239.724L90.9778 239.314L89.5865 238.63L87.8474 238.357L76.3693 236.853C69.6911 235.212 17.0327 238.175 7.10849 237.4C10.2074 239.088 17.1008 264.978 38.584 236.929Z" fill="#F5EBED"/>
<path d="M7.10849 237.4C17.0327 238.175 69.6911 235.212 76.3693 236.853L87.8474 238.357L89.5865 238.63L90.9778 239.314L90.63 239.724L90.9778 240.271L93.4126 240.545L100.021 240.681C103.152 240.317 113.586 240.271 130.282 243.006C136.195 243.462 149.969 243.963 157.76 242.322L153.586 243.963C148.137 244.647 134.873 245.604 125.412 243.963C120.581 242.96 106.792 241.42 90.2822 243.279L80.1953 242.869C78.6881 242.641 76.2302 241.939 78.4562 240.955C75.5577 239.861 67.8824 237.673 60.3694 237.673C56.9576 237.445 14.0583 238.16 38.584 236.929C5.06492 257.576 10.6063 259.318 145.586 257.576C280.566 255.834 195.589 257.808 215.446 253.222C215.909 248.348 205.411 235.102 166.455 237.4C160.542 235.941 153.864 231.766 174.455 226.734C173.76 225.275 170.49 223.042 162.977 225.777L149.412 228.785L137.586 230.152L115.673 231.657H93.4126L86.4561 231.11L82.6301 230.563L71.1519 230.152L57.9347 227.144C54.8042 226.05 51.1173 223.589 61.4129 222.495C60.6013 220.581 50.9782 217.108 18.9785 218.53L5.06484 220.566C10.4046 225.28 -1.88445 210.872 7.10849 237.4Z" fill="#232866"/>
<path d="M238.802 236.853L265.906 254.528C302.729 238.357 283.432 221.002 276.833 216.479L259.672 217.299C256.194 219.943 242.141 224.847 213.759 223.316C185.377 221.784 197.527 223.954 207.151 225.23C225.237 226.98 223.266 228.329 220.02 228.785C206.385 226.925 196.252 228.01 192.89 228.785C183.499 230.836 200.542 234.802 213.759 234.255C224.333 233.817 234.86 235.804 238.802 236.853Z" fill="#25759F"/>
<path d="M228.02 196.788L170.281 200.207C159.836 201.452 151.706 201.639 145.586 201.298C143.151 204.034 134.456 208.575 119.151 204.856C110.224 205.676 89.1692 206.825 76.3693 204.856C71.7317 205.813 69.9694 207.946 100.021 208.821C116.369 210.234 150.803 212.404 157.76 209.778C164.252 212.012 182.316 216.479 202.629 216.479C222.942 216.479 237.527 215.658 242.281 215.248L259.672 208.137C261.135 207.317 271.894 207.153 287.389 208.137C288.888 246.691 288.137 195.95 288.888 190.088C265.514 195.886 254.57 195.512 252.02 194.6C241.446 197.882 231.614 197.426 228.02 196.788Z" fill="#2B3273"/>
<path d="M8.10773 216.479C17.9 216.068 47.6391 214.017 66.2824 217.299C69.4128 217.755 77.0649 218.393 82.6301 217.299C84.2533 216.752 89.5865 215.822 97.9343 216.479C100.833 215.704 102.595 214.072 86.4561 213.744C80.6591 213.288 70.9432 212.076 78.4562 210.872C81.1229 210.052 78.0388 208.493 44.3696 208.821C38.5725 207.499 29.5523 204.856 39.8479 204.856C50.1434 204.856 56.1955 202.759 57.9347 201.711C58.5144 200.571 56.1955 198.292 42.2826 198.292C28.3697 198.292 20.9495 196.56 18.9785 195.694L13.6014 194.874H4.20763C3.49023 200.382 0.114492 235.37 8.10773 216.479Z" fill="#25759F"/>
<path d="M89.5865 194.874C69.552 197.28 55.7318 193.871 51.326 191.866C49.824 191.979 48.052 192.1 46.1087 192.217C47.8478 193.376 57.0999 196.405 80.1953 199.249C103.291 202.094 111.383 200.557 112.543 199.434C106.443 198.657 100.865 196.901 97.9343 195.694C91.5343 195.694 90.3981 195.147 90.63 194.874C98.6299 193.871 109.621 192.467 89.5865 194.874Z" fill="#25759F"/>
<g filter="url(#filter0_i_838_61)">
<path d="M19.7671 150.181C19.0495 145.024 26.2333 138.996 26.2333 138.996C26.2333 138.996 32.3982 146.545 31.7072 150.43C31.0163 154.316 29.2877 157.954 25.8349 158.053C22.2478 158.155 20.3321 154.241 19.7671 150.181Z" fill="#5E94D5" fill-opacity="0.39"/>
</g>
<g filter="url(#filter1_i_838_61)">
<path d="M32.4421 73.237C31.4638 68.0745 40.8771 62.0936 40.8771 62.0936C40.8771 62.0936 49.0394 69.684 48.1559 73.5655C47.2723 77.4469 45.0217 81.074 40.4788 81.15C35.7591 81.229 33.2124 77.3013 32.4421 73.237Z" fill="#5E94D5" fill-opacity="0.22"/>
</g>
<g filter="url(#filter2_i_838_61)">
<path d="M262.234 141.472C261.481 136.244 268.987 130.138 268.987 130.138C268.987 130.138 275.437 137.795 274.717 141.733C273.997 145.672 272.192 149.359 268.583 149.457C264.833 149.559 262.828 145.589 262.234 141.472Z" fill="#5E94D5" fill-opacity="0.31"/>
</g>
<g filter="url(#filter3_i_838_61)">
<path d="M183.234 46.4725C182.481 41.2437 189.987 35.1376 189.987 35.1376C189.987 35.1376 196.437 42.7947 195.717 46.7334C194.997 50.6721 193.192 54.3593 189.583 54.4572C185.833 54.5589 183.828 50.589 183.234 46.4725Z" fill="#5E94D5" fill-opacity="0.39"/>
</g>
<g filter="url(#filter4_i_838_61)">
<path d="M234.336 146.397C233.247 138.923 244.075 130.199 244.075 130.199C244.075 130.199 253.383 141.144 252.346 146.773C251.308 152.402 248.705 157.671 243.498 157.81C238.087 157.954 235.193 152.28 234.336 146.397Z" fill="#5E94D5" fill-opacity="0.2"/>
</g>
<g filter="url(#filter5_i_838_61)">
<path d="M46.2342 45.4725C45.4806 40.2437 52.9866 34.1376 52.9866 34.1376C52.9866 34.1376 59.4366 41.7947 58.7168 45.7334C57.997 49.6721 56.1924 53.3593 52.5828 53.4572C48.8328 53.5589 46.8275 49.589 46.2342 45.4725Z" fill="#5E94D5" fill-opacity="0.39"/>
</g>
<g filter="url(#filter6_i_838_61)">
<path d="M32.3778 168.14C31.0959 159.87 43.7363 150.232 43.7363 150.232C43.7363 150.232 54.6262 162.353 53.4215 168.579C52.2167 174.806 49.1825 180.632 43.0977 180.779C36.7763 180.931 33.387 174.65 32.3778 168.14Z" fill="#5E94D5" fill-opacity="0.39"/>
</g>
<g filter="url(#filter7_i_838_61)">
<path d="M233.234 179.472C232.481 174.244 239.987 168.138 239.987 168.138C239.987 168.138 246.437 175.795 245.717 179.733C244.997 183.672 243.192 187.359 239.583 187.457C235.833 187.559 233.828 183.589 233.234 179.472Z" fill="#5E94D5" fill-opacity="0.39"/>
</g>
<defs>
<filter id="filter0_i_838_61" x="19.7168" y="138.996" width="12.0444" height="23.0583" filterUnits="userSpaceOnUse" color-interpolation-filters="sRGB">
<feFlood flood-opacity="0" result="BackgroundImageFix"/>
<feBlend mode="normal" in="SourceGraphic" in2="BackgroundImageFix" result="shape"/>
<feColorMatrix in="SourceAlpha" type="matrix" values="0 0 0 0 0 0 0 0 0 0 0 0 0 0 0 0 0 0 127 0" result="hardAlpha"/>
<feOffset dy="4"/>
<feGaussianBlur stdDeviation="2"/>
<feComposite in2="hardAlpha" operator="arithmetic" k2="-1" k3="1"/>
<feColorMatrix type="matrix" values="0 0 0 0 0 0 0 0 0 0 0 0 0 0 0 0 0 0 0.25 0"/>
<feBlend mode="normal" in2="shape" result="effect1_innerShadow_838_61"/>
</filter>
<filter id="filter1_i_838_61" x="32.3706" y="62.0936" width="15.8521" height="23.0576" filterUnits="userSpaceOnUse" color-interpolation-filters="sRGB">
<feFlood flood-opacity="0" result="BackgroundImageFix"/>
<feBlend mode="normal" in="SourceGraphic" in2="BackgroundImageFix" result="shape"/>
<feColorMatrix in="SourceAlpha" type="matrix" values="0 0 0 0 0 0 0 0 0 0 0 0 0 0 0 0 0 0 127 0" result="hardAlpha"/>
<feOffset dy="4"/>
<feGaussianBlur stdDeviation="2"/>
<feComposite in2="hardAlpha" operator="arithmetic" k2="-1" k3="1"/>
<feColorMatrix type="matrix" values="0 0 0 0 0 0 0 0 0 0 0 0 0 0 0 0 0 0 0.25 0"/>
<feBlend mode="normal" in2="shape" result="effect1_innerShadow_838_61"/>
</filter>
<filter id="filter2_i_838_61" x="262.181" y="130.138" width="12.5918" height="23.3215" filterUnits="userSpaceOnUse" color-interpolation-filters="sRGB">
<feFlood flood-opacity="0" result="BackgroundImageFix"/>
<feBlend mode="normal" in="SourceGraphic" in2="BackgroundImageFix" result="shape"/>
<feColorMatrix in="SourceAlpha" type="matrix" values="0 0 0 0 0 0 0 0 0 0 0 0 0 0 0 0 0 0 127 0" result="hardAlpha"/>
<feOffset dy="4"/>
<feGaussianBlur stdDeviation="2"/>
<feComposite in2="hardAlpha" operator="arithmetic" k2="-1" k3="1"/>
<feColorMatrix type="matrix" values="0 0 0 0 0 0 0 0 0 0 0 0 0 0 0 0 0 0 0.25 0"/>
<feBlend mode="normal" in2="shape" result="effect1_innerShadow_838_61"/>
</filter>
<filter id="filter3_i_838_61" x="183.181" y="35.1376" width="12.5918" height="23.3215" filterUnits="userSpaceOnUse" color-interpolation-filters="sRGB">
<feFlood flood-opacity="0" result="BackgroundImageFix"/>
<feBlend mode="normal" in="SourceGraphic" in2="BackgroundImageFix" result="shape"/>
<feColorMatrix in="SourceAlpha" type="matrix" values="0 0 0 0 0 0 0 0 0 0 0 0 0 0 0 0 0 0 127 0" result="hardAlpha"/>
<feOffset dy="4"/>
<feGaussianBlur stdDeviation="2"/>
<feComposite in2="hardAlpha" operator="arithmetic" k2="-1" k3="1"/>
<feColorMatrix type="matrix" values="0 0 0 0 0 0 0 0 0 0 0 0 0 0 0 0 0 0 0.25 0"/>
<feBlend mode="normal" in2="shape" result="effect1_innerShadow_838_61"/>
</filter>
<filter id="filter4_i_838_61" x="234.259" y="130.199" width="18.1675" height="31.6143" filterUnits="userSpaceOnUse" color-interpolation-filters="sRGB">
<feFlood flood-opacity="0" result="BackgroundImageFix"/>
<feBlend mode="normal" in="SourceGraphic" in2="BackgroundImageFix" result="shape"/>
<feColorMatrix in="SourceAlpha" type="matrix" values="0 0 0 0 0 0 0 0 0 0 0 0 0 0 0 0 0 0 127 0" result="hardAlpha"/>
<feOffset dy="4"/>
<feGaussianBlur stdDeviation="2"/>
<feComposite in2="hardAlpha" operator="arithmetic" k2="-1" k3="1"/>
<feColorMatrix type="matrix" values="0 0 0 0 0 0 0 0 0 0 0 0 0 0 0 0 0 0 0.25 0"/>
<feBlend mode="normal" in2="shape" result="effect1_innerShadow_838_61"/>
</filter>
<filter id="filter5_i_838_61" x="46.1812" y="34.1376" width="12.5918" height="23.3215" filterUnits="userSpaceOnUse" color-interpolation-filters="sRGB">
<feFlood flood-opacity="0" result="BackgroundImageFix"/>
<feBlend mode="normal" in="SourceGraphic" in2="BackgroundImageFix" result="shape"/>
<feColorMatrix in="SourceAlpha" type="matrix" values="0 0 0 0 0 0 0 0 0 0 0 0 0 0 0 0 0 0 127 0" result="hardAlpha"/>
<feOffset dy="4"/>
<feGaussianBlur stdDeviation="2"/>
<feComposite in2="hardAlpha" operator="arithmetic" k2="-1" k3="1"/>
<feColorMatrix type="matrix" values="0 0 0 0 0 0 0 0 0 0 0 0 0 0 0 0 0 0 0.25 0"/>
<feBlend mode="normal" in2="shape" result="effect1_innerShadow_838_61"/>
</filter>
<filter id="filter6_i_838_61" x="32.2866" y="150.232" width="21.228" height="34.5494" filterUnits="userSpaceOnUse" color-interpolation-filters="sRGB">
<feFlood flood-opacity="0" result="BackgroundImageFix"/>
<feBlend mode="normal" in="SourceGraphic" in2="BackgroundImageFix" result="shape"/>
<feColorMatrix in="SourceAlpha" type="matrix" values="0 0 0 0 0 0 0 0 0 0 0 0 0 0 0 0 0 0 127 0" result="hardAlpha"/>
<feOffset dy="4"/>
<feGaussianBlur stdDeviation="2"/>
<feComposite in2="hardAlpha" operator="arithmetic" k2="-1" k3="1"/>
<feColorMatrix type="matrix" values="0 0 0 0 0 0 0 0 0 0 0 0 0 0 0 0 0 0 0.25 0"/>
<feBlend mode="normal" in2="shape" result="effect1_innerShadow_838_61"/>
</filter>
<filter id="filter7_i_838_61" x="233.181" y="168.138" width="12.5918" height="23.3215" filterUnits="userSpaceOnUse" color-interpolation-filters="sRGB">
<feFlood flood-opacity="0" result="BackgroundImageFix"/>
<feBlend mode="normal" in="SourceGraphic" in2="BackgroundImageFix" result="shape"/>
<feColorMatrix in="SourceAlpha" type="matrix" values="0 0 0 0 0 0 0 0 0 0 0 0 0 0 0 0 0 0 127 0" result="hardAlpha"/>
<feOffset dy="4"/>
<feGaussianBlur stdDeviation="2"/>
<feComposite in2="hardAlpha" operator="arithmetic" k2="-1" k3="1"/>
<feColorMatrix type="matrix" values="0 0 0 0 0 0 0 0 0 0 0 0 0 0 0 0 0 0 0.25 0"/>
<feBlend mode="normal" in2="shape" result="effect1_innerShadow_838_61"/>
</filter>
<radialGradient id="paint0_radial_838_61" cx="0" cy="0" r="1" gradientUnits="userSpaceOnUse" gradientTransform="translate(146.429 130.004) rotate(90) scale(354.486 399.276)">
<stop stop-color="#FFFBF5"/>
<stop offset="1" stop-color="#25759F"/>
</radialGradient>
</defs>
</svg>
