<svg width="293" height="260" viewBox="0 0 293 260" fill="none" xmlns="http://www.w3.org/2000/svg">
<rect x="2" y="2" width="288.859" height="256.007" rx="38" fill="url(#paint0_radial_838_101)" stroke="url(#paint1_linear_838_101)" stroke-width="4"/>
<g filter="url(#filter0_i_838_101)">
<path d="M186.741 217.154L167 256H272C272 256 270.835 234.333 263.989 230.103C260.164 227.739 253.403 230.103 253.403 230.103L241.673 211.975C241.673 211.975 239.186 197.68 234.234 195.573C223.076 190.825 186.741 217.154 186.741 217.154Z" fill="url(#paint2_linear_838_101)"/>
</g>
<g filter="url(#filter1_i_838_101)">
<path d="M140.741 233.074L121 256H226C226 256 224.835 243.213 217.989 240.716C214.164 239.321 207.403 240.716 207.403 240.716L195.673 230.018C195.673 230.018 193.186 221.582 188.234 220.338C177.076 217.536 140.741 233.074 140.741 233.074Z" fill="url(#paint3_linear_838_101)"/>
</g>
<g filter="url(#filter2_i_838_101)">
<path d="M90.7684 248.358L84 256H120C120 256 119.601 251.738 117.253 250.905C115.942 250.44 113.624 250.905 113.624 250.905L109.602 247.339C109.602 247.339 108.749 244.527 107.052 244.113C103.226 243.179 90.7684 248.358 90.7684 248.358Z" fill="url(#paint4_linear_838_101)"/>
</g>
<defs>
<filter id="filter0_i_838_101" x="167" y="195" width="105" height="65" filterUnits="userSpaceOnUse" color-interpolation-filters="sRGB">
<feFlood flood-opacity="0" result="BackgroundImageFix"/>
<feBlend mode="normal" in="SourceGraphic" in2="BackgroundImageFix" result="shape"/>
<feColorMatrix in="SourceAlpha" type="matrix" values="0 0 0 0 0 0 0 0 0 0 0 0 0 0 0 0 0 0 127 0" result="hardAlpha"/>
<feOffset dy="4"/>
<feGaussianBlur stdDeviation="2"/>
<feComposite in2="hardAlpha" operator="arithmetic" k2="-1" k3="1"/>
<feColorMatrix type="matrix" values="0 0 0 0 0 0 0 0 0 0 0 0 0 0 0 0 0 0 0.25 0"/>
<feBlend mode="normal" in2="shape" result="effect1_innerShadow_838_101"/>
</filter>
<filter id="filter1_i_838_101" x="121" y="220" width="105" height="40" filterUnits="userSpaceOnUse" color-interpolation-filters="sRGB">
<feFlood flood-opacity="0" result="BackgroundImageFix"/>
<feBlend mode="normal" in="SourceGraphic" in2="BackgroundImageFix" result="shape"/>
<feColorMatrix in="SourceAlpha" type="matrix" values="0 0 0 0 0 0 0 0 0 0 0 0 0 0 0 0 0 0 127 0" result="hardAlpha"/>
<feOffset dy="4"/>
<feGaussianBlur stdDeviation="2"/>
<feComposite in2="hardAlpha" operator="arithmetic" k2="-1" k3="1"/>
<feColorMatrix type="matrix" values="0 0 0 0 0 0 0 0 0 0 0 0 0 0 0 0 0 0 0.25 0"/>
<feBlend mode="normal" in2="shape" result="effect1_innerShadow_838_101"/>
</filter>
<filter id="filter2_i_838_101" x="84" y="244" width="36" height="16" filterUnits="userSpaceOnUse" color-interpolation-filters="sRGB">
<feFlood flood-opacity="0" result="BackgroundImageFix"/>
<feBlend mode="normal" in="SourceGraphic" in2="BackgroundImageFix" result="shape"/>
<feColorMatrix in="SourceAlpha" type="matrix" values="0 0 0 0 0 0 0 0 0 0 0 0 0 0 0 0 0 0 127 0" result="hardAlpha"/>
<feOffset dy="4"/>
<feGaussianBlur stdDeviation="2"/>
<feComposite in2="hardAlpha" operator="arithmetic" k2="-1" k3="1"/>
<feColorMatrix type="matrix" values="0 0 0 0 0 0 0 0 0 0 0 0 0 0 0 0 0 0 0.25 0"/>
<feBlend mode="normal" in2="shape" result="effect1_innerShadow_838_101"/>
</filter>
<radialGradient id="paint0_radial_838_101" cx="0" cy="0" r="1" gradientUnits="userSpaceOnUse" gradientTransform="translate(146.429 130.004) rotate(90) scale(354.486 399.276)">
<stop offset="0.264423" stop-color="#FFFBF5"/>
<stop offset="0.715763" stop-color="#EEC41F"/>
</radialGradient>
<linearGradient id="paint1_linear_838_101" x1="155" y1="75" x2="146.429" y2="260.007" gradientUnits="userSpaceOnUse">
<stop offset="1" stop-color="#F28100"/>
</linearGradient>
<linearGradient id="paint2_linear_838_101" x1="219.5" y1="195" x2="219.5" y2="256" gradientUnits="userSpaceOnUse">
<stop stop-color="#D9D9D9"/>
<stop offset="0.5" stop-color="#8B8B8B"/>
<stop offset="1" stop-color="#737373"/>
</linearGradient>
<linearGradient id="paint3_linear_838_101" x1="173.5" y1="220" x2="173.5" y2="256" gradientUnits="userSpaceOnUse">
<stop stop-color="#D9D9D9"/>
<stop offset="1" stop-color="#737373"/>
</linearGradient>
<linearGradient id="paint4_linear_838_101" x1="102" y1="244" x2="102" y2="256" gradientUnits="userSpaceOnUse">
<stop stop-color="#D9D9D9"/>
<stop offset="1" stop-color="#737373"/>
</linearGradient>
</defs>
</svg>
