<svg width="1229" height="689" viewBox="0 0 1229 689" fill="none" xmlns="http://www.w3.org/2000/svg">
<path d="M101 226V108C111.8 91.6 141.167 83.1667 154.5 81V226H101Z" fill="#DAEAEE"/>
<path d="M170 226V108V81C196.602 90.0798 207.755 96.8474 221 112V226H170Z" fill="#DAEAEE"/>
<path d="M101 226V108C111.8 91.6 141.167 83.1667 154.5 81V226H101Z" stroke="#9B9FA1" stroke-width="0.5"/>
<path d="M170 226V108V81C196.602 90.0798 207.755 96.8474 221 112V226H170Z" stroke="#9B9FA1" stroke-width="0.5"/>
<path d="M99.9872 701L-0.5 781.5H220L281.996 701H99.9872Z" fill="#B9CDD6"/>
<path d="M7.86498 652L-24 671V701H99.9872L161.153 652H7.86498Z" fill="#B9CDD6"/>
<path d="M-24 613.5V652H7.86498L72.4339 613.5H-24Z" fill="#B9CDD6"/>
<path d="M468.659 701L446.5 781.5H671L654.975 701H468.659Z" fill="#B9CDD6"/>
<path d="M845.223 701L900.5 781.5H1111L1019.97 701H845.223Z" fill="#B9CDD6"/>
<path d="M1197.82 701L1228 720V701H1197.82Z" fill="#B9CDD6"/>
<path d="M1120 652H964.555L1019.97 701H1197.82L1120 652Z" fill="#B9CDD6"/>
<path d="M645.221 652L654.975 701H845.223L811.575 652H645.221Z" fill="#B9CDD6"/>
<path d="M319.732 652L281.996 701H468.659L482.148 652H319.732Z" fill="#B9CDD6"/>
<path d="M209.213 613.5L161.153 652H319.732L349.382 613.5H279.297H209.213Z" fill="#B9CDD6"/>
<path d="M645.221 652L637.557 613.5H492.746L482.148 652H645.221Z" fill="#B9CDD6"/>
<path d="M964.555 652L921.017 613.5H785.138L811.575 652H964.555Z" fill="#B9CDD6"/>
<path d="M1228 628.5L1197.52 613.5H1058.86L1120 652H1228V628.5Z" fill="#B9CDD6"/>
<path d="M1008.03 581.5H946.432H884.83L921.017 613.5H1058.86L1008.03 581.5Z" fill="#B9CDD6"/>
<path d="M631.187 581.5L637.557 613.5H785.138L763.165 581.5H631.187Z" fill="#B9CDD6"/>
<path d="M374.026 581.5L349.382 613.5H492.746L501.554 581.5H374.026Z" fill="#B9CDD6"/>
<path d="M126.102 581.5L72.4339 613.5H209.213L249.158 581.5H126.102Z" fill="#B9CDD6"/>
<path d="M59.5743 554.5L2.44761 581.5H126.102L171.384 554.5H59.5743Z" fill="#B9CDD6"/>
<path d="M-24 581.5V594L2.44761 581.5H-24Z" fill="#B9CDD6"/>
<path d="M5.88861 532.5L-24 544V554.5H59.5743L106.122 532.5H5.88861Z" fill="#B9CDD6"/>
<path d="M-24 513.5V532.5H5.88861L55.2696 513.5H-24Z" fill="#B9CDD6"/>
<path d="M180.704 497.25H97.5033L55.2696 513.5H146.322L180.704 497.25Z" fill="#B9CDD6"/>
<path d="M208.28 532.5L240.145 513.5H146.322L106.122 532.5H208.28Z" fill="#B9CDD6"/>
<path d="M282.862 554.5L310.324 532.5H208.28L171.384 554.5H282.862Z" fill="#B9CDD6"/>
<path d="M354.326 497.25H267.398L240.145 513.5H334.041L354.326 497.25Z" fill="#B9CDD6"/>
<path d="M411.763 532.5L426.395 513.5H334.041L310.324 532.5H411.763Z" fill="#B9CDD6"/>
<path d="M249.158 581.5H374.026L394.82 554.5H282.862L249.158 581.5Z" fill="#B9CDD6"/>
<path d="M508.987 554.5L515.043 532.5H411.763L394.82 554.5H508.987Z" fill="#B9CDD6"/>
<path d="M524.746 497.25H438.91L426.395 513.5H520.273L524.746 497.25Z" fill="#B9CDD6"/>
<path d="M621.432 532.5L617.65 513.5H568.962H520.273L515.043 532.5H621.432Z" fill="#B9CDD6"/>
<path d="M501.554 581.5H631.187L625.812 554.5H508.987L501.554 581.5Z" fill="#B9CDD6"/>
<path d="M716.471 513.5L705.312 497.25H614.415L617.65 513.5H716.471Z" fill="#B9CDD6"/>
<path d="M729.518 532.5H621.432L625.812 554.5H744.624L729.518 532.5Z" fill="#B9CDD6"/>
<path d="M829.419 532.5L807.932 513.5H716.471L729.518 532.5H829.419Z" fill="#B9CDD6"/>
<path d="M763.165 581.5H884.83L854.297 554.5H744.624L763.165 581.5Z" fill="#B9CDD6"/>
<path d="M965.151 554.5L930.21 532.5H879.814H829.419L854.297 554.5H965.151Z" fill="#B9CDD6"/>
<path d="M874.226 497.25H789.556L807.932 513.5C843.9 513.5 864.066 513.5 900.034 513.5L874.226 497.25Z" fill="#B9CDD6"/>
<path d="M1032.9 532.5L994.285 513.5H900.034L930.21 532.5H1032.9Z" fill="#B9CDD6"/>
<path d="M1008.03 581.5H1132.48L1077.61 554.5H965.151L1008.03 581.5Z" fill="#F2EDE2"/>
<path d="M1184.18 554.5L1130.61 532.5H1032.9L1077.61 554.5H1184.18Z" fill="#B9CDD6"/>
<path d="M1044.79 497.25H961.26L994.285 513.5H1084.35L1044.79 497.25Z" fill="#B9CDD6"/>
<path d="M1228 529.25L1182.06 513.5H1084.35L1130.61 532.5H1228V529.25Z" fill="#B9CDD6"/>
<path d="M1228 513.5V499.5L1221.76 497.25H1134.66L1182.06 513.5H1228Z" fill="#B9CDD6"/>
<path d="M1228 572.5V554.5H1184.18L1228 572.5Z" fill="#B9CDD6"/>
<path d="M1228 613.5V581.5H1132.48L1197.52 613.5H1228Z" fill="#B9CDD6"/>
<path d="M1228 486L1179.5 482L1182 482.902L1221.76 497.25H1228V486Z" fill="#B9CDD6"/>
<path d="M1092.37 482.755L1009.17 482.618L1044.79 497.25H1134.66L1092.37 482.755Z" fill="#B9CDD6"/>
<path d="M1131 478V482L1076.5 477.313L1092.37 482.755L1182 482.902L1179.5 482L1131 478Z" fill="#B9CDD6"/>
<path d="M850.573 482.357L874.226 497.25H961.26L931.262 482.49L850.573 482.357Z" fill="#B9CDD6"/>
<path d="M852 459V464.5L818.5 462.163L829.476 469.073H903.996L883.524 459H852Z" fill="#B9CDD6"/>
<path d="M1009.17 482.618L976.19 469.073H903.996L931.262 482.49L1009.17 482.618Z" fill="#B9CDD6"/>
<path d="M757.693 469.073L772.569 482.229L850.573 482.357L829.476 469.073H757.693Z" fill="#B9CDD6"/>
<path d="M694.91 482.101L705.312 497.25H789.556L772.569 482.229L694.91 482.101Z" fill="#B9CDD6"/>
<path d="M746.301 459H679.047L685.964 469.073H757.693L746.301 459Z" fill="#B9CDD6"/>
<path d="M608.806 469.073L611.372 481.964L694.91 482.101L685.964 469.073H608.806Z" fill="#B9CDD6"/>
<path d="M528.991 481.828L524.746 497.25H614.415L611.372 481.964L570.182 481.896L528.991 481.828Z" fill="#B9CDD6"/>
<path d="M607 460H535L532.502 469.073H608.806L607 460Z" fill="#B9CDD6"/>
<path d="M402.073 459L389.499 469.073H460.61L468.368 459H402.073Z" fill="#B9CDD6"/>
<path d="M450.886 481.7L528.991 481.828L532.502 469.073H460.61L450.886 481.7Z" fill="#B9CDD6"/>
<path d="M354.326 497.25H396.618H438.91L450.886 481.7L373.895 481.573L354.326 497.25Z" fill="#B9CDD6"/>
<path d="M314.654 469.073L293.911 481.442L373.895 481.573L389.499 469.073H314.654Z" fill="#B9CDD6"/>
<path d="M495.5 459V449H476.069L468.368 459H495.5Z" fill="#B9CDD6"/>
<path d="M483 440H441V449H476.069L483 440Z" fill="#B9CDD6"/>
<path d="M316 464.5V459H288.567H261.634L240.32 469.073H314.654L323.5 463.799L316 464.5Z" fill="#B9CDD6"/>
<path d="M282 449.374L244 451.5V459H261.634L282 449.374Z" fill="#B9CDD6"/>
<path d="M189.5 469.073L165.5 471.087L139.25 481.187L214.428 481.311L240.32 469.073H189.5Z" fill="#B9CDD6"/>
<path d="M180.704 497.25H267.398L293.911 481.442L214.428 481.311L180.704 497.25Z" fill="#B9CDD6"/>
<path d="M58.8744 481.055L9.97118 497.25H97.5033L139.25 481.187L58.8744 481.055Z" fill="#B9CDD6"/>
<path d="M29.5 481.007V478.5L5.5 480.967L29.5 481.007Z" fill="#B9CDD6"/>
<path d="M-24 497.25V508.5L9.97118 497.25H-24Z" fill="#B7CCD4"/>
<path d="M-24 781.5H-0.5L99.9872 701H-24V781.5Z" fill="#EFECE0"/>
<path d="M99.9872 701H281.996L319.732 652H161.153L99.9872 701Z" fill="#F0EDE1"/>
<path d="M220 781.5H446.5L468.659 701H281.996L220 781.5Z" fill="#F2EDE2"/>
<path d="M319.732 652H482.148L492.746 613.5H349.382L319.732 652Z" fill="#F1EEE2"/>
<path d="M468.659 701H654.975L645.221 652H482.148L468.659 701Z" fill="#F2EDE2"/>
<path d="M671 781.5H900.5L845.223 701H654.975L671 781.5Z" fill="#F2EDE2"/>
<path d="M645.221 652H811.575L785.138 613.5H637.557L645.221 652Z" fill="#F2EDE2"/>
<path d="M492.746 613.5H637.557L631.187 581.5H501.554L492.746 613.5Z" fill="#F2EDE2"/>
<path d="M631.187 581.5H763.165L744.624 554.5H625.812L631.187 581.5Z" fill="#F2EDE2"/>
<path d="M845.223 701H1019.97L964.555 652H811.575L845.223 701Z" fill="#F2EDE2"/>
<path d="M785.138 613.5H921.017L884.83 581.5H763.165L785.138 613.5Z" fill="#F2EDE2"/>
<path d="M964.555 652H1120L1058.86 613.5H921.017L964.555 652Z" fill="#F2EDE2"/>
<path d="M1111 781.5H1228V720L1197.82 701H1019.97L1111 781.5Z" fill="#F2EDE2"/>
<path d="M1228 701V652H1120L1197.82 701H1228Z" fill="#F2EDE2"/>
<path d="M-24 652V671L7.86498 652H-24Z" fill="#B9CDD6"/>
<path d="M-24 594V613.5H72.4339L126.102 581.5H2.44761L-24 594Z" fill="#F2EDE2"/>
<path d="M7.86498 652H161.153L209.213 613.5H72.4339L7.86498 652Z" fill="#F2EDE2"/>
<path d="M126.102 581.5H249.158L282.862 554.5H171.384L126.102 581.5Z" fill="#F2EDE2"/>
<path d="M209.213 613.5H279.297H349.382L374.026 581.5H249.158L209.213 613.5Z" fill="#F2EDE2"/>
<path d="M59.5743 554.5H171.384L208.28 532.5H106.122L59.5743 554.5Z" fill="#F2EDE2"/>
<path d="M5.88861 532.5H106.122L146.322 513.5H55.2696L5.88861 532.5Z" fill="#F2EDE2"/>
<path d="M-24 554.5V581.5H2.44761L59.5743 554.5H-24Z" fill="#F2EDE2"/>
<path d="M-24 532.5V544L5.88861 532.5H-24Z" fill="#F2EDE2"/>
<path d="M-24 508.5V513.5H55.2696L97.5033 497.25H9.97118L-24 508.5Z" fill="#F2EDE2"/>
<path d="M-24 484V486V497.25H9.97118L58.8744 481.055L46.9525 481.035L29.5 482.5V481.007L5.5 480.967L-24 484Z" fill="#F2EDE2"/>
<path d="M165.5 471.087L63 479.689L58.8744 481.055L139.25 481.187L165.5 471.087Z" fill="#F2EDE2"/>
<path d="M97.5033 497.25H180.704L214.428 481.311L139.25 481.187L97.5033 497.25Z" fill="#F2EDE2"/>
<path d="M180.704 497.25L146.322 513.5H240.145L267.398 497.25H180.704Z" fill="#F2EDE2"/>
<path d="M293.911 481.442L314.654 469.073H240.32L214.428 481.311L293.911 481.442Z" fill="#F2EDE2"/>
<path d="M244 464.5L189.5 469.073H240.32L261.634 459H244V464.5Z" fill="#F2EDE2"/>
<path d="M316 447.5L282 449.374L261.634 459H288.567H316V447.5Z" fill="#F2EDE2"/>
<path d="M378.25 459L323.5 463.799L314.654 469.073H389.499L402.073 459H378.25Z" fill="#F2EDE2"/>
<path d="M267.398 497.25H354.326L373.895 481.573L293.911 481.442L267.398 497.25Z" fill="#F2EDE2"/>
<path d="M240.145 513.5L208.28 532.5H310.324L334.041 513.5H240.145Z" fill="#F2EDE2"/>
<path d="M310.324 532.5L282.862 554.5H394.82L411.763 532.5H310.324Z" fill="#F2EDE2"/>
<path d="M354.326 497.25L334.041 513.5H426.395L438.91 497.25H396.618H354.326Z" fill="#F2EDE2"/>
<path d="M460.61 469.073H389.499L373.895 481.573L450.886 481.7L460.61 469.073Z" fill="#F2EDE2"/>
<path d="M441 453.5L405 456.655L402.073 459H468.368L476.069 449H441V453.5Z" fill="#F2EDE2"/>
<path d="M495.5 440H483L476.069 449H495.5V440Z" fill="#F2EDE2"/>
<path d="M535 460H494.5L495.5 459H468.368L460.61 469.073H532.502L535 460Z" fill="#F2EDE2"/>
<path d="M438.91 497.25H524.746L528.991 481.828L450.886 481.7L438.91 497.25Z" fill="#F2EDE2"/>
<path d="M426.395 513.5L411.763 532.5H515.043L520.273 513.5H426.395Z" fill="#F2EDE2"/>
<path d="M374.026 581.5H501.554L508.987 554.5H394.82L374.026 581.5Z" fill="#F2EDE2"/>
<path d="M515.043 532.5L508.987 554.5H625.812L621.432 532.5H515.043Z" fill="#F2EDE2"/>
<path d="M524.746 497.25L520.273 513.5H568.962H617.65L614.415 497.25H524.746Z" fill="#F2EDE2"/>
<path d="M611.372 481.964L608.806 469.073H532.502L528.991 481.828L570.182 481.896L611.372 481.964Z" fill="#F2EDE2"/>
<path d="M666 459V460H607L608.806 469.073H685.964L679.047 459H666Z" fill="#F2EDE2"/>
<path d="M614.415 497.25H705.312L694.91 482.101L611.372 481.964L614.415 497.25Z" fill="#F2EDE2"/>
<path d="M617.65 513.5L621.432 532.5H729.518L716.471 513.5H617.65Z" fill="#F2EDE2"/>
<path d="M772.569 482.229L757.693 469.073H685.964L694.91 482.101L772.569 482.229Z" fill="#F2EDE2"/>
<path d="M705.312 497.25L716.471 513.5H807.932L789.556 497.25H705.312Z" fill="#F2EDE2"/>
<path d="M729.518 532.5L744.624 554.5H854.297L829.419 532.5H729.518Z" fill="#F2EDE2"/>
<path d="M744 456.965L723 455.5V449H672.18L679.047 459H746.301L744 456.965Z" fill="#F2EDE2"/>
<path d="M666 459H679.047L672.18 449H666V459Z" fill="#B9CDD6"/>
<path d="M818.5 462.163L773.166 459H746.301L757.693 469.073H829.476L818.5 462.163Z" fill="#B9CDD6"/>
<path d="M789.556 497.25H874.226L850.573 482.357L772.569 482.229L789.556 497.25Z" fill="#B9CDD6"/>
<path d="M850.573 482.357L931.262 482.49L903.996 469.073H829.476L850.573 482.357Z" fill="#B9CDD6"/>
<path d="M874.226 497.25L900.034 513.5H994.285L961.26 497.25H874.226Z" fill="#B9CDD6"/>
<path d="M807.932 513.5L829.419 532.5H879.814H930.21L900.034 513.5C864.066 513.5 843.9 513.5 807.932 513.5Z" fill="#F2EDE2"/>
<path d="M884.83 581.5H946.432H1008.03L965.151 554.5H854.297L884.83 581.5Z" fill="#F2EDE2"/>
<path d="M930.21 532.5L965.151 554.5H1077.61L1032.9 532.5H930.21Z" fill="#B9CDD6"/>
<path d="M402.073 459L405 456.655L378.25 459H402.073Z" fill="#B9CDD6"/>
<path d="M672.18 449L666 440V449H672.18Z" fill="#F2EDE2"/>
<path d="M666 440H723V449M666 440L672.18 449M666 440V449M-24 508.5V513.5M-24 508.5V497.25M-24 508.5L9.97118 497.25M63 479.689L165.5 471.087M63 479.689L58.8744 481.055M63 479.689L46.9525 481.035M-24 544V554.5M-24 544V532.5M-24 544L5.88861 532.5M165.5 471.087L189.5 469.073M165.5 471.087L139.25 481.187M-24 594V613.5M-24 594V581.5M-24 594L2.44761 581.5M282 449.374L316 447.5V459M282 449.374L244 451.5V459M282 449.374L261.634 459M-24 671V701M-24 671V652M-24 671L7.86498 652M323.5 463.799L316 464.5V459M323.5 463.799L314.654 469.073M323.5 463.799L378.25 459M-0.5 781.5H-24V701M-0.5 781.5H220M-0.5 781.5L99.9872 701M405 456.655L441 453.5V449M405 456.655L402.073 459M405 456.655L378.25 459M220 781.5H446.5M220 781.5L281.996 701M483 440H495.5V449M483 440H441V449M483 440L476.069 449M446.5 781.5H671M446.5 781.5L468.659 701M535 460H494.5L495.5 459M535 460H607M535 460L532.502 469.073M671 781.5H900.5M671 781.5L654.975 701M607 460H666V459M607 460L608.806 469.073M900.5 781.5H1111M900.5 781.5L845.223 701M1111 781.5H1228V720M1111 781.5L1019.97 701M744 456.965L723 455.5V449M744 456.965L746.301 459M744 456.965L773.166 459M1228 720V701M1228 720L1197.82 701M818.5 462.163L852 464.5V459M818.5 462.163L829.476 469.073M818.5 462.163L773.166 459M861 447.917L927.5 451V459M861 447.917L852 447.5V459M861 447.917L883.524 459M1228 628.5V652M1228 628.5V613.5M1228 628.5L1197.52 613.5M975 468.585L927.5 464.5V459M975 468.585L1076.5 477.313M975 468.585L1009.17 482.618M1228 572.5V581.5M1228 572.5V554.5M1228 572.5L1184.18 554.5M1076.5 477.313L1131 482V478L1179.5 482M1076.5 477.313L1092.37 482.755M1228 529.25V532.5M1228 529.25V513.5M1228 529.25L1182.06 513.5M1179.5 482L1228 486V497.25M1179.5 482L1182 482.902M1228 499.5V513.5M1228 499.5V497.25M1228 499.5L1221.76 497.25M495 459.5H665.5M-24 701H99.9872M1228 701V652M1228 701H1197.82M-24 652V613.5M-24 652H7.86498M1228 652H1120M-24 613.5H72.4339M1228 613.5V581.5M1228 613.5H1197.52M-24 581.5V554.5M-24 581.5H2.44761M1228 581.5H1132.48M1228 554.5V532.5M1228 554.5H1184.18M-24 554.5H59.5743M-24 532.5V513.5M-24 532.5H5.88861M1228 532.5H1130.61M-24 513.5H55.2696M1228 513.5H1182.06M-24 497.25V486V484L5.5 480.967M-24 497.25H9.97118M1228 497.25H1221.76M5.5 480.967L29.5 478.5V481.007M5.5 480.967L29.5 481.007M1182 482.902L1221.76 497.25M1182 482.902L1092.37 482.755M189.5 469.073L244 464.5V459M189.5 469.073H240.32M927.5 459H883.524M244 459H261.634M441 449H476.069M723 449H672.18M99.9872 701H281.996M99.9872 701L161.153 652M281.996 701H468.659M281.996 701L319.732 652M7.86498 652H161.153M7.86498 652L72.4339 613.5M161.153 652H319.732M161.153 652L209.213 613.5M72.4339 613.5H209.213M72.4339 613.5L126.102 581.5M468.659 701H654.975M468.659 701L482.148 652M654.975 701H845.223M654.975 701L645.221 652M845.223 701H1019.97M845.223 701L811.575 652M1019.97 701H1197.82M1019.97 701L964.555 652M1197.82 701L1120 652M1120 652H964.555M1120 652L1058.86 613.5M964.555 652H811.575M964.555 652L921.017 613.5M645.221 652H811.575M645.221 652H482.148M645.221 652L637.557 613.5M811.575 652L785.138 613.5M319.732 652H482.148M319.732 652L349.382 613.5M482.148 652L492.746 613.5M209.213 613.5L249.158 581.5M209.213 613.5H279.297H349.382M349.382 613.5H492.746M349.382 613.5L374.026 581.5M637.557 613.5H492.746M637.557 613.5H785.138M637.557 613.5L631.187 581.5M492.746 613.5L501.554 581.5M921.017 613.5H785.138M921.017 613.5H1058.86M921.017 613.5L884.83 581.5M785.138 613.5L763.165 581.5M1197.52 613.5H1058.86M1197.52 613.5L1132.48 581.5M1058.86 613.5L1008.03 581.5M1008.03 581.5L965.151 554.5M1008.03 581.5H1132.48M1008.03 581.5H946.432H884.83M884.83 581.5H763.165M884.83 581.5L854.297 554.5M631.187 581.5H763.165M631.187 581.5H501.554M631.187 581.5L625.812 554.5M763.165 581.5L744.624 554.5M374.026 581.5H501.554M374.026 581.5H249.158M374.026 581.5L394.82 554.5M501.554 581.5L508.987 554.5M126.102 581.5H249.158M126.102 581.5H2.44761M126.102 581.5L171.384 554.5M249.158 581.5L282.862 554.5M59.5743 554.5L2.44761 581.5M59.5743 554.5H171.384M59.5743 554.5L106.122 532.5M171.384 554.5L208.28 532.5M171.384 554.5H282.862M5.88861 532.5H106.122M5.88861 532.5L55.2696 513.5M106.122 532.5L146.322 513.5M106.122 532.5H208.28M55.2696 513.5L97.5033 497.25M55.2696 513.5H146.322M180.704 497.25H97.5033M180.704 497.25L146.322 513.5M180.704 497.25H267.398M180.704 497.25L214.428 481.311M97.5033 497.25L139.25 481.187M97.5033 497.25H9.97118M146.322 513.5H240.145M208.28 532.5L240.145 513.5M208.28 532.5H310.324M240.145 513.5L267.398 497.25M240.145 513.5H334.041M282.862 554.5L310.324 532.5M282.862 554.5H394.82M310.324 532.5L334.041 513.5M310.324 532.5H411.763M354.326 497.25H267.398M354.326 497.25L334.041 513.5M354.326 497.25L373.895 481.573M354.326 497.25H396.618H438.91M267.398 497.25L293.911 481.442M334.041 513.5H426.395M411.763 532.5L426.395 513.5M411.763 532.5L394.82 554.5M411.763 532.5H515.043M426.395 513.5L438.91 497.25M426.395 513.5H520.273M394.82 554.5H508.987M508.987 554.5L515.043 532.5M508.987 554.5H625.812M515.043 532.5L520.273 513.5M515.043 532.5H621.432M524.746 497.25H438.91M524.746 497.25L520.273 513.5M524.746 497.25H614.415M524.746 497.25L528.991 481.828M438.91 497.25L450.886 481.7M520.273 513.5H568.962H617.65M621.432 532.5L617.65 513.5M621.432 532.5L625.812 554.5M621.432 532.5H729.518M617.65 513.5L614.415 497.25M617.65 513.5H716.471M625.812 554.5H744.624M716.471 513.5L705.312 497.25M716.471 513.5L729.518 532.5M716.471 513.5H807.932M705.312 497.25H614.415M705.312 497.25H789.556M705.312 497.25L694.91 482.101M614.415 497.25L611.372 481.964M729.518 532.5L744.624 554.5M729.518 532.5H829.419M744.624 554.5H854.297M829.419 532.5L807.932 513.5M829.419 532.5L854.297 554.5M829.419 532.5H879.814H930.21M807.932 513.5L789.556 497.25M807.932 513.5C843.9 513.5 864.066 513.5 900.034 513.5M854.297 554.5H965.151M965.151 554.5L930.21 532.5M965.151 554.5H1077.61M930.21 532.5L900.034 513.5M930.21 532.5H1032.9M874.226 497.25H789.556M874.226 497.25L900.034 513.5M874.226 497.25H961.26M874.226 497.25L850.573 482.357M789.556 497.25L772.569 482.229M900.034 513.5H994.285M1032.9 532.5L994.285 513.5M1032.9 532.5L1077.61 554.5M1032.9 532.5H1130.61M994.285 513.5L961.26 497.25M994.285 513.5H1084.35M1132.48 581.5L1077.61 554.5M1077.61 554.5H1184.18M1184.18 554.5L1130.61 532.5M1130.61 532.5L1084.35 513.5M1044.79 497.25H961.26M1044.79 497.25L1084.35 513.5M1044.79 497.25H1134.66M1044.79 497.25L1009.17 482.618M961.26 497.25L931.262 482.49M1084.35 513.5H1182.06M1182.06 513.5L1134.66 497.25M1221.76 497.25H1134.66M1134.66 497.25L1092.37 482.755M1092.37 482.755L1009.17 482.618M1009.17 482.618L931.262 482.49M1009.17 482.618L976.19 469.073H903.996M850.573 482.357L931.262 482.49M850.573 482.357L829.476 469.073M850.573 482.357L772.569 482.229M931.262 482.49L903.996 469.073M852 459H883.524M852 459H773.166M829.476 469.073H903.996M829.476 469.073H757.693M903.996 469.073L883.524 459M757.693 469.073L772.569 482.229M757.693 469.073H685.964M757.693 469.073L746.301 459M772.569 482.229L694.91 482.101M694.91 482.101L685.964 469.073M694.91 482.101L611.372 481.964M746.301 459H679.047M746.301 459H773.166M679.047 459L685.964 469.073M679.047 459H666M679.047 459L672.18 449M685.964 469.073H608.806M608.806 469.073L611.372 481.964M608.806 469.073H532.502M611.372 481.964L570.182 481.896L528.991 481.828M528.991 481.828L532.502 469.073M528.991 481.828L450.886 481.7M532.502 469.073H460.61M402.073 459L389.499 469.073M402.073 459H468.368M402.073 459H378.25M389.499 469.073H460.61M389.499 469.073L373.895 481.573M389.499 469.073H314.654M460.61 469.073L468.368 459M460.61 469.073L450.886 481.7M468.368 459L476.069 449M468.368 459H495.5M450.886 481.7L373.895 481.573M373.895 481.573L293.911 481.442M314.654 469.073L293.911 481.442M314.654 469.073H240.32M293.911 481.442L214.428 481.311M495.5 459V449M495.5 459H666M495.5 449H476.069M495.5 449H666M316 459H378.25M316 459H288.567H261.634M261.634 459L240.32 469.073M240.32 469.073L214.428 481.311M139.25 481.187L214.428 481.311M139.25 481.187L58.8744 481.055M58.8744 481.055L9.97118 497.25M58.8744 481.055L46.9525 481.035M29.5 481.007V482.5L46.9525 481.035M29.5 481.007L46.9525 481.035M666 459V449M672.18 449H666" stroke="#C5C4BC" stroke-width="0.5"/>
<path d="M66 390.278L51.5 391.5V388L50 32L265 50V373.5L252.5 374.554M66 390.278L65 46L252.5 60.5V374.554M66 390.278L79.5 389.139M252.5 374.554L241 375.523M79.5 389.139L78.5 59L241 71.5V375.523M79.5 389.139L241 375.523M346 372.749L337.5 373.5V357L336.5 138C370 50 456 94 462 138V362.5L453 363.295M346 372.749V138C349.333 123.667 364.6 94.9 399 94.5C412.333 94 441.8 102 453 138V363.295M346 372.749L350.5 372.351M453 363.295L350.5 372.351M448.5 362.5V142.5C445 133.5 441.197 123.317 435 116.715C414.896 95.2978 385.519 94.9667 364.5 116.715C358.15 123.286 354 129.5 350.5 142.5V372.351M101.5 263.5V359L156.5 355V263.5H101.5ZM107.5 269.5L108 352.5L151.5 350V269.5H107.5ZM170 263.5V353L222 350V263.5H170ZM177 269.5H217V344L177 346V269.5Z" stroke="#878787" stroke-width="0.5"/>
<path d="M688.452 348V368H629.452H557.452H527M517.452 367.5H537.5M527 368H516.952V348C516.952 348 515.309 88.7892 517.452 78C531.952 4.99998 584.952 1 606.452 1C631.452 1 687.952 27.5 687.952 78C687.952 88.5 687.952 367.5 687.952 367.5H676.5M527 368V78C527 78 536.937 46.1453 554 32.5C569.143 20.3907 581.128 14 601 14C623.5 14 638.758 22.808 653.5 35.5C668.242 48.192 676.5 78 676.5 78V367.5M676.5 367.5H665M537.5 367.5V78C537.5 78 545.101 52.6418 557.5 42C569.899 31.3582 584.66 23.5633 601 23.5C617.414 23.4364 633.503 31.3582 646 42C658.497 52.6418 665 78 665 78V367.5M537.5 367.5H665M554 235V341H649V235H554ZM560 241V334.5H600V241H560ZM604 241V334.5H643.5V241H604ZM601 35.5C588.167 39.1667 560.8 54.5 554 86.5V198H649V86.5C646.667 73.5 633.8 45.1 601 35.5ZM600 42C590 44 568 55.7 560 86.5V191.5H600V42ZM604 42V191.5H643.5V86.5C641.454 74.8333 630.69 49.6 604 42Z" stroke="#878787" stroke-width="0.5"/>
<path d="M364 235V145.5C369.6 125.1 387 117.333 395 116V235H364Z" fill="#DAEAEE"/>
<path d="M402.5 235V116C423.7 120.4 433.333 137.5 435.5 145.5V235H402.5Z" fill="#DAEAEE"/>
<path d="M364 235V145.5C369.6 125.1 387 117.333 395 116V235H364Z" stroke="#BDC4C2"/>
<path d="M402.5 235V116C423.7 120.4 433.333 137.5 435.5 145.5V235H402.5Z" stroke="#BDC4C2"/>
<path d="M367.5 230.5V145.79C373.061 128.647 383.056 122.12 391 121V230.5H367.5Z" stroke="#CFDDE1"/>
<path d="M405.731 230.5V121C423.5 126.5 429.848 139.067 432 145.79V230.5H405.731Z" stroke="#CFDDE1"/>
</svg>
