<svg width="1254" height="692" viewBox="0 0 1254 692" fill="none" xmlns="http://www.w3.org/2000/svg">
<path d="M105 226V108C115.8 91.6 145.167 83.1667 158.5 81V226H105Z" fill="#DAEAEE"/>
<path d="M174 226V108V81C200.602 90.0798 211.755 96.8474 225 112V226H174Z" fill="#DAEAEE"/>
<path d="M105 226V108C115.8 91.6 145.167 83.1667 158.5 81V226H105Z" stroke="#9B9FA1" stroke-width="0.5"/>
<path d="M174 226V108V81C200.602 90.0798 211.755 96.8474 225 112V226H174Z" stroke="#9B9FA1" stroke-width="0.5"/>
<path d="M124.987 611L24.5 691.5H245L306.996 611H124.987Z" fill="#B9CDD6"/>
<path d="M32.865 562L1 581V611H124.987L186.153 562H32.865Z" fill="#B9CDD6"/>
<path d="M1 523.5V562H32.865L97.4339 523.5H1Z" fill="#B9CDD6"/>
<path d="M493.659 611L471.5 691.5H696L679.975 611H493.659Z" fill="#B9CDD6"/>
<path d="M870.223 611L925.5 691.5H1136L1044.97 611H870.223Z" fill="#B9CDD6"/>
<path d="M1222.82 611L1253 630V611H1222.82Z" fill="#B9CDD6"/>
<path d="M1145 562H989.555L1044.97 611H1222.82L1145 562Z" fill="#B9CDD6"/>
<path d="M670.221 562L679.975 611H870.223L836.575 562H670.221Z" fill="#B9CDD6"/>
<path d="M344.732 562L306.996 611H493.659L507.148 562H344.732Z" fill="#B9CDD6"/>
<path d="M234.213 523.5L186.153 562H344.732L374.382 523.5H304.297H234.213Z" fill="#B9CDD6"/>
<path d="M670.221 562L662.557 523.5H517.746L507.148 562H670.221Z" fill="#B9CDD6"/>
<path d="M989.555 562L946.017 523.5H810.138L836.575 562H989.555Z" fill="#B9CDD6"/>
<path d="M1033.03 491.5H971.432H909.83L946.017 523.5H1083.86L1033.03 491.5Z" fill="#B9CDD6"/>
<path d="M656.187 491.5L662.557 523.5H810.138L788.165 491.5H656.187Z" fill="#B9CDD6"/>
<path d="M399.026 491.5L374.382 523.5H517.746L526.554 491.5H399.026Z" fill="#B9CDD6"/>
<path d="M151.102 491.5L97.4339 523.5H234.213L274.158 491.5H151.102Z" fill="#B9CDD6"/>
<path d="M84.5743 464.5L27.4476 491.5H151.102L196.384 464.5H84.5743Z" fill="#B9CDD6"/>
<path d="M1 491.5V504L27.4476 491.5H1Z" fill="#B9CDD6"/>
<path d="M30.8886 442.5L1 454V464.5H84.5743L131.122 442.5H30.8886Z" fill="#B9CDD6"/>
<path d="M1 423.5V442.5H30.8886L80.2696 423.5H1Z" fill="#B9CDD6"/>
<path d="M205.704 407.25H122.503L80.2696 423.5H171.322L205.704 407.25Z" fill="#B9CDD6"/>
<path d="M233.28 442.5L265.145 423.5H171.322L131.122 442.5H233.28Z" fill="#B9CDD6"/>
<path d="M307.862 464.5L335.324 442.5H233.28L196.384 464.5H307.862Z" fill="#B9CDD6"/>
<path d="M379.326 407.25H292.398L265.145 423.5H359.041L379.326 407.25Z" fill="#B9CDD6"/>
<path d="M436.763 442.5L451.395 423.5H359.041L335.324 442.5H436.763Z" fill="#B9CDD6"/>
<path d="M274.158 491.5H399.026L419.82 464.5H307.862L274.158 491.5Z" fill="#B9CDD6"/>
<path d="M533.987 464.5L540.043 442.5H436.763L419.82 464.5H533.987Z" fill="#B9CDD6"/>
<path d="M549.746 407.25H463.91L451.395 423.5H545.273L549.746 407.25Z" fill="#B9CDD6"/>
<path d="M646.432 442.5L642.65 423.5H593.962H545.273L540.043 442.5H646.432Z" fill="#B9CDD6"/>
<path d="M526.554 491.5H656.187L650.812 464.5H533.987L526.554 491.5Z" fill="#B9CDD6"/>
<path d="M741.471 423.5L730.312 407.25H639.415L642.65 423.5H741.471Z" fill="#B9CDD6"/>
<path d="M754.518 442.5H646.432L650.812 464.5H769.624L754.518 442.5Z" fill="#B9CDD6"/>
<path d="M854.419 442.5L832.932 423.5H741.471L754.518 442.5H854.419Z" fill="#B9CDD6"/>
<path d="M788.165 491.5H909.83L879.297 464.5H769.624L788.165 491.5Z" fill="#B9CDD6"/>
<path d="M990.151 464.5L955.21 442.5H904.814H854.419L879.297 464.5H990.151Z" fill="#B9CDD6"/>
<path d="M899.226 407.25H814.556L832.932 423.5C868.9 423.5 889.066 423.5 925.034 423.5L899.226 407.25Z" fill="#B9CDD6"/>
<path d="M1057.9 442.5L1019.28 423.5H925.034L955.21 442.5H1057.9Z" fill="#B9CDD6"/>
<path d="M1033.03 491.5H1157.48L1102.61 464.5H990.151L1033.03 491.5Z" fill="#B9CDD6"/>
<path d="M1209.18 464.5L1155.61 442.5H1057.9L1102.61 464.5H1209.18Z" fill="#B9CDD6"/>
<path d="M1069.79 407.25H986.26L1019.28 423.5H1109.35L1069.79 407.25Z" fill="#B9CDD6"/>
<path d="M1253 439.25L1207.06 423.5H1109.35L1155.61 442.5H1253V439.25Z" fill="#B9CDD6"/>
<path d="M1253 423.5V409.5L1246.76 407.25H1159.66L1207.06 423.5H1253Z" fill="#B9CDD6"/>
<path d="M1253 482.5V464.5H1209.18L1253 482.5Z" fill="#B9CDD6"/>
<path d="M1253 523.5V491.5H1157.48L1222.52 523.5H1253Z" fill="#B9CDD6"/>
<path d="M1253 396L1204.5 392L1207 392.902L1246.76 407.25H1253V396Z" fill="#B9CDD6"/>
<path d="M1117.37 392.755L1034.17 392.618L1069.79 407.25H1159.66L1117.37 392.755Z" fill="#B9CDD6"/>
<path d="M1156 388V392L1101.5 387.313L1117.37 392.755L1207 392.902L1204.5 392L1156 388Z" fill="#B9CDD6"/>
<path d="M875.573 392.357L899.226 407.25H986.26L956.262 392.49L875.573 392.357Z" fill="#B9CDD6"/>
<path d="M877 369V374.5L843.5 372.163L854.476 379.073H928.996L908.524 369H877Z" fill="#B9CDD6"/>
<path d="M1034.17 392.618L1001.19 379.073H928.996L956.262 392.49L1034.17 392.618Z" fill="#B9CDD6"/>
<path d="M782.693 379.073L797.569 392.229L875.573 392.357L854.476 379.073H782.693Z" fill="#B9CDD6"/>
<path d="M719.91 392.101L730.312 407.25H814.556L797.569 392.229L719.91 392.101Z" fill="#B9CDD6"/>
<path d="M771.301 369H704.047L710.964 379.073H782.693L771.301 369Z" fill="#B9CDD6"/>
<path d="M633.806 379.073L636.372 391.964L719.91 392.101L710.964 379.073H633.806Z" fill="#B9CDD6"/>
<path d="M553.991 391.828L549.746 407.25H639.415L636.372 391.964L595.182 391.896L553.991 391.828Z" fill="#B9CDD6"/>
<path d="M632 370H560L557.502 379.073H633.806L632 370Z" fill="#B9CDD6"/>
<path d="M427.073 369L414.499 379.073H485.61L493.368 369H427.073Z" fill="#B9CDD6"/>
<path d="M475.886 391.7L553.991 391.828L557.502 379.073H485.61L475.886 391.7Z" fill="#B9CDD6"/>
<path d="M379.326 407.25H421.618H463.91L475.886 391.7L398.895 391.573L379.326 407.25Z" fill="#B9CDD6"/>
<path d="M339.654 379.073L318.911 391.442L398.895 391.573L414.499 379.073H339.654Z" fill="#B9CDD6"/>
<path d="M520.5 369V359H501.069L493.368 369H520.5Z" fill="#B9CDD6"/>
<path d="M508 350H466V359H501.069L508 350Z" fill="#B9CDD6"/>
<path d="M341 374.5V369H313.567H286.634L265.32 379.073H339.654L348.5 373.799L341 374.5Z" fill="#B9CDD6"/>
<path d="M307 359.374L269 361.5V369H286.634L307 359.374Z" fill="#B9CDD6"/>
<path d="M214.5 379.073L190.5 381.087L164.25 391.187L239.428 391.311L265.32 379.073H214.5Z" fill="#B9CDD6"/>
<path d="M205.704 407.25H292.398L318.911 391.442L239.428 391.311L205.704 407.25Z" fill="#B9CDD6"/>
<path d="M83.8744 391.055L34.9712 407.25H122.503L164.25 391.187L83.8744 391.055Z" fill="#B9CDD6"/>
<path d="M54.5 391.007V388.5L30.5 390.967L54.5 391.007Z" fill="#B9CDD6"/>
<path d="M1 407.25V418.5L34.9712 407.25H1Z" fill="#B7CCD4"/>
<path d="M1 691.5H24.5L124.987 611H1V691.5Z" fill="#EFECE0"/>
<path d="M124.987 611H306.996L344.732 562H186.153L124.987 611Z" fill="#F0EDE1"/>
<path d="M245 691.5H471.5L493.659 611H306.996L245 691.5Z" fill="#F2EDE2"/>
<path d="M344.732 562H507.148L517.746 523.5H374.382L344.732 562Z" fill="#F1EEE2"/>
<path d="M493.659 611H679.975L670.221 562H507.148L493.659 611Z" fill="#F2EDE2"/>
<path d="M696 691.5H925.5L870.223 611H679.975L696 691.5Z" fill="#F2EDE2"/>
<path d="M670.221 562H836.575L810.138 523.5H662.557L670.221 562Z" fill="#F2EDE2"/>
<path d="M517.746 523.5H662.557L656.187 491.5H526.554L517.746 523.5Z" fill="#F2EDE2"/>
<path d="M656.187 491.5H788.165L769.624 464.5H650.812L656.187 491.5Z" fill="#F2EDE2"/>
<path d="M870.223 611H1044.97L989.555 562H836.575L870.223 611Z" fill="#F2EDE2"/>
<path d="M810.138 523.5H946.017L909.83 491.5H788.165L810.138 523.5Z" fill="#F2EDE2"/>
<path d="M989.555 562H1145L1083.86 523.5H946.017L989.555 562Z" fill="#F2EDE2"/>
<path d="M1136 691.5H1253V630L1222.82 611H1044.97L1136 691.5Z" fill="#F2EDE2"/>
<path d="M1253 611V562H1145L1222.82 611H1253Z" fill="#F2EDE2"/>
<path d="M1 562V581L32.865 562H1Z" fill="#B9CDD6"/>
<path d="M1 504V523.5H97.4339L151.102 491.5H27.4476L1 504Z" fill="#F2EDE2"/>
<path d="M32.865 562H186.153L234.213 523.5H97.4339L32.865 562Z" fill="#F2EDE2"/>
<path d="M151.102 491.5H274.158L307.862 464.5H196.384L151.102 491.5Z" fill="#F2EDE2"/>
<path d="M234.213 523.5H304.297H374.382L399.026 491.5H274.158L234.213 523.5Z" fill="#F2EDE2"/>
<path d="M84.5743 464.5H196.384L233.28 442.5H131.122L84.5743 464.5Z" fill="#F2EDE2"/>
<path d="M30.8886 442.5H131.122L171.322 423.5H80.2696L30.8886 442.5Z" fill="#F2EDE2"/>
<path d="M1 464.5V491.5H27.4476L84.5743 464.5H1Z" fill="#F2EDE2"/>
<path d="M1 442.5V454L30.8886 442.5H1Z" fill="#F2EDE2"/>
<path d="M1 418.5V423.5H80.2696L122.503 407.25H34.9712L1 418.5Z" fill="#F2EDE2"/>
<path d="M1 394V396V407.25H34.9712L83.8744 391.055L71.9525 391.035L54.5 392.5V391.007L30.5 390.967L1 394Z" fill="#F2EDE2"/>
<path d="M190.5 381.087L88 389.689L83.8744 391.055L164.25 391.187L190.5 381.087Z" fill="#F2EDE2"/>
<path d="M122.503 407.25H205.704L239.428 391.311L164.25 391.187L122.503 407.25Z" fill="#F2EDE2"/>
<path d="M205.704 407.25L171.322 423.5H265.145L292.398 407.25H205.704Z" fill="#F2EDE2"/>
<path d="M318.911 391.442L339.654 379.073H265.32L239.428 391.311L318.911 391.442Z" fill="#F2EDE2"/>
<path d="M269 374.5L214.5 379.073H265.32L286.634 369H269V374.5Z" fill="#F2EDE2"/>
<path d="M341 357.5L307 359.374L286.634 369H313.567H341V357.5Z" fill="#F2EDE2"/>
<path d="M403.25 369L348.5 373.799L339.654 379.073H414.499L427.073 369H403.25Z" fill="#F2EDE2"/>
<path d="M292.398 407.25H379.326L398.895 391.573L318.911 391.442L292.398 407.25Z" fill="#F2EDE2"/>
<path d="M265.145 423.5L233.28 442.5H335.324L359.041 423.5H265.145Z" fill="#F2EDE2"/>
<path d="M335.324 442.5L307.862 464.5H419.82L436.763 442.5H335.324Z" fill="#F2EDE2"/>
<path d="M379.326 407.25L359.041 423.5H451.395L463.91 407.25H421.618H379.326Z" fill="#F2EDE2"/>
<path d="M485.61 379.073H414.499L398.895 391.573L475.886 391.7L485.61 379.073Z" fill="#F2EDE2"/>
<path d="M466 363.5L430 366.655L427.073 369H493.368L501.069 359H466V363.5Z" fill="#F2EDE2"/>
<path d="M520.5 350H508L501.069 359H520.5V350Z" fill="#F2EDE2"/>
<path d="M560 370H519.5L520.5 369H493.368L485.61 379.073H557.502L560 370Z" fill="#F2EDE2"/>
<path d="M463.91 407.25H549.746L553.991 391.828L475.886 391.7L463.91 407.25Z" fill="#F2EDE2"/>
<path d="M451.395 423.5L436.763 442.5H540.043L545.273 423.5H451.395Z" fill="#F2EDE2"/>
<path d="M399.026 491.5H526.554L533.987 464.5H419.82L399.026 491.5Z" fill="#F2EDE2"/>
<path d="M540.043 442.5L533.987 464.5H650.812L646.432 442.5H540.043Z" fill="#F2EDE2"/>
<path d="M549.746 407.25L545.273 423.5H593.962H642.65L639.415 407.25H549.746Z" fill="#F2EDE2"/>
<path d="M636.372 391.964L633.806 379.073H557.502L553.991 391.828L595.182 391.896L636.372 391.964Z" fill="#F2EDE2"/>
<path d="M692.5 369L691 370H632L633.806 379.073H710.964L704.047 369H692.5Z" fill="#F2EDE2"/>
<path d="M639.415 407.25H730.312L719.91 392.101L636.372 391.964L639.415 407.25Z" fill="#F2EDE2"/>
<path d="M642.65 423.5L646.432 442.5H754.518L741.471 423.5H642.65Z" fill="#F2EDE2"/>
<path d="M797.569 392.229L782.693 379.073H710.964L719.91 392.101L797.569 392.229Z" fill="#F2EDE2"/>
<path d="M730.312 407.25L741.471 423.5H832.932L814.556 407.25H730.312Z" fill="#F2EDE2"/>
<path d="M754.518 442.5L769.624 464.5H879.297L854.419 442.5H754.518Z" fill="#F2EDE2"/>
<path d="M769 366.965L748 365.5V359H697.18L704.047 369H771.301L769 366.965Z" fill="#F2EDE2"/>
<path d="M692.5 369H704.047L697.18 359H692.5V369Z" fill="#B9CDD6"/>
<path d="M843.5 372.163L798.166 369H771.301L782.693 379.073H854.476L843.5 372.163Z" fill="#F2EDE2"/>
<path d="M814.556 407.25H899.226L875.573 392.357L797.569 392.229L814.556 407.25Z" fill="#F2EDE2"/>
<path d="M875.573 392.357L956.262 392.49L928.996 379.073H854.476L875.573 392.357Z" fill="#F2EDE2"/>
<path d="M899.226 407.25L925.034 423.5H1019.28L986.26 407.25H899.226Z" fill="#F2EDE2"/>
<path d="M832.932 423.5L854.419 442.5H904.814H955.21L925.034 423.5C889.066 423.5 868.9 423.5 832.932 423.5Z" fill="#F2EDE2"/>
<path d="M909.83 491.5H971.432H1033.03L990.151 464.5H879.297L909.83 491.5Z" fill="#F2EDE2"/>
<path d="M955.21 442.5L990.151 464.5H1102.61L1057.9 442.5H955.21Z" fill="#F2EDE2"/>
<path d="M427.073 369L430 366.655L403.25 369H427.073Z" fill="#B9CDD6"/>
<path d="M697.18 359L692.5 348.5V359H697.18Z" fill="#F2EDE2"/>
<path d="M1253 562V538.5L1222.52 523.5H1083.86L1145 562H1253Z" fill="#B9CDD6"/>
<path d="M1083.86 523.5H1222.52L1157.48 491.5H1033.03L1083.86 523.5Z" fill="#F2EDE2"/>
<path d="M1253 491.5V482.5L1209.18 464.5H1102.61L1157.48 491.5H1253Z" fill="#F2EDE2"/>
<path d="M1253 464.5V442.5H1155.61L1209.18 464.5H1253Z" fill="#F2EDE2"/>
<path d="M1019.28 423.5L1057.9 442.5H1155.61L1109.35 423.5H1019.28Z" fill="#F2EDE2"/>
<path d="M1069.79 407.25L1109.35 423.5H1207.06L1159.66 407.25H1069.79Z" fill="#F2EDE2"/>
<path d="M986.26 407.25H1069.79L1034.17 392.618L956.262 392.49L986.26 407.25Z" fill="#F2EDE2"/>
<path d="M1101.5 387.313L1000 378.585L1001.19 379.073L1034.17 392.618L1117.37 392.755L1101.5 387.313Z" fill="#F2EDE2"/>
<path d="M1159.66 407.25H1246.76L1207 392.902L1117.37 392.755L1159.66 407.25Z" fill="#F2EDE2"/>
<path d="M1253 439.25V423.5H1207.06L1253 439.25Z" fill="#F2EDE2"/>
<path d="M1253 538.5V523.5H1222.52L1253 538.5Z" fill="#F2EDE2"/>
<path d="M1000 378.585L952.5 374.5V369H908.524L928.996 379.073H1001.19L1000 378.585Z" fill="#F2EDE2"/>
<path d="M748 350V359M1 418.5V423.5M1 418.5V407.25M1 418.5L34.9712 407.25M88 389.689L190.5 381.087M88 389.689L83.8744 391.055M88 389.689L71.9525 391.035M1 454V464.5M1 454V442.5M1 454L30.8886 442.5M190.5 381.087L214.5 379.073M190.5 381.087L164.25 391.187M1 504V523.5M1 504V491.5M1 504L27.4476 491.5M307 359.374L341 357.5V369M307 359.374L269 361.5V369M307 359.374L286.634 369M1 581V611M1 581V562M1 581L32.865 562M348.5 373.799L341 374.5V369M348.5 373.799L339.654 379.073M348.5 373.799L403.25 369M24.5 691.5H1V611M24.5 691.5H245M24.5 691.5L124.987 611M430 366.655L466 363.5V359M430 366.655L427.073 369M430 366.655L403.25 369M245 691.5H471.5M245 691.5L306.996 611M508 350H520.5V359M508 350H466V359M508 350L501.069 359M471.5 691.5H696M471.5 691.5L493.659 611M560 370H519.5L520.5 369M560 370H632M560 370L557.502 379.073M696 691.5H925.5M696 691.5L679.975 611M632 370H691L692.5 369M632 370L633.806 379.073M925.5 691.5H1136M925.5 691.5L870.223 611M1136 691.5H1253V630M1136 691.5L1044.97 611M769 366.965L748 365.5V359M769 366.965L771.301 369M769 366.965L798.166 369M1253 630V611M1253 630L1222.82 611M843.5 372.163L877 374.5V369M843.5 372.163L854.476 379.073M843.5 372.163L798.166 369M886 357.917L952.5 361V369M886 357.917L877 357.5V369M886 357.917L908.524 369M1253 538.5V562M1253 538.5V523.5M1253 538.5L1222.52 523.5M1000 378.585L952.5 374.5V369M1000 378.585L1101.5 387.313M1000 378.585L1034.17 392.618M1000 378.585L1001.19 379.073M1253 482.5V491.5M1253 482.5V464.5M1253 482.5L1209.18 464.5M1101.5 387.313L1156 392V388L1204.5 392M1101.5 387.313L1117.37 392.755M1253 439.25V442.5M1253 439.25V423.5M1253 439.25L1207.06 423.5M1204.5 392L1253 396V407.25M1204.5 392L1207 392.902M1253 409.5V423.5M1253 409.5V407.25M1253 409.5L1246.76 407.25M520 369.5H690.5M1 611H124.987M1253 611V562M1253 611H1222.82M1 562V523.5M1 562H32.865M1253 562H1145M1 523.5H97.4339M1253 523.5V491.5M1253 523.5H1222.52M1 491.5V464.5M1 491.5H27.4476M1253 491.5H1157.48M1253 464.5V442.5M1253 464.5H1209.18M1 464.5H84.5743M1 442.5V423.5M1 442.5H30.8886M1253 442.5H1155.61M1 423.5H80.2696M1253 423.5H1207.06M1 407.25V396V394L30.5 390.967M1 407.25H34.9712M1253 407.25H1246.76M30.5 390.967L54.5 388.5V391.007M30.5 390.967L54.5 391.007M1207 392.902L1246.76 407.25M1207 392.902L1117.37 392.755M214.5 379.073L269 374.5V369M214.5 379.073H265.32M1001.19 379.073H928.996M1001.19 379.073L1034.17 392.618M952.5 369H908.524M269 369H286.634M466 359H501.069M748 359H697.18M124.987 611H306.996M124.987 611L186.153 562M306.996 611H493.659M306.996 611L344.732 562M32.865 562H186.153M32.865 562L97.4339 523.5M186.153 562H344.732M186.153 562L234.213 523.5M97.4339 523.5H234.213M97.4339 523.5L151.102 491.5M493.659 611H679.975M493.659 611L507.148 562M679.975 611H870.223M679.975 611L670.221 562M870.223 611H1044.97M870.223 611L836.575 562M1044.97 611H1222.82M1044.97 611L989.555 562M1222.82 611L1145 562M1145 562H989.555M1145 562L1083.86 523.5M989.555 562H836.575M989.555 562L946.017 523.5M670.221 562H836.575M670.221 562H507.148M670.221 562L662.557 523.5M836.575 562L810.138 523.5M344.732 562H507.148M344.732 562L374.382 523.5M507.148 562L517.746 523.5M234.213 523.5L274.158 491.5M234.213 523.5H304.297H374.382M374.382 523.5H517.746M374.382 523.5L399.026 491.5M662.557 523.5H517.746M662.557 523.5H810.138M662.557 523.5L656.187 491.5M517.746 523.5L526.554 491.5M946.017 523.5H810.138M946.017 523.5H1083.86M946.017 523.5L909.83 491.5M810.138 523.5L788.165 491.5M1222.52 523.5H1083.86M1222.52 523.5L1157.48 491.5M1083.86 523.5L1033.03 491.5M1033.03 491.5L990.151 464.5M1033.03 491.5H1157.48M1033.03 491.5H971.432H909.83M909.83 491.5H788.165M909.83 491.5L879.297 464.5M656.187 491.5H788.165M656.187 491.5H526.554M656.187 491.5L650.812 464.5M788.165 491.5L769.624 464.5M399.026 491.5H526.554M399.026 491.5H274.158M399.026 491.5L419.82 464.5M526.554 491.5L533.987 464.5M151.102 491.5H274.158M151.102 491.5H27.4476M151.102 491.5L196.384 464.5M274.158 491.5L307.862 464.5M84.5743 464.5L27.4476 491.5M84.5743 464.5H196.384M84.5743 464.5L131.122 442.5M196.384 464.5L233.28 442.5M196.384 464.5H307.862M30.8886 442.5H131.122M30.8886 442.5L80.2696 423.5M131.122 442.5L171.322 423.5M131.122 442.5H233.28M80.2696 423.5L122.503 407.25M80.2696 423.5H171.322M205.704 407.25H122.503M205.704 407.25L171.322 423.5M205.704 407.25H292.398M205.704 407.25L239.428 391.311M122.503 407.25L164.25 391.187M122.503 407.25H34.9712M171.322 423.5H265.145M233.28 442.5L265.145 423.5M233.28 442.5H335.324M265.145 423.5L292.398 407.25M265.145 423.5H359.041M307.862 464.5L335.324 442.5M307.862 464.5H419.82M335.324 442.5L359.041 423.5M335.324 442.5H436.763M379.326 407.25H292.398M379.326 407.25L359.041 423.5M379.326 407.25L398.895 391.573M379.326 407.25H421.618H463.91M292.398 407.25L318.911 391.442M359.041 423.5H451.395M436.763 442.5L451.395 423.5M436.763 442.5L419.82 464.5M436.763 442.5H540.043M451.395 423.5L463.91 407.25M451.395 423.5H545.273M419.82 464.5H533.987M533.987 464.5L540.043 442.5M533.987 464.5H650.812M540.043 442.5L545.273 423.5M540.043 442.5H646.432M549.746 407.25H463.91M549.746 407.25L545.273 423.5M549.746 407.25H639.415M549.746 407.25L553.991 391.828M463.91 407.25L475.886 391.7M545.273 423.5H593.962H642.65M646.432 442.5L642.65 423.5M646.432 442.5L650.812 464.5M646.432 442.5H754.518M642.65 423.5L639.415 407.25M642.65 423.5H741.471M650.812 464.5H769.624M741.471 423.5L730.312 407.25M741.471 423.5L754.518 442.5M741.471 423.5H832.932M730.312 407.25H639.415M730.312 407.25H814.556M730.312 407.25L719.91 392.101M639.415 407.25L636.372 391.964M754.518 442.5L769.624 464.5M754.518 442.5H854.419M769.624 464.5H879.297M854.419 442.5L832.932 423.5M854.419 442.5L879.297 464.5M854.419 442.5H904.814H955.21M832.932 423.5L814.556 407.25M832.932 423.5C868.9 423.5 889.066 423.5 925.034 423.5M879.297 464.5H990.151M990.151 464.5L955.21 442.5M990.151 464.5H1102.61M955.21 442.5L925.034 423.5M955.21 442.5H1057.9M899.226 407.25H814.556M899.226 407.25L925.034 423.5M899.226 407.25H986.26M899.226 407.25L875.573 392.357M814.556 407.25L797.569 392.229M925.034 423.5H1019.28M1057.9 442.5L1019.28 423.5M1057.9 442.5L1102.61 464.5M1057.9 442.5H1155.61M1019.28 423.5L986.26 407.25M1019.28 423.5H1109.35M1157.48 491.5L1102.61 464.5M1102.61 464.5H1209.18M1209.18 464.5L1155.61 442.5M1155.61 442.5L1109.35 423.5M1069.79 407.25H986.26M1069.79 407.25L1109.35 423.5M1069.79 407.25H1159.66M1069.79 407.25L1034.17 392.618M986.26 407.25L956.262 392.49M1109.35 423.5H1207.06M1207.06 423.5L1159.66 407.25M1246.76 407.25H1159.66M1159.66 407.25L1117.37 392.755M1117.37 392.755L1034.17 392.618M1034.17 392.618L956.262 392.49M875.573 392.357L956.262 392.49M875.573 392.357L854.476 379.073M875.573 392.357L797.569 392.229M956.262 392.49L928.996 379.073M877 369H908.524M854.476 379.073H928.996M854.476 379.073H782.693M928.996 379.073L908.524 369M782.693 379.073L797.569 392.229M782.693 379.073H710.964M782.693 379.073L771.301 369M797.569 392.229L719.91 392.101M719.91 392.101L710.964 379.073M719.91 392.101L636.372 391.964M771.301 369H704.047M771.301 369H798.166M704.047 369L710.964 379.073M704.047 369H692.5M704.047 369L697.18 359M710.964 379.073H633.806M633.806 379.073L636.372 391.964M633.806 379.073H557.502M636.372 391.964L595.182 391.896L553.991 391.828M553.991 391.828L557.502 379.073M553.991 391.828L475.886 391.7M557.502 379.073H485.61M427.073 369L414.499 379.073M427.073 369H493.368M427.073 369H403.25M414.499 379.073H485.61M414.499 379.073L398.895 391.573M414.499 379.073H339.654M485.61 379.073L493.368 369M485.61 379.073L475.886 391.7M493.368 369L501.069 359M493.368 369H520.5M475.886 391.7L398.895 391.573M398.895 391.573L318.911 391.442M339.654 379.073L318.911 391.442M339.654 379.073H265.32M318.911 391.442L239.428 391.311M520.5 369V359M520.5 369H692.5M520.5 359H501.069M341 369H313.567H286.634M286.634 369L265.32 379.073M265.32 379.073L239.428 391.311M164.25 391.187L239.428 391.311M164.25 391.187L83.8744 391.055M83.8744 391.055L34.9712 407.25M83.8744 391.055L71.9525 391.035M54.5 391.007V392.5L71.9525 391.035M54.5 391.007L71.9525 391.035M692.5 369V359M697.18 359L692.5 348.5V359M697.18 359H692.5" stroke="#C5C4BC" stroke-width="0.5"/>
<path d="M70 390.278L55.5 391.5V388L54 32L269 50V373.5L256.5 374.554M70 390.278L69 46L256.5 60.5V374.554M70 390.278L83.5 389.139M256.5 374.554L245 375.523M83.5 389.139L82.5 59L245 71.5V375.523M83.5 389.139L245 375.523M350 372.749L341.5 373.5V357L340.5 138C374 50 460 94 466 138V362.5L457 363.295M350 372.749V138C353.333 123.667 368.6 94.9 403 94.5C416.333 94 445.8 102 457 138V363.295M350 372.749L354.5 372.351M457 363.295L354.5 372.351M452.5 362.5V142.5C449 133.5 445.197 123.317 439 116.715C418.896 95.2978 389.519 94.9667 368.5 116.715C362.15 123.286 358 129.5 354.5 142.5V372.351M105.5 263.5V359L160.5 355V263.5H105.5ZM111.5 269.5L112 352.5L155.5 350V269.5H111.5ZM174 263.5V353L226 350V263.5H174ZM181 269.5H221V344L181 346V269.5Z" stroke="#878787" stroke-width="0.5"/>
<path d="M692.452 348V368H633.452H561.452H531M521.452 367.5H541.5M531 368H520.952V348C520.952 348 519.309 88.7892 521.452 78C535.952 4.99998 588.952 1 610.452 1C635.452 1 691.952 27.5 691.952 78C691.952 88.5 691.952 367.5 691.952 367.5H680.5M531 368V78C531 78 540.937 46.1453 558 32.5C573.143 20.3907 585.128 14 605 14C627.5 14 642.758 22.808 657.5 35.5C672.242 48.192 680.5 78 680.5 78V367.5M680.5 367.5H669M541.5 367.5V78C541.5 78 549.101 52.6418 561.5 42C573.899 31.3582 588.66 23.5633 605 23.5C621.414 23.4364 637.503 31.3582 650 42C662.497 52.6418 669 78 669 78V367.5M541.5 367.5H669M558 235V341H653V235H558ZM564 241V334.5H604V241H564ZM608 241V334.5H647.5V241H608ZM605 35.5C592.167 39.1667 564.8 54.5 558 86.5V198H653V86.5C650.667 73.5 637.8 45.1 605 35.5ZM604 42C594 44 572 55.7 564 86.5V191.5H604V42ZM608 42V191.5H647.5V86.5C645.454 74.8333 634.69 49.6 608 42Z" stroke="#878787" stroke-width="0.5"/>
<path d="M368 235V145.5C373.6 125.1 391 117.333 399 116V235H368Z" fill="#DAEAEE"/>
<path d="M406.5 235V116C427.7 120.4 437.333 137.5 439.5 145.5V235H406.5Z" fill="#DAEAEE"/>
<path d="M368 235V145.5C373.6 125.1 391 117.333 399 116V235H368Z" stroke="#BDC4C2"/>
<path d="M406.5 235V116C427.7 120.4 437.333 137.5 439.5 145.5V235H406.5Z" stroke="#BDC4C2"/>
<path d="M371.5 230.5V145.79C377.061 128.647 387.056 122.12 395 121V230.5H371.5Z" stroke="#CFDDE1"/>
<path d="M409.731 230.5V121C427.5 126.5 433.848 139.067 436 145.79V230.5H409.731Z" stroke="#CFDDE1"/>
<path d="M1111 226V108C1100.2 91.6 1070.83 83.1667 1057.5 81V226H1111Z" fill="#DAEAEE"/>
<path d="M1042 226V108V81C1015.4 90.0798 1004.24 96.8474 991 112V226H1042Z" fill="#DAEAEE"/>
<path d="M1111 226V108C1100.2 91.6 1070.83 83.1667 1057.5 81V226H1111Z" stroke="#9B9FA1" stroke-width="0.5"/>
<path d="M1042 226V108V81C1015.4 90.0798 1004.24 96.8474 991 112V226H1042Z" stroke="#9B9FA1" stroke-width="0.5"/>
<path d="M1141 390.278L1155.5 391.5V388L1160 35L945 53V376.5L957.5 377.554M1141 390.278L1145 49L957.5 63.5V377.554M1141 390.278L1127.5 389.139M957.5 377.554L969 378.523M1127.5 389.139L1131.5 62L969 74.5V378.523M1127.5 389.139L969 378.523M868.5 373.398L877 374.149V358.5V141C843.5 53 754 97 748 141V365.5L757 366.295M868.5 373.398L864 141C860.667 126.667 845.4 97.9 811 97.5C797.667 97 768.2 105 757 141V366.295M868.5 373.398L864 373M757 366.295L864 373M761.5 365.5V145.5C765 136.5 768.803 126.317 775 119.715C795.104 98.2978 824.481 97.9667 845.5 119.715C851.85 126.286 856 132.5 859.5 145.5L864 373M1108.5 266.5V362L1053.5 358V266.5H1108.5ZM1102.5 272.5L1102 355.5L1058.5 353V272.5H1102.5ZM1040 266.5V356L988 353V266.5H1040ZM1033 272.5H993V347L1033 349V272.5Z" stroke="#878787" stroke-width="0.5"/>
<path d="M848 235V145.5C842.4 125.1 825 117.333 817 116V235H848Z" fill="#DAEAEE"/>
<path d="M809.5 235V116C788.3 120.4 778.667 137.5 776.5 145.5V235H809.5Z" fill="#DAEAEE"/>
<path d="M848 235V145.5C842.4 125.1 825 117.333 817 116V235H848Z" stroke="#BDC4C2"/>
<path d="M809.5 235V116C788.3 120.4 778.667 137.5 776.5 145.5V235H809.5Z" stroke="#BDC4C2"/>
<path d="M844.5 230.5V145.79C838.939 128.647 828.944 122.12 821 121V230.5H844.5Z" stroke="#CFDDE1"/>
<path d="M806.269 230.5V121C788.5 126.5 782.152 139.067 780 145.79V230.5H806.269Z" stroke="#CFDDE1"/>
</svg>
