<svg width="186" height="214" viewBox="0 0 186 214" fill="none" xmlns="http://www.w3.org/2000/svg">
<g filter="url(#filter0_i_639_86)">
<path d="M19.1418 139.255H29.2799H157.607L178.683 142.421H174.684C177.897 142.468 186.336 142.915 184.819 146.379C183.982 148.292 180.684 149.809 180.684 149.809C180.684 149.809 185.36 155.304 184.819 159.307C183.93 165.888 169.212 166.431 169.212 166.431C169.212 166.431 182.999 175.796 178.683 181.075C175.145 185.401 164.276 181.075 164.276 181.075C164.276 181.075 173.607 190.805 169.212 194.003C155.072 204.293 151.204 188.858 151.204 188.858C151.204 188.858 148.925 200.738 143.066 204.293C135.489 208.892 120.656 200.335 120.656 200.335C120.656 200.335 121.992 208.476 116.921 210.362C101.314 216.166 101.314 202.314 101.314 202.314C101.314 202.314 93.4433 213 89.4414 213C73.1551 213 70.766 200.335 70.766 200.335C70.766 200.335 68.8354 210.362 64.0962 210.362C47.2883 210.362 47.2883 194.003 47.2883 194.003C47.2883 194.003 41.7407 203.222 38.3508 202.314C26.2875 199.083 34.1107 187.189 35.0587 185.821C34.1721 187.065 26.9772 196.857 22.0765 194.003C11.8386 188.042 14.7777 181.605 17.258 178.442C14.888 180.516 10.77 182.681 7.80321 176.457C4.95045 170.473 7.45514 168.049 9.68917 167.074C6.76455 167.534 2.33396 167.209 2.33398 161.022C2.334 156.43 10.7379 156.405 10.7379 156.405C10.7379 156.405 7.06709 147.557 10.7379 144.928C13.3961 143.024 19.1418 144.928 19.1418 144.928V139.255Z" fill="#737373"/>
</g>
<path d="M19.1418 139.255H29.2799H157.607L178.683 142.421H174.684C177.897 142.468 186.336 142.915 184.819 146.379C183.982 148.292 180.684 149.809 180.684 149.809C180.684 149.809 185.36 155.304 184.819 159.307C183.93 165.888 169.212 166.431 169.212 166.431C169.212 166.431 182.999 175.796 178.683 181.075C175.145 185.401 164.276 181.075 164.276 181.075C164.276 181.075 173.607 190.805 169.212 194.003C155.072 204.293 151.204 188.858 151.204 188.858C151.204 188.858 148.925 200.738 143.066 204.293C135.489 208.892 120.656 200.335 120.656 200.335C120.656 200.335 121.992 208.476 116.921 210.362C101.314 216.166 101.314 202.314 101.314 202.314C101.314 202.314 93.4433 213 89.4414 213C73.1551 213 70.766 200.335 70.766 200.335C70.766 200.335 68.8354 210.362 64.0962 210.362C47.2883 210.362 47.2883 194.003 47.2883 194.003C47.2883 194.003 41.7407 203.222 38.3508 202.314C26.2875 199.083 34.1107 187.189 35.0587 185.821C34.1721 187.065 26.9772 196.857 22.0765 194.003C11.8386 188.042 14.7777 181.605 17.258 178.442C14.888 180.516 10.77 182.681 7.80321 176.457C4.95045 170.473 7.45514 168.049 9.68917 167.074C6.76455 167.534 2.33396 167.209 2.33398 161.022C2.334 156.43 10.7379 156.405 10.7379 156.405C10.7379 156.405 7.06709 147.557 10.7379 144.928C13.3961 143.024 19.1418 144.928 19.1418 144.928V139.255Z" stroke="black" stroke-width="2"/>
<g filter="url(#filter1_i_639_86)">
<path d="M17.8079 132.395H27.9459H156.273L177.349 135.561H173.35C176.563 135.608 185.002 136.055 183.485 139.519C182.648 141.432 179.35 142.949 179.35 142.949C179.35 142.949 184.027 148.444 183.485 152.447C182.596 159.028 167.878 159.571 167.878 159.571C167.878 159.571 181.665 168.936 177.349 174.215C173.811 178.541 162.942 174.215 162.942 174.215C162.942 174.215 172.273 183.945 167.878 187.143C153.738 197.433 149.87 181.998 149.87 181.998C149.87 181.998 147.591 193.878 141.732 197.433C134.155 202.032 119.322 193.475 119.322 193.475C119.322 193.475 120.658 201.616 115.587 203.502C99.9796 209.306 99.9796 195.454 99.9796 195.454C99.9796 195.454 92.1093 206.14 88.1074 206.14C71.8211 206.14 69.432 193.475 69.432 193.475C69.432 193.475 67.5014 203.502 62.7622 203.502C45.9544 203.502 45.9544 187.143 45.9544 187.143C45.9544 187.143 40.4067 196.362 37.0168 195.454C24.9535 192.223 32.7768 180.329 33.7247 178.961C32.8381 180.205 25.6432 189.997 20.7426 187.143C10.5046 181.182 13.4437 174.745 15.924 171.582C13.554 173.656 9.43602 175.821 6.46922 169.597C3.61646 163.613 6.12116 161.189 8.35519 160.214C5.43057 160.674 0.99998 160.349 1 154.162C1.00002 149.57 9.40393 149.545 9.40393 149.545C9.40393 149.545 5.73311 140.697 9.40393 138.068C12.0621 136.164 17.8079 138.068 17.8079 138.068V132.395Z" fill="white"/>
</g>
<path d="M17.8079 132.395H27.9459H156.273L177.349 135.561H173.35C176.563 135.608 185.002 136.055 183.485 139.519C182.648 141.432 179.35 142.949 179.35 142.949C179.35 142.949 184.027 148.444 183.485 152.447C182.596 159.028 167.878 159.571 167.878 159.571C167.878 159.571 181.665 168.936 177.349 174.215C173.811 178.541 162.942 174.215 162.942 174.215C162.942 174.215 172.273 183.945 167.878 187.143C153.738 197.433 149.87 181.998 149.87 181.998C149.87 181.998 147.591 193.878 141.732 197.433C134.155 202.032 119.322 193.475 119.322 193.475C119.322 193.475 120.658 201.616 115.587 203.502C99.9796 209.306 99.9796 195.454 99.9796 195.454C99.9796 195.454 92.1093 206.14 88.1074 206.14C71.8211 206.14 69.432 193.475 69.432 193.475C69.432 193.475 67.5014 203.502 62.7622 203.502C45.9544 203.502 45.9544 187.143 45.9544 187.143C45.9544 187.143 40.4067 196.362 37.0168 195.454C24.9535 192.223 32.7768 180.329 33.7247 178.961C32.8381 180.205 25.6432 189.997 20.7426 187.143C10.5046 181.182 13.4437 174.745 15.924 171.582C13.554 173.656 9.43602 175.821 6.46922 169.597C3.61646 163.613 6.12116 161.189 8.35519 160.214C5.43057 160.674 0.99998 160.349 1 154.162C1.00002 149.57 9.40393 149.545 9.40393 149.545C9.40393 149.545 5.73311 140.697 9.40393 138.068C12.0621 136.164 17.8079 138.068 17.8079 138.068V132.395Z" stroke="black" stroke-width="2"/>
<g filter="url(#filter2_i_639_86)">
<path d="M37.2055 75.0188C40.226 44.6159 87.7587 22.0192 87.7587 22.0192L69.8819 58.0734C69.8819 58.0734 83.3074 50.024 90.6893 42.2096C98.0712 34.3951 109.445 18.4138 109.445 18.4138C109.445 18.4138 132.304 50.8626 148.716 80.0664C155.331 91.8376 136.7 117.563 136.7 117.563L145.492 113.957C145.492 113.957 142.85 130.02 138.458 141.899C131.421 160.935 107.687 183.001 107.687 183.001H80.1036C80.1036 183.001 52.4179 162.44 44.825 139.736C41.379 129.432 40.1361 113.957 40.1361 113.957L48.928 117.563C48.928 117.563 33.9817 107.468 37.2055 75.0188Z" fill="#FED9BB"/>
</g>
<path d="M37.2055 75.0188C40.226 44.6159 87.7587 22.0192 87.7587 22.0192L69.8819 58.0734C69.8819 58.0734 83.3074 50.024 90.6893 42.2096C98.0712 34.3951 109.445 18.4138 109.445 18.4138C109.445 18.4138 132.304 50.8626 148.716 80.0664C155.331 91.8376 136.7 117.563 136.7 117.563L145.492 113.957C145.492 113.957 142.85 130.02 138.458 141.899C131.421 160.935 107.687 183.001 107.687 183.001H80.1036C80.1036 183.001 52.4179 162.44 44.825 139.736C41.379 129.432 40.1361 113.957 40.1361 113.957L48.928 117.563C48.928 117.563 33.9817 107.468 37.2055 75.0188Z" stroke="black"/>
<g filter="url(#filter3_n_639_86)">
<path d="M120.589 90.5307C110.997 92.4902 103.227 96.4157 103.227 96.4157C103.227 96.4157 99.6104 90.0304 117.993 85.48C131.796 82.0633 142.866 87.6943 142.866 87.6943C142.866 87.6943 130.18 88.5712 120.589 90.5307Z" fill="black"/>
<path d="M120.589 90.5307C110.997 92.4902 103.227 96.4157 103.227 96.4157C103.227 96.4157 99.6104 90.0304 117.993 85.48C131.796 82.0633 142.866 87.6943 142.866 87.6943C142.866 87.6943 130.18 88.5712 120.589 90.5307Z" stroke="#1A283E"/>
</g>
<g filter="url(#filter4_n_639_86)">
<path d="M62.7625 92.3777C72.3543 94.3372 80.1243 98.2627 80.1243 98.2627C80.1243 98.2627 83.7407 91.8775 65.3581 87.3271C51.5554 83.9104 40.4851 89.5414 40.4851 89.5414C40.4851 89.5414 53.1707 90.4182 62.7625 92.3777Z" fill="black"/>
<path d="M62.7625 92.3777C72.3543 94.3372 80.1243 98.2627 80.1243 98.2627C80.1243 98.2627 83.7407 91.8775 65.3581 87.3271C51.5554 83.9104 40.4851 89.5414 40.4851 89.5414C40.4851 89.5414 53.1707 90.4182 62.7625 92.3777Z" stroke="#1A283E"/>
</g>
<g filter="url(#filter5_n_639_86)">
<path d="M69.7416 86.7498L83.3054 65.1145C83.3054 65.1145 45.2837 83.5099 41.8619 106.447C39.3035 123.597 51.7332 133.096 51.7332 133.096L41.8619 132.04L52.5336 159.084V166.208L45.8638 156.71L44.2631 163.834L32.791 148.794L28.7892 159.084V150.641C28.7892 150.641 12.0401 135.728 9.84698 122.806C8.17126 112.932 13.8488 97.4764 13.8488 97.4764C13.8488 97.4764 3.71079 70.0365 15.7164 49.3246C29.4164 25.6896 43.1771 11.6825 69.7416 4.47086C110.561 -6.61055 120.432 12.3862 120.432 12.3862C120.432 12.3862 141.543 14.3664 151.246 23.4678C163.393 34.861 168.855 65.815 168.855 65.815C168.855 65.815 183.035 103.524 175.524 119.903C163.355 146.445 163.93 152.243 164.562 153.48L164.853 153.807C164.853 153.807 164.706 153.762 164.562 153.48L157.116 145.101C157.116 145.101 154.606 153.052 151.246 156.71C147.886 160.368 139.908 163.834 139.908 163.834L141.775 156.71L130.303 167.527V156.71L138.307 130.193L130.909 132.876C130.525 133.028 130.303 133.096 130.303 133.096L130.909 132.876C134.406 131.491 151.407 123.073 138.307 94.3103C130.916 78.0814 107.85 62.476 107.85 62.476C107.85 62.476 98.9702 70.4895 91.8853 76.105C84.8005 81.7206 69.7416 86.7498 69.7416 86.7498Z" fill="url(#paint0_linear_639_86)"/>
<path d="M69.7416 86.7498L83.3054 65.1145C83.3054 65.1145 45.2837 83.5099 41.8619 106.447C39.3035 123.597 51.7332 133.096 51.7332 133.096L41.8619 132.04L52.5336 159.084V166.208L45.8638 156.71L44.2631 163.834L32.791 148.794L28.7892 159.084V150.641C28.7892 150.641 12.0401 135.728 9.84698 122.806C8.17126 112.932 13.8488 97.4764 13.8488 97.4764C13.8488 97.4764 3.71079 70.0365 15.7164 49.3246C29.4164 25.6896 43.1771 11.6825 69.7416 4.47086C110.561 -6.61055 120.432 12.3862 120.432 12.3862C120.432 12.3862 141.543 14.3664 151.246 23.4678C163.393 34.861 168.855 65.815 168.855 65.815C168.855 65.815 183.035 103.524 175.524 119.903C163.355 146.445 163.93 152.243 164.562 153.48L164.853 153.807C164.853 153.807 164.706 153.762 164.562 153.48L157.116 145.101C157.116 145.101 154.606 153.052 151.246 156.71C147.886 160.368 139.908 163.834 139.908 163.834L141.775 156.71L130.303 167.527V156.71L138.307 130.193L130.909 132.876C130.525 133.028 130.303 133.096 130.303 133.096L130.909 132.876C134.406 131.491 151.407 123.073 138.307 94.3103C130.916 78.0814 107.85 62.476 107.85 62.476C107.85 62.476 98.9702 70.4895 91.8853 76.105C84.8005 81.7206 69.7416 86.7498 69.7416 86.7498Z" stroke="black"/>
</g>
<path d="M85.3336 119.071C85.3336 119.071 79.3473 127.484 81.5985 129.097C83.0328 130.125 85.3336 130.02 85.3336 130.02C85.3336 130.02 88.193 133.14 90.6694 133.714C92.191 134.067 93.1522 134.077 94.6713 133.714C97.1024 133.133 99.8738 130.02 99.8738 130.02C99.8738 130.02 101.569 130.39 102.542 130.02C105.07 129.059 99.3123 118.411 99.3123 118.411" stroke="black"/>
<path d="M104.648 66.4337L111.452 73.4256L107.85 82.1325L118.522 88.7287L120.523 99.1506L126.259 120.918C126.259 120.918 131.442 125.435 129.994 128.174C125.458 136.749 128.926 139.123 128.926 139.123" stroke="black" stroke-width="2"/>
<path d="M127.904 92.3785C123.963 93.1552 120.704 99.1418 120.704 99.1418C120.704 99.1418 112.623 95.3315 108.803 97.924C104.984 100.517 104.552 105.326 107.08 108.848C109.607 112.37 126.005 120.732 126.005 120.732C126.005 120.732 136.066 108.518 136.925 100.556C137.418 95.9867 133.542 91.2676 127.904 92.3785Z" fill="#272525" stroke="black"/>
<path d="M105.182 71.0512L109.05 67.7532" stroke="black" stroke-width="2"/>
<path d="M104.248 77.1192L115.975 76.8689" stroke="black" stroke-width="2"/>
<path d="M106.572 85.7832L115.531 81.5158" stroke="black" stroke-width="2"/>
<path d="M122.314 123.734L129.611 119.548" stroke="black" stroke-width="2"/>
<path d="M127.866 126.199L132.667 123.16" stroke="black" stroke-width="2"/>
<path d="M77.0352 159.571C77.0352 159.571 87.8502 156.162 94.5183 155.897C101.186 155.631 111.184 158.21 111.184 158.21" stroke="black" stroke-width="2"/>
<path d="M85.0391 165.64C85.0391 165.64 90.7846 162.231 94.327 161.965C97.8694 161.699 103.181 164.279 103.181 164.279" stroke="black" stroke-width="2"/>
<path d="M49.4228 100.734C49.4228 100.734 54.2104 108.118 59.8078 110.142C66.1072 112.42 78.0654 108.173 78.0654 108.173L76.3769 103.225L52.3374 99.0225L49.4228 100.734Z" fill="white"/>
<path d="M52.3374 99.0225L56.9578 95.9092L74.954 99.0553L76.3769 103.225M52.3374 99.0225L49.4228 100.734C49.4228 100.734 54.2104 108.118 59.8078 110.142C66.1072 112.42 78.0654 108.173 78.0654 108.173L76.3769 103.225M52.3374 99.0225L76.3769 103.225" stroke="#9D6256" stroke-width="2"/>
<path d="M63.5625 102.817C65.9455 102.817 67.7314 104.44 67.7314 106.275C67.7312 108.11 65.9454 109.732 63.5625 109.732C61.1796 109.732 59.3938 108.11 59.3936 106.275C59.3936 104.44 61.1795 102.817 63.5625 102.817Z" fill="#6AB3BC" stroke="black"/>
<path d="M64.7637 104.4C65.8188 104.4 66.6641 105.245 66.6641 106.275C66.6638 107.305 65.8186 108.149 64.7637 108.149C63.7086 108.149 62.8625 107.305 62.8623 106.275C62.8623 105.245 63.7085 104.4 64.7637 104.4Z" fill="black"/>
<path d="M64.7637 104.4C65.8188 104.4 66.6641 105.245 66.6641 106.275C66.6638 107.305 65.8186 108.149 64.7637 108.149C63.7086 108.149 62.8625 107.305 62.8623 106.275C62.8623 105.245 63.7085 104.4 64.7637 104.4Z" fill="black"/>
<path d="M64.7637 104.4C65.8188 104.4 66.6641 105.245 66.6641 106.275C66.6638 107.305 65.8186 108.149 64.7637 108.149C63.7086 108.149 62.8625 107.305 62.8623 106.275C62.8623 105.245 63.7085 104.4 64.7637 104.4Z" fill="black"/>
<path d="M64.7637 104.4C65.8188 104.4 66.6641 105.245 66.6641 106.275C66.6638 107.305 65.8186 108.149 64.7637 108.149C63.7086 108.149 62.8625 107.305 62.8623 106.275C62.8623 105.245 63.7085 104.4 64.7637 104.4Z" stroke="black"/>
<path d="M65.2964 104.4C65.9516 104.4 66.397 104.871 66.397 105.351C66.397 105.831 65.9516 106.302 65.2964 106.302C64.6413 106.302 64.1958 105.831 64.1958 105.351C64.1958 104.871 64.6413 104.4 65.2964 104.4Z" fill="black"/>
<path d="M65.2964 104.4C65.9516 104.4 66.397 104.871 66.397 105.351C66.397 105.831 65.9516 106.302 65.2964 106.302C64.6413 106.302 64.1958 105.831 64.1958 105.351C64.1958 104.871 64.6413 104.4 65.2964 104.4Z" fill="black"/>
<path d="M65.2964 104.4C65.9516 104.4 66.397 104.871 66.397 105.351C66.397 105.831 65.9516 106.302 65.2964 106.302C64.6413 106.302 64.1958 105.831 64.1958 105.351C64.1958 104.871 64.6413 104.4 65.2964 104.4Z" fill="white"/>
<path d="M65.2964 104.4C65.9516 104.4 66.397 104.871 66.397 105.351C66.397 105.831 65.9516 106.302 65.2964 106.302C64.6413 106.302 64.1958 105.831 64.1958 105.351C64.1958 104.871 64.6413 104.4 65.2964 104.4Z" stroke="black"/>
<defs>
<filter id="filter0_i_639_86" x="1.33398" y="138.255" width="184.666" height="79.7449" filterUnits="userSpaceOnUse" color-interpolation-filters="sRGB">
<feFlood flood-opacity="0" result="BackgroundImageFix"/>
<feBlend mode="normal" in="SourceGraphic" in2="BackgroundImageFix" result="shape"/>
<feColorMatrix in="SourceAlpha" type="matrix" values="0 0 0 0 0 0 0 0 0 0 0 0 0 0 0 0 0 0 127 0" result="hardAlpha"/>
<feOffset dy="4"/>
<feGaussianBlur stdDeviation="2"/>
<feComposite in2="hardAlpha" operator="arithmetic" k2="-1" k3="1"/>
<feColorMatrix type="matrix" values="0 0 0 0 0 0 0 0 0 0 0 0 0 0 0 0 0 0 0.25 0"/>
<feBlend mode="normal" in2="shape" result="effect1_innerShadow_639_86"/>
</filter>
<filter id="filter1_i_639_86" x="0" y="131.395" width="184.666" height="79.7449" filterUnits="userSpaceOnUse" color-interpolation-filters="sRGB">
<feFlood flood-opacity="0" result="BackgroundImageFix"/>
<feBlend mode="normal" in="SourceGraphic" in2="BackgroundImageFix" result="shape"/>
<feColorMatrix in="SourceAlpha" type="matrix" values="0 0 0 0 0 0 0 0 0 0 0 0 0 0 0 0 0 0 127 0" result="hardAlpha"/>
<feOffset dy="4"/>
<feGaussianBlur stdDeviation="2"/>
<feComposite in2="hardAlpha" operator="arithmetic" k2="-1" k3="1"/>
<feColorMatrix type="matrix" values="0 0 0 0 0 0 0 0 0 0 0 0 0 0 0 0 0 0 0.25 0"/>
<feBlend mode="normal" in2="shape" result="effect1_innerShadow_639_86"/>
</filter>
<filter id="filter2_i_639_86" x="36.25" y="17.5486" width="114.386" height="175.952" filterUnits="userSpaceOnUse" color-interpolation-filters="sRGB">
<feFlood flood-opacity="0" result="BackgroundImageFix"/>
<feBlend mode="normal" in="SourceGraphic" in2="BackgroundImageFix" result="shape"/>
<feColorMatrix in="SourceAlpha" type="matrix" values="0 0 0 0 0 0 0 0 0 0 0 0 0 0 0 0 0 0 127 0" result="hardAlpha"/>
<feOffset dy="10"/>
<feGaussianBlur stdDeviation="5"/>
<feComposite in2="hardAlpha" operator="arithmetic" k2="-1" k3="1"/>
<feColorMatrix type="matrix" values="0 0 0 0 0 0 0 0 0 0 0 0 0 0 0 0 0 0 0.25 0"/>
<feBlend mode="normal" in2="shape" result="effect1_innerShadow_639_86"/>
</filter>
<filter id="filter3_n_639_86" x="102.438" y="83.8806" width="42.2622" height="13.1964" filterUnits="userSpaceOnUse" color-interpolation-filters="sRGB">
<feFlood flood-opacity="0" result="BackgroundImageFix"/>
<feBlend mode="normal" in="SourceGraphic" in2="BackgroundImageFix" result="shape"/>
<feTurbulence type="fractalNoise" baseFrequency="0.25 0.25" stitchTiles="stitch" numOctaves="3" result="noise" seed="5021" />
<feColorMatrix in="noise" type="luminanceToAlpha" result="alphaNoise" />
<feComponentTransfer in="alphaNoise" result="coloredNoise1">
<feFuncA type="discrete" tableValues="1 1 1 1 1 1 1 1 1 1 1 1 1 1 1 1 1 1 1 1 1 1 1 1 1 1 1 1 1 1 1 1 1 1 1 1 1 1 1 1 1 1 1 1 1 1 1 1 1 1 1 0 0 0 0 0 0 0 0 0 0 0 0 0 0 0 0 0 0 0 0 0 0 0 0 0 0 0 0 0 0 0 0 0 0 0 0 0 0 0 0 0 0 0 0 0 0 0 0 0 "/>
</feComponentTransfer>
<feComposite operator="in" in2="shape" in="coloredNoise1" result="noise1Clipped" />
<feFlood flood-color="rgba(0, 0, 0, 0.25)" result="color1Flood" />
<feComposite operator="in" in2="noise1Clipped" in="color1Flood" result="color1" />
<feMerge result="effect1_noise_639_86">
<feMergeNode in="shape" />
<feMergeNode in="color1" />
</feMerge>
</filter>
<filter id="filter4_n_639_86" x="38.6514" y="85.7277" width="42.2622" height="13.1964" filterUnits="userSpaceOnUse" color-interpolation-filters="sRGB">
<feFlood flood-opacity="0" result="BackgroundImageFix"/>
<feBlend mode="normal" in="SourceGraphic" in2="BackgroundImageFix" result="shape"/>
<feTurbulence type="fractalNoise" baseFrequency="0.25 0.25" stitchTiles="stitch" numOctaves="3" result="noise" seed="5021" />
<feColorMatrix in="noise" type="luminanceToAlpha" result="alphaNoise" />
<feComponentTransfer in="alphaNoise" result="coloredNoise1">
<feFuncA type="discrete" tableValues="1 1 1 1 1 1 1 1 1 1 1 1 1 1 1 1 1 1 1 1 1 1 1 1 1 1 1 1 1 1 1 1 1 1 1 1 1 1 1 1 1 1 1 1 1 1 1 1 1 1 1 0 0 0 0 0 0 0 0 0 0 0 0 0 0 0 0 0 0 0 0 0 0 0 0 0 0 0 0 0 0 0 0 0 0 0 0 0 0 0 0 0 0 0 0 0 0 0 0 0 "/>
</feComponentTransfer>
<feComposite operator="in" in2="shape" in="coloredNoise1" result="noise1Clipped" />
<feFlood flood-color="rgba(0, 0, 0, 0.25)" result="color1Flood" />
<feComposite operator="in" in2="noise1Clipped" in="color1Flood" result="color1" />
<feMerge result="effect1_noise_639_86">
<feMergeNode in="shape" />
<feMergeNode in="color1" />
</feMerge>
</filter>
<filter id="filter5_n_639_86" x="9.0376" y="0.5" width="169.181" height="168.186" filterUnits="userSpaceOnUse" color-interpolation-filters="sRGB">
<feFlood flood-opacity="0" result="BackgroundImageFix"/>
<feBlend mode="normal" in="SourceGraphic" in2="BackgroundImageFix" result="shape"/>
<feTurbulence type="fractalNoise" baseFrequency="2 2" stitchTiles="stitch" numOctaves="3" result="noise" seed="9916" />
<feColorMatrix in="noise" type="luminanceToAlpha" result="alphaNoise" />
<feComponentTransfer in="alphaNoise" result="coloredNoise1">
<feFuncA type="discrete" tableValues="1 1 1 1 1 1 1 1 1 1 1 1 1 1 1 1 1 1 1 1 1 1 1 1 1 1 1 1 1 1 1 1 1 1 1 1 1 1 1 1 1 1 1 1 1 1 1 1 1 1 1 0 0 0 0 0 0 0 0 0 0 0 0 0 0 0 0 0 0 0 0 0 0 0 0 0 0 0 0 0 0 0 0 0 0 0 0 0 0 0 0 0 0 0 0 0 0 0 0 0 "/>
</feComponentTransfer>
<feComposite operator="in" in2="shape" in="coloredNoise1" result="noise1Clipped" />
<feFlood flood-color="rgba(0, 0, 0, 0.25)" result="color1Flood" />
<feComposite operator="in" in2="noise1Clipped" in="color1Flood" result="color1" />
<feMerge result="effect1_noise_639_86">
<feMergeNode in="shape" />
<feMergeNode in="color1" />
</feMerge>
</filter>
<linearGradient id="paint0_linear_639_86" x1="93.628" y1="1" x2="93.628" y2="167.527" gradientUnits="userSpaceOnUse">
<stop/>
<stop offset="1" stop-color="#313131"/>
</linearGradient>
</defs>
</svg>
