<svg width="153" height="197" viewBox="0 0 153 197" fill="none" xmlns="http://www.w3.org/2000/svg">
<g filter="url(#filter0_i_459_23)">
<path d="M75.0026 195.632C75.0026 195.632 60.4117 185.245 66.0352 180.504C71.0669 176.263 80.966 178.005 84.442 183.152C87.4208 187.562 80.6662 195.632 80.6662 195.632H103.321C103.321 195.632 98.4257 185.076 91.9935 180.504C86.4435 176.56 75.0026 173.697 75.0026 173.697C75.0026 173.697 63.365 174.107 58.4837 177.857C52.1167 182.748 54.236 195.632 54.236 195.632H75.0026Z" fill="#3D3F05"/>
</g>
<path d="M75.0026 195.632C75.0026 195.632 60.4117 185.245 66.0352 180.504C71.0669 176.263 80.966 178.005 84.442 183.152C87.4208 187.562 80.6662 195.632 80.6662 195.632H103.321C103.321 195.632 98.4257 185.076 91.9935 180.504C86.4435 176.56 75.0026 173.697 75.0026 173.697C75.0026 173.697 63.365 174.107 58.4837 177.857C52.1167 182.748 54.236 195.632 54.236 195.632H75.0026Z" stroke="#191802"/>
<g filter="url(#filter1_i_459_23)">
<path d="M110.333 120.107L83.6288 179.485C83.6288 179.485 82.9391 182.697 85.8966 185.799C88.854 188.901 83.6288 195.37 83.6288 195.37H73.1422C73.1422 195.37 63.0397 186.071 64.4972 182.017C66.4874 176.482 67.6858 175.703 67.6858 175.703L64.4972 168.517L52.9385 144.69C52.9385 144.69 48.7875 141.626 46.9599 139.017C42.6307 132.836 44.967 120.107 44.967 120.107C44.967 120.107 39.4695 102.023 32.6112 92.1195C14.9826 66.6643 26.234 60.3503 26.234 60.3503C26.234 60.3503 8.67272 50.1969 5.9074 41.0618C2.34688 29.2998 9.54887 21.5635 19.8569 14.2092C33.4456 4.51433 64.4972 17.2348 64.4972 17.2348C64.4972 17.2348 72.6478 7.66578 80.4402 6.64509C91.217 5.23349 108.739 17.2348 108.739 17.2348C108.739 17.2348 128.898 25.4646 137.038 33.4977C147.002 43.331 158.561 96.6787 133.451 114.434C125.616 119.973 110.333 120.107 110.333 120.107Z" fill="#6F9C07"/>
</g>
<path d="M110.333 120.107L83.6288 179.485C83.6288 179.485 82.9391 182.697 85.8966 185.799C88.854 188.901 83.6288 195.37 83.6288 195.37H73.1422C73.1422 195.37 63.0397 186.071 64.4972 182.017C66.4874 176.482 67.6858 175.703 67.6858 175.703L64.4972 168.517L52.9385 144.69C52.9385 144.69 48.7875 141.626 46.9599 139.017C42.6307 132.836 44.967 120.107 44.967 120.107C44.967 120.107 39.4695 102.023 32.6112 92.1195C14.9826 66.6643 26.234 60.3503 26.234 60.3503C26.234 60.3503 8.67272 50.1969 5.9074 41.0618C2.34688 29.2998 9.54887 21.5635 19.8569 14.2092C33.4456 4.51433 64.4972 17.2348 64.4972 17.2348C64.4972 17.2348 72.6478 7.66578 80.4402 6.64509C91.217 5.23349 108.739 17.2348 108.739 17.2348C108.739 17.2348 128.898 25.4646 137.038 33.4977C147.002 43.331 158.561 96.6787 133.451 114.434C125.616 119.973 110.333 120.107 110.333 120.107Z" stroke="black" stroke-linecap="round"/>
<g filter="url(#filter2_n_459_23)">
<path d="M86.0743 37.4804C83.3116 37.5484 77.4583 43.1018 75.619 40.7294C73.6323 38.1667 79.8933 33.8255 84.512 33.2946C97.3529 31.8186 104.509 46.0183 104.509 46.0183C104.509 46.0183 95.0011 37.2608 86.0743 37.4804Z" fill="#1E0700"/>
</g>
<path d="M96.0174 40.6034C87.3441 38.3698 80.3702 45.9551 77.8527 53.6049C75.5099 60.7238 76.1745 68.8351 83.9568 71.5972C92.6373 74.6781 100.938 66.7914 103.465 58.8311C105.803 51.4653 104.348 42.7487 96.0174 40.6034Z" fill="#DDD7D3" stroke="black"/>
<path d="M48.4308 77.6322C48.4308 77.6322 57.4976 67.2872 65.5695 67.0424C76.4607 66.7122 86.562 81.9575 86.562 81.9575" stroke="black"/>
<path d="M82.0503 75.8381C82.0503 75.8381 87.6923 79.455 91.8567 80.4092C100.125 82.3037 115.648 77.5718 115.648 77.5718C115.648 77.5718 115.781 81.5054 115.632 85.4431C115.482 89.3807 112.446 96.3069 112.446 96.3069" stroke="black"/>
<path d="M128.431 71.4061C136.078 98.3023 117.469 101.584 111.804 119.235C111.804 119.235 136.444 131.002 147.491 92.3389C154.942 66.2594 154.698 46.7665 135.228 27.6999C126.978 19.6208 124.199 19.2859 113.561 12.5709C107.236 8.57837 102.311 2.58132 94.8676 1.64432C71.5005 -1.29734 61.7288 12.5709 61.7288 12.5709C61.7288 12.5709 26.5089 -9.70247 6.07173 18.0341C-12.1978 42.829 24.7656 60.0593 24.7656 60.0593C24.7656 60.0593 28.6594 52.7112 31.563 51.2341C34.4667 49.7571 39.6363 52.4948 39.6363 52.4948C39.6363 52.4948 42.3019 44.1133 44.7346 39.0467C52.8058 22.2368 71.5005 27.6999 71.5005 27.6999C91.0428 52.4948 112.71 53.3354 128.431 71.4061Z" fill="#181800" stroke="black" stroke-linecap="round"/>
<path d="M82.3091 12.5809C82.3091 12.5809 105.927 32.4291 114.594 42.8374C122.319 52.1152 128.544 70.0682 128.544 70.0682" stroke="black" stroke-linecap="round"/>
<path d="M91.0781 1.23474C91.0781 1.23474 105.825 11.0681 113.831 18.2739C118.671 22.6298 121.768 32.2476 121.768 32.2476" stroke="black" stroke-linecap="round"/>
<path d="M61.5835 12.5809C61.5835 12.5809 79.4428 17.271 87.3037 20.7425C94.3109 23.8368 104.341 32.1983 104.341 32.1983" stroke="black" stroke-linecap="round"/>
<path d="M40.0605 16.085C40.0605 16.085 56.9629 16.4405 63.975 21.2797C68.3594 24.3053 78.3237 34.8951 78.3237 34.8951" stroke="black" stroke-linecap="round"/>
<path d="M47.0286 42.9671C39.3156 40.8621 33.5792 48.5264 31.7519 56.1918C30.0514 63.3253 31.0362 71.406 37.9944 74.0507C45.7557 77.0006 52.6401 69.0171 54.4602 61.0418C56.1443 53.6621 54.4368 44.9888 47.0286 42.9671Z" fill="#DDD7D3" stroke="black"/>
<g filter="url(#filter3_n_459_23)">
<path d="M48.4014 39.8808C51.1277 40.3103 56.1164 46.5777 58.2835 44.469C60.6242 42.1914 55.0551 37.0711 50.558 35.9399C38.055 32.7949 28.9003 45.9204 28.9003 45.9204C28.9003 45.9204 39.5921 38.4932 48.4014 39.8808Z" fill="#1E0700"/>
</g>
<path d="M97.7052 99.19C101.544 89.821 114.993 77.6323 114.993 77.6323C114.993 77.6323 89.8352 92.7605 65.9678 102.594C59.0733 105.434 49.1026 102.594 49.1026 102.594C49.1026 102.594 45.6312 133.229 63.423 133.229C83.7176 133.229 91.196 115.075 97.7052 99.19Z" fill="#6B0404" stroke="black"/>
<g filter="url(#filter4_i_459_23)">
<path d="M80.7726 107.671C81.4565 108.665 81.1454 109.823 80.4657 110.899C83.3831 108.395 87.4041 105.911 89.8856 108.428C93.9858 112.586 88.2661 117.197 85.7149 121.882C80.7726 130.959 69.2249 132.094 69.2249 132.094C69.2249 132.094 62.2809 121.471 63.8479 115.614C65.6307 108.95 78.1687 103.889 80.7726 107.671Z" fill="#A24041"/>
</g>
<path d="M80.7726 107.671C81.4565 108.665 81.1454 109.823 80.4657 110.899C83.3831 108.395 87.4041 105.911 89.8856 108.428C93.9858 112.586 88.2661 117.197 85.7149 121.882C80.7726 130.959 69.2249 132.094 69.2249 132.094C69.2249 132.094 62.2809 121.471 63.8479 115.614C65.6307 108.95 78.1687 103.889 80.7726 107.671Z" stroke="#370A0A"/>
<path d="M112.202 79.5234C112.202 79.5234 92.6914 90.479 87.156 93.603C62.4841 107.527 49.4538 103.895 47.6333 99.9465C42.0533 87.8438 34.8789 79.5233 34.8789 79.5233" stroke="black"/>
<path d="M102.637 116.966C102.637 116.966 80.7151 169.914 72.7436 168.023C59.9892 164.998 54.4092 146.088 54.4092 146.088" stroke="black"/>
<ellipse cx="5.96124" cy="4.55308" rx="5.96124" ry="4.55308" transform="matrix(0.973246 0.229768 -0.253626 0.967302 36.6089 64.2943)" fill="#151515"/>
<ellipse cx="6.31524" cy="3.82245" rx="6.31524" ry="3.82245" transform="matrix(0.906504 0.422198 -0.459437 0.88821 80.7319 61.7375)" fill="#151515"/>
<path d="M53.6118 144.953C53.6118 144.953 62.0363 147.168 67.5619 144.953C73.0876 142.737 77.9249 140.036 77.9249 140.036" stroke="black"/>
<defs>
<filter id="filter0_i_459_23" x="53.3975" y="173.194" width="50.7061" height="26.9381" filterUnits="userSpaceOnUse" color-interpolation-filters="sRGB">
<feFlood flood-opacity="0" result="BackgroundImageFix"/>
<feBlend mode="normal" in="SourceGraphic" in2="BackgroundImageFix" result="shape"/>
<feColorMatrix in="SourceAlpha" type="matrix" values="0 0 0 0 0 0 0 0 0 0 0 0 0 0 0 0 0 0 127 0" result="hardAlpha"/>
<feOffset dy="4"/>
<feGaussianBlur stdDeviation="2"/>
<feComposite in2="hardAlpha" operator="arithmetic" k2="-1" k3="1"/>
<feColorMatrix type="matrix" values="0 0 0 0 0 0 0 0 0 0 0 0 0 0 0 0 0 0 0.25 0"/>
<feBlend mode="normal" in2="shape" result="effect1_innerShadow_459_23"/>
</filter>
<filter id="filter1_i_459_23" x="4.48584" y="6.02966" width="144.575" height="193.84" filterUnits="userSpaceOnUse" color-interpolation-filters="sRGB">
<feFlood flood-opacity="0" result="BackgroundImageFix"/>
<feBlend mode="normal" in="SourceGraphic" in2="BackgroundImageFix" result="shape"/>
<feColorMatrix in="SourceAlpha" type="matrix" values="0 0 0 0 0 0 0 0 0 0 0 0 0 0 0 0 0 0 127 0" result="hardAlpha"/>
<feOffset dy="4"/>
<feGaussianBlur stdDeviation="2"/>
<feComposite in2="hardAlpha" operator="arithmetic" k2="-1" k3="1"/>
<feColorMatrix type="matrix" values="0 0 0 0 0 0 0 0 0 0 0 0 0 0 0 0 0 0 0.25 0"/>
<feBlend mode="normal" in2="shape" result="effect1_innerShadow_459_23"/>
</filter>
<filter id="filter2_n_459_23" x="75.2407" y="33.187" width="29.2686" height="12.8312" filterUnits="userSpaceOnUse" color-interpolation-filters="sRGB">
<feFlood flood-opacity="0" result="BackgroundImageFix"/>
<feBlend mode="normal" in="SourceGraphic" in2="BackgroundImageFix" result="shape"/>
<feTurbulence type="fractalNoise" baseFrequency="0.25 0.25" stitchTiles="stitch" numOctaves="3" result="noise" seed="6770" />
<feColorMatrix in="noise" type="luminanceToAlpha" result="alphaNoise" />
<feComponentTransfer in="alphaNoise" result="coloredNoise1">
<feFuncA type="discrete" tableValues="1 1 1 1 1 1 1 1 1 1 1 1 1 1 1 1 1 1 1 1 1 1 1 1 1 1 1 1 1 1 1 1 1 1 1 1 1 1 1 1 1 1 1 1 1 1 1 1 1 1 1 0 0 0 0 0 0 0 0 0 0 0 0 0 0 0 0 0 0 0 0 0 0 0 0 0 0 0 0 0 0 0 0 0 0 0 0 0 0 0 0 0 0 0 0 0 0 0 0 0 "/>
</feComponentTransfer>
<feComposite operator="in" in2="shape" in="coloredNoise1" result="noise1Clipped" />
<feFlood flood-color="rgba(0, 0, 0, 0.25)" result="color1Flood" />
<feComposite operator="in" in2="noise1Clipped" in="color1Flood" result="color1" />
<feMerge result="effect1_noise_459_23">
<feMergeNode in="shape" />
<feMergeNode in="color1" />
</feMerge>
</filter>
<filter id="filter3_n_459_23" x="28.9004" y="35.4532" width="29.936" height="10.4673" filterUnits="userSpaceOnUse" color-interpolation-filters="sRGB">
<feFlood flood-opacity="0" result="BackgroundImageFix"/>
<feBlend mode="normal" in="SourceGraphic" in2="BackgroundImageFix" result="shape"/>
<feTurbulence type="fractalNoise" baseFrequency="0.25 0.25" stitchTiles="stitch" numOctaves="3" result="noise" seed="6770" />
<feColorMatrix in="noise" type="luminanceToAlpha" result="alphaNoise" />
<feComponentTransfer in="alphaNoise" result="coloredNoise1">
<feFuncA type="discrete" tableValues="1 1 1 1 1 1 1 1 1 1 1 1 1 1 1 1 1 1 1 1 1 1 1 1 1 1 1 1 1 1 1 1 1 1 1 1 1 1 1 1 1 1 1 1 1 1 1 1 1 1 1 0 0 0 0 0 0 0 0 0 0 0 0 0 0 0 0 0 0 0 0 0 0 0 0 0 0 0 0 0 0 0 0 0 0 0 0 0 0 0 0 0 0 0 0 0 0 0 0 0 "/>
</feComponentTransfer>
<feComposite operator="in" in2="shape" in="coloredNoise1" result="noise1Clipped" />
<feFlood flood-color="rgba(0, 0, 0, 0.25)" result="color1Flood" />
<feComposite operator="in" in2="noise1Clipped" in="color1Flood" result="color1" />
<feMerge result="effect1_noise_459_23">
<feMergeNode in="shape" />
<feMergeNode in="color1" />
</feMerge>
</filter>
<filter id="filter4_i_459_23" x="63.1177" y="105.876" width="28.7046" height="30.7451" filterUnits="userSpaceOnUse" color-interpolation-filters="sRGB">
<feFlood flood-opacity="0" result="BackgroundImageFix"/>
<feBlend mode="normal" in="SourceGraphic" in2="BackgroundImageFix" result="shape"/>
<feColorMatrix in="SourceAlpha" type="matrix" values="0 0 0 0 0 0 0 0 0 0 0 0 0 0 0 0 0 0 127 0" result="hardAlpha"/>
<feOffset dy="4"/>
<feGaussianBlur stdDeviation="2"/>
<feComposite in2="hardAlpha" operator="arithmetic" k2="-1" k3="1"/>
<feColorMatrix type="matrix" values="0 0 0 0 0 0 0 0 0 0 0 0 0 0 0 0 0 0 0.25 0"/>
<feBlend mode="normal" in2="shape" result="effect1_innerShadow_459_23"/>
</filter>
</defs>
</svg>
