<svg width="149" height="189" viewBox="0 0 149 189" fill="none" xmlns="http://www.w3.org/2000/svg">
<g filter="url(#filter0_d_420_78)">
<path d="M115.3 179.368L125.43 46.9858L129.601 46.0857L122.927 176.975L115.3 179.368Z" fill="#853003" stroke="black"/>
<path d="M143.07 41.1081C142.644 40.4804 144.957 45.0494 143.518 48.7748C138.121 62.7511 114.517 38.6171 105.511 34.823C96.5055 31.0289 93.6952 33.6758 93.6952 33.6758C93.6952 33.6758 84.8425 24.4796 75.6351 23.1266C54.7613 20.0592 50.4832 10.4908 59.4993 5.35115C63.5835 3.02289 67.4303 7.17684 66.9194 10.2475C65.8153 16.8841 58.8464 12.0736 58.8464 12.0736C58.8464 12.0736 58.8527 14.7522 61.0488 16.7265C63.243 18.699 78.8312 6.67779 89.5074 10.3527C95.4906 12.4122 96.8346 22.8392 96.8346 22.8392C96.8346 22.8392 102.858 19.6125 106.95 20.0097C116.993 20.9848 133.826 47.2474 133.826 47.2474C133.826 47.2474 130.743 39.0781 134.757 37.6623C141.063 35.438 144.822 43.6914 143.07 41.1081Z" fill="#B35202" stroke="black"/>
<path d="M41.5349 142.714L68.425 17.1793L125.995 46.7795L115.815 179.679L94.0299 171.3C94.0299 171.3 88.1225 181.668 67.0574 168.681C58.7844 163.581 53.5155 148.314 53.5155 148.314L41.5349 142.714Z" fill="#D17200" stroke="black"/>
<path d="M140.247 43.3254C139.835 42.6991 142.068 47.2603 140.661 50.9887C135.38 64.9764 112.529 40.9154 103.794 37.1477C95.0598 33.3799 92.3234 36.034 92.3234 36.034C92.3234 36.034 83.753 26.8652 74.8161 25.5384C54.5556 22.5306 49.7853 10.359 58.5547 5.19536C62.5271 2.85625 65.9181 6.01508 65.4135 9.08629C64.3227 15.7242 58.8789 10.7974 58.8789 10.7974C58.8789 10.7974 58.769 14.8899 60.896 16.8575C63.0211 18.8233 77.4249 7.614 87.7815 11.2579C93.5856 13.3 95.4024 25.1915 95.4024 25.1915C95.4024 25.1915 101.26 21.9487 105.232 22.3344C114.983 23.281 130.04 47.1724 130.04 47.1724C130.04 47.1724 129.015 41.4017 132.917 39.9751C139.047 37.7336 141.941 45.9031 140.247 43.3254Z" fill="#EAB836" stroke="black"/>
<path d="M108.318 127.797C107.133 97.9291 95.2097 77.7193 95.2097 77.7193L86.5539 65.9174C86.5539 65.9174 56.027 91.6336 57.1894 113.176C58.0529 129.18 61.4529 143.308 76.7775 149.79C98.7459 159.081 108.856 141.386 108.318 127.797Z" fill="url(#paint0_radial_420_78)" stroke="#583000"/>
<path d="M86.7763 80.5544L77.6056 79.664L79.6138 58.9798L86.3569 59.6345C86.3569 59.6345 89.3175 62.2708 90.9732 68.1733C94.2095 79.7101 86.7763 80.5544 86.7763 80.5544Z" fill="#583000" stroke="#583000"/>
<ellipse cx="104.418" cy="165.262" rx="5.14886" ry="4.67582" transform="rotate(5.54521 104.418 165.262)" fill="#F2A809"/>
<path d="M100.095 167.713C100.095 167.713 102.073 165.118 103.683 164.408C105.294 163.698 108.934 163.612 108.934 163.612" stroke="#583000"/>
<ellipse cx="49.3443" cy="137.992" rx="5.14886" ry="4.67582" transform="rotate(5.54521 49.3443 137.992)" fill="#F2A809"/>
<path d="M65.9368 110.111L78.6842 79.769L69.3241 108.874C69.3241 108.874 76.6251 110.487 80.6462 112.844C88.9401 117.706 94.8028 132.488 94.8028 132.488C94.8028 132.488 87.0985 122.767 79.9433 120.084C75.6847 118.486 68.4205 118.182 68.4205 118.182L76.6057 132.026L65.2842 116.833L70.6098 115.263L65.9368 110.111Z" fill="black" stroke="#583000"/>
<path d="M94.4902 62.7937C94.9664 57.61 97.6944 52.2761 103.122 52.4091C108.595 52.5433 110.914 58.255 111.853 63.4354C112.774 68.522 114.104 76.7034 107.631 76.075C100.239 75.3573 93.8389 69.8831 94.4902 62.7937Z" fill="#F6EBBC" stroke="#583000"/>
<path d="M81.7057 53.3565C84.1436 48.7228 84.7581 42.7964 80.0916 40.0996C75.3863 37.3804 70.2925 41.0138 66.6592 44.9125C63.0916 48.7407 57.482 54.9766 63.305 57.7953C69.9548 61.0142 78.3715 59.6938 81.7057 53.3565Z" fill="#F6EBBC" stroke="#583000"/>
<ellipse cx="99.5164" cy="64.3052" rx="4.06489" ry="3.37698" transform="rotate(5.54521 99.5164 64.3052)" fill="#0C0101"/>
<ellipse cx="72.971" cy="46.0685" rx="4.06489" ry="3.37698" transform="rotate(5.54521 72.971 46.0685)" fill="#0C0101"/>
<path d="M102.635 43.3985C99.0438 41.5768 90.0272 44.2624 90.0272 44.2624C90.0272 44.2624 87.9313 35.4946 82.5627 34.2113C77.4567 32.9907 75.0715 37.2658 70.9584 38.7572C67.7318 39.9272 64.0647 39.6539 64.0647 39.6539C64.0647 39.6539 68.411 37.5161 71.2094 36.1717C76.4163 33.6703 77.2881 29.7623 82.8137 31.6258C88.1701 33.4322 91.3069 42.2987 91.3069 42.2987C91.3069 42.2987 98.6264 39.7753 102.905 40.6231C110.651 42.1581 122.274 68.2722 122.274 68.2722C122.274 68.2722 111.544 47.9173 102.635 43.3985Z" fill="#050505" stroke="#583000"/>
<ellipse cx="44.5934" cy="65.8126" rx="34.4683" ry="30.6994" transform="rotate(5.54521 44.5934 65.8126)" fill="url(#paint1_radial_420_78)"/>
<path d="M45.0729 139.926C45.0729 139.926 47.0503 137.331 48.661 136.621C50.2717 135.911 53.9113 135.825 53.9113 135.825" stroke="#583000"/>
</g>
<defs>
<filter id="filter0_d_420_78" x="6.15625" y="3.88397" width="142.339" height="184.502" filterUnits="userSpaceOnUse" color-interpolation-filters="sRGB">
<feFlood flood-opacity="0" result="BackgroundImageFix"/>
<feColorMatrix in="SourceAlpha" type="matrix" values="0 0 0 0 0 0 0 0 0 0 0 0 0 0 0 0 0 0 127 0" result="hardAlpha"/>
<feOffset dy="4"/>
<feGaussianBlur stdDeviation="2"/>
<feComposite in2="hardAlpha" operator="out"/>
<feColorMatrix type="matrix" values="0 0 0 0 0 0 0 0 0 0 0 0 0 0 0 0 0 0 0.25 0"/>
<feBlend mode="normal" in2="BackgroundImageFix" result="effect1_dropShadow_420_78"/>
<feBlend mode="normal" in="SourceGraphic" in2="effect1_dropShadow_420_78" result="shape"/>
</filter>
<radialGradient id="paint0_radial_420_78" cx="0" cy="0" r="1" gradientTransform="matrix(8.31008 53.3879 -32.7204 4.4372 83.8757 108.859)" gradientUnits="userSpaceOnUse">
<stop stop-color="#EAB836"/>
<stop offset="1" stop-color="#CF7B15"/>
</radialGradient>
<radialGradient id="paint1_radial_420_78" cx="0" cy="0" r="1" gradientUnits="userSpaceOnUse" gradientTransform="translate(44.5934 65.8126) rotate(90) scale(30.6994 34.4683)">
<stop offset="0.0625" stop-color="#F6BB15"/>
<stop offset="1" stop-color="#F19E01"/>
</radialGradient>
</defs>
</svg>
