<svg width="276" height="278" viewBox="0 0 276 278" fill="none" xmlns="http://www.w3.org/2000/svg">
<g filter="url(#filter0_d_478_96)">
<path d="M152.931 212.045C137.571 212.045 113.963 217.019 113.963 217.019L159.361 155.362L191.755 148.888L182.898 135.067L192.638 101.227L169.851 108.321C169.851 108.321 207.169 79.7412 234.433 79.7412C248.483 79.7412 258.448 78.4751 267.378 87.1968C276.308 95.9185 272.271 128.825 252.398 155.343C235.639 177.705 203.198 210.988 203.198 210.988L182.898 226.621C182.898 226.621 168.32 212.046 152.931 212.045Z" fill="white"/>
<path d="M182.124 94.3261C182.124 94.3261 271.095 52.6369 271.095 98.5931C271.095 114.158 245.673 125.397 226.124 133.146C206.575 140.896 165.095 143 165.095 143L182.124 94.3261Z" fill="url(#paint0_linear_478_96)"/>
<path d="M28.4842 197.17C17.4186 181.891 4.09766 152.581 4.09766 152.581L76.212 132.206L83.528 206.914L66.4574 234.672C66.4574 234.672 40.3963 213.618 28.4842 197.17Z" fill="url(#paint1_linear_478_96)"/>
<path d="M86.0917 216.43C99.2706 206.697 125.21 202.403 125.21 202.403L162.536 146.233L190.008 143.402L180.751 127.268C180.751 127.268 187.076 125.838 190.008 123.305C194.945 119.04 196.278 113.909 194.786 107.737C193.644 103.015 192.21 98.9572 187.321 97.547C179.739 95.3604 176.272 113.681 176.272 113.681L168.21 89.3383C168.21 89.3383 156.581 68.5191 143.126 66.1278C138.656 65.3333 131.48 66.1278 131.48 66.1278C131.48 66.1278 127.831 63.8453 125.21 63.0141C108.978 57.8682 104.307 99.5283 104.307 99.5283C104.307 99.5283 83.3518 100.821 72.9529 107.737C60.901 115.752 56.8998 123.716 52.0496 136.892C41.2288 166.288 68.1751 216.43 68.1751 216.43L65.7864 235.395C65.7864 235.395 78.0887 222.341 86.0917 216.43Z" fill="url(#paint2_radial_478_96)" stroke="black"/>
<path d="M80.8999 161.211C76.4824 157.443 75.167 147.849 75.167 147.849L102.661 162.392C102.661 162.392 87.2274 166.609 80.8999 161.211Z" fill="#D53939"/>
<path d="M90.3962 131.64C82.6323 129.092 74.5698 133.055 74.5698 133.055L94.2781 144.377L120.854 150.604C120.854 150.604 119.063 142.962 110.702 139.282C106.577 137.467 99.0559 139.282 99.0559 139.282C99.0559 139.282 93.0583 132.513 90.3962 131.64Z" fill="#D53939"/>
<path d="M180.875 53.1934V50.6459C180.875 50.6459 189.67 55.898 194.014 60.5528C198.281 65.1252 202.674 73.8564 202.674 73.8564L198.194 77.8192C198.194 77.8192 194.718 68.0772 190.729 62.8173C187.504 58.5644 180.875 53.1934 180.875 53.1934Z" fill="#D30017" stroke="#551A24" stroke-width="0.7"/>
<path d="M181.473 49.5135L181.476 46.7124C181.476 46.7124 193.938 51.6173 199.094 55.4573C204.157 59.2292 208.948 66.7795 208.948 66.7795L203.871 70.1762C203.871 70.1762 199.833 61.0852 194.913 56.5895C190.935 52.9545 181.473 49.5135 181.473 49.5135Z" fill="#D30017" stroke="#551A24" stroke-width="0.7"/>
<g filter="url(#filter1_n_478_96)">
<path d="M182.367 74.5569C187.311 87.8605 187.445 97.6728 187.445 97.6728C187.445 97.6728 181.43 101.654 179.681 104.749C177.931 107.844 176.096 115.788 176.096 115.788C176.096 115.788 170.182 97.0717 164.151 87.0113C156.686 74.5569 143.249 68.8958 143.249 68.8958L130.408 66.3483C130.408 66.3483 124.685 63.7688 120.853 64.0838C113.377 64.6984 109.208 80.6895 109.208 80.6895C109.208 80.6895 106.852 69.4446 109.208 64.933C112.521 58.5896 118.101 55.3903 125.034 52.7616C133.912 49.3952 148.624 52.7616 148.624 52.7616C148.624 52.7616 149.108 40.9293 154.596 36.9105C159.235 33.5125 164.417 33.3094 169.528 34.9578C169.528 33.8027 170.921 31.4382 171.618 30.4003C174.664 25.8626 181.22 25.1653 185.95 28.1358C189.922 30.6301 191.586 34.5106 190.431 38.892C189.532 42.2986 184.217 45.6853 184.217 45.6853C185.34 47.717 185.952 50.0323 185.95 52.7616C185.945 58.7959 178.186 66.3483 178.186 66.3483C178.186 66.3483 181.119 71.1995 182.367 74.5569Z" fill="#0C1824"/>
<path d="M169.528 34.9578C171.747 35.6736 173.953 36.7386 176.096 38.0427C179.716 40.2466 182.538 42.6492 184.217 45.6853M169.528 34.9578C164.417 33.3094 159.235 33.5125 154.596 36.9105C149.108 40.9293 148.624 52.7616 148.624 52.7616C148.624 52.7616 133.912 49.3952 125.034 52.7616C118.101 55.3903 112.521 58.5896 109.208 64.933C106.852 69.4446 109.208 80.6895 109.208 80.6895C109.208 80.6895 113.377 64.6984 120.853 64.0838C124.685 63.7688 130.408 66.3483 130.408 66.3483L143.249 68.8958C143.249 68.8958 156.686 74.5569 164.151 87.0113C170.182 97.0717 176.096 115.788 176.096 115.788C176.096 115.788 177.931 107.844 179.681 104.749C181.43 101.654 187.445 97.6728 187.445 97.6728C187.445 97.6728 187.311 87.8605 182.367 74.5569C181.119 71.1995 178.186 66.3483 178.186 66.3483C178.186 66.3483 185.945 58.7959 185.95 52.7616C185.952 50.0323 185.34 47.717 184.217 45.6853M169.528 34.9578C169.528 33.8027 170.921 31.4382 171.618 30.4003C174.664 25.8626 181.22 25.1653 185.95 28.1358C189.922 30.6301 191.586 34.5106 190.431 38.892C189.532 42.2986 184.217 45.6853 184.217 45.6853" stroke="#1A283E"/>
</g>
<path d="M122.347 9.35945C122.347 9.35945 127.93 23.3295 129.215 32.287C130.52 41.3781 129.215 55.7806 129.215 55.7806C129.215 55.7806 130.708 59.7434 142.354 61.7248C156.389 64.1126 160.569 59.7434 160.569 59.7434L167.139 32.287L179.979 12.19L167.139 25.4936L162.66 32.287L155.194 16.4358L138.771 29.7395L127.984 16.4358V16.3539L122.347 9.35945Z" fill="url(#paint3_linear_478_96)"/>
<path d="M155.194 16.4358L162.66 32.287L167.139 25.4936L163.854 2.84917L145.042 19.8325L127.984 2V16.3539L138.771 29.7395L155.194 16.4358Z" fill="url(#paint4_linear_478_96)"/>
<path d="M138.771 29.7395L155.194 16.4358L162.66 32.287L167.139 25.4936M138.771 29.7395L127.984 16.4358V16.3539M138.771 29.7395L127.984 16.3539M167.139 25.4936L179.979 12.19L167.139 32.287L160.569 59.7434C160.569 59.7434 156.389 64.1126 142.354 61.7248C130.708 59.7434 129.215 55.7806 129.215 55.7806C129.215 55.7806 130.52 41.3781 129.215 32.287C127.93 23.3295 122.347 9.35945 122.347 9.35945L127.984 16.3539M167.139 25.4936L163.854 2.84917L145.042 19.8325L127.984 2V16.3539" stroke="#1A283E"/>
<g filter="url(#filter2_n_478_96)">
<path d="M142.354 86.4172C136.382 85.5681 131.903 90.0968 131.903 90.0968C131.903 90.0968 136.382 80.0097 143.847 81.3844C150.118 82.539 154 98.5885 154 98.5885C154 98.5885 148.326 87.2664 142.354 86.4172Z" fill="#122030"/>
<path d="M142.354 86.4172C136.382 85.5681 131.903 90.0968 131.903 90.0968C131.903 90.0968 136.382 80.0097 143.847 81.3844C150.118 82.539 154 98.5885 154 98.5885C154 98.5885 148.326 87.2664 142.354 86.4172Z" stroke="#1A283E"/>
</g>
<g filter="url(#filter3_n_478_96)">
<path d="M113.091 79.3366C109.287 79.4993 106.223 86.413 106.223 86.413C106.223 86.413 109.656 74.6395 115.181 75.6568C120.156 76.573 120.257 87.2621 120.257 87.2621C120.257 87.2621 117.048 79.1673 113.091 79.3366Z" fill="#122030"/>
<path d="M113.091 79.3366C109.287 79.4993 106.223 86.413 106.223 86.413C106.223 86.413 109.656 74.6395 115.181 75.6568C120.156 76.573 120.257 87.2621 120.257 87.2621C120.257 87.2621 117.048 79.1673 113.091 79.3366Z" stroke="#1A283E"/>
</g>
<path d="M141.156 95.0567L143.076 94.1333C143.076 94.1333 148.102 99.1862 148.752 101.615C149.776 105.436 148.011 107.518 148.011 107.518C148.011 107.518 145.4 96.222 139.829 96.0472C135.723 95.9183 129.634 100.598 129.634 100.598L130.983 97.0441L130.863 95.6053L132.938 95.8396L132.487 94.6484L134.492 95.4448L134.11 93.6914L136.115 94.4878L136.92 92.8683L138.784 94.789L140.182 93.2365L141.156 95.0567Z" fill="black" stroke="black"/>
<path d="M148.71 106.742C148.008 112.33 143.058 116.366 137.654 115.756C129.945 114.886 127.549 110.021 128.25 104.432C128.952 98.8441 132.783 94.682 140.196 95.5186C145.6 96.1286 149.412 101.153 148.71 106.742Z" fill="url(#paint5_radial_478_96)"/>
<ellipse cx="3.87918" cy="5.3823" rx="3.87918" ry="5.3823" transform="matrix(0.993691 0.112154 -0.124632 0.992203 137.188 100.31)" fill="#282121"/>
<path d="M142.836 103.228C142.719 104.159 141.99 104.843 141.206 104.754C140.089 104.628 139.754 103.825 139.871 102.893C139.988 101.962 140.556 101.26 141.63 101.382C142.413 101.47 142.953 102.297 142.836 103.228Z" fill="url(#paint6_radial_478_96)"/>
<path d="M114.166 86.3443L116.086 85.4208C116.086 85.4208 120.557 90.5964 120.557 93.6431C120.557 97.5856 119.064 99.8703 119.064 99.8703C119.064 99.8703 118.41 87.5096 112.838 87.3347C108.732 87.2058 103.87 93.6431 103.87 93.6431L103.992 88.3317L103.872 86.8929L105.948 87.1271L105.496 85.9359L107.501 86.7323L107.12 84.979L109.125 85.7754L109.93 84.1559L111.793 86.0766L113.191 84.524L114.166 86.3443Z" fill="black" stroke="black"/>
<path d="M119.862 97.7073C119.16 103.296 118.455 107.674 110.374 106.664C103.582 105.815 102.582 101.424 103.284 95.8362C103.986 90.2479 107.198 86.016 113.204 86.6939C117.583 87.1881 120.564 92.119 119.862 97.7073Z" fill="url(#paint7_radial_478_96)"/>
<ellipse cx="3.87918" cy="5.3823" rx="3.87918" ry="5.3823" transform="matrix(0.993691 0.112154 -0.124632 0.992203 111.744 91.9448)" fill="#282121"/>
<path d="M117.76 95.6643C117.643 96.5957 116.913 97.279 116.13 97.1906C115.013 97.0645 114.678 96.261 114.795 95.3296C114.912 94.3982 115.48 93.6965 116.554 93.8178C117.337 93.9062 117.877 94.7329 117.76 95.6643Z" fill="url(#paint8_radial_478_96)"/>
<g filter="url(#filter4_f_478_96)">
<path d="M124.139 109.278C124.139 109.278 131.195 115.304 136.083 116.072C142.335 117.054 151.312 113.807 151.312 113.807" stroke="#F5987E"/>
</g>
<g filter="url(#filter5_f_478_96)">
<path d="M100.25 100.786C100.25 100.786 101.338 103.734 105.326 106.448C110.427 109.918 113.986 108.712 113.986 108.712" stroke="#F5987E"/>
</g>
<g filter="url(#filter6_f_478_96)">
<path d="M122.646 95.1254C122.646 95.1254 120.564 86.0454 116.169 83.9741C111 81.5387 107.715 83.9741 107.715 83.9741" stroke="#F5987E"/>
</g>
<path d="M107.047 112.971C107.047 112.971 113.502 107.567 118.394 107.876C124.814 108.28 130.339 118.632 130.339 118.632V127.406C130.339 127.406 129.145 132.218 123.472 131.369C121.894 131.133 122.718 129.6 121.381 128.822C117.507 126.564 115.143 131.369 109.736 128.822C107.368 127.706 104.657 126.645 103.165 124.576C101.249 121.918 97.8918 122.594 100.776 116.65C101.98 114.17 107.047 112.971 107.047 112.971Z" fill="url(#paint9_linear_478_96)"/>
<path d="M123.987 121.152C126.467 119.5 129.649 119.08 131.751 121.152C133.771 123.144 133.214 125.838 131.751 128.229C130.074 130.966 127.097 132.778 123.987 131.625C119.968 130.136 120.456 123.504 123.987 121.152Z" fill="url(#paint10_linear_478_96)"/>
<path d="M99.3947 114.19C101.26 112.737 103.653 112.368 105.233 114.19C106.753 115.943 106.334 118.313 105.233 120.415C103.973 122.824 101.734 124.417 99.3947 123.404C96.3726 122.094 96.7399 116.259 99.3947 114.19Z" fill="url(#paint11_linear_478_96)"/>
<path d="M84.8487 158.481C71.0864 153.165 71.8672 127.111 71.8672 127.111C71.8672 127.111 92.8877 136.415 103.209 141.821C116.418 148.738 142.339 154.118 142.339 154.118C142.339 154.118 116.498 170.708 84.8487 158.481Z" fill="#2D2B2B"/>
<path d="M77.482 140.979L89.4454 149.867L92.1125 147.353L86.7865 143.802L128.536 158.588C128.536 158.588 130.023 158.715 133.699 157.891C137.375 157.067 141.158 154.284 141.158 154.284C141.158 154.284 113.918 148.35 101.454 141.324C86.7866 133.055 80.8398 133.055 80.8398 133.055L77.482 140.979Z" fill="white" stroke="#6C6C6C" stroke-opacity="0.36"/>
<g filter="url(#filter7_f_478_96)">
<path d="M70.9843 156.549C70.9843 156.549 75.1397 165.668 79.0468 168.437C85.7674 173.199 116.375 168.437 116.375 168.437" stroke="#F49279" stroke-opacity="0.39" stroke-width="2" stroke-linecap="round"/>
</g>
<path d="M110.999 204.102C45.5974 224.199 64.2978 265.242 65.0145 268.639C65.0145 268.639 105.161 268.641 131.306 259.581C204.131 234.344 185.952 204.102 185.952 204.102C185.952 204.102 146.367 193.234 110.999 204.102Z" fill="url(#paint12_radial_478_96)" stroke="#F49279" stroke-opacity="0.39" stroke-width="2" stroke-linecap="round"/>
</g>
<defs>
<filter id="filter0_d_478_96" x="0.0976562" y="0.753906" width="275.782" height="276.885" filterUnits="userSpaceOnUse" color-interpolation-filters="sRGB">
<feFlood flood-opacity="0" result="BackgroundImageFix"/>
<feColorMatrix in="SourceAlpha" type="matrix" values="0 0 0 0 0 0 0 0 0 0 0 0 0 0 0 0 0 0 127 0" result="hardAlpha"/>
<feOffset dy="4"/>
<feGaussianBlur stdDeviation="2"/>
<feComposite in2="hardAlpha" operator="out"/>
<feColorMatrix type="matrix" values="0 0 0 0 0 0 0 0 0 0 0 0 0 0 0 0 0 0 0.25 0"/>
<feBlend mode="normal" in2="BackgroundImageFix" result="effect1_dropShadow_478_96"/>
<feBlend mode="normal" in="SourceGraphic" in2="effect1_dropShadow_478_96" result="shape"/>
</filter>
<filter id="filter1_n_478_96" x="107.661" y="25.844" width="83.6289" height="91.8409" filterUnits="userSpaceOnUse" color-interpolation-filters="sRGB">
<feFlood flood-opacity="0" result="BackgroundImageFix"/>
<feBlend mode="normal" in="SourceGraphic" in2="BackgroundImageFix" result="shape"/>
<feTurbulence type="fractalNoise" baseFrequency="2 2" stitchTiles="stitch" numOctaves="3" result="noise" seed="8626" />
<feColorMatrix in="noise" type="luminanceToAlpha" result="alphaNoise" />
<feComponentTransfer in="alphaNoise" result="coloredNoise1">
<feFuncA type="discrete" tableValues="1 1 1 1 1 1 1 1 1 1 1 1 1 1 1 1 1 1 1 1 1 1 1 1 1 1 1 1 1 1 1 1 1 1 1 1 1 1 1 1 1 1 1 1 1 1 1 1 1 1 1 0 0 0 0 0 0 0 0 0 0 0 0 0 0 0 0 0 0 0 0 0 0 0 0 0 0 0 0 0 0 0 0 0 0 0 0 0 0 0 0 0 0 0 0 0 0 0 0 0 "/>
</feComponentTransfer>
<feComposite operator="in" in2="shape" in="coloredNoise1" result="noise1Clipped" />
<feFlood flood-color="rgba(0, 0, 0, 0.25)" result="color1Flood" />
<feComposite operator="in" in2="noise1Clipped" in="color1Flood" result="color1" />
<feMerge result="effect1_noise_478_96">
<feMergeNode in="shape" />
<feMergeNode in="color1" />
</feMerge>
</filter>
<filter id="filter2_n_478_96" x="131.446" y="80.7551" width="23.04" height="18.0574" filterUnits="userSpaceOnUse" color-interpolation-filters="sRGB">
<feFlood flood-opacity="0" result="BackgroundImageFix"/>
<feBlend mode="normal" in="SourceGraphic" in2="BackgroundImageFix" result="shape"/>
<feTurbulence type="fractalNoise" baseFrequency="0.25 0.25" stitchTiles="stitch" numOctaves="3" result="noise" seed="5021" />
<feColorMatrix in="noise" type="luminanceToAlpha" result="alphaNoise" />
<feComponentTransfer in="alphaNoise" result="coloredNoise1">
<feFuncA type="discrete" tableValues="1 1 1 1 1 1 1 1 1 1 1 1 1 1 1 1 1 1 1 1 1 1 1 1 1 1 1 1 1 1 1 1 1 1 1 1 1 1 1 1 1 1 1 1 1 1 1 1 1 1 1 0 0 0 0 0 0 0 0 0 0 0 0 0 0 0 0 0 0 0 0 0 0 0 0 0 0 0 0 0 0 0 0 0 0 0 0 0 0 0 0 0 0 0 0 0 0 0 0 0 "/>
</feComponentTransfer>
<feComposite operator="in" in2="shape" in="coloredNoise1" result="noise1Clipped" />
<feFlood flood-color="rgba(0, 0, 0, 0.25)" result="color1Flood" />
<feComposite operator="in" in2="noise1Clipped" in="color1Flood" result="color1" />
<feMerge result="effect1_noise_478_96">
<feMergeNode in="shape" />
<feMergeNode in="color1" />
</feMerge>
</filter>
<filter id="filter3_n_478_96" x="105.743" y="75.0942" width="15.0146" height="12.3522" filterUnits="userSpaceOnUse" color-interpolation-filters="sRGB">
<feFlood flood-opacity="0" result="BackgroundImageFix"/>
<feBlend mode="normal" in="SourceGraphic" in2="BackgroundImageFix" result="shape"/>
<feTurbulence type="fractalNoise" baseFrequency="0.25 0.25" stitchTiles="stitch" numOctaves="3" result="noise" seed="5021" />
<feColorMatrix in="noise" type="luminanceToAlpha" result="alphaNoise" />
<feComponentTransfer in="alphaNoise" result="coloredNoise1">
<feFuncA type="discrete" tableValues="1 1 1 1 1 1 1 1 1 1 1 1 1 1 1 1 1 1 1 1 1 1 1 1 1 1 1 1 1 1 1 1 1 1 1 1 1 1 1 1 1 1 1 1 1 1 1 1 1 1 1 0 0 0 0 0 0 0 0 0 0 0 0 0 0 0 0 0 0 0 0 0 0 0 0 0 0 0 0 0 0 0 0 0 0 0 0 0 0 0 0 0 0 0 0 0 0 0 0 0 "/>
</feComponentTransfer>
<feComposite operator="in" in2="shape" in="coloredNoise1" result="noise1Clipped" />
<feFlood flood-color="rgba(0, 0, 0, 0.25)" result="color1Flood" />
<feComposite operator="in" in2="noise1Clipped" in="color1Flood" result="color1" />
<feMerge result="effect1_noise_478_96">
<feMergeNode in="shape" />
<feMergeNode in="color1" />
</feMerge>
</filter>
<filter id="filter4_f_478_96" x="119.814" y="104.898" width="35.668" height="15.8585" filterUnits="userSpaceOnUse" color-interpolation-filters="sRGB">
<feFlood flood-opacity="0" result="BackgroundImageFix"/>
<feBlend mode="normal" in="SourceGraphic" in2="BackgroundImageFix" result="shape"/>
<feGaussianBlur stdDeviation="2" result="effect1_foregroundBlur_478_96"/>
</filter>
<filter id="filter5_f_478_96" x="95.771" y="96.6093" width="22.3711" height="16.7974" filterUnits="userSpaceOnUse" color-interpolation-filters="sRGB">
<feFlood flood-opacity="0" result="BackgroundImageFix"/>
<feBlend mode="normal" in="SourceGraphic" in2="BackgroundImageFix" result="shape"/>
<feGaussianBlur stdDeviation="2" result="effect1_foregroundBlur_478_96"/>
</filter>
<filter id="filter6_f_478_96" x="103.414" y="78.3999" width="23.7285" height="20.844" filterUnits="userSpaceOnUse" color-interpolation-filters="sRGB">
<feFlood flood-opacity="0" result="BackgroundImageFix"/>
<feBlend mode="normal" in="SourceGraphic" in2="BackgroundImageFix" result="shape"/>
<feGaussianBlur stdDeviation="2" result="effect1_foregroundBlur_478_96"/>
</filter>
<filter id="filter7_f_478_96" x="65.9712" y="151.562" width="55.4175" height="23.9786" filterUnits="userSpaceOnUse" color-interpolation-filters="sRGB">
<feFlood flood-opacity="0" result="BackgroundImageFix"/>
<feBlend mode="normal" in="SourceGraphic" in2="BackgroundImageFix" result="shape"/>
<feGaussianBlur stdDeviation="2" result="effect1_foregroundBlur_478_96"/>
</filter>
<linearGradient id="paint0_linear_478_96" x1="215.667" y1="84.701" x2="215.667" y2="142.999" gradientUnits="userSpaceOnUse">
<stop stop-color="white"/>
<stop offset="0.5" stop-color="#B9B9B9"/>
<stop offset="1" stop-color="#A29F9F"/>
</linearGradient>
<linearGradient id="paint1_linear_478_96" x1="47.6947" y1="174.381" x2="44.2054" y2="234.695" gradientUnits="userSpaceOnUse">
<stop stop-color="#FFF5F5"/>
<stop offset="1" stop-color="#737373"/>
</linearGradient>
<radialGradient id="paint2_radial_478_96" cx="0" cy="0" r="1" gradientUnits="userSpaceOnUse" gradientTransform="translate(122.425 148.985) rotate(90) scale(86.4107 72.9383)">
<stop stop-color="#FFE9DF"/>
<stop offset="1" stop-color="#FFB8A1"/>
</radialGradient>
<linearGradient id="paint3_linear_478_96" x1="151.163" y1="2" x2="151.163" y2="62.4385" gradientUnits="userSpaceOnUse">
<stop offset="0.269231" stop-color="#FBE899"/>
<stop offset="0.576923" stop-color="#FFCE0A"/>
<stop offset="0.9999" stop-color="#997C06"/>
</linearGradient>
<linearGradient id="paint4_linear_478_96" x1="151.163" y1="2" x2="151.163" y2="62.4385" gradientUnits="userSpaceOnUse">
<stop stop-color="#E3B82C"/>
<stop offset="0.5" stop-color="#B6931F"/>
<stop offset="1" stop-color="#896E12"/>
</linearGradient>
<radialGradient id="paint5_radial_478_96" cx="0" cy="0" r="1" gradientTransform="matrix(12.7073 24.5237 -24.7933 11.5435 138.48 105.587)" gradientUnits="userSpaceOnUse">
<stop stop-color="white"/>
</radialGradient>
<radialGradient id="paint6_radial_478_96" cx="0" cy="0" r="1" gradientTransform="matrix(1.77947 4.04909 -3.63185 1.98039 141.354 103.061)" gradientUnits="userSpaceOnUse">
<stop stop-color="white"/>
</radialGradient>
<radialGradient id="paint7_radial_478_96" cx="0" cy="0" r="1" gradientTransform="matrix(9.75432 24.1904 -20.4271 12.0363 111.573 96.7718)" gradientUnits="userSpaceOnUse">
<stop stop-color="white"/>
</radialGradient>
<radialGradient id="paint8_radial_478_96" cx="0" cy="0" r="1" gradientTransform="matrix(1.77947 4.04909 -3.63185 1.98039 116.278 95.4969)" gradientUnits="userSpaceOnUse">
<stop stop-color="white"/>
</radialGradient>
<linearGradient id="paint9_linear_478_96" x1="114.996" y1="107.863" x2="114.996" y2="131.47" gradientUnits="userSpaceOnUse">
<stop stop-color="#FFDBC6"/>
<stop offset="0.5" stop-color="#FED2BE"/>
<stop offset="1" stop-color="#F5BDA9"/>
</linearGradient>
<linearGradient id="paint10_linear_478_96" x1="122.828" y1="121.422" x2="132.262" y2="133.577" gradientUnits="userSpaceOnUse">
<stop stop-color="#FFDBC6"/>
<stop offset="0.5" stop-color="#FECFBB"/>
<stop offset="1" stop-color="#FCC3B0"/>
</linearGradient>
<linearGradient id="paint11_linear_478_96" x1="105.326" y1="114.939" x2="94.7144" y2="118.982" gradientUnits="userSpaceOnUse">
<stop stop-color="#FFDBC6"/>
<stop offset="0.5" stop-color="#FECFBB"/>
<stop offset="1" stop-color="#EFB4A0"/>
</linearGradient>
<radialGradient id="paint12_radial_478_96" cx="0" cy="0" r="1" gradientTransform="matrix(0.161553 76.9771 -136.896 0.258154 123.978 234.12)" gradientUnits="userSpaceOnUse">
<stop stop-color="#E43A24"/>
<stop offset="1" stop-color="#7E2014"/>
</radialGradient>
</defs>
</svg>
