<svg width="105" height="102" viewBox="0 0 105 102" fill="none" xmlns="http://www.w3.org/2000/svg">
<path d="M53.3662 27.3598C45.9278 14.748 67.0193 4.63231 82.8171 14.457C90.0253 18.9398 95.4315 22.6379 97.3491 29.7067C99.2884 36.8556 97.9798 40.1372 93.635 45.8899C84.4772 58.0154 50.756 52.5186 48.6895 56.4329C46.7645 60.0789 62.653 62.7146 63.1783 66.6517C64.4911 76.4906 46.4573 68.947 46.4573 68.947C46.4573 68.947 32.7727 59.0139 31.8861 52.9838C30.4186 43.0031 41.856 40.7382 53.0358 40.2861C66.7341 39.7322 85.7348 41.2482 82.9527 29.1968C79.6828 15.0317 56.8595 33.2827 53.3662 27.3598Z" fill="#E82ABB"/>
<ellipse cx="46.5645" cy="78.6439" rx="7.42367" ry="6.01125" transform="rotate(27.832 46.5645 78.6439)" fill="#E82ABB"/>
<g filter="url(#filter0_f_473_35)">
<path d="M7.271 63.0285C1.61975 59.6871 6.89732 50.0315 14.9266 50.0556C18.5902 50.0666 21.4165 50.2149 23.7677 52.6682C26.1455 55.1492 26.4397 56.855 26.212 60.3739C25.732 67.791 12.2181 74.1924 12.3857 76.3573C12.5419 78.3739 18.92 75.3769 20.0327 76.8832C22.8134 80.6475 14.5078 82.1511 14.5078 82.1511C14.5078 82.1511 7.21937 81.537 5.48536 79.2511C2.61532 75.4675 6.23162 71.5745 10.1792 68.5038C15.016 64.7414 22.2603 60.4751 18.4286 56.167C13.9248 51.1033 9.92501 64.5977 7.271 63.0285Z" fill="#E82ABB" fill-opacity="0.46"/>
<ellipse cx="18.1659" cy="94.2818" rx="3.2017" ry="2.949" transform="rotate(-4.42776 18.1659 94.2818)" fill="#E82ABB" fill-opacity="0.46"/>
</g>
<defs>
<filter id="filter0_f_473_35" x="0.452637" y="46.0555" width="29.8228" height="55.177" filterUnits="userSpaceOnUse" color-interpolation-filters="sRGB">
<feFlood flood-opacity="0" result="BackgroundImageFix"/>
<feBlend mode="normal" in="SourceGraphic" in2="BackgroundImageFix" result="shape"/>
<feGaussianBlur stdDeviation="2" result="effect1_foregroundBlur_473_35"/>
</filter>
</defs>
</svg>
