<svg width="258" height="286" viewBox="0 0 258 286" fill="none" xmlns="http://www.w3.org/2000/svg">
<g filter="url(#filter0_n_462_635)">
<path d="M66.7829 196.446L84.5323 196.566C84.8454 201.727 85.8536 204.631 89.5675 209.833C92.6519 213.123 94.6865 215.133 98.7067 218.929L110.336 232.857C103.224 227.383 99.0049 224.45 90.1321 220.01C80.1098 211.036 75.0706 205.858 66.7829 196.446Z" fill="url(#paint0_linear_462_635)"/>
<path d="M132.61 229.373L128.296 233.26C129.952 233.988 130.546 234.658 131.896 236.648C147.795 228.937 156.824 224.587 177.708 214.617L161.561 208.126C156.53 220.783 149.837 225.19 132.61 229.373Z" fill="url(#paint1_linear_462_635)"/>
<path d="M66.7829 196.446C73.7145 196.493 77.6007 196.519 84.5323 196.566C84.8454 201.727 85.8536 204.631 89.5675 209.833M66.7829 196.446C75.0706 205.858 80.1098 211.036 90.1321 220.01C99.0049 224.45 103.224 227.383 110.336 232.857L98.7067 218.929C94.6865 215.133 92.6519 213.123 89.5675 209.833M66.7829 196.446L89.5675 209.833M128.296 233.26L132.61 229.373C149.837 225.19 156.53 220.783 161.561 208.126L177.708 214.617C156.824 224.587 147.795 228.937 131.896 236.648C130.546 234.658 129.952 233.988 128.296 233.26Z" stroke="#999687" stroke-width="2.6"/>
</g>
<g filter="url(#filter1_f_462_635)">
<path d="M73.9813 162.028C81.1723 162.965 83.7135 166.829 87.2072 176.051" stroke="#9D6256"/>
</g>
<g filter="url(#filter2_f_462_635)">
<path d="M93.6432 237.987C100.612 235.964 104.313 235.986 110.311 239.416L111.105 239.484C104.203 243.327 100.299 242.86 93.2892 238.392" stroke="#194654" stroke-width="2"/>
</g>
<g filter="url(#filter3_f_462_635)">
<path d="M132.31 243.624C138.951 241.768 142.483 241.806 148.222 245.034L148.98 245.101C142.412 248.656 138.685 248.202 131.975 244" stroke="#194654" stroke-width="2"/>
</g>
<g filter="url(#filter4_f_462_635)">
<path d="M80.3525 233.292C82.9673 236.039 84.7813 240.445 84.7813 240.445" stroke="#2D3C5D"/>
</g>
<g filter="url(#filter5_f_462_635)">
<path d="M137.726 193.322C145.173 199.937 147.17 203.246 148.246 208.694" stroke="#9D6256"/>
</g>
<g filter="url(#filter6_f_462_635)">
<path d="M112.458 189.235C102.837 194.142 99.8947 196.535 98.5794 200.223" stroke="#9D6256"/>
</g>
<path d="M95.1012 143.455L84.9068 149.705L93.8591 142.955L102.565 133.52L135.688 139.969L167.023 147.241L168.577 151.398L174.212 156.648L166.237 149.711C166.429 154.681 169.01 159.631 169.67 159.051C170.33 158.47 168.016 166.515 166.42 170.824C165.644 172.919 164.803 173.96 164.216 176.111C163.564 178.503 163.437 182.414 163.437 182.414C169.971 175.638 173.883 172.385 179.301 173.518C189.551 181.17 177.182 197.969 161.308 201.607L160.912 206.075C158.861 217.952 150.316 224.167 131.594 229.078L127.569 232.869C125.558 232.945 122.855 233.139 120.897 233.868C120.897 233.868 119.556 232.3 117.008 231.858C114.46 231.415 113.286 231.746 111.416 232.843L100.706 219.671C97.3492 216.987 94.5806 214.211 91.3251 210.44C85.1743 202.559 85 196.903 86.0313 186.821C71.354 182.314 66.5581 157.602 74.1305 154.875C81.7029 152.148 88.8439 161.784 90.0324 168.978C92.3122 163.228 93.56 157.262 92.1315 151.216C89.5789 152.072 87.2351 153.859 84.5111 154.172C90.4232 152.601 93.0135 149.687 95.1012 143.455Z" fill="url(#paint2_linear_462_635)"/>
<path d="M90.0324 168.978C92.3122 163.228 93.56 157.262 92.1315 151.216C89.5789 152.072 87.2351 153.859 84.5111 154.172C90.4232 152.601 93.0135 149.687 95.1012 143.455L84.9068 149.705L93.8591 142.955L102.565 133.52L135.688 139.969L167.023 147.241L168.577 151.398L174.212 156.648L166.237 149.711C166.429 154.681 169.01 159.631 169.67 159.051C170.33 158.47 168.016 166.515 166.42 170.824C165.644 172.919 164.803 173.96 164.216 176.111C163.564 178.503 163.437 182.414 163.437 182.414M90.0324 168.978C90.5928 173.858 89.1619 178.091 86.0313 186.821M90.0324 168.978C88.8439 161.784 81.7029 152.148 74.1305 154.875C66.5581 157.602 71.354 182.314 86.0313 186.821M86.0313 186.821C85 196.903 85.1743 202.559 91.3251 210.44C94.5806 214.211 97.3492 216.987 100.706 219.671M111.068 226.783C117.759 230.975 123.395 231.035 131.594 229.078M111.068 226.783C108.929 224.545 105.268 220.829 104.962 218.636M111.068 226.783C108.429 225.148 106.188 223.691 104.198 222.286C102.947 221.404 101.796 220.542 100.706 219.671M131.594 229.078C134.734 227.61 134.812 227.386 136.38 224.825L136.167 225.162M131.594 229.078C132.075 228.957 131.126 229.2 131.594 229.078ZM131.594 229.078C150.316 224.167 158.861 217.952 160.912 206.075L161.308 201.607M131.594 229.078L127.569 232.869C125.558 232.945 122.855 233.139 120.897 233.868C120.897 233.868 119.556 232.3 117.008 231.858C114.46 231.415 113.286 231.746 111.416 232.843L100.706 219.671M163.437 182.414C169.971 175.638 173.883 172.385 179.301 173.518C189.551 181.17 177.182 197.969 161.308 201.607M163.437 182.414L161.944 195.992L161.308 201.607" stroke="#9D6256" stroke-width="2"/>
<g filter="url(#filter7_f_462_635)">
<path d="M76.6754 163.31C75.8306 166.217 75.979 167.656 77.7499 169.762" stroke="#E89680"/>
</g>
<g filter="url(#filter8_f_462_635)">
<path d="M116.687 152.28C119.942 154.953 120.794 156.896 121.277 159.946" stroke="#9D6256" stroke-opacity="0.8"/>
</g>
<g filter="url(#filter9_f_462_635)">
<path d="M124.644 158.016C126.345 167.224 125.778 172.01 122.791 178.463" stroke="#9D6256" stroke-opacity="0.8"/>
</g>
<g filter="url(#filter10_f_462_635)">
<path d="M84.2125 168.479C82.8493 171.122 80.1997 174.263 82.6469 177.252" stroke="#9D6256"/>
</g>
<g filter="url(#filter11_f_462_635)">
<path d="M83.8381 136.788C87.4811 136.022 89.1124 135.339 91.4709 133.772L91.7645 133.656" stroke="#636A64"/>
</g>
<g filter="url(#filter12_n_462_635)">
<path d="M89.5002 130.889C109.222 127.149 102.105 132.8 102.105 132.8C102.105 132.8 98.6199 136.976 94.0026 141.746C89.3853 146.516 86.8822 148.116 82.4776 150.218C86.6083 150.07 91.0885 147.415 94.7986 143.121C94.7986 143.121 91.8895 149.192 89.8909 151.043C88.5484 152.286 84.5403 153.309 84.5403 153.309C86.7947 153.566 89.5792 153.383 91.5625 152.118C92.285 158.139 91.9934 161.361 90.3751 166.862C91.1496 164.192 83.088 154.861 78.1826 153.914C74.1427 152.852 71.3715 155.391 70.3851 158.812C69.3987 162.234 69.0202 182.04 85.6401 186.911L84.61 194.427C78.9469 187.27 74.5334 184.301 65.2486 183.372L74.9634 182.26C68.3798 179.594 64.3402 179.199 56.908 179.209C60.2647 175.948 62.883 175.238 68.3238 175.145C57.5718 171.434 53.3393 171.507 45.1133 176.017C46.4042 169.415 49.5787 167.075 56.6349 163.675C46.2706 166.561 41.9985 169.801 36.8106 178.149C39.113 164.323 41.4721 157.679 53.2019 151.591C39.9075 150.267 33.6516 152.391 23.5419 158.688C28.5265 146.557 32.4138 140.714 50.2396 139.848C38.8604 136.97 32.7162 137.147 22.1475 140.743C33.8465 128.886 41.3143 126.301 57.4038 134.091C48.6925 128.485 45.3196 125.196 42.9549 118.978C59.1279 130.372 69.7785 134.63 89.5002 130.889Z" fill="url(#paint3_linear_462_635)"/>
<path d="M89.5002 130.889C109.222 127.149 102.105 132.8 102.105 132.8C102.105 132.8 98.6199 136.976 94.0026 141.746C89.3853 146.516 86.8822 148.116 82.4776 150.218C86.6083 150.07 91.0885 147.415 94.7986 143.121C94.7986 143.121 91.8895 149.192 89.8909 151.043C88.5484 152.286 84.5403 153.309 84.5403 153.309C86.7947 153.566 89.5792 153.383 91.5625 152.118C92.285 158.139 91.9934 161.361 90.3751 166.862C91.1496 164.192 83.088 154.861 78.1826 153.914C74.1427 152.852 71.3715 155.391 70.3851 158.812C69.3987 162.234 69.0202 182.04 85.6401 186.911L84.61 194.427C78.9469 187.27 74.5334 184.301 65.2486 183.372L74.9634 182.26C68.3798 179.594 64.3402 179.199 56.908 179.209C60.2647 175.948 62.883 175.238 68.3238 175.145C57.5718 171.434 53.3393 171.507 45.1133 176.017C46.4042 169.415 49.5787 167.075 56.6349 163.675C46.2706 166.561 41.9985 169.801 36.8106 178.149C39.113 164.323 41.4721 157.679 53.2019 151.591C39.9075 150.267 33.6516 152.391 23.5419 158.688C28.5265 146.557 32.4138 140.714 50.2396 139.848C38.8604 136.97 32.7162 137.147 22.1475 140.743C33.8465 128.886 41.3143 126.301 57.4038 134.091C48.6925 128.485 45.3196 125.196 42.9549 118.978C59.1279 130.372 69.7785 134.63 89.5002 130.889Z" stroke="#616662" stroke-opacity="0.8" stroke-width="2"/>
</g>
<path d="M180.398 154.11C188.519 158.687 192.746 159.548 199.72 159.588" stroke="#636A64" stroke-width="2"/>
<g filter="url(#filter13_n_462_635)">
<path d="M177.661 148.729C177.661 148.729 183.432 151.711 186.763 154.328C195.203 159.829 207.264 161.042 227.071 151.627C221.874 158.432 220.112 162.793 213.288 164.519C221.01 164.222 224.088 166.554 230.888 172.812C220.113 170.179 217.368 170.583 207.217 173.528C219.537 175.25 221.364 179.609 223.8 193.118C218.527 186.088 213.847 181.371 202.672 179.091C212.74 181.635 215.832 186.002 213.709 202.588C209.313 194.665 205.536 191.342 198.465 187.573C205.075 194.181 205.911 198.204 204.988 204.213C198.756 196.708 193.97 194.772 181.948 195.452C185.655 196.477 186.906 197.264 188.768 200.328C181.107 197.979 176.692 198.256 168.662 200.804L176.692 202.483C170.313 203.007 167.471 203.735 161.734 206.007L162.05 201.392C172.306 199.991 186.391 188.726 183.122 178.205C181.726 173.714 179.21 171.769 173.337 173.708C167.465 175.647 164.208 181.161 164.208 181.161C164.208 181.161 164.276 177.237 165.051 175.411C167.174 170.407 170.557 160.19 170.081 158.838C170.046 158.792 170.011 158.747 169.977 158.702C168.078 156.21 166.933 153.87 166.72 150.629L173.183 155.923L175.526 157.645C170.157 152.074 169.466 151.718 167.448 145.854C171.537 146.416 177.661 148.729 177.661 148.729Z" fill="url(#paint4_linear_462_635)"/>
<path d="M177.661 148.729C177.661 148.729 183.432 151.711 186.763 154.328C195.203 159.829 207.264 161.042 227.071 151.627C221.874 158.432 220.112 162.793 213.288 164.519C221.01 164.222 224.088 166.554 230.888 172.812C220.113 170.179 217.368 170.583 207.217 173.528C219.537 175.25 221.364 179.609 223.8 193.118C218.527 186.088 213.847 181.371 202.672 179.091C212.74 181.635 215.832 186.002 213.709 202.588C209.313 194.665 205.536 191.342 198.465 187.573C205.075 194.181 205.911 198.204 204.988 204.213C198.756 196.708 193.97 194.772 181.948 195.452C185.655 196.477 186.906 197.264 188.768 200.328C181.107 197.979 176.692 198.256 168.662 200.804L176.692 202.483C170.313 203.007 167.471 203.735 161.734 206.007L162.05 201.392C172.306 199.991 186.391 188.726 183.122 178.205C181.726 173.714 179.21 171.769 173.337 173.708C167.465 175.647 164.208 181.161 164.208 181.161C164.208 181.161 164.276 177.237 165.051 175.411C167.174 170.407 170.557 160.19 170.081 158.838C170.046 158.792 170.011 158.747 169.977 158.702C168.078 156.21 166.933 153.87 166.72 150.629L173.183 155.923L175.526 157.645C170.157 152.074 169.466 151.718 167.448 145.854C171.537 146.416 177.661 148.729 177.661 148.729Z" stroke="#636A64" stroke-opacity="0.8" stroke-width="2"/>
</g>
<path d="M76.5573 90.481L77.6006 77.7668L85.9838 87.9023L83.8723 97.9982L76.5573 90.481Z" stroke="black"/>
<g filter="url(#filter14_n_462_635)">
<path d="M121.104 85.736C117.123 85.5185 105.559 88.3888 104.138 89.0874C105.586 97.7177 106.286 102.147 109.086 108.205L103.372 107.01L96.2851 107.193L86.3365 109.395L106.183 119.494L130.401 128.128C152.547 133.707 163.192 135.495 179.283 135.496L182.235 135.638L182.257 130.347C184.189 128.721 184.761 125.986 183.643 123.721C186.811 121.594 186.676 119.97 186.981 118.523C187.403 116.525 189.26 115.079 190.534 113.484C192.243 111.344 194.46 108.915 194.179 108.615L185.983 103.462C177.225 98.2352 172.457 95.8348 164.328 92.9384C147.207 87.369 139.468 85.6648 121.104 85.736Z" fill="url(#paint5_linear_462_635)"/>
<path d="M121.104 85.736C117.123 85.5185 105.559 88.3888 104.138 89.0874C105.586 97.7177 106.286 102.147 109.086 108.205L103.372 107.01L96.2851 107.193L86.3365 109.395L106.183 119.494L130.401 128.128C152.547 133.707 163.192 135.495 179.283 135.496L182.235 135.638L182.257 130.347C184.189 128.721 184.761 125.986 183.643 123.721C186.811 121.594 186.676 119.97 186.981 118.523C187.403 116.525 189.26 115.079 190.534 113.484C192.243 111.344 194.46 108.915 194.179 108.615L185.983 103.462C177.225 98.2352 172.457 95.8348 164.328 92.9384C147.207 87.369 139.468 85.6648 121.104 85.736Z" stroke="#173A3A" stroke-width="4"/>
</g>
<g filter="url(#filter15_f_462_635)">
<path d="M103.243 113.545C127.12 108.392 141.143 108.449 166.74 111.258" stroke="#326C69"/>
</g>
<g filter="url(#filter16_f_462_635)">
<path d="M112.712 117.202C142.27 113.759 157.401 115.889 183.025 123.526" stroke="#144747"/>
</g>
<g filter="url(#filter17_n_462_635)">
<path d="M50.3568 122.113C48.7422 120.228 47.1582 117.927 46.935 115.965C46.62 114.415 46.3673 113.018 46.2333 111.72C45.3665 103.316 55.2089 97.8043 63.4869 99.4893C65.1378 99.8253 66.8734 100.336 68.7995 101.026C71.0443 101.83 73.1802 102.932 75.2424 104.129C112.812 125.938 135.92 133.612 177.94 135.527C181.02 135.667 184.128 135.484 187.174 134.998C213.671 130.774 216.763 128.325 221.597 130.702C226.698 133.209 224.1 143.199 223.23 143.496C223.23 143.496 213.962 153.712 204.551 156.833C201.16 157.767 198.382 158.248 195.935 158.181C186.208 157.914 178.43 149.587 169.056 146.978L165.152 145.892L124.786 136.731L99.5056 132.327C92.3319 131.077 85.0029 131.862 77.735 132.312C69.5915 132.816 63.8201 130.835 58.6478 128.278C55.5313 126.738 52.618 124.754 50.3568 122.113Z" fill="url(#paint6_linear_462_635)"/>
<path d="M46.935 115.965C46.4795 113.125 47.4311 111.15 48.9867 108.73C50.1145 106.976 50.9756 105.927 52.9948 105.018C55.268 103.995 56.9803 104.28 59.5713 104.478C64.2523 104.836 70.7984 108.742 70.7984 108.742L99.7936 124.625L110.457 129.011C110.457 129.011 120.176 133.31 126.718 135.219C133.038 137.063 137.574 137.49 143.232 138.673C148.889 139.856 154.928 140.941 160.663 141.6C167.266 142.359 175.789 142.675 175.789 142.675C175.789 142.675 187.772 141.933 195.514 140.813C200.139 140.144 202.43 139.822 207.263 138.72C210.074 138.079 213.255 137.084 216.191 137.234C217.728 137.313 218.717 137.317 220.061 138.044C222.356 139.284 223.23 143.496 223.23 143.496M46.935 115.965C47.1582 117.927 48.7422 120.228 50.3568 122.113C52.618 124.754 55.5313 126.738 58.6478 128.278C63.8201 130.835 69.5915 132.816 77.735 132.312C85.0029 131.862 92.3319 131.077 99.5056 132.327L124.786 136.731L165.152 145.892L169.056 146.978C178.43 149.587 186.208 157.914 195.935 158.181C198.382 158.248 201.16 157.767 204.551 156.833C213.962 153.712 223.23 143.496 223.23 143.496M46.935 115.965C46.62 114.415 46.3673 113.018 46.2333 111.72C45.3665 103.316 55.2089 97.8043 63.4869 99.4893C65.1378 99.8253 66.8734 100.336 68.7995 101.026C71.0443 101.83 73.1802 102.932 75.2424 104.129C112.812 125.938 135.92 133.612 177.94 135.527C181.02 135.667 184.128 135.484 187.174 134.998C213.671 130.774 216.763 128.325 221.597 130.702C226.698 133.209 224.1 143.199 223.23 143.496" stroke="#304B22" stroke-width="3"/>
</g>
<g filter="url(#filter18_f_462_635)">
<path d="M218.29 135.182C218.29 135.182 220.856 135.249 222.204 136C223.4 136.668 224.615 138.42 224.615 138.42" stroke="#304B22" stroke-width="3"/>
</g>
<g filter="url(#filter19_n_462_635)">
<path d="M75.3706 38.5697C77.3818 44.7951 81.0045 56.9506 82.0642 66.726L98.755 67.3255L102.489 88.9216C118.49 84.8583 128.339 85.1112 146.71 87.8853C167.735 93.78 179.727 99.5149 193.675 109.947C200.593 98.3971 199.803 99.9649 206.041 90.7396C212.279 81.5143 218.094 72.6943 220.987 69.3812C223.88 66.0682 227.576 64.3775 225.236 58.2706C222.897 52.1637 207.596 41.3575 201.5 37.6335C195.403 33.9095 193.178 32.7097 187.314 30.5036C181.45 28.2976 163.6 22.9111 150.553 20.8561C137.507 18.801 139.483 18.8111 126.76 17.839C114.038 16.8668 100.171 18.7833 88.1692 23.3719C82.4395 25.5626 78.7502 28.6548 76.5768 31.0199C74.7092 33.0522 74.5221 35.9433 75.3706 38.5697Z" fill="#7BA95B"/>
<path d="M75.3706 38.5697C77.3818 44.7951 81.0045 56.9506 82.0642 66.726L98.755 67.3255L102.489 88.9216C118.49 84.8583 128.339 85.1112 146.71 87.8853C167.735 93.78 179.727 99.5149 193.675 109.947C200.593 98.3971 199.803 99.9649 206.041 90.7396C212.279 81.5143 218.094 72.6943 220.987 69.3812C223.88 66.0682 227.576 64.3775 225.236 58.2706C222.897 52.1637 207.596 41.3575 201.5 37.6335C195.403 33.9095 193.178 32.7097 187.314 30.5036C181.45 28.2976 163.6 22.9111 150.553 20.8561C137.507 18.801 139.483 18.8111 126.76 17.839C114.038 16.8668 100.171 18.7833 88.1692 23.3719C82.4395 25.5626 78.7502 28.6548 76.5768 31.0199C74.7092 33.0522 74.5221 35.9433 75.3706 38.5697Z" stroke="#2F4A20" stroke-width="3"/>
</g>
<g filter="url(#filter20_f_462_635)">
<path d="M188.616 101.944C188.616 101.944 195.558 88.0684 202.056 78.8899C208.554 69.7114 207.166 71.6541 213.834 65.068" stroke="#4B6C3A" stroke-width="0.6"/>
</g>
<g filter="url(#filter21_f_462_635)">
<path d="M184.824 99.4742C186.454 96.3957 189.664 91.079 191.093 88.8111C192.523 86.5432 199.222 77.6636 199.007 78.0129" stroke="#4B6C3A" stroke-width="0.6"/>
</g>
<g filter="url(#filter22_f_462_635)">
<path d="M182.578 97.3283C182.578 97.3283 184.81 91.8079 185.212 91.1735C185.614 90.5391 188.026 86.7328 188.026 86.7328" stroke="#4B6C3A" stroke-width="0.6"/>
</g>
<g filter="url(#filter23_f_462_635)">
<path d="M112.14 82.5959L111.755 74.1334C111.311 68.5322 110.474 55.2587 107.427 49.7583" stroke="#4B6C3A" stroke-width="0.6"/>
</g>
<g filter="url(#filter24_f_462_635)">
<path d="M107.465 83.0551L106.132 66.2515L103.737 50.6628L101.108 40.0544" stroke="#4B6C3A" stroke-width="0.6"/>
</g>
<g filter="url(#filter25_f_462_635)">
<path d="M96.9085 65.2805L93.4993 50.6772L88.7222 37.4641" stroke="#4B6C3A" stroke-width="0.6"/>
</g>
<g filter="url(#filter26_f_462_635)">
<path d="M83.5806 37.5859L88.3577 50.799L91.2989 65.065" stroke="#4B6C3A" stroke-width="0.6"/>
</g>
<g filter="url(#filter27_n_462_635)">
<path d="M54.1709 77.7654C63.2718 86.8915 69.427 92.9939 73.1091 101.709L87.1755 109.466C93.9869 108.483 99.721 106.071 110.269 108.277C105.112 92.5563 103.823 82.9901 101.304 66.9181C80.7316 65.2638 69.8906 67.0893 54.1709 77.7654Z" fill="#EAE8C2"/>
<path d="M54.1709 77.7654C63.2718 86.8915 69.427 92.9939 73.1091 101.709L87.1755 109.466C93.9869 108.483 99.721 106.071 110.269 108.277C105.112 92.5563 103.823 82.9901 101.304 66.9181C80.7316 65.2638 69.8906 67.0893 54.1709 77.7654Z" fill="url(#paint7_radial_462_635)" fill-opacity="0.2"/>
<path d="M54.1709 77.7654C63.2718 86.8915 69.427 92.9939 73.1091 101.709L87.1755 109.466C93.9869 108.483 99.721 106.071 110.269 108.277C105.112 92.5563 103.823 82.9901 101.304 66.9181C80.7316 65.2638 69.8906 67.0893 54.1709 77.7654Z" stroke="#8F8350" stroke-width="5"/>
</g>
<g filter="url(#filter28_d_462_635)">
<path d="M80.1335 100.075C79.7391 99.8033 79.3799 99.4909 79.0526 99.1472C75.3881 95.2993 72.8605 85.5664 74.6691 80.4953C75.5876 77.9198 80.1136 76.9755 81.8062 79.0718C82.3029 79.687 82.7414 80.333 83.1268 80.9805C85.2604 84.565 87.1456 89.3962 86.8233 93.5871C86.6176 96.2621 85.7472 99.0307 83.7281 100.273C82.6185 100.956 81.1789 100.794 80.1335 100.075Z" stroke="#2D422B" stroke-width="4" shape-rendering="crispEdges"/>
</g>
<g filter="url(#filter29_d_462_635)">
<path d="M65.5449 83.4137L66.9561 77.7249L70.7626 87.5584L73.7392 95.264L76.1421 100.903" stroke="#2D432B" stroke-width="4"/>
</g>
<g filter="url(#filter30_d_462_635)">
<path d="M89.1626 70.1266L89.9567 102.384" stroke="#2D422B" stroke-width="4"/>
</g>
<g filter="url(#filter31_d_462_635)">
<path d="M98.6436 81.4497C96.7416 81.5309 94.2634 84.3654 93.6396 87.3483L92.7757 91.4784M92.7757 91.4784C92.7757 91.4784 92.1999 94.2319 93.4121 96.1618C94.1445 97.419 94.7236 98.1036 95.4517 98.5252C96.3094 99.0219 97.3693 99.0656 98.3268 98.8094C99.7102 98.4392 100.219 97.6829 100.877 96.5256C101.16 96.0279 101.366 95.4916 101.507 94.8605C101.86 93.2704 101.52 91.4948 100.379 90.3328C99.9398 89.886 99.4753 89.6265 98.8661 89.3994C97.649 88.9466 97.1198 88.8693 96.2859 88.8597C94.3891 88.962 93.5137 89.2379 92.7757 91.4784Z" stroke="#2D432B" stroke-width="3" shape-rendering="crispEdges"/>
</g>
<g filter="url(#filter32_f_462_635)">
<path d="M141.85 122.099C158.191 122.433 167.037 124.113 182.341 129.37" stroke="#124645"/>
</g>
<g filter="url(#filter33_f_462_635)">
<path d="M165.207 190.688C171.284 183.622 174.459 181.044 179.362 180.955" stroke="#9D6256"/>
</g>
<g filter="url(#filter34_f_462_635)">
<path d="M86.127 176.064C83.391 167.155 81.5157 163.52 77.0594 161.475" stroke="#9D6256"/>
</g>
<g filter="url(#filter35_f_462_635)">
<path d="M170.985 184.951C171.025 188.925 171.337 190.912 168.789 192.874" stroke="#9D6256"/>
</g>
<g filter="url(#filter36_n_462_635)">
<path d="M122.715 138.904L124.737 143.399C114.201 139.506 108.61 142.588 98.8941 152.363C99.7974 148.09 100.39 145.963 102.008 143.914L100.814 143.185C103.115 141.477 104.427 140.92 106.79 140.363L103.58 138.974C110.762 135.984 114.589 136.129 122.715 138.904Z" fill="url(#paint8_linear_462_635)"/>
<path d="M146.969 143.977L143.315 147.284C154.674 147.053 158.47 149.644 163.298 162.48C164.105 159.969 164.371 158.633 165.301 155.475C164.327 152.96 163.43 151.75 161.053 150.036L164.455 150.508C163.225 147.603 159.242 145.712 146.969 143.977Z" fill="url(#paint9_linear_462_635)"/>
<path d="M122.715 138.904L124.737 143.399C114.201 139.506 108.61 142.588 98.8941 152.363C99.7974 148.09 100.39 145.963 102.008 143.914L100.814 143.185C103.115 141.477 104.427 140.92 106.79 140.363L103.58 138.974C110.762 135.984 114.589 136.129 122.715 138.904Z" stroke="#962F0D"/>
<path d="M146.969 143.977L143.315 147.284C154.674 147.053 158.47 149.644 163.298 162.48C164.105 159.969 164.371 158.633 165.301 155.475C164.327 152.96 163.43 151.75 161.053 150.036L164.455 150.508C163.225 147.603 159.242 145.712 146.969 143.977Z" stroke="#962F0D"/>
</g>
<g filter="url(#filter37_f_462_635)">
<path d="M122.053 180.302C121.371 182.454 120.651 183.277 118.96 184.291" stroke="#9D6256"/>
</g>
<g filter="url(#filter38_f_462_635)">
<path d="M142.47 156.475C150.535 159.12 155.228 161.239 157.904 170.241" stroke="#9D6256" stroke-opacity="0.8"/>
</g>
<g filter="url(#filter39_f_462_635)">
<path d="M147.438 158.472C143.703 159.198 142.356 160.416 140.304 162.967" stroke="#9D6256" stroke-opacity="0.8"/>
</g>
<g filter="url(#filter40_f_462_635)">
<path d="M137.653 178.219C141.151 184.786 144.079 186.679 151.305 186.343" stroke="#9D6256" stroke-opacity="0.8"/>
</g>
<g filter="url(#filter41_f_462_635)">
<path d="M119.736 173.753C112.858 179.935 109.079 180.635 102.491 176.373" stroke="#9D6256" stroke-opacity="0.8"/>
</g>
<g filter="url(#filter42_f_462_635)">
<path d="M118.158 185.158C114.322 185.681 112.333 187.852 112.141 190.629C111.964 193.198 114.938 193.657 116.82 195.416C121.717 204.872 124.718 205.26 132.398 198.195C134.655 198.167 136.831 198.03 137.53 195.883C138.229 193.737 137.66 191.437 134.929 188.666" stroke="#9D6256"/>
</g>
<g filter="url(#filter43_f_462_635)">
<path d="M116.047 215.85C119.915 218.476 122.513 219.187 127.142 218.171" stroke="#9D6256"/>
</g>
<g filter="url(#filter44_f_462_635)">
<path d="M103.536 204.852C105.659 204.683 106.314 204.124 107.514 202.57" stroke="#9D6256" stroke-width="2"/>
</g>
<g filter="url(#filter45_f_462_635)">
<path d="M105.84 204.136C117.066 213.844 124.531 215.806 140.865 210.504" stroke="#9D6256" stroke-width="2"/>
</g>
<g filter="url(#filter46_f_462_635)">
<path d="M140.427 208.736C140.411 209.751 140.877 211.037 142.173 211.975" stroke="#9D6256" stroke-width="2"/>
</g>
<path fill-rule="evenodd" clip-rule="evenodd" d="M154.718 173.885C151.937 187.181 136.645 183.042 139.237 170.647C139.468 169.543 139.803 168.556 140.219 167.683C144.799 160.794 153.601 161.198 155.047 170.784C155.054 171.74 154.951 172.774 154.718 173.885Z" fill="#FBF9FA"/>
<path d="M140.219 167.683C139.803 168.556 139.468 169.543 139.237 170.647C136.645 183.042 151.937 187.181 154.718 173.885C154.951 172.774 155.054 171.74 155.047 170.784M140.219 167.683C144.799 160.794 153.601 161.198 155.047 170.784M140.219 167.683C144.084 159.575 154.979 161.32 155.047 170.784" stroke="black"/>
<path fill-rule="evenodd" clip-rule="evenodd" d="M120.467 167.68C117.686 180.976 102.394 176.836 104.986 164.442C105.217 163.337 105.552 162.35 105.968 161.477C110.548 154.588 119.092 154.939 120.796 164.578C120.803 165.534 120.7 166.569 120.467 167.68Z" fill="#FBF9FA"/>
<path d="M105.968 161.477C105.552 162.35 105.217 163.337 104.986 164.442C102.394 176.836 117.686 180.976 120.467 167.68C120.7 166.569 120.803 165.534 120.796 164.578M105.968 161.477C110.548 154.588 119.092 154.939 120.796 164.578M105.968 161.477C109.833 153.369 120.728 155.115 120.796 164.578" stroke="black"/>
<path d="M150.891 169.748C150.771 168.509 150.309 167.578 149.707 166.881C147.739 164.599 143.463 164.778 141.847 167.322C140.599 169.285 140.951 172.031 142.636 173.634C142.721 173.716 142.809 173.792 142.901 173.865C144.785 175.351 147.735 175.068 149.509 173.453C150.387 172.654 151.058 171.472 150.891 169.748Z" fill="url(#paint10_linear_462_635)" stroke="#4C738A"/>
<path d="M148.579 169.153C148.481 168.413 148.102 167.896 147.654 167.538C146.591 166.687 144.712 166.716 143.841 167.762C143.028 168.737 143.344 170.26 144.372 171.007C144.443 171.058 144.517 171.106 144.596 171.15C145.566 171.691 146.837 171.643 147.747 171.007C148.273 170.64 148.7 170.06 148.579 169.153Z" fill="black" stroke="black"/>
<path d="M149.386 168.115C149.327 167.67 149.1 167.36 148.831 167.145C148.193 166.635 147.065 166.652 146.543 167.28C146.055 167.865 146.245 168.779 146.861 169.227C146.904 169.258 146.949 169.286 146.996 169.313C147.578 169.637 148.34 169.608 148.887 169.227C149.202 169.007 149.458 168.659 149.386 168.115Z" fill="url(#paint11_linear_462_635)" stroke="#BEE0E8" stroke-opacity="0.3"/>
<path d="M117.864 162.84C117.744 161.602 117.282 160.671 116.68 159.973C114.712 157.691 110.436 157.871 108.82 160.414C107.573 162.377 107.924 165.123 109.609 166.727C109.694 166.808 109.783 166.885 109.875 166.958C111.758 168.444 114.708 168.161 116.482 166.545C117.36 165.746 118.031 164.565 117.864 162.84Z" fill="url(#paint12_linear_462_635)" stroke="#4C738A"/>
<path d="M115.553 162.246C115.454 161.506 115.075 160.989 114.627 160.63C113.565 159.78 111.685 159.809 110.814 160.854C110.001 161.83 110.318 163.353 111.345 164.099C111.416 164.151 111.491 164.198 111.569 164.242C112.539 164.783 113.81 164.735 114.721 164.1C115.246 163.733 115.674 163.153 115.553 162.246Z" fill="black" stroke="black"/>
<path d="M116.359 161.207C116.3 160.763 116.073 160.453 115.804 160.238C115.166 159.727 114.038 159.745 113.516 160.372C113.028 160.957 113.218 161.871 113.834 162.319C113.877 162.35 113.922 162.379 113.969 162.405C114.551 162.729 115.313 162.701 115.86 162.319C116.175 162.099 116.432 161.751 116.359 161.207Z" fill="url(#paint13_linear_462_635)" stroke="#BEE0E8" stroke-opacity="0.3"/>
<g filter="url(#filter47_f_462_635)">
<path d="M103.929 159.191C109.506 153.934 112.77 151.439 120.346 152.806" stroke="#9D6256" stroke-opacity="0.8"/>
</g>
<g filter="url(#filter48_f_462_635)">
<ellipse cx="151.598" cy="199.098" rx="10.5442" ry="7.97016" transform="rotate(11.813 151.598 199.098)" fill="#E88E85"/>
</g>
<g filter="url(#filter49_f_462_635)">
<ellipse cx="125.233" cy="193.823" rx="7.38096" ry="5.86041" transform="rotate(11.813 125.233 193.823)" fill="#F9796C"/>
</g>
<g filter="url(#filter50_f_462_635)">
<ellipse cx="98.4471" cy="187.981" rx="10.5442" ry="7.97016" transform="rotate(11.813 98.4471 187.981)" fill="#E88E85"/>
</g>
<g filter="url(#filter51_d_462_635)">
<path d="M77.0635 233.562C74.381 229.648 74.4103 228.221 74.1169 225.761C74.7213 218.407 75.4881 214.576 88.3255 219.632C98.0719 224.645 103.791 227.664 110.756 233.424C111.05 233.338 110.43 233.728 110.709 233.65C115.28 232.371 117.634 231.728 120.495 234.503C127.9 232.144 129.619 233.473 130.835 237.859C143.589 233.123 150.812 230.114 162.276 231.746C167.257 234.859 166.662 238.988 160.543 246.471C162.806 259.676 160.862 264.26 156.235 264.49C151.609 264.72 144.661 264.464 136.626 260.388C131.94 257.202 129.685 255.25 126.97 251.184C126.218 252.466 125.245 252.889 119.62 251.563C117.756 252.302 116.593 252.161 114.201 250.43C109.315 254.558 106.201 256.295 99.7048 257.935C91.9051 261.058 87.9447 261.32 81.1995 258.855L77.9231 256.493C77.1026 251.437 77.8499 247.593 80.5562 240.04C79.293 237.531 78.3267 236.071 77.0635 233.562Z" fill="url(#paint14_linear_462_635)"/>
<path d="M130.835 237.859C129.619 233.473 127.9 232.144 120.495 234.503C117.634 231.728 115.28 232.371 110.709 233.65M130.835 237.859C143.589 233.123 150.812 230.114 162.276 231.746C167.257 234.859 166.662 238.988 160.543 246.471C162.806 259.676 160.862 264.26 156.235 264.49C151.609 264.72 144.661 264.464 136.626 260.388C131.94 257.202 129.685 255.25 126.97 251.184C126.218 252.466 125.245 252.889 119.62 251.563C117.756 252.302 116.593 252.161 114.201 250.43M130.835 237.859C131.182 243.399 130.398 246.222 127.324 250.779M114.201 250.43C109.315 254.558 106.201 256.295 99.7048 257.935C91.9051 261.058 87.9447 261.32 81.1995 258.855L77.9231 256.493C77.1026 251.437 77.8499 247.593 80.5562 240.04C79.293 237.531 78.3267 236.071 77.0635 233.562C74.381 229.648 74.4103 228.221 74.1169 225.761C74.7213 218.407 75.4881 214.576 88.3255 219.632C98.0719 224.645 103.791 227.664 110.756 233.424C111.05 233.338 110.43 233.728 110.709 233.65M114.201 250.43C116.271 243.573 116.121 240.243 110.709 233.65M88.9638 255.21C96.5897 254.595 100.678 253.189 107.589 248.568" stroke="#194654" stroke-width="2"/>
</g>
<g filter="url(#filter52_f_462_635)">
<path d="M120.892 250.632C124.32 248.747 124.976 247.337 125.638 244.679" stroke="#12343E"/>
</g>
<defs>
<filter id="filter0_n_462_635" x="63.8887" y="195.127" width="117.051" height="43.1815" filterUnits="userSpaceOnUse" color-interpolation-filters="sRGB">
<feFlood flood-opacity="0" result="BackgroundImageFix"/>
<feBlend mode="normal" in="SourceGraphic" in2="BackgroundImageFix" result="shape"/>
<feTurbulence type="fractalNoise" baseFrequency="2 2" stitchTiles="stitch" numOctaves="3" result="noise" seed="9668" />
<feColorMatrix in="noise" type="luminanceToAlpha" result="alphaNoise" />
<feComponentTransfer in="alphaNoise" result="coloredNoise1">
<feFuncA type="discrete" tableValues="0 0 0 0 0 0 0 0 0 0 0 0 1 1 1 1 1 1 1 1 1 1 1 1 1 1 1 1 1 1 1 1 1 1 1 1 1 1 0 0 0 0 0 0 0 0 0 0 0 0 0 0 0 0 0 0 0 0 0 0 0 0 0 0 0 0 0 0 0 0 0 0 0 0 0 0 0 0 0 0 0 0 0 0 0 0 0 0 0 0 0 0 0 0 0 0 0 0 0 0 "/>
</feComponentTransfer>
<feComposite operator="in" in2="shape" in="coloredNoise1" result="noise1Clipped" />
<feFlood flood-color="rgba(0, 0, 0, 0.05)" result="color1Flood" />
<feComposite operator="in" in2="noise1Clipped" in="color1Flood" result="color1" />
<feMerge result="effect1_noise_462_635">
<feMergeNode in="shape" />
<feMergeNode in="color1" />
</feMerge>
</filter>
<filter id="filter1_f_462_635" x="70.917" y="158.533" width="19.7578" height="20.6951" filterUnits="userSpaceOnUse" color-interpolation-filters="sRGB">
<feFlood flood-opacity="0" result="BackgroundImageFix"/>
<feBlend mode="normal" in="SourceGraphic" in2="BackgroundImageFix" result="shape"/>
<feGaussianBlur stdDeviation="1.5" result="effect1_foregroundBlur_462_635"/>
</filter>
<filter id="filter2_f_462_635" x="90.752" y="233.62" width="25.6963" height="11.4619" filterUnits="userSpaceOnUse" color-interpolation-filters="sRGB">
<feFlood flood-opacity="0" result="BackgroundImageFix"/>
<feBlend mode="normal" in="SourceGraphic" in2="BackgroundImageFix" result="shape"/>
<feGaussianBlur stdDeviation="1" result="effect1_foregroundBlur_462_635"/>
</filter>
<filter id="filter3_f_462_635" x="129.444" y="239.384" width="24.936" height="11.105" filterUnits="userSpaceOnUse" color-interpolation-filters="sRGB">
<feFlood flood-opacity="0" result="BackgroundImageFix"/>
<feBlend mode="normal" in="SourceGraphic" in2="BackgroundImageFix" result="shape"/>
<feGaussianBlur stdDeviation="1" result="effect1_foregroundBlur_462_635"/>
</filter>
<filter id="filter4_f_462_635" x="77.9902" y="230.947" width="9.25342" height="11.6881" filterUnits="userSpaceOnUse" color-interpolation-filters="sRGB">
<feFlood flood-opacity="0" result="BackgroundImageFix"/>
<feBlend mode="normal" in="SourceGraphic" in2="BackgroundImageFix" result="shape"/>
<feGaussianBlur stdDeviation="1" result="effect1_foregroundBlur_462_635"/>
</filter>
<filter id="filter5_f_462_635" x="134.394" y="189.948" width="17.3423" height="21.8427" filterUnits="userSpaceOnUse" color-interpolation-filters="sRGB">
<feFlood flood-opacity="0" result="BackgroundImageFix"/>
<feBlend mode="normal" in="SourceGraphic" in2="BackgroundImageFix" result="shape"/>
<feGaussianBlur stdDeviation="1.5" result="effect1_foregroundBlur_462_635"/>
</filter>
<filter id="filter6_f_462_635" x="95.1084" y="185.789" width="20.5767" height="17.6011" filterUnits="userSpaceOnUse" color-interpolation-filters="sRGB">
<feFlood flood-opacity="0" result="BackgroundImageFix"/>
<feBlend mode="normal" in="SourceGraphic" in2="BackgroundImageFix" result="shape"/>
<feGaussianBlur stdDeviation="1.5" result="effect1_foregroundBlur_462_635"/>
</filter>
<filter id="filter7_f_462_635" x="71.6772" y="159.171" width="10.4551" height="14.9127" filterUnits="userSpaceOnUse" color-interpolation-filters="sRGB">
<feFlood flood-opacity="0" result="BackgroundImageFix"/>
<feBlend mode="normal" in="SourceGraphic" in2="BackgroundImageFix" result="shape"/>
<feGaussianBlur stdDeviation="2" result="effect1_foregroundBlur_462_635"/>
</filter>
<filter id="filter8_f_462_635" x="114.369" y="149.894" width="9.40186" height="12.1306" filterUnits="userSpaceOnUse" color-interpolation-filters="sRGB">
<feFlood flood-opacity="0" result="BackgroundImageFix"/>
<feBlend mode="normal" in="SourceGraphic" in2="BackgroundImageFix" result="shape"/>
<feGaussianBlur stdDeviation="1" result="effect1_foregroundBlur_462_635"/>
</filter>
<filter id="filter9_f_462_635" x="120.337" y="155.925" width="7.75586" height="24.7488" filterUnits="userSpaceOnUse" color-interpolation-filters="sRGB">
<feFlood flood-opacity="0" result="BackgroundImageFix"/>
<feBlend mode="normal" in="SourceGraphic" in2="BackgroundImageFix" result="shape"/>
<feGaussianBlur stdDeviation="1" result="effect1_foregroundBlur_462_635"/>
</filter>
<filter id="filter10_f_462_635" x="78.1479" y="165.25" width="9.50879" height="15.3191" filterUnits="userSpaceOnUse" color-interpolation-filters="sRGB">
<feFlood flood-opacity="0" result="BackgroundImageFix"/>
<feBlend mode="normal" in="SourceGraphic" in2="BackgroundImageFix" result="shape"/>
<feGaussianBlur stdDeviation="1.5" result="effect1_foregroundBlur_462_635"/>
</filter>
<filter id="filter11_f_462_635" x="80.7349" y="130.191" width="14.2134" height="10.0863" filterUnits="userSpaceOnUse" color-interpolation-filters="sRGB">
<feFlood flood-opacity="0" result="BackgroundImageFix"/>
<feBlend mode="normal" in="SourceGraphic" in2="BackgroundImageFix" result="shape"/>
<feGaussianBlur stdDeviation="1.5" result="effect1_foregroundBlur_462_635"/>
</filter>
<filter id="filter12_n_462_635" x="21.4355" y="116.278" width="82.9194" height="80.6099" filterUnits="userSpaceOnUse" color-interpolation-filters="sRGB">
<feFlood flood-opacity="0" result="BackgroundImageFix"/>
<feBlend mode="normal" in="SourceGraphic" in2="BackgroundImageFix" result="shape"/>
<feTurbulence type="fractalNoise" baseFrequency="2 2" stitchTiles="stitch" numOctaves="3" result="noise" seed="8053" />
<feColorMatrix in="noise" type="luminanceToAlpha" result="alphaNoise" />
<feComponentTransfer in="alphaNoise" result="coloredNoise1">
<feFuncA type="discrete" tableValues="0 0 0 0 0 0 0 0 0 0 0 0 1 1 1 1 1 1 1 1 1 1 1 1 1 1 1 1 1 1 1 1 1 1 1 1 1 1 0 0 0 0 0 0 0 0 0 0 0 0 0 0 0 0 0 0 0 0 0 0 0 0 0 0 0 0 0 0 0 0 0 0 0 0 0 0 0 0 0 0 0 0 0 0 0 0 0 0 0 0 0 0 0 0 0 0 0 0 0 0 "/>
</feComponentTransfer>
<feComposite operator="in" in2="shape" in="coloredNoise1" result="noise1Clipped" />
<feFlood flood-color="rgba(0, 0, 0, 0.4)" result="color1Flood" />
<feComposite operator="in" in2="noise1Clipped" in="color1Flood" result="color1" />
<feMerge result="effect1_noise_462_635">
<feMergeNode in="shape" />
<feMergeNode in="color1" />
</feMerge>
</filter>
<filter id="filter13_n_462_635" x="160.628" y="144.642" width="70.9365" height="62.8794" filterUnits="userSpaceOnUse" color-interpolation-filters="sRGB">
<feFlood flood-opacity="0" result="BackgroundImageFix"/>
<feBlend mode="normal" in="SourceGraphic" in2="BackgroundImageFix" result="shape"/>
<feTurbulence type="fractalNoise" baseFrequency="2 2" stitchTiles="stitch" numOctaves="3" result="noise" seed="182" />
<feColorMatrix in="noise" type="luminanceToAlpha" result="alphaNoise" />
<feComponentTransfer in="alphaNoise" result="coloredNoise1">
<feFuncA type="discrete" tableValues="0 0 0 0 0 0 0 0 0 0 0 0 1 1 1 1 1 1 1 1 1 1 1 1 1 1 1 1 1 1 1 1 1 1 1 1 1 1 0 0 0 0 0 0 0 0 0 0 0 0 0 0 0 0 0 0 0 0 0 0 0 0 0 0 0 0 0 0 0 0 0 0 0 0 0 0 0 0 0 0 0 0 0 0 0 0 0 0 0 0 0 0 0 0 0 0 0 0 0 0 "/>
</feComponentTransfer>
<feComposite operator="in" in2="shape" in="coloredNoise1" result="noise1Clipped" />
<feFlood flood-color="rgba(0, 0, 0, 0.2)" result="color1Flood" />
<feComposite operator="in" in2="noise1Clipped" in="color1Flood" result="color1" />
<feMerge result="effect1_noise_462_635">
<feMergeNode in="shape" />
<feMergeNode in="color1" />
</feMerge>
</filter>
<filter id="filter14_n_462_635" x="80.458" y="83.7244" width="115.745" height="54.0114" filterUnits="userSpaceOnUse" color-interpolation-filters="sRGB">
<feFlood flood-opacity="0" result="BackgroundImageFix"/>
<feBlend mode="normal" in="SourceGraphic" in2="BackgroundImageFix" result="shape"/>
<feTurbulence type="fractalNoise" baseFrequency="2 2" stitchTiles="stitch" numOctaves="3" result="noise" seed="2275" />
<feColorMatrix in="noise" type="luminanceToAlpha" result="alphaNoise" />
<feComponentTransfer in="alphaNoise" result="coloredNoise1">
<feFuncA type="discrete" tableValues="0 0 0 0 0 0 0 0 0 0 0 0 1 1 1 1 1 1 1 1 1 1 1 1 1 1 1 1 1 1 1 1 1 1 1 1 1 1 0 0 0 0 0 0 0 0 0 0 0 0 0 0 0 0 0 0 0 0 0 0 0 0 0 0 0 0 0 0 0 0 0 0 0 0 0 0 0 0 0 0 0 0 0 0 0 0 0 0 0 0 0 0 0 0 0 0 0 0 0 0 "/>
</feComponentTransfer>
<feComposite operator="in" in2="shape" in="coloredNoise1" result="noise1Clipped" />
<feFlood flood-color="rgba(0, 0, 0, 0.2)" result="color1Flood" />
<feComposite operator="in" in2="noise1Clipped" in="color1Flood" result="color1" />
<feMerge result="effect1_noise_462_635">
<feMergeNode in="shape" />
<feMergeNode in="color1" />
</feMerge>
</filter>
<filter id="filter15_f_462_635" x="100.138" y="105.856" width="69.6562" height="11.1774" filterUnits="userSpaceOnUse" color-interpolation-filters="sRGB">
<feFlood flood-opacity="0" result="BackgroundImageFix"/>
<feBlend mode="normal" in="SourceGraphic" in2="BackgroundImageFix" result="shape"/>
<feGaussianBlur stdDeviation="1.5" result="effect1_foregroundBlur_462_635"/>
</filter>
<filter id="filter16_f_462_635" x="108.654" y="111.105" width="78.5142" height="16.8999" filterUnits="userSpaceOnUse" color-interpolation-filters="sRGB">
<feFlood flood-opacity="0" result="BackgroundImageFix"/>
<feBlend mode="normal" in="SourceGraphic" in2="BackgroundImageFix" result="shape"/>
<feGaussianBlur stdDeviation="2" result="effect1_foregroundBlur_462_635"/>
</filter>
<filter id="filter17_n_462_635" x="44.6792" y="97.686" width="181.488" height="62.0011" filterUnits="userSpaceOnUse" color-interpolation-filters="sRGB">
<feFlood flood-opacity="0" result="BackgroundImageFix"/>
<feBlend mode="normal" in="SourceGraphic" in2="BackgroundImageFix" result="shape"/>
<feTurbulence type="fractalNoise" baseFrequency="2 2" stitchTiles="stitch" numOctaves="3" result="noise" seed="1718" />
<feColorMatrix in="noise" type="luminanceToAlpha" result="alphaNoise" />
<feComponentTransfer in="alphaNoise" result="coloredNoise1">
<feFuncA type="discrete" tableValues="0 0 0 0 0 0 0 0 0 0 0 0 1 1 1 1 1 1 1 1 1 1 1 1 1 1 1 1 1 1 1 1 1 1 1 1 1 1 0 0 0 0 0 0 0 0 0 0 0 0 0 0 0 0 0 0 0 0 0 0 0 0 0 0 0 0 0 0 0 0 0 0 0 0 0 0 0 0 0 0 0 0 0 0 0 0 0 0 0 0 0 0 0 0 0 0 0 0 0 0 "/>
</feComponentTransfer>
<feComposite operator="in" in2="shape" in="coloredNoise1" result="noise1Clipped" />
<feFlood flood-color="rgba(0, 0, 0, 0.4)" result="color1Flood" />
<feComposite operator="in" in2="noise1Clipped" in="color1Flood" result="color1" />
<feMerge result="effect1_noise_462_635">
<feMergeNode in="shape" />
<feMergeNode in="color1" />
</feMerge>
</filter>
<filter id="filter18_f_462_635" x="214.25" y="129.682" width="15.5981" height="13.594" filterUnits="userSpaceOnUse" color-interpolation-filters="sRGB">
<feFlood flood-opacity="0" result="BackgroundImageFix"/>
<feBlend mode="normal" in="SourceGraphic" in2="BackgroundImageFix" result="shape"/>
<feGaussianBlur stdDeviation="2" result="effect1_foregroundBlur_462_635"/>
</filter>
<filter id="filter19_n_462_635" x="73.3882" y="16.0925" width="154.088" height="96.051" filterUnits="userSpaceOnUse" color-interpolation-filters="sRGB">
<feFlood flood-opacity="0" result="BackgroundImageFix"/>
<feBlend mode="normal" in="SourceGraphic" in2="BackgroundImageFix" result="shape"/>
<feTurbulence type="fractalNoise" baseFrequency="2 2" stitchTiles="stitch" numOctaves="3" result="noise" seed="8239" />
<feComponentTransfer in="noise" result="coloredNoise1">
<feFuncR type="linear" slope="2" intercept="-0.5" />
<feFuncG type="linear" slope="2" intercept="-0.5" />
<feFuncB type="linear" slope="2" intercept="-0.5" />
<feFuncA type="discrete" tableValues="0 0 0 0 0 0 0 0 0 0 0 0 1 1 1 1 1 1 1 1 1 1 1 1 1 1 1 1 1 1 1 1 1 1 1 1 1 1 0 0 0 0 0 0 0 0 0 0 0 0 0 0 0 0 0 0 0 0 0 0 0 0 0 0 0 0 0 0 0 0 0 0 0 0 0 0 0 0 0 0 0 0 0 0 0 0 0 0 0 0 0 0 0 0 0 0 0 0 0 0 "/>
</feComponentTransfer>
<feComposite operator="in" in2="shape" in="coloredNoise1" result="noise1Clipped" />
<feComponentTransfer in="noise1Clipped" result="color1">
<feFuncA type="table" tableValues="0 0.4" />
</feComponentTransfer>
<feMerge result="effect1_noise_462_635">
<feMergeNode in="shape" />
<feMergeNode in="color1" />
</feMerge>
</filter>
<filter id="filter20_f_462_635" x="184.348" y="60.8546" width="33.6968" height="45.2233" filterUnits="userSpaceOnUse" color-interpolation-filters="sRGB">
<feFlood flood-opacity="0" result="BackgroundImageFix"/>
<feBlend mode="normal" in="SourceGraphic" in2="BackgroundImageFix" result="shape"/>
<feGaussianBlur stdDeviation="2" result="effect1_foregroundBlur_462_635"/>
</filter>
<filter id="filter21_f_462_635" x="180.559" y="73.7043" width="22.7534" height="29.9103" filterUnits="userSpaceOnUse" color-interpolation-filters="sRGB">
<feFlood flood-opacity="0" result="BackgroundImageFix"/>
<feBlend mode="normal" in="SourceGraphic" in2="BackgroundImageFix" result="shape"/>
<feGaussianBlur stdDeviation="2" result="effect1_foregroundBlur_462_635"/>
</filter>
<filter id="filter22_f_462_635" x="178.3" y="82.5723" width="13.979" height="18.8684" filterUnits="userSpaceOnUse" color-interpolation-filters="sRGB">
<feFlood flood-opacity="0" result="BackgroundImageFix"/>
<feBlend mode="normal" in="SourceGraphic" in2="BackgroundImageFix" result="shape"/>
<feGaussianBlur stdDeviation="2" result="effect1_foregroundBlur_462_635"/>
</filter>
<filter id="filter23_f_462_635" x="103.165" y="45.6129" width="13.2744" height="40.9966" filterUnits="userSpaceOnUse" color-interpolation-filters="sRGB">
<feFlood flood-opacity="0" result="BackgroundImageFix"/>
<feBlend mode="normal" in="SourceGraphic" in2="BackgroundImageFix" result="shape"/>
<feGaussianBlur stdDeviation="2" result="effect1_foregroundBlur_462_635"/>
</filter>
<filter id="filter24_f_462_635" x="96.8169" y="35.9823" width="14.9473" height="51.0964" filterUnits="userSpaceOnUse" color-interpolation-filters="sRGB">
<feFlood flood-opacity="0" result="BackgroundImageFix"/>
<feBlend mode="normal" in="SourceGraphic" in2="BackgroundImageFix" result="shape"/>
<feGaussianBlur stdDeviation="2" result="effect1_foregroundBlur_462_635"/>
</filter>
<filter id="filter25_f_462_635" x="84.4399" y="33.3621" width="16.7607" height="35.9867" filterUnits="userSpaceOnUse" color-interpolation-filters="sRGB">
<feFlood flood-opacity="0" result="BackgroundImageFix"/>
<feBlend mode="normal" in="SourceGraphic" in2="BackgroundImageFix" result="shape"/>
<feGaussianBlur stdDeviation="2" result="effect1_foregroundBlur_462_635"/>
</filter>
<filter id="filter26_f_462_635" x="79.2983" y="33.4839" width="16.2944" height="35.6417" filterUnits="userSpaceOnUse" color-interpolation-filters="sRGB">
<feFlood flood-opacity="0" result="BackgroundImageFix"/>
<feBlend mode="normal" in="SourceGraphic" in2="BackgroundImageFix" result="shape"/>
<feGaussianBlur stdDeviation="2" result="effect1_foregroundBlur_462_635"/>
</filter>
<filter id="filter27_n_462_635" x="50.269" y="63.8856" width="63.7246" height="48.1746" filterUnits="userSpaceOnUse" color-interpolation-filters="sRGB">
<feFlood flood-opacity="0" result="BackgroundImageFix"/>
<feBlend mode="normal" in="SourceGraphic" in2="BackgroundImageFix" result="shape"/>
<feTurbulence type="fractalNoise" baseFrequency="2 2" stitchTiles="stitch" numOctaves="3" result="noise" seed="9632" />
<feColorMatrix in="noise" type="luminanceToAlpha" result="alphaNoise" />
<feComponentTransfer in="alphaNoise" result="coloredNoise1">
<feFuncA type="discrete" tableValues="0 0 0 0 0 0 0 0 0 0 0 0 1 1 1 1 1 1 1 1 1 1 1 1 1 1 1 1 1 1 1 1 1 1 1 1 1 1 0 0 0 0 0 0 0 0 0 0 0 0 0 0 0 0 0 0 0 0 0 0 0 0 0 0 0 0 0 0 0 0 0 0 0 0 0 0 0 0 0 0 0 0 0 0 0 0 0 0 0 0 0 0 0 0 0 0 0 0 0 0 "/>
</feComponentTransfer>
<feComposite operator="in" in2="shape" in="coloredNoise1" result="noise1Clipped" />
<feFlood flood-color="rgba(0, 0, 0, 0.25)" result="color1Flood" />
<feComposite operator="in" in2="noise1Clipped" in="color1Flood" result="color1" />
<feMerge result="effect1_noise_462_635">
<feMergeNode in="shape" />
<feMergeNode in="color1" />
</feMerge>
</filter>
<filter id="filter28_d_462_635" x="70.0464" y="75.9489" width="20.8369" height="30.7363" filterUnits="userSpaceOnUse" color-interpolation-filters="sRGB">
<feFlood flood-opacity="0" result="BackgroundImageFix"/>
<feColorMatrix in="SourceAlpha" type="matrix" values="0 0 0 0 0 0 0 0 0 0 0 0 0 0 0 0 0 0 127 0" result="hardAlpha"/>
<feOffset dy="2"/>
<feGaussianBlur stdDeviation="1"/>
<feComposite in2="hardAlpha" operator="out"/>
<feColorMatrix type="matrix" values="0 0 0 0 0 0 0 0 0 0 0 0 0 0 0 0 0 0 0.25 0"/>
<feBlend mode="normal" in2="BackgroundImageFix" result="effect1_dropShadow_462_635"/>
<feBlend mode="normal" in="SourceGraphic" in2="effect1_dropShadow_462_635" result="shape"/>
</filter>
<filter id="filter29_d_462_635" x="61.6001" y="71.0919" width="18.3872" height="34.6023" filterUnits="userSpaceOnUse" color-interpolation-filters="sRGB">
<feFlood flood-opacity="0" result="BackgroundImageFix"/>
<feColorMatrix in="SourceAlpha" type="matrix" values="0 0 0 0 0 0 0 0 0 0 0 0 0 0 0 0 0 0 127 0" result="hardAlpha"/>
<feOffset dy="2"/>
<feGaussianBlur stdDeviation="1"/>
<feComposite in2="hardAlpha" operator="out"/>
<feColorMatrix type="matrix" values="0 0 0 0 0 0 0 0 0 0 0 0 0 0 0 0 0 0 0.25 0"/>
<feBlend mode="normal" in2="BackgroundImageFix" result="effect1_dropShadow_462_635"/>
<feBlend mode="normal" in="SourceGraphic" in2="effect1_dropShadow_462_635" result="shape"/>
</filter>
<filter id="filter30_d_462_635" x="85.1631" y="70.0774" width="8.79297" height="36.356" filterUnits="userSpaceOnUse" color-interpolation-filters="sRGB">
<feFlood flood-opacity="0" result="BackgroundImageFix"/>
<feColorMatrix in="SourceAlpha" type="matrix" values="0 0 0 0 0 0 0 0 0 0 0 0 0 0 0 0 0 0 127 0" result="hardAlpha"/>
<feOffset dy="2"/>
<feGaussianBlur stdDeviation="1"/>
<feComposite in2="hardAlpha" operator="out"/>
<feColorMatrix type="matrix" values="0 0 0 0 0 0 0 0 0 0 0 0 0 0 0 0 0 0 0.25 0"/>
<feBlend mode="normal" in2="BackgroundImageFix" result="effect1_dropShadow_462_635"/>
<feBlend mode="normal" in="SourceGraphic" in2="effect1_dropShadow_462_635" result="shape"/>
</filter>
<filter id="filter31_d_462_635" x="89.1392" y="79.951" width="16" height="24.5118" filterUnits="userSpaceOnUse" color-interpolation-filters="sRGB">
<feFlood flood-opacity="0" result="BackgroundImageFix"/>
<feColorMatrix in="SourceAlpha" type="matrix" values="0 0 0 0 0 0 0 0 0 0 0 0 0 0 0 0 0 0 127 0" result="hardAlpha"/>
<feOffset dy="2"/>
<feGaussianBlur stdDeviation="1"/>
<feComposite in2="hardAlpha" operator="out"/>
<feColorMatrix type="matrix" values="0 0 0 0 0 0 0 0 0 0 0 0 0 0 0 0 0 0 0.25 0"/>
<feBlend mode="normal" in2="BackgroundImageFix" result="effect1_dropShadow_462_635"/>
<feBlend mode="normal" in="SourceGraphic" in2="effect1_dropShadow_462_635" result="shape"/>
</filter>
<filter id="filter32_f_462_635" x="137.839" y="117.599" width="48.6641" height="16.244" filterUnits="userSpaceOnUse" color-interpolation-filters="sRGB">
<feFlood flood-opacity="0" result="BackgroundImageFix"/>
<feBlend mode="normal" in="SourceGraphic" in2="BackgroundImageFix" result="shape"/>
<feGaussianBlur stdDeviation="2" result="effect1_foregroundBlur_462_635"/>
</filter>
<filter id="filter33_f_462_635" x="161.828" y="177.455" width="20.5425" height="16.5585" filterUnits="userSpaceOnUse" color-interpolation-filters="sRGB">
<feFlood flood-opacity="0" result="BackgroundImageFix"/>
<feBlend mode="normal" in="SourceGraphic" in2="BackgroundImageFix" result="shape"/>
<feGaussianBlur stdDeviation="1.5" result="effect1_foregroundBlur_462_635"/>
</filter>
<filter id="filter34_f_462_635" x="73.8506" y="158.021" width="15.7544" height="21.1906" filterUnits="userSpaceOnUse" color-interpolation-filters="sRGB">
<feFlood flood-opacity="0" result="BackgroundImageFix"/>
<feBlend mode="normal" in="SourceGraphic" in2="BackgroundImageFix" result="shape"/>
<feGaussianBlur stdDeviation="1.5" result="effect1_foregroundBlur_462_635"/>
</filter>
<filter id="filter35_f_462_635" x="165.484" y="181.946" width="9.03369" height="14.324" filterUnits="userSpaceOnUse" color-interpolation-filters="sRGB">
<feFlood flood-opacity="0" result="BackgroundImageFix"/>
<feBlend mode="normal" in="SourceGraphic" in2="BackgroundImageFix" result="shape"/>
<feGaussianBlur stdDeviation="1.5" result="effect1_foregroundBlur_462_635"/>
</filter>
<filter id="filter36_n_462_635" x="98.0547" y="136.277" width="67.7744" height="27.7216" filterUnits="userSpaceOnUse" color-interpolation-filters="sRGB">
<feFlood flood-opacity="0" result="BackgroundImageFix"/>
<feBlend mode="normal" in="SourceGraphic" in2="BackgroundImageFix" result="shape"/>
<feTurbulence type="fractalNoise" baseFrequency="2 2" stitchTiles="stitch" numOctaves="3" result="noise" seed="3603" />
<feColorMatrix in="noise" type="luminanceToAlpha" result="alphaNoise" />
<feComponentTransfer in="alphaNoise" result="coloredNoise1">
<feFuncA type="discrete" tableValues="1 1 1 1 1 1 1 1 1 1 1 1 1 1 1 1 1 1 1 1 1 1 1 1 1 1 1 1 1 1 1 1 1 1 1 1 1 1 1 1 1 1 1 1 1 1 1 1 1 1 1 0 0 0 0 0 0 0 0 0 0 0 0 0 0 0 0 0 0 0 0 0 0 0 0 0 0 0 0 0 0 0 0 0 0 0 0 0 0 0 0 0 0 0 0 0 0 0 0 0 "/>
</feComponentTransfer>
<feComposite operator="in" in2="shape" in="coloredNoise1" result="noise1Clipped" />
<feFlood flood-color="rgba(0, 0, 0, 0.25)" result="color1Flood" />
<feComposite operator="in" in2="noise1Clipped" in="color1Flood" result="color1" />
<feMerge result="effect1_noise_462_635">
<feMergeNode in="shape" />
<feMergeNode in="color1" />
</feMerge>
</filter>
<filter id="filter37_f_462_635" x="114.694" y="176.137" width="11.8345" height="12.5868" filterUnits="userSpaceOnUse" color-interpolation-filters="sRGB">
<feFlood flood-opacity="0" result="BackgroundImageFix"/>
<feBlend mode="normal" in="SourceGraphic" in2="BackgroundImageFix" result="shape"/>
<feGaussianBlur stdDeviation="2" result="effect1_foregroundBlur_462_635"/>
</filter>
<filter id="filter38_f_462_635" x="140.314" y="154" width="20.0688" height="18.3831" filterUnits="userSpaceOnUse" color-interpolation-filters="sRGB">
<feFlood flood-opacity="0" result="BackgroundImageFix"/>
<feBlend mode="normal" in="SourceGraphic" in2="BackgroundImageFix" result="shape"/>
<feGaussianBlur stdDeviation="1" result="effect1_foregroundBlur_462_635"/>
</filter>
<filter id="filter39_f_462_635" x="137.915" y="155.981" width="11.6191" height="9.29932" filterUnits="userSpaceOnUse" color-interpolation-filters="sRGB">
<feFlood flood-opacity="0" result="BackgroundImageFix"/>
<feBlend mode="normal" in="SourceGraphic" in2="BackgroundImageFix" result="shape"/>
<feGaussianBlur stdDeviation="1" result="effect1_foregroundBlur_462_635"/>
</filter>
<filter id="filter40_f_462_635" x="135.212" y="175.984" width="18.1162" height="12.8961" filterUnits="userSpaceOnUse" color-interpolation-filters="sRGB">
<feFlood flood-opacity="0" result="BackgroundImageFix"/>
<feBlend mode="normal" in="SourceGraphic" in2="BackgroundImageFix" result="shape"/>
<feGaussianBlur stdDeviation="1" result="effect1_foregroundBlur_462_635"/>
</filter>
<filter id="filter41_f_462_635" x="100.219" y="171.381" width="21.8511" height="10.1975" filterUnits="userSpaceOnUse" color-interpolation-filters="sRGB">
<feFlood flood-opacity="0" result="BackgroundImageFix"/>
<feBlend mode="normal" in="SourceGraphic" in2="BackgroundImageFix" result="shape"/>
<feGaussianBlur stdDeviation="1" result="effect1_foregroundBlur_462_635"/>
</filter>
<filter id="filter42_f_462_635" x="109.633" y="182.663" width="30.6694" height="22.8951" filterUnits="userSpaceOnUse" color-interpolation-filters="sRGB">
<feFlood flood-opacity="0" result="BackgroundImageFix"/>
<feBlend mode="normal" in="SourceGraphic" in2="BackgroundImageFix" result="shape"/>
<feGaussianBlur stdDeviation="1" result="effect1_foregroundBlur_462_635"/>
</filter>
<filter id="filter43_f_462_635" x="112.767" y="212.437" width="17.4829" height="9.67798" filterUnits="userSpaceOnUse" color-interpolation-filters="sRGB">
<feFlood flood-opacity="0" result="BackgroundImageFix"/>
<feBlend mode="normal" in="SourceGraphic" in2="BackgroundImageFix" result="shape"/>
<feGaussianBlur stdDeviation="1.5" result="effect1_foregroundBlur_462_635"/>
</filter>
<filter id="filter44_f_462_635" x="101.457" y="199.959" width="8.84814" height="7.8894" filterUnits="userSpaceOnUse" color-interpolation-filters="sRGB">
<feFlood flood-opacity="0" result="BackgroundImageFix"/>
<feBlend mode="normal" in="SourceGraphic" in2="BackgroundImageFix" result="shape"/>
<feGaussianBlur stdDeviation="1" result="effect1_foregroundBlur_462_635"/>
</filter>
<filter id="filter45_f_462_635" x="103.186" y="201.38" width="39.9883" height="15.0038" filterUnits="userSpaceOnUse" color-interpolation-filters="sRGB">
<feFlood flood-opacity="0" result="BackgroundImageFix"/>
<feBlend mode="normal" in="SourceGraphic" in2="BackgroundImageFix" result="shape"/>
<feGaussianBlur stdDeviation="1" result="effect1_foregroundBlur_462_635"/>
</filter>
<filter id="filter46_f_462_635" x="137.426" y="206.72" width="7.33301" height="8.06531" filterUnits="userSpaceOnUse" color-interpolation-filters="sRGB">
<feFlood flood-opacity="0" result="BackgroundImageFix"/>
<feBlend mode="normal" in="SourceGraphic" in2="BackgroundImageFix" result="shape"/>
<feGaussianBlur stdDeviation="1" result="effect1_foregroundBlur_462_635"/>
</filter>
<filter id="filter47_f_462_635" x="101.586" y="149.937" width="20.8486" height="11.6185" filterUnits="userSpaceOnUse" color-interpolation-filters="sRGB">
<feFlood flood-opacity="0" result="BackgroundImageFix"/>
<feBlend mode="normal" in="SourceGraphic" in2="BackgroundImageFix" result="shape"/>
<feGaussianBlur stdDeviation="1" result="effect1_foregroundBlur_462_635"/>
</filter>
<filter id="filter48_f_462_635" x="117.148" y="167.001" width="68.9009" height="64.1931" filterUnits="userSpaceOnUse" color-interpolation-filters="sRGB">
<feFlood flood-opacity="0" result="BackgroundImageFix"/>
<feBlend mode="normal" in="SourceGraphic" in2="BackgroundImageFix" result="shape"/>
<feGaussianBlur stdDeviation="12" result="effect1_foregroundBlur_462_635"/>
</filter>
<filter id="filter49_f_462_635" x="93.9082" y="163.889" width="62.6494" height="59.8669" filterUnits="userSpaceOnUse" color-interpolation-filters="sRGB">
<feFlood flood-opacity="0" result="BackgroundImageFix"/>
<feBlend mode="normal" in="SourceGraphic" in2="BackgroundImageFix" result="shape"/>
<feGaussianBlur stdDeviation="12" result="effect1_foregroundBlur_462_635"/>
</filter>
<filter id="filter50_f_462_635" x="63.9966" y="155.884" width="68.9009" height="64.1931" filterUnits="userSpaceOnUse" color-interpolation-filters="sRGB">
<feFlood flood-opacity="0" result="BackgroundImageFix"/>
<feBlend mode="normal" in="SourceGraphic" in2="BackgroundImageFix" result="shape"/>
<feGaussianBlur stdDeviation="12" result="effect1_foregroundBlur_462_635"/>
</filter>
<filter id="filter51_d_462_635" x="69.1118" y="216.332" width="101.506" height="57.217" filterUnits="userSpaceOnUse" color-interpolation-filters="sRGB">
<feFlood flood-opacity="0" result="BackgroundImageFix"/>
<feColorMatrix in="SourceAlpha" type="matrix" values="0 0 0 0 0 0 0 0 0 0 0 0 0 0 0 0 0 0 127 0" result="hardAlpha"/>
<feOffset dy="4"/>
<feGaussianBlur stdDeviation="2"/>
<feComposite in2="hardAlpha" operator="out"/>
<feColorMatrix type="matrix" values="0 0 0 0 0 0 0 0 0 0 0 0 0 0 0 0 0 0 0.25 0"/>
<feBlend mode="normal" in2="BackgroundImageFix" result="effect1_dropShadow_462_635"/>
<feBlend mode="normal" in="SourceGraphic" in2="effect1_dropShadow_462_635" result="shape"/>
</filter>
<filter id="filter52_f_462_635" x="118.652" y="242.558" width="9.47168" height="10.5116" filterUnits="userSpaceOnUse" color-interpolation-filters="sRGB">
<feFlood flood-opacity="0" result="BackgroundImageFix"/>
<feBlend mode="normal" in="SourceGraphic" in2="BackgroundImageFix" result="shape"/>
<feGaussianBlur stdDeviation="1" result="effect1_foregroundBlur_462_635"/>
</filter>
<linearGradient id="paint0_linear_462_635" x1="123.782" y1="203.338" x2="118.586" y2="231.233" gradientUnits="userSpaceOnUse">
<stop stop-color="#D8D6BF"/>
<stop offset="0.982175" stop-color="#E0DDC5"/>
</linearGradient>
<linearGradient id="paint1_linear_462_635" x1="123.782" y1="203.338" x2="118.586" y2="231.233" gradientUnits="userSpaceOnUse">
<stop stop-color="#D8D6BF"/>
<stop offset="0.982175" stop-color="#E0DDC5"/>
</linearGradient>
<linearGradient id="paint2_linear_462_635" x1="124.536" y1="181.702" x2="101.13" y2="213.834" gradientUnits="userSpaceOnUse">
<stop stop-color="#E8B6A2"/>
<stop offset="1" stop-color="#ECB8A6"/>
</linearGradient>
<linearGradient id="paint3_linear_462_635" x1="63.6288" y1="130.406" x2="52.0274" y2="186.894" gradientUnits="userSpaceOnUse">
<stop offset="0.120395" stop-color="#DD6A35"/>
<stop offset="1" stop-color="#932C0B"/>
</linearGradient>
<linearGradient id="paint4_linear_462_635" x1="193.408" y1="164.016" x2="195.737" y2="196.5" gradientUnits="userSpaceOnUse">
<stop offset="0.12" stop-color="#DD6A35"/>
<stop offset="1" stop-color="#932C0B"/>
</linearGradient>
<linearGradient id="paint5_linear_462_635" x1="186.971" y1="113.499" x2="92.7236" y2="106.222" gradientUnits="userSpaceOnUse">
<stop stop-color="#2E736F"/>
<stop offset="0.833059" stop-color="#5EA4A0"/>
</linearGradient>
<linearGradient id="paint6_linear_462_635" x1="138.605" y1="138.903" x2="140.429" y2="130.184" gradientUnits="userSpaceOnUse">
<stop stop-color="#558947"/>
<stop offset="0.632836" stop-color="#7BA95B"/>
</linearGradient>
<radialGradient id="paint7_radial_462_635" cx="0" cy="0" r="1" gradientTransform="matrix(-15.1506 15.851 -22.5298 -17.146 103.455 92.1659)" gradientUnits="userSpaceOnUse">
<stop offset="0.0721154" stop-color="#EBEAD4"/>
<stop offset="1" stop-color="#F0EBD3"/>
</radialGradient>
<linearGradient id="paint8_linear_462_635" x1="133.384" y1="140.685" x2="133.011" y2="147.594" gradientUnits="userSpaceOnUse">
<stop offset="0.12" stop-color="#DD6A35"/>
<stop offset="1" stop-color="#BD4C28"/>
</linearGradient>
<linearGradient id="paint9_linear_462_635" x1="133.384" y1="140.685" x2="133.011" y2="147.594" gradientUnits="userSpaceOnUse">
<stop offset="0.12" stop-color="#DD6A35"/>
<stop offset="1" stop-color="#BD4C28"/>
</linearGradient>
<linearGradient id="paint10_linear_462_635" x1="148.903" y1="166.921" x2="143.694" y2="173.633" gradientUnits="userSpaceOnUse">
<stop stop-color="#94BFD0"/>
<stop offset="1" stop-color="#3A7493"/>
</linearGradient>
<linearGradient id="paint11_linear_462_635" x1="147.211" y1="167.286" x2="148.12" y2="169.548" gradientUnits="userSpaceOnUse">
<stop stop-color="#F5FEF9"/>
<stop offset="1" stop-color="#B5DBE6"/>
</linearGradient>
<linearGradient id="paint12_linear_462_635" x1="115.876" y1="160.014" x2="110.668" y2="166.726" gradientUnits="userSpaceOnUse">
<stop stop-color="#94BFD0"/>
<stop offset="1" stop-color="#3A7493"/>
</linearGradient>
<linearGradient id="paint13_linear_462_635" x1="114.184" y1="160.378" x2="115.093" y2="162.64" gradientUnits="userSpaceOnUse">
<stop stop-color="#F5FEF9"/>
<stop offset="1" stop-color="#B5DBE6"/>
</linearGradient>
<linearGradient id="paint14_linear_462_635" x1="154.836" y1="236.416" x2="93.5348" y2="265.544" gradientUnits="userSpaceOnUse">
<stop stop-color="#438FA1"/>
<stop offset="0.952061" stop-color="#367C86"/>
</linearGradient>
</defs>
</svg>
