<svg width="259" height="196" viewBox="0 0 259 196" fill="none" xmlns="http://www.w3.org/2000/svg">
<g filter="url(#filter0_d_462_219)">
<g filter="url(#filter1_i_462_219)">
<path d="M193.479 75.052C193.479 75.052 153.445 95.3156 127.651 92.8018C110.91 91.1703 81.383 66.0888 78.4691 63.0365C62.8021 46.6253 51.0489 8.63595 64.6292 12.8194C81.2345 17.9347 88.3775 29.1729 99.9276 39.4832C111.986 50.2475 117.985 58.9072 135.501 62.1878C150.061 64.9148 160.155 59.9128 173.992 54.985C192.32 48.4579 207.969 41.5451 222.831 42.4495C243.551 43.7104 193.479 75.052 193.479 75.052Z" fill="#E4D9C3"/>
</g>
<path d="M193.479 75.052C193.479 75.052 153.445 95.3156 127.651 92.8018C110.91 91.1703 81.383 66.0888 78.4691 63.0365C62.8021 46.6253 51.0489 8.63595 64.6292 12.8194C81.2345 17.9347 88.3775 29.1729 99.9276 39.4832C111.986 50.2475 117.985 58.9072 135.501 62.1878C150.061 64.9148 160.155 59.9128 173.992 54.985C192.32 48.4579 207.969 41.5451 222.831 42.4495C243.551 43.7104 193.479 75.052 193.479 75.052Z" stroke="#6C6C6C"/>
<g filter="url(#filter2_n_462_219)">
<path d="M48.7416 80.5293C43.0958 56.1062 59.2755 13.8221 59.2755 13.8221C59.2755 13.8221 72.5247 42.3719 81.7441 53.827C102.613 79.7569 126.516 86.9173 126.516 86.9173C126.516 86.9173 157.439 85.4461 185.743 73.3051C204.403 65.301 228.724 45.5585 228.724 45.5585C228.724 45.5585 229.274 95.5779 207.167 113.114C190.199 126.574 184.83 125.569 184.83 125.569L124.509 97.6333L93.7469 100.191L64.5813 103.047C64.5813 103.047 50.3445 87.4634 48.7416 80.5293Z" fill="#921414"/>
<path d="M48.7416 80.5293C43.0958 56.1062 59.2755 13.8221 59.2755 13.8221C59.2755 13.8221 72.5247 42.3719 81.7441 53.827C102.613 79.7569 126.516 86.9173 126.516 86.9173C126.516 86.9173 157.439 85.4461 185.743 73.3051C204.403 65.301 228.724 45.5585 228.724 45.5585C228.724 45.5585 229.274 95.5779 207.167 113.114C190.199 126.574 184.83 125.569 184.83 125.569L124.509 97.6333L93.7469 100.191L64.5813 103.047C64.5813 103.047 50.3445 87.4634 48.7416 80.5293Z" stroke="#3C1707"/>
</g>
<path d="M87.3214 103.801C105.106 99.4836 105.997 88.9382 124.999 92.3086C144.419 95.7533 137.119 102.101 156.777 112.298C173.861 121.159 167.052 142.91 157.263 156.999C147.71 170.75 123.809 169.786 123.809 169.786C123.809 169.786 120.541 173.686 111.348 171.964C103.994 170.587 99.2948 165.195 99.2948 165.195C99.2948 165.195 74.479 154.44 73.3044 141.274C70.7569 112.721 73.3441 107.194 87.3214 103.801Z" fill="#EBBC9A" stroke="#654131"/>
<g filter="url(#filter3_f_462_219)">
<path d="M126.79 133.247C125.888 138.062 144.44 152.094 119.521 141.723C86.6845 143.282 113.764 136.605 114.666 131.79C115.567 126.975 116.925 118.365 122.161 119.346C127.398 120.327 127.692 128.433 126.79 133.247Z" fill="#F32175" fill-opacity="0.1"/>
</g>
<g filter="url(#filter4_f_462_219)">
<path d="M124.544 149.909C124.437 150.479 144.612 155.507 118.86 150.009C87.3471 145.019 112.478 148.335 112.585 147.766C112.691 147.196 112.635 146.137 117.856 147.115C123.078 148.093 124.651 149.34 124.544 149.909Z" fill="#F32175" fill-opacity="0.37"/>
</g>
<path d="M108.917 111.656C103.827 109.474 100.729 111.341 100.156 113.05C100.02 113.455 100.142 113.893 100.478 114.351C100.814 114.81 101.355 115.275 102.024 115.723C103.357 116.615 105.176 117.42 106.805 117.955C108.728 118.201 110.316 118.321 111.496 118.161C112.677 118 113.419 117.565 113.702 116.722C113.985 115.877 113.621 114.885 112.756 113.958C111.948 113.091 110.716 112.296 109.227 111.762L108.925 111.659L108.917 111.656Z" fill="#D9D9D9" stroke="black" stroke-width="0.2"/>
<ellipse cx="2.77277" cy="1.95555" rx="2.77277" ry="1.95555" transform="matrix(-0.950185 -0.311687 -0.317908 0.948122 111.875 115.237)" fill="#36201E"/>
<ellipse cx="1.03979" cy="0.733332" rx="1.03979" ry="0.733332" transform="matrix(-0.950185 -0.311687 -0.317908 0.948122 107.801 115.979)" fill="white"/>
<path d="M106.765 115.797C106.519 115.716 106.278 115.715 106.09 115.772C105.901 115.829 105.779 115.939 105.735 116.072C105.69 116.206 105.722 116.365 105.838 116.523C105.954 116.679 106.148 116.822 106.395 116.903C106.641 116.984 106.883 116.984 107.071 116.927C107.259 116.87 107.381 116.76 107.425 116.627C107.47 116.494 107.439 116.333 107.323 116.176C107.207 116.019 107.012 115.878 106.765 115.797Z" stroke="#6C6C6C" stroke-opacity="0.6" stroke-width="0.3"/>
<path d="M136.353 118.666C141.876 119.136 143.717 122.236 143.408 124.012C143.335 124.432 143.02 124.761 142.505 125.007C141.991 125.253 141.293 125.408 140.491 125.488C138.892 125.647 136.909 125.503 135.22 125.209C133.407 124.521 131.948 123.882 130.984 123.185C130.021 122.489 129.573 121.755 129.726 120.88C129.878 120.002 130.671 119.299 131.875 118.889C133 118.505 134.464 118.385 136.03 118.613L136.345 118.664L136.353 118.666Z" fill="#D9D9D9" stroke="black" stroke-width="0.2"/>
<ellipse cx="2.77396" cy="1.95467" rx="2.77396" ry="1.95467" transform="matrix(0.985117 0.171884 -0.171269 0.985224 135.437 119.835)" fill="#36201E"/>
<ellipse cx="1.04024" cy="0.733001" rx="1.04024" ry="0.733001" transform="matrix(0.985117 0.171884 -0.171269 0.985224 135.437 119.835)" fill="white"/>
<path d="M136.436 120.162C136.692 120.206 136.905 120.318 137.044 120.457C137.182 120.596 137.237 120.751 137.213 120.889C137.189 121.027 137.085 121.153 136.908 121.237C136.731 121.321 136.492 121.355 136.236 121.31C135.98 121.266 135.767 121.153 135.628 121.014C135.49 120.875 135.436 120.721 135.46 120.583C135.484 120.445 135.587 120.318 135.764 120.234C135.941 120.15 136.18 120.117 136.436 120.162Z" stroke="#6C6C6C" stroke-opacity="0.6" stroke-width="0.3"/>
<path d="M100.702 93.2692L97.6614 84.6785C97.6614 84.6785 118.643 78.5104 129.688 81.152C139.07 83.3957 154.732 91.6534 158.682 92.5981C161.531 93.9364 153.21 97.3733 150.867 99.8532C150.867 99.8532 134.823 93.9955 126.244 92.037C115.36 89.5527 100.702 93.2692 100.702 93.2692Z" fill="url(#paint0_radial_462_219)" stroke="#AA6F1C"/>
<path d="M118.29 136.642C118.533 136.256 118.557 135.957 118.503 135.505C118.346 134.184 116.746 133.694 115.314 133.731C113.929 133.767 112.414 135.541 112.414 135.541L114.888 136.005C116.216 136.253 117.621 137.704 118.29 136.642Z" fill="#3D2A21"/>
<g filter="url(#filter5_n_462_219)">
<path d="M137.432 105.389C132.007 102.999 127.272 94.8206 127.272 94.8206L128.449 88.5416C128.449 88.5416 136.465 89.1147 140.7 91.1771C144.936 93.2395 150.14 99.1036 150.14 99.1036C150.14 99.1036 153.126 87.684 158.746 88.8001C162.494 89.5443 165.389 95.4603 165.389 95.4603C165.389 95.4603 171.608 89.7604 175.164 91.8751C178.169 93.6617 177.311 99.8595 177.311 99.8595C177.311 99.8595 183.502 95.3762 186.89 97.3208C189.659 98.9099 189.819 104.369 189.819 104.369C189.819 104.369 198.078 101.158 200.765 104.252C203.242 107.105 199.099 113.148 199.099 113.148C199.099 113.148 207.84 112.595 208.285 115.951C211.303 138.722 163.506 147.643 163.506 147.643C163.506 147.643 165.119 143.548 164.78 140.841C164.293 136.959 167.385 135.765 165.077 132.773C163.124 130.24 165.964 126.286 163.713 123.851C160.685 120.576 161.153 116.331 156.778 115.512C153.846 114.963 155.236 112.515 150.232 111.578C147.3 111.028 146.813 107.146 146.813 107.146C146.813 107.146 140.82 106.882 137.432 105.389Z" fill="#613C0E"/>
<path d="M137.432 105.389C132.007 102.999 127.272 94.8206 127.272 94.8206L128.449 88.5416C128.449 88.5416 136.465 89.1147 140.7 91.1771C144.936 93.2395 150.14 99.1036 150.14 99.1036C150.14 99.1036 153.126 87.684 158.746 88.8001C162.494 89.5443 165.389 95.4603 165.389 95.4603C165.389 95.4603 171.608 89.7604 175.164 91.8751C178.169 93.6617 177.311 99.8595 177.311 99.8595C177.311 99.8595 183.502 95.3762 186.89 97.3208C189.659 98.9099 189.819 104.369 189.819 104.369C189.819 104.369 198.078 101.158 200.765 104.252C203.242 107.105 199.099 113.148 199.099 113.148C199.099 113.148 207.84 112.595 208.285 115.951C211.303 138.722 163.506 147.643 163.506 147.643C163.506 147.643 165.119 143.548 164.78 140.841C164.293 136.959 167.385 135.765 165.077 132.773C163.124 130.24 165.964 126.286 163.713 123.851C160.685 120.576 161.153 116.331 156.778 115.512C153.846 114.963 155.236 112.515 150.232 111.578C147.3 111.028 146.813 107.146 146.813 107.146C146.813 107.146 140.82 106.882 137.432 105.389Z" stroke="#422A0B"/>
</g>
<g filter="url(#filter6_i_462_219)">
<path d="M197.401 112.531C197.401 112.531 190.167 122.637 183.885 127.769C177.604 132.901 164.27 140.787 164.27 140.787" stroke="#422A0B"/>
</g>
<g filter="url(#filter7_i_462_219)">
<path d="M188.94 103.946C188.94 103.946 183.631 111.661 178.955 116.076C174.28 120.491 164.418 127.353 164.418 127.353" stroke="#422A0B"/>
</g>
<g filter="url(#filter8_i_462_219)">
<path d="M176.168 99.4006C176.168 99.4006 170.859 107.115 166.183 111.53C161.508 115.945 158.732 116.596 158.732 116.596" stroke="#422A0B"/>
</g>
<g filter="url(#filter9_i_462_219)">
<path d="M165.113 95.1763C165.113 95.1763 162.873 102.389 158.197 106.804C153.522 111.219 152.645 111.148 152.645 111.148" stroke="#422A0B"/>
</g>
<g filter="url(#filter10_i_462_219)">
<path d="M149.261 97.5918C149.261 97.5918 148.315 101.455 146.878 103.987C145.442 106.519 145.218 106.527 145.218 106.527" stroke="#422A0B"/>
</g>
<g filter="url(#filter11_n_462_219)">
<path d="M113.977 100.996C119.899 100.731 127.272 94.8206 127.272 94.8206L128.449 88.5416C128.449 88.5416 120.768 86.1749 116.073 86.5646C111.378 86.9544 104.405 90.5376 104.405 90.5376C104.405 90.5376 105.754 78.8116 100.111 77.8181C96.3475 77.1556 91.5079 81.6229 91.5079 81.6229C91.5079 81.6229 87.7733 74.0588 83.6925 74.7431C80.2447 75.3212 78.8024 81.4097 78.8024 81.4097C78.8024 81.4097 74.6533 74.9897 70.791 75.5764C67.6347 76.0558 65.5105 81.0866 65.5105 81.0866C65.5105 81.0866 58.9726 75.1047 55.348 77.0169C52.0063 78.7798 53.682 85.9121 53.682 85.9121C53.682 85.9121 45.7337 82.2335 44.1043 85.2015C33.0499 105.337 73.025 131.7 73.025 131.7C73.025 131.7 74.357 126.549 75.6532 124.148C77.5119 120.705 75.0611 118.473 78.2959 116.519C81.0334 114.865 79.8164 110.151 82.7957 108.696C86.8039 106.739 87.9039 102.612 92.2787 103.431C95.2105 103.981 94.8011 101.196 99.8051 102.133C102.737 102.682 104.596 99.2391 104.596 99.2391C104.596 99.2391 110.278 101.162 113.977 100.996Z" fill="#613C0E"/>
<path d="M113.977 100.996C119.899 100.731 127.272 94.8206 127.272 94.8206L128.449 88.5416C128.449 88.5416 120.768 86.1749 116.073 86.5646C111.378 86.9544 104.405 90.5376 104.405 90.5376C104.405 90.5376 105.754 78.8116 100.111 77.8181C96.3475 77.1556 91.5079 81.6229 91.5079 81.6229C91.5079 81.6229 87.7733 74.0588 83.6925 74.7431C80.2447 75.3212 78.8024 81.4097 78.8024 81.4097C78.8024 81.4097 74.6533 74.9897 70.791 75.5764C67.6347 76.0558 65.5105 81.0866 65.5105 81.0866C65.5105 81.0866 58.9726 75.1047 55.348 77.0169C52.0063 78.7798 53.682 85.9121 53.682 85.9121C53.682 85.9121 45.7337 82.2335 44.1043 85.2015C33.0499 105.337 73.025 131.7 73.025 131.7C73.025 131.7 74.357 126.549 75.6532 124.148C77.5119 120.705 75.0611 118.473 78.2959 116.519C81.0334 114.865 79.8164 110.151 82.7957 108.696C86.8039 106.739 87.9039 102.612 92.2787 103.431C95.2105 103.981 94.8011 101.196 99.8051 102.133C102.737 102.682 104.596 99.2391 104.596 99.2391C104.596 99.2391 110.278 101.162 113.977 100.996Z" stroke="#422A0B"/>
</g>
<g filter="url(#filter12_i_462_219)">
<path d="M55.6965 84.8396C55.6965 84.8396 58.9261 96.1146 63.0032 102.751C67.0803 109.388 76.7858 120.874 76.7858 120.874" stroke="#422A0B"/>
</g>
<g filter="url(#filter13_i_462_219)">
<path d="M66.6038 80.3654C66.6038 80.3654 68.8696 88.898 71.6965 94.3534C74.5233 99.8088 81.3426 109.194 81.3426 109.194" stroke="#422A0B"/>
</g>
<g filter="url(#filter14_i_462_219)">
<path d="M80.1278 80.8931C80.1278 80.8931 82.3937 89.4257 85.2205 94.8811C88.0473 100.337 90.4143 101.87 90.4143 101.87" stroke="#422A0B"/>
</g>
<g filter="url(#filter15_i_462_219)">
<path d="M91.9352 81.0993C91.9352 81.0993 91.5091 88.125 94.3359 93.5804C97.1628 99.0358 98.0067 99.2811 98.0067 99.2811" stroke="#422A0B"/>
</g>
<g filter="url(#filter16_i_462_219)">
<path d="M105.905 88.729C105.905 88.729 105.439 92.4036 105.897 95.0971C106.354 97.7907 106.561 97.8756 106.561 97.8756" stroke="#422A0B"/>
</g>
<path d="M165.875 69.2962L166.32 63.6385C166.32 63.6385 167.57 62.5709 168.406 62.8959C169.179 63.196 169.526 64.6553 169.526 64.6553L165.875 69.2962Z" fill="#7C5F39" fill-opacity="0.75"/>
<path d="M114.597 69.7561L109.561 66.8282C109.561 66.8282 109.111 65.257 109.771 64.6717C110.38 64.1313 111.877 64.4831 111.877 64.4831L114.597 69.7561Z" fill="#7C5F39" fill-opacity="0.75"/>
<path d="M134.74 73.4107L134.864 67.7345C134.864 67.7345 136.051 66.6011 136.904 66.881C137.692 67.1395 138.121 68.579 138.121 68.579L134.74 73.4107Z" fill="#7C5F39" fill-opacity="0.75"/>
<path d="M125.223 72.9424L121.846 68.2731C121.846 68.2731 122.099 66.668 122.95 66.4007C123.736 66.1538 124.959 67.0716 124.959 67.0716L125.223 72.9424Z" fill="#7C5F39" fill-opacity="0.75"/>
<path d="M198.507 58.1578L200.253 52.7572C200.253 52.7572 201.721 51.9937 202.463 52.493C203.148 52.954 203.148 54.4483 203.148 54.4483L198.507 58.1578Z" fill="#7C5F39" fill-opacity="0.75"/>
<path d="M177.216 73.5776L172.414 70.2954C172.414 70.2954 172.086 68.6973 172.789 68.1619C173.438 67.6675 174.905 68.1265 174.905 68.1265L177.216 73.5776Z" fill="#7C5F39" fill-opacity="0.75"/>
<path d="M83.3355 44.055L78.5332 40.7728C78.5332 40.7728 78.2046 39.1746 78.9076 38.6393C79.5569 38.1448 81.0243 38.6039 81.0243 38.6039L83.3355 44.055Z" fill="#7C5F39" fill-opacity="0.75"/>
<path d="M89.0433 42.5725L87.0785 37.204C87.0785 37.204 87.7675 35.7293 88.6641 35.6962C89.4922 35.6657 90.4186 36.8677 90.4186 36.8677L89.0433 42.5725Z" fill="#7C5F39" fill-opacity="0.75"/>
<path d="M163.719 77.3786L161.754 72.0101C161.754 72.0101 162.443 70.5354 163.34 70.5023C164.168 70.4718 165.094 71.6737 165.094 71.6737L163.719 77.3786Z" fill="#7C5F39" fill-opacity="0.75"/>
<path d="M174.469 63.4706L172.401 59.4399C172.401 59.4399 172.965 58.3909 173.789 58.4092C174.551 58.426 175.462 59.3515 175.462 59.3515L174.469 63.4706Z" fill="#7C5F39" fill-opacity="0.75"/>
<path d="M126.791 77.6921L128.76 73.6572C128.76 73.6572 129.962 73.4507 130.463 74.0928C130.925 74.6858 130.746 75.9463 130.746 75.9463L126.791 77.6921Z" fill="#7C5F39" fill-opacity="0.75"/>
<path d="M110.599 60.7136L112.568 56.6787C112.568 56.6787 113.77 56.4723 114.271 57.1144C114.733 57.7074 114.554 58.9679 114.554 58.9679L110.599 60.7136Z" fill="#7C5F39" fill-opacity="0.75"/>
<path d="M100.8 68.9047L102.769 64.8698C102.769 64.8698 103.971 64.6634 104.472 65.3055C104.935 65.8985 104.755 67.159 104.755 67.159L100.8 68.9047Z" fill="#7C5F39" fill-opacity="0.75"/>
<path d="M94.7689 55.9742L90.2681 56.9065C90.2681 56.9065 89.3522 56.1093 89.5614 55.3361C89.7546 54.6219 90.8892 53.9961 90.8892 53.9961L94.7689 55.9742Z" fill="#7C5F39" fill-opacity="0.75"/>
<path d="M193.853 56.4847L189.353 57.417C189.353 57.417 188.437 56.6198 188.646 55.8466C188.839 55.1324 189.974 54.5066 189.974 54.5066L193.853 56.4847Z" fill="#7C5F39" fill-opacity="0.75"/>
<path d="M104.428 55.7115L100.633 51.355C100.633 51.355 100.734 49.7326 101.556 49.391C102.315 49.0755 103.618 49.8824 103.618 49.8824L104.428 55.7115Z" fill="#7C5F39" fill-opacity="0.75"/>
<path d="M155.934 74.4397L152.14 70.0831C152.14 70.0831 152.241 68.4608 153.063 68.1192C153.822 67.8037 155.124 68.6105 155.124 68.6105L155.934 74.4397Z" fill="#7C5F39" fill-opacity="0.75"/>
<path d="M180.475 64.6758L183.042 59.6018C183.042 59.6018 184.614 59.0636 185.271 59.6651C185.878 60.2206 185.647 61.6955 185.647 61.6955L180.475 64.6758Z" fill="#7C5F39" fill-opacity="0.75"/>
<path d="M90.3652 49.5167L92.9317 44.4426C92.9317 44.4426 94.5039 43.9045 95.1611 44.506C95.7681 45.0615 95.5368 46.5363 95.5368 46.5363L90.3652 49.5167Z" fill="#7C5F39" fill-opacity="0.75"/>
<path d="M79.8759 33.5306L77.8048 28.199C77.8048 28.199 78.4642 26.7113 79.3597 26.6613C80.1868 26.6152 81.1369 27.7997 81.1369 27.7997L79.8759 33.5306Z" fill="#7C5F39" fill-opacity="0.75"/>
<path d="M211.277 55.1489L209.206 49.8173C209.206 49.8173 209.865 48.3295 210.761 48.2796C211.588 48.2334 212.538 49.4179 212.538 49.4179L211.277 55.1489Z" fill="#7C5F39" fill-opacity="0.75"/>
<path d="M193.583 66.8745L191.512 61.5429C191.512 61.5429 192.172 60.0552 193.067 60.0052C193.894 59.959 194.844 61.1436 194.844 61.1436L193.583 66.8745Z" fill="#7C5F39" fill-opacity="0.75"/>
<path d="M137.793 79.4724L141.609 75.2139C141.609 75.2139 143.275 75.0837 143.755 75.8263C144.198 76.5121 143.588 77.8772 143.588 77.8772L137.793 79.4724Z" fill="#7C5F39" fill-opacity="0.75"/>
<path d="M113.475 76.9231L117.291 72.6645C117.291 72.6645 118.957 72.5344 119.437 73.277C119.88 73.9628 119.271 75.3279 119.271 75.3279L113.475 76.9231Z" fill="#7C5F39" fill-opacity="0.75"/>
<path d="M94.3288 63.3107L98.1449 59.0522C98.1449 59.0522 99.8105 58.922 100.291 59.6646C100.734 60.3504 100.124 61.7155 100.124 61.7155L94.3288 63.3107Z" fill="#7C5F39" fill-opacity="0.75"/>
<g filter="url(#filter17_i_462_219)">
<path d="M138.289 68.745C135.38 68.0517 133.459 62.7847 133.459 62.7847C133.459 62.7847 128.39 67.2222 125.088 66.0526C121.71 64.8559 120.692 57.9698 120.692 57.9698C120.692 57.9698 115.667 62.2757 112.322 61.2376C108.911 60.1792 107.289 53.5778 107.289 53.5778C107.289 53.5778 104.836 54.7441 103.267 54.4158C99.6698 53.6627 101.309 45.1719 101.309 45.1719C101.309 45.1719 98.1862 48.8731 95.6879 48.4476C92.4075 47.8889 92.348 40.5802 92.348 40.5802C92.348 40.5802 88.3334 43.0516 85.9964 42.0486C83.2071 40.8515 83.0759 34.8196 83.0759 34.8196C83.0759 34.8196 77.8906 35.2677 75.6834 33.3118C73.6278 31.4902 73.1823 26.721 73.1823 26.721C73.1823 26.721 71.07 27.524 69.7968 27.1361C67.5014 26.4368 67.0784 21.6066 67.0784 21.6066C67.0784 21.6066 65.4874 24.8463 63.6777 24.7825C61.595 24.709 60.7419 20.3142 60.7419 20.3142C60.7419 20.3142 59.5632 23.4854 57.8693 23.5978C55.5966 23.7487 55.6789 18.176 55.6789 18.176L51.7874 72.108L51.7766 112.46C51.7766 112.46 48.1332 120.109 45.5968 121.149C43.7953 121.887 42.3351 118.273 42.3351 118.273C42.3351 118.273 38.1274 129.854 35.0992 126.747C32.9935 124.586 35.0361 118.995 35.0361 118.995C35.0361 118.995 31.4202 122.073 28.6693 123.224C23.2795 125.48 26.5227 118.115 30.8401 110.58C29.3506 112.611 27.7941 114.541 26.2767 116.103C24.5094 117.923 28.8201 104.971 33.2271 92.4888C30.0477 100.1 26.8762 105.789 25.8546 101.31C25.2402 98.6172 27.3957 93.0767 27.3957 93.0767C27.3957 93.0767 22.3015 100.004 21.9415 96.9772C21.4365 92.7313 29.2239 73.1398 35.142 59.0286C27.8779 75.559 17.3078 98.2901 19.2535 85.926C19.5905 83.7841 22.1414 79.8811 22.1414 79.8811C22.1414 79.8811 14.3028 85.3815 13.9884 82.0878C13.2889 74.7593 31.235 22.0355 54.7619 11.9083C68.1169 6.15964 106.447 41.0295 142.744 46.9893C177.651 52.7209 222.955 34.0519 233.268 42.7883C242.365 50.4947 243.894 71.4893 243.894 71.4893C243.894 71.4893 256.943 101.79 254.179 104.543C252.981 105.735 249.955 103.681 249.955 103.681C249.955 103.681 250.733 107.737 248.977 108.457C247.806 108.937 245.809 107.811 245.809 107.811C245.809 107.811 247.228 115.033 244.288 115.24C242.493 115.366 240.389 112.786 240.389 112.786C240.389 112.786 241.178 121.75 238.34 120.108C237.295 119.503 236.317 111.492 235.49 101.397L237.799 141.556C237.799 141.556 233.074 149.279 230.144 149.391C229.302 149.424 228.032 148.961 228.032 148.961C228.032 148.961 225.874 156.078 222.923 155.105C221.482 154.63 220.189 152.336 220.189 152.336C220.189 152.336 216.866 154.976 214.257 154.444C210.033 153.582 223.659 78.9707 223.659 78.9707L212.469 133.625C212.469 133.625 211.016 137.963 208.851 137.862C206.453 137.751 206.132 132.333 206.132 132.333C206.132 132.333 202.326 137.449 199.874 136.031C198.399 135.178 200.137 126.688 200.137 126.688C200.137 126.688 207.803 113.591 211.782 104.74C221.342 83.4779 227.429 47.1253 227.429 47.1253C227.429 47.1253 225.205 46.4466 223.733 46.3714C221.469 46.2557 218.018 47.4169 218.018 47.4169C218.018 47.4169 215.993 50.1011 214.089 50.4851C212.437 50.8183 209.865 49.6235 209.865 49.6235C209.865 49.6235 206.898 54.7454 203.918 54.4912C201.573 54.2912 199.18 50.7611 199.18 50.7611C199.18 50.7611 196.753 56.5962 193.435 57.3283C191.172 57.8276 187.627 56.1436 187.627 56.1436C187.627 56.1436 185.131 61.808 182.099 61.6495C179.748 61.5267 177.362 57.9194 177.362 57.9194C177.362 57.9194 172.952 63.5742 169.085 63.4175C168.033 63.3749 166.445 62.879 166.445 62.879L159.767 65.9394L154.285 63.1628C154.285 63.1628 152.628 69.0992 149.813 68.8841C147.141 68.6801 146.038 63.1392 146.038 63.1392C146.038 63.1392 141.911 69.608 138.289 68.745Z" fill="#EDE2C6"/>
</g>
<path d="M138.289 68.745C135.38 68.0517 133.459 62.7847 133.459 62.7847C133.459 62.7847 128.39 67.2222 125.088 66.0526C121.71 64.8559 120.692 57.9698 120.692 57.9698C120.692 57.9698 115.667 62.2757 112.322 61.2376C108.911 60.1792 107.289 53.5778 107.289 53.5778C107.289 53.5778 104.836 54.7441 103.267 54.4158C99.6698 53.6627 101.309 45.1719 101.309 45.1719C101.309 45.1719 98.1862 48.8731 95.6879 48.4476C92.4075 47.8889 92.348 40.5802 92.348 40.5802C92.348 40.5802 88.3334 43.0516 85.9964 42.0486C83.2071 40.8515 83.0759 34.8196 83.0759 34.8196C83.0759 34.8196 77.8906 35.2677 75.6834 33.3118C73.6278 31.4902 73.1823 26.721 73.1823 26.721C73.1823 26.721 71.07 27.524 69.7968 27.1361C67.5014 26.4368 67.0784 21.6066 67.0784 21.6066C67.0784 21.6066 65.4874 24.8463 63.6777 24.7825C61.595 24.709 60.7419 20.3142 60.7419 20.3142C60.7419 20.3142 59.5632 23.4854 57.8693 23.5978C55.5966 23.7487 55.6789 18.176 55.6789 18.176L51.7874 72.108L51.7766 112.46C51.7766 112.46 48.1332 120.109 45.5968 121.149C43.7953 121.887 42.3351 118.273 42.3351 118.273C42.3351 118.273 38.1274 129.854 35.0992 126.747C32.9935 124.586 35.0361 118.995 35.0361 118.995C35.0361 118.995 31.4202 122.073 28.6693 123.224C23.2795 125.48 26.5227 118.115 30.8401 110.58C29.3506 112.611 27.7941 114.541 26.2767 116.103C24.5094 117.923 28.8201 104.971 33.2271 92.4888C30.0477 100.1 26.8762 105.789 25.8546 101.31C25.2402 98.6172 27.3957 93.0767 27.3957 93.0767C27.3957 93.0767 22.3015 100.004 21.9415 96.9772C21.4365 92.7313 29.2239 73.1398 35.142 59.0286C27.8779 75.559 17.3078 98.2901 19.2535 85.926C19.5905 83.7841 22.1414 79.8811 22.1414 79.8811C22.1414 79.8811 14.3028 85.3815 13.9884 82.0878C13.2889 74.7593 31.235 22.0355 54.7619 11.9083C68.1169 6.15964 106.447 41.0295 142.744 46.9893C177.651 52.7209 222.955 34.0519 233.268 42.7883C242.365 50.4947 243.894 71.4893 243.894 71.4893C243.894 71.4893 256.943 101.79 254.179 104.543C252.981 105.735 249.955 103.681 249.955 103.681C249.955 103.681 250.733 107.737 248.977 108.457C247.806 108.937 245.809 107.811 245.809 107.811C245.809 107.811 247.228 115.033 244.288 115.24C242.493 115.366 240.389 112.786 240.389 112.786C240.389 112.786 241.178 121.75 238.34 120.108C237.295 119.503 236.317 111.492 235.49 101.397L237.799 141.556C237.799 141.556 233.074 149.279 230.144 149.391C229.302 149.424 228.032 148.961 228.032 148.961C228.032 148.961 225.874 156.078 222.923 155.105C221.482 154.63 220.189 152.336 220.189 152.336C220.189 152.336 216.866 154.976 214.257 154.444C210.033 153.582 223.659 78.9707 223.659 78.9707L212.469 133.625C212.469 133.625 211.016 137.963 208.851 137.862C206.453 137.751 206.132 132.333 206.132 132.333C206.132 132.333 202.326 137.449 199.874 136.031C198.399 135.178 200.137 126.688 200.137 126.688C200.137 126.688 207.803 113.591 211.782 104.74C221.342 83.4779 227.429 47.1253 227.429 47.1253C227.429 47.1253 225.205 46.4466 223.733 46.3714C221.469 46.2557 218.018 47.4169 218.018 47.4169C218.018 47.4169 215.993 50.1011 214.089 50.4851C212.437 50.8183 209.865 49.6235 209.865 49.6235C209.865 49.6235 206.898 54.7454 203.918 54.4912C201.573 54.2912 199.18 50.7611 199.18 50.7611C199.18 50.7611 196.753 56.5962 193.435 57.3283C191.172 57.8276 187.627 56.1436 187.627 56.1436C187.627 56.1436 185.131 61.808 182.099 61.6495C179.748 61.5267 177.362 57.9194 177.362 57.9194C177.362 57.9194 172.952 63.5742 169.085 63.4175C168.033 63.3749 166.445 62.879 166.445 62.879L159.767 65.9394L154.285 63.1628C154.285 63.1628 152.628 69.0992 149.813 68.8841C147.141 68.6801 146.038 63.1392 146.038 63.1392C146.038 63.1392 141.911 69.608 138.289 68.745Z" stroke="#583000"/>
<g filter="url(#filter18_f_462_219)">
<path d="M103.103 39.0755C103.103 39.0755 127.89 49.9151 138.446 51.7106C149.001 53.5061 177.735 51.5495 177.735 51.5495" stroke="#F9B41F"/>
</g>
<path d="M107.009 128.54C107.009 128.54 102.459 139.044 95.0776 139.84C91.46 140.231 86.5947 149.281 86.5947 149.281C86.5947 149.281 100.008 138.585 118.177 141.988C137.859 145.674 141.491 159.562 141.491 159.562C141.491 159.562 141.997 147.802 138.447 145.784C132.326 142.305 133.959 133.587 133.959 133.587" stroke="#583000" stroke-width="0.4"/>
<g filter="url(#filter19_n_462_219)">
<path d="M133.942 117.881C131.99 118.403 127.624 114.53 126.259 116.017C124.783 117.624 128.484 121.082 132.772 120.483C142.147 119.173 149.403 112.784 149.403 112.784C149.403 112.784 140.361 116.163 133.942 117.881Z" fill="#56350C"/>
</g>
<g filter="url(#filter20_n_462_219)">
<path d="M109.364 110.341C110.961 111.683 116.852 112.741 117.482 114.692C118.164 116.799 114.557 117.133 110.812 114.681C102.624 109.32 100.359 98.5315 100.359 98.5315C100.359 98.5315 104.113 105.93 109.364 110.341Z" fill="#56350C"/>
</g>
<path d="M108.796 154.13C108.796 154.13 111.945 150.975 116.955 151.959C121.739 152.9 123.282 156.931 123.282 156.931" stroke="#583000"/>
<path d="M117.572 130.29C117.572 130.29 116.416 132.808 120.385 133.551C125.358 134.483 125.561 131.513 125.561 131.513" stroke="#583000" stroke-width="0.6" stroke-linecap="round"/>
<path d="M128.626 134.594C128.626 134.594 130.136 136.497 130.087 137.732C130.038 138.992 128.329 140.554 128.329 140.554" stroke="#583000" stroke-width="0.8" stroke-linecap="round"/>
<path d="M113.226 131.208C113.226 131.208 111.129 132.436 110.728 133.605C110.318 134.797 111.345 136.871 111.345 136.871" stroke="#583000" stroke-width="0.8" stroke-linecap="round"/>
<g filter="url(#filter21_f_462_219)">
<path d="M127.969 121.436C127.969 121.436 129.366 123.994 129.739 125.778C130.283 128.387 134.185 129.619 134.185 129.619" stroke="black" stroke-width="0.3"/>
</g>
<g filter="url(#filter22_f_462_219)">
<path d="M116.083 118.709C116.083 118.709 113.855 120.587 112.862 122.116C111.41 124.351 107.327 124.087 107.327 124.087" stroke="black" stroke-width="0.3"/>
</g>
<g filter="url(#filter23_f_462_219)">
<ellipse cx="151.471" cy="139.374" rx="9.64698" ry="8.86944" transform="rotate(10.6082 151.471 139.374)" fill="#FA5BBB" fill-opacity="0.26"/>
</g>
<g filter="url(#filter24_f_462_219)">
<ellipse cx="88.5896" cy="127.597" rx="9.64698" ry="8.86944" transform="rotate(10.6082 88.5896 127.597)" fill="#FA5BBB" fill-opacity="0.26"/>
</g>
<path d="M122.507 137.432C122.42 136.984 122.507 136.697 122.72 136.295C123.345 135.12 125.014 135.243 126.335 135.796C127.613 136.33 128.384 138.532 128.384 138.532L125.909 138.069C124.581 137.82 122.746 138.664 122.507 137.432Z" fill="#3D2A21"/>
</g>
<defs>
<filter id="filter0_d_462_219" x="9.46875" y="10.771" width="249.595" height="170.132" filterUnits="userSpaceOnUse" color-interpolation-filters="sRGB">
<feFlood flood-opacity="0" result="BackgroundImageFix"/>
<feColorMatrix in="SourceAlpha" type="matrix" values="0 0 0 0 0 0 0 0 0 0 0 0 0 0 0 0 0 0 127 0" result="hardAlpha"/>
<feOffset dy="4"/>
<feGaussianBlur stdDeviation="2"/>
<feComposite in2="hardAlpha" operator="out"/>
<feColorMatrix type="matrix" values="0 0 0 0 0 0 0 0 0 0 0 0 0 0 0 0 0 0 0.25 0"/>
<feBlend mode="normal" in2="BackgroundImageFix" result="effect1_dropShadow_462_219"/>
<feBlend mode="normal" in="SourceGraphic" in2="effect1_dropShadow_462_219" result="shape"/>
</filter>
<filter id="filter1_i_462_219" x="58.165" y="12.0001" width="170.19" height="85.5175" filterUnits="userSpaceOnUse" color-interpolation-filters="sRGB">
<feFlood flood-opacity="0" result="BackgroundImageFix"/>
<feBlend mode="normal" in="SourceGraphic" in2="BackgroundImageFix" result="shape"/>
<feColorMatrix in="SourceAlpha" type="matrix" values="0 0 0 0 0 0 0 0 0 0 0 0 0 0 0 0 0 0 127 0" result="hardAlpha"/>
<feOffset dy="4"/>
<feGaussianBlur stdDeviation="2"/>
<feComposite in2="hardAlpha" operator="arithmetic" k2="-1" k3="1"/>
<feColorMatrix type="matrix" values="0 0 0 0 0 0 0 0 0 0 0 0 0 0 0 0 0 0 0.25 0"/>
<feBlend mode="normal" in2="shape" result="effect1_innerShadow_462_219"/>
</filter>
<filter id="filter2_n_462_219" x="47.0459" y="12.5388" width="182.18" height="113.547" filterUnits="userSpaceOnUse" color-interpolation-filters="sRGB">
<feFlood flood-opacity="0" result="BackgroundImageFix"/>
<feBlend mode="normal" in="SourceGraphic" in2="BackgroundImageFix" result="shape"/>
<feTurbulence type="fractalNoise" baseFrequency="2 2" stitchTiles="stitch" numOctaves="3" result="noise" seed="5398" />
<feColorMatrix in="noise" type="luminanceToAlpha" result="alphaNoise" />
<feComponentTransfer in="alphaNoise" result="coloredNoise1">
<feFuncA type="discrete" tableValues="1 1 1 1 1 1 1 1 1 1 1 1 1 1 1 1 1 1 1 1 1 1 1 1 1 1 1 1 1 1 1 1 1 1 1 1 1 1 1 1 1 1 1 1 1 1 1 1 1 1 1 0 0 0 0 0 0 0 0 0 0 0 0 0 0 0 0 0 0 0 0 0 0 0 0 0 0 0 0 0 0 0 0 0 0 0 0 0 0 0 0 0 0 0 0 0 0 0 0 0 "/>
</feComponentTransfer>
<feComposite operator="in" in2="shape" in="coloredNoise1" result="noise1Clipped" />
<feFlood flood-color="rgba(0, 0, 0, 0.25)" result="color1Flood" />
<feComposite operator="in" in2="noise1Clipped" in="color1Flood" result="color1" />
<feMerge result="effect1_noise_462_219">
<feMergeNode in="shape" />
<feMergeNode in="color1" />
</feMerge>
</filter>
<filter id="filter3_f_462_219" x="99.3169" y="115.269" width="37.2695" height="34.1852" filterUnits="userSpaceOnUse" color-interpolation-filters="sRGB">
<feFlood flood-opacity="0" result="BackgroundImageFix"/>
<feBlend mode="normal" in="SourceGraphic" in2="BackgroundImageFix" result="shape"/>
<feGaussianBlur stdDeviation="2" result="effect1_foregroundBlur_462_219"/>
</filter>
<filter id="filter4_f_462_219" x="98.9902" y="142.716" width="36.9707" height="13.8398" filterUnits="userSpaceOnUse" color-interpolation-filters="sRGB">
<feFlood flood-opacity="0" result="BackgroundImageFix"/>
<feBlend mode="normal" in="SourceGraphic" in2="BackgroundImageFix" result="shape"/>
<feGaussianBlur stdDeviation="2" result="effect1_foregroundBlur_462_219"/>
</filter>
<filter id="filter5_n_462_219" x="126.747" y="88.011" width="82.1748" height="60.2894" filterUnits="userSpaceOnUse" color-interpolation-filters="sRGB">
<feFlood flood-opacity="0" result="BackgroundImageFix"/>
<feBlend mode="normal" in="SourceGraphic" in2="BackgroundImageFix" result="shape"/>
<feTurbulence type="fractalNoise" baseFrequency="2 2" stitchTiles="stitch" numOctaves="3" result="noise" seed="4984" />
<feColorMatrix in="noise" type="luminanceToAlpha" result="alphaNoise" />
<feComponentTransfer in="alphaNoise" result="coloredNoise1">
<feFuncA type="discrete" tableValues="1 1 1 1 1 1 1 1 1 1 1 1 1 1 1 1 1 1 1 1 1 1 1 1 1 1 1 1 1 1 1 1 1 1 1 1 1 1 1 1 1 1 1 1 1 1 1 1 1 1 1 0 0 0 0 0 0 0 0 0 0 0 0 0 0 0 0 0 0 0 0 0 0 0 0 0 0 0 0 0 0 0 0 0 0 0 0 0 0 0 0 0 0 0 0 0 0 0 0 0 "/>
</feComponentTransfer>
<feComposite operator="in" in2="shape" in="coloredNoise1" result="noise1Clipped" />
<feFlood flood-color="rgba(0, 0, 0, 0.25)" result="color1Flood" />
<feComposite operator="in" in2="noise1Clipped" in="color1Flood" result="color1" />
<feMerge result="effect1_noise_462_219">
<feMergeNode in="shape" />
<feMergeNode in="color1" />
</feMerge>
</filter>
<filter id="filter6_i_462_219" x="164.016" y="112.24" width="33.791" height="32.9769" filterUnits="userSpaceOnUse" color-interpolation-filters="sRGB">
<feFlood flood-opacity="0" result="BackgroundImageFix"/>
<feBlend mode="normal" in="SourceGraphic" in2="BackgroundImageFix" result="shape"/>
<feColorMatrix in="SourceAlpha" type="matrix" values="0 0 0 0 0 0 0 0 0 0 0 0 0 0 0 0 0 0 127 0" result="hardAlpha"/>
<feOffset dy="4"/>
<feGaussianBlur stdDeviation="2"/>
<feComposite in2="hardAlpha" operator="arithmetic" k2="-1" k3="1"/>
<feColorMatrix type="matrix" values="0 0 0 0 0 0 0 0 0 0 0 0 0 0 0 0 0 0 0.25 0"/>
<feBlend mode="normal" in2="shape" result="effect1_innerShadow_462_219"/>
</filter>
<filter id="filter7_i_462_219" x="164.132" y="103.663" width="25.2197" height="28.1003" filterUnits="userSpaceOnUse" color-interpolation-filters="sRGB">
<feFlood flood-opacity="0" result="BackgroundImageFix"/>
<feBlend mode="normal" in="SourceGraphic" in2="BackgroundImageFix" result="shape"/>
<feColorMatrix in="SourceAlpha" type="matrix" values="0 0 0 0 0 0 0 0 0 0 0 0 0 0 0 0 0 0 127 0" result="hardAlpha"/>
<feOffset dy="4"/>
<feGaussianBlur stdDeviation="2"/>
<feComposite in2="hardAlpha" operator="arithmetic" k2="-1" k3="1"/>
<feColorMatrix type="matrix" values="0 0 0 0 0 0 0 0 0 0 0 0 0 0 0 0 0 0 0.25 0"/>
<feBlend mode="normal" in2="shape" result="effect1_innerShadow_462_219"/>
</filter>
<filter id="filter8_i_462_219" x="158.615" y="99.1171" width="17.9644" height="21.9656" filterUnits="userSpaceOnUse" color-interpolation-filters="sRGB">
<feFlood flood-opacity="0" result="BackgroundImageFix"/>
<feBlend mode="normal" in="SourceGraphic" in2="BackgroundImageFix" result="shape"/>
<feColorMatrix in="SourceAlpha" type="matrix" values="0 0 0 0 0 0 0 0 0 0 0 0 0 0 0 0 0 0 127 0" result="hardAlpha"/>
<feOffset dy="4"/>
<feGaussianBlur stdDeviation="2"/>
<feComposite in2="hardAlpha" operator="arithmetic" k2="-1" k3="1"/>
<feColorMatrix type="matrix" values="0 0 0 0 0 0 0 0 0 0 0 0 0 0 0 0 0 0 0.25 0"/>
<feBlend mode="normal" in2="shape" result="effect1_innerShadow_462_219"/>
</filter>
<filter id="filter9_i_462_219" x="152.592" y="95.0279" width="12.998" height="20.6205" filterUnits="userSpaceOnUse" color-interpolation-filters="sRGB">
<feFlood flood-opacity="0" result="BackgroundImageFix"/>
<feBlend mode="normal" in="SourceGraphic" in2="BackgroundImageFix" result="shape"/>
<feColorMatrix in="SourceAlpha" type="matrix" values="0 0 0 0 0 0 0 0 0 0 0 0 0 0 0 0 0 0 127 0" result="hardAlpha"/>
<feOffset dy="4"/>
<feGaussianBlur stdDeviation="2"/>
<feComposite in2="hardAlpha" operator="arithmetic" k2="-1" k3="1"/>
<feColorMatrix type="matrix" values="0 0 0 0 0 0 0 0 0 0 0 0 0 0 0 0 0 0 0.25 0"/>
<feBlend mode="normal" in2="shape" result="effect1_innerShadow_462_219"/>
</filter>
<filter id="filter10_i_462_219" x="144.935" y="97.4729" width="4.81152" height="13.5533" filterUnits="userSpaceOnUse" color-interpolation-filters="sRGB">
<feFlood flood-opacity="0" result="BackgroundImageFix"/>
<feBlend mode="normal" in="SourceGraphic" in2="BackgroundImageFix" result="shape"/>
<feColorMatrix in="SourceAlpha" type="matrix" values="0 0 0 0 0 0 0 0 0 0 0 0 0 0 0 0 0 0 127 0" result="hardAlpha"/>
<feOffset dy="4"/>
<feGaussianBlur stdDeviation="2"/>
<feComposite in2="hardAlpha" operator="arithmetic" k2="-1" k3="1"/>
<feColorMatrix type="matrix" values="0 0 0 0 0 0 0 0 0 0 0 0 0 0 0 0 0 0 0.25 0"/>
<feBlend mode="normal" in2="shape" result="effect1_innerShadow_462_219"/>
</filter>
<filter id="filter11_n_462_219" x="41.6714" y="74.1992" width="87.3506" height="58.303" filterUnits="userSpaceOnUse" color-interpolation-filters="sRGB">
<feFlood flood-opacity="0" result="BackgroundImageFix"/>
<feBlend mode="normal" in="SourceGraphic" in2="BackgroundImageFix" result="shape"/>
<feTurbulence type="fractalNoise" baseFrequency="2 2" stitchTiles="stitch" numOctaves="3" result="noise" seed="4984" />
<feColorMatrix in="noise" type="luminanceToAlpha" result="alphaNoise" />
<feComponentTransfer in="alphaNoise" result="coloredNoise1">
<feFuncA type="discrete" tableValues="1 1 1 1 1 1 1 1 1 1 1 1 1 1 1 1 1 1 1 1 1 1 1 1 1 1 1 1 1 1 1 1 1 1 1 1 1 1 1 1 1 1 1 1 1 1 1 1 1 1 1 0 0 0 0 0 0 0 0 0 0 0 0 0 0 0 0 0 0 0 0 0 0 0 0 0 0 0 0 0 0 0 0 0 0 0 0 0 0 0 0 0 0 0 0 0 0 0 0 0 "/>
</feComponentTransfer>
<feComposite operator="in" in2="shape" in="coloredNoise1" result="noise1Clipped" />
<feFlood flood-color="rgba(0, 0, 0, 0.25)" result="color1Flood" />
<feComposite operator="in" in2="noise1Clipped" in="color1Flood" result="color1" />
<feMerge result="effect1_noise_462_219">
<feMergeNode in="shape" />
<feMergeNode in="color1" />
</feMerge>
</filter>
<filter id="filter12_i_462_219" x="55.2158" y="84.702" width="21.9517" height="40.4942" filterUnits="userSpaceOnUse" color-interpolation-filters="sRGB">
<feFlood flood-opacity="0" result="BackgroundImageFix"/>
<feBlend mode="normal" in="SourceGraphic" in2="BackgroundImageFix" result="shape"/>
<feColorMatrix in="SourceAlpha" type="matrix" values="0 0 0 0 0 0 0 0 0 0 0 0 0 0 0 0 0 0 127 0" result="hardAlpha"/>
<feOffset dy="4"/>
<feGaussianBlur stdDeviation="2"/>
<feComposite in2="hardAlpha" operator="arithmetic" k2="-1" k3="1"/>
<feColorMatrix type="matrix" values="0 0 0 0 0 0 0 0 0 0 0 0 0 0 0 0 0 0 0.25 0"/>
<feBlend mode="normal" in2="shape" result="effect1_innerShadow_462_219"/>
</filter>
<filter id="filter13_i_462_219" x="66.1206" y="80.2371" width="15.6265" height="33.2509" filterUnits="userSpaceOnUse" color-interpolation-filters="sRGB">
<feFlood flood-opacity="0" result="BackgroundImageFix"/>
<feBlend mode="normal" in="SourceGraphic" in2="BackgroundImageFix" result="shape"/>
<feColorMatrix in="SourceAlpha" type="matrix" values="0 0 0 0 0 0 0 0 0 0 0 0 0 0 0 0 0 0 127 0" result="hardAlpha"/>
<feOffset dy="4"/>
<feGaussianBlur stdDeviation="2"/>
<feComposite in2="hardAlpha" operator="arithmetic" k2="-1" k3="1"/>
<feColorMatrix type="matrix" values="0 0 0 0 0 0 0 0 0 0 0 0 0 0 0 0 0 0 0.25 0"/>
<feBlend mode="normal" in2="shape" result="effect1_innerShadow_462_219"/>
</filter>
<filter id="filter14_i_462_219" x="79.6445" y="80.7648" width="11.0435" height="25.5242" filterUnits="userSpaceOnUse" color-interpolation-filters="sRGB">
<feFlood flood-opacity="0" result="BackgroundImageFix"/>
<feBlend mode="normal" in="SourceGraphic" in2="BackgroundImageFix" result="shape"/>
<feColorMatrix in="SourceAlpha" type="matrix" values="0 0 0 0 0 0 0 0 0 0 0 0 0 0 0 0 0 0 127 0" result="hardAlpha"/>
<feOffset dy="4"/>
<feGaussianBlur stdDeviation="2"/>
<feComposite in2="hardAlpha" operator="arithmetic" k2="-1" k3="1"/>
<feColorMatrix type="matrix" values="0 0 0 0 0 0 0 0 0 0 0 0 0 0 0 0 0 0 0.25 0"/>
<feBlend mode="normal" in2="shape" result="effect1_innerShadow_462_219"/>
</filter>
<filter id="filter15_i_462_219" x="91.4126" y="81.0693" width="6.81201" height="22.6913" filterUnits="userSpaceOnUse" color-interpolation-filters="sRGB">
<feFlood flood-opacity="0" result="BackgroundImageFix"/>
<feBlend mode="normal" in="SourceGraphic" in2="BackgroundImageFix" result="shape"/>
<feColorMatrix in="SourceAlpha" type="matrix" values="0 0 0 0 0 0 0 0 0 0 0 0 0 0 0 0 0 0 127 0" result="hardAlpha"/>
<feOffset dy="4"/>
<feGaussianBlur stdDeviation="2"/>
<feComposite in2="hardAlpha" operator="arithmetic" k2="-1" k3="1"/>
<feColorMatrix type="matrix" values="0 0 0 0 0 0 0 0 0 0 0 0 0 0 0 0 0 0 0.25 0"/>
<feBlend mode="normal" in2="shape" result="effect1_innerShadow_462_219"/>
</filter>
<filter id="filter16_i_462_219" x="105.195" y="88.6663" width="1.76855" height="13.67" filterUnits="userSpaceOnUse" color-interpolation-filters="sRGB">
<feFlood flood-opacity="0" result="BackgroundImageFix"/>
<feBlend mode="normal" in="SourceGraphic" in2="BackgroundImageFix" result="shape"/>
<feColorMatrix in="SourceAlpha" type="matrix" values="0 0 0 0 0 0 0 0 0 0 0 0 0 0 0 0 0 0 127 0" result="hardAlpha"/>
<feOffset dy="4"/>
<feGaussianBlur stdDeviation="2"/>
<feComposite in2="hardAlpha" operator="arithmetic" k2="-1" k3="1"/>
<feColorMatrix type="matrix" values="0 0 0 0 0 0 0 0 0 0 0 0 0 0 0 0 0 0 0.25 0"/>
<feBlend mode="normal" in2="shape" result="effect1_innerShadow_462_219"/>
</filter>
<filter id="filter17_i_462_219" x="13.4688" y="10.771" width="241.595" height="148.926" filterUnits="userSpaceOnUse" color-interpolation-filters="sRGB">
<feFlood flood-opacity="0" result="BackgroundImageFix"/>
<feBlend mode="normal" in="SourceGraphic" in2="BackgroundImageFix" result="shape"/>
<feColorMatrix in="SourceAlpha" type="matrix" values="0 0 0 0 0 0 0 0 0 0 0 0 0 0 0 0 0 0 127 0" result="hardAlpha"/>
<feOffset dy="4"/>
<feGaussianBlur stdDeviation="2"/>
<feComposite in2="hardAlpha" operator="arithmetic" k2="-1" k3="1"/>
<feColorMatrix type="matrix" values="0 0 0 0 0 0 0 0 0 0 0 0 0 0 0 0 0 0 0.25 0"/>
<feBlend mode="normal" in2="shape" result="effect1_innerShadow_462_219"/>
</filter>
<filter id="filter18_f_462_219" x="98.9033" y="34.6174" width="82.8652" height="22.3516" filterUnits="userSpaceOnUse" color-interpolation-filters="sRGB">
<feFlood flood-opacity="0" result="BackgroundImageFix"/>
<feBlend mode="normal" in="SourceGraphic" in2="BackgroundImageFix" result="shape"/>
<feGaussianBlur stdDeviation="2" result="effect1_foregroundBlur_462_219"/>
</filter>
<filter id="filter19_n_462_219" x="125.929" y="112.784" width="23.4741" height="7.7677" filterUnits="userSpaceOnUse" color-interpolation-filters="sRGB">
<feFlood flood-opacity="0" result="BackgroundImageFix"/>
<feBlend mode="normal" in="SourceGraphic" in2="BackgroundImageFix" result="shape"/>
<feTurbulence type="fractalNoise" baseFrequency="0.25 0.25" stitchTiles="stitch" numOctaves="3" result="noise" seed="6770" />
<feColorMatrix in="noise" type="luminanceToAlpha" result="alphaNoise" />
<feComponentTransfer in="alphaNoise" result="coloredNoise1">
<feFuncA type="discrete" tableValues="1 1 1 1 1 1 1 1 1 1 1 1 1 1 1 1 1 1 1 1 1 1 1 1 1 1 1 1 1 1 1 1 1 1 1 1 1 1 1 1 1 1 1 1 1 1 1 1 1 1 1 0 0 0 0 0 0 0 0 0 0 0 0 0 0 0 0 0 0 0 0 0 0 0 0 0 0 0 0 0 0 0 0 0 0 0 0 0 0 0 0 0 0 0 0 0 0 0 0 0 "/>
</feComponentTransfer>
<feComposite operator="in" in2="shape" in="coloredNoise1" result="noise1Clipped" />
<feFlood flood-color="rgba(0, 0, 0, 0.25)" result="color1Flood" />
<feComposite operator="in" in2="noise1Clipped" in="color1Flood" result="color1" />
<feMerge result="effect1_noise_462_219">
<feMergeNode in="shape" />
<feMergeNode in="color1" />
</feMerge>
</filter>
<filter id="filter20_n_462_219" x="100.359" y="98.5314" width="17.2065" height="17.8666" filterUnits="userSpaceOnUse" color-interpolation-filters="sRGB">
<feFlood flood-opacity="0" result="BackgroundImageFix"/>
<feBlend mode="normal" in="SourceGraphic" in2="BackgroundImageFix" result="shape"/>
<feTurbulence type="fractalNoise" baseFrequency="0.25 0.25" stitchTiles="stitch" numOctaves="3" result="noise" seed="6770" />
<feColorMatrix in="noise" type="luminanceToAlpha" result="alphaNoise" />
<feComponentTransfer in="alphaNoise" result="coloredNoise1">
<feFuncA type="discrete" tableValues="1 1 1 1 1 1 1 1 1 1 1 1 1 1 1 1 1 1 1 1 1 1 1 1 1 1 1 1 1 1 1 1 1 1 1 1 1 1 1 1 1 1 1 1 1 1 1 1 1 1 1 0 0 0 0 0 0 0 0 0 0 0 0 0 0 0 0 0 0 0 0 0 0 0 0 0 0 0 0 0 0 0 0 0 0 0 0 0 0 0 0 0 0 0 0 0 0 0 0 0 "/>
</feComponentTransfer>
<feComposite operator="in" in2="shape" in="coloredNoise1" result="noise1Clipped" />
<feFlood flood-color="rgba(0, 0, 0, 0.25)" result="color1Flood" />
<feComposite operator="in" in2="noise1Clipped" in="color1Flood" result="color1" />
<feMerge result="effect1_noise_462_219">
<feMergeNode in="shape" />
<feMergeNode in="color1" />
</feMerge>
</filter>
<filter id="filter21_f_462_219" x="123.837" y="117.365" width="14.3931" height="16.3975" filterUnits="userSpaceOnUse" color-interpolation-filters="sRGB">
<feFlood flood-opacity="0" result="BackgroundImageFix"/>
<feBlend mode="normal" in="SourceGraphic" in2="BackgroundImageFix" result="shape"/>
<feGaussianBlur stdDeviation="2" result="effect1_foregroundBlur_462_219"/>
</filter>
<filter id="filter22_f_462_219" x="103.317" y="114.594" width="16.8618" height="13.6527" filterUnits="userSpaceOnUse" color-interpolation-filters="sRGB">
<feFlood flood-opacity="0" result="BackgroundImageFix"/>
<feBlend mode="normal" in="SourceGraphic" in2="BackgroundImageFix" result="shape"/>
<feGaussianBlur stdDeviation="2" result="effect1_foregroundBlur_462_219"/>
</filter>
<filter id="filter23_f_462_219" x="137.848" y="126.475" width="27.2466" height="25.7973" filterUnits="userSpaceOnUse" color-interpolation-filters="sRGB">
<feFlood flood-opacity="0" result="BackgroundImageFix"/>
<feBlend mode="normal" in="SourceGraphic" in2="BackgroundImageFix" result="shape"/>
<feGaussianBlur stdDeviation="2" result="effect1_foregroundBlur_462_219"/>
</filter>
<filter id="filter24_f_462_219" x="74.9663" y="114.698" width="27.2466" height="25.7973" filterUnits="userSpaceOnUse" color-interpolation-filters="sRGB">
<feFlood flood-opacity="0" result="BackgroundImageFix"/>
<feBlend mode="normal" in="SourceGraphic" in2="BackgroundImageFix" result="shape"/>
<feGaussianBlur stdDeviation="2" result="effect1_foregroundBlur_462_219"/>
</filter>
<radialGradient id="paint0_radial_462_219" cx="0" cy="0" r="1" gradientTransform="matrix(30.2965 6.38976 -1.92428 9.06083 128.154 90.3098)" gradientUnits="userSpaceOnUse">
<stop stop-color="#D7B33D"/>
<stop offset="1" stop-color="#B28E1A"/>
</radialGradient>
</defs>
</svg>
