<svg width="268" height="270" viewBox="0 0 268 270" fill="none" xmlns="http://www.w3.org/2000/svg">
<path d="M148.931 212.045C133.571 212.045 109.963 217.019 109.963 217.019L155.361 155.362L187.755 148.888L178.898 135.067L188.638 101.227L165.851 108.321C165.851 108.321 203.169 79.7412 230.433 79.7412C244.483 79.7412 254.448 78.4751 263.378 87.1968C272.308 95.9185 268.271 128.825 248.398 155.343C231.639 177.705 199.198 210.988 199.198 210.988L178.898 226.621C178.898 226.621 164.32 212.046 148.931 212.045Z" fill="white"/>
<path d="M24.4842 197.17C13.4186 181.891 0.0976562 152.581 0.0976562 152.581L72.212 132.206L79.528 206.914L62.4574 234.672C62.4574 234.672 36.3963 213.618 24.4842 197.17Z" fill="url(#paint0_linear_929_65)"/>
<path d="M82.0917 216.43C95.2706 206.697 121.21 202.403 121.21 202.403L158.536 146.233L186.008 143.402L176.751 127.268C176.751 127.268 183.076 125.838 186.008 123.305C190.945 119.04 192.278 113.909 190.786 107.737C189.644 103.015 188.21 98.9572 183.321 97.547C175.739 95.3604 172.272 113.681 172.272 113.681L164.21 89.3383C164.21 89.3383 152.581 68.5191 139.126 66.1278C134.656 65.3333 127.48 66.1278 127.48 66.1278C127.48 66.1278 123.831 63.8453 121.21 63.0141C104.978 57.8682 100.307 99.5283 100.307 99.5283C100.307 99.5283 79.3518 100.821 68.9529 107.737C56.901 115.752 52.8998 123.716 48.0496 136.892C37.2288 166.288 64.1751 216.43 64.1751 216.43L61.7864 235.395C61.7864 235.395 74.0887 222.341 82.0917 216.43Z" fill="url(#paint1_radial_929_65)" stroke="black"/>
<path d="M76.8999 161.211C72.4824 157.443 71.167 147.849 71.167 147.849L98.6608 162.392C98.6608 162.392 83.2274 166.609 76.8999 161.211Z" fill="#D53939"/>
<path d="M86.3962 131.64C78.6323 129.092 70.5698 133.055 70.5698 133.055L90.2781 144.377L116.854 150.604C116.854 150.604 115.063 142.962 106.702 139.282C102.577 137.467 95.0559 139.282 95.0559 139.282C95.0559 139.282 89.0583 132.513 86.3962 131.64Z" fill="#D53939"/>
<path d="M176.875 53.1934V50.6459C176.875 50.6459 185.67 55.898 190.014 60.5528C194.281 65.1252 198.674 73.8564 198.674 73.8564L194.194 77.8192C194.194 77.8192 190.718 68.0772 186.729 62.8173C183.504 58.5644 176.875 53.1934 176.875 53.1934Z" fill="#D30017" stroke="#551A24" stroke-width="0.7"/>
<path d="M177.473 49.5135L177.476 46.7124C177.476 46.7124 189.938 51.6173 195.094 55.4573C200.157 59.2292 204.948 66.7795 204.948 66.7795L199.871 70.1762C199.871 70.1762 195.833 61.0852 190.913 56.5895C186.935 52.9545 177.473 49.5135 177.473 49.5135Z" fill="#D30017" stroke="#551A24" stroke-width="0.7"/>
<g filter="url(#filter0_n_929_65)">
<path d="M178.367 74.5569C183.311 87.8605 183.445 97.6728 183.445 97.6728C183.445 97.6728 177.43 101.654 175.681 104.749C173.931 107.844 172.096 115.788 172.096 115.788C172.096 115.788 166.182 97.0717 160.151 87.0113C152.686 74.5569 139.249 68.8958 139.249 68.8958L126.408 66.3483C126.408 66.3483 120.685 63.7688 116.853 64.0838C109.377 64.6984 105.208 80.6895 105.208 80.6895C105.208 80.6895 102.852 69.4446 105.208 64.933C108.521 58.5896 114.101 55.3903 121.034 52.7616C129.912 49.3952 144.624 52.7616 144.624 52.7616C144.624 52.7616 145.108 40.9293 150.596 36.9105C155.235 33.5125 160.417 33.3094 165.528 34.9578C165.528 33.8027 166.921 31.4382 167.618 30.4003C170.664 25.8626 177.22 25.1653 181.95 28.1358C185.922 30.6301 187.586 34.5106 186.431 38.892C185.532 42.2986 180.217 45.6853 180.217 45.6853C181.34 47.717 181.952 50.0323 181.95 52.7616C181.945 58.7959 174.186 66.3483 174.186 66.3483C174.186 66.3483 177.119 71.1995 178.367 74.5569Z" fill="#0C1824"/>
<path d="M165.528 34.9578C167.747 35.6736 169.953 36.7386 172.096 38.0427C175.716 40.2466 178.538 42.6492 180.217 45.6853M165.528 34.9578C160.417 33.3094 155.235 33.5125 150.596 36.9105C145.108 40.9293 144.624 52.7616 144.624 52.7616C144.624 52.7616 129.912 49.3952 121.034 52.7616C114.101 55.3903 108.521 58.5896 105.208 64.933C102.852 69.4446 105.208 80.6895 105.208 80.6895C105.208 80.6895 109.377 64.6984 116.853 64.0838C120.685 63.7688 126.408 66.3483 126.408 66.3483L139.249 68.8958C139.249 68.8958 152.686 74.5569 160.151 87.0113C166.182 97.0717 172.096 115.788 172.096 115.788C172.096 115.788 173.931 107.844 175.681 104.749C177.43 101.654 183.445 97.6728 183.445 97.6728C183.445 97.6728 183.311 87.8605 178.367 74.5569C177.119 71.1995 174.186 66.3483 174.186 66.3483C174.186 66.3483 181.945 58.7959 181.95 52.7616C181.952 50.0323 181.34 47.717 180.217 45.6853M165.528 34.9578C165.528 33.8027 166.921 31.4382 167.618 30.4003C170.664 25.8626 177.22 25.1653 181.95 28.1358C185.922 30.6301 187.586 34.5106 186.431 38.892C185.532 42.2986 180.217 45.6853 180.217 45.6853" stroke="#1A283E"/>
</g>
<path d="M118.347 9.35945C118.347 9.35945 123.93 23.3295 125.215 32.287C126.52 41.3781 125.215 55.7806 125.215 55.7806C125.215 55.7806 126.708 59.7434 138.354 61.7248C152.389 64.1126 156.569 59.7434 156.569 59.7434L163.139 32.287L175.979 12.19L163.139 25.4936L158.66 32.287L151.194 16.4358L134.771 29.7395L123.984 16.4358V16.3539L118.347 9.35945Z" fill="url(#paint2_linear_929_65)"/>
<path d="M151.194 16.4358L158.66 32.287L163.139 25.4936L159.854 2.84917L141.042 19.8325L123.984 2V16.3539L134.771 29.7395L151.194 16.4358Z" fill="url(#paint3_linear_929_65)"/>
<path d="M134.771 29.7395L151.194 16.4358L158.66 32.287L163.139 25.4936M134.771 29.7395L123.984 16.4358V16.3539M134.771 29.7395L123.984 16.3539M163.139 25.4936L175.979 12.19L163.139 32.287L156.569 59.7434C156.569 59.7434 152.389 64.1126 138.354 61.7248C126.708 59.7434 125.215 55.7806 125.215 55.7806C125.215 55.7806 126.52 41.3781 125.215 32.287C123.93 23.3295 118.347 9.35945 118.347 9.35945L123.984 16.3539M163.139 25.4936L159.854 2.84917L141.042 19.8325L123.984 2V16.3539" stroke="#1A283E"/>
<g filter="url(#filter1_n_929_65)">
<path d="M138.354 86.4172C132.382 85.5681 127.903 90.0968 127.903 90.0968C127.903 90.0968 132.382 80.0097 139.847 81.3844C146.118 82.539 150 98.5885 150 98.5885C150 98.5885 144.326 87.2664 138.354 86.4172Z" fill="#122030"/>
<path d="M138.354 86.4172C132.382 85.5681 127.903 90.0968 127.903 90.0968C127.903 90.0968 132.382 80.0097 139.847 81.3844C146.118 82.539 150 98.5885 150 98.5885C150 98.5885 144.326 87.2664 138.354 86.4172Z" stroke="#1A283E"/>
</g>
<g filter="url(#filter2_n_929_65)">
<path d="M109.091 79.3366C105.287 79.4993 102.223 86.413 102.223 86.413C102.223 86.413 105.656 74.6395 111.181 75.6568C116.156 76.573 116.257 87.2621 116.257 87.2621C116.257 87.2621 113.048 79.1673 109.091 79.3366Z" fill="#122030"/>
<path d="M109.091 79.3366C105.287 79.4993 102.223 86.413 102.223 86.413C102.223 86.413 105.656 74.6395 111.181 75.6568C116.156 76.573 116.257 87.2621 116.257 87.2621C116.257 87.2621 113.048 79.1673 109.091 79.3366Z" stroke="#1A283E"/>
</g>
<path d="M137.156 95.0567L139.076 94.1333C139.076 94.1333 144.102 99.1862 144.752 101.615C145.776 105.436 144.011 107.518 144.011 107.518C144.011 107.518 141.4 96.222 135.829 96.0472C131.723 95.9183 125.634 100.598 125.634 100.598L126.983 97.0441L126.863 95.6053L128.938 95.8396L128.487 94.6484L130.492 95.4448L130.11 93.6914L132.115 94.4878L132.92 92.8683L134.784 94.789L136.182 93.2365L137.156 95.0567Z" fill="black" stroke="black"/>
<path d="M144.71 106.742C144.008 112.33 139.058 116.366 133.654 115.756C125.945 114.886 123.549 110.021 124.25 104.432C124.952 98.8441 128.783 94.682 136.196 95.5186C141.6 96.1286 145.412 101.153 144.71 106.742Z" fill="url(#paint4_radial_929_65)"/>
<ellipse cx="3.87918" cy="5.3823" rx="3.87918" ry="5.3823" transform="matrix(0.993691 0.112154 -0.124632 0.992203 133.188 100.31)" fill="#282121"/>
<path d="M138.836 103.228C138.719 104.159 137.99 104.843 137.206 104.754C136.089 104.628 135.754 103.825 135.871 102.893C135.988 101.962 136.556 101.26 137.63 101.382C138.413 101.47 138.953 102.297 138.836 103.228Z" fill="url(#paint5_radial_929_65)"/>
<path d="M110.166 86.3443L112.086 85.4208C112.086 85.4208 116.557 90.5964 116.557 93.6431C116.557 97.5856 115.064 99.8703 115.064 99.8703C115.064 99.8703 114.41 87.5096 108.838 87.3347C104.732 87.2058 99.8704 93.6431 99.8704 93.6431L99.9922 88.3317L99.8722 86.8929L101.948 87.1271L101.496 85.9359L103.501 86.7323L103.12 84.979L105.125 85.7754L105.93 84.1559L107.793 86.0766L109.191 84.524L110.166 86.3443Z" fill="black" stroke="black"/>
<path d="M115.862 97.7073C115.16 103.296 114.455 107.674 106.374 106.664C99.5823 105.815 98.5817 101.424 99.2837 95.8362C99.9856 90.2479 103.198 86.016 109.204 86.6939C113.583 87.1881 116.564 92.119 115.862 97.7073Z" fill="url(#paint6_radial_929_65)"/>
<ellipse cx="3.87918" cy="5.3823" rx="3.87918" ry="5.3823" transform="matrix(0.993691 0.112154 -0.124632 0.992203 107.744 91.9448)" fill="#282121"/>
<path d="M113.76 95.6643C113.643 96.5957 112.913 97.279 112.13 97.1906C111.013 97.0645 110.678 96.261 110.795 95.3296C110.912 94.3982 111.48 93.6965 112.554 93.8178C113.337 93.9062 113.877 94.7329 113.76 95.6643Z" fill="url(#paint7_radial_929_65)"/>
<g filter="url(#filter3_f_929_65)">
<path d="M120.139 109.278C120.139 109.278 127.195 115.304 132.083 116.072C138.335 117.054 147.312 113.807 147.312 113.807" stroke="#F5987E"/>
</g>
<g filter="url(#filter4_f_929_65)">
<path d="M96.25 100.786C96.25 100.786 97.3384 103.734 101.326 106.448C106.427 109.918 109.986 108.712 109.986 108.712" stroke="#F5987E"/>
</g>
<path d="M103.047 112.971C103.047 112.971 109.502 107.567 114.394 107.876C120.814 108.28 126.339 118.632 126.339 118.632V127.406C126.339 127.406 125.145 132.218 119.472 131.369C117.894 131.133 118.718 129.6 117.381 128.822C113.507 126.564 111.143 131.369 105.736 128.822C103.368 127.706 100.657 126.645 99.1654 124.576C97.2493 121.918 93.8918 122.594 96.7765 116.65C97.9801 114.17 103.047 112.971 103.047 112.971Z" fill="url(#paint8_linear_929_65)"/>
<path d="M119.987 121.152C122.467 119.5 125.649 119.08 127.751 121.152C129.771 123.144 129.214 125.838 127.751 128.229C126.074 130.966 123.097 132.778 119.987 131.625C115.968 130.136 116.456 123.504 119.987 121.152Z" fill="url(#paint9_linear_929_65)"/>
<path d="M95.3947 114.19C97.2603 112.737 99.6529 112.368 101.233 114.19C102.753 115.943 102.334 118.313 101.233 120.415C99.9728 122.824 97.7337 124.417 95.3947 123.404C92.3726 122.094 92.7399 116.259 95.3947 114.19Z" fill="url(#paint10_linear_929_65)"/>
<path d="M80.8487 158.481C67.0864 153.165 67.8672 127.111 67.8672 127.111C67.8672 127.111 88.8877 136.415 99.2091 141.821C112.418 148.738 138.339 154.118 138.339 154.118C138.339 154.118 112.498 170.708 80.8487 158.481Z" fill="#2D2B2B"/>
<path d="M73.482 140.979L85.4454 149.867L88.1125 147.353L82.7865 143.802L124.536 158.588C124.536 158.588 126.023 158.715 129.699 157.891C133.375 157.067 137.158 154.284 137.158 154.284C137.158 154.284 109.918 148.35 97.4544 141.324C82.7866 133.055 76.8398 133.055 76.8398 133.055L73.482 140.979Z" fill="white" stroke="#6C6C6C" stroke-opacity="0.36"/>
<g filter="url(#filter5_f_929_65)">
<path d="M66.9843 156.549C66.9843 156.549 71.1397 165.668 75.0468 168.437C81.7674 173.199 112.375 168.437 112.375 168.437" stroke="#F49279" stroke-opacity="0.39" stroke-width="2" stroke-linecap="round"/>
</g>
<path d="M106.999 204.102C41.5974 224.199 60.2978 265.242 61.0145 268.639C61.0145 268.639 101.161 268.641 127.306 259.581C200.131 234.344 181.952 204.102 181.952 204.102C181.952 204.102 142.367 193.234 106.999 204.102Z" fill="url(#paint11_radial_929_65)" stroke="#F49279" stroke-opacity="0.39" stroke-width="2" stroke-linecap="round"/>
<defs>
<filter id="filter0_n_929_65" x="103.661" y="25.844" width="83.6289" height="91.8409" filterUnits="userSpaceOnUse" color-interpolation-filters="sRGB">
<feFlood flood-opacity="0" result="BackgroundImageFix"/>
<feBlend mode="normal" in="SourceGraphic" in2="BackgroundImageFix" result="shape"/>
<feTurbulence type="fractalNoise" baseFrequency="2 2" stitchTiles="stitch" numOctaves="3" result="noise" seed="8626" />
<feColorMatrix in="noise" type="luminanceToAlpha" result="alphaNoise" />
<feComponentTransfer in="alphaNoise" result="coloredNoise1">
<feFuncA type="discrete" tableValues="1 1 1 1 1 1 1 1 1 1 1 1 1 1 1 1 1 1 1 1 1 1 1 1 1 1 1 1 1 1 1 1 1 1 1 1 1 1 1 1 1 1 1 1 1 1 1 1 1 1 1 0 0 0 0 0 0 0 0 0 0 0 0 0 0 0 0 0 0 0 0 0 0 0 0 0 0 0 0 0 0 0 0 0 0 0 0 0 0 0 0 0 0 0 0 0 0 0 0 0 "/>
</feComponentTransfer>
<feComposite operator="in" in2="shape" in="coloredNoise1" result="noise1Clipped" />
<feFlood flood-color="rgba(0, 0, 0, 0.25)" result="color1Flood" />
<feComposite operator="in" in2="noise1Clipped" in="color1Flood" result="color1" />
<feMerge result="effect1_noise_929_65">
<feMergeNode in="shape" />
<feMergeNode in="color1" />
</feMerge>
</filter>
<filter id="filter1_n_929_65" x="127.446" y="80.7551" width="23.04" height="18.0574" filterUnits="userSpaceOnUse" color-interpolation-filters="sRGB">
<feFlood flood-opacity="0" result="BackgroundImageFix"/>
<feBlend mode="normal" in="SourceGraphic" in2="BackgroundImageFix" result="shape"/>
<feTurbulence type="fractalNoise" baseFrequency="0.25 0.25" stitchTiles="stitch" numOctaves="3" result="noise" seed="5021" />
<feColorMatrix in="noise" type="luminanceToAlpha" result="alphaNoise" />
<feComponentTransfer in="alphaNoise" result="coloredNoise1">
<feFuncA type="discrete" tableValues="1 1 1 1 1 1 1 1 1 1 1 1 1 1 1 1 1 1 1 1 1 1 1 1 1 1 1 1 1 1 1 1 1 1 1 1 1 1 1 1 1 1 1 1 1 1 1 1 1 1 1 0 0 0 0 0 0 0 0 0 0 0 0 0 0 0 0 0 0 0 0 0 0 0 0 0 0 0 0 0 0 0 0 0 0 0 0 0 0 0 0 0 0 0 0 0 0 0 0 0 "/>
</feComponentTransfer>
<feComposite operator="in" in2="shape" in="coloredNoise1" result="noise1Clipped" />
<feFlood flood-color="rgba(0, 0, 0, 0.25)" result="color1Flood" />
<feComposite operator="in" in2="noise1Clipped" in="color1Flood" result="color1" />
<feMerge result="effect1_noise_929_65">
<feMergeNode in="shape" />
<feMergeNode in="color1" />
</feMerge>
</filter>
<filter id="filter2_n_929_65" x="101.743" y="75.0942" width="15.0146" height="12.3522" filterUnits="userSpaceOnUse" color-interpolation-filters="sRGB">
<feFlood flood-opacity="0" result="BackgroundImageFix"/>
<feBlend mode="normal" in="SourceGraphic" in2="BackgroundImageFix" result="shape"/>
<feTurbulence type="fractalNoise" baseFrequency="0.25 0.25" stitchTiles="stitch" numOctaves="3" result="noise" seed="5021" />
<feColorMatrix in="noise" type="luminanceToAlpha" result="alphaNoise" />
<feComponentTransfer in="alphaNoise" result="coloredNoise1">
<feFuncA type="discrete" tableValues="1 1 1 1 1 1 1 1 1 1 1 1 1 1 1 1 1 1 1 1 1 1 1 1 1 1 1 1 1 1 1 1 1 1 1 1 1 1 1 1 1 1 1 1 1 1 1 1 1 1 1 0 0 0 0 0 0 0 0 0 0 0 0 0 0 0 0 0 0 0 0 0 0 0 0 0 0 0 0 0 0 0 0 0 0 0 0 0 0 0 0 0 0 0 0 0 0 0 0 0 "/>
</feComponentTransfer>
<feComposite operator="in" in2="shape" in="coloredNoise1" result="noise1Clipped" />
<feFlood flood-color="rgba(0, 0, 0, 0.25)" result="color1Flood" />
<feComposite operator="in" in2="noise1Clipped" in="color1Flood" result="color1" />
<feMerge result="effect1_noise_929_65">
<feMergeNode in="shape" />
<feMergeNode in="color1" />
</feMerge>
</filter>
<filter id="filter3_f_929_65" x="115.814" y="104.898" width="35.668" height="15.8585" filterUnits="userSpaceOnUse" color-interpolation-filters="sRGB">
<feFlood flood-opacity="0" result="BackgroundImageFix"/>
<feBlend mode="normal" in="SourceGraphic" in2="BackgroundImageFix" result="shape"/>
<feGaussianBlur stdDeviation="2" result="effect1_foregroundBlur_929_65"/>
</filter>
<filter id="filter4_f_929_65" x="91.771" y="96.6093" width="22.3711" height="16.7974" filterUnits="userSpaceOnUse" color-interpolation-filters="sRGB">
<feFlood flood-opacity="0" result="BackgroundImageFix"/>
<feBlend mode="normal" in="SourceGraphic" in2="BackgroundImageFix" result="shape"/>
<feGaussianBlur stdDeviation="2" result="effect1_foregroundBlur_929_65"/>
</filter>
<filter id="filter5_f_929_65" x="61.9712" y="151.562" width="55.4175" height="23.9786" filterUnits="userSpaceOnUse" color-interpolation-filters="sRGB">
<feFlood flood-opacity="0" result="BackgroundImageFix"/>
<feBlend mode="normal" in="SourceGraphic" in2="BackgroundImageFix" result="shape"/>
<feGaussianBlur stdDeviation="2" result="effect1_foregroundBlur_929_65"/>
</filter>
<linearGradient id="paint0_linear_929_65" x1="43.6947" y1="174.381" x2="40.2054" y2="234.695" gradientUnits="userSpaceOnUse">
<stop stop-color="#FFF5F5"/>
<stop offset="1" stop-color="#737373"/>
</linearGradient>
<radialGradient id="paint1_radial_929_65" cx="0" cy="0" r="1" gradientUnits="userSpaceOnUse" gradientTransform="translate(118.425 148.985) rotate(90) scale(86.4107 72.9383)">
<stop stop-color="#FFE9DF"/>
<stop offset="1" stop-color="#FFB8A1"/>
</radialGradient>
<linearGradient id="paint2_linear_929_65" x1="147.163" y1="2" x2="147.163" y2="62.4385" gradientUnits="userSpaceOnUse">
<stop offset="0.269231" stop-color="#FBE899"/>
<stop offset="0.576923" stop-color="#FFCE0A"/>
<stop offset="0.9999" stop-color="#997C06"/>
</linearGradient>
<linearGradient id="paint3_linear_929_65" x1="147.163" y1="2" x2="147.163" y2="62.4385" gradientUnits="userSpaceOnUse">
<stop stop-color="#E3B82C"/>
<stop offset="0.5" stop-color="#B6931F"/>
<stop offset="1" stop-color="#896E12"/>
</linearGradient>
<radialGradient id="paint4_radial_929_65" cx="0" cy="0" r="1" gradientTransform="matrix(12.7073 24.5237 -24.7933 11.5435 134.48 105.587)" gradientUnits="userSpaceOnUse">
<stop stop-color="white"/>
</radialGradient>
<radialGradient id="paint5_radial_929_65" cx="0" cy="0" r="1" gradientTransform="matrix(1.77947 4.04909 -3.63185 1.98039 137.354 103.061)" gradientUnits="userSpaceOnUse">
<stop stop-color="white"/>
</radialGradient>
<radialGradient id="paint6_radial_929_65" cx="0" cy="0" r="1" gradientTransform="matrix(9.75432 24.1904 -20.4271 12.0363 107.573 96.7718)" gradientUnits="userSpaceOnUse">
<stop stop-color="white"/>
</radialGradient>
<radialGradient id="paint7_radial_929_65" cx="0" cy="0" r="1" gradientTransform="matrix(1.77947 4.04909 -3.63185 1.98039 112.278 95.4969)" gradientUnits="userSpaceOnUse">
<stop stop-color="white"/>
</radialGradient>
<linearGradient id="paint8_linear_929_65" x1="110.996" y1="107.863" x2="110.996" y2="131.47" gradientUnits="userSpaceOnUse">
<stop stop-color="#FFDBC6"/>
<stop offset="0.5" stop-color="#FED2BE"/>
<stop offset="1" stop-color="#F5BDA9"/>
</linearGradient>
<linearGradient id="paint9_linear_929_65" x1="118.828" y1="121.422" x2="128.262" y2="133.577" gradientUnits="userSpaceOnUse">
<stop stop-color="#FFDBC6"/>
<stop offset="0.5" stop-color="#FECFBB"/>
<stop offset="1" stop-color="#FCC3B0"/>
</linearGradient>
<linearGradient id="paint10_linear_929_65" x1="101.326" y1="114.939" x2="90.7144" y2="118.982" gradientUnits="userSpaceOnUse">
<stop stop-color="#FFDBC6"/>
<stop offset="0.5" stop-color="#FECFBB"/>
<stop offset="1" stop-color="#EFB4A0"/>
</linearGradient>
<radialGradient id="paint11_radial_929_65" cx="0" cy="0" r="1" gradientTransform="matrix(0.161553 76.9771 -136.896 0.258154 119.978 234.12)" gradientUnits="userSpaceOnUse">
<stop stop-color="#E43A24"/>
<stop offset="1" stop-color="#7E2014"/>
</radialGradient>
</defs>
</svg>
