<svg width="93" height="87" viewBox="0 0 93 87" fill="none" xmlns="http://www.w3.org/2000/svg">
<path d="M15.4981 36.522C1.40635 32.5459 9.6618 10.6592 27.8701 6.84422C36.1781 5.10351 42.6413 4.04083 48.9121 7.82526C55.2541 11.6526 56.5758 14.9289 57.4105 22.0896C59.1698 37.1825 30.9967 56.5114 32.2077 60.7687C33.3358 64.7344 46.6419 55.6603 49.7422 58.1431C57.49 64.3479 39.2418 71.3569 39.2418 71.3569C39.2418 71.3569 22.4862 73.6332 17.6783 69.8871C9.72071 63.6868 16.4229 54.1461 24.1916 46.0939C33.7105 36.2277 48.4924 24.1936 38.1537 17.4049C26.0016 9.42552 22.116 38.3893 15.4981 36.522Z" fill="#E82ABB"/>
<ellipse cx="46.02" cy="78.292" rx="7.42367" ry="6.01125" transform="rotate(-15.879 46.02 78.292)" fill="#E82ABB"/>
<g filter="url(#filter0_f_473_33)">
<path d="M63.385 43.596C57.1268 41.6122 60.096 31.0165 67.9247 29.233C71.4967 28.4192 74.284 27.9277 77.1269 29.7889C80.0021 31.6712 80.6726 33.2669 81.2427 36.7468C82.4442 44.0817 70.7176 53.3601 71.3681 55.4318C71.9741 57.3616 77.5142 53.006 78.9373 54.2233C82.4939 57.2652 74.7397 60.5994 74.7397 60.5994C74.7397 60.5994 67.5 61.6413 65.296 59.8043C61.6482 56.7637 64.2956 52.1567 67.4508 48.2764C71.3169 43.5219 77.4151 37.7348 72.7122 34.3995C67.1844 30.4793 66.3241 44.5276 63.385 43.596Z" fill="#E82ABB" fill-opacity="0.46"/>
<ellipse cx="81.0339" cy="71.5957" rx="3.2017" ry="2.949" transform="rotate(-17.4335 81.0339 71.5957)" fill="#E82ABB" fill-opacity="0.46"/>
</g>
<defs>
<filter id="filter0_f_473_33" x="56.0068" y="24.5077" width="32.2075" height="54.0614" filterUnits="userSpaceOnUse" color-interpolation-filters="sRGB">
<feFlood flood-opacity="0" result="BackgroundImageFix"/>
<feBlend mode="normal" in="SourceGraphic" in2="BackgroundImageFix" result="shape"/>
<feGaussianBlur stdDeviation="2" result="effect1_foregroundBlur_473_33"/>
</filter>
</defs>
</svg>
