<svg width="609" height="309" viewBox="0 0 609 309" fill="none" xmlns="http://www.w3.org/2000/svg">
<path d="M233 109.654C233 109.654 259.88 73.3681 308.293 75.4672C378.919 78.5294 414.376 133.637 414.376 133.637C414.376 133.637 408.516 84.8924 411.078 63.8053C413.639 42.7183 430.526 24.711 430.526 24.711C430.526 24.711 449.485 8.63181 463.569 4.33634C477.653 0.0408814 502.801 -8.58128 527.191 0.0993852C572.604 16.2622 624.879 110.159 561.332 119.074C535.104 122.753 523.355 66.3031 494.665 83.5479C473.892 96.0341 493.389 113.069 485.035 133.382C478.218 149.954 464.761 164.285 453.46 168.516C442.158 172.747 421.566 162.393 421.566 162.393C421.566 162.393 418.581 198.122 411.053 210.292C403.525 222.463 383.013 224.721 383.013 224.721L382.13 245.068C382.13 245.068 352.107 251.838 333.861 239.656C310.782 224.249 325.005 187.733 332.92 171.496L294.547 244.034L253.18 237.5C253.18 237.5 245.322 260.879 226.373 262.492C211.23 263.781 184.521 254.989 184.521 254.989L154.274 235.188L108.567 243.636C108.567 243.636 96.0661 232.664 94.3936 217.896C93.277 208.035 104.529 190.839 104.529 190.839C104.529 190.839 143.396 202.828 163.077 202.385C182.759 201.942 212.024 192.181 212.024 192.181C212.024 192.181 244.71 162.483 248.806 146.369C252.902 130.255 233 109.654 233 109.654Z" fill="#901B8E" stroke="#6D194C" stroke-width="4"/>
<path d="M103.436 190.791C103.436 190.791 98.6625 151.438 76.8501 144.723C47.6709 135.741 27.9036 172.11 31.4503 198.542C35.3076 227.288 66.7362 246.315 99.8972 244.786C123.229 243.71 152.308 238.269 150.102 218.014C149.041 208.274 135.425 196.04 135.425 196.04L103.436 190.791Z" fill="#901B8E" stroke="#6D194C" stroke-width="3"/>
<g filter="url(#filter0_i_290_18)">
<path d="M307.603 172.737L291.51 189.737C291.51 189.737 287.05 158.784 278.231 141.854C269.412 124.924 247 98.9999 247 98.9999C247 98.9999 249.887 95.8522 252.5 93.9999C256.08 91.4621 261 88.5 261 88.5C261 88.5 283.375 116.058 292.559 132.605C301.743 149.152 307.603 172.737 307.603 172.737Z" fill="#8F5AC8"/>
<path d="M307.603 172.737L291.51 189.737C291.51 189.737 287.05 158.784 278.231 141.854C269.412 124.924 247 98.9999 247 98.9999C247 98.9999 249.887 95.8522 252.5 93.9999C256.08 91.4621 261 88.5 261 88.5C261 88.5 283.375 116.058 292.559 132.605C301.743 149.152 307.603 172.737 307.603 172.737Z" stroke="black"/>
</g>
<path d="M290 240L278.5 240C278.5 240 273.979 204.876 270.154 188.06C266.328 171.244 251.072 140.019 251.072 140.019L253.223 138.5L262.148 136.889C262.148 136.889 276.083 166.876 280.345 183.458C284.607 200.039 290 240 290 240Z" fill="#8F5AC8"/>
<path d="M255.795 230.468L247.092 230.09C247.092 230.09 245.195 208.354 242.61 194.487C240.025 180.62 228.92 155.037 228.92 155.037L230.617 153.734L237.554 152.216C237.554 152.216 247.664 176.799 250.592 190.463C253.52 204.127 255.795 230.468 255.795 230.468Z" fill="#8F5AC8"/>
<path d="M219.38 230.25L210.677 229.873C210.677 229.873 208.779 208.137 206.194 194.27C203.609 180.402 192.505 154.82 192.505 154.82L194.202 153.516L201.139 151.998C201.139 151.998 211.248 176.582 214.176 190.245C217.105 203.909 219.38 230.25 219.38 230.25Z" fill="#8F5AC8"/>
<path d="M196.569 229.261L187.866 228.884C187.866 228.884 185.968 207.148 183.383 193.281C180.798 179.413 169.693 153.831 169.693 153.831L171.391 152.527L178.327 151.009C178.327 151.009 188.437 175.593 191.365 189.256C194.293 202.92 196.569 229.261 196.569 229.261Z" fill="#8F5AC8"/>
<path d="M168.083 227.345L159.38 226.968C159.38 226.968 157.482 205.232 154.897 191.365C152.312 177.498 141.207 151.915 141.207 151.915L142.905 150.611L149.842 149.093C149.842 149.093 159.951 173.677 162.879 187.341C165.807 201.004 168.083 227.345 168.083 227.345Z" fill="#8F5AC8"/>
<g filter="url(#filter1_i_290_18)">
<path d="M346.357 160.186L330.559 162.161C330.559 162.161 326.832 147.242 317.997 130.691C309.161 114.14 278 81.5 278 81.5C278 81.5 283.655 79.7041 287.5 79C291.945 78.186 298.5 77.5 298.5 77.5C298.5 77.5 323.115 105.491 332.315 121.668C341.515 137.845 346.357 160.186 346.357 160.186Z" fill="#8F5AC8"/>
<path d="M346.357 160.186L330.559 162.161C330.559 162.161 326.832 147.242 317.997 130.691C309.161 114.14 278 81.5 278 81.5C278 81.5 283.655 79.7041 287.5 79C291.945 78.186 298.5 77.5 298.5 77.5C298.5 77.5 323.115 105.491 332.315 121.668C341.515 137.845 346.357 160.186 346.357 160.186Z" stroke="black"/>
</g>
<g filter="url(#filter2_i_290_18)">
<path d="M390.951 165.342L369.845 160.593C369.845 160.593 372.229 154.771 365.877 137.417C359.217 119.22 327.5 80 327.5 80C327.5 80 329.5 80 336.323 81.7607C340.687 82.887 349.5 85.5 349.5 85.5C349.5 85.5 371.027 110.993 380.141 127.927C389.256 144.861 390.951 165.342 390.951 165.342Z" fill="#8F5AC8"/>
<path d="M390.951 165.342L369.845 160.593C369.845 160.593 372.229 154.771 365.877 137.417C359.217 119.22 327.5 80 327.5 80C327.5 80 329.5 80 336.323 81.7607C340.687 82.887 349.5 85.5 349.5 85.5C349.5 85.5 371.027 110.993 380.141 127.927C389.256 144.861 390.951 165.342 390.951 165.342Z" stroke="black"/>
</g>
<g filter="url(#filter3_i_290_18)">
<path d="M412.345 178.266L402.356 171.548C402.356 171.548 403.661 169.667 402.444 157.211C401.168 144.151 390.263 110.635 390.263 110.635C390.263 110.635 391.933 112.306 394.571 114.464C396.502 116.043 400.004 117.841 400.004 117.841C400.004 117.841 408.484 139.36 411.225 151.734C413.965 164.107 412.345 178.266 412.345 178.266Z" fill="#8F5AC8"/>
<path d="M412.345 178.266L402.356 171.548C402.356 171.548 403.661 169.667 402.444 157.211C401.168 144.151 390.263 110.635 390.263 110.635C390.263 110.635 391.933 112.306 394.571 114.464C396.502 116.043 400.004 117.841 400.004 117.841C400.004 117.841 408.484 139.36 411.225 151.734C413.965 164.107 412.345 178.266 412.345 178.266Z" stroke="black"/>
</g>
<g filter="url(#filter4_i_290_18)">
<path d="M468.5 155.5L460 162.5C460 162.5 458.329 156.704 450.769 146.73C442.842 136.272 415 119.5 415 119.5C415 119.5 414.5 111.054 414.5 114.5C414.5 120.532 413 103.5 413 103.5C413 103.5 446.566 128.36 455.38 137.466C464.195 146.571 468.5 155.5 468.5 155.5Z" fill="#8F5AC8"/>
<path d="M468.5 155.5L460 162.5C460 162.5 458.329 156.704 450.769 146.73C442.842 136.272 415 119.5 415 119.5C415 119.5 414.5 111.054 414.5 114.5C414.5 120.532 413 103.5 413 103.5C413 103.5 446.566 128.36 455.38 137.466C464.195 146.571 468.5 155.5 468.5 155.5Z" stroke="black"/>
</g>
<g filter="url(#filter5_i_290_18)">
<path d="M484 132L477.5 142C477.5 142 461.36 127.2 447.993 113.39C436 101 412.224 86.1597 412.224 86.1597L412.224 80L412.224 71.5C412.224 71.5 443.789 95.0198 452.604 104.125C461.419 113.231 484 132 484 132Z" fill="#8F5AC8"/>
<path d="M484 132L477.5 142C477.5 142 461.36 127.2 447.993 113.39C436 101 412.224 86.1597 412.224 86.1597L412.224 80L412.224 71.5C412.224 71.5 443.789 95.0198 452.604 104.125C461.419 113.231 484 132 484 132Z" stroke="black"/>
</g>
<path d="M199.476 217.92C199.476 217.92 223.875 185.971 246.294 190.482C276.285 196.517 274.757 237.515 258.073 258.812C239.929 281.974 202.814 283.606 174.77 266.544C155.039 254.538 132.557 236.012 144.896 219.449C150.831 211.483 168.963 207.308 168.963 207.308L199.476 217.92Z" fill="#901B8E" stroke="#6D194C" stroke-width="3"/>
<path d="M484 92.5L482.5 100C482.5 100 472.455 88.194 458.234 80.2265C444.013 72.2591 412.921 59.5919 412.921 59.5919L414.976 54.2742L417.375 50.4997C417.375 50.4997 442.451 60.0766 456.83 67.625C471.209 75.1734 484 92.5 484 92.5Z" fill="#8F5AC8"/>
<g filter="url(#filter6_i_290_18)">
<path d="M498 80L493 82.5C493 82.5 479 54.8225 469.5 49.5C455.279 41.5325 430.5 28 430.5 28L433.5 25L437.5 21.5C437.5 21.5 459.621 32.9516 474 40.5C487.5 47.5868 498 80 498 80Z" fill="#8F5AC8"/>
<path d="M498 80L493 82.5C493 82.5 479 54.8225 469.5 49.5C455.279 41.5325 430.5 28 430.5 28L433.5 25L437.5 21.5C437.5 21.5 459.621 32.9516 474 40.5C487.5 47.5868 498 80 498 80Z" stroke="black"/>
</g>
<path d="M518 82.5001L510 79.0001C510 79.0001 508 47.5 500.5 36.5C491.358 23.092 468.693 5.33016 468.693 5.33016L472.5 4.00007L478 2.00002C478 2.00002 500.55 19.3747 510 32.5C519 45 518 82.5001 518 82.5001Z" fill="#8F5AC8"/>
<path d="M535 100.5L527 90C527 90 534.383 54.5 532.383 43C529.61 27.0599 513 -1.54534e-05 513 -1.54534e-05L520 -0.000101909L525.5 0.999952C525.5 0.999952 540.912 27.4908 545.5 43C549.05 55 535 100.5 535 100.5Z" fill="#8F5AC8"/>
<path d="M262 249L258.5 255C258.5 255 243.573 231.652 238 224C232.427 216.348 215 203.5 215 203.5L218.5 201L223.5 198.5C223.5 198.5 239.733 213.524 245.5 221C251.267 228.476 262 249 262 249Z" fill="#8F5AC8"/>
<path d="M91.2999 156.056L96.1703 161.009C96.1703 161.009 69.7222 169.281 60.8752 172.649C52.0281 176.017 32.5 190 32.5 190L33.5618 185.425L33.5617 180C33.5617 180 51.222 168.226 59.9498 164.625C68.6777 161.023 91.2999 156.056 91.2999 156.056Z" fill="#8F5AC8"/>
<path d="M92.5898 174.796L97.4602 179.749C97.4602 179.749 71.0121 188.021 62.165 191.389C53.318 194.757 36.5001 210.5 36.5001 210.5L34.8516 205.5L33.5002 200.5C33.5002 200.5 52.5118 186.966 61.2397 183.364C69.9675 179.763 92.5898 174.796 92.5898 174.796Z" fill="#8F5AC8"/>
<path d="M101.945 189.409L107.169 193.987C107.169 193.987 81.4073 204.197 72.8344 208.212C64.2614 212.227 50.5002 228 50.5002 228L46 224.5L43 220.5C43 220.5 62.8799 204.517 71.3167 200.278C79.7535 196.039 101.945 189.409 101.945 189.409Z" fill="#8F5AC8"/>
<path d="M122.256 200.69L127.48 205.268C127.48 205.268 101.718 215.479 93.145 219.493C84.572 223.508 70.8108 239.281 70.8108 239.281L64 236.5L60.5 234.5C60.5 234.5 83.1905 215.798 91.6273 211.559C100.064 207.32 122.256 200.69 122.256 200.69Z" fill="#8F5AC8"/>
<path d="M143.5 207L145.5 211.5C145.5 211.5 131.771 218.216 123.211 222.168C114.652 226.12 100.997 243.516 100.997 243.516L93.0003 243.5L87.9998 242.502C87.9998 242.502 113.252 218.496 121.675 214.321C130.097 210.147 143.5 207 143.5 207Z" fill="#8F5AC8"/>
<path d="M247.5 266L240.5 270.5C240.5 270.5 227.678 247.362 222.105 239.71C216.532 232.058 199.105 219.21 199.105 219.21L202.605 216.71L206 213.5C206 213.5 223.838 229.234 229.605 236.71C235.372 244.186 247.5 266 247.5 266Z" fill="#8F5AC8"/>
<path d="M224 275L215.883 276.195C215.883 276.195 204.969 252.946 200.02 245.136C195.071 237.327 172 210 172 210L178 212.5L183.5 214.5C183.5 214.5 202.657 235.289 207.816 242.947C212.976 250.606 224 275 224 275Z" fill="#8F5AC8"/>
<path d="M192.5 272.5L183.5 270C183.5 270 177.081 248.863 173.289 240.875C169.498 232.888 153.5 215 153.5 215L157 213L162 210.5C162 210.5 177.263 232.247 181.283 240.131C185.303 248.014 192.5 272.5 192.5 272.5Z" fill="#8F5AC8"/>
<path d="M83.3348 74.6922C76.7803 80.0299 75.9254 85.4113 79.3223 94.639C82.5131 103.307 87.9636 106.612 96.6368 110.322C103.737 113.359 108.361 114.232 114.291 110.81C119.505 107.802 121.538 104.082 122.317 97.9264C123.095 91.7704 123.002 85.1458 118.278 79.2834C113.433 73.2719 106.848 71.8631 100.025 70.9666C93.2019 70.0701 88.4558 70.5219 83.3348 74.6922Z" fill="#FFDF58"/>
<path fill-rule="evenodd" clip-rule="evenodd" d="M29.203 90.0083C11.351 178.755 125.205 206.489 125.205 206.489C125.205 206.489 182.632 210.647 211.656 198.768C240.679 186.89 284.246 146.272 256.861 130.574C243.705 123.033 235.473 107.223 235.473 107.223C235.473 107.223 258.788 54.8161 237.922 50.9227C221.162 47.7951 193.287 67.4984 193.287 67.4984C193.287 67.4984 169.282 58.9367 155.407 56.3476C141.532 53.7585 122.054 54.2063 122.054 54.2063C122.054 54.2063 109.108 26.1919 93.5359 23.98C77.9642 21.7681 66.0313 75.322 66.0313 75.322C66.0313 75.322 31.3112 79.5277 29.203 90.0083ZM79.3223 94.639C75.9254 85.4113 76.7803 80.0299 83.3348 74.6922C88.4558 70.5219 93.2019 70.0701 100.025 70.9666C106.848 71.8631 113.433 73.2719 118.278 79.2834C123.002 85.1458 123.095 91.7704 122.317 97.9264C121.538 104.082 119.505 107.802 114.291 110.81C108.361 114.232 103.737 113.359 96.6368 110.322C87.9636 106.612 82.5131 103.307 79.3223 94.639Z" fill="#901B8E"/>
<path d="M188.145 178.772L191.1 156.874C191.1 156.874 202.491 152.787 208.713 149.462C214.935 146.137 227.772 138.462 227.772 138.462C227.772 138.462 221.87 156.27 214.369 163.671C206.867 171.073 188.145 178.772 188.145 178.772Z" fill="#F9FFF9"/>
<path d="M73.6747 154.994L79.5319 133.156C79.5319 133.156 72.3143 125.589 68.1802 120.008C64.0461 114.427 55.8804 102.177 55.8804 102.177C55.8804 102.177 55.6478 124.142 59.1188 133.933C62.5899 143.724 73.6747 154.994 73.6747 154.994Z" fill="#F9FFF9"/>
<path d="M76.7397 156.731L83.698 134.083C83.698 134.083 86.8917 138.216 89.4372 140.38C92.2077 142.736 97.3245 145.407 97.3245 145.407L91.1985 169.844L81.6566 162.66L76.7397 156.731Z" fill="#F9FFF9"/>
<path d="M94.6768 171.554L99.7192 146.487C99.7192 146.487 106.08 150.51 110.454 152.58C114.764 154.619 121.878 157.001 121.878 157.001L116.994 181.28C116.994 181.28 108.032 178.567 103.674 176.668C99.3164 174.769 94.6768 171.554 94.6768 171.554Z" fill="#F9FFF9"/>
<path d="M120.137 181.866L126.836 157.568L140.279 160.077C145.631 161.076 154.462 161.613 154.462 161.613L151.579 184.05C151.579 184.05 140.678 185.699 135.326 184.701L120.137 181.866Z" fill="#F9FFF9"/>
<path d="M156.426 119.69C154.93 110.251 168.069 97.9901 168.069 97.9901C168.069 97.9901 193.346 90.8183 202.443 100.181C210.515 108.489 212.595 114.54 206.243 123.921C198.868 134.813 179.86 139.324 167.525 133.291C159.682 129.456 157.721 127.856 156.426 119.69Z" fill="#F2CE36"/>
<path d="M132.242 141.928C123.43 139.612 110.546 126.252 117.391 118.534C123.116 112.079 125.7 119.62 135.839 122.285C142.498 124.035 153.523 121.944 153.148 129.305C152.868 134.805 149.23 137.794 144.985 139.787C140.74 141.781 136.883 143.148 132.242 141.928Z" fill="#E886DD" stroke="#8F5AC8" stroke-width="2"/>
<path d="M186.783 158.524L184.443 179.16C184.443 179.16 174.915 182.269 169.145 183.173C163.374 184.078 154.891 183.792 154.891 183.792C154.891 183.792 157.851 176.281 158.702 172.05C159.553 167.82 159.413 161.309 159.413 161.309L172.371 160.83L186.783 158.524Z" fill="#F9FFF9"/>
<ellipse cx="6.92656" cy="11.8975" rx="6.92656" ry="11.8975" transform="matrix(0.983032 0.183435 -0.197207 0.980362 97.1091 87.421)" fill="#583000"/>
<path d="M187.648 125.537C186.352 131.979 182.253 136.632 178.493 135.931C174.732 135.229 172.734 129.438 174.03 122.996C175.326 116.555 179.425 111.901 183.185 112.603C186.946 113.305 188.944 119.096 187.648 125.537Z" fill="#583000"/>
<path d="M144.6 89.9692C145.043 79.061 145.267 55.8582 145.29 55.0208L156.319 56.0262L167.812 59.2234C167.812 59.2234 159.363 67.1263 154.907 72.9508C150.17 79.1422 144.6 89.9692 144.6 89.9692Z" fill="#8F5AC8"/>
<path d="M159.927 85.8136C165.144 76.1259 177.666 62.4654 178.714 62.6609L193.427 67.8615C193.427 67.8615 186.282 71.5162 179.685 74.9436C172.672 78.5871 159.927 85.8136 159.927 85.8136Z" fill="#8F5AC8"/>
<path d="M137.522 86.1362C138.996 75.3112 136.39 54.9999 135.416 54.5809L121.913 54.1661C121.913 54.1661 124.406 59.8464 127.779 66.3031C131.365 73.1666 137.522 86.1362 137.522 86.1362Z" fill="#8F5AC8"/>
<path d="M222.954 126.682C233.513 124.618 242.439 117.287 242.945 117.966C245.369 121.224 251.211 126.691 251.211 126.691C251.211 126.691 243.02 129.374 239.191 129.711C231.27 130.41 216.62 127.92 222.954 126.682Z" fill="#8F5AC8"/>
<path d="M60.5988 100.03C53.8734 91.9035 49.693 78.56 48.854 78.7674C44.8294 79.7625 37.4651 82.2545 37.4651 82.2545C37.4651 82.2545 43.4221 89.6584 46.1337 92.2906C51.7435 97.7358 64.6334 104.905 60.5988 100.03Z" fill="#8F5AC8"/>
<path d="M230.042 141.414C246.793 142.787 261.512 135.231 261.903 134.483C261.903 134.483 265.188 139.854 265.214 143.068C265.239 146.282 263.784 153.95 263.784 153.95C263.784 153.95 253.329 151.724 248.964 150.909C241.158 149.452 221.742 140.734 230.042 141.414Z" fill="#8F5AC8"/>
<path d="M231.364 98.0917L239.488 97.3274C239.488 97.3274 237.783 107.259 231.186 110.686C224.173 114.33 212.904 116.921 212.904 116.921L231.364 98.0917Z" fill="#8F5AC8"/>
<path d="M66.7399 75.1805L57.0151 76.6981C57.0151 76.6981 57.2682 85.0178 62.059 90.5703C67.1516 96.4726 76.6003 102.93 76.6003 102.93L66.7399 75.1805Z" fill="#8F5AC8"/>
<path d="M43.7466 156.387C43.7466 156.387 49.509 143.52 56.1952 137.754C59.3931 134.996 46.2934 136.598 42.1693 137.655C38.0451 138.711 34.2116 140.753 34.2116 140.753C34.2116 140.753 36.6491 146.044 38.5109 149.096C40.3727 152.149 43.7466 156.387 43.7466 156.387Z" fill="#8F5AC8"/>
<path d="M220.5 194.427C220.5 194.427 220.143 180.418 216.177 172.664C214.28 168.955 225.81 175.153 229.227 177.617C232.643 180.08 236.455 183.548 236.455 183.548C236.455 183.548 232.142 187.58 229.231 189.742C226.32 191.904 220.5 194.427 220.5 194.427Z" fill="#8F5AC8"/>
<path d="M30.6762 131.852C30.6762 131.852 41.1109 122.116 49.5712 119.283C53.6175 117.928 40.901 114.524 36.6777 113.963C32.4543 113.401 27.4787 113.89 27.4787 113.89C27.4787 113.89 27.8617 119.486 28.3634 123C28.8651 126.513 30.6762 131.852 30.6762 131.852Z" fill="#8F5AC8"/>
<path d="M241.729 179.844C241.729 179.844 235.824 167.06 229.074 161.389C225.846 158.676 238.963 160.093 243.098 161.091C247.234 162.089 256.025 164.604 256.025 164.604C256.025 164.604 255.787 165.788 251.28 171.085C246.773 176.382 241.729 179.844 241.729 179.844Z" fill="#8F5AC8"/>
<path d="M27.3585 110.886C27.3585 110.886 59.0217 101.946 50.2397 100.307C44.7283 99.2787 39.2611 99.0091 34.9512 97.4543C30.9581 96.0138 28.7071 93.3745 28.7071 93.3745C28.7071 93.3745 27.741 97.2772 27.5507 100.925C27.3604 104.572 27.3585 110.886 27.3585 110.886Z" fill="#8F5AC8"/>
<path d="M221.38 81.463L212.674 81.5024C212.674 81.5024 217.479 86.4149 220.253 89.8473C223.028 93.2797 226.884 99.081 226.884 99.081C226.884 99.081 235.224 84.8159 237.804 76.4192C240.384 68.0226 240.096 56.0792 240.096 56.0792C240.096 56.0792 227.162 59.4307 219.214 62.8123C211.265 66.1939 199.389 73.3974 199.389 73.3974C199.389 73.3974 205.278 71.582 209.333 71.4121C212.709 71.2707 219.971 73.7513 219.971 73.7513C219.971 73.7513 213.666 73.4694 210.119 73.6865C206.572 73.9035 204.22 74.631 204.22 74.631C204.22 74.631 208.153 76.1521 211.799 77.4143C215.444 78.6764 221.38 81.463 221.38 81.463Z" fill="#FF9AE7" stroke="#DA7ECE" stroke-width="2"/>
<path d="M92.8964 56.4588L100.197 61.4232C100.197 61.4232 93.2344 62.28 88.8593 63.2089C84.4842 64.1378 77.7911 66.1805 77.7911 66.1805C77.7911 66.1805 79.2552 51.054 82.0766 43.4707C84.8979 35.8875 92.2402 27.3443 92.2402 27.3443C92.2402 27.3443 101.13 37.1202 105.807 44.0916C110.484 51.063 116.194 63.047 116.194 63.047C116.194 63.047 112.318 58.3848 109.007 55.9618C106.251 53.9448 98.6661 51.6359 98.6661 51.6359C98.6661 51.6359 104.139 55.0051 106.994 57.1742C109.849 59.3433 111.395 61.2072 111.395 61.2072C111.395 61.2072 107.182 60.0863 103.365 58.9395C99.5469 57.7926 92.8964 56.4588 92.8964 56.4588Z" fill="#FF9AE7" stroke="#DA7ECE" stroke-width="2"/>
<line y1="-1" x2="35.9022" y2="-1" transform="matrix(0.988616 0.1679 -0.154434 0.984861 151.303 141.689)" stroke="black" stroke-width="2"/>
<path d="M148.604 146.854L178.857 166.026" stroke="black" stroke-width="2"/>
<line y1="-1" x2="23.6069" y2="-1" transform="matrix(0.927177 0.374155 -0.388755 0.921556 150.282 144.21)" stroke="black" stroke-width="2"/>
<line y1="-1" x2="37.7386" y2="-1" transform="matrix(-0.944485 -0.304405 -0.348196 0.946148 114.317 131.292)" stroke="black" stroke-width="2"/>
<path d="M114.108 137.478L76.4398 140.946" stroke="black" stroke-width="2"/>
<line y1="-1" x2="24.8021" y2="-1" transform="matrix(-0.993316 -0.0907693 -0.115159 0.996029 113.944 134.167)" stroke="black" stroke-width="2"/>
<path d="M285.739 205.473C292.68 182.886 309.387 166.949 339.258 162.134C372.294 156.81 410.825 166.89 416.034 192.218C428.158 251.163 374.749 245.103 374.749 245.103L365.181 269.111L326.874 281.962L298.056 263.301L297.895 253.012C297.895 253.012 280.077 223.902 285.739 205.473Z" fill="#901B8E" stroke="#6D194C" stroke-width="3"/>
<g filter="url(#filter7_i_290_18)">
<path d="M415.5 194L416.5 204.5C416.5 204.5 389.646 191.591 374.685 185.12C359.724 178.649 325.5 167 325.5 167L329.5 165.5L339.5 163.5C339.5 163.5 364.688 168.666 379.764 174.704C394.84 180.742 415.5 194 415.5 194Z" fill="#8F5AC8"/>
<path d="M415.5 194L416.5 204.5C416.5 204.5 389.646 191.591 374.685 185.12C359.724 178.649 325.5 167 325.5 167L329.5 165.5L339.5 163.5C339.5 163.5 364.688 168.666 379.764 174.704C394.84 180.742 415.5 194 415.5 194Z" stroke="black"/>
</g>
<path d="M414.032 223.049L411.5 228C411.5 228 365.083 206.022 349.489 198.569C333.895 191.117 302.035 181.713 302.035 181.713L301.319 181.678L307.5 175.5C307.5 175.5 347.141 188.239 362.834 195.235C378.527 202.231 414.032 223.049 414.032 223.049Z" fill="#8F5AC8"/>
<g filter="url(#filter8_i_290_18)">
<path d="M401.5 238L394 242C394 242 350.248 221.469 334.756 214.174C319.263 206.878 292.756 198.479 292.756 198.479L290.5 197.5L293.5 191.5C293.5 191.5 332.479 203.955 348.074 210.797C363.668 217.64 401.5 238 401.5 238Z" fill="#8F5AC8"/>
<path d="M401.5 238L394 242C394 242 350.248 221.469 334.756 214.174C319.263 206.878 292.756 198.479 292.756 198.479L290.5 197.5L293.5 191.5C293.5 191.5 332.479 203.955 348.074 210.797C363.668 217.64 401.5 238 401.5 238Z" stroke="black"/>
</g>
<path d="M374 243.727L371.5 248.5C371.5 248.5 344.691 237.543 332 233C319.31 228.457 286.438 220.605 286.438 220.605L286.042 219.985L286.438 213C286.438 213 321.814 222.327 334.695 226.524C347.577 230.722 374 243.727 374 243.727Z" fill="#8F5AC8"/>
<g filter="url(#filter9_i_290_18)">
<path d="M368.5 256L365.798 262.532C365.798 262.532 343.261 254.453 331.798 251.032C320.336 247.611 294.798 243.532 294.798 243.532L292.411 239.443L290.798 234.532C290.798 234.532 323.146 240.415 334.798 243.532C346.451 246.648 368.5 256 368.5 256Z" fill="#8F5AC8"/>
<path d="M368.5 256L365.798 262.532C365.798 262.532 343.261 254.453 331.798 251.032C320.336 247.611 294.798 243.532 294.798 243.532L292.411 239.443L290.798 234.532C290.798 234.532 323.146 240.415 334.798 243.532C346.451 246.648 368.5 256 368.5 256Z" stroke="black"/>
</g>
<path d="M578.273 171.04C551.231 163.418 537 107.112 537 107.112L584 54.5C584 54.5 642 189 578.273 171.04Z" fill="url(#paint0_linear_290_18)"/>
<path d="M156.904 230.344C146 231 141.864 231.4 139.31 222.705C137.862 217.772 137.439 207.102 137.439 207.102L141.477 207.063C149.554 206.984 150.553 208.015 156.116 206.92C163.332 205.498 182.359 206 182.359 206C182.359 206 183.683 205.782 184 208C184.5 211.5 183 214 183 214C183 214 167.059 229.734 156.904 230.344Z" fill="#B44CAE" stroke="#6D194C"/>
<path d="M112.625 221.493C122.747 224.406 126.547 225.633 131.222 219.22C133.874 215.581 137.052 207.118 137.052 207.118L133.251 206.202C125.647 204.371 124.435 204.979 119.47 202.883C113.028 200.163 94.9375 196.4 94.9375 196.4C94.9375 196.4 93.7438 195.935 92.8672 197.644C91.4838 200.341 92.2488 202.674 92.2488 202.674C92.2488 202.674 103.198 218.78 112.625 221.493Z" fill="#B44CAE" stroke="#6D194C"/>
<g filter="url(#filter10_f_290_18)">
<line x1="167.497" y1="206.058" x2="165.497" y2="223.058" stroke="#901B8E"/>
</g>
<g filter="url(#filter11_f_290_18)">
<line x1="167.497" y1="206.058" x2="165.497" y2="223.058" stroke="#901B8E"/>
</g>
<g filter="url(#filter12_f_290_18)">
<line x1="167.497" y1="206.058" x2="165.497" y2="223.058" stroke="#901B8E"/>
</g>
<g filter="url(#filter13_f_290_18)">
<line x1="154.497" y1="205.058" x2="152.497" y2="222.058" stroke="#901B8E"/>
</g>
<g filter="url(#filter14_f_290_18)">
<line x1="154.497" y1="205.058" x2="152.497" y2="222.058" stroke="#901B8E"/>
</g>
<g filter="url(#filter15_f_290_18)">
<line x1="154.497" y1="205.058" x2="152.497" y2="222.058" stroke="#901B8E"/>
</g>
<g filter="url(#filter16_f_290_18)">
<line x1="154.497" y1="205.058" x2="152.497" y2="222.058" stroke="#901B8E"/>
</g>
<g filter="url(#filter17_f_290_18)">
<line x1="154.497" y1="205.058" x2="152.497" y2="222.058" stroke="#901B8E"/>
</g>
<g filter="url(#filter18_f_290_18)">
<line x1="154.497" y1="205.058" x2="152.497" y2="222.058" stroke="#901B8E"/>
</g>
<g filter="url(#filter19_f_290_18)">
<line x1="126.415" y1="205.279" x2="117.84" y2="218.015" stroke="#901B8E"/>
</g>
<g filter="url(#filter20_f_290_18)">
<line x1="126.415" y1="205.279" x2="117.84" y2="218.015" stroke="#901B8E"/>
</g>
<g filter="url(#filter21_f_290_18)">
<line x1="126.415" y1="205.279" x2="117.84" y2="218.015" stroke="#901B8E"/>
</g>
<g filter="url(#filter22_f_290_18)">
<line x1="126.415" y1="205.279" x2="117.84" y2="218.015" stroke="#901B8E"/>
</g>
<g filter="url(#filter23_f_290_18)">
<line x1="126.415" y1="205.279" x2="117.84" y2="218.015" stroke="#901B8E"/>
</g>
<g filter="url(#filter24_f_290_18)">
<line x1="126.415" y1="205.279" x2="117.84" y2="218.015" stroke="#901B8E"/>
</g>
<g filter="url(#filter25_f_290_18)">
<line x1="116.374" y1="202.332" x2="108.374" y2="211.332" stroke="#901B8E"/>
</g>
<g filter="url(#filter26_f_290_18)">
<line x1="116.374" y1="202.332" x2="108.374" y2="211.332" stroke="#901B8E"/>
</g>
<g filter="url(#filter27_f_290_18)">
<line x1="116.374" y1="202.332" x2="108.374" y2="211.332" stroke="#901B8E"/>
</g>
<g filter="url(#filter28_f_290_18)">
<line x1="116.374" y1="202.332" x2="108.374" y2="211.332" stroke="#901B8E"/>
</g>
<g filter="url(#filter29_f_290_18)">
<line x1="116.374" y1="202.332" x2="108.374" y2="211.332" stroke="#901B8E"/>
</g>
<g filter="url(#filter30_f_290_18)">
<line x1="105.354" y1="198.354" x2="99.3536" y2="204.354" stroke="#901B8E"/>
</g>
<g filter="url(#filter31_f_290_18)">
<line x1="105.354" y1="198.354" x2="99.3536" y2="204.354" stroke="#901B8E"/>
</g>
<g filter="url(#filter32_f_290_18)">
<line x1="105.354" y1="198.354" x2="99.3536" y2="204.354" stroke="#901B8E"/>
</g>
<g filter="url(#filter33_f_290_18)">
<line x1="105.354" y1="198.354" x2="99.3536" y2="204.354" stroke="#901B8E"/>
</g>
<path d="M289.682 269.062C293.89 259.2 303.126 261.158 303.126 261.158C303.126 261.158 323.372 270.482 335.464 272.322C347.556 274.162 368 266.5 368 266.5V278.484C368 278.484 355.543 281.443 350.589 281.963C340.964 282.973 328.162 283.993 328.162 283.993C328.162 283.993 282.959 284.82 289.682 269.062Z" fill="#B44CAE" stroke="#6D194C"/>
<defs>
<filter id="filter0_i_290_18" x="247" y="88.5" width="60.6033" height="105.237" filterUnits="userSpaceOnUse" color-interpolation-filters="sRGB">
<feFlood flood-opacity="0" result="BackgroundImageFix"/>
<feBlend mode="normal" in="SourceGraphic" in2="BackgroundImageFix" result="shape"/>
<feColorMatrix in="SourceAlpha" type="matrix" values="0 0 0 0 0 0 0 0 0 0 0 0 0 0 0 0 0 0 127 0" result="hardAlpha"/>
<feOffset dy="4"/>
<feGaussianBlur stdDeviation="2"/>
<feComposite in2="hardAlpha" operator="arithmetic" k2="-1" k3="1"/>
<feColorMatrix type="matrix" values="0 0 0 0 0 0 0 0 0 0 0 0 0 0 0 0 0 0 0.25 0"/>
<feBlend mode="normal" in2="shape" result="effect1_innerShadow_290_18"/>
</filter>
<filter id="filter1_i_290_18" x="278" y="77.5" width="68.3574" height="88.6609" filterUnits="userSpaceOnUse" color-interpolation-filters="sRGB">
<feFlood flood-opacity="0" result="BackgroundImageFix"/>
<feBlend mode="normal" in="SourceGraphic" in2="BackgroundImageFix" result="shape"/>
<feColorMatrix in="SourceAlpha" type="matrix" values="0 0 0 0 0 0 0 0 0 0 0 0 0 0 0 0 0 0 127 0" result="hardAlpha"/>
<feOffset dy="4"/>
<feGaussianBlur stdDeviation="2"/>
<feComposite in2="hardAlpha" operator="arithmetic" k2="-1" k3="1"/>
<feColorMatrix type="matrix" values="0 0 0 0 0 0 0 0 0 0 0 0 0 0 0 0 0 0 0.25 0"/>
<feBlend mode="normal" in2="shape" result="effect1_innerShadow_290_18"/>
</filter>
<filter id="filter2_i_290_18" x="327.5" y="80" width="63.4507" height="89.3425" filterUnits="userSpaceOnUse" color-interpolation-filters="sRGB">
<feFlood flood-opacity="0" result="BackgroundImageFix"/>
<feBlend mode="normal" in="SourceGraphic" in2="BackgroundImageFix" result="shape"/>
<feColorMatrix in="SourceAlpha" type="matrix" values="0 0 0 0 0 0 0 0 0 0 0 0 0 0 0 0 0 0 127 0" result="hardAlpha"/>
<feOffset dy="4"/>
<feGaussianBlur stdDeviation="2"/>
<feComposite in2="hardAlpha" operator="arithmetic" k2="-1" k3="1"/>
<feColorMatrix type="matrix" values="0 0 0 0 0 0 0 0 0 0 0 0 0 0 0 0 0 0 0.25 0"/>
<feBlend mode="normal" in2="shape" result="effect1_innerShadow_290_18"/>
</filter>
<filter id="filter3_i_290_18" x="390.263" y="110.635" width="22.5579" height="71.6307" filterUnits="userSpaceOnUse" color-interpolation-filters="sRGB">
<feFlood flood-opacity="0" result="BackgroundImageFix"/>
<feBlend mode="normal" in="SourceGraphic" in2="BackgroundImageFix" result="shape"/>
<feColorMatrix in="SourceAlpha" type="matrix" values="0 0 0 0 0 0 0 0 0 0 0 0 0 0 0 0 0 0 127 0" result="hardAlpha"/>
<feOffset dy="4"/>
<feGaussianBlur stdDeviation="2"/>
<feComposite in2="hardAlpha" operator="arithmetic" k2="-1" k3="1"/>
<feColorMatrix type="matrix" values="0 0 0 0 0 0 0 0 0 0 0 0 0 0 0 0 0 0 0.25 0"/>
<feBlend mode="normal" in2="shape" result="effect1_innerShadow_290_18"/>
</filter>
<filter id="filter4_i_290_18" x="413" y="103.5" width="55.5" height="63" filterUnits="userSpaceOnUse" color-interpolation-filters="sRGB">
<feFlood flood-opacity="0" result="BackgroundImageFix"/>
<feBlend mode="normal" in="SourceGraphic" in2="BackgroundImageFix" result="shape"/>
<feColorMatrix in="SourceAlpha" type="matrix" values="0 0 0 0 0 0 0 0 0 0 0 0 0 0 0 0 0 0 127 0" result="hardAlpha"/>
<feOffset dy="4"/>
<feGaussianBlur stdDeviation="2"/>
<feComposite in2="hardAlpha" operator="arithmetic" k2="-1" k3="1"/>
<feColorMatrix type="matrix" values="0 0 0 0 0 0 0 0 0 0 0 0 0 0 0 0 0 0 0.25 0"/>
<feBlend mode="normal" in2="shape" result="effect1_innerShadow_290_18"/>
</filter>
<filter id="filter5_i_290_18" x="412.224" y="71.5" width="71.7761" height="74.5" filterUnits="userSpaceOnUse" color-interpolation-filters="sRGB">
<feFlood flood-opacity="0" result="BackgroundImageFix"/>
<feBlend mode="normal" in="SourceGraphic" in2="BackgroundImageFix" result="shape"/>
<feColorMatrix in="SourceAlpha" type="matrix" values="0 0 0 0 0 0 0 0 0 0 0 0 0 0 0 0 0 0 127 0" result="hardAlpha"/>
<feOffset dy="4"/>
<feGaussianBlur stdDeviation="2"/>
<feComposite in2="hardAlpha" operator="arithmetic" k2="-1" k3="1"/>
<feColorMatrix type="matrix" values="0 0 0 0 0 0 0 0 0 0 0 0 0 0 0 0 0 0 0.25 0"/>
<feBlend mode="normal" in2="shape" result="effect1_innerShadow_290_18"/>
</filter>
<filter id="filter6_i_290_18" x="430.5" y="21.5" width="67.4998" height="65" filterUnits="userSpaceOnUse" color-interpolation-filters="sRGB">
<feFlood flood-opacity="0" result="BackgroundImageFix"/>
<feBlend mode="normal" in="SourceGraphic" in2="BackgroundImageFix" result="shape"/>
<feColorMatrix in="SourceAlpha" type="matrix" values="0 0 0 0 0 0 0 0 0 0 0 0 0 0 0 0 0 0 127 0" result="hardAlpha"/>
<feOffset dy="4"/>
<feGaussianBlur stdDeviation="2"/>
<feComposite in2="hardAlpha" operator="arithmetic" k2="-1" k3="1"/>
<feColorMatrix type="matrix" values="0 0 0 0 0 0 0 0 0 0 0 0 0 0 0 0 0 0 0.25 0"/>
<feBlend mode="normal" in2="shape" result="effect1_innerShadow_290_18"/>
</filter>
<filter id="filter7_i_290_18" x="325.5" y="163.5" width="91" height="45" filterUnits="userSpaceOnUse" color-interpolation-filters="sRGB">
<feFlood flood-opacity="0" result="BackgroundImageFix"/>
<feBlend mode="normal" in="SourceGraphic" in2="BackgroundImageFix" result="shape"/>
<feColorMatrix in="SourceAlpha" type="matrix" values="0 0 0 0 0 0 0 0 0 0 0 0 0 0 0 0 0 0 127 0" result="hardAlpha"/>
<feOffset dy="4"/>
<feGaussianBlur stdDeviation="2"/>
<feComposite in2="hardAlpha" operator="arithmetic" k2="-1" k3="1"/>
<feColorMatrix type="matrix" values="0 0 0 0 0 0 0 0 0 0 0 0 0 0 0 0 0 0 0.25 0"/>
<feBlend mode="normal" in2="shape" result="effect1_innerShadow_290_18"/>
</filter>
<filter id="filter8_i_290_18" x="290.5" y="191.5" width="111" height="54.5" filterUnits="userSpaceOnUse" color-interpolation-filters="sRGB">
<feFlood flood-opacity="0" result="BackgroundImageFix"/>
<feBlend mode="normal" in="SourceGraphic" in2="BackgroundImageFix" result="shape"/>
<feColorMatrix in="SourceAlpha" type="matrix" values="0 0 0 0 0 0 0 0 0 0 0 0 0 0 0 0 0 0 127 0" result="hardAlpha"/>
<feOffset dy="4"/>
<feGaussianBlur stdDeviation="2"/>
<feComposite in2="hardAlpha" operator="arithmetic" k2="-1" k3="1"/>
<feColorMatrix type="matrix" values="0 0 0 0 0 0 0 0 0 0 0 0 0 0 0 0 0 0 0.25 0"/>
<feBlend mode="normal" in2="shape" result="effect1_innerShadow_290_18"/>
</filter>
<filter id="filter9_i_290_18" x="290.798" y="234.532" width="77.7017" height="32" filterUnits="userSpaceOnUse" color-interpolation-filters="sRGB">
<feFlood flood-opacity="0" result="BackgroundImageFix"/>
<feBlend mode="normal" in="SourceGraphic" in2="BackgroundImageFix" result="shape"/>
<feColorMatrix in="SourceAlpha" type="matrix" values="0 0 0 0 0 0 0 0 0 0 0 0 0 0 0 0 0 0 127 0" result="hardAlpha"/>
<feOffset dy="4"/>
<feGaussianBlur stdDeviation="2"/>
<feComposite in2="hardAlpha" operator="arithmetic" k2="-1" k3="1"/>
<feColorMatrix type="matrix" values="0 0 0 0 0 0 0 0 0 0 0 0 0 0 0 0 0 0 0.25 0"/>
<feBlend mode="normal" in2="shape" result="effect1_innerShadow_290_18"/>
</filter>
<filter id="filter10_f_290_18" x="161" y="202" width="10.9932" height="25.1169" filterUnits="userSpaceOnUse" color-interpolation-filters="sRGB">
<feFlood flood-opacity="0" result="BackgroundImageFix"/>
<feBlend mode="normal" in="SourceGraphic" in2="BackgroundImageFix" result="shape"/>
<feGaussianBlur stdDeviation="2" result="effect1_foregroundBlur_290_18"/>
</filter>
<filter id="filter11_f_290_18" x="161" y="202" width="10.9932" height="25.1169" filterUnits="userSpaceOnUse" color-interpolation-filters="sRGB">
<feFlood flood-opacity="0" result="BackgroundImageFix"/>
<feBlend mode="normal" in="SourceGraphic" in2="BackgroundImageFix" result="shape"/>
<feGaussianBlur stdDeviation="2" result="effect1_foregroundBlur_290_18"/>
</filter>
<filter id="filter12_f_290_18" x="161" y="202" width="10.9932" height="25.1169" filterUnits="userSpaceOnUse" color-interpolation-filters="sRGB">
<feFlood flood-opacity="0" result="BackgroundImageFix"/>
<feBlend mode="normal" in="SourceGraphic" in2="BackgroundImageFix" result="shape"/>
<feGaussianBlur stdDeviation="2" result="effect1_foregroundBlur_290_18"/>
</filter>
<filter id="filter13_f_290_18" x="148" y="201" width="10.9932" height="25.1169" filterUnits="userSpaceOnUse" color-interpolation-filters="sRGB">
<feFlood flood-opacity="0" result="BackgroundImageFix"/>
<feBlend mode="normal" in="SourceGraphic" in2="BackgroundImageFix" result="shape"/>
<feGaussianBlur stdDeviation="2" result="effect1_foregroundBlur_290_18"/>
</filter>
<filter id="filter14_f_290_18" x="148" y="201" width="10.9932" height="25.1169" filterUnits="userSpaceOnUse" color-interpolation-filters="sRGB">
<feFlood flood-opacity="0" result="BackgroundImageFix"/>
<feBlend mode="normal" in="SourceGraphic" in2="BackgroundImageFix" result="shape"/>
<feGaussianBlur stdDeviation="2" result="effect1_foregroundBlur_290_18"/>
</filter>
<filter id="filter15_f_290_18" x="148" y="201" width="10.9932" height="25.1169" filterUnits="userSpaceOnUse" color-interpolation-filters="sRGB">
<feFlood flood-opacity="0" result="BackgroundImageFix"/>
<feBlend mode="normal" in="SourceGraphic" in2="BackgroundImageFix" result="shape"/>
<feGaussianBlur stdDeviation="2" result="effect1_foregroundBlur_290_18"/>
</filter>
<filter id="filter16_f_290_18" x="148" y="201" width="10.9932" height="25.1169" filterUnits="userSpaceOnUse" color-interpolation-filters="sRGB">
<feFlood flood-opacity="0" result="BackgroundImageFix"/>
<feBlend mode="normal" in="SourceGraphic" in2="BackgroundImageFix" result="shape"/>
<feGaussianBlur stdDeviation="2" result="effect1_foregroundBlur_290_18"/>
</filter>
<filter id="filter17_f_290_18" x="148" y="201" width="10.9932" height="25.1169" filterUnits="userSpaceOnUse" color-interpolation-filters="sRGB">
<feFlood flood-opacity="0" result="BackgroundImageFix"/>
<feBlend mode="normal" in="SourceGraphic" in2="BackgroundImageFix" result="shape"/>
<feGaussianBlur stdDeviation="2" result="effect1_foregroundBlur_290_18"/>
</filter>
<filter id="filter18_f_290_18" x="148" y="201" width="10.9932" height="25.1169" filterUnits="userSpaceOnUse" color-interpolation-filters="sRGB">
<feFlood flood-opacity="0" result="BackgroundImageFix"/>
<feBlend mode="normal" in="SourceGraphic" in2="BackgroundImageFix" result="shape"/>
<feGaussianBlur stdDeviation="2" result="effect1_foregroundBlur_290_18"/>
</filter>
<filter id="filter19_f_290_18" x="113.426" y="201" width="17.4041" height="21.2947" filterUnits="userSpaceOnUse" color-interpolation-filters="sRGB">
<feFlood flood-opacity="0" result="BackgroundImageFix"/>
<feBlend mode="normal" in="SourceGraphic" in2="BackgroundImageFix" result="shape"/>
<feGaussianBlur stdDeviation="2" result="effect1_foregroundBlur_290_18"/>
</filter>
<filter id="filter20_f_290_18" x="113.426" y="201" width="17.4041" height="21.2947" filterUnits="userSpaceOnUse" color-interpolation-filters="sRGB">
<feFlood flood-opacity="0" result="BackgroundImageFix"/>
<feBlend mode="normal" in="SourceGraphic" in2="BackgroundImageFix" result="shape"/>
<feGaussianBlur stdDeviation="2" result="effect1_foregroundBlur_290_18"/>
</filter>
<filter id="filter21_f_290_18" x="113.426" y="201" width="17.4041" height="21.2947" filterUnits="userSpaceOnUse" color-interpolation-filters="sRGB">
<feFlood flood-opacity="0" result="BackgroundImageFix"/>
<feBlend mode="normal" in="SourceGraphic" in2="BackgroundImageFix" result="shape"/>
<feGaussianBlur stdDeviation="2" result="effect1_foregroundBlur_290_18"/>
</filter>
<filter id="filter22_f_290_18" x="113.426" y="201" width="17.4041" height="21.2947" filterUnits="userSpaceOnUse" color-interpolation-filters="sRGB">
<feFlood flood-opacity="0" result="BackgroundImageFix"/>
<feBlend mode="normal" in="SourceGraphic" in2="BackgroundImageFix" result="shape"/>
<feGaussianBlur stdDeviation="2" result="effect1_foregroundBlur_290_18"/>
</filter>
<filter id="filter23_f_290_18" x="113.426" y="201" width="17.4041" height="21.2947" filterUnits="userSpaceOnUse" color-interpolation-filters="sRGB">
<feFlood flood-opacity="0" result="BackgroundImageFix"/>
<feBlend mode="normal" in="SourceGraphic" in2="BackgroundImageFix" result="shape"/>
<feGaussianBlur stdDeviation="2" result="effect1_foregroundBlur_290_18"/>
</filter>
<filter id="filter24_f_290_18" x="113.426" y="201" width="17.4041" height="21.2947" filterUnits="userSpaceOnUse" color-interpolation-filters="sRGB">
<feFlood flood-opacity="0" result="BackgroundImageFix"/>
<feBlend mode="normal" in="SourceGraphic" in2="BackgroundImageFix" result="shape"/>
<feGaussianBlur stdDeviation="2" result="effect1_foregroundBlur_290_18"/>
</filter>
<filter id="filter25_f_290_18" x="104" y="198" width="16.7473" height="17.6643" filterUnits="userSpaceOnUse" color-interpolation-filters="sRGB">
<feFlood flood-opacity="0" result="BackgroundImageFix"/>
<feBlend mode="normal" in="SourceGraphic" in2="BackgroundImageFix" result="shape"/>
<feGaussianBlur stdDeviation="2" result="effect1_foregroundBlur_290_18"/>
</filter>
<filter id="filter26_f_290_18" x="104" y="198" width="16.7473" height="17.6643" filterUnits="userSpaceOnUse" color-interpolation-filters="sRGB">
<feFlood flood-opacity="0" result="BackgroundImageFix"/>
<feBlend mode="normal" in="SourceGraphic" in2="BackgroundImageFix" result="shape"/>
<feGaussianBlur stdDeviation="2" result="effect1_foregroundBlur_290_18"/>
</filter>
<filter id="filter27_f_290_18" x="104" y="198" width="16.7473" height="17.6643" filterUnits="userSpaceOnUse" color-interpolation-filters="sRGB">
<feFlood flood-opacity="0" result="BackgroundImageFix"/>
<feBlend mode="normal" in="SourceGraphic" in2="BackgroundImageFix" result="shape"/>
<feGaussianBlur stdDeviation="2" result="effect1_foregroundBlur_290_18"/>
</filter>
<filter id="filter28_f_290_18" x="104" y="198" width="16.7473" height="17.6643" filterUnits="userSpaceOnUse" color-interpolation-filters="sRGB">
<feFlood flood-opacity="0" result="BackgroundImageFix"/>
<feBlend mode="normal" in="SourceGraphic" in2="BackgroundImageFix" result="shape"/>
<feGaussianBlur stdDeviation="2" result="effect1_foregroundBlur_290_18"/>
</filter>
<filter id="filter29_f_290_18" x="104" y="198" width="16.7473" height="17.6643" filterUnits="userSpaceOnUse" color-interpolation-filters="sRGB">
<feFlood flood-opacity="0" result="BackgroundImageFix"/>
<feBlend mode="normal" in="SourceGraphic" in2="BackgroundImageFix" result="shape"/>
<feGaussianBlur stdDeviation="2" result="effect1_foregroundBlur_290_18"/>
</filter>
<filter id="filter30_f_290_18" x="95" y="194" width="14.707" height="14.707" filterUnits="userSpaceOnUse" color-interpolation-filters="sRGB">
<feFlood flood-opacity="0" result="BackgroundImageFix"/>
<feBlend mode="normal" in="SourceGraphic" in2="BackgroundImageFix" result="shape"/>
<feGaussianBlur stdDeviation="2" result="effect1_foregroundBlur_290_18"/>
</filter>
<filter id="filter31_f_290_18" x="95" y="194" width="14.707" height="14.707" filterUnits="userSpaceOnUse" color-interpolation-filters="sRGB">
<feFlood flood-opacity="0" result="BackgroundImageFix"/>
<feBlend mode="normal" in="SourceGraphic" in2="BackgroundImageFix" result="shape"/>
<feGaussianBlur stdDeviation="2" result="effect1_foregroundBlur_290_18"/>
</filter>
<filter id="filter32_f_290_18" x="95" y="194" width="14.707" height="14.707" filterUnits="userSpaceOnUse" color-interpolation-filters="sRGB">
<feFlood flood-opacity="0" result="BackgroundImageFix"/>
<feBlend mode="normal" in="SourceGraphic" in2="BackgroundImageFix" result="shape"/>
<feGaussianBlur stdDeviation="2" result="effect1_foregroundBlur_290_18"/>
</filter>
<filter id="filter33_f_290_18" x="95" y="194" width="14.707" height="14.707" filterUnits="userSpaceOnUse" color-interpolation-filters="sRGB">
<feFlood flood-opacity="0" result="BackgroundImageFix"/>
<feBlend mode="normal" in="SourceGraphic" in2="BackgroundImageFix" result="shape"/>
<feGaussianBlur stdDeviation="2" result="effect1_foregroundBlur_290_18"/>
</filter>
<linearGradient id="paint0_linear_290_18" x1="604" y1="165.746" x2="537" y2="73.2542" gradientUnits="userSpaceOnUse">
<stop offset="0.180883" stop-color="#FF9AE7"/>
<stop offset="0.562083" stop-color="#C85ABB"/>
<stop offset="0.787206" stop-color="#901B8E"/>
</linearGradient>
</defs>
</svg>
