<svg width="195" height="425" viewBox="0 0 195 425" fill="none" xmlns="http://www.w3.org/2000/svg">
<g filter="url(#filter0_d_330_23)">
<path d="M243.025 236.966C243.025 236.966 105.086 196.903 15.0813 212.856C-27.9653 220.486 74.2568 123.166 110.661 96.289C147.065 69.4122 194.7 41.6587 194.7 41.6587C194.7 41.6587 218.404 97.8517 228.953 134.038C239.502 170.224 243.025 236.966 243.025 236.966Z" fill="#901B8E"/>
</g>
<g filter="url(#filter1_d_330_23)">
<path d="M356.533 322.311C356.533 322.311 219.482 362.875 73.6168 406.049C24.7531 420.512 114.188 294.76 138.219 260.755C162.251 226.75 197.769 188.015 197.769 188.015C197.769 188.015 253.891 223.12 285.007 247.427C316.123 271.734 356.533 322.311 356.533 322.311Z" fill="#8F5AC8"/>
</g>
<defs>
<filter id="filter0_d_330_23" x="0.684814" y="41.6587" width="246.34" height="203.308" filterUnits="userSpaceOnUse" color-interpolation-filters="sRGB">
<feFlood flood-opacity="0" result="BackgroundImageFix"/>
<feColorMatrix in="SourceAlpha" type="matrix" values="0 0 0 0 0 0 0 0 0 0 0 0 0 0 0 0 0 0 127 0" result="hardAlpha"/>
<feOffset dy="4"/>
<feGaussianBlur stdDeviation="2"/>
<feComposite in2="hardAlpha" operator="out"/>
<feColorMatrix type="matrix" values="0 0 0 0 0 0 0 0 0 0 0 0 0 0 0 0 0 0 0.25 0"/>
<feBlend mode="normal" in2="BackgroundImageFix" result="effect1_dropShadow_330_23"/>
<feBlend mode="normal" in="SourceGraphic" in2="effect1_dropShadow_330_23" result="shape"/>
</filter>
<filter id="filter1_d_330_23" x="55.2427" y="188.015" width="305.291" height="227.187" filterUnits="userSpaceOnUse" color-interpolation-filters="sRGB">
<feFlood flood-opacity="0" result="BackgroundImageFix"/>
<feColorMatrix in="SourceAlpha" type="matrix" values="0 0 0 0 0 0 0 0 0 0 0 0 0 0 0 0 0 0 127 0" result="hardAlpha"/>
<feOffset dy="4"/>
<feGaussianBlur stdDeviation="2"/>
<feComposite in2="hardAlpha" operator="out"/>
<feColorMatrix type="matrix" values="0 0 0 0 0 0 0 0 0 0 0 0 0 0 0 0 0 0 0.25 0"/>
<feBlend mode="normal" in2="BackgroundImageFix" result="effect1_dropShadow_330_23"/>
<feBlend mode="normal" in="SourceGraphic" in2="effect1_dropShadow_330_23" result="shape"/>
</filter>
</defs>
</svg>
