<svg width="314" height="475" viewBox="0 0 314 475" fill="none" xmlns="http://www.w3.org/2000/svg">
<g filter="url(#filter0_d_330_21)">
<path d="M-91.251 323.289C-91.251 323.289 45.7082 162.745 130.441 114.976C170.967 92.1289 -11.7 110.699 -57.2462 112.538C-102.792 114.376 -158.297 123.129 -158.297 123.129C-158.297 123.129 -147.274 187.406 -136.198 225.58C-125.122 263.754 -91.251 323.289 -91.251 323.289Z" fill="#FF9AE7"/>
</g>
<g filter="url(#filter1_d_330_21)">
<path d="M-233.1 449.927C-233.1 449.927 -0.816871 241 229.5 241C291 241 145.966 375.89 95.0001 432.5C48.1119 484.58 59.729 604.704 59.729 604.704C59.729 604.704 -37.7541 570.75 -94.163 543.796C-150.572 516.842 -233.1 449.927 -233.1 449.927Z" fill="#901B8E"/>
</g>
<defs>
<filter id="filter0_d_330_21" x="-162.297" y="103.679" width="302.562" height="227.61" filterUnits="userSpaceOnUse" color-interpolation-filters="sRGB">
<feFlood flood-opacity="0" result="BackgroundImageFix"/>
<feColorMatrix in="SourceAlpha" type="matrix" values="0 0 0 0 0 0 0 0 0 0 0 0 0 0 0 0 0 0 127 0" result="hardAlpha"/>
<feOffset dy="4"/>
<feGaussianBlur stdDeviation="2"/>
<feComposite in2="hardAlpha" operator="out"/>
<feColorMatrix type="matrix" values="0 0 0 0 0 0 0 0 0 0 0 0 0 0 0 0 0 0 0.25 0"/>
<feBlend mode="normal" in2="BackgroundImageFix" result="effect1_dropShadow_330_21"/>
<feBlend mode="normal" in="SourceGraphic" in2="effect1_dropShadow_330_21" result="shape"/>
</filter>
<filter id="filter1_d_330_21" x="-237.1" y="241" width="485.536" height="371.704" filterUnits="userSpaceOnUse" color-interpolation-filters="sRGB">
<feFlood flood-opacity="0" result="BackgroundImageFix"/>
<feColorMatrix in="SourceAlpha" type="matrix" values="0 0 0 0 0 0 0 0 0 0 0 0 0 0 0 0 0 0 127 0" result="hardAlpha"/>
<feOffset dy="4"/>
<feGaussianBlur stdDeviation="2"/>
<feComposite in2="hardAlpha" operator="out"/>
<feColorMatrix type="matrix" values="0 0 0 0 0 0 0 0 0 0 0 0 0 0 0 0 0 0 0.25 0"/>
<feBlend mode="normal" in2="BackgroundImageFix" result="effect1_dropShadow_330_21"/>
<feBlend mode="normal" in="SourceGraphic" in2="effect1_dropShadow_330_21" result="shape"/>
</filter>
</defs>
</svg>
