<svg width="321" height="392" viewBox="0 0 321 392" fill="none" xmlns="http://www.w3.org/2000/svg">
<g filter="url(#filter0_d_330_22)">
<path d="M309.257 475.941C309.257 475.941 236.775 194.09 145.583 57.702C101.968 -7.52833 288.134 57.9645 346.317 90.0725C404.501 122.18 472.902 172.565 472.902 172.565C472.902 172.565 433.937 276.663 404.939 335.609C375.941 394.555 309.257 475.941 309.257 475.941Z" fill="#901B8E"/>
</g>
<g filter="url(#filter1_d_330_22)">
<path d="M124.651 424.987C124.651 424.987 112.946 284.574 72.1333 214.46C52.6138 180.927 195.564 304.64 233.025 334.58C270.486 364.519 311.897 403.121 311.897 403.121C311.897 403.121 260.685 416.912 226.426 422.185C192.167 427.457 124.651 424.987 124.651 424.987Z" fill="#FF9AE7"/>
</g>
<defs>
<filter id="filter0_d_330_22" x="135.028" y="29.8364" width="341.874" height="454.105" filterUnits="userSpaceOnUse" color-interpolation-filters="sRGB">
<feFlood flood-opacity="0" result="BackgroundImageFix"/>
<feColorMatrix in="SourceAlpha" type="matrix" values="0 0 0 0 0 0 0 0 0 0 0 0 0 0 0 0 0 0 127 0" result="hardAlpha"/>
<feOffset dy="4"/>
<feGaussianBlur stdDeviation="2"/>
<feComposite in2="hardAlpha" operator="out"/>
<feColorMatrix type="matrix" values="0 0 0 0 0 0 0 0 0 0 0 0 0 0 0 0 0 0 0.25 0"/>
<feBlend mode="normal" in2="BackgroundImageFix" result="effect1_dropShadow_330_22"/>
<feBlend mode="normal" in="SourceGraphic" in2="effect1_dropShadow_330_22" result="shape"/>
</filter>
<filter id="filter1_d_330_22" x="66.3115" y="208.745" width="249.585" height="224.82" filterUnits="userSpaceOnUse" color-interpolation-filters="sRGB">
<feFlood flood-opacity="0" result="BackgroundImageFix"/>
<feColorMatrix in="SourceAlpha" type="matrix" values="0 0 0 0 0 0 0 0 0 0 0 0 0 0 0 0 0 0 127 0" result="hardAlpha"/>
<feOffset dy="4"/>
<feGaussianBlur stdDeviation="2"/>
<feComposite in2="hardAlpha" operator="out"/>
<feColorMatrix type="matrix" values="0 0 0 0 0 0 0 0 0 0 0 0 0 0 0 0 0 0 0.25 0"/>
<feBlend mode="normal" in2="BackgroundImageFix" result="effect1_dropShadow_330_22"/>
<feBlend mode="normal" in="SourceGraphic" in2="effect1_dropShadow_330_22" result="shape"/>
</filter>
</defs>
</svg>
